<svg xmlns="http://www.w3.org/2000/svg" fill="none" viewBox="0 0 373 107">
  <mask id="3_Qu4D4Yda" style="mask-type:alpha" maskUnits="userSpaceOnUse" x="-83" y="0" width="457" height="107">
    <path d="M240.829 104.739a4.167 4.167 0 011.54 1.347c.287.462 1.665.887 1.45.591-.214-.295-.913-1.2-1.038-1.403-.125-.203.645-.701.788-1.034l.197-.147.501-.369.824-1.256c.125-.184.787.425.966.739v.387c-.001.452.11.897.323 1.293.233.498.286 1.846.376 1.975.089.129.412 0 .501-.185.09-.184.627-.701.842-.941.214-.24-.824-.776-.949-.96-.126-.185-.108-.499.286-.259.394.24 1.576-.461 1.791-.387.214.073 0 .886-.144 1.144v.517c0 .258.591.388 1.254.295h.644c0 .591.287.979.43.905a3.377 3.377 0 011.45 0l.287-.535c-.502 0-.86-.314-.806-.536.054-.221.573-.683.877-.35a4.541 4.541 0 001.88 1.089c.567.038 1.135.038 1.701 0a.888.888 0 00-.555-.185c-.304 0-1.199-.424-1.199-.775 0-.351-1.29-.757-1.522-.794a3.13 3.13 0 01-1.057-.462v-.092c0-.111.269-.295.34-.277 1.218.43 2.492.667 3.778.702h.878c.337.477.742.9 1.199 1.255.215.111.681-.48.806-.572.279-.152.566-.288.859-.406.251-.093.824-.462.681-.591-.144-.129-.681-.351-.878-.259v.13l-.304.664a6.803 6.803 0 01-1.504-.369 1.326 1.326 0 01-.394-.812c0-.24.967-.665 1.289-.72v-.092c.287-1.348 1.146-.591 1.307-.13.287.831 1.218.905 1.791 1.366l.519.388c.34.517.68.72.752.462v-.683c.609-.259 1.522-.665 2.005-.923l.09-.314c.233-.794.805-.813 1.557-.813.323 0 .699-.35.949-.276.251.073.376.461.591.701.287 0 .305.166 0 .332-.304.166-.788.665-.555.868.233.203 1.934-.517 1.791-.738l-.09-.222c-.286-.683.108-1.071.913-.794.806.277.824-.277 1.218-.314h.501c.839.082 1.671.23 2.489.443l.43-.203.519-.277c.549.083 1.093.2 1.629.351a7.487 7.487 0 002.166-.351h1.522c.394 0 1.63-.11 1.988.185a2.285 2.285 0 002.363 0l.895.24.627.148a19.49 19.49 0 012.292-.111 20.23 20.23 0 013.044.572c.716.185 2.954-.258 3.831-.129l.86-.425.644-.295 2.489.591a12.73 12.73 0 001.79 0c.689.09 1.383.127 2.077.111 0-.148.376-.388.573-.24.197.147.895.35 1.146.129l.251-.166.161-.111a.908.908 0 01.68.129c.143.129.627.369.77.24.143-.129.842.111.985.203.547.155 1.103.272 1.665.351l.68-.222c.34-.11.681-.277 1.003-.406.322-.129.806-.757 1.396-.166a.715.715 0 00.484-.111c.644-.609.949-.793 1.611.148l.448.628c.322-.739.698-1.219.841-1.034.144.184.663.554.77.351a2.52 2.52 0 01.913-.757c.287 0 1.003.609 1.182.794.179.184.77-.13.86 0 .089.129.268.203.214-.167-.053-.369 1.057.24 1.128.277.734.203.752-.96 1.666-.572l.483.203c.531.031 1.063.031 1.593 0 .197 0 .914.129 1.379.148.466.018 1.791-.333 2.077 0l.322.166.179.111c.445-.131.867-.33 1.254-.591.358-.24 2.166.406 2.345.185.179-.222.895-.591 1.128-.351.233.24 1.021-.24 1.164-.129l.107.11c.126.13.251.388.376.388.126 0 1.092.258 1.039-.406v-.148c-.484-.203-.681-.48-.466-.572.215-.092.913-.203 1.075 0 .161.203.895.738.877.221v-.258a.707.707 0 01.143-.332h.412c.412 0 .68-.166.573-.554l.716.166h.125c.108.129.573.111 1.021 0a15.649 15.649 0 012.65-.111c.483 0 2.059-.609 2.471-.572.411.037 1.486.258 1.647-.148.161-.406 2.023-.646 2.202-.609l.877-1.107c1.54-.167 2.919-.333 3.08-.388.161-.055.841 0 1.379 0 .537 0 2.828.092 3.813.166l.197-1.052c0-.111.412-.296.501-.259l.556.277a4.68 4.68 0 001.324-.72 8.084 8.084 0 011.433-.646c.426-.168.871-.28 1.325-.332a.647.647 0 00.363-.081.671.671 0 00.263-.27l.179-.184a.801.801 0 01.627 0 4.92 4.92 0 001.791.369c.984 0 .501-.296.447-.702-.054-.406.591-.461-.197-.553a3.656 3.656 0 01-1.056-.314c-.376-.167-.305-.333 0-.591l.304-.258-1.361-1.108c-.447-.35-.966-1.735-.483-1.846h.752a2.262 2.262 0 001.522 0c.394-.185.286-1.846.143-2.437a21.97 21.97 0 01-.43-2.363c.344.131.651.347.896.628l.465-.61.233-.313a4.898 4.898 0 00-.609-1.163l.43-.185h.233c.537.24.859.185.716-.147v-.997c.325-.58.578-1.2.752-1.846a2.218 2.218 0 00-.377-.992 2.126 2.126 0 00-.787-.688c-.716-.296-.716-1.994-.197-1.846l.322.221.323.222c.376.221 1.092-.13 1.611-.757l-.269-.535a4.905 4.905 0 00-.196-.554c-.251-.388-.556-.757-.842-1.126-.286-.37-.68.553-1.056 0l-.108-.166c-.447 0-.394-.277.108-.407v-.166c0-.258-.197-.572-.412-.812-.215-.24-.43-.13-.609-.222s-.555-1.033-.125-1.144c.194-.024.378-.105.53-.232.152-.127.266-.297.329-.488l.108-.203c.752 0 .68-.332-.162-.59-.841-.26-3.097-1.367-4.135-.776l-1.29-.185c-.25 0-.787.443-.895.757l-.25.775c-.627-.221-.949-.72-.735-1.089v-.314a25.713 25.713 0 00-.555-2.86v-.204a7.266 7.266 0 00-.949-.443c-.179 0-.644-.646-.966-.646a7.444 7.444 0 01-1.415-.222 3.29 3.29 0 01-.644-.535c-.144-.13-.824.388-.914.48-.089.092-.662.184-.716-.203-.053-.388-.483-1.034-.895-.794a1.737 1.737 0 01-1.414-.35.382.382 0 00-.044-.427.37.37 0 00-.117-.09h-.126c-.573.203-1.217.978-1.414-.259-.321.025-.639.08-.949.166a8.49 8.49 0 01-1.791-.314h-1.79c-.448 0-1.343-.793-.985-.941.358-.148 1.11-.96.931-1.477-.179-.517 1.791-1.975 1.594-2.012-.197-.037-.358-.499.161-.85v-1.052c.484-.003.956-.15 1.361-.424l.161-.203.376-.499a3.38 3.38 0 010-2.104l.143-.554v-.184c0-.222-.555-.185-1.092.11a3.66 3.66 0 01-2.167-.332c0-.092.108-.462.448-.61h.161l.358.185c.466.24.77.222.681 0v-.849a2 2 0 00.948 0c.269 0-.268-1.181-.465-1.735l-.752-.13a1.345 1.345 0 01-.394-.11l.107-1.255c-1.163-.48-1.79-1.016-1.557-1.182a7.155 7.155 0 011.665 0c.197 0 1.611-.48 2.703-.904l1.128.203c.52 0 .573-.185.717-.554l.214-.572c.188.185.417.32.667.39.25.071.513.076.766.016a11.111 11.111 0 002.202-.942l-.394-.48c.184-.368.406-.715.663-1.034.107-.11.501-.258.591-.11l.143.11.197.148c.25.111.77.314 1.163.443a3.812 3.812 0 001.791.185c.197-.148.591-.85.394-1.145-.197-.295-1.629.185-2.185.203v-.313c0-.314.215-1.053.359-1.053l2.524-.092c-.34-1.477-.304-2.714 0-2.75.304-.038.985.627 1.074.535l.412-.333c.14-.206.265-.422.376-.646.143-.295-.358-1.329-.519-1.587v-.462a.517.517 0 01.2-.315.491.491 0 01.355-.09h.394a.347.347 0 00.258-.004.358.358 0 00.189-.181l-.34-.425c-.573-.628-.519-.96.144-.72h.376l.232.203c.806 0 1.522-.258 1.558-.517v-.184l-.143-1.939a24.747 24.747 0 012.041-1.606l.197-.406a3.659 3.659 0 01.394-1.846l.412-.148c1.038-.35 1.002-.978.948-1.698v-.258c0-.499.538-.702 1.182-.462l-.412-.646c-.394-.61.305-.59.502-.83s.447.775.662 0v-.111l-.716-.388c.071-.48.277-.93.591-1.292l-.161-.72c0-.185-.197-.37-.179-.536v-.203c.143-.221.107-.35 0-.314a2.396 2.396 0 01-1.325-.35c-.341-.277.143-1.348 0-1.44-.627.48-1.182.572-1.791-.111l-.483-.572c-.519.406-.967.554-1.021.332a3.114 3.114 0 00-1.665-1.2l-.573.997-.286.517c-.788-.572-1.307-1.09-1.146-1.126.161-.037.555-.296.501-.443h-1.307a.454.454 0 01-.519-.222c0-.184-.734 0-.788-.203-.054-.203-.43-.48-.555-.258a.749.749 0 01-.952.134.788.788 0 01-.248-.245l-.268-.277-.161-.166a3.05 3.05 0 00-1.45.277c-.43.166-1.934-.24-2.239 0-.304.24-1.181.609-1.521 0l-.287-.37-.268-.369a3.137 3.137 0 00-1.469.222c-.286.148-.877-.59-1.217-.572a5.381 5.381 0 00-1.45.313c-.126 0-.734.24-.878 0-.143-.24-.805-1.052-1.128-.941a3.252 3.252 0 01-1.414-.148c-.251-.11-1.003.203-1.128.111v-.443c-.612.167-1.211.383-1.791.646v-.96a12.428 12.428 0 00-1.521-.406 32.493 32.493 0 00-3.581.166l-.43.11c-.448.112-.734.61-.752-.22 0 0-.519-.24-.537-.222-.537.646-1.343.13-1.504 0-.484-.554-1.164.203-1.701-.332l-.197-.185-1.79.498a3.315 3.315 0 01-1.254-.683c-.465-.369-2.059.277-2.148.24v-.996a4.335 4.335 0 01-2.579-.204l-.555.757-.268.37-1.791-.739h-.483a4.367 4.367 0 00-.913 0h-2.113c-.322 0-1.379-.35-1.486-.24-.107.11-.519.37-.609.222v-.111l-.089-.13c-.126-.128-.269-.147-.305 0a1.365 1.365 0 01-.34.5l-.716-.167a13.446 13.446 0 01-1.79-.388l-.108-.11-.716-.702c-.555.665-1.128 1.034-1.271.83-.143-.202-.609-.608-.752-.498-.143.111-.448-.295-.466-1.07l-1.038.978-.179.166a8.695 8.695 0 00-1.558-.13c-.304 0-1.038.167-1.056 0-.018-.165-1.11-.257-1.272-.091-.161.166-.465-.13-.447-.85l-1.146.905c-.107.092-.734-.258-1.128-.425l-.197-.092a18.095 18.095 0 00-1.79-.59c-.806-.24-2.919.775-3.098.775a18.423 18.423 0 01-1.88-.296 23.342 23.342 0 00-3.778 0l-.215-.184-.537-.406a6.04 6.04 0 01-1.468.48h-.895a11.845 11.845 0 00-1.594-.591 16.92 16.92 0 00-2.596-.203h-.931c-.232-.093-.465 0-.501.148-.036.147-.895 0-1.021 0-.125 0-.644-.444-.841-.277a1.54 1.54 0 01-1.128.295 8.956 8.956 0 00-2.005-.554l-.179.24c-.394.517-.86-.517-1.29.148l-.197.277a2.267 2.267 0 00-1.575-.296c-.197.13-.77.406-.824.277-.053-.129-.304-.424-.429-.387a.608.608 0 01-.344-.019.627.627 0 01-.283-.203 18.301 18.301 0 00-2.65-.332l-1.038.295a3.833 3.833 0 01-2.955-.277l-.483-.295a5.95 5.95 0 00-1.791.498.73.73 0 01-.507.053.753.753 0 01-.424-.293c-.286-.387-1.539.277-1.629.13-.089-.148-.447-.517-.501-.259-.054.259-.322.535-.537.203-.215-.332-1.683.166-2.31 0l-.716.11-.967.149a4.658 4.658 0 00-2.238-.462c0 .13-.394.425-.483.259a1.531 1.531 0 00-.752-.591l-.681.572a21.201 21.201 0 00-2.757-.092c-.591 0-2.471-.222-2.901.129l-.519-.628c0-.11-.734.185-1.11.185h-1.128c-1.235-.092-2.972-.277-3.849-.443l-.645.665-.143.129c-.474-.077-.953-.12-1.433-.13-.358 0-1.271.185-1.307 0-.035-.184-1.235-.092-1.647.333l-.644-.536-.215-.184-1.54.277c-.251 0-1.218.147-1.576.147h-.322a3.038 3.038 0 01-.716 0c-.269 0-.483-.221-.734-.258h-.143a1.36 1.36 0 01-.86 0 2.767 2.767 0 00-1.557.498v-.775c-.696.1-1.38.273-2.042.517h-1.432l-1.558-.665c-.161 0-.752.277-.984.72l-.77-.24c-.394-.129-1.11-.24-1.254-.092-.626.683-.841-.425-1.414-.148l-.501.24c-.683.03-1.36.128-2.024.296l-.125-.111-.77-.646a3.295 3.295 0 01-1.79.35c-.161-.129-.77-.369-.931-.166a7.77 7.77 0 01-.681.757l-.966-.406a9.575 9.575 0 00-2.847-.147 23.408 23.408 0 00-2.614 0c-.448.184-1.612-.444-2.024-.222l-1.11-1.292a17.147 17.147 0 01-3.33.978c-.358 0-1.02-.13-.985.24.036.37-1.36-.35-1.79-.48a3.217 3.217 0 00-1.397 0c-.268 0-.966-.148-1.02 0-.054.148-.394.443-.519.296a3.019 3.019 0 00-1.576-.536l-.501.259-1.54.48-.358-.222c-.466-.314-.913-.461-.985-.332a6.165 6.165 0 01-1.092.757l-.824-.683a1.75 1.75 0 00-.787.258 4.942 4.942 0 01-2.507-.24l-.322-.277a1.11 1.11 0 00-.491.569 1.16 1.16 0 00-.029.76l-1.056-.572-.806-.425v.296c0-.388-1.235.203-1.289.184l-1.002-.184c-.843.058-1.677.206-2.489.443-.43.11-1.504-.406-1.665-.277-.161.13-.609.498-.645.498a1.3 1.3 0 01-.43-.276 2.247 2.247 0 00-1.378-.24h-.322c-.18 0-.52-.277-.573-.24l-.538.424a3.912 3.912 0 00-2.256 0l-.626.185h-.251a1.921 1.921 0 01-.913-.24c-.179-.148-.967-.185-1.2-.333a12.689 12.689 0 00-2.578.24h-1.307a2.208 2.208 0 01-1.396.093 2.478 2.478 0 00-1.361-.277l-.376.166c-.412.166-.752.702-.77-.166a1.09 1.09 0 00-.448 0 13.13 13.13 0 01-2.793.166l-.698-.092c-.411.178-.837.32-1.271.424a6.87 6.87 0 01-1.2-.203 13.903 13.903 0 00-3.348.277c-.645.185-2.435-.738-2.865-.72a9.426 9.426 0 01-2.453-.406c-.537-.221-1.79.738-1.79.72 0-.018-.913-.517-1.253-.13h-.341c-.358 0-.859-.332-1.181-.24l-.681.185a1.982 1.982 0 00-1.11-.59l-.179.11-.304.185c-.269.258-.645.37-.824.222-.179-.148-.608-.314-.644-.093-.036.222-1.057.259-1.236 0-.179-.258-.913-.406-1.056-.203-.23.293-.501.549-.806.757-.501-.923-1.289-.166-1.915-.203h-.305a2.892 2.892 0 00-1.182-.185 7.16 7.16 0 00-1.11.222c-.34.13-1.88-.259-2.524-.092l-.716-.148c-.394-.092-.931.277-1.307.166l-.645-.185c-.627.13-1.611.259-2.166.314l-.52-.092-.913-.13-2.166-.184a2.14 2.14 0 00-.967.628c-.251.314-1.379-.166-1.576 0-.197.166-.787.388-.913.277 0-.277.358-.757.305-.776l-.591-.258a1.634 1.634 0 01-.537.85 1.294 1.294 0 01-.788-.222c-.161-.13-.716-.351-.913-.203-.197.147-.699 0-.734-.591l-.931.406c.143.314-.233.498-.842.406-.609-.092-2.077.61-2.202.498v-.793c-.446.087-.876.25-1.271.48-.144.129-.609.387-.663.166a.556.556 0 00-.603-.39.54.54 0 00-.238.094c-.376.259-1.97-.166-2.4-.166a3.747 3.747 0 00-1.647.665c-.09.184-1.253-.148-1.414-.332a.88.88 0 00-.698-.136.883.883 0 00-.573.43l-.824-.202c-.877-.203.537-.683-.107-.757h-8.899a3.287 3.287 0 01-2.041-.517l-.573.683-.358.406a2.025 2.025 0 00-.663-1.163l-.268.296-.448.461-1.7-.424a10.58 10.58 0 01-2.096-.517c-.322-.185-1.54.35-1.951.369a8.941 8.941 0 01-1.898-.572 10.75 10.75 0 00-1.683-.48l-.43-.222-.805-.443c-.359.517-.663.775-.699.554a.948.948 0 00-.417-.46.906.906 0 00-.603-.094 14.2 14.2 0 01-2.56.59c-.466 0-2.185-.738-3.116-.756h-.77c-.77 0-1.504-.11-2.256-.092h-.519a2.471 2.471 0 00-1.63-.13l-.25-.11c-.752-.388-.967-.222-1.056.424A4.965 4.965 0 0153.1 3.65l-1.128.775h-.125c-.126.093-.233-.11-.251-.461-.018-.35-1.468 0-1.79.148a6.583 6.583 0 01-1.898 0 8.043 8.043 0 00-1.79-.296c-.305 0-1.415-.295-2.06-.221-.644.074-2.524 0-2.793 0-.268 0-.841.554-.913.406-.072-.148-.394-.37-.537 0h-.197l-.322.11c-.412 0-1.361-.129-2.095-.184l-.43-.258-.573-.37c-.34.193-.71.324-1.092.388a2.859 2.859 0 01-.841-.295 6.805 6.805 0 00-1.79.277 7.66 7.66 0 01-2.346-.37c-.144 0-.878.794-.931.554a1.34 1.34 0 00-.426-.543 1.284 1.284 0 00-.63-.25H27.14a4.302 4.302 0 01-1.88.313c-.43 0-1.79-.461-2.113-.535-.322-.074-1.182.277-1.236 0-.053-.277-.286-.794-.43-.775-.572.48-1.056 1.033-2.04.461l-.269-.166a5.945 5.945 0 01-1.486.13c-.418.044-.83.124-1.235.24h-.162l-.573-.112a7.525 7.525 0 00-2.076-.147h-.824c-.484-.37-1.02-.499-1.182-.296-.16.203-.698.499-.93.296-.234-.203-1.2-.628-1.451-.37a3.991 3.991 0 01-1.79.536l-.61.092-.59.11a6.459 6.459 0 00-1.594-.387l-.393-.166-.18-.092a8.288 8.288 0 01-2.112-.351l-.86.59-.465.315c-.86 0-1.612-.351-1.665-.665-.054-.314-1.11-.092-1.379 0-.268.092-1.325.185-1.683.258-.358.074-1.235-.35-1.307-.332l-.573.425c-.179.147-1.558.443-1.36.221.196-.221.178-.424-.448-.147l-.663-.646c-.286-.259-1.235 0-1.88 0h-.483a3.99 3.99 0 01-.842.59c-.125 0-1.02 0-1.897.111l-.61-.683-.089-.11c-.86.295-1.468.387-1.36.184.107-.203.25-.739.178-.812a5.859 5.859 0 00-1.27-.277c-.574 0-2.15.424-2.4.295h-.125l-.555.258a4.298 4.298 0 00-1.79.24c-.305.167-1.433-.775-2.15-1.218l-.698.24-.823.295a7.575 7.575 0 00-1.003-.72 1.458 1.458 0 01-.59-.221c-.215-.148-1.164.258-1.415.388-.25.129-1.2.387-1.003 0 .197-.388-.913 0-1.128-.093a2.599 2.599 0 00-1.325.259c-.322.24-1.504.203-1.414.092a5.029 5.029 0 00-2.47-.277l-.556.35-1.038.647c-.09-.701-.555-.923-1.02-.48l-.968-.295a5.221 5.221 0 00-3.42.277 1.84 1.84 0 01-1.79.11c-.34-.184-1.253.24-1.79.499-.305.11.716.406 0 .627-.197 0-.556-.277-.806-.258-.25.018-1.02.148-1.128.388l-.376.72c-.806.221-1.916.535-2.453.72-.838.223-1.696.353-2.56.387-.323 0-1.29.24-1.522.166-.233-.073-.699-.147-.645.185.054.332-1.128-.148-1.343-.222a12.887 12.887 0 00-1.665 0c-.644 0-2.256.702-2.417.647-.161-.056-.752 0-.77.11-.123.22-.31.394-.536.497-.225.103-.476.13-.717.076a14.18 14.18 0 00-3.456.83l-.25.831c-.108.406-1.271.462-1.486 1.274l-.09.369-1.63.61a.604.604 0 00-.265.318.627.627 0 00-.003.42l-.662.258c.259.482.406 1.019.43 1.57v.387l-.144.83a3.61 3.61 0 01-.644 1.699h-.323c-.179 0-.358 0-.358.166s.34.35.68.517l.305.184v.37c0 .11-.215 0-.322 0-.108 0-.108-.111-.18-.13h-.375c-.412 0-.752 0-.716.148a2.158 2.158 0 01-.77 1.108l-.305.369-.197.24c0 .48.394.701.931.498.537-.203 1.88 0 1.433.979-.448.978-.555 3.803-.108 3.932.53.128 1.042.326 1.522.59-.4.198-.789.42-1.164.665l-.143.332c-.465.942-.752-.498-1.2 0l-.268.277c-.555.203-.86.628-.662.923.197.296-.376 1.846-.484 2.566l.358.683a1.614 1.614 0 01-.151 1.324 1.55 1.55 0 01-.464.487 1.505 1.505 0 01-.62.239h-.77c-.877.147-1.236.295-.824.332.412.037 1.576.295 1.576.554 0 .258-.412 1.015-.931.941h-.752c-.354.01-.708.047-1.056.11h-2.382c-.59 0-1.486 1.57-1.396 1.7h.358c.698-.093 1.074.387.805.885-.268.499-.358.794-.698.96l-.734.388c0 .664-.25 1.07-.43.886h-.197a.89.89 0 00-.626.11.452.452 0 000 .518 1.46 1.46 0 001.414.572c.09.015.175.056.245.118.07.062.12.143.15.233a.526.526 0 01-.097.255.503.503 0 01-.208.17l-.52.22c-.608.204-.59.628 0 .924h1.021c.645-.332 1.182-.148 1.182.406v.37l.143.534a11.19 11.19 0 001.79.351c.377 0 .269 1.182 0 1.846-.268.665-.662 2.658-.286 2.825.376.166 0 1.236-.18 1.421-.178.185-.59.83-.285 1.015l.358.13c.322.11.698-.48 1.056 0a6.033 6.033 0 001.271-.388 8.155 8.155 0 012.543.258 9.692 9.692 0 003.258-.664 18.987 18.987 0 012.83-.166c.393 0 1.413-.61 1.539-.388.209.398.325.84.34 1.292 0 .296-1.289.48-1.575.462l-.126.11c-.286.24 0 .831-.841.757h-.126a.64.64 0 01-.21.251.616.616 0 01-.864-.158l-.09.849v.166a6.37 6.37 0 01-1.79.24l-.09.517v.406c-.125.48 0 .738.251.572.442-.19.927-.24 1.397-.147a1.466 1.466 0 001.325 0c.394-.259 1.343-1.034 1.486-.85-.233.554-.77 1.127-.68 1.625l.107.572c.644.665 1.002 1.33.788 1.495a1.567 1.567 0 01-1.415-.129l-.233-.314-.143-.203c0-.295-.125-.517-.215-.48l-.483.628a2.384 2.384 0 00-1.379-.443c-.179 0-.125.61.537 1.015l-.43.665-.178.277a1.258 1.258 0 00-.802.194 1.32 1.32 0 00-.523.655c-.269.59-.609 1.255-.484 1.366a1.287 1.287 0 001.146-.148l.358-.258a.945.945 0 01.591.37c.125.184.25.811 0 .83-.25.018-1.289.295-1.003.48.287.184 1.021.886.896 1.107-.126.222-.591.794-.752.628h-.144c-.447-.11-1.145.35-1.647 1.237l-.215.37c.213.316.447.618.699.904a.45.45 0 01-.162.627H-73c-.663 0-.86.203-.591.72 0 .148.269.37.215.425l-.304.258c.07.166.195.3.352.382a.73.73 0 00.507.061l.179-.424v-.166c.949 0 .913.166 0 .553l.394.757.197.406a1.23 1.23 0 010 1.127c-.18.147-.537.922-.287 1.218.251.295 1.468.701 1.468.978l-.107.185-.233.37c-.197.46-.179.7 0 .516.38-.206.81-.29 1.236-.24.45.074.91.074 1.36 0 .287 0 1.11.092.967.203l-.913.72c-.233.148-1.002-.24-1.074-.24-.072 0-.25.185-.215.498.036.314-1.182 0-1.397 0-.214 0-.608.24-.214.425.393.185 1.521.48 1.611.314.172-.21.416-.342.68-.37.126 0 .663.96.896.942.24.043.468.144.664.295.196.15.355.347.464.573l-.215.517a1.255 1.255 0 01-.43.618 1.194 1.194 0 01-.698.25h-.126c-.16.147-.107.498.108.812.433.371.888.717 1.36 1.033.126.13.108.647.251.683.144.037.287.351.34.388.054.037 0 .295-.322.498a2.901 2.901 0 00-.752 1.68l.269.296c.77.812.573 1.255-.484 1.754l-.841.369c.49.515.944 1.064 1.36 1.643.216.35.86.775.27.812l.089.775v.314c0 .443-.162 1.145-.215 1.514l-.305.277-.376.295c.154.502.333.995.538 1.477l-.376.461-.931 1.108 1.486.886a8.833 8.833 0 01-1.486 2.178l-.68 1.09-.198.313.806-.203c.222.04.434.12.627.24a5.26 5.26 0 001.217.517 6.269 6.269 0 011.486.37l.412.166.483.203a9.816 9.816 0 013.098.406c1.146.314 4.834.535 5.46.701h.592l.608.093a27.04 27.04 0 003.581.332h1.79a6.275 6.275 0 011.916 1.2l.573-.72c0-.093 1.057.24 1.075.203.286-.757.895.554 1.307-.148l.143-.24a3.127 3.127 0 001.7.536l.592.443a4.445 4.445 0 011.933.166c.287.147 1.522-.185 1.79-.129a21.56 21.56 0 002.561.258 26.72 26.72 0 003.062.351c.197-.166 1.486.35 2.077.535l.465-.111.788-.184c.806.129 1.79.258 2.346.313.555.056 1.575.37 1.665.222.09-.148.93 0 1.378.425.448.424 2.274-.167 2.686 0l.143-.093.663-.424a4.135 4.135 0 002.31.443l.59.166.591.166a7.989 7.989 0 012.256-.258h1.217a3.114 3.114 0 002.095-.185l.68.332.502.24a19.8 19.8 0 013.133.222l.985-.24.663-.166c.877.24 1.79.461 2.094.498.493-.073.99-.11 1.486-.111a7.248 7.248 0 001.79 0c.628 0 2.203.296 2.257.166.054-.129.233-.147.25.24.018.388 1.272-.332 1.522-.332.251 0 1.379 0 1.916.111.537.111 1.97-.129 2.346 0a12.48 12.48 0 002.274-.203h2.828c.537 0 1.934.591 2.167.609.233.019 1.002-.166 1.289-.148.286.019 1.128 0 1.79 0l2.686-.203c.233 0 .788.203.967 0 .179-.203 1.7 0 2.184.093 1.009.051 2.007.231 2.972.535l.824-.535.627-.388c1.148 0 2.294.118 3.42.351l.877-.333h.125a1.324 1.324 0 001.558.185 13.9 13.9 0 013.742.351c1.304-.047 2.6-.232 3.867-.554.143 0 1.128.148 2.06.277l.877-.296.5-.166c.1.248.285.449.52.565.235.116.502.138.752.063.394-.203 1.486-.517 1.79-.295.305.221 1.218.701 1.433.48a3.487 3.487 0 012.112-.48l.591.258a2.048 2.048 0 001.79 0l.592-.295c.383.249.84.348 1.289.277.268 0 1.2-.296 1.468-.351a3.311 3.311 0 011.486.369c.304.185 1.343 0 1.611 0a11.15 11.15 0 001.79 0c.341 0 1.272-.185 1.29-.388.018-.203.233-.793.358-.72.126.074.501.093.59 0 .09-.092.645-.313.932-.203l.161.351c.126.277.734.369 1.092.591 1.057.627 1.075.627 2.185-.111l.16-.111a.892.892 0 01.878.093c.233.166 1.2.498 1.522.258.322-.24 1.271-.757 1.307-.554.099.218.243.41.423.564.18.153.39.263.615.322a30.165 30.165 0 014.548.148l1.558-.517.483-.148c.824.444 1.63.628 1.79.407.162-.222.896.184.986.258a5.54 5.54 0 001.557.092 24.695 24.695 0 003.134-.424c.576.06 1.136.235 1.647.517.34.184 2.04.129 2.74.59l.823-.646.501-.406a2.663 2.663 0 001.665 0c.358-.184 1.36.554 1.79.609.43.056 1.469-.277 1.505-.48a.692.692 0 01.46-.356.664.664 0 01.56.135l.34.332.394.369a1.897 1.897 0 011.2-.11c.215.092.877.258.913 0 .036-.259.251-.296.376.295l.806-.314.411-.166 1.11.258c.251 0 1.2-.332 1.504-.258a4.015 4.015 0 001.791-.222c.322-.184 1.522 0 2.041-.221l.466-.092c.197 0 .608.258.644.203.412-.443.591 0 .913 0 .323 0 .484-.259.752-.351.269-.092.287.185.287.295v.093c-.179.11-.269.24-.197.295.071.055.394 0 .626 0a3.98 3.98 0 011.683.148h.412c.627 0 1.504-.406 1.791-.185l.662.425a3.494 3.494 0 011.468-.407c.52.098 1.021.279 1.486.536.251.166.484-.628.52-.665a7.709 7.709 0 011.307 0l3.33.333c.501 0 1.79-1.108 2.041-.942.251.166.609.978 1.361 1.052a27.469 27.469 0 004.834-1.07l1.074.849.287.24a9.927 9.927 0 001.683-.425c.197-.111.966 0 1.307 0 .34 0 1.378.259 1.557.277.599.018 1.197-.013 1.791-.092a21.04 21.04 0 014.154.332l.913-.609s2.238.48 2.274.498c.035.019.215.259.34.277l.555.111c.519-.258.913-.628.859-.831-.053-.203.108-.812.323-.812.214 0 .662.166.501.351v.48c0 .406.465.646 1.02.535h.878c.588.143 1.187.236 1.79.277.573 0 2.256-.277 2.596-.148.341.13 1.469-.147 1.791 0 .322.148 1.396-.11 1.575 0h.179a5.724 5.724 0 002.489-.166l.77-.221h2.417c.34 0 .681-.72 1.092-.24l.233.258.108.148c.377.278.812.461 1.271.535a9.779 9.779 0 002.614-.554 8.598 8.598 0 001.074-.092 4.916 4.916 0 011.271 0 11.8 11.8 0 001.88 0 8.385 8.385 0 001.988-.498c0-.093.34.11.644.646l.931-.462c.251-.129.949.499 1.486.554h.448a2.033 2.033 0 011.016-.007c.334.084.643.251.9.487l.77-.554.447-.332c.716-.277 1.433-.351 1.558-.148.125.203.77.646.949.425a1.035 1.035 0 011.289-.111l.322.166c.258.074.53.074.788 0v-.904c.931-.259 1.79-.24 1.79 0 .081.223.229.413.422.543.194.129.422.191.653.177l.394.11c.322 0 .519.333.573-.129a.49.49 0 01.063-.268.47.47 0 01.462-.233c.09.012.175.052.244.113.86.628 1.791.203 2.758.333l.626.092 1.486.185h.108l.752-.13c1.038-.166 1.593-.387 1.271-.498-.322-.111.34-.72.412-.905.072-.184.465-.387.501 0 .036.388.376 1.422.699 1.274l.232-.184.269-.203a1.014 1.014 0 011.343-.296c.465.24 1.79.443 1.951.129.161-.313.949-.886 1.325-.461v1.311a8.857 8.857 0 002.202-.204c.823-.05 1.648-.05 2.471 0l1.039-.332a6.46 6.46 0 012.399.222l.43-.166.429-.148c.287-.554.806-.886 1.182-.702.376.185 1.235.739 1.2.886v.259a.393.393 0 00.376.185 3.24 3.24 0 00.859-.647c.269-.276 1.397.296 1.558.314a6.947 6.947 0 001.289-.203v-.147l.125-.48h-1.629c-.43 0-.609-1.053-.197-1.108.412-.055 1.629 0 1.629.314l.179.295c.215.351.573.905.913.923.914 0 .179-.757.573-1.052 0 0 .466.258.842.701.376.443 2.31.425 2.918.462.609.037 1.254-1.015 1.433-.628.179.388-1.11.683-1.2.739a.57.57 0 00.09.627h.483a7.516 7.516 0 001.54-1.033l.125-1.57c0-.221.645-.59.68-.572 1.558 1.071 1.039-.221 1.2-.72.161-.129.34 0 .376.462.036.461.394 1.052.752.738.358-.314.877 1.052 1.003 1.311.125.258.662 1.052.877 1.07.215.019 1.414 0 2.31 0h1.002c.179 0 .341.001.341-.129v-.738a1.291 1.291 0 00-.402-.552 1.224 1.224 0 00-.619-.26h-.555a3.954 3.954 0 01-1.182.553h-.412c-.197 0-.537 0-.59-.184l-.233-.462a1.43 1.43 0 00-.393-.625 1.363 1.363 0 00-.646-.335l-.125-.147c-.269-.37-.269-.923-.609-1.182l-.644-.517a2.82 2.82 0 011.092-.867c.233 0 .949.258.949.793 0 .536.465 1.957 1.002 1.976l.323.369c.394.461.77.517 1.361.092l.59.665zm-5.801-4.135a1.74 1.74 0 01.86-.166s-.09.35-.34.553a3.72 3.72 0 01-2.328 0l-.68.536s-.287 0-.376-.166l-.233-.222c-.305-.388-.179-.738.25-.812.43-.074 2.4.424 2.776.277h.071zm12.981.793c.609.204.931.61.68.924-.25.313-1.342-.333-1.611-.499a8.166 8.166 0 00-2.023-.24c-.466 0-1.791-.24-1.594-.554.197-.314 1.486 0 1.791 0a5.745 5.745 0 001.79-.166l.519.24.448.295zm-312.343-51.54c-.502.166-.716 0-.484-.351a95.26 95.26 0 001.432-2.345l.735.868.555.646c.59-.222.752-.314.358-.203-.394.11-2.095 1.218-2.596 1.384zm207.978 51.762c.451-.021.9.074 1.307.277v.092l-.179.333a.618.618 0 010 .83c-.233.129-1.11-.314-1.54-.424-.43-.111-.233-1.126.412-1.108zM-71.962 49.321c.323-.498.502-.517.376 0-.125.517-1.575 1.09-2.005 1.126v-.757c-.358-.48 0-.517.931 0l.286-.11.412-.259zm323.964 51.56c1.02.258 1.54.461 1.146.461a6.474 6.474 0 00-1.791.831c-.304.166-1.199.424-1.199.111 0-.314.411-.868.913-.647h.107l.824-.756zm-43.992 1.846c.215 0 .108.517-.25 1.237l-.484.239-.59.296a2.406 2.406 0 01-1.576.48l-.09-.185-.107-.203c0-.351.609-.572 1.235-.498l.359-.166.411-.185a2.947 2.947 0 011.092-.96v-.055zm-145.24-.093c-.305-.129-.359-.387-.144-.59a13.89 13.89 0 001.003-.923c.143-.185.841 0 .698.461-.143.462-1.253 1.255-1.558 1.108v-.056zm159.654 1.034c.089-.535.143-.591.107-.129-.036.461.125 1.68-.251 1.643-.376-.037.054-.942.144-1.458v-.056zm137.184-34.004c-.358 0-.573-.148-.466-.498.716 0 .877-.37.824-.905v-.258c.107-.351.411-.259.698.221.286.48-.68 1.348-1.056 1.44zm6.195 8.88c0-.203.286-.425.59-.499l.251-.092c.233-.11.322-.462.698-.13.376.333.52.425 0 .74-.519.313.341 1.088-.591 1.033-.34 0-.644-.61-.913-.96l-.035-.092z" fill="#09F"/>
  </mask>
  <g mask="url(#3_Qu4D4Yda)">
    <path fill="#000" d="M0-2h392v114H0z"/>
  </g>
</svg>
