<svg xmlns="http://www.w3.org/2000/svg" fill="none" viewBox="0 0 230 107">
  <mask id="WtMIms8g9a" style="mask-type:alpha" maskUnits="userSpaceOnUse" x="-83" y="0" width="313" height="107">
    <path d="M159.713 97.041a7.33 7.33 0 01-.201.782s-.512 0-.993-.252l-.543.933-.248.403a1.993 1.993 0 00-1.024-.328c-.326 0-1.442 1.185-1.551 1.11v-.454c0-.48-.388-.58-.806-.227a5.157 5.157 0 01-2.482-.328c-.512 0-1.939 1.084-2.234 1.034-.295-.05-1.07-.731-1.303-.807-.232-.076-.899.63-1.07.756-.171.126-.574 0-.589.631-.016.63-.931-.379-1.21-.353l-.202.226c-.481.58-.543.253-.698-.58l-.108-.605c-.295.757-.714 1.185-.9.933-.497-.295-1.036-.347-1.551-.15l-.31.402-.28.379a5.906 5.906 0 01-.884-.328l-.077-.277c-.202-.353-.326-.832-.528-1.21a.8.8 0 00-.238.363c-.055.158-.08.338-.072.519 0 .328-.574.882-1.024 1.084l-.372-.58-.093-.126c-.177-.202-.388-.31-.605-.31-.216 0-.427.108-.605.31l-.248.277-.155.152a.25.25 0 01-.144-.049.426.426 0 01-.12-.139.732.732 0 01-.075-.205.94.94 0 01-.018-.238v-.605c0-.201-.124-.378-.325-.353v.151c-.156.328-.218.782-.357 1.135l-.186.429a1.051 1.051 0 00-.76-.227 1.438 1.438 0 01-.841-.258 2.412 2.412 0 01-.71-.776l-.791.983a.405.405 0 01-.256.098.401.401 0 01-.256-.098l-.326-1.059a7.497 7.497 0 00-1.039 1.311c-.124.303-.621.832-.729.404-.109-.429-.636-1.336-.9-.857l-.264.126-.449.227-1.133.126-.899.428c-.357.177-1.644-.832-1.769-.479l-.155.202-.155.176c-.217 0-.31 0-.201-.403v-.227c0-.227-.187-.428-.311-.605l-.418-.454a10.6 10.6 0 01-.218 1.387 1.554 1.554 0 01-.601.54.98.98 0 01-.686.065l-.481-.202h-.108c-.093-.277-.14-.479-.093-.479a5.22 5.22 0 00.341-1.336c.139-.706 1.38-.454 1.551-.555v-.302a6.237 6.237 0 00-1.179-1.614l-.713.63-.311.278c-.372.176-.372.53 0 .781.373.253-.077 2.37-.434 2.673h-.45c-.826-.232-1.674-.119-2.466.328a.638.638 0 01-.489-.016 1.025 1.025 0 01-.426-.388l-.217-.353c-.109-.706-.279-.958-.404-.554-.124.403-.729 1.437-1.085 1.361-.357-.076-1.551.151-1.753.908l-.31-.479v-.126c-.078-.152-.295-.706-.481-1.211l-.388.454-.108.152a.604.604 0 01-.312-.23 1.212 1.212 0 01-.2-.451c0-.303-.233-1.135-.326-.63v.806c-.155.555-.357.454-.605.152-.636-.732-.155.706-.45.731h-.186a1.093 1.093 0 01-1.055 0l-.31.529c-.093.151-.372.278-.419.177l-.698-1.437c-.434 1.134-1.054 1.638-1.365 1.109-.31-.53-1.675 0-1.907-.277-.233-.278-1.319.554-1.846.479l-.45.479a8.145 8.145 0 00-1.117-.631l-.76.252-.543.177c-.077-.681-.34-.958-.59-.605-.247.353-1.178 0-1.302 0-.35.19-.688.434-1.008.731l-.419-.202-.48-.227a1.233 1.233 0 01-1.149 0c-.065-.097-.151-.151-.24-.151-.09 0-.175.054-.24.151-.156.278-.854 1.085-.978.782-.203-.475-.467-.871-.775-1.16-.57-.073-1.14.092-1.66.479a3.335 3.335 0 01-1.939 0c-.248 0-1.008.454-1.21.252a3.733 3.733 0 00-.961-.63l-.373.605c-.496 0-1.008-.151-1.147-.151-.14 0-.745.277-1.102.353-.356.075-1.132 0-1.194.832l-.682-.857-.125-.152a1.599 1.599 0 00-.853-.151c-.31 0-1.411-.202-1.737.151a4.177 4.177 0 01-1.675.757l-.124-.177c-.295-.378-.48-.907-.93-.832h-.388c-.153.421-.366.776-.62 1.034h-.591a34.66 34.66 0 00-1.551.832l-.264-.832c-.264-.857-.73-.908-1.179-.303l-2.28.58h-.636a5.366 5.366 0 00-1.706 0c-.233 0-.807-.706-.838-.327-.03.378-.294.705-.511 0-.218-.706-1.707 0-2.219 0a6.586 6.586 0 00-2.109.705l-.853-1.235a7.113 7.113 0 01-2.172.227c-.294.605-.558.983-1.1.479l-.25-.227a7.999 7.999 0 01-1.643.832h-.945c-.454-.027-.9-.217-1.303-.555-.124-.201-.481-.579-.528-.378-.174.415-.432.718-.729.857a2.37 2.37 0 01-1.55 0v-1.336a11.62 11.62 0 00-1.552.757l-.419-.479a.566.566 0 00-.387-.169.566.566 0 00-.388.169c-.357.605-.76.428-1.163.529h-.373l-1.132.63c-.186.126-.791-.605-1.117-.504a8.22 8.22 0 01-1.55.303c-.187 0-.606.403-.699.227a23.692 23.692 0 00-1.55-1.942v2.042a.535.535 0 01-.513 0l-.9-.63a8.151 8.151 0 01-2.404.681h-.884c-.093-.605-.946-.782-1.892-.378h-.869c-.217 0-.186-.757.078-1.034h.124c.202 0 .217-.252 0-.403-.217-.152-.682-.202-.682.277 0 .479-.28 2.017-.62 2.118-.342.1-1.552-.605-1.893-.479h-.45c-.409.047-.818-.065-1.194-.328l-.59-.53c-.533.357-1.051.769-1.55 1.236-.25.252-.668-1.059-.714-1.059a2.122 2.122 0 00-.528.555l-.077-.631c-.404-.605-.636-.554-.683.505v.252a.423.423 0 01-.185.147.283.283 0 01-.206-.003.432.432 0 01-.184-.152.815.815 0 01-.123-.27c-.155-.454-1.054-.176-1.55 0-.497.177-1.94.252-2.141.202l-.093.479s-.435.227-.512 0c-.078-.227 0-1.261-.543-.882l-.17.176c0 .756-.56.983-1.102.504l-.512-.453a2.934 2.934 0 00-1.442.302c-.342.58-.667 1.16-.791-.252l-.605-.303c-.233 0-.915-.302-.993 0a13.39 13.39 0 00-.357.908c-.209.307-.458.531-.729.656-.31.126-1.194-.429-1.24-.278a.527.527 0 01-.357.152.528.528 0 01-.357-.152c-.17-.302-.853-1.059-1.008-.832-.155.227-.652.681-.776.504-.124-.176-.512-.554-.543-.252a.63.63 0 01-.068.269.29.29 0 01-.154.146.185.185 0 01-.177-.035.414.414 0 01-.128-.203h-.683c-.155-.605-.418-.782-.59-.353-.17.428-.681 1.412-.728 1.185-.047-.227-.31-.605-.496-.454-.187.151-.76.504-.791.303v-.202c-.109-.656-.497-.656-.543-.278-.155 1.261-.559 1.211-1.009.681l-.356-.428-1.38.857-.326-.681a1.248 1.248 0 00-.232-.432.64.64 0 00-.326-.216.483.483 0 00-.352.046.814.814 0 00-.3.3s-.218 0-.28-.202l-.372-.782c-.155.328-.372.858-.512 1.185h-.62c-.558-.151-1.086-.252-1.179-.252l-.713.378c-.233 0-1.102-.907-1.38-.605-.28.303-1.118.681-1.242 0-.124-.681-1.225.454-1.721.53-.497.075-1.769-.58-1.784-.252-.016.327-.217 1.134-.326.857v-.328c0-.176-.388-.378-.791-.429-.403-.05-1.24-.806-1.04-1.134.203-.328 2.886-.429 3.429-.63.543-.202.512-.858.17-.631l-.357-.252a4.654 4.654 0 01-.76.958c-.31.303-.76-1.462-.899-1.538-.14-.075-.295.605-.295.908v.252c-.155 1.009-.124.807.233 1.034l.45.302a3.78 3.78 0 00.868-.605h.078l.419-.454a1.29 1.29 0 01-.868.069c-.29-.078-.565-.256-.808-.522-.522-.478-1.127-.664-1.721-.53-.264.151-1.241-.227-1.551 0-.31.227-.217 1.261-.14 1.513.078.252.45.857.652.857.201 0 .496.227.217.479a7.701 7.701 0 00-1.117 1.336c0 .202-.62 0-.714 0a18.53 18.53 0 01-.636-1.361 14.54 14.54 0 00-1.24-1.488c0-.176-.202.631-.155.958h.093l.356.303c.388.252.605.756.497 1.16v.151c.14.353.201.782-.093.58l-.481-.303a6.407 6.407 0 01-1.551-.605c-.659.051-1.308.273-1.924.656-.186.151-.62.302-.9.504l-.263-.177h-.155l-.17-.353c-.187-.403-.45-.529-.59-.252-.14.278-.652.253-.9 0-.248-.252-1.179.253-1.55 0l-.311-.428s.124-.479.155-.757v-.806c0-.278-.155 0-.28.403-.123.403-.899.933-.868 1.084a.863.863 0 01-.092.427c-.064.118-.153.191-.249.203a8.086 8.086 0 01-1.784-1.008c-.434-.328-1.721.378-1.814.328-.093-.051-.295-.303-.249-.454.141-.306.309-.578.497-.807.155-.202-.248-1.941-.915-2.143l-.264 1.109-.217.858c.388 1.159.341 2.193-.109 2.344l-.124-.201c-.264-.404-.341-1.185-.806-1.261v-.176c-.094-1.261-.094-1.236-.792-1.412h-.356c-.466-.303-.853 0-.853.504s-.155 1.941-.357 1.992l-.28-.454c-.263-.53-.263-1.059 0-1.16.264-.101.202-1.513 0-1.563-.201-.05-.79.832-.899.655-.108-.176-.419-.655-.527-.63h-.078c-.132.231-.272.45-.419.656-.14.201-.744-.832-.868-.505-.124.328-.574.908-.791.706-.33-.28-.7-.411-1.07-.378-.156 0-.528.731-.574.378-.047-.353-.31-1.21-.497-1.159h-.108l-.791.756c-.714-.706-1.38-1.412-1.551-1.538-.171-.126-.45-.403-.481-.328-.08.342-.138.697-.171 1.059 0 .404-.745 0-.93 0-.187 0-.668 0-.683-.328-.016-.327-.667.152-.869.479-.201.328-1.117.555-1.24.782l-.14.202c0 .126-.233.302-.248.252l-.76-1.362c-.078 1.16-.45 1.967-.822 1.765-.373-.201-.916-1.966-.947-1.714a7.197 7.197 0 01-.232.958 10.864 10.864 0 01-.776-1.387c0-.151.14-.605.17-.907v-.328a1.112 1.112 0 00-.116-.449.54.54 0 00-.255-.257v.151c-.481.807-.698.53-.807-.479-.28 0-.512.277-.527.555-.016.277 0 .907.155.958.155.05-.093 1.008-.326 1.109-.233.101-.698-1.185-.776-1.916v-.68c0-.278.295-.707.435-.681h.651c.698.201 1.257 0 1.226-.379-.032-.378-1.07-.63-1.226-1.084a9.171 9.171 0 01-.217-1.563 5.614 5.614 0 01.372-1.84l.202-.379c.248-.478.527-.932.791-1.386v.983c0 .555.48 2.017.683 1.74.201-.278.76-1.236.62-1.538l-.093-.177-.124-.201c-.17-.177-.217-.454-.124-.58.093-.126.248-.681.124-.908-.124-.227-2.234-.832-2.079-.933.155-.1.28-.378 0-.353-.279.025-.574-1.31-.682-1.285-.109.025-.326.201-.295.352.031.152 0 .43-.233.328h-.186c-.59-.655-.868-1.21-.62-1.26.248-.05.993-.48.993-.832a6.278 6.278 0 00-.481-1.614 1.48 1.48 0 00-.57-.472.978.978 0 00-.64-.057.792.792 0 01-.372.256.577.577 0 01-.404-.03c-.248-.201-.853-.327-.667.227.187.555-.666 2.522-1.008 3.43h-.93c-.171.68-.326.957-.342.655-.015-.303-.217-1.21-.34-.883-.125.328-.621.731-.885.328-.264-.403-1.21-1.31-1.551-1.134-.341.176-1.117 1.26-1.722.907l-.558-.277s0 .302-.124.428c-.124.127-.264.58-.388.58h-.403c.098-.548.228-1.08.387-1.588.06-.44.033-.9-.079-1.312-.111-.413-.3-.757-.541-.982l-.341 1.563c-.078.378-.481.58-.76.706-.28.126-.357-.252-.404-.48-.046-.226-.077-.73-.34-.302-.265.429-.482.454-.621 0a2.87 2.87 0 01-.155-1.286 14.46 14.46 0 01.651-1.764l.217-.58c-.244-.728-.624-1.31-1.085-1.664a3.637 3.637 0 00-1.552-.454c-.68-.457-1.285-1.165-1.768-2.068-.201-.554-1.194-.857-1.256-1.008a16.62 16.62 0 010-2.345l-.372-.933-.124-.327a1.935 1.935 0 01.065-.798c.075-.247.2-.445.353-.564l.217-.428c.357-.706.326-.757.59-.379l.124.202.434.555c.202-.731.45-.908.559-.404.108.505 1.163.63 1.458.53.294-.101 1.1-.706.713-.958-.388-.252-1.101-1.16-.962-1.639l-.294-.302-.497-.53c-.34.832-.635 1.361-.651 1.185-.113-.317-.296-.55-.512-.656-.217 0 0-1.437.403-1.588l.202-.403.202-.454c.186-.807.217-1.563 0-1.69-.218-.125-.186-1.008.186-1.714a13.16 13.16 0 001.085-2.52c-.124 0-.356-.606-.201-.984h.419c.173-.147.324-.354.442-.607.118-.252.2-.545.24-.855l-.31-.53c.067-1.161.24-2.3.512-3.378l.326-.404c.308-.332.534-.833.635-1.412.155-.65.336-1.281.543-1.89l.14-.328.326-.757a12.227 12.227 0 01-.404-2.798l.078-.706.124-1.009c-.419 0-.605-.479-.388-.832.424-.607.928-1.047 1.474-1.285h.915c.304-.528.642-1 1.008-1.412.326 1.008.652-.454 1.024 0 .332.374.706.64 1.101.781.02-.14.06-.27.119-.38a.642.642 0 01.214-.245.355.355 0 01.26-.054.445.445 0 01.245.15c.294.328 1.163-.58 1.24-.605.249.504.636 0 .807.201l.465.555c.236-.221.504-.338.776-.338s.54.117.776.338l.434-.706a11.71 11.71 0 011.55.883l.621-.832h.093c.258.06.519.06.776 0 .425.068.84.255 1.225.554.352.07.71-.035 1.024-.302.202-.252 1.272 0 1.706 0h.419c.203-.064.414-.001.59.176l.294.48c.432-.366.878-.686 1.334-.959l.403-.277c.124 0 .187-.328.28-.504l.232-.454c.109.479.31.781.465.68.344-.617.541-1.412.559-2.243v-1.059c.61.041 1.222-.06 1.815-.303l-.109.177-.76 1.235c0-1.084-.155-1.89-.372-1.765-.217.126-.233 1.286-.217 1.715.069.658.222 1.285.45 1.84.093.151.635-.605.853-1.008.217-.404-1.04-2.32-2.017-2.875l-.279.48-.31.529c-.28.908-.822 1.437-1.21 1.185s-1.35-1.16-1.319-.53l-.077.404v.151c-.264 0-.465 0-.434-.227.03-.227 0-.655-.14-.706-.14-.05-.574-.328-.527-.554h.45c.387-.58.45-1.185.14-1.337l-.11.152-.434.68a3.486 3.486 0 01-1.442-.353c-.264-.176-.9.731-1.024.807l-.28-.277a.967.967 0 00-.497-.287.777.777 0 00-.526.085l-.28-.454h-.636c-.123 0-.232-.227-.232-.53v-.655a6.923 6.923 0 01.42-1.89h.992c.729 0 .636-.833-.186-1.841h-1.226c-.19.462-.46.822-.775 1.034l-.093-.126-.342-.681a7.06 7.06 0 00-.34-2.219h-.233c-.093 0-.187.429-.171.63v.177a.66.66 0 00.372.122.657.657 0 00.372-.122l.326.177c.202 0 .434-.404.884-.177l.59.328c.734-.283 1.402-.904 1.923-1.79l-.357-.706-.093-.177c-.186 0-.79.505-1.334 1.387l-.744-.555-1.226-1.412-.542 1.16c.137.348.227.739.264 1.147.038.409.021.825-.047 1.223-.17.454-.791 1.336-1.148.605l-.155-.53a2.037 2.037 0 01.093-.907l.124-.328c.14-1.285 0-2.218-.45-2.092-.45.126-.993-1.664-.822-1.916.17-.253.682-1.261.357-1.135-.326.126-3.46.958-3.94 1.361-.48.404.155.656.807.454l.543-.479.17-.126c.202 0 .341 0 .31.151a1.37 1.37 0 00.056.46c.044.141.11.262.193.347.217-.453.387-.983.589-1.462l.155-.353c-.218-.553-.53-.992-.9-1.26-.325-.202-.961 1.235-1.054 1.386-.093.151-.388 0-.435-.907l-.605.504-.34.302c.83.202 1.65.514 2.45.933.105.066.2.169.278.3.078.132.137.29.174.462.037.173.05.356.04.538a1.857 1.857 0 01-.104.515c-.178.41-.381.79-.605 1.135-.093-.48-.093-1.26-.264-1.387l-.465-.403a7.218 7.218 0 01-.233 1.714 5.48 5.48 0 01-2.482-.68l-.9.907-.31.303a2.81 2.81 0 00-.14-1.337c-.123-.201-.604-.58-.635-.201-.044.278-.153.517-.303.668-.15.15-.331.2-.504.139-.387-.227 0-2.22-.263-2.522-.354-.237-.736-.34-1.118-.3-.381.04-.753.22-1.085.527l-.806.53h-.094c-.263-.58-.542-.958-.62-.832-.122.2-.231.419-.326.655l.326.404c.298.374.65.618 1.024.706h.527c.714.756.62-.152.636-.908v-.177c.078-.15.14 0 .155.404.016.403.714.605.807.857v.202c0 .176-.233.428-.31.378-.404-.277-.76.882-1.21 0-.466.555-.9.706-.962.328l-.17-.227h-.078c-.248.227-.605.605-.807.832-.201.227-.9.68-.992.302-.093-.378-.373-1.437-.435-1.361h-.108l-.605.328c-.599.368-1.25.456-1.877.252 0-.958-.28-2.017.28-2.85 0 0 0-.554-.125-.68-.124-.126-.357 0-.403 0-.16.44-.305.895-.434 1.361l-.078.253c-.124.252-.28.201-.326 0a3.774 3.774 0 00-.496-1.337c-.14-.126-.62 0-.729-.126-.109-.126-.512-.605-.543-.428-.031.176-.264.53-.372.227a.895.895 0 00-.248-.302.506.506 0 00-.303-.107.506.506 0 00-.302.107.896.896 0 00-.249.302l-.356.479c-.217-.429-.326-.958-.202-1.16.124-.202.326-.908.14-.958-.186-.05-.683-.48-.605-.782.077-.302.093-1.361-.14-1.412-.233-.05-.48-.756.124-1.361l.481-.53c.18-.2.32-.48.403-.806.044-.168.066-.348.066-.53 0-.182-.022-.362-.066-.53a.583.583 0 00-.27-.217.392.392 0 00-.303.016l-.326.227a5.51 5.51 0 01-.202 1.588h-.124c-.388.328-1.551-.58-1.551-1.26v-.202c.186-.277.543-.731.791-1.059a9.36 9.36 0 00.822-1.639s.217 0 .403.429h.372c.295-.429.404-.958.249-1.16-.418-.964-.66-2.1-.698-3.277v-2.874c.667-.858 1.24-1.362 1.272-1.06.03.303.232.807.403.58.17-.226.078-1.537.233-1.588.155-.05.574-.605.356-1.11h-.155c-.279 0-.543.404-.837.48-.295.075-.59.277-.59-.48 0-.756 0-1.008.218-1.109l.496-.353c.512-.176.884.555.853 1.664l.76-.302.62-.227c-.263-.983-.232-1.84 0-1.866.233-.025 1.086 0 1.117.429.031.429.248.807.434.403.187-.403.776-1.437.807-1.084.031.353.264 1.185.403.883.454-.65 1.04-1.001 1.644-.984l.42-.453.449-.48a7.438 7.438 0 001.675 0h.59c.398-.14.81-.14 1.21 0 .67-.051 1.337-.16 2-.327.314.151.636.253.962.302.28 0 1.008 0 1.225.202.218.202 1.133-.933 1.551-1.286l.078 1.311v.429l.915-.782c.202-.151.559-.73.683-.378.124.353 1.054 0 1.318-.151.412-.004.821.107 1.21.328.155 0 .62-.555.713-.732.093-.176.59.152.714.253.436.014.865-.17 1.24-.53.42-.378 1.909.68 2.358.756.45.076 1.552-1.16 1.815-1.21.264-.05.946 0 1.241-.454l.543.757c.217.302.791-.202 1.21-.202.419 0 .682.277 1.023.303a1.96 1.96 0 00.776-.328l.59-.328v.48c0-.505.93 0 1.287-.177h.31l1.272.227c1.427.15 2.993.226 3.49.176a8.168 8.168 0 001.954-.832 4.05 4.05 0 011.07-.378l.125.277c.418.832.868 0 1.132.202l.48.454a2.747 2.747 0 011.381 0 12.668 12.668 0 001.939-.883l.59.605.325.328a1.823 1.823 0 011.365-.202c.202.152.667-.302.776 0 .108.303.605.782.853.53a5.07 5.07 0 011.38-.958c.374.009.743.137 1.086.378.202.202 1.303-.504 1.954-.782.652-.277 2.497.454 2.637.202.14-.252.745.378.9.454.155.076.543-.176.605 0 .062.176.279.555.34.328.092-.176.218-.294.358-.33.14-.038.282.008.403.128.295.328 1.334-.555 1.551-.605l.155.176c.21.321.488.5.776.5.288 0 .565-.179.775-.5.466-.554.946.807 1.257.404.172-.258.385-.433.616-.504a.812.812 0 01.686.1c.108.105.232.16.357.16a.515.515 0 00.357-.16c.17 0 .605.353.62.278.233-.782.512.328.698 0 .187-.328.264-.202.466 0l.388.479 2.357-.656c.791-.201 3.552 0 3.893-.176h1.21c.75.108 1.505-.038 2.218-.429.217-.302 1.412.227 1.893.404h2.186c.125.479.264.857.326.832.185-.068.36-.197.512-.379.155-.201.667-.756.838-.529.17.227 1.303-.378 2.094-.328.79.05 3.102.504 3.428.58.325.076 1.178-.429 1.396 0 .217.429 1.225-.403 1.55-.454l1.676-.277c.357 0 1.396.58 1.66.429a2.402 2.402 0 011.457 0 11.75 11.75 0 002.001 0l.512.277.404.202a6.855 6.855 0 012.73-.656A24.57 24.57 0 0028.77.58l.202 1.437c.434 0 .744-.202.682-.378-.062-.177 0-.782.264-.757a4.618 4.618 0 001.69-.529l.45.454.264.227c.155.353.403.68.543.68.124-.201.217-.756.279-.73l1.272.403c1.396-.505 2.544-.63 2.575-.278.03.353.325 1.185.62.933h.248c.528 0 .326-.807.543-1.008.217-.202.512 0 .76-.152.248-.15.559-.353.853-.428h.17c.284.19.574.35.87.479.398.04.796-.073 1.163-.328.17-.126.962.177 1.21 0C43.677.43 44.979.353 45.662 0l.652.882a.564.564 0 00.38.162.564.564 0 00.38-.162l.527-.73a8.5 8.5 0 001.675.831V.807c.326-1.21.776.378 1.148-.202l.372-.555c.536.522 1.116.913 1.722 1.16l.512-.655.357-.454c.12.345.3.625.519.805.218.18.463.25.706.203l.124-.327c.264-.782.48.353.698 0a1.406 1.406 0 011.256.075c1.072-.02 2.14-.18 3.196-.479.325.58.744.883 1.085.328.342-.555.528.605.931.277l.326-.227c.716.375 1.477.461 2.218.252h.682c.42 0 1.086-.176 1.195.177l.31.933c.215-.325.476-.56.76-.68.31-.034.62-.034.93 0h.295c.28 0 .543-.354.838-.48.101.36.237.693.403.983.14.177.465-.63.574-1.033h.698c.434 0 1.179 0 1.66-.202h.915c.512 0 .961.151.992.479.03.369.083.732.156 1.084.09-.15.144-.346.155-.555 0-.327.325-1.16.543-1.084l.077.177c.434.958.419.983 1.008 0 .393-.2.8-.319 1.21-.353.605 0 2.187.958 2.373.756.186-.202.528.227.357.53-.17.302-.48 1.16-.17.983.455-.383.852-.925 1.163-1.588h.108c.233 0 .466.327.698.353.233.025.419-.328.636-.353a.739.739 0 01.76 0l.745.655a8.927 8.927 0 011.954-.731h.217c.486.354 1.023.485 1.551.378l.698-.504c.636.58 1.241.756 1.334.428a5.949 5.949 0 012.544 0h1.551a5.353 5.353 0 002.358-.403l.574.378c.482.26.954.572 1.411.933a.454.454 0 00.512 0c.093-1.084.341-1.26.791-.454.412-.13.817-.315 1.21-.554l.465.252c.574.277 1.024.605 1.551-.152.14-.201.497 0 .745 0h.186a.518.518 0 00.396.057.705.705 0 00.364-.258c.233-.278 1.241.201 1.551.252.685.13 1.378.13 2.063 0l.434.832s.124-.177.217-.202l1.319-.479c.698.353 1.38.63 1.551.656.171.025 1.055-.152 1.923-.152l.791-.227h.078c.155.606.326.757.372.379.047-.379 1.381-.63 2.187-.858l.636.984a2.225 2.225 0 011.179-.353l.403.277c.342.227.621-1.16 1.071-.202.077.152.356 0 .527 0 .17 0 .233-.15.341-.126h.186c.375.07.754-.017 1.101-.252l.249.656c.341.933.605-.58 1.023 0 .419.58.202 1.437.45 1.916a.543.543 0 00.365.155.54.54 0 00.364-.155l.372-.353c.373-.58.605-1.084.497-1.16-.109-.076 0-.378.403-.555l.403.152c.233 0 .481.353.714.327h.729c.434.908.791 1.387.791 1.034s.357-1.664.776-1.639c.418.026 1.395 1.11 1.442.958v-.15l.109-.228c.212-.012.423.047.62.173.197.125.377.315.527.558a4.899 4.899 0 011.877.858c.14.252.59.277.605 0 .016-.278.652-.379.683-.353a8.21 8.21 0 01.186 1.588l.667-.832c.329-.363.697-.62 1.085-.756h.202c.151.018.293.125.399.302.106.176.168.41.175.656v.428c0 .48 0 .984.388.908.387-.076.201-.706.263-1.084v-.177c0-.327.218-.378.326 0a.67.67 0 00.165.264.328.328 0 00.223.097.328.328 0 00.223-.097.674.674 0 00.165-.264l.155-.403a.775.775 0 01.145-.25.421.421 0 01.196-.128h.109c.132.388.231.803.294 1.235 0 .454.698.656.559.504-.14-.15 0-1.235.682-2.117l.559 1.109.232.429c.28-.26.549-.546.807-.858.217-.252 1.334.656 1.442.731h.171c.109 0 .155-.277.109-.378-.047-.1.356-.73 1.054-1.008l.372.403.574.58c.559-.202.962-.176.9 0 .101 1.003.434 1.905.931 2.521l.868-.983.528-.605c.868.53 1.396.958 1.147.908l-.248 1.134-1.132-.504s-.14.882.434.781l.326.404.698.907c.202-.882.403-1.462.419-1.26.015.202.217.731.388.807.17.075.558-.63.605-.807a9.77 9.77 0 01.713-1.362c.264-.453.682-2.52.729-2.117.047.403.295 1.437.481 1.411.31.027.617.111.915.253.14.126.465-.152.279-.328a3.97 3.97 0 01-.667-1.06v-.15s.155-.252.202-.227l.326.201c.418.278.775.807.775 1.135 0 .328.155 1.26.341 1.135.187-.127.357-1.438.419-1.79.062-.354.807-.202.884-.152.078.277.119.578.119.883 0 .304-.041.605-.119.882-.217.832-.31 2.521 0 1.664s1.303-2.521 1.551-2.345c.249.177.667-.655.76-1.008.093-.353.884-.454 1.009 0 .124.454-.9 1.21-1.164 1.412a5.217 5.217 0 00-1.117 1.033 4.81 4.81 0 00-.093 1.185h.419l.217-.479c.202-.554.435-1.008.497-.983a.756.756 0 01.202.269c.054.114.091.246.108.387a8.59 8.59 0 00.434 1.512c.124.278.466.908.543.807a6.64 6.64 0 00.745-1.286h-.884a16.086 16.086 0 01-.466-1.538c.032-.16.091-.302.171-.409a.475.475 0 01.279-.196h.434a3.15 3.15 0 00.528-.403s.403.302.527 0c.124-.303.512-.328.62 0 .109.328.714 1.361 1.055.882l.217-.353.249-.353c.312.428.644.815.992 1.16l.217.605.218.605.977-1.008.108-.252.186-.505c.071-.308.212-.56.394-.7a.51.51 0 01.584-.056c.356.227.961 1.235 1.194 1.362.233.126.775.226.682-.303v-.177c.155-.277.45-.378.636-.63-.093-.378-.093-.756 0-.832.093-.075.388.227.497.605.185.381.421.69.689.904.268.214.563.327.862.332V6.1c0-.454.744-.655.884-.227.14.429.093.832-.295.933-.108 0-.31.58-.264.731l.156.63c.117-.227.269-.4.44-.502a.67.67 0 01.537-.077c.403 0 1.551-.68 1.551-.53h.139c.171 0 .419.177.528 0l.496-.58c.512.353 1.008.656 1.117.706.34.058.683.058 1.024 0l.325.505.109.15a.233.233 0 00.144.045.242.242 0 00.142-.058.438.438 0 00.115-.15.74.74 0 00.064-.214c0-.353.528-1.488.946-1.513a6.254 6.254 0 001.552 0v-.327c0-.201.17-.201.201 0v.152l.14.378c.139.353.605.252 1.023-.202l.388.731c.279-.479.636-.756.791-.63.155.126.884 0 1.179 0 .295 0 1.272-.555 1.551-.68.279-.127 1.039.377 1.381 0l.403.705.295.53c.521-.367 1.077-.589 1.644-.656l.357-.378.356-.353c.408.339.78.781 1.102 1.31l.294-.78c.264-.656.512.327.76.327s.698-.605.807-.454c.185.24.401.408.633.491a.974.974 0 00.701-.012c.543 0 1.163.429 1.628-.479.241.094.475.23.698.404.757.45 1.591.405 2.327-.126h.419c.879.284 1.741.698 2.575 1.235.186 0 .263.706.418 1.059.156.353.202.403.311.403.108 0 .434-.327.605-.252h.124c.055.258.143.495.258.694.115.2.254.359.409.466.477.08.96.03 1.427-.151l.201.277c.541.6 1.197.86 1.846.731.078 0 .248.58.217.656-.186.454-.543.756.124.907.311 0 .279.656 0 1.034l-.124.202c-.05.155-.076.328-.076.504s.026.349.076.504c.078.328-.372.807-.527.53-.155-.278-.807.15-.977 0l-.093-.303v-.832c-.062-.198-.167-.351-.295-.428h-.078a5.43 5.43 0 00-.527 1.084 8.365 8.365 0 00-.512 2.52c.109.43 1.07 0 1.334.203v.252l.093.706c.217.655.481.907.589.58.109-.328.249-1.765.528-1.236a18.205 18.205 0 001.551 1.588c.171.303-.326 1.387-.543 1.06-.217-.328-.931-1.085-1.039-.934a11.254 11.254 0 00-.497 1.564l-.418-.53c-.124-.151-.466-.176-.512 0-.047.177-.124.706.233.958l.263.202c.233.706.233 1.487 0 1.765l-.139.328-.078.226c.046.346.154.662.31.908.418.467.879.824 1.365 1.059l.124-.883.202-1.386c.574.353.9.756.729.882-.171.126-.481.53-.419.656l.667 1.185.248.378.202.353a.764.764 0 01.513-.05c.171.044.335.147.48.302h.279c.314.063.632.063.946 0a4.844 4.844 0 001.551 0c.496-.151.884.504 1.381.303.263 0 .62.252.868.529l.357.378a7.88 7.88 0 011.722.303c.527.176 2.28 1.765 2.9 2.143l.574.252.388.176a4.44 4.44 0 011.272.404l.248.252.977 1.059c-.171 1.134-.388 2.521-.496 3.076l.729-.252c.356 0 .543.226.465.857v.428a2.73 2.73 0 00.078 1.236c.108.227.372.983.232 1.134a6.85 6.85 0 00-.853 1.337l.388.252c.341.201.481.504.326.907l-.295.706c.489 1.142.822 2.44.977 3.807l.59 1.362.155.328c-.249.932-.295 1.714-.124 1.764.17.05.418.48.201.858-.217.378 0 1.74-.155 1.815a1.62 1.62 0 00-.37.673 2.527 2.527 0 00-.095.89l.108.63c.167.623.267 1.289.295 1.967-.098.666-.313 1.27-.62 1.74-.202.302-.698.15-.807.478l-.202.656c-.31 0-.698-.176-.868-.202-.171-.025-.962 1.513-1.132 1.387-.171-.126-1.086.504-1.427.53l-.311.226c-.248.177-.713-.453-.915-.252-.107.173-.252.27-.403.27-.151 0-.296-.097-.403-.27a.67.67 0 00-.419-.159.668.668 0 00-.419.16l-.698.655c.078-.757-.419-.505-1.086.53l-.977-.329h-.155a.637.637 0 01-.293.242.42.42 0 01-.327-.015 1.14 1.14 0 00-.838.11c-.27.145-.514.393-.714.722l-.806-.781c-.248-.227-.9.479-1.039.227l-.435-.832a14.826 14.826 0 01-1.349 1.563l-.341.151a1.77 1.77 0 01-1.195 0 1.337 1.337 0 00-.889-.241c-.303.03-.599.173-.863.418l-.466.504c-.62 0-1.194 0-1.256-.303v-.176l-.14-.353c-.186-.378-.481-.227-.682.378-.202.605-1.551 0-2.001 0-.719.294-1.424.674-2.109 1.134h-.311c-.481-.111-.972-.024-1.427.253-.139 0-.279.302-.403.277h-.248c-.314.27-.641.497-.977.68l-.264-.125h-.217c-.202-.48-.357-.303-.341.403l-.621-.202c-.372-.126-.853-.328-1.179.353h-.217c0-.479 0-1.033-.403-.832-.403.202-.202.807-.388.958-.391.357-.825.572-1.272.63h-.496a2.159 2.159 0 00-1.443 0 2.623 2.623 0 01-1.24.354 1.928 1.928 0 00-.962 0c0 .15-.419.554-.45.378a.72.72 0 00-.231-.38.316.316 0 00-.327-.049c-.233.202-.993.555-1.133.353-.139-.202-.713-.832-.853-.655a7.537 7.537 0 00-.589 1.26c-.155.378-.915.177-1.179.353h-.512a4.549 4.549 0 01-1.551-.302h-.388c-.119-.023-.239.022-.341.126l-.869.958c-.511-.706-.946-1.034-.977-.731-.031.302-.294 1.033-.512.832h-.356c-.33.154-.619.482-.822.932h-.574c-.092.215-.141.47-.141.732 0 .26.049.516.141.73h.217c.357.203.341-.377.419-.806.077-.429.356-.202.558-.252.202-.05.946-.605 1.241-.328.295.277.915.227 1.365.303.45.075.962 0 1.427 0 .48.05.962.05 1.442 0 .667-.152.9.806 1.257 1.412l.403.706c.41.006.817-.088 1.21-.278.253-.125.512-.21.775-.252.171 0 .745.68.931.908.186.227.884.706 1.008.428l.093-.328c.14-.478.124-.478-.341-.504a.283.283 0 01-.217 0c0-.252 0-.706.078-.73.31 0 .775-.606.837.428v.53c0 .63-.155 1.285-.186 1.436-.031.151 0 .53.124.48h.109l.434-.177.574-.227a2.058 2.058 0 01-.095-.995c.049-.339.178-.633.358-.82.373-.353 1.552-.353 1.552 0v.63c-.094.403 0 .731.108.706.173.105.318.301.414.557.096.257.136.557.114.855h.124l1.085.73c-.217 1.564-.667 2.749-.992 2.522l-.249-.176a5.774 5.774 0 00-.666-.505.305.305 0 00-.223.008.471.471 0 00-.196.169l-.279.353c-.393.089-.757.38-1.04.832v.706c.28.367.62.595.978.655l.186-.227c.17-.176 0-1.033.403-.832l.279.152c.279.453.589.479.714 0 .124-.48.791 0 .76.201-.031.202 0 .605.108.605.109 0 .605-.201.636-.453.031-.252.186-.984.31-.958 0 .252 0 .554.124.756l.326.756h1.148c.078.348.1.723.065 1.089a3.012 3.012 0 01-.267 1.004l-.589-.605-.45-.48c-.496 0-.915.455-.931.934-.015.479 0 1.815.233 1.815s.59-.202.45-.48v-.453c0-.378.31-.555.589-.378.28.176.76.756.435.983v.252c.036.419.162.803.356 1.084 0 0 .295-.353.45-.327.173.078.322.258.419.504 0 0-.14.378-.217.58l-1.086-.379c-.543-.176-1.954.732-2.094.53h-.124c-.17.078-.325.226-.45.429v.529c.093 0 0 .353-.093.48-.093.125-.651.352-.76.175-.108-.176-.512-.529-.62-.352a.44.44 0 01-.185.135.309.309 0 01-.202.004.428.428 0 01-.187-.128.775.775 0 01-.14-.238c-.17-.505-.62-1.84-.651-1.84a9.92 9.92 0 00.077 1.865v1.084a.385.385 0 01-.287.148.386.386 0 01-.287-.148v-.227l-.124-.53c-.124-.78-.403-.604-.62.379l-.279.479-.342.555c-.17.73-.356 1.184-.418 1.008-.208-.395-.493-.662-.807-.756l-.264-.252-.263-.227c-.388 0-.714 0-.714.403s-.108 1.034-.248.882h-.124c-.279-.322-.596-.545-.931-.655-.155 0-.31.958-.48.958h-.326a1.842 1.842 0 01-.853-.227.289.289 0 00-.208.028.477.477 0 00-.177.178.887.887 0 00-.11.289 1.154 1.154 0 00-.017.337v1.084c-.14.605-.807.731-1.474.278l-.775 1.26c-.466.757-.853 2.067-1.66.782-.341.58-.775.73-.962.378l-.217-.277h-.837c-.435.21-.86.471-1.272.781a7.658 7.658 0 01-1.753.277c-.357 0-1.21.959-1.411.606-.202-.353-.667-1.387-.636-1.664.031-.278 0-1.16-.357-1.135h-.776c-.322.62-.607 1.286-.853 1.992-.186.53-.806 1.865-.946 1.638h-.108l-.559-.554c.072-.602.243-1.16.497-1.614v-.58c0-.353-.202-.63-.311-.58-.371.449-.723.938-1.054 1.463l-.574-.454-.171-.126c-.155-.202-.434.151-.589.731-.156.58-.823 2.067-1.055 1.74h-.217l-.388-.202a5.933 5.933 0 00-.962-.958c-.186 0-.17-1.26-.263-1.462-.093-.202-.388-.252-.45-.505-.062-.252-.512 0-.574.53-.062.53-.838.302-1.008.227-.171-.076-.807.479-1.381.227l-.543-.126h-.512c-.558-.252-1.101 0-1.209.277-.109.277.201 1.311.139 1.69zM-64.294 84.94a2.077 2.077 0 00-.109.545 2.26 2.26 0 00.034.57c.034.184.092.354.17.501.076.147.17.266.277.35h.373l.558.203c.636 0 .962 0 .745-.48-.218-.478-1.784-2.42-2.048-1.689zm-5.646-7.286c-.05.747.019 1.503.202 2.194h1.628a3.98 3.98 0 00.322-1.375 4.382 4.382 0 00-.151-1.45h-.124l-.357.152c-.357.429-.729.63-.822.454-.093-.177-.59-.151-.682.025h-.016zm-3.909-61.038c-.155 0-.48.479-.713 1.21-.233.731.512 2.521.388 2.521v.58c.356.202.698.227.76 0 .062-.227-.155-1.034-.248-1.387-.094-.353 0-1.336-.094-1.714-.093-.378.063-1.135-.077-1.21h-.016zm259.946 63.912c0-.428.186-.605.403-.353.218.252 0-.857-.449-.806h-.45l-.869-.202c-.31.882-.341 1.513 0 1.386.341-.126 1.024.202 1.07.505.043.34.11.67.202.983a11.02 11.02 0 00.093-1.513zm-11.214 12.606c-.186.757.124 1.337.713 1.311l.357.782c.237-.27.411-.66.496-1.11 0-.327-.682-1.033-.899-1.134 0-.857-.155-1.034-.45-.328l-.217.48zm-225.791-.958c0 .48.093.63.17.303.078-.328.466-.757.699-.454.232.302 1.039.429.946.277-.093-.151-.14-.63 0-.806.14-.177.201-.706-.404-.379l-.263-.227-.388-.302c-.45 0-.776 1.034-.76 1.563v.025zm-23.266-64.391a.294.294 0 00-.134-.13.178.178 0 00-.156.008.32.32 0 00-.129.142.624.624 0 00-.062.232c0 .403.356 1.689.45 2.042l.263-.454.497-.882c.334.165.676.283 1.023.353a.81.81 0 000-.48c-.279-.352-.589-.655-.868-.983h-.093c-.016-.378-.559.379-.76.127l-.031.025zM181.754 92.1c-.403-.227-.729-.252-.713 0a9.053 9.053 0 01-.155 1.21c0 .328.155.68.403.302l.419.505c.372.453.496-.555.744-.858.248-.302.217-.73 0-1.109-.217-.378-.295-.63-.589-.151l-.109.1zm-225.62-55.366c.14-.252 0-.378-.31-.252s-1.148-1.009-1.551-.983c-.404.025-.45 1.512 0 1.588a3.588 3.588 0 001.86-.353zM33.579 5.168c.186.177.326 0 .326-.353 0-.352.093-1.26.186-1.235.093.025.465 0 .45-.353.014-.31.014-.622 0-.933a8.4 8.4 0 00-1.551.454v1.034c.093.558.3 1.048.59 1.386zm-63.144 97.269c-.202-.353-.559-.152-.807.403v.454a2.47 2.47 0 00.17 1.109c.14.429.358.605.637.227l.217-.303c.295-.277-.016-1.563-.217-1.89zm6.592 0c-.434.176-.73.655-.667 1.033.118.245.269.442.44.578a.887.887 0 00.553.204c.232-.252.108-2.093-.326-1.891v.076zm-54.784-78.561c-.093.605.17.882.59.605l.325-.353c.263-.277.496-.656 0-1.185l-.124-.126c.046-.58-.714.454-.791 1.059zM152.64 96.99c.373-.378.202-.908-.387-1.21l-.419-.278c-.403-.277-.559.278-.76.63a1.836 1.836 0 000 .732c.412.28.856.418 1.303.403l.263-.277zm41.709-12.934c.017.173.066.334.141.46a.526.526 0 00.278.246c.31-.072.604-.271.853-.58.315-.553.534-1.231.636-1.967-.462.308-.887.743-1.257 1.286l-.511.706-.14-.151zm-38.917 11.068c0-.378-.155-.479-.434-.252a4.982 4.982 0 00-1.039 1.361l.17.404c.14.302 0 .983.419.832h.372c.247-.696.42-1.455.512-2.244v-.1zm-112.298 5.547c-.357-.353-.341-.353 0 0 .357.353.993 1.588 1.086 1.185a3.27 3.27 0 00-.067-1.157c-.091-.368-.246-.684-.445-.91l-.093.15-.481.732zm89.327-4.387c0-.328-.217-.227-.435.252-.217.479-.294 1.992 0 1.866a3.183 3.183 0 001.024-.732s0-.453-.124-.428c-.124.025-.434-.58-.465-.857v-.101zm-41.88 3.177c.73.126 1.102-.353.838-1.009l-.434.176a6.01 6.01 0 00-1.225.757v.706c0 .227.217.227.248.176l.574-.806zm108.173-86.579a7.697 7.697 0 00-.171 2.043l.435-.202c.139 0 .325-.757.403-.151.078.605.217 1.033.574.605a7.935 7.935 0 00-.605-1.715l-.279-.201-.357-.379zM-38.996 40.34c-.093.353.155.731.559.832l.232-.227.264-.252c.09-.262.147-.552.166-.851.018-.3-.001-.602-.058-.888h-.356a4.85 4.85 0 00-.807 1.386zm41.15 62.274c-.155.504 0 .706.249.429.248-.278 1.054 0 1.178-.278v-.176c0-.404.171-.933-.232-1.109H3.13c-.232-.303-.728.605-.977 1.134zm-46.796-11.345c.388.605.404.756 0 .327-.465-.5-.997-.81-1.55-.907-.094 0 0 .907.589 1.336l.279-.227.682-.53zm39.29 10.261c-.296-.353-.528-.454-.528-.227a8.033 8.033 0 01-.093 1.084c-.01.209.03.416.11.58.081.163.197.271.324.303.28.025.419-1.387.186-1.74zm44.236-.177c.31 0 .248-.554-.124-1.21l-.403-.252h-.109c-.45.782.264 1.462.558 1.462h.078zm115.23-89.3c.341 0 .527-.354.434-.782-.093-.429-.605-1.236-.946-1.009-.341.227.109 1.79.434 1.79h.078zM-47.015 30.934c0-.126 0-.454.264-.731.263-.277.232-1.185 0-.933l-.248.227-.31.227a.822.822 0 00-.31 1.134l.2.353c.078 0 .156.328.233.328h.14a.719.719 0 00.031-.605zm4.653 8.471c-.403 0-.542.353-.294.681.248.328 1.132 0 1.473 0 .341 0-.729-.731-1.148-.68h-.03zm94.011 61.039c-.418-.731-.868-.303-1.008.958l.714.58h.155c.341-.429.574-.908.512-1.034l-.373-.504zM166.6 83.351a.626.626 0 00.085-.188.855.855 0 000-.456.628.628 0 00-.085-.188 5.209 5.209 0 00-1.101-.958l-.233-.025a.347.347 0 00-.131.123.643.643 0 00-.086.204v.505l.357.479c.419.428 1.039.731 1.194.504zm21.715-3.807c.082.217.191.406.318.555.128.148.273.254.426.31a.737.737 0 00.466.018.981.981 0 00.434-.278c-.682-1.815-.682-1.815-1.644-.605z" fill="#000"/>
  </mask>
  <g mask="url(#WtMIms8g9a)">
    <path fill="red" d="M0-7h260v125H0z"/>
  </g>
</svg>
