<svg xmlns="http://www.w3.org/2000/svg" fill="none" viewBox="0 0 305 107">
  <mask id="a6yKaZW7Pa" style="mask-type:alpha" maskUnits="userSpaceOnUse" x="-83" y="0" width="389" height="107">
    <path d="M192.539 2.261a3.797 3.797 0 001.31-1.347c.244-.462 1.417-.887 1.234-.591-.183.295-.777 1.2-.883 1.403-.107.203.548.701.67 1.034l.167.147.427.37.701 1.255c.106.184.67-.425.822-.739v-.387a3.1 3.1 0 01.275-1.293c.198-.498.243-1.845.32-1.975.076-.129.35 0 .426.185.076.184.533.701.716.941.183.24-.701.776-.807.96-.107.185-.092.499.244.259.335-.24 1.34.461 1.523.387.183-.073 0-.886-.122-1.144v-.517c0-.258.503-.388 1.067-.295h.548c0-.591.244-.979.366-.905.406.105.827.105 1.234 0l.243.535c-.426 0-.731.314-.685.536.046.221.487.683.746.35a3.774 3.774 0 011.6-1.089 9.016 9.016 0 011.447 0 .688.688 0 01-.472.185c-.259 0-1.021.424-1.021.775 0 .351-1.097.757-1.295.794-.32.087-.624.243-.899.462v.092c0 .11.229.295.29.277a9.134 9.134 0 013.214-.702h.747a5.59 5.59 0 011.021-1.255c.182-.11.579.48.685.572.237.152.481.288.731.406.214.093.701.462.579.591-.122.13-.579.35-.746.259v-.13l-.259-.664a5.083 5.083 0 00-1.28.369 1.426 1.426 0 00-.335.812c0 .24.823.665 1.097.72v.092c.244 1.348.975.591 1.112.13.244-.831 1.036-.905 1.523-1.366l.442-.388c.29-.517.579-.72.64-.462v.683c.518.259 1.295.665 1.706.923l.077.314c.198.794.685.813 1.325.813.274 0 .594.35.807.276.214-.073.32-.461.503-.701.244 0 .259-.166 0-.332s-.67-.665-.472-.868c.198-.203 1.645.517 1.523.738l-.076.222c-.244.683.091 1.07.777.794.686-.277.701.277 1.036.314h.427c.714-.082 1.422-.23 2.117-.443l.366.203.442.277c.467-.083.93-.2 1.386-.351a5.53 5.53 0 011.843.35h1.295c.335 0 1.387.111 1.691-.184.305-.216.652-.33 1.006-.33.353 0 .7.114 1.005.33l.762-.24.533-.148c.648.082 1.299.12 1.95.111.874-.112 1.74-.304 2.59-.572.609-.185 2.514.258 3.26.129l.731.425.549.295 2.118-.59a9.251 9.251 0 011.523 0 9.894 9.894 0 011.767-.112c0 .148.32.388.488.24.167-.147.761-.35.975-.129l.213.166.137.111c.2.049.407.002.579-.13.122-.128.533-.368.655-.24.122.13.716-.11.838-.202a9.332 9.332 0 011.417-.35l.579.22c.289.111.579.278.853.407.274.129.685.757 1.188.166a.537.537 0 01.411.11c.549.61.808.794 1.372-.147l.38-.628c.275.739.595 1.219.716 1.034.122-.184.564-.554.655-.35.207.322.473.582.777.756.244 0 .854-.609 1.006-.794.152-.184.655.13.731 0 .076-.129.229-.203.183.167-.046.369.899-.24.96-.277.624-.203.64.96 1.417.572l.411-.203a9.851 9.851 0 011.356 0c.167 0 .777-.13 1.173-.148.396-.018 1.523.333 1.767 0l.274-.166.153-.11c.378.13.737.329 1.066.59.305.24 1.843-.406 1.996-.185.152.222.761.591.96.351.198-.24.868.24.99.13l.091-.111c.107-.13.213-.388.32-.388.107 0 .929-.258.884.406v.148c-.412.203-.579.48-.396.572.182.092.777.203.914 0s.761-.738.746-.221v.258a.783.783 0 00.122.332h.35c.351 0 .579.166.488.554l.609-.166h.107c.091-.13.487-.11.868 0a11.34 11.34 0 002.255.11c.411 0 1.752.61 2.102.573.351-.037 1.265-.258 1.402.148s1.721.646 1.874.609l.746 1.107c1.31.167 2.484.333 2.621.388.137.055.716 0 1.173 0 .457 0 2.407-.092 3.245-.166l.167 1.052c0 .111.351.296.427.259l.472-.277a3.83 3.83 0 011.127.72c.389.262.797.478 1.219.646.363.168.742.28 1.128.332a.481.481 0 01.308.081.634.634 0 01.225.27l.152.184a.588.588 0 00.533 0 3.658 3.658 0 011.524-.369c.838 0 .426.296.381.702-.046.406.502.461-.168.554-.311.05-.614.156-.899.313-.32.166-.259.333 0 .591l.259.258-1.158 1.108c-.381.35-.822 1.735-.411 1.846h.64a1.656 1.656 0 011.295 0c.335.185.244 1.846.122 2.437a25.19 25.19 0 00-.366 2.363c.292-.131.554-.347.762-.628l.396.61.198.313a5.23 5.23 0 01-.518 1.163l.366.185h.198c.457-.24.731-.185.609.148v.996c.277.58.492 1.2.64 1.846a2.468 2.468 0 01-.321.991c-.172.294-.403.53-.669.69-.61.295-.61 1.993-.168 1.845l.274-.221.274-.222c.32-.221.93.13 1.372.757l-.229.535a5.698 5.698 0 01-.168.554c-.213.388-.472.757-.716 1.126-.243.37-.578-.553-.898 0l-.092.167c-.381 0-.335.276.092.406v.166c0 .258-.168.572-.351.812-.183.24-.365.13-.518.221-.152.093-.472 1.034-.106 1.145a.812.812 0 01.451.232c.129.128.226.297.28.488l.091.203c.64 0 .579.332-.137.59-.716.26-2.635 1.367-3.519.776l-1.097.185c-.213 0-.67-.443-.762-.757l-.213-.775c-.533.221-.807.72-.625 1.089v.314a29.65 29.65 0 01-.472 2.86v.204c-.26.17-.53.318-.807.443-.153 0-.549.646-.823.646a5.458 5.458 0 00-1.203.222c-.201.15-.385.33-.549.535-.122.13-.701-.388-.777-.48-.076-.092-.563-.184-.609.203-.046.388-.412 1.034-.762.794a1.263 1.263 0 00-.632.02 1.42 1.42 0 00-.571.33.449.449 0 01-.037.426.312.312 0 01-.101.091h-.106c-.488-.203-1.036-.978-1.204.259a3.71 3.71 0 01-.807-.166 6.257 6.257 0 00-1.524.314h-1.523c-.381 0-1.143.793-.838.941.305.148.945.96.792 1.477-.152.517 1.524 1.975 1.356 2.012-.167.037-.305.499.137.85v1.052c.412.003.814.15 1.158.424l.137.203.32.499a3.956 3.956 0 000 2.104l.122.554v.184c0 .222-.472.185-.929-.11a2.707 2.707 0 00-1.844.332c0 .092.092.462.381.61h.137l.305-.185c.396-.24.655-.222.579 0v.849c.265-.076.542-.076.807 0 .229 0-.228 1.181-.396 1.735l-.64.13a1.025 1.025 0 00-.335.11l.092 1.255c-.991.48-1.524 1.016-1.326 1.182.471.065.946.065 1.417 0 .168 0 1.371.48 2.3.904l.96-.203c.442 0 .488.185.61.554l.182.572c.16-.185.354-.32.567-.39.213-.071.437-.076.652-.016.65.233 1.279.549 1.874.942l-.335.48c.156.368.345.715.564 1.034.091.11.426.258.502.11l.122-.11.168-.148c.213-.111.655-.314.99-.443a2.788 2.788 0 011.523-.185c.168.148.503.85.336 1.145-.168.295-1.387-.185-1.859-.203v.313c0 .314.183 1.053.305 1.053l2.148.092c-.29 1.477-.259 2.714 0 2.75.259.037.838-.627.914-.535l.35.332c.119.207.226.423.32.647.122.295-.305 1.329-.442 1.587v.462c.022.127.083.24.171.315a.37.37 0 00.302.09h.335a.255.255 0 01.22.004c.07.034.127.099.161.181l-.29.425c-.487.628-.442.96.122.72h.32l.198-.203c.686 0 1.295.258 1.325.517v.184l-.121 1.939a21.957 21.957 0 001.736 1.606l.168.406a4.19 4.19 0 00.335 1.846l.35.148c.884.35.853.978.808 1.698v.258c0 .499.457.702 1.005.462l-.35.646c-.335.61.259.59.426.83.168.24.381-.775.564 0v.112l-.609.387c.061.48.235.93.502 1.292l-.137.72c0 .185-.167.37-.152.536v.203c.122.221.091.35 0 .314a1.81 1.81 0 00-1.127.35c-.29.277.122 1.348 0 1.44-.534-.48-1.006-.572-1.524.111l-.411.572c-.442-.406-.823-.553-.868-.332-.349.58-.848 1.003-1.417 1.2l-.488-.997-.244-.517c-.67.572-1.112 1.09-.975 1.126.138.037.473.296.427.443h-1.112a.333.333 0 00-.252.021.435.435 0 00-.19.2c0 .186-.625 0-.67.204-.046.203-.366.48-.472.258a.664.664 0 00-.244-.195.55.55 0 00-.566.062.724.724 0 00-.211.244l-.229.277-.137.166a2.266 2.266 0 01-1.234-.277c-.365-.166-1.645.24-1.904 0-.259-.24-1.006-.609-1.295 0l-.244.37-.228.369a2.313 2.313 0 01-1.25-.222c-.243-.147-.746.59-1.036.572a4.01 4.01 0 01-1.234-.313c-.106 0-.624-.24-.746 0s-.686 1.052-.96.941a2.379 2.379 0 00-1.203.148c-.214.11-.853-.203-.96-.111v.443a9.311 9.311 0 01-1.524-.646v.96a9.327 9.327 0 01-1.294.406 23.552 23.552 0 01-3.047-.166l-.366-.11c-.381-.112-.625-.61-.64.22 0 0-.442.24-.457.222-.457-.646-1.142-.13-1.28 0-.411.554-.99-.203-1.447.332l-.167.185-1.524-.498a2.72 2.72 0 00-1.066.683c-.396.369-1.752-.277-1.828-.24v.996a3.175 3.175 0 00-2.194.204l-.472-.757-.229-.37-1.523.739h-.412a3.166 3.166 0 01-.777 0h-1.797c-.275 0-1.173.35-1.265.24-.091-.11-.442-.37-.518-.222v.111l-.076.13c-.107.129-.229.147-.259 0a1.395 1.395 0 00-.289-.5l-.61.167a9.945 9.945 0 00-1.523.388l-.092.11-.609.702c-.472-.665-.96-1.034-1.082-.83-.122.202-.518.608-.64.498-.121-.111-.38.295-.396 1.07l-.883-.978-.153-.166c-.437.09-.881.133-1.325.13-.259 0-.884-.167-.899 0-.015.165-.944.258-1.081.091-.138-.166-.397.13-.381.85l-.975-.905c-.092-.092-.625.258-.96.425l-.168.092a13.78 13.78 0 01-1.523.59c-.686.24-2.483-.775-2.636-.775a13.46 13.46 0 00-1.599.296c-1.07.102-2.145.102-3.215 0l-.183.184-.457.406a4.624 4.624 0 00-1.249-.48h-.762c-.44.236-.893.433-1.356.591-.731.134-1.469.202-2.209.203h-.792c-.198.092-.396 0-.426-.148-.031-.147-.762 0-.869 0-.106 0-.548.444-.716.277a1.168 1.168 0 00-.959-.295 6.75 6.75 0 01-1.707.554l-.152-.24c-.335-.517-.731.517-1.097-.148l-.168-.277a1.69 1.69 0 01-1.34.296c-.168-.13-.655-.406-.701-.277-.046.129-.259.424-.366.387a.443.443 0 00-.292.019.543.543 0 00-.241.203c-.744.175-1.497.286-2.254.332l-.884-.295c-.836-.308-1.738-.209-2.514.277l-.411.295a4.49 4.49 0 01-1.524-.498.537.537 0 00-.431-.053.651.651 0 00-.361.293c-.244.387-1.31-.277-1.386-.13-.076.148-.381.517-.427.259-.045-.258-.274-.535-.457-.203-.182.332-1.432-.166-1.965 0l-.609-.11-.823-.149a3.468 3.468 0 01-1.904.462c0-.13-.335-.425-.412-.258-.156.274-.38.48-.639.59l-.579-.572c-.78.09-1.564.121-2.346.092-.503 0-2.103.222-2.468-.129l-.442.628c0 .11-.625-.185-.945-.185h-.96c-1.051.092-2.529.277-3.275.443l-.548-.665-.122-.129c-.404.077-.811.12-1.219.13-.305 0-1.082-.185-1.112 0-.031.184-1.051.092-1.402-.333l-.548.536-.183.184-1.31-.277c-.213 0-1.036-.147-1.341-.147h-.274a2.203 2.203 0 00-.609 0c-.229 0-.412.221-.625.258h-.122a.992.992 0 00-.731 0 2.126 2.126 0 01-1.326-.498v.775a7.436 7.436 0 01-1.736-.517h-1.219l-1.325.665c-.138 0-.64-.277-.838-.72l-.655.24c-.336.129-.945.24-1.067.092-.533-.683-.716.425-1.203.148l-.427-.24a7.337 7.337 0 01-1.721-.296l-.107.111-.655.646a2.456 2.456 0 00-1.524-.35c-.137.129-.655.369-.792.166a7.562 7.562 0 00-.579-.757l-.822.406a6.964 6.964 0 01-2.423.147c-.741.05-1.483.05-2.224 0-.381-.184-1.371.444-1.721.222l-.945 1.292a13.017 13.017 0 00-2.834-.978c-.304 0-.868.129-.837-.24.03-.37-1.158.351-1.524.48a2.344 2.344 0 01-1.188 0c-.229 0-.823.148-.869 0-.045-.148-.335-.443-.441-.295a2.335 2.335 0 01-1.341.535l-.427-.259-1.31-.48-.304.222c-.397.314-.777.461-.838.332a5.295 5.295 0 00-.93-.757l-.7.683a1.345 1.345 0 01-.671-.258 3.621 3.621 0 00-2.133.24l-.274.277a1.087 1.087 0 01-.418-.569 1.356 1.356 0 01-.024-.76l-.898.572-.686.425v-.296c0 .388-1.051-.203-1.097-.184l-.853.184a8.647 8.647 0 01-2.118-.443c-.365-.11-1.279.406-1.416.277-.138-.13-.518-.498-.549-.498-.136.062-.26.156-.365.276a1.679 1.679 0 01-1.174.241h-.274c-.152 0-.442.276-.487.24l-.457-.425a2.862 2.862 0 01-1.92 0l-.533-.185h-.213a1.448 1.448 0 00-.777.24c-.153.148-.823.185-1.021.333a9.292 9.292 0 01-2.194-.24h-1.112a1.616 1.616 0 00-1.188-.093 1.842 1.842 0 01-1.158.277l-.32-.166c-.35-.166-.64-.701-.655.166a.792.792 0 01-.381 0 9.49 9.49 0 00-2.376-.166l-.595.092a5.92 5.92 0 00-1.081-.424 5.06 5.06 0 00-1.021.203c-.955.043-1.911-.05-2.849-.277-.548-.185-2.072.738-2.437.72a6.93 6.93 0 00-2.087.406c-.458.222-1.524-.738-1.524-.72 0 .019-.777.517-1.066.129h-.29c-.305 0-.731.333-1.005.24l-.579-.184c-.255.313-.586.52-.945.59l-.152-.11-.259-.185c-.229-.258-.548-.369-.701-.221-.152.147-.518.313-.548.092-.031-.222-.9-.259-1.052 0-.152.258-.776.406-.898.203a3.353 3.353 0 00-.686-.757c-.426.923-1.097.166-1.63.203h-.259a2.142 2.142 0 01-1.005.185 5.374 5.374 0 01-.945-.222c-.29-.13-1.6.259-2.148.092l-.61.148c-.335.092-.792-.277-1.111-.166l-.549.185a18.383 18.383 0 00-1.843-.314l-.442.092-.777.129-1.844.185a1.825 1.825 0 01-.822-.628c-.213-.314-1.173.166-1.34 0-.168-.166-.671-.387-.778-.277 0 .277.305.757.26.776l-.504.258a1.685 1.685 0 00-.457-.85.985.985 0 00-.67.222c-.137.13-.61.351-.777.204-.167-.148-.594 0-.624.59l-.793-.406c.122-.314-.198-.498-.716-.406-.518.092-1.767-.61-1.873-.498v.793a3.162 3.162 0 01-1.082-.48c-.122-.129-.518-.387-.564-.166a.604.604 0 01-.113.225.47.47 0 01-.184.14.394.394 0 01-.216.025.427.427 0 01-.203-.094c-.32-.259-1.676.166-2.041.166a2.944 2.944 0 01-1.402-.665c-.076-.184-1.066.148-1.203.332a.695.695 0 01-.286.142.631.631 0 01-.308-.006.707.707 0 01-.28-.154.885.885 0 01-.208-.277l-.7.203c-.747.203.456.683-.092.757h-7.572a2.479 2.479 0 00-1.736.517l-.488-.683-.305-.406c-.072.454-.27.865-.563 1.163l-.229-.296-.38-.461-1.448.424a7.985 7.985 0 00-1.782.517c-.275.185-1.31-.35-1.661-.369a6.852 6.852 0 00-1.615.572 8.034 8.034 0 01-1.432.48l-.365.222-.686.443c-.305-.517-.564-.775-.594-.554a.915.915 0 01-.355.46.676.676 0 01-.514.094 10.635 10.635 0 00-2.178-.591c-.396 0-1.859.739-2.65.757h-.656c-.655 0-1.28.111-1.92.092h-.441a1.814 1.814 0 01-1.387.13l-.213.11c-.64.388-.823.222-.899-.424a3.909 3.909 0 00-1.813.886l-.96-.775h-.106c-.107-.093-.198.11-.213.461-.016.351-1.25 0-1.524-.148a4.81 4.81 0 00-1.615 0 5.933 5.933 0 01-1.523.296c-.26 0-1.204.295-1.752.221-.549-.074-2.148 0-2.377 0-.228 0-.716-.553-.777-.406-.06.148-.335.369-.457 0h-.167l-.274-.111c-.35 0-1.158.13-1.783.185l-.366.258-.487.37a2.564 2.564 0 00-.93-.388c-.25.054-.49.153-.715.295a4.996 4.996 0 01-1.524-.277 5.64 5.64 0 00-1.996.37c-.122 0-.746-.794-.792-.554a1.344 1.344 0 01-.361.543 1.01 1.01 0 01-.538.251h-.853a3.162 3.162 0 00-1.6-.314c-.365 0-1.523.461-1.797.535-.274.074-1.006-.277-1.051 0-.046.277-.244.794-.366.776-.487-.48-.899-1.034-1.737-.462l-.228.166a4.324 4.324 0 00-1.265-.129 5.496 5.496 0 01-1.05-.24h-.138l-.487.111a5.46 5.46 0 01-1.768.147h-.7c-.412.37-.869.499-1.006.296s-.594-.499-.792-.296c-.198.203-1.02.628-1.234.37a3.037 3.037 0 00-1.523-.536l-.518-.092-.503-.111a4.829 4.829 0 01-1.356.388l-.335.166-.153.092a6.103 6.103 0 00-1.797.351l-.732-.591-.396-.314c-.73 0-1.37.351-1.416.665-.046.314-.945.092-1.173 0-.229-.092-1.128-.185-1.432-.258-.305-.074-1.052.35-1.113.332l-.487-.425c-.152-.147-1.326-.443-1.158-.221.168.221.152.424-.38.147l-.565.647c-.243.258-1.05 0-1.6 0h-.41a3.423 3.423 0 00-.716-.591c-.107 0-.869 0-1.615-.111l-.518.683-.077.111c-.73-.295-1.249-.388-1.157-.185.091.203.213.739.152.813a4.338 4.338 0 01-1.082.276c-.487 0-1.828-.424-2.041-.295h-.107l-.472-.258a3.167 3.167 0 01-1.523-.24c-.26-.167-1.22.775-1.828 1.218l-.595-.24-.7-.295a6.634 6.634 0 01-.854.72 1.13 1.13 0 00-.502.221c-.183.148-.99-.258-1.204-.388-.213-.129-1.02-.387-.853 0 .168.388-.777 0-.96.093a1.932 1.932 0 01-1.127-.259c-.274-.24-1.28-.203-1.204-.092a3.687 3.687 0 01-2.102.277l-.472-.351-.884-.646c-.076.702-.472.923-.868.48l-.823.295a3.832 3.832 0 01-2.91-.276 1.355 1.355 0 00-1.523-.111c-.29.184-1.066-.24-1.524-.499-.259-.11.61-.406 0-.627-.167 0-.472.277-.685.258-.213-.018-.868-.148-.96-.388l-.32-.72c-.685-.221-1.63-.535-2.087-.719a8.623 8.623 0 00-2.178-.388c-.275 0-1.097-.24-1.295-.166-.199.074-.595.147-.549-.185.046-.332-.96.148-1.142.222a9.308 9.308 0 01-1.417 0c-.549 0-1.92-.702-2.057-.646-.137.055-.64 0-.655-.111a1.087 1.087 0 00-.456-.497.835.835 0 00-.61-.076 10.593 10.593 0 01-2.94-.83l-.214-.83c-.091-.407-1.082-.462-1.264-1.275l-.077-.369-1.386-.61a.591.591 0 01-.226-.318.73.73 0 01-.002-.42l-.564-.258a4.15 4.15 0 00.365-1.57v-.387l-.121-.83a4.007 4.007 0 00-.549-1.699h-.274c-.152 0-.305 0-.305-.166s.29-.35.58-.517l.258-.184v-.37c0-.11-.183 0-.274 0-.091 0-.091.111-.152.13h-.32c-.35 0-.64 0-.61-.148a2.194 2.194 0 00-.655-1.108l-.259-.369-.167-.24c0-.48.335-.701.792-.498.457.203 1.6 0 1.219-.979-.381-.978-.473-3.802-.092-3.932a4.782 4.782 0 001.295-.59 9.215 9.215 0 01-.99-.665l-.122-.332c-.396-.942-.64.498-1.02 0l-.23-.277c-.471-.203-.73-.628-.563-.923.168-.296-.32-1.846-.411-2.566l.304-.683c.06-.219.08-.45.058-.68a1.797 1.797 0 00-.187-.644 1.473 1.473 0 00-.394-.487 1.166 1.166 0 00-.528-.238h-.655c-.746-.148-1.051-.296-.7-.333.35-.037 1.34-.295 1.34-.553 0-.259-.35-1.016-.792-.942h-.64a4.976 4.976 0 01-.899-.11h-2.026c-.503 0-1.265-1.57-1.188-1.7h.304c.594.093.914-.387.686-.885-.229-.499-.305-.794-.594-.96l-.625-.388c0-.664-.213-1.07-.365-.886h-.168a.663.663 0 01-.533-.11.51.51 0 01-.069-.26c0-.092.024-.182.069-.258.14-.217.325-.385.537-.486.211-.1.442-.13.666-.086a.4.4 0 00.208-.118.537.537 0 00.127-.233.585.585 0 00-.08-.255.45.45 0 00-.179-.17l-.441-.22c-.518-.204-.503-.628 0-.924h.868c.548.333 1.005.148 1.005-.406v-.369l.122-.535a8.277 8.277 0 011.524-.351c.32 0 .228-1.181 0-1.846-.229-.665-.564-2.658-.244-2.825.32-.166 0-1.236-.152-1.421-.153-.185-.503-.83-.244-1.015l.305-.13c.274-.11.594.48.899 0a4.59 4.59 0 011.081.388 5.955 5.955 0 002.163-.258 7.197 7.197 0 012.773.664 13.78 13.78 0 002.407.166c.335 0 1.204.61 1.31.388.178-.398.277-.84.29-1.292 0-.295-1.097-.48-1.34-.462l-.108-.11c-.243-.24 0-.831-.716-.757h-.106a.629.629 0 00-.178-.251.453.453 0 00-.526-.053.571.571 0 00-.21.211l-.076-.849v-.166a4.664 4.664 0 00-1.524-.24l-.076-.517v-.406c-.107-.48 0-.738.213-.572.376.19.79.24 1.189.148a1.1 1.1 0 01.563-.159 1.1 1.1 0 01.564.159c.335.258 1.142 1.033 1.264.849-.198-.554-.655-1.126-.579-1.625l.092-.572c.548-.665.853-1.33.67-1.495a1.153 1.153 0 00-.614-.105 1.21 1.21 0 00-.59.234l-.197.314-.122.203c0 .295-.107.517-.183.48l-.411-.628a1.831 1.831 0 01-1.173.443c-.153 0-.107-.61.457-1.015l-.366-.665-.152-.277a.948.948 0 01-.682-.194 1.304 1.304 0 01-.446-.655c-.228-.59-.518-1.255-.411-1.366a.942.942 0 01.501-.062c.17.026.331.098.474.21l.305.258a.8.8 0 00.502-.369c.107-.185.214-.812 0-.83-.213-.02-1.097-.296-.853-.48.244-.185.869-.887.762-1.108-.107-.222-.503-.794-.64-.628h-.122c-.38.11-.975-.35-1.401-1.237l-.183-.37c.181-.316.38-.618.594-.904a.537.537 0 00.044-.35.486.486 0 00-.067-.161.391.391 0 00-.114-.116h-.533c-.564 0-.732-.203-.503-.72 0-.148.228-.37.183-.425l-.26-.258a.74.74 0 01.3-.382.54.54 0 01.432-.061l.152.424v.166c.808 0 .777-.166 0-.553l.335-.757.168-.406a1.411 1.411 0 000-1.126c-.152-.148-.457-.923-.244-1.219.214-.295 1.25-.701 1.25-.978l-.092-.185-.198-.369c-.167-.462-.152-.702 0-.517.323.206.689.29 1.051.24a3.05 3.05 0 011.158 0c.244 0 .945-.092.823-.203l-.777-.72c-.198-.148-.853.24-.914.24-.061 0-.214-.185-.183-.498.03-.314-1.005 0-1.188 0-.183 0-.518-.24-.183-.425s1.295-.48 1.371-.314c.146.21.354.343.579.37.106 0 .564-.96.762-.942a1.22 1.22 0 00.565-.295c.167-.15.302-.347.394-.573l-.182-.517a1.275 1.275 0 00-.366-.619.926.926 0 00-.594-.248h-.107c-.137-.148-.091-.499.092-.813a12.63 12.63 0 011.157-1.033c.107-.13.092-.646.214-.683.122-.037.243-.351.29-.388.045-.037 0-.295-.275-.498a3.159 3.159 0 01-.64-1.68l.229-.296c.655-.812.487-1.255-.412-1.753l-.716-.37c.417-.514.803-1.064 1.158-1.643.183-.35.731-.775.229-.812l.076-.775v-.314c0-.443-.137-1.145-.183-1.514l-.26-.277-.319-.295c.13-.502.283-.995.457-1.477l-.32-.461-.792-1.108 1.264-.886a9.035 9.035 0 00-1.264-2.178l-.579-1.09-.168-.313.686.203c.188-.039.37-.12.533-.24a4.166 4.166 0 011.036-.517A4.695 4.695 0 00-68 7.17l.35-.165.411-.204c.89.031 1.78-.106 2.636-.406.975-.314 4.113-.535 4.646-.701h.503l.518-.092a19.657 19.657 0 013.047-.333h1.523a5.309 5.309 0 001.63-1.2l.488.72c0 .093.899-.24.914-.203.244.757.762-.554 1.112.148l.122.24a2.39 2.39 0 011.447-.535l.503-.444a3.25 3.25 0 001.645-.166c.244-.147 1.295.185 1.524.13a15.522 15.522 0 012.178-.259 19.472 19.472 0 012.606-.35c.167.166 1.264-.351 1.767-.536l.396.11.67.185a33.83 33.83 0 011.996-.313c.472-.056 1.34-.37 1.417-.222.076.148.792 0 1.173-.425.38-.424 1.935.167 2.285 0l.122.093.563.424a3.075 3.075 0 011.966-.443l.503-.166.502-.166c.627.193 1.273.28 1.92.258h1.036a2.29 2.29 0 011.782.185l.579-.332.427-.24c.892.01 1.783-.065 2.666-.222l.838.24.563.166c.747-.24 1.524-.461 1.783-.498.418.073.841.11 1.264.11a5.302 5.302 0 011.524 0c.533 0 1.873-.295 1.92-.165.045.129.197.147.212-.24.016-.388 1.082.332 1.295.332.214 0 1.173 0 1.63-.11.457-.112 1.676.128 1.996 0a9.095 9.095 0 011.935.202h2.407C-.604 1.578.584.988.782.97c.198-.018.853.166 1.097.148.244-.019.96 0 1.524 0l2.285.203c.198 0 .67-.203.823 0 .152.203 1.447 0 1.858-.093a8.78 8.78 0 002.529-.535l.7.535.534.388c.977 0 1.952-.118 2.91-.35l.746.332h.107c.178-.193.401-.314.639-.347a.99.99 0 01.686.162c1.07.053 2.14-.065 3.184-.35a13.43 13.43 0 013.291.553c.122 0 .96-.148 1.752-.277l.747.296.426.166a1.03 1.03 0 01.442-.565.756.756 0 01.64-.063c.335.203 1.264.517 1.523.295.26-.221 1.036-.701 1.219-.48a2.617 2.617 0 001.798.48l.502-.258c.239-.136.499-.207.762-.207.264 0 .524.07.762.207l.502.295c.327-.25.716-.348 1.097-.277.229 0 1.021.296 1.25.351a2.487 2.487 0 001.264-.369c.26-.185 1.143 0 1.371 0a8.026 8.026 0 011.524 0c.29 0 1.081.185 1.096.388.016.203.199.793.305.72.107-.074.427-.093.503 0 .076.092.548.313.792.203l.137-.351c.107-.277.625-.37.93-.59.898-.628.914-.628 1.858.11l.137.11a.652.652 0 00.383.071.7.7 0 00.364-.163c.198-.166 1.02-.498 1.295-.258.274.24 1.081.757 1.112.554.084-.218.207-.41.36-.564.152-.153.331-.263.523-.322 1.292.065 2.585.016 3.87-.148l1.325.517.412.148c.7-.443 1.386-.628 1.523-.407.137.222.762-.184.838-.258a4.016 4.016 0 011.325-.092c.896.074 1.786.216 2.667.424.49-.06.966-.235 1.401-.517.29-.184 1.737-.129 2.331-.59l.7.646.427.406a1.947 1.947 0 011.417 0c.305.184 1.158-.554 1.524-.61.365-.055 1.249.278 1.28.48.04.091.095.17.162.231a.538.538 0 00.229.126.48.48 0 00.25-.003.544.544 0 00.227-.132l.29-.332.334-.37c.322.167.68.206 1.021.111.183-.092.747-.258.777 0 .03.259.213.296.32-.295l.685.314.35.166.945-.258c.214 0 1.021.332 1.28.258a2.949 2.949 0 011.523.222c.275.184 1.295 0 1.737.221l.396.092c.168 0 .518-.258.549-.203.35.443.502 0 .777 0 .274 0 .411.259.64.351.228.092.243-.185.243-.295v-.093c-.152-.11-.228-.24-.167-.295.06-.055.335 0 .533 0 .48.072.968.021 1.432-.148h.35c.534 0 1.28.406 1.524.185l.564-.425c.387.243.813.381 1.249.407a3.84 3.84 0 001.264-.536c.213-.166.412.628.442.665a5.5 5.5 0 001.112 0l2.834-.333c.426 0 1.523 1.108 1.736.942.214-.166.519-.978 1.158-1.052 1.395.21 2.771.568 4.114 1.07l.914-.849.243-.24c.487.092.966.234 1.432.425.168.11.823 0 1.113 0 .289 0 1.173-.259 1.325-.277a7.96 7.96 0 011.523.092 15.334 15.334 0 003.535-.332l.777.61s1.904-.48 1.935-.5c.03-.018.182-.258.289-.276l.472-.111c.442.258.777.628.732.83-.046.204.091.813.274.813.183 0 .563-.166.426-.35v-.48c0-.407.396-.647.869-.536h.746A7.77 7.77 0 01121.12.25c.487 0 1.919.277 2.209.148.289-.13 1.249.147 1.523 0 .274-.148 1.188.11 1.341 0h.152a4.184 4.184 0 012.118.166l.655.221h2.056c.29 0 .579.72.93.24l.198-.258.091-.148a2.326 2.326 0 011.082-.535c.758.064 1.506.25 2.224.554.306.008.611.039.914.092.359.055.723.055 1.082 0a8.574 8.574 0 011.599 0 6.279 6.279 0 011.691.498c0 .093.29-.11.549-.646l.792.462c.213.129.808-.499 1.265-.554h.38c.284.088.581.09.865.007a1.71 1.71 0 00.766-.487l.655.554.38.332c.61.277 1.219.35 1.326.148.107-.203.655-.646.807-.425a.835.835 0 00.533.283.78.78 0 00.564-.172l.274-.166c.22-.074.451-.074.671 0v.904c.792.259 1.523.24 1.523 0 .069-.223.194-.413.359-.543a.796.796 0 01.555-.177l.335-.11c.275 0 .442-.333.488.129a.568.568 0 00.054.268c.04.082.098.147.168.188a.335.335 0 00.225.045.369.369 0 00.208-.113c.731-.628 1.523-.203 2.346-.333l.533-.092 1.265-.185h.091l.64.13c.884.166 1.356.387 1.082.498-.275.11.289.72.35.905.061.184.396.387.427 0 .03-.388.32-1.422.594-1.274l.198.184.228.203a.89.89 0 00.526.41c.21.054.429.014.617-.114.396-.24 1.523-.443 1.661-.13.137.315.807.887 1.127.462V.508a6.487 6.487 0 011.874.203c.7.05 1.402.05 2.102 0l.884.332a4.707 4.707 0 002.041-.222l.366.166.365.148c.244.554.686.886 1.006.702.32-.185 1.051-.739 1.021-.886V.692a.357.357 0 01.138-.148.282.282 0 01.181-.037c.272.165.519.384.732.647.228.276 1.188-.296 1.325-.314.37.027.737.095 1.097.203v.147l.107.48h-1.387c-.365 0-.518 1.053-.167 1.108.35.055 1.386 0 1.386-.314l.152-.295c.183-.35.488-.905.777-.923.777 0 .153.757.488 1.052 0 0 .396-.258.716-.701.32-.443 1.965-.425 2.483-.462.518-.037 1.067 1.015 1.219.628.152-.388-.945-.683-1.021-.739a.653.653 0 01.076-.627h.412c.47.278.91.625 1.31 1.033l.106 1.57c0 .221.549.59.579.572 1.326-1.07.884.221 1.021.72.137.13.29 0 .32-.462.03-.461.335-1.052.64-.738.305.314.746-1.052.853-1.31.107-.26.564-1.053.746-1.071.183-.019 1.204 0 1.966 0h.853c.152 0 .289 0 .289.129v.738c-.07.218-.188.409-.341.552a.974.974 0 01-.527.26h-.472a3.188 3.188 0 00-1.006-.553h-.35c-.168 0-.457 0-.503.184l-.198.462c-.064.24-.179.456-.334.625a1.114 1.114 0 01-.55.335l-.106.147c-.229.37-.229.923-.518 1.182l-.549.517c.246.378.565.676.93.867.198 0 .807-.258.807-.793 0-.536.396-1.957.853-1.976l.274-.369c.336-.461.656-.517 1.158-.092l.503-.665zm-4.936 4.135c.229.128.48.185.731.166 0 0-.076-.35-.289-.553a2.722 2.722 0 00-1.981 0l-.579-.536s-.243 0-.319.166l-.199.222c-.259.388-.152.738.214.812.365.074 2.041-.424 2.361-.277h.061zm11.045-.793c.518-.204.792-.61.579-.923-.213-.314-1.143.332-1.371.498a5.952 5.952 0 01-1.722.24c-.396 0-1.523.24-1.356.554.168.314 1.265 0 1.524 0a4.179 4.179 0 011.523.166l.442-.24.381-.295zm-265.766 51.54c-.426-.165-.61 0-.411.352.198.35.883 1.68 1.219 2.344l.624-.868.473-.646c.502.222.64.314.304.203-.335-.11-1.782-1.218-2.209-1.384zM109.846 5.382c.384.021.766-.074 1.112-.277v-.092l-.152-.332a.683.683 0 00.135-.416.683.683 0 00-.135-.415c-.198-.13-.945.314-1.31.424-.366.111-.198 1.126.35 1.108zM-73.608 57.679c.275.498.427.517.32 0-.106-.517-1.34-1.089-1.706-1.126v.757c-.305.48 0 .517.792 0l.244.11.35.26zM202.045 6.12c.869-.258 1.311-.461.975-.461a5.184 5.184 0 01-1.523-.83c-.259-.167-1.021-.425-1.021-.112 0 .314.351.868.777.647h.092l.7.756zm-37.431-1.846c.183 0 .092-.517-.213-1.236l-.411-.24-.503-.296a1.84 1.84 0 00-1.341-.48l-.076.185-.091.203c0 .35.518.572 1.051.498l.304.166.351.185c.239.409.558.739.929.96v.055zm-123.582.093c-.26.129-.305.387-.122.59.297.29.582.599.853.923.122.185.716 0 .594-.461-.122-.462-1.066-1.255-1.325-1.108v.056zm135.846-1.034c.076.535.122.59.091.13-.03-.462.107-1.68-.213-1.644-.32.037.046.942.122 1.458v.056zm116.727 34.004c-.305 0-.488.148-.396.498.609 0 .746.37.7.905v.258c.092.351.351.259.595-.221.243-.48-.579-1.348-.899-1.44zm5.271-8.88c0 .204.244.425.503.499l.213.092c.198.11.274.462.594.13.32-.333.442-.425 0-.74-.442-.313.289-1.088-.503-1.033-.289 0-.548.61-.777.96l-.03.092z" fill="#000"/>
  </mask>
  <g mask="url(#a6yKaZW7Pa)">
    <path fill="red" d="M0-2h338v111H0z"/>
  </g>
</svg>
