<svg xmlns="http://www.w3.org/2000/svg" fill="none" viewBox="0 0 305 107">
  <mask id="ppgqeqdIIa" style="mask-type:alpha" maskUnits="userSpaceOnUse" x="-83" y="0" width="389" height="107">
    <path d="M29.461 104.739a3.8 3.8 0 00-1.31 1.347c-.244.462-1.417.887-1.234.591.183-.295.777-1.2.884-1.403.106-.203-.549-.701-.67-1.034l-.168-.147-.427-.369-.7-1.256c-.107-.184-.67.425-.823.739v.387c.001.452-.093.897-.274 1.293-.198.498-.244 1.846-.32 1.975-.076.129-.35 0-.427-.185-.076-.184-.533-.701-.716-.941-.183-.24.7-.776.808-.96.106-.185.09-.499-.244-.259-.335.24-1.34-.461-1.524-.387-.182.074 0 .886.122 1.144v.517c0 .259-.503.388-1.066.295h-.549c0 .591-.244.979-.365.905a2.456 2.456 0 00-1.234 0l-.244-.535c.427 0 .731-.314.686-.536-.046-.221-.488-.683-.747-.35a3.774 3.774 0 01-1.6 1.089 9.201 9.201 0 01-1.447 0 .686.686 0 01.472-.185c.26 0 1.021-.424 1.021-.775 0-.351 1.097-.757 1.295-.794.32-.087.625-.243.899-.462v-.092c0-.111-.229-.295-.29-.277a9.131 9.131 0 01-3.214.702h-.747c-.287.477-.63.9-1.02 1.255-.183.111-.58-.48-.686-.572a6.486 6.486 0 00-.731-.406c-.213-.093-.7-.462-.579-.591.122-.129.579-.351.747-.259v.13l.258.664a5.087 5.087 0 001.28-.369 1.43 1.43 0 00.335-.812c0-.24-.822-.665-1.097-.72v-.092c-.243-1.348-.975-.591-1.112-.13-.243.831-1.036.905-1.523 1.366l-.442.388c-.29.517-.579.72-.64.462v-.683c-.518-.259-1.295-.665-1.706-.923l-.076-.314c-.198-.794-.686-.813-1.326-.813-.274 0-.594-.35-.807-.276-.213.073-.32.461-.503.701-.244 0-.259.166 0 .332.26.166.67.665.472.868-.198.203-1.645-.517-1.523-.738l.076-.222c.244-.683-.091-1.071-.777-.794-.685.277-.7-.277-1.036-.314h-.426c-.714.082-1.422.231-2.118.443l-.365-.203-.442-.276a9.78 9.78 0 00-1.387.35 5.539 5.539 0 01-1.843-.35h-1.295c-.335 0-1.386-.111-1.691.184a1.735 1.735 0 01-1.005.329c-.354 0-.7-.113-1.006-.329l-.762.24-.533.148a14.138 14.138 0 00-1.95-.111c-.874.112-1.74.304-2.59.572-.61.185-2.513-.258-3.26-.129l-.731-.425-.549-.295-2.117.591a9.226 9.226 0 01-1.524 0 9.872 9.872 0 01-1.767.111c0-.148-.32-.388-.487-.24-.168.147-.762.35-.975.129l-.214-.166-.137-.111a.68.68 0 00-.579.129c-.122.129-.533.369-.655.24s-.716.111-.838.203a9.259 9.259 0 01-1.416.351l-.58-.222c-.289-.11-.578-.276-.852-.406-.275-.129-.686-.757-1.189-.166a.537.537 0 01-.411-.111c-.549-.609-.808-.793-1.371.148l-.381.628c-.274-.739-.594-1.219-.716-1.034-.122.185-.564.554-.655.351a2.266 2.266 0 00-.777-.757c-.244 0-.853.609-1.006.794-.152.184-.655-.13-.73 0-.077.129-.23.203-.184-.167.046-.369-.899.24-.96.277-.624.203-.64-.96-1.416-.572l-.412.203a9.896 9.896 0 01-1.356 0c-.167 0-.776.129-1.173.148-.396.018-1.523-.332-1.767 0l-.274.166-.152.111a3.625 3.625 0 01-1.067-.591c-.304-.24-1.843.406-1.995.185-.153-.222-.762-.591-.96-.351-.198.24-.869-.24-.99-.129l-.092.11c-.107.13-.213.388-.32.388-.106 0-.93.259-.883-.406v-.148c.41-.203.578-.48.396-.572-.183-.092-.777-.203-.914 0s-.762.738-.747.222v-.259a.779.779 0 00-.122-.332h-.35c-.35 0-.58-.166-.488-.554l-.609.166h-.107c-.091.129-.487.111-.868 0a11.348 11.348 0 00-2.255-.111c-.411 0-1.752-.609-2.102-.572-.35.037-1.265.258-1.402-.148s-1.721-.646-1.873-.609l-.747-1.107c-1.31-.166-2.483-.333-2.62-.388-.138-.055-.716 0-1.173 0-.457 0-2.407.092-3.245.166l-.168-1.052c0-.11-.35-.296-.427-.259l-.472.277a3.843 3.843 0 01-1.127-.72 6.424 6.424 0 00-1.219-.646 3.926 3.926 0 00-1.127-.332.483.483 0 01-.31-.081.635.635 0 01-.223-.27l-.153-.184a.589.589 0 00-.533 0 3.653 3.653 0 01-1.523.369c-.838 0-.427-.296-.381-.702.045-.406-.503-.461.167-.553.311-.05.614-.157.9-.314.319-.167.258-.333 0-.591l-.26-.258 1.158-1.108c.38-.35.823-1.735.411-1.846h-.64a1.652 1.652 0 01-1.294 0c-.336-.185-.244-1.846-.122-2.437.158-.778.28-1.567.365-2.363a1.951 1.951 0 00-.761.628l-.397-.61-.198-.313a5.26 5.26 0 01.518-1.163l-.365-.185h-.198c-.457.24-.732.185-.61-.147v-.997a8.95 8.95 0 01-.64-1.846c.038-.358.148-.698.32-.992a1.94 1.94 0 01.67-.688c.61-.296.61-1.994.168-1.846l-.274.221-.274.222c-.32.221-.93-.13-1.371-.757l.228-.535c.047-.189.103-.374.168-.554.213-.388.472-.757.716-1.126.244-.37.579.553.899 0l.091-.166c.38 0 .335-.277-.091-.407v-.166c0-.258.167-.572.35-.812.183-.24.366-.13.518-.221.152-.093.472-1.034.107-1.145a.813.813 0 01-.452-.232 1.098 1.098 0 01-.28-.488l-.091-.203c-.64 0-.579-.332.137-.59.716-.26 2.636-1.367 3.52-.776l1.096-.185c.213 0 .67.443.762.757l.213.776c.533-.222.808-.72.625-1.09v-.314c.112-.963.27-1.919.472-2.86v-.204c.26-.17.53-.318.807-.443.153 0 .549-.646.823-.646a5.475 5.475 0 001.204-.222c.2-.15.385-.33.548-.535.122-.13.7.388.777.48.076.092.564.185.61-.203.045-.388.41-1.034.761-.794.21.047.425.04.633-.02.207-.06.401-.173.57-.33a.428.428 0 01-.024-.295.396.396 0 01.062-.132.317.317 0 01.1-.09h.106c.488.203 1.036.978 1.204-.259.273.025.543.08.807.166a6.252 6.252 0 001.524-.314h1.523c.381 0 1.143-.793.838-.941-.304-.148-.944-.96-.792-1.477.152-.517-1.523-1.975-1.356-2.012.168-.037.305-.498-.137-.85v-1.052a1.879 1.879 0 01-1.158-.424l-.137-.203-.32-.499c.19-.682.19-1.422 0-2.104l-.122-.554v-.184c0-.222.473-.185.93.11a2.706 2.706 0 001.843-.332c0-.092-.091-.461-.38-.61h-.138l-.305.185c-.396.24-.655.222-.579 0v-.849a1.454 1.454 0 01-.807 0c-.228 0 .229-1.181.396-1.735l.64-.13a1 1 0 00.335-.11l-.091-1.255c.99-.48 1.523-1.016 1.325-1.182a5.187 5.187 0 00-1.417 0c-.167 0-1.37-.48-2.3-.904l-.96.203c-.442 0-.487-.185-.61-.554l-.182-.572a1.29 1.29 0 01-.567.39 1.107 1.107 0 01-.652.016 8.776 8.776 0 01-1.874-.942l.335-.48a5.933 5.933 0 00-.563-1.034c-.092-.11-.427-.258-.503-.11l-.122.11-.167.148c-.214.111-.655.314-.99.443a2.79 2.79 0 01-1.524.185c-.168-.148-.503-.85-.335-1.145.167-.295 1.386.185 1.858.203v-.313c0-.314-.182-1.053-.304-1.053l-2.148-.092c.29-1.477.259-2.714 0-2.75-.26-.038-.838.627-.915.535l-.35-.333a5.88 5.88 0 01-.32-.646c-.122-.295.305-1.329.442-1.587v-.462a.535.535 0 00-.17-.315.372.372 0 00-.302-.09h-.335a.255.255 0 01-.22-.004.337.337 0 01-.161-.181l.29-.425c.487-.628.441-.96-.123-.72h-.32l-.198.203c-.685 0-1.295-.258-1.325-.517v-.184l.122-1.939a21.966 21.966 0 00-1.737-1.606l-.168-.406a4.198 4.198 0 00-.335-1.846l-.35-.148c-.884-.35-.853-.978-.808-1.698v-.258c0-.499-.456-.702-1.005-.462l.35-.646c.336-.61-.259-.59-.426-.83-.168-.24-.381.775-.564 0v-.111l.61-.388a2.772 2.772 0 00-.503-1.292l.137-.72c0-.185.168-.37.152-.536v-.203c-.122-.221-.091-.35 0-.314.396.015.787-.106 1.128-.35.29-.277-.122-1.348 0-1.44.533.48 1.005.572 1.523-.111l.411-.572c.442.406.823.554.869.332.348-.58.847-1.003 1.417-1.2l.487.997.244.517c.67-.572 1.112-1.09.975-1.126-.137-.037-.472-.296-.427-.443h1.112a.335.335 0 00.252-.021.43.43 0 00.19-.2c0-.185.625 0 .67-.204.046-.203.366-.48.473-.258a.66.66 0 00.243.195.551.551 0 00.567-.062.73.73 0 00.21-.244l.229-.277.137-.166c.424-.028.847.067 1.234.277.366.166 1.645-.24 1.904 0 .26.24 1.006.609 1.295 0l.244-.37.229-.369c.425-.045.852.031 1.249.222.244.148.746-.59 1.036-.572.42.037.836.142 1.234.313.107 0 .624.24.746 0s.686-1.052.96-.941a2.38 2.38 0 001.204-.148c.213-.11.853.203.96.111v-.443a9.24 9.24 0 011.523.646v-.96a9.348 9.348 0 011.295-.406 23.58 23.58 0 013.047.166l.365.11c.381.112.625.61.64-.22 0 0 .442-.24.457-.222.457.646 1.143.13 1.28 0 .411-.554.99.203 1.447-.332l.168-.185 1.523.498a2.726 2.726 0 001.067-.683c.396-.369 1.752.277 1.828.24v-.996a3.175 3.175 0 002.194-.204l.472.757.228.37 1.524-.739h.411c.258-.032.519-.032.777 0h1.798c.274 0 1.173-.35 1.264-.24.092.11.442.37.518.222v-.111l.076-.13c.107-.129.229-.147.26 0 .064.191.162.361.289.5l.61-.167a10.005 10.005 0 001.523-.388l.091-.11.61-.702c.472.665.96 1.034 1.081.83.122-.202.518-.608.64-.498.122.111.38-.295.396-1.07l.884.978.152.166a6.32 6.32 0 011.325-.13c.26 0 .884.167.9 0 .014-.165.944-.257 1.08-.091.138.166.397-.13.382-.85l.975.905c.091.092.624-.258.96-.425l.167-.092a13.87 13.87 0 011.523-.59c.686-.24 2.484.775 2.636.775a13.55 13.55 0 001.6-.296 16.91 16.91 0 013.214 0l.183-.184.457-.406c.398.222.818.383 1.25.48h.76a9.18 9.18 0 011.357-.591c.73-.134 1.47-.202 2.209-.203h.792c.198-.093.396 0 .427.147.03.148.761 0 .868 0 .107 0 .548-.443.716-.276.277.243.62.349.96.295a6.75 6.75 0 011.706-.554l.152.24c.336.517.732-.517 1.097.148l.168.277a1.693 1.693 0 011.34-.296c.168.13.656.406.701.277.046-.129.26-.424.366-.387.097.027.198.02.293-.019a.546.546 0 00.24-.203 13.368 13.368 0 012.255-.332l.883.295c.836.308 1.738.209 2.514-.277l.411-.295a4.49 4.49 0 011.524.498.539.539 0 00.432.053.65.65 0 00.36-.293c.244-.387 1.31.277 1.386.13.077-.148.381-.517.427-.259.046.259.274.535.457.203s1.432.166 1.965 0l.61.11.822.149a3.468 3.468 0 011.905-.462c0 .13.335.425.41.259.157-.275.381-.482.64-.591l.58.572a15.46 15.46 0 012.346-.092c.503 0 2.102-.222 2.468.129l.442-.628c0-.11.624.185.944.185h.96c1.051-.092 2.529-.277 3.275-.443l.549.664.122.13a7.46 7.46 0 011.218-.13c.305 0 1.082.185 1.113 0 .03-.184 1.05-.092 1.401.333l.549-.536.182-.184 1.31.277c.214 0 1.036.147 1.341.147h.274c.203.029.407.029.61 0 .228 0 .411-.221.624-.258h.122a.992.992 0 00.732 0c.472.005.933.178 1.325.498v-.775c.592.1 1.174.273 1.737.517h1.218l1.326-.665c.137 0 .64.277.838.72l.655-.24c.335-.129.944-.24 1.066-.092.533.683.716-.425 1.204-.148l.426.24a7.37 7.37 0 011.722.296l.106-.111.655-.646c.472.283 1 .405 1.524.35.137-.129.655-.369.792-.166.18.268.373.52.58.757l.822-.406a6.957 6.957 0 012.422-.148c.74-.048 1.483-.048 2.224 0 .381.185 1.371-.443 1.722-.221l.944-1.292a13 13 0 002.834.978c.305 0 .868-.13.838.24-.03.37 1.158-.35 1.523-.48a2.338 2.338 0 011.189 0c.228 0 .822-.148.868 0 .046.148.335.443.442.296a2.327 2.327 0 011.34-.536l.427.259 1.31.48.305-.222c.396-.314.777-.461.838-.332.286.292.598.545.929.757l.7-.683c.238.021.467.11.671.258a3.62 3.62 0 002.133-.24l.274-.277c.19.125.337.326.418.569.08.242.09.511.024.76l.899-.572.685-.425v.296c0-.388 1.052.203 1.097.184l.853-.184a8.67 8.67 0 012.118.443c.366.11 1.28-.406 1.417-.277.137.13.518.498.548.498a1.09 1.09 0 00.366-.277 1.67 1.67 0 011.173-.24h.274c.152 0 .442-.276.488-.24l.457.425a2.855 2.855 0 011.92 0l.532.185h.214a1.45 1.45 0 00.777-.24c.152-.148.822-.185 1.02-.333a9.24 9.24 0 012.194.24h1.112a1.62 1.62 0 001.189.093c.357-.22.758-.317 1.157-.277l.32.166c.351.166.64.701.655-.166a.796.796 0 01.381 0 9.477 9.477 0 002.377.166l.594-.092c.35.178.712.32 1.082.424a5.05 5.05 0 001.02-.203c.956-.043 1.912.05 2.849.277.549.185 2.072-.738 2.438-.72a6.938 6.938 0 002.087-.406c.457-.222 1.523.738 1.523.72 0-.018.777-.517 1.067-.13h.289c.305 0 .731-.332 1.006-.24l.578.185a1.63 1.63 0 01.945-.59l.152.11.259.185c.229.258.549.37.701.222.152-.148.518-.314.549-.093.03.222.898.259 1.051 0 .152-.258.777-.406.899-.203.195.293.426.549.685.757.427-.923 1.097-.166 1.63-.203h.259a2.133 2.133 0 011.006-.185c.319.045.635.119.944.222.29.13 1.6-.259 2.148-.092l.61-.148c.335-.092.792.277 1.112.166l.548-.185c.533.13 1.371.259 1.844.314l.441-.092.777-.13 1.844-.184c.316.116.6.332.822.628.214.314 1.173-.166 1.341 0 .168.166.67.387.777.277 0-.277-.305-.757-.259-.776l.503-.258c.073.335.234.632.457.85a.983.983 0 00.67-.222c.137-.13.61-.351.777-.204.168.148.594 0 .625-.59l.792.406c-.122.314.198.498.716.406.518-.092 1.767.61 1.874.498v-.793c.38.087.745.249 1.081.48.122.129.518.387.564.166a.602.602 0 01.113-.225.477.477 0 01.184-.14.395.395 0 01.216-.025.425.425 0 01.203.094c.32.259 1.676-.166 2.042-.166.503.086.983.313 1.401.665.076.184 1.067-.148 1.204-.332a.695.695 0 01.285-.142.63.63 0 01.308.006.71.71 0 01.281.155.885.885 0 01.207.276l.701-.203c.747-.203-.457-.683.091-.757h7.572a2.483 2.483 0 001.737-.517l.487.683.305.406c.072-.454.271-.865.564-1.163l.228.296.381.461 1.447-.424a7.927 7.927 0 001.783-.517c.274-.185 1.31.35 1.66.369a6.778 6.778 0 001.615-.572 8.126 8.126 0 011.432-.48l.366-.222.685-.443c.305.517.564.775.595.554a.91.91 0 01.354-.46.674.674 0 01.514-.094c.71.276 1.439.473 2.178.59.396 0 1.859-.738 2.651-.756h.655c.655 0 1.28-.11 1.92-.092h.442a1.813 1.813 0 011.386-.13l.213-.11c.64-.388.823-.222.899.424a3.91 3.91 0 001.813-.886l.96.775h.106c.107.093.198-.11.214-.461.015-.35 1.249 0 1.523.148a4.777 4.777 0 001.615 0 5.913 5.913 0 011.523-.296c.259 0 1.204-.295 1.752-.221.549.074 2.148 0 2.377 0 .229 0 .716.554.777.406.061-.148.335-.37.457 0h.168l.274.11c.35 0 1.158-.129 1.782-.184l.366-.258.487-.37c.29.193.604.324.93.388.249-.054.491-.153.716-.295a5.002 5.002 0 011.523.277c.677 0 1.35-.125 1.996-.37.122 0 .746.794.792.554.079-.216.204-.403.362-.543a.998.998 0 01.537-.25h.853a3.178 3.178 0 001.6.313c.365 0 1.523-.461 1.797-.535.275-.074 1.006.277 1.052 0 .045-.277.243-.794.365-.775.488.48.899 1.033 1.737.461l.228-.166c.416.105.841.149 1.265.13.355.044.707.124 1.051.24h.137l.488-.112a5.472 5.472 0 011.767-.147h.701c.411-.37.868-.499 1.005-.296.137.203.594.499.792.296.198-.203 1.021-.628 1.234-.37a3.04 3.04 0 001.524.536l.518.092.502.11a4.837 4.837 0 011.356-.387l.336-.166.152-.092a6.106 6.106 0 001.798-.351l.731.59.396.315c.731 0 1.371-.351 1.417-.665.045-.314.944-.092 1.173 0 .228.092 1.127.185 1.432.258.304.074 1.051-.35 1.112-.332l.487.425c.153.147 1.326.443 1.158.221-.167-.221-.152-.424.381-.147l.564-.647c.244-.258 1.051 0 1.599 0h.412c.217.234.457.432.716.591.106 0 .868 0 1.615.11l.518-.682.076-.11c.731.295 1.249.387 1.158.184-.092-.203-.214-.739-.153-.812.351-.14.714-.233 1.082-.277.487 0 1.828.424 2.041.295h.107l.472.258a3.159 3.159 0 011.524.24c.259.167 1.218-.775 1.828-1.218l.594.24.701.295c.268-.267.553-.508.853-.72.179-.03.35-.105.503-.221.182-.148.99.258 1.203.388.213.129 1.021.387.853 0-.167-.388.777 0 .96-.093a1.93 1.93 0 011.127.259c.275.24 1.28.203 1.204.092a3.686 3.686 0 012.102-.277l.473.35.883.647c.076-.702.472-.923.869-.48l.822-.295a3.834 3.834 0 012.91.277c.226.17.484.27.75.29.266.019.532-.043.773-.18.29-.184 1.067.24 1.524.499.259.11-.61.406 0 .627.167 0 .472-.277.685-.258.214.018.869.148.96.388l.32.72c.686.221 1.63.535 2.087.72a8.65 8.65 0 002.179.387c.274 0 1.097.24 1.295.166.198-.074.594-.147.548.185-.046.332.96-.148 1.143-.222a9.335 9.335 0 011.417 0c.548 0 1.919.702 2.056.646.137-.055.64 0 .655.111.105.22.265.394.457.497a.83.83 0 00.61.076 10.59 10.59 0 012.94.83l.213.831c.092.406 1.082.461 1.265 1.274l.076.369 1.386.61c.104.07.185.182.226.317a.732.732 0 01.003.42l.563.259a4.152 4.152 0 00-.365 1.57v.387l.122.83a4 4 0 00.548 1.699h.274c.153 0 .305 0 .305.166s-.289.35-.579.517l-.259.184v.37c0 .11.183 0 .274 0 .092 0 .092-.111.153-.13h.32c.35 0 .639 0 .609.148.114.445.344.834.655 1.108l.259.369.168.24c0 .48-.335.701-.793.498-.457-.203-1.599 0-1.218.979.381.978.472 3.803.091 3.932a4.789 4.789 0 00-1.295.59c.341.198.671.42.99.665l.122.332c.396.942.64-.498 1.021 0l.229.277c.472.203.731.628.563.923-.167.296.32 1.846.411 2.566l-.304.683a1.868 1.868 0 00.129 1.324c.1.195.235.361.394.487.16.125.34.207.528.238h.655c.747.148 1.051.296.701.333-.351.037-1.341.295-1.341.553 0 .259.351 1.016.792.942h.64c.302.01.602.047.899.11h2.026c.503 0 1.265 1.57 1.189 1.7h-.305c-.594-.093-.914.387-.686.885.229.499.305.794.595.96l.624.388c0 .664.213 1.07.366.886h.167a.664.664 0 01.534.11.515.515 0 01.068.26.516.516 0 01-.068.258 1.32 1.32 0 01-.537.486c-.212.1-.442.13-.667.086a.399.399 0 00-.208.118.535.535 0 00-.127.233c.008.092.036.18.081.255a.452.452 0 00.178.17l.442.22c.518.204.502.628 0 .924h-.869c-.548-.333-1.005-.148-1.005.406v.37l-.122.534a8.261 8.261 0 01-1.524.351c-.319 0-.228 1.182 0 1.846.229.665.564 2.658.244 2.825-.32.166 0 1.236.153 1.421.152.185.502.83.243 1.015l-.304.13c-.275.11-.595-.48-.899 0a4.588 4.588 0 01-1.082-.388 5.948 5.948 0 00-2.163.258 7.195 7.195 0 01-2.773-.664 13.872 13.872 0 00-2.407-.166c-.335 0-1.203-.61-1.31-.388-.178.398-.277.84-.289 1.292 0 .296 1.096.48 1.34.462l.107.11c.243.24 0 .831.716.757h.106a.626.626 0 00.179.251.454.454 0 00.526.053.582.582 0 00.21-.211l.076.849v.166a4.662 4.662 0 001.523.24l.076.517v.406c.107.48 0 .738-.213.572a1.739 1.739 0 00-1.188-.147 1.104 1.104 0 01-.564.158c-.195 0-.388-.054-.564-.158-.335-.259-1.142-1.034-1.264-.85.198.554.655 1.127.579 1.625l-.092.572c-.548.665-.853 1.33-.67 1.495.196.092.406.127.614.105.209-.022.411-.102.59-.234l.198-.314.122-.203c0-.295.106-.517.182-.48l.412.628a1.83 1.83 0 011.173-.443c.152 0 .106.61-.457 1.015l.365.665.153.277a.947.947 0 01.681.194 1.3 1.3 0 01.446.655c.229.59.518 1.255.411 1.366a.94.94 0 01-.501.062 1.014 1.014 0 01-.474-.21l-.304-.258a.798.798 0 00-.503.37c-.107.184-.213.811 0 .83.213.018 1.097.295.853.48-.244.184-.868.886-.762 1.107.107.222.503.794.64.628h.122c.381-.11.975.35 1.402 1.237l.182.37a8.697 8.697 0 01-.594.904.51.51 0 00-.044.35.493.493 0 00.067.161c.031.048.07.088.114.116h.534c.563 0 .731.203.502.72 0 .148-.228.37-.182.425l.259.258a.74.74 0 01-.3.382.54.54 0 01-.432.061l-.152-.424v-.166c-.808 0-.777.166 0 .553l-.335.757-.168.406a1.408 1.408 0 00-.116.564c0 .196.04.39.116.563.153.147.457.922.244 1.218-.213.295-1.249.701-1.249.978l.091.185.198.37c.168.46.153.7 0 .516a1.546 1.546 0 00-1.051-.24 3.052 3.052 0 01-1.158 0c-.244 0-.944.092-.822.203l.776.72c.198.148.854-.24.915-.24.06 0 .213.185.182.498-.03.314 1.006 0 1.189 0 .182 0 .518.24.182.425-.335.185-1.294.48-1.371.314a.833.833 0 00-.579-.37c-.106 0-.563.96-.761.942a1.224 1.224 0 00-.566.295 1.58 1.58 0 00-.394.573l.183.517c.066.247.194.463.366.618a.926.926 0 00.594.25h.106c.137.147.092.498-.091.812a12.73 12.73 0 01-1.158 1.033c-.107.13-.091.647-.213.683-.122.037-.244.351-.29.388-.046.037 0 .295.274.498a3.16 3.16 0 01.64 1.68l-.228.296c-.655.812-.488 1.255.411 1.754l.716.369a15.544 15.544 0 00-1.158 1.643c-.183.35-.731.775-.228.812l-.076.775v.314c0 .443.137 1.145.182 1.514l.259.277.32.295c-.13.502-.283.995-.457 1.477l.32.461.792 1.108-1.264.886a9.01 9.01 0 001.264 2.178l.579 1.09.168.313-.686-.203a1.39 1.39 0 00-.533.24 4.148 4.148 0 01-1.036.517 4.694 4.694 0 00-1.264.37l-.351.166-.411.203a7.194 7.194 0 00-2.636.406c-.975.314-4.113.535-4.646.701h-.503l-.518.093c-1.008.19-2.026.301-3.047.332h-1.523a5.3 5.3 0 00-1.63 1.2l-.488-.72c0-.093-.899.24-.914.203-.244-.757-.762.554-1.112-.148l-.122-.24a2.394 2.394 0 01-1.447.536l-.503.443a3.244 3.244 0 00-1.645.166c-.244.147-1.295-.185-1.524-.129-.721.137-1.448.223-2.178.258-.862.176-1.732.293-2.605.351-.168-.166-1.265.35-1.767.535l-.397-.111-.67-.184c-.685.129-1.523.258-1.996.313-.472.056-1.34.37-1.416.222-.077-.148-.793 0-1.173.425-.381.424-1.935-.167-2.286 0l-.121-.093-.564-.424a3.077 3.077 0 01-1.965.443l-.503.166-.503.166a5.836 5.836 0 00-1.919-.258h-1.036a2.29 2.29 0 01-1.783-.185l-.579.332-.426.24a14.38 14.38 0 00-2.666.222l-.838-.24-.564-.166c-.746.24-1.523.461-1.782.498a7.471 7.471 0 00-1.265-.111 5.252 5.252 0 01-1.523 0c-.533 0-1.874.296-1.92.166-.046-.129-.198-.147-.213.24-.015.388-1.082-.332-1.295-.332-.213 0-1.173 0-1.63.111-.457.111-1.676-.129-1.996 0a9.092 9.092 0 01-1.935-.203h-2.407c-.457 0-1.645.591-1.843.609-.198.019-.853-.166-1.097-.148-.244.019-.96 0-1.523 0l-2.286-.203c-.198 0-.67.203-.822 0-.153-.203-1.448 0-1.859.093a8.783 8.783 0 00-2.529.535l-.701-.535-.533-.388c-.977.001-1.952.118-2.91.351l-.746-.333h-.107a1.073 1.073 0 01-.638.347.988.988 0 01-.687-.162 10.13 10.13 0 00-3.184.351 13.479 13.479 0 01-3.291-.554c-.122 0-.96.148-1.752.277l-.746-.296-.427-.166a1.029 1.029 0 01-.442.565.754.754 0 01-.639.063c-.336-.203-1.265-.517-1.524-.295-.259.221-1.036.701-1.219.48a2.616 2.616 0 00-1.797-.48l-.503.258a1.52 1.52 0 01-.762.207c-.263 0-.523-.07-.762-.207l-.502-.295a1.378 1.378 0 01-1.097.277c-.229 0-1.021-.296-1.249-.351-.44.005-.872.131-1.265.369-.259.185-1.142 0-1.371 0a8.072 8.072 0 01-1.523 0c-.29 0-1.082-.184-1.097-.388-.015-.203-.198-.793-.305-.72-.107.074-.426.093-.503 0-.076-.092-.548-.313-.792-.203l-.137.351c-.107.277-.625.369-.929.591-.899.628-.914.628-1.859-.111l-.137-.111a.658.658 0 00-.746.093c-.199.166-1.021.498-1.295.258-.275-.24-1.082-.757-1.113-.554-.084.218-.206.41-.359.564a1.273 1.273 0 01-.524.322 21.87 21.87 0 00-3.87.148l-1.325-.517-.411-.148c-.701.444-1.387.628-1.524.407-.137-.222-.762.184-.838.258a4.024 4.024 0 01-1.325.092 18.06 18.06 0 01-2.666-.424c-.491.06-.967.235-1.402.517-.289.184-1.737.129-2.331.59l-.7-.646-.427-.406a1.947 1.947 0 01-1.417 0c-.305-.184-1.158.554-1.523.609-.366.056-1.25-.277-1.28-.48a.69.69 0 00-.163-.23.536.536 0 00-.229-.126.482.482 0 00-.25.003.548.548 0 00-.226.132l-.29.332-.335.369a1.393 1.393 0 00-1.021-.11c-.183.092-.746.258-.777 0-.03-.259-.213-.296-.32.295l-.685-.314-.351-.166-.944.258c-.213 0-1.021-.332-1.28-.258a2.943 2.943 0 01-1.523-.222c-.274-.184-1.295 0-1.737-.221l-.396-.092c-.168 0-.518.258-.548.203-.351-.443-.503 0-.777 0-.275 0-.412-.259-.64-.351-.229-.092-.244.185-.244.295v.093c.152.11.228.24.168.295-.061.055-.336 0-.534 0a2.907 2.907 0 00-1.432.148h-.35c-.533 0-1.28-.406-1.524-.185l-.563.425a2.633 2.633 0 00-1.249-.406 3.835 3.835 0 00-1.265.535c-.213.166-.411-.628-.442-.665a5.584 5.584 0 00-1.112 0l-2.833.333c-.427 0-1.524-1.108-1.737-.942-.213.166-.518.979-1.158 1.052a20.416 20.416 0 01-4.113-1.07l-.914.849-.244.24a7.391 7.391 0 01-1.432-.425c-.168-.111-.823 0-1.112 0-.29 0-1.173.259-1.326.277a8.013 8.013 0 01-1.523-.092 15.31 15.31 0 00-3.535.332l-.777-.609s-1.904.48-1.934.498c-.031.019-.183.259-.29.277l-.472.111c-.442-.258-.777-.628-.731-.831.045-.203-.092-.812-.275-.812-.182 0-.563.166-.426.351v.48c0 .406-.396.646-.868.535h-.747a7.738 7.738 0 01-1.523.277c-.488 0-1.92-.277-2.21-.148-.289.13-1.249-.147-1.523 0-.274.148-1.188-.11-1.34 0h-.153a4.173 4.173 0 01-2.117-.166l-.656-.221h-2.056c-.29 0-.58-.72-.93-.24l-.198.258-.09.148a2.315 2.315 0 01-1.083.535 7.26 7.26 0 01-2.224-.554 6.249 6.249 0 01-.914-.092 3.566 3.566 0 00-1.082 0c-.532.05-1.067.05-1.6 0a6.285 6.285 0 01-1.69-.498c0-.093-.29.11-.549.646l-.792-.462c-.213-.129-.807.499-1.264.554h-.381a1.481 1.481 0 00-.865-.007 1.706 1.706 0 00-.765.487l-.655-.554-.381-.332c-.61-.277-1.219-.351-1.326-.148-.106.203-.655.646-.807.425a.834.834 0 00-.533-.283.783.783 0 00-.564.172l-.274.166a1.04 1.04 0 01-.67 0v-.904c-.793-.259-1.524-.24-1.524 0a1.096 1.096 0 01-.359.543.804.804 0 01-.555.177l-.335.11c-.274 0-.442.333-.488-.129a.56.56 0 00-.054-.268.432.432 0 00-.167-.188.333.333 0 00-.225-.045.37.37 0 00-.209.113c-.731.628-1.523.204-2.346.333l-.533.092-1.265.185h-.09l-.64-.13c-.884-.166-1.357-.387-1.082-.498.274-.111-.29-.72-.35-.905-.062-.184-.397-.387-.427 0-.03.388-.32 1.422-.594 1.274l-.198-.184-.23-.203a.888.888 0 00-.524-.41.752.752 0 00-.618.114c-.396.24-1.523.443-1.66.129-.137-.313-.808-.886-1.128-.461v1.311a6.457 6.457 0 01-1.873-.204c-.7-.05-1.403-.05-2.103 0l-.883-.332a4.716 4.716 0 00-2.042.222l-.365-.166-.366-.148c-.244-.554-.686-.886-1.006-.702-.32.185-1.05.739-1.02.887v.258a.369.369 0 01-.138.148.292.292 0 01-.182.037 2.843 2.843 0 01-.731-.647c-.229-.276-1.189.296-1.326.314a5.105 5.105 0 01-1.097-.203v-.147l-.106-.48h1.386c.366 0 .518-1.053.168-1.108-.35-.055-1.387 0-1.387.314l-.152.295c-.183.351-.488.905-.777.923-.777 0-.152-.757-.488-1.052 0 0-.396.258-.716.701-.32.443-1.965.425-2.483.462-.518.037-1.066-1.015-1.219-.628-.152.388.945.683 1.021.739a.657.657 0 01.044.328.606.606 0 01-.12.299h-.411a6.415 6.415 0 01-1.31-1.033l-.107-1.57c0-.221-.549-.59-.58-.572-1.325 1.071-.883-.221-1.02-.72-.137-.129-.29 0-.32.462-.03.461-.335 1.052-.64.738-.304-.314-.746 1.052-.853 1.311-.106.258-.563 1.052-.746 1.07-.183.019-1.204 0-1.965 0h-.854c-.152 0-.289.001-.289-.129v-.738a1.3 1.3 0 01.341-.552.971.971 0 01.527-.26h.473c.308.249.647.436 1.005.553h.35c.168 0 .457 0 .503-.184l.198-.462c.064-.24.18-.456.335-.625a1.11 1.11 0 01.549-.335l.106-.147c.229-.37.229-.923.519-1.182l.548-.517a2.511 2.511 0 00-.93-.867c-.197 0-.807.258-.807.794 0 .535-.396 1.956-.853 1.975l-.274.369c-.335.461-.655.517-1.158.092l-.503.665zm4.936-4.135a1.291 1.291 0 00-.731-.166s.076.35.29.553a2.719 2.719 0 001.98 0l.579.536s.244 0 .32-.166l.198-.222c.259-.388.152-.738-.214-.812-.365-.074-2.04.424-2.36.277h-.062zm-11.045.794c-.518.203-.792.609-.579.923.214.313 1.143-.333 1.371-.499a5.97 5.97 0 011.722-.24c.396 0 1.523-.24 1.356-.554-.168-.314-1.265 0-1.524 0a4.19 4.19 0 01-1.523-.166l-.442.24-.38.296zm265.766-51.542c.427.166.609 0 .411-.35a99.576 99.576 0 01-1.218-2.345l-.625.868-.472.646c-.503-.222-.64-.314-.305-.203.335.11 1.783 1.218 2.209 1.384zM112.154 101.62a1.975 1.975 0 00-1.112.277v.092l.152.333a.687.687 0 00-.135.415c0 .154.049.303.135.415.198.129.945-.314 1.311-.424.365-.111.198-1.126-.351-1.108zm183.454-52.298c-.274-.498-.427-.517-.32 0 .107.517 1.341 1.09 1.706 1.126v-.757c.305-.48 0-.517-.792 0l-.244-.11-.35-.259zm-275.653 51.56c-.868.258-1.31.461-.975.461.54.183 1.053.463 1.523.831.26.166 1.021.424 1.021.111 0-.314-.35-.868-.777-.646h-.091l-.701-.757zm37.431 1.846c-.183 0-.091.517.213 1.237l.412.239.502.296a1.84 1.84 0 001.341.48l.076-.185.092-.203c0-.351-.518-.572-1.051-.498l-.305-.166-.35-.185a2.68 2.68 0 00-.93-.96v-.055zm123.582-.093c.259-.129.305-.387.122-.59a12.926 12.926 0 01-.853-.923c-.122-.185-.716 0-.594.461.122.462 1.066 1.255 1.325 1.108v-.056zm-135.846 1.034c-.076-.535-.121-.591-.091-.129.03.461-.107 1.68.213 1.643.32-.037-.045-.942-.122-1.458v-.056zM-71.604 69.664c.304 0 .487-.147.396-.498-.61 0-.747-.37-.701-.905v-.258c-.091-.35-.35-.259-.594.221s.579 1.348.899 1.44zm-5.272 8.88c0-.203-.243-.425-.502-.499l-.214-.092c-.198-.11-.274-.462-.594-.13-.32.333-.441.425 0 .74.442.313-.29 1.088.503 1.033.29 0 .549-.61.777-.96l.03-.092z" fill="#000"/>
  </mask>
  <g mask="url(#ppgqeqdIIa)">
    <path fill="red" d="M0-6h331v119H0z"/>
  </g>
</svg>
