<svg xmlns="http://www.w3.org/2000/svg" fill="none" viewBox="0 0 90 29">
  <g clip-path="url(#ANNpJbrfva)" fill="#000">
    <path d="M66.537 27.483a.82.82 0 01-.052.123s-.131 0-.254-.04l-.14.147-.063.063a.755.755 0 00-.263-.051c-.084 0-.37.186-.398.175v-.072c0-.075-.1-.091-.207-.036a2.099 2.099 0 01-.637-.051c-.131 0-.497.17-.573.163-.076-.008-.274-.116-.334-.128-.06-.011-.231.1-.275.12-.044.02-.147 0-.151.099-.004.1-.239-.06-.31-.056l-.052.036c-.123.091-.14.04-.18-.091l-.027-.096c-.076.12-.183.187-.23.147a.699.699 0 00-.399-.023l-.08.063-.071.06a2.177 2.177 0 01-.227-.052l-.02-.044c-.052-.055-.083-.13-.135-.19a.143.143 0 00-.08.139c0 .051-.147.139-.262.17l-.096-.09-.024-.02a.271.271 0 00-.31 0l-.064.043-.04.024a.093.093 0 01-.087-.062.091.091 0 01-.004-.038v-.095c0-.032-.032-.06-.084-.055v.023c-.04.052-.056.123-.091.18l-.048.067a.398.398 0 00-.195-.036.546.546 0 01-.398-.163l-.203.155a.148.148 0 01-.131 0l-.084-.167a1.522 1.522 0 00-.267.207c-.031.047-.159.13-.187.063-.028-.067-.163-.21-.23-.135l-.068.02-.115.036-.291.02-.23.067c-.092.028-.423-.13-.455-.075l-.04.031-.04.028c-.055 0-.079 0-.05-.063v-.036c0-.036-.049-.068-.08-.095l-.108-.072c-.01.075-.03.148-.056.219a.398.398 0 01-.33.095l-.123-.032h-.028c-.024-.044-.036-.075-.024-.075a.584.584 0 00.087-.21c.036-.112.355-.072.399-.088v-.048a1.195 1.195 0 00-.303-.254l-.183.1-.08.043c-.095.028-.095.083 0 .123.096.04-.02.373-.111.421h-.115a1.272 1.272 0 00-.633.052.258.258 0 01-.235-.064l-.056-.055c-.028-.112-.071-.151-.103-.088-.032.064-.187.227-.279.215-.091-.012-.398.024-.45.143l-.08-.076v-.02a2.428 2.428 0 01-.122-.19l-.1.071-.028.024a.17.17 0 01-.131-.107c0-.048-.06-.179-.084-.1v.128c-.04.087-.091.071-.155.023-.163-.115-.04.112-.115.116h-.048a.439.439 0 01-.27 0l-.08.083c-.024.024-.096.044-.108.028l-.179-.227c-.111.18-.27.259-.35.175-.08-.083-.43 0-.49-.044-.06-.043-.338.088-.473.076l-.116.075a2.66 2.66 0 00-.286-.099l-.195.04-.14.028c-.02-.108-.087-.151-.15-.096-.064.056-.303 0-.335 0-.09.03-.176.069-.259.115l-.107-.031-.123-.036a.498.498 0 01-.295 0 .092.092 0 00-.123 0c-.04.044-.22.17-.251.123a.62.62 0 00-.2-.183.86.86 0 00-.425.076c-.164.03-.333.03-.497 0-.064 0-.26.071-.31.04a1.143 1.143 0 00-.247-.1l-.096.096c-.127 0-.259-.024-.295-.024-.035 0-.19.044-.282.055-.092.012-.29 0-.307.131l-.175-.134-.032-.024a.64.64 0 00-.218-.024c-.08 0-.363-.032-.446.024a1.468 1.468 0 01-.43.119l-.032-.028c-.075-.06-.123-.143-.239-.131h-.099a.479.479 0 01-.16.163h-.149c-.12.035-.295.095-.398.13l-.068-.13c-.068-.135-.187-.143-.303-.048l-.585.091h-.163a2.224 2.224 0 00-.438 0c-.06 0-.206-.11-.214-.051-.008.06-.076.111-.132 0-.056-.111-.438 0-.569 0a2.488 2.488 0 00-.541.111l-.219-.195c-.184.03-.37.042-.557.036-.076.095-.143.155-.283.076l-.063-.036a2.728 2.728 0 01-.422.131h-.243a.798.798 0 01-.334-.087c-.032-.032-.124-.092-.136-.06a.343.343 0 01-.187.135.974.974 0 01-.398 0v-.21a4.026 4.026 0 00-.398.119l-.107-.076a.2.2 0 00-.199 0c-.092.096-.195.068-.298.084h-.096l-.29.099c-.048.02-.203-.095-.287-.08-.132.024-.264.04-.398.048-.048 0-.155.064-.18.036a4.874 4.874 0 00-.397-.306v.322a.215.215 0 01-.131 0l-.231-.1a3.154 3.154 0 01-.617.108h-.227c-.024-.096-.243-.123-.485-.06h-.223c-.056 0-.048-.119.02-.163h.031c.052 0 .056-.04 0-.063-.055-.024-.175-.032-.175.043 0 .076-.071.318-.159.334-.087.016-.398-.095-.485-.075h-.116a.657.657 0 01-.306-.052l-.151-.083c-.137.056-.27.12-.398.194-.064.04-.172-.167-.184-.167a.49.49 0 00-.135.088l-.02-.1c-.103-.095-.163-.087-.175.08v.04a.116.116 0 01-.179-.044c-.04-.072-.27-.028-.398 0a3.17 3.17 0 01-.55.032l-.023.075s-.111.036-.131 0c-.02-.036 0-.198-.14-.139l-.043.028c0 .12-.144.155-.283.08l-.131-.072a1.173 1.173 0 00-.37.048c-.088.091-.172.182-.203-.04l-.156-.048c-.06 0-.234-.047-.254 0a1.658 1.658 0 00-.092.143.47.47 0 01-.187.104c-.08.02-.306-.068-.318-.044a.187.187 0 01-.183 0c-.044-.048-.22-.167-.259-.131-.04.035-.167.107-.199.08-.032-.029-.131-.088-.14-.04a.071.071 0 01-.056.065.071.071 0 01-.079-.038h-.175c-.04-.095-.107-.123-.15-.055-.045.067-.176.222-.188.186-.012-.035-.08-.095-.127-.071-.048.024-.195.08-.203.047v-.031c-.028-.104-.128-.104-.14-.044-.04.199-.143.19-.258.107l-.092-.067-.354.135-.084-.107a.195.195 0 00-.31-.048s-.056 0-.072-.032l-.095-.123c-.04.052-.096.135-.131.187h-.16a3.482 3.482 0 00-.302-.04l-.183.06c-.06 0-.283-.143-.354-.096-.072.048-.287.107-.319 0-.032-.107-.314.072-.442.084-.127.012-.453-.092-.457-.04-.004.052-.056.179-.084.135v-.052c0-.027-.1-.06-.203-.067-.103-.008-.318-.127-.266-.179.051-.052.74-.067.88-.1.139-.031.13-.134.043-.099l-.092-.04a.95.95 0 01-.195.152c-.08.047-.195-.23-.23-.243-.036-.012-.076.096-.076.143v.04c-.04.159-.032.127.06.163l.115.048c.078-.024.152-.056.223-.096h.02l.107-.071a.526.526 0 01-.43-.072.706.706 0 00-.441-.083c-.068.024-.319-.036-.398 0-.08.035-.056.198-.036.238.02.04.115.135.167.135.052 0 .127.036.056.076-.103.06-.2.13-.287.21 0 .032-.159 0-.183 0a2.594 2.594 0 01-.163-.214 3.053 3.053 0 00-.318-.235c0-.027-.052.1-.04.151h.024l.091.048c.1.04.155.12.128.183v.024c.035.055.051.123-.024.09l-.124-.047a2.363 2.363 0 01-.398-.095 1.593 1.593 0 00-.493.103c-.048.024-.16.048-.23.08l-.069-.028h-.04l-.043-.056c-.048-.063-.116-.083-.151-.04-.036.044-.168.04-.231 0-.064-.04-.303.04-.398 0l-.08-.067s.032-.076.04-.12v-.126c0-.044-.04 0-.072.063-.031.064-.23.147-.223.171a.096.096 0 01-.088.1 2.646 2.646 0 01-.457-.16c-.111-.051-.441.06-.465.052-.024-.008-.076-.048-.064-.071a.634.634 0 01.127-.128c.04-.031-.063-.305-.234-.337l-.068.175-.056.135c.1.182.088.345-.028.37l-.032-.033c-.067-.063-.087-.186-.207-.198v-.028c-.023-.199-.023-.195-.202-.223h-.092c-.12-.047-.219 0-.219.08s-.04.306-.091.314l-.072-.072c-.068-.083-.068-.167 0-.183.068-.015.052-.238 0-.246-.052-.008-.203.131-.23.103-.029-.027-.108-.103-.136-.099h-.02a1.38 1.38 0 01-.107.103c-.036.032-.191-.13-.223-.079-.032.052-.148.143-.203.111a.53.53 0 00-.275-.06c-.04 0-.135.116-.147.06-.012-.055-.08-.19-.128-.183h-.027l-.203.12c-.183-.112-.354-.223-.398-.243-.044-.02-.116-.063-.124-.051a.794.794 0 00-.043.166c0 .064-.191 0-.24 0-.047 0-.17 0-.174-.051-.004-.052-.171.024-.223.075-.052.052-.287.088-.319.123l-.035.032c0 .02-.06.048-.064.04l-.195-.214c-.02.182-.116.31-.211.278-.095-.032-.235-.31-.243-.27a.795.795 0 01-.06.15 1.732 1.732 0 01-.198-.218c0-.024.035-.095.043-.143v-.052a.127.127 0 00-.095-.111v.024c-.124.127-.18.083-.207-.076-.072 0-.132.044-.136.088-.003.044 0 .143.04.15.04.009-.024.16-.083.175-.06.016-.18-.186-.2-.301v-.108c0-.043.076-.11.112-.107h.167c.18.032.323 0 .315-.06-.008-.06-.275-.099-.315-.17a.935.935 0 01-.055-.247.604.604 0 01.095-.29l.052-.06c.064-.075.135-.146.203-.218v.155c0 .088.123.318.175.274.052-.043.195-.194.16-.242l-.025-.028-.032-.032c-.043-.027-.055-.071-.031-.091.024-.02.063-.107.031-.143-.031-.036-.573-.131-.533-.147.04-.016.072-.06 0-.056-.072.004-.147-.206-.175-.202-.028.004-.084.032-.076.055.008.024 0 .068-.06.052h-.047c-.151-.103-.223-.19-.16-.199.064-.007.255-.075.255-.13a.74.74 0 00-.123-.255.398.398 0 00-.31-.083.235.235 0 01-.2.035c-.063-.031-.218-.051-.17.036.047.088-.171.397-.26.54h-.238c-.044.108-.083.151-.087.104-.004-.048-.056-.19-.088-.14-.032.052-.16.116-.227.052-.067-.063-.31-.206-.398-.178-.087.027-.286.198-.442.143l-.143-.044s0 .048-.032.067c-.031.02-.067.092-.1.092H8.56a1.42 1.42 0 01.1-.25.333.333 0 00-.16-.362l-.087.246c-.02.06-.123.092-.195.112-.072.02-.091-.04-.103-.076-.012-.036-.02-.115-.088-.048-.068.068-.123.072-.16 0a.294.294 0 01-.039-.202c.048-.098.103-.19.167-.278l.056-.092a.616.616 0 00-.279-.262 1.397 1.397 0 00-.398-.071 1.22 1.22 0 01-.453-.326c-.052-.088-.307-.135-.323-.159a1.61 1.61 0 010-.37l-.095-.146-.032-.052a.194.194 0 01.107-.215l.056-.067c.092-.111.084-.12.151-.06l.032.032.112.087c.051-.115.115-.143.143-.063.028.08.298.1.374.083.076-.016.283-.11.183-.15-.1-.04-.282-.183-.247-.259l-.075-.047-.128-.084c-.087.131-.163.215-.167.187a.226.226 0 00-.131-.104c-.056 0 0-.226.103-.25l.052-.063.052-.072c.048-.127.056-.246 0-.266-.056-.02-.048-.159.048-.27.11-.12.204-.253.278-.397-.032 0-.091-.096-.052-.155h.108a.338.338 0 00.175-.23l-.08-.084a1.86 1.86 0 01.132-.533l.083-.063a.397.397 0 00.164-.223c.04-.102.086-.201.139-.297l.036-.052.083-.12a1.25 1.25 0 01-.103-.44l.02-.111.031-.16c-.107 0-.155-.075-.099-.13a.942.942 0 01.378-.203h.235c.078-.083.165-.158.259-.223.083.16.167-.071.262 0a.79.79 0 00.283.124.139.139 0 01.215-.084c.075.052.298-.091.318-.095.064.08.163 0 .207.032l.12.087a.398.398 0 01.397 0l.112-.111c.135.039.268.085.398.139l.159-.131h.024c.066.01.133.01.199 0a.93.93 0 01.314.087.45.45 0 00.263-.048c.052-.04.326 0 .438 0h.107a.21.21 0 01.151.028l.076.076c.11-.058.225-.108.342-.151l.104-.044c.031 0 .047-.052.071-.08l.06-.07c.028.075.08.122.12.106a.556.556 0 00.143-.353v-.167c.156.006.313-.01.465-.048l-.028.028-.195.195c0-.171-.04-.298-.095-.278-.056.02-.06.202-.056.27a.75.75 0 00.116.29c.024.024.163-.096.219-.16.055-.063-.267-.365-.518-.452l-.072.076-.08.083c-.07.143-.21.226-.31.187-.099-.04-.346-.183-.338-.084l-.02.064v.024c-.067 0-.12 0-.111-.036.008-.036 0-.104-.036-.111-.036-.008-.147-.052-.135-.088h.115c.1-.091.116-.187.036-.21l-.028.023-.111.108a1.372 1.372 0 01-.37-.056c-.068-.028-.231.115-.263.127l-.072-.043a.311.311 0 00-.262-.032l-.072-.072h-.163c-.032 0-.06-.035-.06-.083v-.103a.753.753 0 01.108-.298h.254c.187 0 .163-.131-.047-.29h-.315a.442.442 0 01-.199.163l-.024-.02-.087-.108a.73.73 0 00-.088-.35h-.06c-.023 0-.047.068-.043.1v.028a.246.246 0 00.19 0l.084.028c.052 0 .112-.064.227-.028l.151.052c.189-.045.36-.143.494-.283l-.092-.11-.024-.029c-.047 0-.203.08-.342.219l-.19-.087-.315-.223-.14.183a.46.46 0 01.056.373c-.044.072-.203.21-.294.096l-.04-.084a.206.206 0 01.024-.143l.032-.052c.035-.202 0-.35-.116-.33-.115.02-.255-.261-.21-.301.043-.04.174-.199.09-.179-.083.02-.887.151-1.01.215-.123.063.04.103.207.071l.14-.075.043-.02c.052 0 .087 0 .08.024a.139.139 0 00.063.127c.056-.072.1-.155.151-.23l.04-.056a.533.533 0 00-.23-.199c-.084-.032-.247.195-.271.219-.024.023-.1 0-.112-.143l-.155.079-.087.048c.213.031.423.08.628.147a.198.198 0 01.1.286 1.193 1.193 0 01-.155.178c-.024-.075-.024-.198-.068-.218l-.12-.064a.733.733 0 01-.06.27 2.124 2.124 0 01-.636-.107l-.23.143-.08.048a.286.286 0 00-.036-.21c-.032-.032-.155-.092-.163-.032a.175.175 0 01-.207.127c-.1-.036 0-.35-.068-.397a.645.645 0 00-.565.035l-.207.084h-.024c-.067-.092-.14-.151-.159-.131a.633.633 0 00-.084.103l.084.063c.077.06.167.098.263.112h.135c.183.119.16-.024.163-.143v-.028c.02-.024.036 0 .04.063.004.064.183.096.207.135v.032c0 .028-.06.068-.08.06-.103-.044-.195.139-.31 0-.12.087-.23.111-.247.052l-.044-.036h-.02a3.168 3.168 0 00-.206.13c-.052.037-.231.108-.255.049-.024-.06-.096-.227-.112-.215h-.027l-.156.052a.877.877 0 01-.481.04c0-.152-.072-.319.071-.45 0 0 0-.087-.031-.107-.032-.02-.092 0-.104 0-.04.07-.078.141-.111.215l-.02.04c-.032.04-.072.031-.084 0a.485.485 0 00-.127-.211c-.036-.02-.16 0-.187-.02-.028-.02-.132-.095-.14-.067-.007.027-.067.083-.095.035a.187.187 0 00-.283 0l-.091.076c-.056-.068-.084-.151-.052-.183.032-.032.084-.143.036-.151-.048-.008-.175-.076-.155-.123.02-.048.024-.215-.036-.223-.06-.008-.123-.119.032-.214l.123-.084a.29.29 0 00.104-.127.214.214 0 000-.166.16.16 0 00-.148-.032l-.083.036a.559.559 0 01-.052.25H4.66c-.1.051-.398-.092-.398-.199v-.032c.048-.043.14-.115.203-.166.08-.078.151-.165.211-.259 0 0 .056 0 .104.068h.095c.076-.068.104-.151.064-.183a.989.989 0 01-.18-.516v-.453c.172-.135.32-.215.327-.167.008.048.06.127.104.091.043-.036.02-.242.06-.25.04-.008.146-.095.09-.175h-.039c-.072 0-.14.064-.215.076-.076.012-.151.043-.151-.076s0-.159.056-.175l.127-.055c.131-.028.227.087.219.262l.195-.048.159-.035c-.068-.155-.06-.29 0-.294.06-.004.279 0 .287.067.008.068.063.127.111.064.048-.064.199-.227.207-.171.008.056.068.187.103.139a.621.621 0 01.422-.155l.108-.072.115-.075c.143.01.287.01.43 0h.151a.738.738 0 01.31 0 4.66 4.66 0 00.514-.052c.08.024.163.04.247.048.071 0 .258 0 .314.032.056.032.29-.147.398-.203l.02.207v.067l.235-.123c.052-.024.143-.115.175-.06.032.056.27 0 .338-.023a.96.96 0 01.31.051c.04 0 .16-.087.184-.115.024-.028.15.024.183.04a.602.602 0 00.318-.083c.107-.06.49.107.605.119.115.011.398-.183.466-.191.067-.008.242 0 .318-.072l.14.12c.055.047.202-.032.31-.032.107 0 .175.043.262.047a.7.7 0 00.2-.051l.15-.052v.076c0-.08.24 0 .33-.028h.08l.327.036c.366.024.768.035.895.027a2.93 2.93 0 00.502-.13c.09-.029.181-.049.274-.06l.032.043c.108.132.223 0 .29.032l.124.072a1.13 1.13 0 01.354 0c.169-.037.335-.083.498-.14l.15.096.084.052a.73.73 0 01.35-.032c.053.024.172-.048.2 0 .028.048.155.123.219.083.11-.065.23-.116.354-.15a.7.7 0 01.278.059c.052.032.335-.08.502-.123.167-.044.64.071.676.032.036-.04.191.06.231.071.04.012.14-.028.155 0 .016.028.072.087.088.052a.15.15 0 01.195-.032c.076.052.342-.087.398-.095l.04.027a.29.29 0 00.398 0c.12-.087.242.128.322.064a.322.322 0 01.334-.064.179.179 0 00.183 0c.044 0 .156.056.16.044.06-.123.131.052.179 0 .047-.051.067-.032.12 0l.099.076.605-.104c.203-.032.91 0 .998-.027h.31a1.4 1.4 0 00.57-.068c.056-.048.362.036.486.063h.561c.031.076.067.136.083.132a.354.354 0 00.132-.06c.04-.032.17-.12.214-.083.044.035.335-.06.538-.052s.796.08.88.091c.083.012.302-.067.357 0 .056.068.315-.063.398-.071l.43-.044c.092 0 .358.091.426.068a.989.989 0 01.374 0c.171.009.342.009.514 0l.13.043.104.032a2.7 2.7 0 01.7-.103c.364 0 .726-.02 1.087-.06l.052.227c.111 0 .19-.032.175-.06-.016-.028 0-.123.068-.119a1.84 1.84 0 00.434-.083l.115.071.068.036c.04.055.103.107.139.107.032-.032.056-.12.071-.115l.327.063c.358-.079.652-.099.66-.043.008.055.084.186.16.147h.063c.136 0 .084-.127.14-.16.055-.031.13 0 .195-.023.063-.024.143-.056.218-.068h.044c.073.03.147.056.223.076a.658.658 0 00.299-.052c.043-.02.246.028.31 0s.398-.04.573-.095l.167.139a.2.2 0 00.195 0l.136-.115c.14.055.283.098.43.13v-.027c.083-.19.198.06.294-.032l.095-.087c.138.082.287.144.442.183l.131-.104.092-.071a.318.318 0 00.314.159l.032-.052c.068-.123.124.056.18 0a.566.566 0 01.322.012c.275-.003.549-.028.82-.075.083.09.19.138.278.051.088-.087.135.095.239.044l.083-.036c.184.059.38.073.57.04h.175c.107 0 .278-.028.306.028l.08.147a.458.458 0 01.195-.108 1.89 1.89 0 01.238 0h.076c.072 0 .14-.055.215-.075.026.057.06.109.103.155.036.028.12-.1.148-.163h.179c.111 0 .302 0 .426-.032h.235c.13 0 .246.024.254.076a.92.92 0 00.04.17.143.143 0 00.04-.087c0-.052.083-.183.139-.17l.02.027c.111.151.107.155.259 0 .1-.032.205-.05.31-.056.155 0 .561.151.609.12.048-.032.135.035.091.083-.043.048-.123.183-.043.155a.888.888 0 00.298-.25h.028c.06 0 .12.051.18.055.059.004.106-.051.162-.055a.295.295 0 01.195 0l.191.103a3.3 3.3 0 01.502-.115h.055a.751.751 0 00.398.06l.18-.08c.163.091.318.12.342.067.216-.029.436-.029.652 0h.398c.204.008.408-.014.605-.063l.148.06c.123.04.244.09.362.146a.18.18 0 00.131 0c.024-.17.088-.198.203-.071.106-.02.21-.05.31-.088l.12.04c.147.044.262.096.398-.024.036-.031.127 0 .19 0h.049a.207.207 0 00.195-.031c.06-.044.318.031.398.04.175.02.353.02.529 0l.111.13s.032-.027.056-.031l.338-.076c.18.056.355.1.398.103.044.005.27-.023.494-.023l.203-.036h.02c.04.095.083.12.095.06.012-.06.354-.1.561-.136l.163.155a.847.847 0 01.303-.055l.103.043c.088.036.16-.182.275-.031.02.023.092 0 .135 0 .044 0 .06-.024.088-.02h.048a.57.57 0 00.282-.04l.064.103c.087.147.155-.091.262 0 .108.092.052.227.116.302a.192.192 0 00.187 0l.096-.055c.095-.092.155-.171.127-.183-.028-.012 0-.06.103-.088l.104.024c.06 0 .123.056.183.052h.187c.111.143.203.219.203.163 0-.056.091-.262.199-.258.107.004.358.175.37.15v-.023l.028-.036a.4.4 0 01.294.115c.167.021.329.067.482.135.036.04.151.044.155 0 .004-.043.167-.06.175-.055a.82.82 0 01.048.25l.171-.131a.795.795 0 01.279-.12h.051a.16.16 0 01.148.152v.067c0 .076 0 .155.1.143.099-.012.05-.111.067-.17v-.028c0-.052.056-.06.083 0a.116.116 0 00.157.041.115.115 0 00.042-.041l.04-.064a.128.128 0 01.088-.06h.028a.81.81 0 01.075.195c0 .072.18.103.143.08-.035-.024 0-.195.175-.334l.144.175.06.067c.071-.04.14-.086.206-.135.056-.04.343.103.37.115h.044c.028 0 .04-.043.028-.06-.012-.015.092-.114.27-.158l.096.063.148.092c.143-.032.246-.028.23 0 .026.158.112.3.24.397l.222-.155.135-.095c.223.083.358.15.295.143l-.064.178-.29-.079s-.036.14.111.123l.084.064.179.143c.052-.14.103-.23.107-.199.004.032.056.115.1.127.044.012.143-.099.155-.127.054-.077.115-.149.183-.214.068-.072.175-.398.187-.334.012.064.076.226.123.222.08.005.159.018.235.04.036.02.12-.024.072-.051a.685.685 0 01-.171-.167v-.024s.04-.04.051-.036l.084.032c.108.044.199.127.199.179 0 .051.04.198.088.178.047-.02.091-.226.107-.282.016-.055.207-.031.227-.024a.332.332 0 010 .279c-.056.13-.08.397 0 .262s.334-.397.398-.37c.064.028.17-.103.195-.159.024-.055.227-.071.258 0 .032.072-.23.191-.298.223a1.309 1.309 0 00-.287.163.471.471 0 00-.023.186h.107l.056-.075c.051-.087.111-.159.127-.155a.147.147 0 01.08.103.996.996 0 00.111.239c.032.043.12.143.14.127a1.08 1.08 0 00.19-.203h-.227a1.897 1.897 0 01-.119-.242.14.14 0 01.116-.095h.11a.892.892 0 00.135-.064s.104.048.136 0c.031-.048.131-.052.159 0 .028.052.183.214.27.139l.056-.056.064-.055c.08.067.165.128.255.183l.055.095.056.095.25-.159.029-.04.047-.079a.199.199 0 01.251-.12c.092.037.247.196.307.215.06.02.199.036.175-.047v-.028c.04-.044.115-.06.163-.1-.024-.059-.024-.118 0-.13.024-.012.1.035.127.095a.513.513 0 00.398.195v-.25c0-.072.191-.104.227-.037.036.068.024.132-.076.147-.028 0-.08.092-.067.116l.04.099a.267.267 0 01.25-.091c.104 0 .398-.108.398-.084h.036c.044 0 .108.028.135 0l.128-.091c.131.056.258.103.286.111.088.01.176.01.263 0l.083.08.028.023a.089.089 0 00.074-.002.088.088 0 00.046-.057c0-.056.135-.235.243-.239.132.01.265.01.397 0v-.05c0-.032.044-.032.052 0v.024l.036.06c.036.055.155.039.263-.033l.1.116c.07-.076.162-.12.202-.1.04.02.227 0 .303 0 .075 0 .326-.087.398-.107.071-.02.266.06.354 0l.103.111.076.084c.134-.058.276-.093.422-.104l.091-.06.092-.055c.104.054.2.123.282.207l.076-.123c.068-.104.131.051.195.051s.179-.095.207-.071a.399.399 0 00.342.075c.14 0 .299.068.418-.075a.896.896 0 01.18.063.797.797 0 00.596-.02h.108c.225.045.446.11.66.195.048 0 .068.111.108.167.04.056.051.064.08.064.027 0 .11-.052.154-.04h.032a.31.31 0 00.171.183c.123.012.247.004.367-.024l.051.043a.694.694 0 00.474.116c.02 0 .063.091.055.103-.047.071-.139.12.032.143.08 0 .072.103 0 .163l-.032.032a.17.17 0 000 .159c.02.051-.095.127-.135.083-.04-.044-.207.024-.25 0l-.024-.048v-.13a.14.14 0 00-.076-.068h-.02a.896.896 0 00-.267.568c.028.067.275 0 .343.031v.04l.024.111c.055.104.123.143.15.092.029-.052.064-.278.136-.195.128.09.261.174.398.25.044.048-.084.219-.14.167-.055-.051-.238-.17-.266-.147a1.34 1.34 0 00-.127.247l-.108-.084c-.032-.024-.119-.028-.131 0-.012.028-.032.111.06.151l.067.032c.06.111.06.234 0 .278l-.035.052-.02.035c.011.055.04.105.08.143.106.074.225.13.35.167l.031-.139.052-.218c.147.055.23.119.187.139-.044.02-.123.083-.107.103l.17.187.065.06.051.055a.312.312 0 01.255.04h.072c.08.01.162.01.242 0 .133.013.266.013.398 0 .128-.024.227.08.355.047.067 0 .159.04.222.084l.092.06c.148.005.296.02.442.047.135.028.585.278.744.338l.147.04.1.027c.11.01.22.032.326.064l.064.04.25.166c-.043.18-.1.398-.127.485l.187-.04c.091 0 .14.036.12.135v.068a.274.274 0 00.02.195c.027.035.095.154.059.178a1.246 1.246 0 00-.219.21l.1.04c.087.032.123.08.083.144l-.075.11c.125.18.21.385.25.6l.152.215.04.052c-.064.147-.076.27-.033.278.044.008.108.075.052.135-.056.06 0 .274-.04.286a.258.258 0 00-.119.246l.028.1a.93.93 0 01.075.31.553.553 0 01-.159.274c-.051.047-.179.023-.207.075l-.051.103c-.08 0-.18-.027-.223-.031-.044-.004-.247.238-.29.218-.045-.02-.28.08-.367.084l-.08.035c-.063.028-.183-.071-.234-.04a.147.147 0 01-.207 0 .242.242 0 00-.215 0l-.18.104c.02-.12-.107-.08-.278.083l-.25-.051h-.04a.17.17 0 01-.16.035.46.46 0 00-.398.132l-.206-.124c-.064-.035-.231.076-.267.036l-.111-.131a3.11 3.11 0 01-.347.246l-.087.024a.726.726 0 01-.307 0 .514.514 0 00-.45.028l-.119.08c-.159 0-.306 0-.322-.048v-.028l-.036-.056c-.048-.06-.123-.035-.175.06-.052.095-.398 0-.514 0a3.934 3.934 0 00-.54.179h-.08a.746.746 0 00-.367.04c-.035 0-.071.047-.103.043h-.064c-.08.043-.164.078-.25.107l-.068-.02h-.056c-.052-.075-.091-.047-.087.064l-.16-.032c-.095-.02-.218-.051-.302.056h-.056c0-.076 0-.163-.103-.131-.104.032-.052.127-.1.15a.799.799 0 01-.326.1h-.127a.884.884 0 00-.37 0 1.02 1.02 0 01-.319.056.797.797 0 00-.246 0c0 .024-.108.087-.116.06a.123.123 0 00-.143-.068c-.06.032-.255.087-.29.055-.037-.031-.184-.13-.22-.103-.058.06-.108.127-.15.199-.04.06-.236.027-.303.055h-.132a1.826 1.826 0 01-.398-.047h-.1a.136.136 0 00-.087.02l-.222.15c-.132-.11-.243-.162-.251-.115-.008.048-.076.163-.132.131h-.091a.397.397 0 00-.211.147h-.147a.202.202 0 000 .23h.055c.092.033.088-.059.108-.126.02-.068.091-.032.143-.04.052-.008.243-.095.319-.052.075.044.234.036.35.048.115.012.246 0 .366 0 .123.008.247.008.37 0 .171-.024.23.127.322.222l.104.112c.105 0 .21-.014.31-.044.065-.02.132-.033.2-.04.043 0 .19.108.238.143.048.036.227.111.259.068l.024-.052c.035-.075.031-.075-.088-.08a.117.117 0 01-.056 0c0-.039 0-.11.02-.114.08 0 .2-.096.215.067v.083c0 .1-.04.203-.048.227-.008.024 0 .083.032.075h.028l.112-.027.147-.036a.21.21 0 01.067-.286c.096-.056.398-.056.398 0v.099c-.023.064 0 .115.028.111a.21.21 0 01.135.223h.032l.279.115c-.056.246-.171.433-.255.397l-.063-.028a1.648 1.648 0 00-.172-.079.123.123 0 00-.107.028l-.072.055a.474.474 0 00-.266.131v.112a.478.478 0 00.25.103l.048-.036c.044-.027 0-.163.104-.13l.071.023c.072.072.151.076.183 0 .032-.075.203 0 .195.032-.008.032 0 .095.028.095s.155-.032.163-.071c.008-.04.048-.155.08-.151 0 .04 0 .087.032.119l.083.119h.295a.345.345 0 01-.052.33l-.151-.096-.115-.075c-.128 0-.235.071-.24.147-.003.075 0 .286.06.286s.152-.032.116-.075v-.072c0-.06.08-.087.151-.06.072.028.195.12.111.155v.04c.01.066.042.127.092.17 0 0 .076-.055.115-.05.045.012.083.04.108.079l-.056.091-.278-.06c-.14-.027-.502.116-.538.084h-.032a.266.266 0 00-.115.067v.083c.024 0 0 .055-.024.075-.024.02-.167.056-.195.028-.028-.028-.131-.083-.159-.055a.127.127 0 01-.183-.036c-.044-.08-.16-.29-.167-.29a.968.968 0 00.02.294v.171a.127.127 0 01-.148 0v-.036l-.031-.084c-.032-.123-.104-.095-.16.06l-.071.075-.088.088c-.043.115-.091.186-.107.159a.359.359 0 00-.207-.12l-.068-.04-.068-.035c-.099 0-.183 0-.183.064 0 .063-.027.163-.063.139h-.032a.625.625 0 00-.239-.104c-.04 0-.08.151-.123.151h-.084a.717.717 0 01-.219-.035.115.115 0 00-.131.13v.172c-.036.096-.207.116-.378.044l-.2.199c-.119.119-.218.326-.425.123-.087.091-.199.115-.247.06l-.055-.044h-.215a2.42 2.42 0 00-.327.123 3.22 3.22 0 01-.45.044c-.09 0-.31.15-.361.095-.052-.056-.172-.218-.164-.262.008-.044 0-.183-.091-.179h-.199a2.05 2.05 0 00-.219.314c-.048.083-.207.294-.243.258h-.028l-.143-.087a.529.529 0 01.127-.255v-.091c0-.055-.051-.1-.08-.091a2.65 2.65 0 00-.27.23l-.147-.071-.044-.02c-.04-.032-.111.024-.151.115-.04.091-.211.326-.27.274h-.056l-.1-.032a1.415 1.415 0 00-.247-.15c-.047 0-.043-.2-.067-.231-.024-.032-.1-.04-.116-.08s-.131 0-.147.084c-.016.083-.215.048-.259.036-.043-.012-.207.075-.354.035l-.14-.02h-.13c-.144-.04-.283 0-.31.044-.029.044.05.207.035.267zM9.062 25.576a.222.222 0 00.095.31h.096l.143.031c.163 0 .247 0 .191-.075-.056-.076-.458-.382-.525-.266zm-1.449-1.149a.682.682 0 00.052.346h.418a.44.44 0 00.044-.445h-.032l-.092.024c-.091.068-.187.1-.21.072-.025-.028-.152-.024-.176.003h-.004zM6.61 14.81c-.04 0-.123.075-.183.19-.06.116.132.398.1.398v.091c.091.032.179.036.195 0 .016-.036-.04-.163-.064-.218-.024-.056 0-.21-.024-.27-.024-.06.016-.18-.02-.191H6.61zm66.697 10.07c0-.067.047-.095.103-.055.056.04 0-.135-.115-.127h-.116l-.223-.032c-.08.139-.087.238 0 .218.088-.02.263.032.275.08.01.053.028.105.052.155.016-.079.024-.159.023-.239zm-2.878 1.987c-.048.119.032.21.183.206l.092.123a.334.334 0 00.127-.174c0-.052-.175-.163-.23-.18 0-.134-.04-.162-.116-.05l-.056.075zm-57.933-.151c0 .075.024.1.044.047.02-.051.12-.119.18-.071.059.048.266.067.242.044-.024-.024-.036-.1 0-.128.036-.027.052-.11-.104-.06l-.067-.035-.1-.048c-.115 0-.199.163-.195.247v.004zM6.526 16.57a.072.072 0 00-.123.04c0 .063.092.266.116.321l.067-.071.128-.14c.086.027.173.045.262.056a.083.083 0 000-.075c-.071-.056-.15-.104-.222-.155H6.73c-.004-.06-.144.06-.195.02l-.008.004zm65.666 10.134c-.103-.036-.187-.04-.183 0a.906.906 0 01-.04.19c0 .052.04.108.104.048l.107.08c.096.071.128-.088.191-.135.064-.048.056-.116 0-.175-.055-.06-.075-.1-.151-.024l-.028.016zM14.303 17.98c.036-.04 0-.06-.08-.04-.08.02-.294-.159-.397-.155-.104.004-.116.239 0 .25.16.01.322-.01.477-.055zm19.87-4.974c.049.028.084 0 .084-.055 0-.056.024-.199.048-.195.024.004.12 0 .116-.056a1.03 1.03 0 000-.147c-.134.016-.267.04-.398.072v.163a.397.397 0 00.15.218zm-16.2 15.327c-.052-.056-.144-.024-.207.063v.072a.258.258 0 00.043.174c.036.068.092.096.163.036l.056-.047c.076-.044-.004-.247-.056-.298zm1.69 0c-.11.027-.186.103-.17.163a.32.32 0 00.254.123c.06-.04.028-.33-.083-.298v.012zM5.608 15.954c-.023.095.044.139.152.095l.083-.055c.068-.044.128-.104 0-.187l-.032-.02c.012-.091-.183.072-.203.167zm59.115 11.52c.096-.06.052-.143-.1-.19l-.107-.044c-.103-.044-.143.044-.195.1a.182.182 0 000 .115c.106.044.22.066.335.063l.067-.044zm10.702-2.037a.134.134 0 00.107.11.469.469 0 00.219-.09.67.67 0 00.163-.31 1.11 1.11 0 00-.322.202l-.131.111-.036-.023zM65.44 27.18c0-.059-.04-.075-.112-.04a.99.99 0 00-.266.215l.043.064c.036.048 0 .155.108.131h.095c.064-.11.108-.23.132-.354v-.016zm-28.814.875c-.087-.056-.091-.056 0 0 .092.055.255.25.279.186a.322.322 0 00-.131-.325l-.024.023-.124.116zm22.92-.692c0-.051-.056-.035-.112.04-.056.076-.075.314 0 .294a.93.93 0 00.263-.115s0-.072-.032-.068c-.032.004-.111-.091-.12-.135v-.016zm-10.746.5c.187.02.283-.055.215-.158l-.111.028c-.108.03-.213.07-.315.119v.111c0 .036.056.036.064.028l.147-.127zm27.755-13.641a.763.763 0 00-.044.322l.112-.032c.035 0 .083-.12.103-.024.02.095.056.163.147.095a.989.989 0 00-.155-.27l-.072-.032-.091-.06zm-61.001 4.326c-.024.056.04.115.143.131l.06-.036.067-.04a.345.345 0 00.028-.273h-.091a.794.794 0 00-.207.218zM26.11 28.36c-.04.08 0 .112.064.068.063-.044.27 0 .302-.044v-.028c0-.063.044-.147-.06-.174h-.055c-.06-.048-.187.095-.251.178zm-12.007-1.787c.1.095.104.119 0 .051a.895.895 0 00-.398-.143c-.024 0 0 .143.151.21l.072-.035.175-.083zm10.08 1.617c-.075-.056-.135-.072-.135-.036a.795.795 0 01-.023.17.131.131 0 00.111.14c.072.004.107-.219.048-.274zm11.35-.028c.08 0 .065-.088-.03-.19l-.104-.04h-.028c-.116.123.067.23.143.23h.02zM65.1 14.09c.088 0 .136-.056.112-.123-.024-.068-.156-.195-.243-.16-.088.037.028.283.111.283h.02zm-51.605 2.975c0-.02 0-.071.068-.115.067-.044.06-.187 0-.147l-.064.036-.08.036c-.103.035-.139.115-.079.178l.052.056c.02 0 .04.052.06.052h.035a.075.075 0 00.008-.096zm1.194 1.335c-.103 0-.14.056-.075.107.063.052.29 0 .378 0 .087 0-.187-.115-.295-.107h-.008zm24.121 9.62c-.107-.115-.223-.048-.258.15l.183.092h.04c.087-.067.147-.143.13-.163l-.095-.08zm29.494-2.694a.086.086 0 00.03-.065.086.086 0 00-.03-.066 1.363 1.363 0 00-.283-.15l-.06-.005a.088.088 0 00-.055.052v.08l.091.075c.108.067.267.115.307.08zm5.572-.6a.302.302 0 00.421.096c-.175-.286-.175-.286-.421-.096z"/>
    <path d="M5.798 16.872c.076.051.084.103 0 .119a2.82 2.82 0 00-.421.266l-.036-.207v-.027a.442.442 0 00-.247.02.397.397 0 01-.334-.06l.028-.131s.067-.032.103-.036c.036-.004.044.04.04.052-.004.012-.108.063-.024.119h.024c.087-.06.169-.127.243-.203l.067-.087.088-.115c.166.079.324.176.47.29zm60.791 10.742a.116.116 0 01-.052-.131.398.398 0 01.223-.2c.133.01.266.027.398.052.055 0 .19-.13.219-.15.028-.02.047.119-.036.33l-.183.102h-.032a1.533 1.533 0 01-.537-.004zm-55.446-9.868c.108.063.195.143.195.174a.3.3 0 01-.051.155l-.152.123c-.028 0-.167-.04-.223-.063-.055-.024-.19-.048-.179-.227l.167.06c.048 0 .092.052.136.068.043.015.048-.028.056-.048a.115.115 0 000-.084c-.04-.027-.1-.031-.136-.063a.123.123 0 010-.111c0-.028.076-.052.1-.036l.087.052zm62.569 9.117c-.179 0-.342-.076-.362-.179h.183a1.6 1.6 0 00.227.056c.072 0 .231-.207.275-.278.044-.072.115.174.143.19.028.016.088.095.04.12-.048.023-.207.123-.27.15l-.088-.027-.148-.032zm-57.861 1.998a.271.271 0 01-.298.036l-.024.024c-.088.095-.104-.04-.155-.04-.08.006-.16.006-.24 0 0 0-.03-.048-.027-.068v-.027a.084.084 0 01.107 0c.032.027.184-.056.235-.08.124.163.203.056.29-.04h.084c.012 0 .056.092.044.12l-.016.075zm-5.595-10.786a.118.118 0 01-.04-.155.119.119 0 01.04-.043c.067-.064.174-.23.202-.171.035.147.024.3-.032.44l-.11-.047-.06-.024zm65.84 6.023a.217.217 0 01.16-.219c.083 0 .186.195.119.191l-.028-.032c-.052-.055-.076-.044-.12 0-.043.044-.071.068 0 .127l.024.028a.12.12 0 01-.115.111l-.036-.023c-.047-.032-.111-.072-.028-.155l.024-.028zm-3.199 2.967c0-.06.023-.103.06-.095.055-.04.099-.127.155-.131h.083c.096.032.123.107.064.167-.06.06-.362.119-.362.06zm-2.898.163a.096.096 0 01.095.103c0 .064-.024.235-.06.23a.647.647 0 01-.198-.094c-.08-.048 0-.29.06-.259h.051l.052.02zm-5.671-14.301c-.103 0-.071-.08.076-.179l.162.048h.028c0 .067-.063.175-.17.238l-.02-.024-.076-.083z"/>
    <path d="M21.757 2.288c0-.238.032-.397.076-.322l.055.036c.048.036.136.032.175.068l.056.047a.61.61 0 01.044.282l.032.06a.36.36 0 00.187.179l.12.036c0-.088.047-.175.079-.187.032-.012.095-.076.036-.107-.06-.032-.215-.147-.148-.155.068-.008.247-.096.247-.167 0-.072.048-.262.108-.171s.19.373.155.421a.74.74 0 00-.112.238.108.108 0 00.132.052l.048-.028v-.043l.115-.072a.568.568 0 01.06-.306c.035-.055-.164-.15-.175-.163a.196.196 0 010-.083h.071l.151.123a.399.399 0 01.462.246l.06.155c.032.056.08.1.139.127h.036c.06 0 .095-.027.083-.043-.011-.016-.031-.143-.055-.243-.024-.099 0-.397.107-.397.108 0 .454 0 .446.036a.43.43 0 01-.135.155c-.052.036.103.155.143.075.35-.029.702.014 1.035.127h.075c.028-.055 0-.127-.087-.159h-.076a.798.798 0 01-.091-.027l-.399-.116c-.198.155-.183.342.036.398l-.063.23a.24.24 0 00.087.024c.12 0 .2-.17.362-.028.04.036.235-.036.35-.075.028 0 .036-.072.036-.112 0-.04-.047-.04-.08-.043a.22.22 0 00-.099 0l-.23.063a2.571 2.571 0 00-.57-.5c.064-.064.168-.115.207-.187l.036-.071c.028-.096.056-.116.064-.044a.584.584 0 00.215.341 1.1 1.1 0 00.426 0c.083 0 .334-.107.334-.166 0-.06.048-.215.103-.199l.044.06c.1.13.216.246.346.345l.092-.103.111-.131c.108-.045.222-.074.339-.088.041.033.085.062.13.088.053 0 .208 0 .156-.072-.052-.071-.04-.222.155-.242l.032-.195s.024-.035.032-.031h.024l.294.099-.071.131c-.04.068-.1.163-.167.175-.136.028-.112.095-.108.163v.035a.152.152 0 00.167.032l.044-.032c.032-.023.036-.087.068-.095h.04c.055.024.083.076.063.115a.934.934 0 01-.183.247l-.103-.048c-.028 0-.104 0-.148.04-.043.04 0 .063 0 .091l.06.131c.171.044.259.103.2.135-.06.032-.172.151-.037.151.136 0 .422-.06.398-.131-.05-.083-.09-.17-.12-.262a.096.096 0 01.092.044c.024.04.148.123.191.071a.826.826 0 00.124-.262c0-.052-.183 0-.231-.024l-.028-.036c-.024-.036-.052-.083-.04-.115a.166.166 0 01.12-.052c.08 0 .155.056.235.068a.33.33 0 00.17-.032v-.091a.399.399 0 01.24.024.98.98 0 01.183.274c.055.103.238.357.298.337.06-.02.239-.043.215 0-.024.044.052.199.227.223l.159-.072.135-.06c.158.01.317.003.474-.023.06-.02.195-.115.12-.147-.076-.032-.029-.195.05-.159.18-.009.356-.048.522-.115l-.024-.135c0-.06.032-.171.068-.175.116 0 .195-.091.131-.131l-.107-.064a.462.462 0 00-.29-.167c-.084 0-.148-.154 0-.103h.222a.853.853 0 01.274 0c.03.121.048.245.056.37.092.23.227.44.398.62.031.035.099.142.08.166-.02.024-.037.12.047.084.084-.036.326-.076.49-.124.163-.047.676.167.843.163.167-.004.334-.325.398-.27h.048l.08.02c.091 0 .135.06.095.111v.024l.068.1h.398a.908.908 0 00.481-.175c.092-.096 0-.398-.08-.346-.08.052-.338.135-.362.095v-.294h.689c.127 0 .43.124.398.247l-.183-.14-.028-.023c-.127.063-.203.159-.163.218.04.06.1.215.047.223-.051.008-.194.055-.183.087h.164c.135.024.268.06.398.107.047 0 .123-.067.111-.099-.012-.032.064-.135.203-.155.14-.02.88.123.756-.04l.032-.186c0-.036-.12-.092-.191-.127-.04 0-.068.047-.06.071 0 .024.056.048.052.068-.004.02-.024.095-.06.103a.275.275 0 01-.135-.028L36.53 2c-.14 0-.223-.06-.187-.092.036-.032.107-.135.087-.171-.02-.036-.032-.139.024-.143.056.04.096.1.155.12a.825.825 0 01.506.524.302.302 0 00.334.206h.076c.1.056.21.048.25 0 .04-.048.188-.179.247-.119.06.06.303.218.37.175.068-.044.227-.187.187-.199-.04-.012-.115-.048-.091-.055a.35.35 0 00.103-.1.843.843 0 00.036-.242c0-.08.064-.306.14-.334h.095c.044 0 .075.04.075.1l-.27.047c.073.126.132.259.175.397a2.85 2.85 0 01-.044.398c0 .083.032.234.064.155h.052c.139-.048.35-.124.425-.076l.223.135c.267-.024.49-.091.49-.15a1.978 1.978 0 00-.06-.255h.088c.024 0 .063-.036.06-.048-.005-.012-.192-.099 0-.123h.143a1.92 1.92 0 01-.084.27c-.024.056 0 .21.143.203.144-.008.355.21.375.23l.183-.06c.223.024.442.075.652.152l.155-.092c.128-.075.227.068.251.048.108-.091.263-.115.33-.052l.104.1a.977.977 0 01.51-.048h.382c.115.044.143-.068.055-.246-.087-.18-.103-.696-.199-.7-.095-.003-.306.187-.35.239h-.04c-.143 0-.095-.103-.087-.163v-.032c.051-.055.051-.111 0-.119-.052-.008-.2-.064-.12-.095.08-.032.295-.044.342.031l.048.052a.211.211 0 00.136-.036c.04-.04-.192-.087 0-.135l.119-.028a.214.214 0 00.12.171c.047 0 .174-.051.142-.163-.031-.11.335-.079.283.116l.326.04c.044 0-.08.202-.19.21h-.14c-.167 0-.262.067-.219.163.044.095.287.238.215.27-.072.032-.095.266-.095.338 0 .071.103.246.222.25v-.159a.124.124 0 01.168 0l.047.028.044.028c.076.03.158.039.239.027.138-.054.271-.12.398-.198l.064.163c.04.099.23.091.302-.028.072-.12.171-.092.263 0l.071.06a.622.622 0 00.315 0 .682.682 0 01.49.087l.274-.076.302-.08c-.032-.194 0-.333.044-.301.044.032.167.127.123.139-.043.012-.099.08-.04.127.06.048.51-.071.681-.024l.056.036.255.179c.123-.167.238-.163.254 0l.283-.187.103-.067c.15.019.298.052.442.099.028 0 .143-.107.223-.163l.107.072c.048.031.068.15.188.055l.075-.055c-.04-.056-.048-.124-.024-.147.024-.024.12-.076.14-.04v.028c.043.087-.128.266.13.258h.184c0-.14 0-.242.076-.227l.047.032c.202.077.419.104.633.08l.203-.052c.223-.056.422-.06.446 0v.278c.207-.056.067-.195.103-.29v-.04c0-.055.048-.083.108-.063.06.02.175.103.15.135a.167.167 0 00.164.195l.084-.032.227-.084c.184.041.372.061.56.06l-.071-.064s-.028-.055-.02-.06a.37.37 0 01.096-.02h.17c.201.048.408.064.614.049l.147-.032h.048a.076.076 0 00.027-.073.075.075 0 00-.051-.058l-.048-.032c-.032-.036.076-.115.239-.179l.051.215c0 .055.148.091.235.127l.076-.056.044-.032a.107.107 0 01.15.028v.044c.033.071-.07.179.093.218.071 0 .147.068.206.056a.662.662 0 00.24-.127l.063-.056c.06-.087.12-.127.135-.091.016.036.171.06.315 0 .143-.06.616.044.676.048.06.004.211.04.211.087 0 .048-.064.17-.14.17h-.095c-.06 0-.044.048.036.064.08.016.283.183.31.155a.869.869 0 00.136-.218c.024-.076 0-.274.071-.278.131-.026.265-.037.398-.032l.08.056c.123.079.203.095.306 0H58l.14-.068a.53.53 0 01.135.044l.028.031.087.084a.502.502 0 01.319 0c.036.036.183.075.195.032v-.056a.355.355 0 01.17 0 .337.337 0 00.12-.175v-.08a.16.16 0 01.191.064v.064c0 .028.124.052.267.06h.243c.127-.04.179-.028.111.027-.068.056-.155.23-.051.27.103.04.378.1.397.036a.77.77 0 01.088-.294h.072a.214.214 0 01.047.171c0 .06.24.08.29.064.053-.016.02-.147 0-.163-.019-.016.025-.068.085-.076l.031.02.072.04a.2.2 0 00.25 0c.072-.064.661 0 .67-.06v-.083a.132.132 0 01.119-.076c.063.04.115.097.15.163l.04.04a.163.163 0 00.136.036.115.115 0 00.068-.096V2.77c-.04-.103-.032-.175 0-.159.032.016.19.107.31.167l.092.075.06.048c.081.042.168.074.258.095h.036c.116-.053.24-.09.366-.11h.14c.116.065.242.113.373.142.06 0 .128-.135.191-.111.064.024.215.127.171.163-.043.036-.123.15 0 .139a4.38 4.38 0 00.542-.227l.19.056a.36.36 0 00.08-.127 1.03 1.03 0 01.132-.227c.037.032.06.076.067.124 0 .063.072.238.116.23a.422.422 0 00.378-.254c.047-.048.358 0 .493 0 .136 0 .522 0 .522.06 0 .059.043.214.091.19l.036-.04a.087.087 0 01.123-.031c.036.027.183.071.211 0 .028-.072.148-.302.187-.31h.1c.06 0 .071.06.028.099l-.036.032-.036.028c-.044.04-.032.083.028.099h.243a1.967 1.967 0 00-.044.206s.056.052.127.044l.044-.095a.425.425 0 00-.084-.334l.104-.04.056-.02a.915.915 0 01.254.223c.032.056.175.17.247.127h.06c.091 0 .183.068.27.06.088-.008.068-.116.128-.147l.047-.028c.12 0 .18.06.132.103-.048.044-.076.096.036.024.177-.06.367-.076.553-.048h.044l.103.04c.06.076.131.06.16-.036v-.091a1.345 1.345 0 00-.176-.159c-.087-.067-.227-.282-.067-.365l.035.246a.434.434 0 00.235.036h.096a.37.37 0 00.195-.235c0-.071.047-.175.083-.055.036.119-.095.548.044.607.14.06.513-.13.49-.17v-.036c0-.024 0-.056.04-.068h.059c.079.057.154.118.227.183l.123-.024h.084c-.104-.186-.088-.298.032-.254h.083c.124.02.235 0 .08-.107 0 0 .028-.056.04-.056h.04a.151.151 0 01.09.127c0 .052-.039.207-.09.21-.052.005-.168.08-.14.16l.032.067v.044a.124.124 0 00.16.028l.031-.04.087-.103c.12-.1.211-.207.204-.239a.266.266 0 01.17-.214c.12-.044.418.032.33.083a1.689 1.689 0 00-.314.27c0 .028.04.108.124.112l.032-.024.107-.088c.108-.119.207-.166.22-.103.012.077.031.152.055.227a.155.155 0 00.051-.088c0-.048.088-.155.136-.107l.044.024c.083.047.023.254.215.159l.139-.068c-.108-.08-.171-.195-.144-.258h.052c.124 0 .16-.076.112-.143-.048-.068-.148-.04-.22 0a.143.143 0 01-.09.032c-.029 0-.084 0-.088-.028-.004-.028 0-.1 0-.115.07-.039.143-.07.219-.096.234-.111.425.072.644.072h.044c.056.1.131.135.171.087.04-.047.135-.047.132.12l.246-.203.072-.06c.199.028.37 0 .398-.036.028-.035.1-.11.175 0 .22.147.468.244.728.286l-.035-.051c-.052-.08-.056-.076-.215-.028a.771.771 0 01-.136.044l-.199.051c.048.108.147.147.22.088h.13c.068-.056.056-.282-.035-.493l.175.103a.223.223 0 00.338-.051l.056-.06a.873.873 0 00-.263-.123c-.075 0 .147-.175.23-.12.085.056.208.307.268.307.06 0 .23-.143.234-.092a.68.68 0 00.211.282c.092.068.442 0 .422.068-.02.067 0 .266.068.266.2-.074.394-.163.58-.266.033 0 .132-.036.156 0 0 .103.076.127.163.1.088-.029.048-.1.032-.14l-.032-.075a.44.44 0 00-.318-.115c-.116 0-.354-.124-.327-.147.265-.025.532-.025.796 0l.279.226a.147.147 0 00.104-.147l-.036-.036-.024-.024c-.044 0 0-.083.103-.194.104-.111.398-.362.398-.278 0 .083.064.306.112.306.047 0 .203-.032.21-.076.009-.044.084-.131.14-.08a.928.928 0 01.179.299.247.247 0 00.318.099l-.139-.147c-.048-.048-.044-.131-.052-.199-.008-.067.044-.055.064-.055h.048a.156.156 0 01.08.15c0 .068.234.152.258.12.024-.032.163-.123.175-.04.012.084.108.298.187.31l.044-.028.088-.052c.067.036.06.032 0 0h-.108c-.028 0-.052-.055-.052-.107a.58.58 0 01.299-.337l.147.023c.168.025.329.083.474.171l.195.115c-.08.135-.088.132 0 0 .087-.13.322-.5.398-.472.075.027.306-.088.342-.104a.438.438 0 01.21.04c.057.024.291.04.351-.048v-.083c0-.103.072-.111.171-.111.1 0 .167.02.16.115-.009.095 0 .163.119.143.036 0 .051-.095.1-.111l.158-.06c.207-.06.379-.071.398-.032a1.7 1.7 0 00.06.358c.036.127.458.246.462.187v-.048c0-.04-.14-.083 0-.107.139-.024.151-.044.143-.131v-.104c.146.028.294.038.442.032v-.222c.024-.056.056-.1.063-.096a.63.63 0 00.188-.091c.091-.064.226.226.27.254.044.028.167-.04.227 0s.187.23.243.179l.047-.028.172-.115c.075.127.167.143.203.04l.04-.084v-.036a.247.247 0 01.198 0c.056.032-.04.215-.032.263.009.047 0 .198-.04.202-.04.004-.178.04-.17.056.008.016.095.036.183.036.087 0 .298-.084.274-.187-.024-.103-.035-.397.024-.397.06 0 .227-.056.235 0 .008.055.06.17.084.13.023-.039.123-.106.163-.055.04.052.187.175.203.12a1.084 1.084 0 00-.14-.378l.028-.12.04-.17c-.151-.024-.143-.052 0-.068.143-.015.53.163.498.211-.032.048-.223.032-.251.083-.028.052-.052.096.12.056.17-.04.54-.326.513-.207-.035.13-.055.263-.06.398 0 0 .083-.06.115-.151.032-.092.16-.326.191-.29l.048.024c.046.02.085.051.115.09l.024.033a.59.59 0 01-.06.27c-.047.103-.35.266-.302.282.048.016.12.087.076.135a.147.147 0 00.115.222c.147.028.378.096.398.195a.968.968 0 010 .5c-.052.072.08.303.056.338l-.036.024h-.091s-.032.12 0 .147l.198.167c-.107.111-.214.147-.238.075a.683.683 0 00-.128-.198.462.462 0 00-.398 0 1.736 1.736 0 01-.545.23c-.067-.024-.318.155-.462.207l-.139-.064-.127-.028-.366.068c-.08 0-.299 0-.307-.052-.008-.051.148-.317.036-.294-.111.024-.374.14-.33.203l.024.056v.035a2.324 2.324 0 01-.16.374l-.242-.171c-.036-.024-.155.024-.239.04h-.06a1.295 1.295 0 01-.398-.104l-.167.052-.163.048c-.151.167-.263.21-.255.095l-.024-.048a.174.174 0 00-.123-.091c-.123 0-.111.087-.048.159.048.044 0 .095-.12.111a1.539 1.539 0 01-.397-.087 1.114 1.114 0 00-.267.155l-.131-.02h-.14l-.421.055h-.08c-.032 0-.075.048-.083.04l-.374-.238c-.26.222-.534.357-.613.302-.08-.056-.303.087-.347.055a1.243 1.243 0 00-.66.163l-.339-.17a.466.466 0 00-.437.047l-.06.036a.526.526 0 00-.294.036c0 .027-.096.095-.128.04-.032-.056-.06-.2 0-.227.115-.07.223-.152.323-.242a.795.795 0 00.175-.294.163.163 0 00-.168-.076l-.051.032c-.155.087 0 .266-.116.341-.115.076-.294.076-.282.243a.894.894 0 01-.155.194l-.096.072-.032.024c-.1 0-.159-.032-.131-.056.028-.024 0-.103-.171-.083a2.79 2.79 0 00-.553.115c.047 0 .095.08-.048.083-.143.004-.49-.027-.45-.103a.839.839 0 00.076-.373h-.044c-.068-.024-.334.25-.318.314l.04.182a3.13 3.13 0 01-.482.02 1.97 1.97 0 00-.506.207.737.737 0 01-.461-.028c0-.044-.076-.195-.112-.14a.825.825 0 01-.597-.047l-.23-.071h-.036a.12.12 0 00-.068.143l.036.035.044.044c.083.048.055.095-.06.111-.115.016-.358-.147-.37-.095-.012.052-.076.183-.124.151-.047-.032-.25-.032-.274.107-.024.14.247.43.259.342.012-.087.091-.334.139-.302.061.08.098.174.107.274 0 .1.18.27.215.199.036-.072-.032-.255 0-.306l-.04-.056-.035-.055c-.032-.056.035-.096.15-.084.116.012.443 0 .419-.091v-.08a.08.08 0 01.067-.08h.024a.912.912 0 00.677.176.275.275 0 01.1 0c.111.039.227.066.346.08.123 0 .203-.188.37-.045.035.032.199-.043.306-.043H78c.147.034.299.044.45.028l.027-.048c.08-.151.207.091.283-.036 0-.028.127-.032.19-.032h.255c.088-.143.207-.182.267-.091.06.091.21.326.151.326-.06 0-.227.051-.23.115-.005.064.06.19.147.107l.08-.028.09-.027c.136 0 .224-.036.192-.092-.032-.055-.02-.214.107-.206l.052-.032.123-.08c.078.055.172.08.267.072.068 0 .167-.21.23-.29l.049.052.135.143c.183-.024.318 0 .302.027-.016.028.032.155.144.187l.043-.028.1-.063c.091-.115.175-.155.179-.092.004.064.103.23.199.23.096 0 .322-.027.255-.063-.068-.036-.191-.175-.064-.198l.032.023.23.163c.164-.15.367-.242.454-.202.088.04.319.186.243.198-.075.012-.227.068-.21.112.015.043.25.222.25.182 0-.04.08-.178.179-.186.1-.008.398-.056.362-.096-.036-.04 0-.17.076-.198.075-.028.25 0 .21.095-.04.095.275.234.275.167 0-.068.056-.235.128-.207a.817.817 0 00.338 0c.06 0 .279 0 .31.08.032.08-.115.365-.028.449l.076.055.16.115c.075-.119.162-.198.19-.178.028.02.104.147.032.166l-.052.036c-.119.084-.163.163.052.199a.108.108 0 01.076.087c0 .028-.048.072-.084.08l-.091.028h-.227a.58.58 0 00-.207-.211v.06c0 .158-.187.139-.275.206l-.127.103c.123.092.044.16-.175.147-.22-.012-.506.362-.47.398l.14-.08c.19-.1.402-.15.616-.147l.128.092.147.099c0-.087 0-.163.048-.175.136.018.266.07.378.151l-.16.14c-.115.098 0 .118.06.154.06.036.072.12 0 .163-.071.044-.063.107-.024.19l.028.064c-.107.115-.151.23-.087.258.063.028-.056.167-.072.191-.016.024-.04.091 0 .103.04.012.104.112 0 .171l-.052.06-.055.063c-.052.092-.14.151-.195.127-.056-.023-.18-.099-.152-.127h.024c.171 0 .366 0 .171-.198 0 0 .044-.06.048-.092v-.047a.135.135 0 00-.163-.072l-.044.032-.055.048c-.04.075-.188.083-.323 0a2.52 2.52 0 00-.744.047c-.092 0-.33.1-.287.183.044.083.299.207.29.238l-.023.02a.967.967 0 01-.131.092c-.048.031-.132.087-.14.08l-.19-.152c-.092.135-.184.242-.212.242a.314.314 0 01-.159-.206l.128-.068a.35.35 0 01.215-.047c.091.043.175.119.238 0 0-.036-.06-.127-.12-.167l-.07-.052a.466.466 0 00-.35.048l-.053.071-.047.068a.215.215 0 01-.16.179c-.09.006-.18.018-.27.035.032.026.07.043.111.048.06 0 .18.064.116.1-.064.035-.171.206-.06.293.111.088.513.163.482.096-.032-.068 0-.235.091-.25.091-.016.294.182.235.194a.35.35 0 00-.18.338l.263-.147.048-.024c.104.06.16.111.123.12h-.023c-.132.087-.156.285-.398.245 0 0-.048.076-.036.108a.147.147 0 00.12.051l.138-.035c.152-.052.275-.14.275-.195 0-.056.048-.21.104-.223.055-.011.163.048.055.16-.107.11.148.369.35.281l.195-.063h.028c.092.091-.095.29-.398.445h-.362c-.02 0-.063.067-.06.103l.032.246a1.455 1.455 0 00-.537-.051l-.036-.107-.035-.116c-.14-.044-.255-.028-.255.036s.06.234.14.234a.893.893 0 01.397.108c.064.063.14.286.2.321.059.036.19.163.218.14.028-.024.084-.112.024-.12a.712.712 0 01-.354-.294h.306a.256.256 0 00.096 0c.148-.055.307-.077.465-.063h.048a.102.102 0 01-.021.124.103.103 0 01-.039.023h-.119c-.096-.052-.171-.056-.171 0 0 .055.055.19.12.198.087.005.174.02.258.044a.716.716 0 01-.175.143c-.088.056-.398.131-.398.19 0 .06-.092.263-.112.215a.67.67 0 01-.047-.159l.023-.035v-.084a.211.211 0 00-.135-.04l-.103.048a.148.148 0 01-.15.021.146.146 0 01-.09-.12l-.142-.036-.12-.032c0 .088-.044.16-.087.155h-.096a.088.088 0 00-.095.115l.035.052.128.17c.12-.106.215-.162.215-.122a.398.398 0 01-.243.23c-.131.048-.474-.087-.51-.056-.035.032-.15.116-.075 0 .076-.115.147-.365-.04-.448l-.04.028-.135.107c-.147-.084-.263-.104-.259-.044.047.146.104.288.171.425l-.242.056h-.036c-.028.099-.064.139-.076.08-.012-.06-.103-.191-.179-.191-.075 0-.27 0-.247.04a.083.083 0 010 .122h-.031l-.076-.024c-.096-.051-.183-.067-.195-.031-.012.035-.032.13-.04.15a.45.45 0 01-.33.064c-.167-.028-.502.064-.334.151l.139.092a.18.18 0 00.227 0l.04-.024c.08 0 .13.055.115.107v.08a.068.068 0 00.08.052.976.976 0 00.218-.148c.08-.063.374-.19.398-.139.024.052.088.147.156.107h.02a.474.474 0 00.6.04h.112a.507.507 0 00.442 0c.047-.028.139 0 .195-.036l.17-.063c.228.046.46.068.693.063h.18a.621.621 0 01.246.048l.12.06.354-.104.083.044.044.02c.293-.037.59-.037.883 0l.363.032c.398.031.796.067 1.194.083.147 0 .318.056.453-.064h.02l.398.195.155-.044.148-.043c.203.127.397.21.397.183 0-.028.08-.052.112.023.032.076.298.096.314.064.016-.032.084-.024.1.091l.203-.024a.86.86 0 01.33.084h.052c.048.036.064.083.032.107-.032.024-.076.12 0 .147l.063.044c.14.1.144.167 0 .238l-.175.088a.48.48 0 00.028.56c.128.135.167.62.227.627.06.008.187.06.127.112v.095a.187.187 0 01-.031.226 3.577 3.577 0 01-.418.274c-.084.048-.526.155-.486.219l.044.04a.94.94 0 00.199.143l.215-.147a.31.31 0 01-.092.365c-.115.107-.473.203-.493.135-.02-.067-.295-.147-.358-.254l-.132.032-.111.024a.295.295 0 00-.147-.088.14.14 0 00-.124.111h.032l.12.072c.143.063.246.155.23.206a.51.51 0 01-.31.171h-.295c-.215 0-.334.076-.266.171l-.18.048a.18.18 0 01-.103 0l-.04-.036c-.031-.048-.075-.067-.095-.048l-.267.23-.215-.075a1.619 1.619 0 00-.744 0l-.219.036c-.167.17-.33.25-.362.175l-.056-.04a.864.864 0 00-.179.056l-.123.063c-.136.076-.255.112-.27.08-.017-.032-.084-.072-.124-.024-.04.048-.18.155-.22.123a1.327 1.327 0 00-.592-.075c-.239.027-.796.11-.756.218l-.104-.028c-.119-.031-.179.223-.266 0 0-.023-.024-.071-.036-.071-.27 0-.53-.08-.796.08l-.247.142a7.508 7.508 0 00-.887 0c-.128 0-.462-.107-.506-.091l-.032.024a1.264 1.264 0 01-1.018.155c-.028 0-.068-.056-.076-.052l-.115.06a.506.506 0 01-.339.083c-.067-.024-.207.131-.227.155a1.337 1.337 0 01-.398-.048c-.119-.023-.445.108-.505.068-.06-.04-.318.107-.422.143h-.215l-.183.032a5.36 5.36 0 00-.529.11 1.799 1.799 0 01-.49-.118c-.083 0-.246.115-.242.043.004-.071-.203.112-.247.207l-.111-.08a.362.362 0 00-.343-.051l-.203.12c-.095-.112-.175-.14-.175-.06 0 .079-.235-.036-.255 0-.02.035-.107.095-.115.047a.203.203 0 00-.21-.127h-.299l-.076.048a.279.279 0 01-.287.123h-.425c-.108 0-.235 0-.255.139v.044a1.023 1.023 0 01-.362-.08h-.064l-.175-.044c-.052.147-.135.195-.183.108l-.068-.024a.418.418 0 00-.278 0c-.076.036-.096.143-.167.198-.072.056-.128-.023-.184 0l-.091.024-.195.088-.064-.048a1.11 1.11 0 00-.338-.159l-.076.06-.258.198a2.665 2.665 0 01-.888-.174l-.04.21s-.023.02-.04.024c-.214.024-.445-.052-.652.072a.935.935 0 01-.223-.072l-.179-.075c-.167.071-.398.15-.47.178-.147-.135-.27 0-.397 0a2.236 2.236 0 00-.43 0 1.098 1.098 0 00-.323.104c-.06.031-.075.135-.131.146-.127.032-.104-.071-.14-.13a.18.18 0 00-.13-.032l-.2.182h-1.413a1.128 1.128 0 01-.546.207c-.043-.032-.215-.12-.262-.087-.048.031-.211.087-.22.027-.007-.06-.115-.278-.218-.31-.104-.031-.275.227-.31.243h-.024l-.299-.084a2.135 2.135 0 01-.764.31l-.171.036c-.123.024-.27-.147-.398.036-.024.04-.155.047-.239.051h-.633a1.525 1.525 0 00-.258-.107l-.068.06-.665.206-.298-.051h-.024c-.028 0-.06.04-.072.095-.011.056-.234-.024-.314 0a.871.871 0 01-.338 0c-.092-.032-.398.052-.561-.036l.023-.178v-.032c-.031-.04-.103 0-.159.127a1.025 1.025 0 01-.831.15l-.267.18-.04.027a1.893 1.893 0 01-.326-.115v.143c-.04 0-.211.024-.398.036a5.538 5.538 0 01-.677-.131l-.028.02-.103.071-.263-.036c-.095 0-.087.187-.27.112-.072-.032-.247.043-.283 0-.036-.044-.223.13-.282-.036a.24.24 0 00-.136 0l-.111.083h-.398c-.072 0-.374.072-.482.072a1.664 1.664 0 01-.545-.036h-.187a.593.593 0 00-.303.167l-.087-.036-.088-.035c-.1.051-.175 0-.175-.12v-.08l-.051-.198c-.192.03-.373.108-.526.227l-.071.055a3.145 3.145 0 01-.422.286l-.156.088a3.78 3.78 0 00-.72-.147l-.203.027h-.04a2.666 2.666 0 01-.302.187l-.032-.028-.223-.194a.493.493 0 01-.485.198 2.719 2.719 0 00-.7-.194v.258l-.327.048c-.088 0-.287 0-.267-.072.02-.071-.238 0-.302 0s-.151.155-.211.179l-.044.032c-.115.08-.163-.167-.31-.032-.056.055-.235.036-.354.024a2.396 2.396 0 01-.335-.08.147.147 0 00-.1 0l-.095.052a.915.915 0 01-.358.091h-.27a6.276 6.276 0 00-.478-.135c-.056-.008-.171.084-.215.052-.044-.032-.31.075-.521.08a4.245 4.245 0 00-.96.317c-.139.064-.569-.083-.624-.048h-.155a.914.914 0 00-.327.036v.032a.106.106 0 01-.065.094.108.108 0 01-.114-.018l-.25-.187c-.148.159-.26.202-.247.103l-.18.048a.776.776 0 01-.242.047c-.171 0-.354-.11-.47.084a1.785 1.785 0 01-.175-.044.128.128 0 00-.076 0 .606.606 0 01-.398.072c-.13 0-.266.027-.398.035-.13.008-.262 0-.397 0h-.036a1.524 1.524 0 00-.458.056l-.187.052s-.056-.08-.096-.112l-.023-.02a.555.555 0 00-.195.076 4.077 4.077 0 00-1.007.254l-.43-.174c-.072-.028-.191.02-.287.027a.592.592 0 01-.183 0l-.33-.06c-.087.136-.21.227-.275.203-.063-.024-.282-.051-.306.02-.024.072-.326 0-.398.048-.072.048-.434-.104-.6-.111l-.144.02h-.072c-.063.079-.127.119-.143.09-.016-.027-.171 0-.303.128l-.15-.072a1.396 1.396 0 00-.61-.075h-.262a1.16 1.16 0 01-.601.127c-.128-.032-.458-.159-.51-.107l-.06.024c-.115.047-.282-.147-.37.047-.087.195-.23-.043-.314.068a.864.864 0 01-.175-.028h-.06c-.17.023-.334.071-.49.143l-.218-.06a.112.112 0 01-.166.051.112.112 0 01-.041-.05h-.052c-.063 0-.143.055-.21.095-.068.04-.076.083-.156.02-.08-.064-.366.043-.482-.123-.108.041-.21.099-.302.17h-.127l-.22.02c-.185.03-.374.03-.56 0v-.032c-.028-.11-.1-.099-.191-.071-.092.028-.191.155-.398.107l-.124-.032c-.22.067-.431.156-.633.267l-.175-.183c-.1.053-.194.116-.282.187l-.1-.096a.307.307 0 00-.282-.087h-.116a.59.59 0 00-.314.08c-.048.039-.199.13-.235.102-.036-.027-.159-.087-.17-.06a.127.127 0 01-.164 0c-.064-.043-.275-.138-.279-.09-.004.047-.155.139-.318.087l-.191.091-.171.084c-.08.08-.16.083-.18 0v-.085c0-.055-.047-.071-.07-.031-.1.097-.218.174-.347.226l-.112-.143a.211.211 0 00-.135-.044.4.4 0 00-.183.052h-.028c-.032.052-.06.064-.067.024-.008-.04-.056-.155-.088-.167l-.123.087a4.192 4.192 0 01-.7-.127l-.084.242a.115.115 0 01-.072 0l-.23-.162c-.18.103-.375.177-.578.218-.103 0-.398-.044-.45.036-.051.08-.453-.028-.573 0l-.087.06a.279.279 0 01-.327.031c-.143-.111-.21-.035-.31.028h-.028c-.072 0-.115-.055-.095-.075.02-.02 0-.112-.096-.131l-.064.023c-.107.036-.155.14-.258.203l-.155.1c-.108-.056-.223-.076-.255-.044a.338.338 0 01-.151-.076l-.028-.04a2.447 2.447 0 00-.398 0l-.08.068-.14.115a.586.586 0 00-.449-.028l-.123.036a.12.12 0 01-.084-.052c0-.047-.08-.13-.091-.051l-.024.17a3.08 3.08 0 00-.474-.059c-.22.04-.43.123-.62.242l-.12-.115h-.02a.573.573 0 01-.219-.024c-.056-.024-.21.056-.258.036-.048-.02-.207-.056-.215 0a.826.826 0 01-.044.159.096.096 0 01-.048-.064.457.457 0 00-.084-.17c-.115.055-.226.123-.338.182a.467.467 0 01-.131.056c-.151 0-.295-.103-.458 0h-.02c-.135-.103-.25-.151-.258-.107-.008.043-.064.174-.1.15a2.162 2.162 0 00-.644.068l-.287-.107a.243.243 0 00-.16.052v.174c-.17.028-.318 0-.33-.04a.43.43 0 00-.417-.095 5.12 5.12 0 01-1.079 0l-.103.044a.354.354 0 01-.271 0 2.064 2.064 0 00-.517 0 .16.16 0 01-.1 0h-.02c0-.048-.036-.044-.08 0-.043.044-.322 0-.397-.1l-.092-.075c-.083.028-.143.1-.127.159h.135c.02.087 0 .147-.032.135a.497.497 0 01-.19-.135l-.049-.028a.303.303 0 00-.17-.055.908.908 0 01-.578-.14l-.223-.127c0 .16-.075.223-.159.14a3.927 3.927 0 01-.31-.716l-.31-.035h-.124c-.103 0-.111-.084-.02-.195l-.247.048-.187.035a.223.223 0 01-.155-.254l-.036-.047-.111-.14c-.167-.154-.231-.293-.143-.31.158.012.316.038.47.08.067 0 .222-.23.17-.21a.478.478 0 01-.199.023.869.869 0 01-.036-.286c0-.13.195-.456.164-.465-.032-.007-.136-.079-.076-.115.06-.035.235-.194.235-.25 0-.056.028-.262.064-.242.035.02.119 0 .13-.108.013-.107-.25-.35-.214-.397l.02-.051c.056-.136.032-.302.274-.346.024 0 .064-.084.048-.103l-.087-.108c-.112-.115-.104-.202.028-.186l-.04-.171-.04-.183c0-.21.036-.397.095-.373l.024.027.076.072c.06.085.13.164.207.234.044.04.151-.083.135-.139l-.1-.031a.127.127 0 01.02-.247c.108-.024.212-.202.355-.036h.071c.34-.125.703-.174 1.063-.142.107 0 .243-.084.314-.052l.084.036c.068.139.127.139.14 0l.055-.032a1.13 1.13 0 01.422-.12h.175a.941.941 0 00.51-.09c.079-.06.318.09.334.09l.219-.07c.28-.002.56-.038.831-.108l.18.032.162.027a8.89 8.89 0 00.438-.083c.18-.014.36.01.53.072l.163-.104c.087-.051.258.044.398.064l.175.028c.21-.068.398-.171.398-.23 0-.06.195-.1.199-.037.004.064.044.235.068.23.023-.003.06-.067.083-.134.024-.068.044-.25 0-.266-.044-.016-.12-.1-.036-.131.084-.032.263.162.315.198h-.176.538c.056 0 .155.036.159.06 0 .103.084.143.163.1h.04c-.032-.1 0-.172.088-.16.087.012.226-.202.33-.258l-.151-.107-.144-.1c-.087.072-.19.104-.223.076a.506.506 0 00-.187-.091c-.055.067-.1.142-.159.21-.06.068-.063 0-.1 0h-.186c.063-.087.063-.155 0-.147-.064.008-.1-.139-.104-.143-.004-.004-.06 0-.095.072-.036.071-.171.202-.243.166a3.86 3.86 0 00-.474-.159l-.111.052a1.19 1.19 0 00-.215.103c-.088.068-.028.128.04.183 0 0-.04.052-.068.06a.12.12 0 01-.091-.024l-.024-.107c0-.131-.092-.223-.167-.207l-.032.024-.128.103-.533-.083-.091-.08c-.076-.071-.08-.071-.136.064a.27.27 0 01-.282.12 1.405 1.405 0 01-.18-.072h-.043c-.052-.04-.155 0-.231.055l-.072.064-.119.095a1.43 1.43 0 00-.314-.222l-.036.083-.076.183a3.182 3.182 0 00-.553-.04h-.167a2.885 2.885 0 01-.506-.127l-.238.139-.164.1c-.111-.128-.234-.191-.274-.144-.04.048-.378 0-.49 0a2.463 2.463 0 00-.628.274l-.048-.202-.02-.096c-.08.029-.158.065-.23.108a.195.195 0 01-.188 0 .396.396 0 01-.14-.298c.02-.104-.04-.398-.17-.398h-.1a.22.22 0 00-.111 0c-.207.088-.203.088-.299 0l-.107-.067a.239.239 0 01-.096-.314l.02-.107v-.056a.796.796 0 00-.346-.175l-.104.048-.043.024c-.024.072-.084.115-.14.095-.055-.02-.195-.139-.163-.202l.048-.024.16-.028a.638.638 0 01.353-.036c.036.028.167.044.2-.031a1.28 1.28 0 00.079-.287.115.115 0 00-.088.06c-.024.044-.103.151-.123.143a.369.369 0 01-.064-.202c0-.092.052-.302.12-.259.067.044.219-.11.302-.179h.112c.031 0 .08-.055.075-.083a.12.12 0 00-.08-.083h-.067c-.08 0-.104-.08-.052-.187l-.032-.028-.19-.159.334-.15c.027 0 .051-.072 0-.136-.052-.063-.29-.262-.287-.397a3.85 3.85 0 01.1-.556.047.047 0 01.051 0h.024a.631.631 0 00.263-.147v-.21a7.368 7.368 0 00-.239-.354c-.048-.064-.06-.278.12-.282h.13c.148 0 .291-.064.439-.08.147-.016.29 0 .43 0 .139 0 .362-.095.417-.052l.144.124c.148-.082.302-.15.461-.207l.16.044.127.036c.163 0 .286 0 .266.075-.02.075 0 .226.116.226.115 0 .374-.043.398-.099a.23.23 0 01.227-.175c.166-.03.328-.08.481-.15h.052c.203.041.413.041.617 0 .213-.017.427-.017.64 0h.096c.12-.037.245-.06.37-.068h.088c.095 0 .254.075.278.048.108-.108.167 0 .247 0 .08 0 .187-.072.279-.072.091 0 .187.075.278.075h.167c.187-.04.454-.087.593-.107l.143.08c.072.04.235-.036.359-.04.266-.007.532-.028.796-.064h.047c.12-.017.241-.025.363-.023h.317c.16-.009.32-.009.479 0h.051c.148-.022.294-.053.438-.092.135-.043.23.127.358.032.128-.095.144.115.239 0 .04-.044.199 0 .302-.024.104-.024.255 0 .378 0h.323a.85.85 0 00.318 0l.155-.067c.188.058.382.092.578.099l.15-.028a1.99 1.99 0 01.67 0l.17.024c.225-.06.46-.06.685 0l.203-.095c.135-.064.35 0 .53 0l.345-.028c.272-.038.548-.038.82 0 .072.036.303.04.446.08l.084-.076c.107-.095.223-.072.342-.076.12-.004.286 0 .43 0h.497a.478.478 0 01.338 0c.064.044.267-.067.327-.04.06.028.278-.043.342-.04.064.005.485-.03.796-.063l.239.068.17.052a.748.748 0 00.303-.167c.036-.052.374-.024.522 0h.203c.087-.032.06-.076-.056-.104l-.096-.043-.103-.044c-.107-.068-.123-.103-.036-.075.088.027.358-.096.35-.175l-.032-.072a.243.243 0 00-.139-.08l-.243.168a1.194 1.194 0 00-.752-.23h-.282c-.06-.025-.116 0-.132 0s-.06.11-.075.11a.97.97 0 01-.151-.051c-.06 0-.235.095-.251.178l.024.076c.047.167.127 0 .15 0 .16.123.236.12.311-.068l.044-.103c.195.02.287.06.203.091l-.06.044s0 .088.044.107l.044.032c.064-.024.088-.02.052 0a.335.335 0 01-.191.048c-.06 0-.215.04-.271 0-.056-.04-.302.052-.374.063a1.065 1.065 0 01-.279 0s.032-.083.124-.115l.044-.047c.043-.052.075-.163.04-.195-.037-.032-.22-.14-.28-.115l-.178.075a1.46 1.46 0 00-.247-.17 2.134 2.134 0 00-.398 0l-.131-.124a.275.275 0 00-.203 0c-.088.04-.152.14-.243.155h-.08a6.33 6.33 0 00-.358-.15c-.095-.036-.458.039-.62-.025l-.172.08-.04.02c-.071 0-.139.028-.147.071-.008.044-.103.096-.187 0-.175.08-.279-.202-.482-.047l-.08.06a1.195 1.195 0 01-.449-.108l-.091.075a.347.347 0 01-.398.028.965.965 0 00-.57 0c0 .04-.051.147-.091.143l-.036-.1c-.056-.174-.131-.261-.175-.198-.044.064-.167.179-.195.131a.234.234 0 00-.255-.063 1.518 1.518 0 01-.326.135c0-.024-.032-.088-.076-.088h-.063c-.095 0-.19-.008-.283-.023-.127 0-.533.027-.597-.036-.063-.064-.255-.175-.282-.107a.236.236 0 01-.355.051l-.203.064h-.063c-.1.04-.192.095-.275.163l-.111-.088-.04-.032h-.103c-.044 0 .04.195.342.31l.263.06h.047a.09.09 0 01.01.12.093.093 0 01-.034.027h-.055a.706.706 0 01-.16 0h-.167a.398.398 0 00-.425 0l-.104.075-.048.036c-.131 0-.21-.052-.179-.103.032-.052.123-.155.151-.131h.028c.048 0 .108.04.143.024a.108.108 0 00.052-.104 1.467 1.467 0 00-.17-.25.179.179 0 00-.264-.036l-.055.036a.453.453 0 00-.35.103l-.084.08c-.048 0-.088-.036-.088-.052a.446.446 0 000-.143c0-.043-.123-.127-.13-.04l-.025.056a.128.128 0 01-.095.072.148.148 0 01-.112-.056l-.047-.095c-.044-.12-.112-.116-.156 0l-.195-.024a4.989 4.989 0 00-.644 0h-.203a2.391 2.391 0 01-.45.123h-.04c-.064 0-.163-.052-.19-.032-.212.155-.399 0-.61 0h-.107l-.128.127c-.035.032.068.143.315.179l-.167.21c-.112.144-.235-.09-.398-.103-.084 0-.104.032-.152.036a4.597 4.597 0 01-.47 0s-.031-.048-.027-.072v-.023a1.02 1.02 0 01.21-.135c.096-.048.399 0 .427-.032.028-.032 0-.19-.167-.195h-.14a1.368 1.368 0 01-.338 0 1.029 1.029 0 00-.752-.032.347.347 0 01-.247-.071l-.032-.032a.12.12 0 00-.17 0c-.04.048-.18.151-.216.107-.036-.043-.179-.159-.21-.13a.758.758 0 00-.116.17c0 .028-.12 0-.16.052-.04.051-.274-.167-.43-.27h-.206l-.207-.02c-.223 0-.45.024-.505.02h-.048l-.104-.028a.311.311 0 00-.258.032c-.028.04-.251-.024-.355-.171l.036-.163.028-.135a.53.53 0 00-.398-.06l-.111.1h-.02a.195.195 0 01-.14-.147c-.023-.076.223-.318.582-.398h.346c.243 0 .235 0 .374-.314l.024-.055c.1-.04.17 0 .167.055l.199.036c-.044.111-.06.227-.028.247l.064-.024h.043c.072.024.14 0 .152-.04.012-.04.1-.159.175-.135l.036.028.08.055a.183.183 0 00.107-.178h-.116l-.21-.028c.047-.124.107-.242.178-.354l-.095-.044a.495.495 0 00-.18.06.867.867 0 00-.15.12.127.127 0 00.06.107.529.529 0 01.123.095.231.231 0 01-.156 0c-.075 0-.274-.092-.274-.131a.163.163 0 00-.155-.123c-.084 0-.303-.036-.283-.12.02-.083.108-.242.175-.234.068.008.16-.048.056-.147l-.08-.095-.091-.104c-.147-.107-.22-.238-.16-.29l.064-.035a.279.279 0 01.148-.044c.172 0 .343.016.513.048h.048c.02.18.064.358.131.528l.036-.032c.06-.051 0-.19.179-.159.098.014.195.034.29.06.06 0 .096.087.156.111a.171.171 0 00.139-.028.119.119 0 000-.11l-.227-.04a2.2 2.2 0 00-.541-.16l-.028-.023-.06-.052a.66.66 0 00-.179.203v.15c.084-.051.37-.274.637-.492l.223-.052h.02c.05.098.08.205.087.314l.243.04c.036.024.024.1-.024.167l-.028.071a.107.107 0 00.06.104c.036 0 .092 0 .14-.028.02-.219.055-.398.079-.374.095.084.183.176.263.274l.282-.071h.072a.75.75 0 00.147.024c.032 0 .103-.052.084-.104l-.032-.04a.478.478 0 01-.231-.142c-.08-.08-.143-.398-.056-.398.088 0 .299.29.458.398l.159.031.294.06c-.103.127-.15.203-.107.17h.044c.08 0 .23-.03.16-.102-.073-.072.035-.195-.104-.263l-.175-.075c-.196-.091-.287-.163-.211-.159l.051-.024.171-.083a.96.96 0 00.458.08c.084-.025.338-.048.35 0 .012.047.064.214.084.15a.977.977 0 01.083-.222h-.035l.199-.04c.226.024.513.06.64.083.128.024.621-.135.864-.139l.187.151c.097.027.2.019.29-.024l.323-.143c.151.104.279.132.279.06 0-.071.318 0 .397.036.08.036.319-.16.363-.1l.031.052.024.048c.044.107.08.111.08 0s-.088-.302-.191-.278a1.24 1.24 0 01-.573-.127l.036-.12.461.072c.1 0 .155-.12.307-.032l.127.072a.825.825 0 00.147-.278.167.167 0 00-.159-.076l-.028.258a10.937 10.937 0 01-.533-.186c-.088-.036-.303-.108-.37-.056a1.592 1.592 0 00-.227.21h.064c.06 0-.032.104-.203.23l-.223.029c-.12 0-.239-.024-.354.051-.04.028-.168-.043-.259-.047a1.373 1.373 0 00-.247.035c-.063 0-.143.048-.183.032l-.147-.075a2.364 2.364 0 01-.625-.131l-.024-.163s-.075 0-.131.055c-.056.056.131.211.155.23.024.02-.056.049-.302-.039l-.18.147h-.023a.9.9 0 01-.227-.131c-.044-.036-.231 0-.267 0a.601.601 0 01-.183-.08c-.06-.035-.294 0-.378-.04l-.103.037h-.06a.522.522 0 00-.2.071c-.03.024-.222-.083-.278-.12-.055-.035-.398.1-.398.068a.578.578 0 00-.398 0l-.083-.04-.132-.063a.254.254 0 01-.091.147.989.989 0 01-.33-.048l-.14.068c-.15.072-.286-.072-.465-.036-.16.01-.32-.013-.47-.067H6.79a2.524 2.524 0 00-.485.031 2.62 2.62 0 01-.796 0c0-.047.12-.162.267-.17.147-.008.441-.529.362-.481l-.036.024c-.056.04-.104.083-.155.123l-.064.06c-.088 0-.167 0-.18.031-.011.032-.214 0-.23-.023-.016-.024-.151-.1-.199 0v.027c.143.322.104.398-.294.513-.104.036-.18.139-.283.167l-.111.027c-.144 0-.267-.063-.275-.11-.008-.048-.06-.172-.084-.152a.135.135 0 01-.15 0V6.9l.059-.099a.54.54 0 00.131-.294h-.06a.342.342 0 00-.175.131c-.027.052-.135.19-.147.14-.012-.052-.107-.183-.199-.183-.091 0-.398.103-.434.23l.247.024.247.028c0 .178-.052.301-.096.266a.853.853 0 00-.398-.111l-.119.027h-.06c-.063.068-.139.076-.175 0-.036-.075-.052-.238.088-.178h.083a.163.163 0 00.14-.032c.023 0 0-.084 0-.111 0-.028-.108-.116-.152-.108l-.262.032c.024-.19-.032-.29-.128-.222l-.187-.12a1.026 1.026 0 01-.294.286 2.958 2.958 0 01-.625-.095l-.127.111c-.064-.027-.1-.063-.084-.08.016-.015.048-.098-.036-.087-.083.012-.306 0-.314-.023-.01-.024-.05-.143-.07-.14-.02.005-.048.052-.06.1-.011.048-.214 0-.274-.024a1.722 1.722 0 01-.195-.576c0-.107-.167-.397-.279-.397l-.095-.028c0-.06.052-.103.071-.091.02.012.12 0 .132-.068a.322.322 0 01.262-.21c.12 0 .339-.243.267-.255-.072-.012-.378 0-.398-.024a.524.524 0 01-.087-.19.151.151 0 01.147-.036l.048.028h.02c0 .047.051.067.107.047.056-.02.135-.127.052-.186-.084-.06 0-.274 0-.239a.072.072 0 00.127 0c.032-.071.29 0 .334-.051a.227.227 0 01.295.047l.179-.051h.028a.302.302 0 00-.155-.227l.067-.107.02-.028c-.076-.08 0-.155.127-.163h.112l.195.032c.028-.123.115-.159.19-.08v.327c.176-.084.291-.175.252-.211-.04-.036-.096-.143-.076-.195.028-.073.06-.145.096-.214.099-.006.199-.006.298 0h.708l.072-.08.088-.095a.662.662 0 00.374 0c.087-.036.418.04.537 0a3.16 3.16 0 01.74-.06l.108-.11h.1c.03 0 0 .198.17.158.056 0 .072-.123.132-.15.06-.029.195-.037.286-.068.092-.032.239-.124.25-.116.096.096.152.024.244 0l.175-.047c.163.095.362.202.441.242.08.04.22-.199.251-.242.032-.044.279 0 .366-.072.088-.071.422.127.518.163.095.036.521-.139.796-.147l.25.052.108.024a.566.566 0 00.278-.048c.04-.028.22.04.255.056.036.015.342.035.613.063a3.48 3.48 0 001.023-.143c0-.036.063-.195.08-.135.015.06.095.218.143.222a3.88 3.88 0 00.569-.071l.21.12.092.055c.182-.06.375-.08.565-.06l.096-.036.08-.027h.665a.187.187 0 00.223-.04c.028-.056.143-.223.155-.207.012.016.092.151.16.266l.127-.035.19-.06a1.378 1.378 0 01-.274-.286c-.04-.067.163-.218.247-.175.147.07.312.094.473.068.092-.052.37-.143.319-.179-.052-.036-.203-.107-.22-.08l.053-.079c.063-.107-.024-.397.091-.397.116 0 .358-.159.358-.115 0 .043.036.174.076.178a.94.94 0 00.21 0c.04 0 .045-.127.037-.15-.008-.024.036-.064.127-.036l.056.043.032.028a.275.275 0 01-.132.187c-.067.04-.23.183-.183.222a.397.397 0 01.096.243c-.017.09-.045.178-.084.262a.279.279 0 01-.235.044c-.031-.032-.15-.096-.179-.084l-.083.12a.565.565 0 00.33.285l.103-.083c.028-.024.1 0 .148-.028l.135-.032.306.1a.554.554 0 00.24-.084c.067-.04.457.056.544 0a1.45 1.45 0 01.601 0l.096.036.227.083a.725.725 0 00.247-.115c.083-.06-.06-.361 0-.449a.86.86 0 00.063-.357c0-.044.175 0 .279.028h.21a.399.399 0 01.216.258c0 .075.083.286-.028.318-.112.031-.398.047-.343-.028l.028-.056a.976.976 0 00.08-.19v-.048a.14.14 0 00-.135-.095h-.036l-.263.139c.036.25.215.445.398.433l.163-.036.124-.032c.115-.007.23-.007.346 0h.052c.139.024.147 0 .1-.095l-.037-.088a.219.219 0 00.171-.182c0-.072.044-.259.1-.23v.134c0 .135.036.243.087.243.052 0 .18-.056.16-.12-.02-.063.04-.274.143-.31a.977.977 0 01.438.1c.035.024.135.13.135.195 0 .063.08.234.171.258.12.033.244.042.366.028v-.23l.032.13zm.123 4.473c.112 0 .176.064.148.151h.135c.04 0 .091-.051.131-.087l.052-.052c.052-.063.131-.091.18-.06.047.032.19.088.19.04 0-.047-.08-.186-.179-.186a.933.933 0 01-.398-.084c-.024-.047-.155-.13-.227-.091-.071.04-.139.373-.032.373v-.004zm-5.571.06c.091 0 .143.08.115.15-.028.072-.071.299-.083.339-.012.04.235.11.219.043-.016-.067 0-.238.043-.246.044-.008.152-.06.14-.103a.23.23 0 01.163-.223l.115-.016.211-.051c-.032-.116-.127-.191-.215-.163a2.1 2.1 0 01-.549-.147c-.048 0-.203-.032-.203 0s-.06.13-.127.091c-.068-.04-.27.06-.251.115.124.102.27.174.426.211h-.004zm-9.154 2.84c.152.116.28.25.28.306a.318.318 0 00.266.215l.115-.024a.686.686 0 00.243-.131v-.08c0-.008-.104-.055-.131-.04-.07.041-.136.086-.2.136 0 0-.027-.04-.083-.072-.056-.032-1.094-.222-.991-.123l.111.036.16.048c.164.027.332.027.497 0v-.116a1.314 1.314 0 00-.16-.33l-.07-.07a.167.167 0 00-.136-.037c-.123.04 0 .072 0 .108v.079c.036.14-.04-.02.115.095h-.016zM76.06 3.587a.199.199 0 01.251-.143c.092.036.346.084.346 0 0-.083-.075-.234-.17-.202-.096.031-.598.397-.51.25l.075-.12v-.031c.04-.024.036-.056 0-.064a1.441 1.441 0 01-.258-.083c-.092-.04-.279.111-.31.075-.032-.035-.132-.13-.152-.119a.25.25 0 000 .207l.024.087c.021.082.03.166.028.25v.084c-.044.127.064.127.235 0l.04.02.135.063c.127-.02.219-.159.266-.274zm-46.395 6.849l.31.195a.398.398 0 01.088.17l.028.048c.027.04.066.072.111.091h.096c.075-.115.187 0 .274-.027.088-.028.315-.06.315-.096 0-.202.203-.103.306-.15 0 0 .032-.044.04-.072.036-.135.123-.107.219-.04l.055.04a.223.223 0 00.247 0v-.024l-.008-.071a1.058 1.058 0 00-.354-.259h-.107l-.192.04c-.19.1-.398.107-.43 0l-.09-.032c-.076-.027-.204.036-.311.052a1.014 1.014 0 01-.108 0h-.139c.032.087.036.167 0 .183-.036.016-1.094-.215-1.27-.227l-.13.032h-.076a.318.318 0 000 .278c.04.06.258.06.358.091.1.032.465-.15.684-.17l.064.222a.174.174 0 00.14.072c.123-.04 0-.072 0-.108v-.047a.5.5 0 01.142-.183c.056-.048-.107-.262-.21-.346l-.064.175v.024c-.084.091-.14.044.012.139zm18.37-.31c.12-.306.195-.429.171-.274l.052.044a.53.53 0 00.322.087c.2 0 .422.072.601-.08l.024-.02c.178.015.356.015.534 0h.27a.38.38 0 01.163.064.255.255 0 00.24-.091c.079-.087.397 0 .433-.056a2.44 2.44 0 00-.33-.186h-.112l-.1.031c-.099.036-.194.04-.206 0-.012-.04-.072-.099-.108-.099l-.255.076a1.53 1.53 0 00-.565.083l-.027.028c-.024.02-.06.048-.084.044-.024-.004-.195-.076-.235-.052l-.215.127c-.223.187-.398.19-.398 0l-.075-.111a.423.423 0 00-.335-.024l-.147.123a.713.713 0 00-.33-.111c-.068 0-.25.139-.354.087-.104-.051-.31-.258-.398-.234-.088.024 0 .19-.04.218-.04.028 0 .191.29.274l.271-.071a.291.291 0 01.175 0 .582.582 0 00.502.04c.123-.044.159-.048.234.024l.032.06zm32.049-6.388c-.247-.254-.315-.492-.151-.528l.15-.052.28-.095c.074.088.158.168.25.238.032 0 .124 0 .136-.06v-.079c-.08-.071-.036-.095.099-.047.135.047.493.04.438-.147l-.18-.06-.25-.08c-.25.096-.517.104-.593 0l-.175.056a.116.116 0 01-.052 0l-.219-.044-.398.31c-.071.052-.338.056-.362.104v.027a.192.192 0 00.132.04h.051c.064-.04.124 0 .128.076.002.098.016.195.043.29 0 0 .084-.056.112-.132.264-.152.54-.285.824-.397-.159.12-.294.268-.398.437l-.188.092c-.083.04-.06.071 0 .123.06.051 0 .095 0 .147v.028c0 .035.044.063.112.06l.21-.307zm-48.17 6.603c-.08 0-.12.047-.092.095.028.048.155.135.219.107.063-.027.187.175.227.235h.274c-.075-.072-.083-.163-.028-.203a.737.737 0 01.398 0l.132.024.115.024c.107.071.167 0 .131-.115h.259c.06.09.155.123.215.075s.243-.155.259-.115a.163.163 0 00.206.036c.084-.048.315-.143.327-.116.012.028.072.096.1.08.027-.016.11 0 .123.036.012.035 0 .04 0-.108l.262.163a.75.75 0 00.398 0h.068c.072-.075.132-.161.18-.254h.047c.125.056.26.089.398.095h.024c.047.1.115.147.147.104.032-.044-.14-.247-.474-.338l-.294-.024h-.681c-.1.003-.2.018-.298.044-.25.036-.5.05-.752.043h-.251c-.235.092-.43.04-.43-.119l-.227.195a.896.896 0 00-.334-.111.947.947 0 00-.418.147h-.231zm9.782-.47c-.088.148-.084.267 0 .271.176.016.353.016.529 0l.12-.044a.7.7 0 00.318-.067l.155.051c.143.04.29.07.438.088a.143.143 0 00.091-.024c.092-.087.155-.044.267 0 .159.051.33.051.49 0 .11-.052.186.12.29 0 .04-.056.266 0 .398-.024h.087a.202.202 0 00.032-.107.179.179 0 00-.223-.095h-.087c-.096 0-.175-.116-.27-.128a.626.626 0 00-.399.052l-.088.048a2.846 2.846 0 01-.477-.064c-.107-.024-.358.1-.366.048-.008-.052-.163-.107-.315.024l-.199-.024h-.15a2.428 2.428 0 00-.478-.06l-.04.04-.123.016zm-3.885.358c0 .064.124.068.275 0l.143.128.1.09a1.8 1.8 0 00.294-.166c.04-.036.267.095.287.107a.38.38 0 01.075.08c0 .036.2-.036.259-.12.06-.083.398-.063.358-.043-.04.02 0 .08.104.091.103.012.322-.179.43-.242l.119.032.147.04c.18.047.219 0 .092-.064v-.052l.043-.258c-.226-.044-.433-.044-.457 0-.024.044-.144.131-.207.103l-.056-.031a.53.53 0 00-.51.02l-.198.099a.964.964 0 01.175.187 1.338 1.338 0 01-.362-.088l-.163-.063c-.028 0-.08-.024-.084-.04-.004-.016 0-.143-.14-.14h-.115a.27.27 0 01-.155.132h-.167a.282.282 0 00-.283.198h-.004zM19.807 6.682c.048-.044.06-.087.032-.095-.028-.008-.084-.056-.048-.076h.06c.028-.024-.036-.163-.136-.306h-.195l-.354-.036c.14-.13.22-.23.175-.218a1.767 1.767 0 00-.31.139c-.076.056-.14.286-.104.314.036.028.168.103.192.159.023.055.119.23.207.254a1.1 1.1 0 00.481-.135zm57.527-3.146c.032.047.14.047.247 0 .107-.048.21-.21.183-.128-.028.084.274.283.374.259.1-.024.35-.143.35-.223a.318.318 0 00-.35-.218l-.104-.147-.12-.163c-.118.091-.29.21-.397.266-.108.056-.211.31-.183.354zm-40.279 6.471c-.25.04-.422.103-.398.147a.156.156 0 01.01.18.153.153 0 01-.046.046v.044c-.028.111.1.088.18.091.07.01.14.01.21 0l.08-.031a.304.304 0 01.267-.06c.08.028.23.028.123-.067-.108-.096-.18-.445-.219-.457l-.207.107zm-9.424.238c-.219.12-.366.306-.326.398.04.091.43.04.473.051.024.243.195.115.33.096h.06c.076 0 .136-.048.136-.135a.293.293 0 00-.37-.215l-.064-.048-.239-.147zm-12.516-2.78a.12.12 0 00.064.166h.095a.399.399 0 01.283-.055l.043-.068.024-.032a3.24 3.24 0 01-.23-.321l.11-.096a.167.167 0 00-.202-.027l-.088-.076a.29.29 0 00-.21-.071l-.096.043a.794.794 0 01.151.25l-.067.06-.028.024c.012.024.187.139.15.203zm65.749 1.02c.068 0 .052-.04-.036-.09-.088-.053-.35-.049-.374.094l-.191-.099c-.171-.087-.314-.155-.378.084v.031c-.112.024-.08.092.068.151h.195c.103-.075.187-.091.187-.031v.079a.131.131 0 00.167 0v-.04l.024-.047c.06-.076.266-.132.338-.132zM44.99 9.86a.214.214 0 00.298.127c.116-.052.521.1.629.115l.064-.032.087-.043a.286.286 0 00.044-.266h-.04a.399.399 0 00-.215.043h-.051a.183.183 0 01-.16.04c-.055 0-.266-.107-.398-.155l-.119.076-.14.095zM27.01 2.487c-.096-.028-.1-.072 0-.1.099-.027.35-.17.354-.234v-.107a.148.148 0 00-.183-.111 1.881 1.881 0 00-.398.27c-.108.091.055.397.167.397h.398a2.7 2.7 0 00-.339-.115zm43.124 1.629c.087.063.17.075.187.023v-.027l.047-.223-.457-.198h-.024a2.98 2.98 0 01-.279.083c-.083 0-.219-.06-.246-.036l-.108.1a.419.419 0 00-.263 0c-.023.023 0 .107.128.143.178-.01.354-.04.525-.092.064 0 .227.048.171.107-.056.06.231.052.319.12zm-55.9 12.74c-.159.123-.254.246-.214.274.132.091.275.167.425.226l.164-.043.226-.06c-.103-.111-.179-.218-.163-.238.016-.02-.06-.135-.203-.207h-.103l-.132.048zM81.612 3.269c.068 0 .135.096.151.215l-.04.083c-.035.068-.103.112 0 .155.095.029.193.045.291.048 0 0 .048-.1.044-.103-.171-.056.028-.171-.06-.259l-.076-.075a.266.266 0 00-.258-.262h-.171a.09.09 0 00-.028.114.091.091 0 00.028.033h.051l.068.051zm-10.28 14.445a.219.219 0 00-.02.242.423.423 0 00.367.091c.127-.043-.29-.405-.347-.333zm2.42-12.895c0-.04-.032 0-.072.107-.04.107-.338.266-.334.302.044 0 .128.04.14.028l.11-.131c.171.023.344.023.514 0 .116-.024.096-.27 0-.247l-.083.024-.084.02a.167.167 0 01-.19-.103zM9.098 8.79c.135-.075.119-.198-.032-.274h-.068c-.072 0-.111.123-.151.195l-.072.12c-.111-.049-.223-.037-.247.027-.023.063.434-.008.57-.087v.02zm7.923-.222c.136-.056.187-.135.108-.183-.08-.048-.422.219-.518.397l-.223.044v.08h.024l.29-.052v.135a.2.2 0 00.132.04l.131-.036c-.075-.044-.099-.373.056-.425zM86.141 2.3c-.072-.036-.076-.123 0-.19.076-.068.167-.239.1-.239-.068 0-.255.084-.275.183a.922.922 0 000 .42c.04.049.183.128.239.088.055-.04-.008-.226-.08-.262h.016zM18.446 6.491a.128.128 0 00-.108.151c.05.124.126.235.223.326l.08.048c.044 0 .064-.052.048-.068a.096.096 0 01.047-.12c.06-.027.24-.19.164-.233a1.255 1.255 0 00-.454-.104zM74.44 3.587c.167 0 .294-.06.282-.143-.012-.083.116-.31.104-.357h-.032a.223.223 0 00-.14.024.279.279 0 00-.103.123c-.036.11-.056.127-.084.099-.11-.123-.17-.028-.23.028-.06.055 0 .175.087.202l.116.024zm-9.763.453c.064.084.16.04.211-.095h-.139l-.299.024c0-.183 0-.175-.035 0l-.175.02-.275.035a1.242 1.242 0 000 .306c0 .036.064.044.084-.052.02-.095.565-.293.628-.222V4.04zM88.11 2.03c0 .155.056.25.091.215a3.6 3.6 0 00.275-.306.741.741 0 000-.477.176.176 0 00-.175.06c.223.178.08.305-.088.42l-.103.088zM17.447 7.075c.123 0 .171-.127.108-.282l.107-.139s0-.056-.036-.071a.112.112 0 00-.091 0c-.06.027-.16.075-.156.103l.044.226c-.227.1-.1.18.024.18v-.017zm57.547-3.043c-.056-.055.028 0 .187.111l-.2.175s0 .04.033.06a.112.112 0 00.051 0c.148-.028.295-.052.438-.092l.108-.027c.111-.052.115-.08 0-.06a1.67 1.67 0 01-.617-.15v-.017zm-22.155 5.74c.215-.055.326-.174.247-.27l-.092-.031c-.115-.036-.096.091-.14.119l-.123.083a1.033 1.033 0 00-.362-.051c-.032 0-.107.063-.08.091.084.063.18.106.283.127l.092-.024.175-.043zm29.927-7.23c-.04 0-.04-.047 0-.067V2.45a.31.31 0 000-.147.151.151 0 00-.095 0 .167.167 0 00-.068.1v.21a1.643 1.643 0 00-.064.473h.068a.593.593 0 00.211-.163.452.452 0 00-.036-.382h-.016zm1.162 1.093c.068.08.116.095.108.044a.446.446 0 00-.33-.21l.063-.172a.322.322 0 00-.084-.04.112.112 0 00-.051 0h-.052c-.083 0-.135.108-.107.219l.063.06c.06.051.187.047.283.071l.107.028zm-10.088.21c.183.056.33.056.33 0a.298.298 0 00-.314-.182c-.171.024-.422.278-.263.266l.131-.04.116-.044zm-32.674 6.206c.096.055.167 0 .155-.084l-.055-.071-.044-.06a.123.123 0 00-.195 0V9.9c0 .115-.127.063-.2.083h-.047c-.044.044-.056.087-.028.103s.335-.09.43-.035h-.016zm39.698-6.408c-.092-.04-.175-.032-.183 0a.627.627 0 00.179.361l.127.076a.247.247 0 00.144.032.398.398 0 00.159-.068s-.04-.1-.052-.1c-.171.033-.127-.099-.187-.154-.06-.056-.227 0-.191-.151l.004.004zm4.47-1.192c-.112 0-.116.084 0 .179l.103.075a.187.187 0 00.139 0c.028-.02.048-.095.028-.11-.1-.084-.14-.128.055-.14.024 0 .044-.12.056-.183.012-.063-.032-.063-.052-.067h-.047c-.04.02-.144.258-.267.258l-.016-.012zm-58.957 0c0 .06.052.048.112-.02a.325.325 0 000-.302.98.98 0 00-.318-.08c-.084 0-.096.215-.056.251h.127c.072-.052.148.095.151.143l-.015.008zm62.797-.056c-.128.06-.22.143-.203.183.016.04.075.107.103.068.028-.04.127.119.155.167.028.047.112.166.128.162a.17.17 0 000-.139c0-.067-.028-.266.028-.278.055-.012-.08-.222-.211-.163zm-11.717 1.59a1.734 1.734 0 00-.887.087c.354.35.58.012.887-.087zM15.27 2.435c-.203.048-.302.12-.215.16l.056.03c.028 0 .048.045.076.06l.143.084c.14-.084.258-.195.262-.254l-.027-.04a.215.215 0 00-.148-.06l-.147.02zm71.345.326c-.044-.064-.092-.06-.104 0-.012.06.438.238.486.139v-.107c-.052-.032-.33.032-.382-.032zm-2.937 0c-.06.044-.072.091 0 .107a.195.195 0 01.087.19c0 .06.2.049.219 0a.95.95 0 00.028-.245c-.024-.02-.27-.076-.334-.02V2.76zM.93 5.585c.151 0 .211-.06.136-.107-.076-.047-.398.127-.295.183l.08.067c.04.028-.207.08 0 .128.119.031.15-.052.127-.131l-.048-.14zM83.192 1.88c-.087.028-.044.048.096.048h.274a1.413 1.413 0 000-.338c0-.024-.072-.1-.083-.044a.855.855 0 01-.287.354v-.02zM72.845 3.41h-.104c-.035.067-.095.139-.087.206a.648.648 0 00.111.266.175.175 0 00.135 0l.056-.063a.331.331 0 00.028-.243 1.155 1.155 0 00-.155-.147l.016-.02zm14.872-1.284c-.044-.11-.135-.155-.203-.099-.068.056 0 .306.036.397.036.092.19-.17.151-.278l.016-.02zM26.664 6.392c-.147.131-.21.274-.147.314.064.04.255-.123.25-.227h.172c.027 0 .1-.091.087-.115-.052-.1-.091 0-.135 0l-.227.028zm-13.197.12a.21.21 0 00-.19-.108h-.16a.115.115 0 00.02.17h.247c-.044.1-.088.187-.092.2-.004.011 0 .055.048.067h.028c.167-.044.207-.14.127-.278l-.028-.052zm18.789-.362c-.032 0 .027.238.13.48l.088.036c.034.01.07.01.104 0h.024a.793.793 0 00-.135-.35l-.088-.147a.136.136 0 00-.096 0l-.027-.02zm55.947 7.027c.035.04.143.036.23 0 .088-.036.223-.21.136-.274h-.215c-.163.067-.191.218-.151.274zm-11.359-9.59c0 .076.072.04.18-.08l.087-.095c.048-.123 0-.226-.123-.222-.124.004-.136.33-.144.397zm6.193 2.563c-.195.06-.275.206-.18.33l.196-.124.091-.06c.18 0 .323-.07.315-.142v-.068c-.028 0-.108.04-.183.127h-.036l-.203-.063zm-7.749-2.67c-.147-.072-.286-.075-.31 0-.024.075-.072.286 0 .334.072.047.187 0 .21-.08l-.067-.055v-.06l.167-.139zM11.215 8.644c-.112 0-.207 0-.22.044v.08c0 .043.116.079.232.083.115.004.087-.195-.02-.215l.008.008zm63.397-6.17a.16.16 0 00-.068.144h.255c.146.085.304.147.47.183v-.104c-.12-.047-.24-.095-.359-.135a1.405 1.405 0 00-.278-.083l-.02-.004zM53.965 9.15c.048-.04 0-.06-.08-.044s-.199-.214-.258-.246a.283.283 0 00-.088.131l-.028.159a.606.606 0 00.454 0zM11.012 6.46c.127 0 .19 0 .147-.043a1.623 1.623 0 00-.322-.104c-.096 0-.22.235-.27.283a.5.5 0 00.158.143h.024c.072 0 .135-.279.263-.279zm59.115-1.55c.06 0 .067-.06 0-.115h-.036c-.064 0-.135.044-.2.036h-.095c-.1-.04-.21 0-.243.043l.024.024c.04.048.148.06.183.107l.04.052v.14a.12.12 0 00.052-.08.49.49 0 01.275-.207zm-52.795 0c0 .072.08.095.179.056a.528.528 0 00.207-.294l-.024-.024c-.024-.024-.08-.056-.108-.048h-.08a.484.484 0 00-.174.302v.008zm55.803-.131c.052.091.104.159.12.151a.294.294 0 00.051-.17c0-.076-.067-.29-.15-.267l-.04.032c-.032.028 0 .091-.052.111-.052.02-.104-.159-.163 0-.06.159.08.083.155.115l.08.028zm.16-1.62c.035-.084-.036-.068-.164.035-.127.103.203.477.163.397a.952.952 0 01.016-.425l-.016-.008zM62.091 4.293c-.052.068-.032.14.043.16.076.02.223-.112.187-.172-.035-.06-.159-.047-.215.02l-.015-.008zm16.798-.953c-.06-.111-.187-.06-.283.12l.168.047.115.032c.127 0 .195-.028.143-.088l-.063-.047-.08-.064zm-8.103.306c-.067.055-.032.115.084.131l.044.024.135.067c.143-.035.23-.127.187-.202-.044-.076-.362-.08-.434-.012l-.016-.008zm12.656-.715c.047-.048 0-.127-.068-.175a.625.625 0 00-.422.095c-.044.052.032.195.056.163s.123-.095.16-.067a.37.37 0 00.29-.008l-.016-.008zM79.045 4.27a.797.797 0 00.625-.096c-.27-.19-.27-.19-.609.103l-.016-.007zM14.892 16.935c-.036.032.028.127.147.207h.104c.075 0 .175-.068.25-.12 0 0 0-.107-.023-.107h-.06c-.068 0-.131 0-.143-.043-.012-.044-.24.027-.275.063zm18.705-10.63c-.167-.024-.31 0-.319.099l.036.051.052.068c.106-.01.212-.01.318 0h.088a.107.107 0 000-.143h-.036l-.14-.075zm38.742-2.718c.044-.095.052-.103 0 0l-.163.04-.207.052c.144.147.339.02.37-.092zM49.73.012c.224-.06.347 0 .28.107l-.037.076c-.043.099-.111.087-.199.043a.203.203 0 00-.111-.023c-.056.031-.103.115-.155.115-.18 0-.156.175-.267.194-.207.036-.103-.194-.25-.222-.048 0-.112-.044-.14-.032-.115.052 0 .08.028.12.028.039-.028.043-.048.051s-.1 0-.1 0a3.04 3.04 0 01-.119-.397V.012c.064-.036.24.067.398.238l.287-.047a.721.721 0 00.334-.096l.1-.095z"/>
    <path d="M10.912 2.13c-.187-.025-.246-.084-.13-.132.114-.047.35-.163.254-.143-.096.02-.287-.06-.187-.119.1-.06.529.095.58.103.053.008.216-.024.184-.083-.032-.06-.044-.238.044-.262h.043l.112.04c.1-.032.167.031.147.142l-.103.076a.598.598 0 01-.49.17.482.482 0 00-.334.088l-.12.12zM24.726.882c.084.032 0 .091-.16.139l-.158.032a.434.434 0 00-.319-.151c-.115 0-.426-.08-.398-.171V.632c-.143-.04-.187-.076-.095-.076.091 0 .314.032.322.072a.159.159 0 00.195.075c.212.032.418.092.613.179zm29.271.548c0 .04.04.06.135.044.096-.016.35-.02.35.044 0 .063-.06.25-.127.282-.068.031-.207-.16-.239-.203l-.067.052a.124.124 0 01-.203-.028l-.056-.084a.72.72 0 01-.14-.19s.04-.064.08-.044h.04a.582.582 0 00.143 0h.052c.068 0 .068.083.032.127zM14.864.942a.096.096 0 00-.147.047c-.032.068-.18.254-.247.246l-.028-.031-.063-.076c-.096-.055-.124-.123-.056-.147.124-.085.258-.156.398-.21.143-.028.426.19.398.214a.478.478 0 01-.255-.043zm6.933.628c-.028-.037 0-.144.06-.243h.266c.052.087.14.147.2.123.059-.024.262-.04.27.032.008.071-.064.282-.171.294l-.068-.028-.147-.052a1.037 1.037 0 01-.335-.087l-.043-.032-.032-.008zM17.344.886C17.252.822 17.16.81 17.14.854c-.02.044-.096.064-.136-.032h-.151c-.024-.055 0-.087.064-.063h.067c.112 0 .227-.115.347 0 0 0 .08-.028.115-.056l.056-.04a.474.474 0 01.33.306l-.167.096h-.024c-.048 0-.095-.064-.103-.135h-.124l-.071-.044zm3.207.508c.04-.031.116 0 .171.072.056.071.144.199.08.131-.064-.068-.354.024-.43-.048l-.123.084a.203.203 0 00-.108.226c0 .076 0 .111-.107.084-.107-.028-.072-.072-.107-.112l.13-.238h.136c.115-.04.319-.17.358-.199zm-1.141 9.467c.079-.135.198-.218.27-.183.071.036.135.18-.116.175h-.334c-.199.048-.366.048-.37 0-.004-.047.12-.214.29-.238l.06.051.2.195zM37.86.282c.13.143.079.266-.116.266h-.235a.31.31 0 01-.127.167c-.052 0-.148-.048-.2-.071-.051-.024-.234-.08-.199-.171h.152a4.62 4.62 0 01.485-.024l.048-.04.191-.127zm.493.846c.051-.055.1-.043.103.028l-.076.076a.932.932 0 01-.477.178l.175.187.036.044a.35.35 0 01-.398.143l.175-.135s.028-.028.02-.036l-.175-.258c.214-.05.42-.127.617-.227zM13.547 1.08c-.31 0-.506-.063-.434-.127.072-.063.1-.357.18-.325l.043.04a.314.314 0 01.111.174c.032.219.192.14.33.103h.06c.088-.035.112.024.052.132h-.083l-.259.004zm20.213.795c0-.056.06-.06.127 0 .068.06.235.223.203.242-.032.02-.179.076-.203.024l-.043-.04-.108-.103a2.08 2.08 0 01-.274.195h-.076c-.04 0-.104-.032-.111-.06a.106.106 0 01.043-.107l.064-.04c.095-.012.374-.051.378-.11zM40.84.6c-.135.04-.255 0-.259-.076-.004-.075.22-.206.227-.162.008.043.111.099.211.023l.123.112c.067.051.137.098.211.139C41.337.679 40.98.56 40.84.6zm1.035 1.33c.119 0 .222-.039.23-.107.008-.067.08-.178.136-.107.056.072-.092.346-.279.378l-.175.023h-.032a.127.127 0 010-.162h.044l.076-.024zm4.655-.834c0 .084-.146.151-.282.151h-.171a.199.199 0 01-.051-.166c0-.032.031-.14.099-.163.04.04.044.103.084.139l.027.024h.108V.969c.02-.067.203.044.187.127zM36.792.41c.048.035.052.075 0 .095-.051.02-.179.103-.127.123.052.02.12.087 0 .087s-.446-.048-.398-.107l.06-.036c.08-.048.19-.067.25-.127l.044-.048c.008-.08.124-.043.171.012zm-4.278 2.128c-.17-.047-.242-.135-.163-.19.08-.056.064-.397.056-.457v-.04c0-.032.051-.075.087-.075s.12.036.115.047l-.051.167c.143.092.139.215 0 .274v.064l-.044.21zM6.415 8.569c.056.052.028.091-.067.091-.096 0-.287-.043-.251-.095.036-.052-.076-.179.02-.179.095 0 .298-.111.314-.08.016.032-.075.211-.016.263zM22 10.61c.147 0 .21.06.143.14-.067.08-.314.226-.398.155-.083-.072 0-.342.092-.314h.087l.076.02zm-4.394.08c.211-.095.398-.13.398-.075 0 .055.29.032.31.06v.023l-.02.06-.322.048c-.107 0-.398 0-.378-.068l.02-.048h-.008zM46.328.373c-.056-.083 0-.075.135 0l.148-.139.031-.027c0-.024.032 0 .076 0s.127.143.1.162c-.028.02-.16.088-.172.064-.012-.024-.087-.064-.107 0l-.036.036-.024.028c-.063 0-.107-.028-.095-.064V.409l-.056-.036zm39.909.656c-.04-.084 0-.14.04-.127a.797.797 0 01.29.143c.052.06 0 .278-.1.278l-.087-.036-.104-.04a.2.2 0 01-.23 0c.04-.06.119-.103.159-.162l.032-.056zm-36.375.572c-.036.067-.08.036-.1-.068-.02-.103 0-.397.064-.425.064-.027.207.243.263.306.056.064.219.286.155.274-.064-.012-.346-.15-.382-.087zm9.488 0c-.052 0-.076-.048-.052-.111.024-.064.215 0 .258-.028l-.035-.076c-.056-.095-.032-.174.055-.174.088 0 .215 0 .108.027-.108.028.068.279.08.342l-.06.06-.084.087a.625.625 0 00-.27-.127z"/>
    <path d="M21.654 1.506a.21.21 0 01.15.063l.033.024.044.032c.047.032.067.083.04.119l-.032.024-.04.032-.223.143-.072.031-.071.028c-.088 0-.12-.051-.076-.15l.072-.072.15-.143c-.13-.072-.031-.131.025-.131zm26.011.012c.163-.064.211-.048.112.031-.1.08-.26.398-.303.398a.606.606 0 01-.19-.028c.087-.167.22-.305.381-.401zm-18.541.147s-.028-.044-.028-.096c0-.051.087-.214.195-.214.107 0 .438.087.438.198h-.044c-.108.036-.287.1-.29-.107a.195.195 0 00-.128-.036c-.032 0-.068.052-.076.084v.051c-.008.076-.047.123-.067.12zm-15.139.067c0 .056-.08.068-.18.028-.099-.04-.33-.195-.274-.246.056-.052.247-.16.25-.072v.278c.12-.119.204-.048.204.012zm9.005 9.081c.049-.15.112-.234.14-.182.028.051.163.139.243.107.08-.032.23-.075.143 0-.087.075-.032.238-.032.175 0-.064-.258 0-.302 0h-.032l-.16-.1zM45.425.203c.099-.108.135-.12.083-.024-.052.095-.16.353-.227.353s-.234-.027-.223-.067a.32.32 0 00.275-.163l.092-.1zM22.326.842c.1.028.136.088.08.127-.056.04-.29-.071-.346-.107-.056-.036-.171-.187-.068-.234l.08-.032h.031c.044-.012.124.21.223.246zm.45-.099c.06-.163.135-.258.163-.21.028.047.314.186.299.238-.016.051-.251 0-.295 0-.044 0-.052.178-.127.194h-.144c-.087 0-.087-.051 0-.071l.024-.04.08-.111zm33.282.063c.124.028.06.048-.143.048l-.084.056-.155.107a.796.796 0 00-.342-.135h-.1c.144 0 .697-.076.824-.076zm-22.839.604a.95.95 0 010-.33h.056a.545.545 0 01.206.183c.092.122.165.256.22.398h-.125a.839.839 0 00-.254-.211l-.103-.04zm17.506.74c-.043.027-.023-.084.044-.243l.112-.024.135-.032c.187.072.33.179.322.239-.008.06-.262-.032-.326-.032h-.06a.984.984 0 00-.183.06l-.044.031zm27.353.222c0 .051-.087.047-.199 0a2.533 2.533 0 01-.43-.255c0-.035.028-.143.092-.107.064.036.207.159.195.215-.012.055.342.091.342.147zM29.868.64c0-.132 0-.259.075-.278.076-.02.207 0 .219.04h-.024l-.056.043a.183.183 0 00-.123.179c0 .067.223.186.242.21.02.024-.321-.063-.333-.194zM11.605.95c-.287.047-.434.031-.33-.04.103-.072-.048-.338-.024-.362.024-.024.107.04.103.199l.16.127.09.075zM40.9 2.03c-.132.044-.18 0-.1-.1.08-.099.33-.297.346-.178v.08c0 .087.068.214-.159.202L40.9 2.03zM24.885.747c-.14-.044-.12-.155.044-.254l.151-.024h.096c.131.075.087.107-.096.08v.21s-.063.032-.091.028l-.104-.04zM18.29.469a.203.203 0 01.22-.064c.067.028.199.12.143.14h-.16a.905.905 0 00-.107.218c-.012.043-.147-.23-.095-.294zm29.498-.02c.052 0 .124-.064.156-.143.032-.08.15-.274.183-.25a.178.178 0 010 .198c-.048.072-.255.306-.346.322L47.745.54c-.108-.095-.203.215-.251 0-.032-.139.147-.067.235-.083l.06-.008zm-21.51.218s-.036.032-.087.044h-.124a.088.088 0 000 .155h.108c.071 0 .055.076-.036.14h-.136a.871.871 0 01-.195-.16c-.027-.04 0-.175.084-.226h.171a.51.51 0 01.215.047zm.593-.012c.12.108.127.211 0 .23-.127.02-.374-.043-.378-.174l.195-.032.183-.024zm-8.847 1.844a.266.266 0 01-.072-.31l.028-.12c0-.039-.207-.083 0-.118.028 0 .1.06.108.099.008.04 0 .175 0 .262 0 .024.063.06.1.068.035.008.135.031.051.091a.24.24 0 01-.151.044l-.064-.016zm2.002 8.072a.16.16 0 01.275.072l.063.091c.052.075.14.056.215 0a.111.111 0 01.056.135h-.14c-.153-.02-.3-.072-.433-.15l-.028-.08-.008-.068zm21.809-8.386c.103 0 .159.052.131.087a.882.882 0 00-.103.203l-.084-.052a.26.26 0 00-.179 0c-.092.056-.183.123-.239 0l-.04-.099c.169-.055.34-.102.514-.14zm-11.824 8.358a.143.143 0 01.104 0h.023l.188.143c.047-.155.15-.25.23-.206.08.043.092.222.032.182-.06-.04-.282.064-.338.056a1.27 1.27 0 01-.239-.063.118.118 0 010-.112z"/>
  </g>
  <defs>
    <clipPath id="ANNpJbrfva">
      <path fill="#fff" d="M0 0h89.751v29H0z"/>
    </clipPath>
  </defs>
</svg>
