<svg xmlns="http://www.w3.org/2000/svg" fill="none" viewBox="0 0 86 36">
  <g clip-path="url(#N9JeTWPFzYa)" fill="#000">
    <path d="M64.973 32.303c0 .361-.03.602-.072.487l-.053-.054c-.046-.048-.13-.048-.168-.102l-.053-.072a1.422 1.422 0 01-.042-.427l-.026-.09a.53.53 0 00-.183-.271l-.114-.055c0 .139-.046.265-.076.283-.03.018-.091.114-.034.163.057.048.205.222.14.234-.064.012-.235.145-.235.253 0 .108-.046.403-.103.265-.057-.139-.182-.602-.148-.644a1.47 1.47 0 00.106-.361.132.132 0 00-.054-.075.066.066 0 00-.071.003l-.046.042v.06l-.106.108c.004.16-.015.319-.057.464-.039.084.152.228.163.246a.46.46 0 010 .127.058.058 0 01-.034.011.058.058 0 01-.034-.011l-.145-.187a.26.26 0 01-.265-.056.596.596 0 01-.176-.317l-.057-.234a.408.408 0 00-.133-.193h-.035c-.056 0-.09.042-.08.072.012.03.031.21.054.361.023.15 0 .602-.103.602-.102 0-.433 0-.426-.054a.59.59 0 01.13-.229c.05-.048-.1-.24-.137-.12-.334.044-.67-.02-.989-.187h-.072c-.027.09 0 .193.083.24h.073a.58.58 0 01.087.043l.38.174c.19-.234.175-.517-.034-.601l.061-.35a.252.252 0 00-.084-.035c-.11 0-.19.258-.346.042-.038-.054-.224.06-.334.114-.027 0-.035.108-.035.169 0 .06.046.06.076.066a.135.135 0 00.096 0l.22-.096c.157.293.34.549.544.758-.061.102-.16.174-.194.282l-.038.109c-.027.15-.053.174-.06.066a1.047 1.047 0 00-.206-.518.731.731 0 00-.407 0c-.08 0-.32.163-.32.253s-.045.325-.099.307l-.041-.09a2.573 2.573 0 00-.331-.524l-.088.157-.106.198a.774.774 0 01-.323.133 1.118 1.118 0 00-.126-.133c-.05-.03-.198 0-.148.109.05.108.038.336-.148.367l-.03.294s0 .055-.028.049h-.026c-.027 0-.152-.085-.282-.145l.069-.204c.038-.103.095-.247.16-.265.129-.042.106-.145.102-.24v-.061a.139.139 0 00-.073-.062.094.094 0 00-.083.014l-.042.048c-.034.036-.038.132-.068.144h-.038a.164.164 0 01-.06-.174c.045-.138.104-.264.174-.373l.099.072c.027 0 .099 0 .14-.06.042-.06 0-.096 0-.139l-.056-.198c-.164-.066-.248-.156-.19-.205.056-.048.163-.222.034-.222-.13 0-.403.084-.38.192.048.127.086.262.113.404a.077.077 0 01-.049-.02.14.14 0 01-.038-.053c-.023-.06-.14-.186-.182-.108-.054.12-.094.255-.118.397 0 .078.175 0 .22.036l.027.06c.023.048.05.12.038.169a.184.184 0 01-.052.057.112.112 0 01-.062.021c-.076 0-.149-.084-.225-.102a.208.208 0 00-.16.048v.138a.254.254 0 01-.228-.036 1.723 1.723 0 01-.175-.415c-.053-.157-.228-.541-.285-.511-.057.03-.228.066-.205 0 .023-.067-.046-.301-.217-.337l-.152.108-.13.09a1.265 1.265 0 00-.452.036c-.057.03-.186.175-.114.223.072.048.027.295-.05.24-.075-.054-.38.127-.498.175l.027.205c0 .09-.034.264-.068.264-.11 0-.187.139-.126.199l.103.096c.07.136.168.227.277.253.08 0 .141.235 0 .156h-.212a.52.52 0 01-.263 0 4.977 4.977 0 01-.053-.56 3.551 3.551 0 00-.38-.938c-.03-.054-.096-.216-.077-.252.02-.037.035-.181-.045-.127-.08.054-.308.114-.468.187-.16.072-.646-.253-.806-.247-.16.006-.32.493-.38.41h-.046l-.076-.031c-.088 0-.13-.09-.091-.168v-.037l-.065-.15h-.38a.698.698 0 00-.457.265c-.09.144 0 .601.073.523.072-.078.327-.198.346-.144v.445h-.658c-.122 0-.41-.18-.38-.367l.174.205.027.036c.122-.097.194-.241.156-.331-.038-.09-.095-.325-.042-.337.053-.012.183-.084.175-.133h-.156a1.894 1.894 0 01-.38-.168c-.046-.03-.118.102-.103.15.015.049-.065.205-.198.235s-.84-.186-.722.06l-.03.283c0 .054.114.138.186.192.038 0 .064-.072.057-.108v-.03c0-.036-.053-.072-.05-.102a.29.29 0 01.017-.09.19.19 0 01.04-.067.186.186 0 01.13.043l-.027.228c.133 0 .213.09.179.139-.034.048-.103.204-.084.258.02.054.03.21-.019.217-.053-.06-.091-.15-.148-.18a.865.865 0 01-.3-.309 1.513 1.513 0 01-.183-.486.485.485 0 00-.123-.25c-.059-.057-.128-.08-.197-.063h-.072c-.091-.084-.201-.072-.24.03-.037.103-.178.277-.235.18-.057-.095-.29-.33-.354-.258-.064.072-.217.277-.175.295.042.018.107.072.084.084a.476.476 0 00-.099.15 1.981 1.981 0 00-.034.368c0 .12-.061.463-.133.505h-.092c-.041 0-.072-.06-.072-.15l.259-.066a3.812 3.812 0 01-.168-.602c.005-.202.02-.403.042-.602 0-.126-.03-.355-.06-.235l-.05.03c-.13.073-.33.187-.407.115l-.213-.205c-.255.036-.468.139-.468.229s.05.3.057.385h-.08c-.026 0-.064.054-.06.072.003.018.182.15 0 .187h-.137c.02-.14.046-.276.08-.41.022-.084 0-.318-.137-.306-.137.012-.339-.32-.358-.343l-.137.162a1.853 1.853 0 01-.623-.228l-.149.138c-.118.114-.217-.096-.24-.066-.102.132-.25.168-.315.072l-.099-.15a.616.616 0 01-.487.072h-.364c-.11-.066-.138.102-.05.373.087.27.095 1.053.186 1.059.091.006.293-.283.339-.361h.038c.133 0 .087.156.08.246v.079c-.05.084-.05.168 0 .18.049.012.186.096.11.145-.076.048-.281.066-.327-.049l-.076-.192s-.103 0-.13.048c-.026.048.183.132 0 .205l-.114.048a.46.46 0 00-.035-.156.274.274 0 00-.079-.109c-.045 0-.167.078-.137.247.03.168-.32.12-.27-.175l-.311-.06c-.042 0 .076-.307.182-.319h.133c.16 0 .251-.108.21-.253-.043-.144-.275-.36-.206-.409.068-.048.091-.403.091-.511 0-.108-.099-.373-.213-.38v.242c-.022.029-.05.045-.08.045-.029 0-.057-.016-.08-.046l-.041-.048-.046-.042a.297.297 0 00-.228-.042c-.132.083-.26.184-.38.301l-.061-.247c-.038-.15-.22-.138-.29.042-.068.18-.163.139-.25 0l-.069-.09a.384.384 0 00-.3 0c-.161.054-.329.007-.468-.132l-.262.114-.29.12c.031.301 0 .506-.041.458-.042-.048-.16-.193-.118-.21.042-.019.095-.121.038-.193-.057-.073-.483.108-.65.036l-.054-.054-.243-.271c-.118.253-.228.247-.243 0l-.27.283-.1.102a1.632 1.632 0 01-.421-.15c-.027-.03-.137.162-.213.246l-.103-.108c-.046-.048-.065-.223-.179-.084l-.072.084c.018.03.029.068.033.109.004.04 0 .082-.01.12-.027.036-.114.108-.133.054v-.043c-.046-.132.118-.403-.13-.39h-.175c0 .21 0 .366-.068.342l-.05-.048a.853.853 0 00-.604-.12l-.194.078c-.213.084-.403.09-.426 0v-.421c-.201.084-.068.295-.103.44v.06c0 .084-.045.126-.102.096-.057-.03-.168-.157-.145-.205a.404.404 0 00-.005-.107.327.327 0 00-.031-.095.204.204 0 00-.054-.067.12.12 0 00-.066-.026l-.08.048-.216.127a1.706 1.706 0 00-.537-.09l.069.096s.026.084 0 .09a.226.226 0 01-.091 0l-.164.03a1.227 1.227 0 00-.586-.072l-.14.048h-.046a.136.136 0 00-.022.05.187.187 0 00-.004.063c.003.02.008.04.017.056.008.016.02.028.032.036l.046.042h.022c.027.054-.076.18-.232.27l-.049-.324c0-.085-.14-.139-.224-.193 0 0-.046.06-.073.084l-.041.048a.09.09 0 01-.038.028.063.063 0 01-.04.002.085.085 0 01-.039-.025.149.149 0 01-.028-.047v-.066c-.03-.108.068-.27-.087-.33-.069 0-.141-.103-.198-.085a.615.615 0 00-.228.192l-.061.085c-.057.132-.114.198-.13.144-.015-.054-.163-.096-.3 0-.137.096-.59-.066-.647-.072-.056-.006-.201-.06-.201-.127 0-.066.06-.264.133-.264h.091c.061-.03.042-.078-.034-.102-.076-.024-.27-.271-.297-.235-.053.1-.097.215-.129.337-.023.108 0 .409-.068.415a1.03 1.03 0 01-.38.048l-.077-.084c-.117-.12-.194-.145-.293 0h-.38l-.133.102a.381.381 0 01-.125-.066l-.03-.048-.084-.127a.315.315 0 01-.305 0c-.034-.054-.175-.114-.186-.048l-.019.049v.036a.22.22 0 01-.164 0 .542.542 0 00-.11.264v.12a.1.1 0 01-.102.004.19.19 0 01-.08-.1V31.6c0-.042-.118-.078-.255-.09h-.232c-.122.06-.171.042-.107-.042.065-.084.149-.35.05-.41-.1-.06-.361-.15-.38-.053a1.656 1.656 0 01-.084.445h-.069a.442.442 0 01-.04-.122.538.538 0 01-.005-.137c0-.09-.228-.12-.278-.096-.05.024 0 .222 0 .246 0 .024-.019.103-.08.115h-.03l-.069-.066c-.034-.044-.076-.068-.12-.068-.043 0-.085.024-.12.067-.064.097-.63 0-.638.09v.055l-.02.072a.197.197 0 01-.046.084.095.095 0 01-.067.03.58.58 0 01-.145-.246l-.038-.06a.16.16 0 00-.06-.048.111.111 0 00-.069-.007.141.141 0 00-.045.059.245.245 0 00-.02.086v.114c.038.157.03.265-.019.24-.05-.023-.182-.162-.296-.252l-.088-.114-.057-.072a.879.879 0 00-.247-.145h-.03c-.113.08-.232.137-.354.169h-.133a1.096 1.096 0 00-.354-.217c-.06 0-.125.205-.186.169-.061-.037-.206-.193-.164-.247.042-.054.118-.229.02-.21a3.59 3.59 0 00-.518.342l-.183-.084a.652.652 0 00-.076.192 2.348 2.348 0 01-.121.343.228.228 0 01-.048-.077.344.344 0 01-.02-.103c0-.096-.07-.367-.111-.355a.473.473 0 00-.163.186c-.046.073-.343 0-.472 0-.13 0-.498 0-.498-.096s-.042-.325-.088-.289l-.034.06a.132.132 0 01-.022.041.077.077 0 01-.03.024.054.054 0 01-.034.003.069.069 0 01-.032-.02c-.03-.041-.175-.102-.201 0-.027.103-.141.458-.18.47h-.094c-.057 0-.069-.09-.027-.15l.034-.043.035-.048c.042-.06.03-.126-.027-.15h-.21c.018-.103.032-.207.043-.313 0 0-.054-.078-.122-.066v.03l-.042.144c-.01.089-.007.18.006.266a.845.845 0 00.074.24l-.099.06h-.053a1.152 1.152 0 01-.244-.331c-.03-.09-.167-.259-.235-.198h-.057c-.088 0-.175-.103-.259-.09-.084.011-.065.174-.122.222l-.045.042c-.114 0-.171-.09-.126-.157.046-.066.073-.144-.034-.036a.73.73 0 01-.529.073h-.041l-.1-.06c-.056-.115-.125-.09-.151.054l-.02.138c.052.088.108.168.168.24.084.103.217.428.064.554l-.034-.367c0-.036-.152-.078-.224-.06h-.091a.44.44 0 00-.118.146.717.717 0 00-.069.209c0 .108-.041.265-.08.084-.038-.18.092-.83-.041-.914-.134-.085-.49.192-.468.252l.019.055v.03c0 .036 0 .084-.038.102h-.057a3.393 3.393 0 01-.217-.277l-.118.036h-.08c.1.283.084.451-.03.385h-.08c-.118 0-.224 0-.076.163 0 0-.027.084-.038.084h-.046a.169.169 0 01-.063-.075.31.31 0 01-.028-.117c0-.079.038-.313.087-.32.05-.005.16-.12.134-.24l-.027-.102-.023-.067c-.018-.034-.043-.058-.07-.066a.086.086 0 00-.082.024l-.03.06-.084.157c-.114.15-.202.313-.194.36a.548.548 0 01-.053.2.3.3 0 01-.11.126c-.115.066-.4-.048-.316-.127.11-.116.211-.253.3-.409 0-.042-.038-.156-.118-.168l-.03.036-.103.132c-.102.18-.197.253-.209.157a3.84 3.84 0 00-.053-.343.284.284 0 00-.05.132c0 .072-.083.235-.129.163l-.042-.036c-.076-.073-.022-.386-.205-.241l-.133.102c.103.12.163.295.137.391h-.24c-.118 0-.152.115-.103.217.05.102.141.066.206 0 .025-.03.056-.048.087-.048.03 0 .08 0 .084.042.004.042.019.15 0 .174a1.13 1.13 0 01-.21.145c-.224.168-.402-.109-.615-.109h-.042c-.053-.15-.126-.204-.164-.132-.038.072-.129.072-.125-.18l-.236.306-.068.09c-.19-.041-.354 0-.38.055-.027.054-.096.168-.168 0a1.519 1.519 0 00-.696-.433l.034.084c.05.114.057.114.206.036l.129-.066.19-.078c-.046-.163-.14-.223-.21-.133h-.144c-.064.084-.049.427.035.752l-.168-.162a.213.213 0 00-.08-.071.139.139 0 00-.093-.01.178.178 0 00-.086.053.32.32 0 00-.064.106l-.053.09a.758.758 0 00.25.187c.073 0-.14.265-.22.18-.08-.084-.197-.463-.255-.463-.057 0-.22.217-.224.138a1.067 1.067 0 00-.202-.42c-.087-.11-.422 0-.403-.11.02-.107 0-.396-.064-.402-.19.114-.376.249-.556.403-.03 0-.125.054-.148 0v-.036c0-.157-.072-.187-.156-.145-.026 0-.045.145-.026.205l.026.114c.041.06.09.106.141.136.053.03.108.043.163.039.11 0 .339.186.312.222a2.655 2.655 0 01-.76 0l-.266-.343a.166.166 0 00-.074.085.322.322 0 00-.025.138l.034.054.023.036c.042 0 0 .127-.1.295-.098.169-.38.548-.38.421 0-.126-.06-.463-.106-.463s-.194.048-.201.114c-.008.067-.08.199-.134.12a1.709 1.709 0 01-.17-.45.293.293 0 00-.132-.169.155.155 0 00-.17.018l.13.223c.046.072.042.198.05.3.007.103-.038.085-.061.085H8.99a.219.219 0 01-.06-.097.355.355 0 01-.016-.132c0-.102-.224-.229-.247-.18-.023.048-.156.186-.167.06-.012-.127-.1-.451-.18-.47l-.041.043-.084.078c-.064-.054-.057-.042 0 0h.088c.026 0 .05.084.05.162a1.084 1.084 0 01-.11.301.676.676 0 01-.176.21l-.14-.035a1.168 1.168 0 01-.4-.337l-.186-.175c.076-.204.083-.198 0 0-.084.199-.308.758-.38.716-.073-.042-.293.132-.328.157a.29.29 0 01-.201-.06c-.053-.037-.278-.06-.335.072v.126c0 .156-.068.168-.163.168-.096 0-.16 0-.153-.174.008-.175.02-.247-.11-.217-.038 0-.053.145-.095.169l-.156.09c-.198.09-.361.108-.38.048a3.977 3.977 0 00-.057-.541c-.034-.193-.434-.373-.441-.283v.072c0 .06.133.126 0 .163-.133.036-.145.066-.137.198v.157a1.193 1.193 0 00-.422-.049v.337c-.027.084-.057.15-.065.145a.52.52 0 00-.179.144c-.087.09-.216-.349-.258-.391-.042-.042-.16.066-.217 0-.057-.066-.179-.349-.232-.27l-.046.041-.163.175c-.072-.193-.16-.217-.19-.06l-.042.126v.054a.166.166 0 01-.095.032.166.166 0 01-.095-.032c-.054-.048.038-.325.03-.397-.008-.072 0-.3.042-.307.042-.006.167-.06.16-.084-.008-.024-.092-.054-.175-.054-.084 0-.286.126-.263.283.023.156.035.601-.023.601-.057 0-.216.084-.224 0-.008-.084-.057-.258-.08-.198s-.118.162-.156.084c-.038-.078-.178-.265-.194-.18.02.212.065.416.133.601l-.026.18-.038.26c.144.035.137.078-.02.102-.155.024-.505-.247-.475-.32.03-.072.213-.047.24-.126.027-.078.05-.144-.114-.084-.164.06-.513.493-.49.313.032-.197.052-.398.056-.602 0 0-.08.09-.11.229-.03.138-.152.493-.182.44l-.046-.037A.352.352 0 01.316 34l-.023-.048a1.348 1.348 0 01.057-.41c.046-.156.335-.403.289-.427-.046-.024-.11-.132-.072-.198a.334.334 0 00.004-.22.228.228 0 00-.047-.084.118.118 0 00-.068-.04c-.14-.041-.36-.144-.38-.294a2.299 2.299 0 010-.758c.05-.108-.072-.457-.053-.512l.034-.036h.091c.004 0 .027-.18 0-.222l-.19-.253c.103-.168.206-.223.228-.114.03.112.07.216.122.307.06.044.124.067.19.067s.13-.023.19-.067c.16-.163.336-.281.521-.35.065.037.305-.234.441-.312l.115.042.121.042.35-.102c.076 0 .285 0 .293.078.008.078-.14.481-.034.445.106-.036.357-.21.315-.307l-.022-.084v-.054c.04-.195.091-.384.152-.566l.232.26c.034.041.148-.037.228-.061h.057a.9.9 0 01.38.156l.16-.078.156-.072c.144-.253.25-.313.243-.138l.023.066a.269.269 0 00.049.09.15.15 0 00.069.048c.118-.03.106-.132.046-.24l-.02-.03c-.045-.067 0-.145.115-.17.13.02.257.064.38.133.09-.061.174-.14.25-.234h.126l.133.03.404-.079.076-.03c.03 0 .072-.072.08-.06l.357.361c.247-.337.51-.541.586-.457.076.084.292-.132.33-.084a.868.868 0 00.632-.247l.323.259a.3.3 0 00.215.047.365.365 0 00.203-.12l.057-.054a.337.337 0 00.282-.054c0-.042.091-.138.122-.06.03.078.057.3 0 .343a2.82 2.82 0 00-.309.367 1.51 1.51 0 00-.167.445c.016.043.04.076.069.096.028.02.06.027.09.019l.05-.049c.149-.132 0-.403.11-.517.11-.114.282-.114.27-.367.041-.109.091-.208.149-.295l.091-.108.03-.036c.096 0 .153.048.126.084-.027.036 0 .156.164.126.18-.03.356-.088.528-.174-.045 0-.091-.12.046-.126.137-.006.468.042.43.156-.052.177-.076.37-.073.566h.042c.065.036.32-.38.304-.476l-.038-.276a2.21 2.21 0 01.46 0 1.61 1.61 0 00.483-.313.465.465 0 01.442.042c0 .066.072.295.106.21a.535.535 0 01.574.072l.217.109h.034a.161.161 0 00.059-.09.278.278 0 00.006-.127l-.034-.054-.042-.066c-.08-.066-.053-.144.057-.169.11-.024.342.223.354.145.011-.078.072-.277.118-.229.045.048.24.048.262-.162.023-.21-.236-.65-.247-.518-.012.133-.084.506-.133.458a1.105 1.105 0 01-.103-.416c0-.15-.171-.409-.202-.3-.03.108.027.385 0 .463l.038.084.035.084c.03.085-.035.145-.145.127-.11-.018-.422.03-.4.138v.12a.16.16 0 01-.016.081c-.012.023-.03.037-.048.04h-.023a.576.576 0 00-.566-.048.167.167 0 01-.095 0 1.05 1.05 0 00-.331-.12c-.118 0-.194.282-.354.066-.034-.049-.19.066-.293.066h-.11a.894.894 0 00-.43-.042l-.026.072c-.076.228-.198-.139-.27.054 0 .042-.122.048-.183.048h-.243c-.084.217-.198.277-.255.138-.057-.138-.198-.493-.145-.493.054 0 .217-.078.221-.174.004-.097-.057-.29-.14-.163l-.077.042-.087.042c-.13 0-.213.055-.183.139.03.084.02.325-.102.313l-.05.048-.118.12c-.074-.083-.164-.121-.255-.108-.06 0-.16.319-.22.439l-.046-.078-.129-.217c-.175.036-.304 0-.289-.036a.414.414 0 00-.036-.182.204.204 0 00-.1-.107l-.043.042-.095.097c-.087.174-.167.234-.171.138-.004-.096-.099-.349-.19-.349s-.308.042-.244.102c.065.06.183.265.061.295l-.03-.036-.22-.247c-.157.235-.35.367-.434.307-.084-.06-.304-.283-.232-.3.072-.019.217-.103.201-.17-.015-.065-.24-.336-.24-.276s-.075.27-.17.283c-.095.012-.38.084-.346.15a.393.393 0 01-.004.168.254.254 0 01-.069.127c-.08.036-.24 0-.201-.144.038-.145-.263-.355-.263-.253 0 .102-.053.355-.121.313a.501.501 0 00-.324 0c-.057 0-.266 0-.296-.12-.03-.12.11-.554.026-.68l-.072-.079-.152-.18c-.072.18-.156.3-.183.27-.026-.03-.098-.222-.026-.252l.046-.054c.114-.126.155-.247-.05-.3a.1.1 0 01-.05-.049.203.203 0 01-.022-.084c0-.042.045-.103.08-.12l.087-.043c.118-.03.217 0 .217 0a.774.774 0 00.198.32v-.091c0-.24.178-.205.262-.313l.122-.156c-.118-.139-.042-.235.167-.223.21.012.483-.547.449-.602l-.133.12a.893.893 0 01-.59.223l-.121-.138-.141-.15c0 .132 0 .246-.046.264a.666.666 0 01-.361-.228l.152-.211c.11-.15 0-.18-.053-.235-.053-.054-.069-.18 0-.246.068-.066.06-.163.023-.29l-.038-.077c.106-.175.144-.35.087-.391-.057-.043.05-.253.069-.29.019-.035.034-.138 0-.156-.035-.018-.1-.168-.02-.258l.05-.09.053-.097c.05-.138.133-.223.187-.192.053.03.17.156.144.192h-.023c-.163 0-.35 0-.163.301 0 0-.042.09-.046.138v.073a.193.193 0 00.065.102.09.09 0 00.091.012l.042-.054.053-.073c.038-.114.179-.126.308 0 .238.032.478.008.711-.072.092 0 .316-.15.278-.276-.038-.127-.29-.313-.282-.361h.023a1.07 1.07 0 01.126-.139c.045-.042.125-.132.133-.12l.182.229c.051-.145.121-.27.206-.367a.4.4 0 01.095.13.632.632 0 01.053.182l-.122.103a.24.24 0 01-.205.072c-.087-.066-.167-.18-.228 0-.02.054.057.192.114.252l.068.079c.114.046.234.02.335-.073l.05-.108.045-.102a.43.43 0 01.05-.172.217.217 0 01.102-.099c.087-.007.174-.025.259-.054a.186.186 0 00-.107-.072c-.057 0-.17-.096-.11-.15.061-.055.164-.313.061-.446-.103-.132-.494-.247-.464-.144.03.102 0 .355-.087.379-.088.024-.282-.277-.225-.295a.476.476 0 00.135-.214.782.782 0 00.036-.297l-.25.222-.046.036c-.1-.084-.152-.168-.118-.18h.023c.125-.127.148-.433.38-.373a.349.349 0 00.034-.163.169.169 0 00-.051-.06.097.097 0 00-.063-.018l-.133.054c-.145.079-.262.217-.262.301 0 .084-.042.319-.1.331-.056.012-.155-.072-.053-.24.103-.17-.137-.56-.334-.428l-.187.097H5.39c-.088-.139.091-.44.4-.674h.345c.02 0 .061-.103.057-.15l-.03-.38c.167.075.34.104.513.084l.034.157.035.174c.133.067.243.042.243-.054s-.057-.355-.133-.355a.631.631 0 01-.38-.162c-.061-.096-.134-.433-.19-.488-.058-.054-.183-.246-.21-.21-.026.036-.076.168-.023.18.141.085.26.242.339.445h-.293a.121.121 0 00-.091 0 .682.682 0 01-.445.097h-.046a.23.23 0 01.02-.189.102.102 0 01.037-.034h.118c.088.078.16.084.16 0s-.053-.289-.114-.295a.858.858 0 01-.247-.072.876.876 0 01.167-.216c.084-.085.38-.199.38-.29 0-.09.088-.396.107-.324.021.077.037.158.045.24l-.022.06v.121c.037.043.083.064.129.06l.099-.072a.124.124 0 01.068-.047c.025-.006.05 0 .074.015a.17.17 0 01.059.073c.015.032.024.07.027.11l.137.054.114.048c0-.133.042-.241.084-.235h.152c.014.003.029 0 .042-.008a.101.101 0 00.035-.039.179.179 0 00.019-.06.217.217 0 00-.001-.067l-.038-.079-.122-.258c-.114.162-.205.246-.205.186a.724.724 0 01.093-.212.43.43 0 01.139-.137c.125-.072.452.133.486.084.035-.048.149-.168.073 0-.076.169-.141.554.038.68l.038-.042.133-.162c.137.126.247.156.243.066a6.59 6.59 0 00-.163-.644l.232-.084h.034c.027-.15.06-.21.072-.12.012.09.1.288.171.288.073 0 .259-.03.236-.06a.163.163 0 01-.015-.047.198.198 0 01.01-.102.115.115 0 01.024-.037h.03l.073.036c.091.078.175.102.186.048.012-.054.03-.199.038-.229.094-.095.207-.13.316-.096.163.042.479-.096.323-.229l-.137-.138c-.03-.04-.069-.061-.108-.061-.04 0-.078.021-.109.061l-.038.036c-.072 0-.125-.084-.11-.162v-.12a.107.107 0 00-.027-.06.042.042 0 00-.045-.013.791.791 0 00-.213.217c-.076.096-.358.288-.38.21-.023-.078-.088-.222-.153-.162H8.31c-.076-.114-.175-.182-.28-.193-.105-.011-.209.036-.294.133H7.63a.345.345 0 00-.211-.077.345.345 0 00-.211.077c-.046.042-.13 0-.187.054l-.163.102a1.811 1.811 0 00-.662-.102h-.171a.411.411 0 01-.236-.072l-.114-.09-.338.156-.08-.066-.038-.03a2.192 2.192 0 01-.848 0l-.346-.049c-.38-.048-.761-.102-1.141-.126-.141 0-.305-.084-.434.096l-.019.03a3.584 3.584 0 01-.38-.294l-.145.066-.144.066c-.194-.192-.38-.319-.38-.277 0 .042-.077.078-.107-.036-.03-.114-.285-.144-.3-.096-.016.048-.08.036-.096-.139l-.193.037a.597.597 0 01-.316-.127H.32c-.045-.054-.06-.126-.03-.162.03-.036.072-.18 0-.223l-.06-.066c-.134-.144-.138-.253 0-.361l.167-.132c.052-.128.077-.28.072-.431a1.01 1.01 0 00-.1-.418c-.12-.204-.159-.938-.216-.95-.057-.012-.179-.09-.122-.169v-.144a.426.426 0 01-.021-.18.362.362 0 01.052-.163c.128-.15.261-.29.4-.415.079-.072.501-.235.463-.331l-.038-.06a1.086 1.086 0 00-.194-.217l-.205.223a.726.726 0 01-.016-.3c.016-.1.052-.19.103-.254.11-.162.453-.307.472-.204.019.102.281.222.342.385l.126-.042.106-.043a.293.293 0 00.14.133.118.118 0 00.077-.054.259.259 0 00.042-.115h-.03l-.115-.108c-.137-.096-.236-.235-.22-.313.076-.14.18-.231.296-.259h.282c.205 0 .32-.12.254-.264l.172-.066a.095.095 0 01.098 0l.038.054c.03.072.073.102.092.072L3 10.493l.205.108a.995.995 0 00.711 0l.21-.054c.159-.259.315-.373.35-.265l.048.06a.487.487 0 00.172-.084l.129-.144c.13-.114.243-.169.259-.12.015.048.08.108.117.036.038-.073.172-.235.21-.187a.851.851 0 00.566.114c.228-.042.76-.168.723-.33l.099.042c.114.048.17-.337.254 0 0 .036.023.108.035.108.258 0 .505.12.76-.12l.24-.217c.281.023.563.023.844 0 .122 0 .441.162.483.132l.03-.036a.993.993 0 01.471-.281.78.78 0 01.503.047c.027 0 .065.084.072.078l.11-.09c.095-.102.21-.147.324-.127.065.036.201-.198.217-.234a.838.838 0 01.38.072c.114.036.426-.163.483-.102.057.06.304-.163.403-.217h.206l.175-.048c.17-.043.34-.1.506-.169.16.025.318.086.468.18.084.037.236-.174.232-.065-.004.108.194-.169.236-.313l.106.12a.3.3 0 00.157.105.228.228 0 00.17-.027l.194-.18c.091.168.167.21.167.09s.225.054.244 0c.019-.054.102-.144.11-.072a.312.312 0 00.08.15.14.14 0 00.122.042h.285l.072-.072a.348.348 0 01.119-.16.178.178 0 01.155-.026h.407c.102 0 .224 0 .243-.21V7.96a.69.69 0 01.346.12h.061l.168.066c.049-.222.129-.294.174-.162l.065.036a.252.252 0 00.27 0c.069-.054.087-.216.156-.3.068-.085.122.035.175 0l.087-.037.187-.132.06.072c.099.108.208.19.324.24l.072-.09.247-.3c.29.014.577.103.848.264l.038-.313s.023-.036.038-.042c.206-.036.426.079.624-.108.034 0 .145.066.217.108l.167.115a4.64 4.64 0 01.449-.271h.019c.14.204.259 0 .38 0 .137.021.274.021.41 0a.73.73 0 00.309-.157c.057-.048.072-.204.125-.222.126-.048.1.114.134.198.036.04.08.058.125.049l.19-.277h1.35a.897.897 0 01.521-.313c.042.054.206.18.251.132.046-.048.202-.132.21-.042.007.09.11.421.209.47.099.048.262-.343.296-.368h.027l.281.12c.222-.23.47-.389.73-.468l.164-.055c.118-.036.259.229.38-.054.023-.06.149-.072.228-.078h.605c.08.066.162.12.247.162l.065-.09.635-.313.285.079h.023c.027 0 .057-.06.069-.145.01-.084.224.036.3 0a.534.534 0 01.323 0c.088.048.38-.078.54.054l-.026.271v.048c.03.06.098 0 .152-.192a.837.837 0 01.381-.25.63.63 0 01.413.021l.255-.27.038-.043c.107.043.212.101.312.175V5.45c.038 0 .202-.036.38-.054.218.045.434.111.647.198l.027-.03.098-.108.252.054c.09 0 .083-.283.258-.168.069.048.236-.066.27 0 .034.066.213-.199.27.054.042.02.087.02.13 0l.106-.126c.127.011.253.011.38 0 .08 0 .358-.109.46-.109.175-.027.35-.01.521.054h.183a.62.62 0 00.285-.258l.084.054.083.054c.096-.078.172 0 .168.18l.023.12.045.302a.955.955 0 00.502-.343l.069-.085a3.35 3.35 0 01.403-.433l.152-.132c.223.11.452.185.684.223l.194-.043h.038a2.95 2.95 0 01.29-.282l.03.042.213.295a.588.588 0 01.204-.257.314.314 0 01.26-.044c.214.145.439.244.669.295v-.392l.312-.072c.084 0 .274 0 .255.109-.02.108.228 0 .289 0 .06 0 .144-.235.201-.271l.042-.048c.11-.12.156.252.297.048.053-.084.224-.054.338-.036.108.028.215.068.32.12.03.017.064.017.095 0l.091-.078a.637.637 0 01.342-.139h.259c.201.103.407.193.456.205.05.012.164-.126.206-.078.041.048.3-.115.498-.12a3.3 3.3 0 00.916-.476c.133-.102.544.12.601.066h.145a.572.572 0 00.312-.054V3.64c0-.03.007-.06.018-.086a.13.13 0 01.044-.057.069.069 0 01.057-.01c.02.005.037.018.052.039l.24.283c.14-.241.246-.307.235-.157l.171-.072a.51.51 0 01.232-.072c.164 0 .338.168.449-.127a.864.864 0 01.167.073.1.1 0 00.072 0 .405.405 0 01.38-.109c.126 0 .255-.042.381-.054.126-.012.251 0 .38 0h.034a1.01 1.01 0 00.438-.09l.179-.078s.053.12.09.168h.024a.44.44 0 00.186-.114 2.85 2.85 0 00.966-.385l.407.264c.068.043.182 0 .274-.042a.359.359 0 01.175 0l.315.09c.084-.204.202-.342.263-.306.06.036.27.078.292 0 .023-.079.312 0 .38-.079.07-.078.415.157.575.169h.205c.061-.12.122-.18.137-.138.016.042.164 0 .29-.193l.144.108a.885.885 0 00.582.115h.25a.79.79 0 01.575-.193c.122.048.441.24.487.163l.057-.037c.11-.072.27.223.353-.072.084-.295.221.066.3-.102a.553.553 0 01.168.042h.061a1.21 1.21 0 00.464-.216l.21.09a.176.176 0 01.038-.077.082.082 0 01.06-.03c.021 0 .042.01.06.03a.175.175 0 01.039.077h.05c.06 0 .14-.084.2-.145.062-.06.077-.126.153 0 .076.127.346-.066.456.187a1.15 1.15 0 00.29-.259h.331c.177-.045.358-.045.535 0v.054c.023.163.092.145.18.103.087-.043.186-.235.36-.163l.118.048a2.73 2.73 0 00.605-.403l.167.277c.096-.08.186-.175.27-.283l.095.145a.314.314 0 00.125.12.193.193 0 00.145.012h.11a.413.413 0 00.301-.12c.046-.06.19-.199.224-.157.035.042.153.139.164.09.022-.028.05-.044.078-.044.029 0 .056.016.078.044.06.067.262.211.266.139.004-.072.149-.21.304-.133l.183-.138.163-.126c.077-.115.153-.127.172 0v.126c0 .084.045.108.068.054a1.13 1.13 0 01.33-.349l.107.217c.037.045.083.068.13.066a.285.285 0 00.175-.078h.026c.03-.084.057-.102.065-.042.007.06.053.24.084.252l.114-.132c.226.034.45.098.669.193l.08-.367a.072.072 0 01.068 0l.22.246c.172-.156.358-.268.552-.33.1 0 .38.065.43-.055.05-.12.434.042.551 0l.08-.084a.237.237 0 01.15-.109c.057-.01.113.01.162.055.137.168.202.054.297-.042h.026c.069.03.11.084.092.114-.02.03 0 .168.09.199l.062-.037c.103-.054.148-.21.247-.306l.148-.145c.103.078.213.108.244.06a.305.305 0 01.144.115l.027.06c.126.016.254.016.38 0l.076-.096.133-.18a.373.373 0 00.43.042l.122-.049s.064.036.076.072c.011.036.076.199.087.078l.027-.258c.148.048.298.08.449.096.21-.067.41-.193.593-.373l.114.174a.36.36 0 01.21.037c.052.036.2-.085.246-.055.046.03.198.085.206 0 .008-.082.022-.162.041-.24a.12.12 0 01.03.04.192.192 0 01.016.056.906.906 0 00.08.259c.11-.085.217-.18.323-.277a.385.385 0 01.126-.084c.144 0 .281.156.437 0h.023c.125.15.236.222.243.156.008-.066.061-.265.095-.222a1.55 1.55 0 00.616-.103l.274.157c.055.003.11-.025.152-.079V.271c.164-.042.305 0 .316.06a.4.4 0 00.19.157.27.27 0 00.213-.013 3.056 3.056 0 011.027 0L77.91.41a.226.226 0 01.258 0c.165.033.33.033.495 0a.1.1 0 01.095 0c0 .072.034.072.08 0 .045-.072.304 0 .38.15l.087.115h.02a.239.239 0 00.121-.235h-.11c-.02-.132 0-.222.03-.204.07.044.133.114.183.204l.046.042a.227.227 0 00.163.085c.194-.03.388.044.551.21l.213.193c0-.241.077-.337.153-.21.12.344.22.706.296 1.082l.297.054h.118c.099 0 .106.127 0 .295l.24-.072.174-.054a.26.26 0 01.121.147.509.509 0 01.028.238l.034.072.106.21c.16.235.22.446.137.47a1.54 1.54 0 01-.445-.12c-.068 0-.217.348-.167.318a.302.302 0 01.19-.036c.026.14.04.287.038.433 0 .199-.19.692-.16.704.03.012.13.12.072.175-.056.054-.224.295-.224.379 0 .084-.027.397-.057.367a.071.071 0 00-.046.003.103.103 0 00-.042.032.178.178 0 00-.029.057.258.258 0 00-.012.07c0 .139.24.53.205.602v.078c-.05.205-.03.464-.262.524-.023 0-.061.126-.046.156l.084.163c.106.174.099.306-.023.282l.034.26.038.276c0 .319-.034.601-.091.565l-.023-.042-.072-.108a1.962 1.962 0 00-.198-.355c-.042-.06-.144.126-.13.21l.096.049c.026.013.048.04.063.076a.283.283 0 01-.012.237.12.12 0 01-.07.06c-.103.036-.202.307-.338.054h-.069a1.527 1.527 0 01-1.012.216c-.106 0-.235.127-.304.085l-.08-.06c-.064-.211-.121-.211-.133 0l-.053.048a.804.804 0 01-.403.18h-.168a.622.622 0 00-.486.139c-.076.09-.304-.139-.32-.139l-.209.108a2.12 2.12 0 00-.795.163l-.17-.048-.157-.042a7.75 7.75 0 00-.418.126.808.808 0 01-.506-.108l-.156.156c-.083.078-.247-.06-.38-.09l-.167-.048c-.202.102-.38.258-.38.349 0 .09-.187.15-.19.054-.005-.096-.043-.355-.066-.35-.022.007-.056.103-.08.205-.022.103-.041.38 0 .404.043.024.111.15.031.198-.08.048-.25-.247-.3-.3h.03-.513c-.053 0-.149-.06-.152-.097 0-.156-.08-.217-.156-.15H72.8c.03.15 0 .258-.084.24-.084-.018-.217.307-.316.391l.145.163.137.15c.083-.108.182-.156.216-.114a.403.403 0 00.18.138c.052-.102.094-.216.151-.319.057-.102.061 0 .095 0h.18c-.062.133-.062.235 0 .223.06-.012.094.21.098.217.004.006.057 0 .091-.109.035-.108.164-.306.232-.252.148.095.299.176.453.24l.106-.078c.072-.041.14-.093.206-.156.083-.103.026-.193-.038-.277 0 0 .038-.078.068-.09a.071.071 0 01.044.004.104.104 0 01.04.032l.023.162c0 .199.087.337.16.32l.03-.043.121-.156.514.126.084.12c.076.108.075.108.129-.096a.338.338 0 01.117-.157.172.172 0 01.153-.024c.058.03.115.066.17.109h.043c.05.06.148 0 .22-.085l.069-.09.114-.15c.09.137.192.25.304.337l.03-.127.073-.276c.174.047.351.067.528.06h.152c.165.041.327.107.484.198l.228-.216.156-.145c.106.187.224.283.262.211.038-.072.38 0 .468 0 .211-.093.414-.233.6-.415l.046.307v.144a.924.924 0 00.22-.162.137.137 0 01.09-.036c.031 0 .062.012.09.036a.656.656 0 01.097.202.905.905 0 01.036.249c0 .156.038.601.163.601h.095a.135.135 0 00.107 0c.197-.132.194-.132.289 0l.099.103a.37.37 0 01.107.208.544.544 0 01-.016.267v.247a.72.72 0 00.33.264l.1-.072.041-.036c.023-.108.08-.174.134-.144.053.03.186.21.156.313l-.046.03-.126.09a.405.405 0 01-.338.054c-.034-.042-.16-.066-.19.048a2.79 2.79 0 00-.076.434.091.091 0 00.049-.03.173.173 0 00.034-.06c.023-.067.1-.23.118-.217.04.09.06.197.061.307 0 .138-.05.457-.114.39-.065-.066-.21.169-.289.271h-.106c-.03 0-.076.085-.073.127.004.042.042.114.08.126h.061c.076 0 .099.12.05.289l.03.036.182.24c-.104.085-.21.162-.32.23-.022 0-.045.107 0 .204.047.096.279.397.275.601-.019.284-.05.566-.095.843a.039.039 0 01-.025.01.039.039 0 01-.025-.01h-.023c-.026-.03-.14.072-.25.222v.271c.08.199.182.445.228.542.045.096.057.415-.11.42h-.126c-.145.03-.282.097-.422.121-.141.024-.278 0-.411 0-.133 0-.342.15-.38.078l-.137-.186a3.232 3.232 0 01-.438.319l-.156-.073-.129-.018c-.16 0-.277-.03-.258-.114.019-.084 0-.343-.11-.343-.111 0-.358.066-.358.15a.416.416 0 01-.083.19.186.186 0 01-.138.075 1.487 1.487 0 00-.46.229h-.05a.94.94 0 00-.589 0 2.29 2.29 0 01-.612 0h-.091c-.115.055-.234.09-.354.102h-.084c-.09-.03-.243-.114-.266-.072-.103.162-.16 0-.236 0-.076 0-.178.114-.266.114-.087 0-.179-.12-.266-.114h-.16a7.05 7.05 0 01-.566.162l-.137-.12c-.069-.06-.225.054-.343.06a4.5 4.5 0 00-.76.097h-.046c-.114.026-.23.038-.346.036H72.1a2.675 2.675 0 01-.456 0h-.05a2.08 2.08 0 00-.418.132c-.13.066-.22-.192-.343-.048-.121.144-.136-.175-.228 0-.038.066-.19.03-.289.036h-.669a.514.514 0 00-.304 0l-.149.102a1.412 1.412 0 00-.551-.15l-.144.042a1.215 1.215 0 01-.64 0l-.163-.036a.847.847 0 01-.654 0l-.194.138c-.13.096-.335 0-.506 0l-.33.042c-.26.057-.524.057-.784 0-.069-.054-.289-.06-.426-.12l-.08.114a.377.377 0 01-.156.11.273.273 0 01-.17.005h-.887a.303.303 0 01-.323 0c-.061-.067-.255.102-.312.06-.057-.042-.266.066-.327.06-.06-.006-.464.048-.76.102l-.229-.108-.163-.078a.71.71 0 00-.29.253c-.034.078-.357.036-.498 0h-.194c-.083.048-.057.114.054.156l.095.066.095.066c.103.109.118.157.034.115-.084-.043-.338.144-.335.264l.03.109a.236.236 0 00.134.12l.232-.253c.208.242.461.365.719.35h.27c.057.035.11.03.125 0s.057-.17.072-.17c.05.02.098.047.145.079.057 0 .224-.144.24-.27l-.023-.115c-.046-.253-.122 0-.145 0-.152-.187-.224-.18-.296.102l-.042.163c-.187-.037-.274-.097-.194-.145l.057-.066s0-.132-.042-.162l-.042-.049c-.06.037-.083 0-.05 0a.234.234 0 01.183-.072c.057 0 .206-.06.259 0 .053.06.289-.078.357-.096a.773.773 0 01.267 0s-.03.126-.118.175l-.042.072c-.042.084-.072.246-.038.294.034.049.209.211.266.175l.171-.114c.074.097.153.186.236.264.127.003.254-.009.38-.036l.126.187a.175.175 0 00.194 0c.083-.06.144-.21.232-.235h.076c.099.072.25.175.342.229.091.054.437-.054.593.036l.164-.12.038-.03c.068 0 .133-.043.14-.109.008-.066.1-.144.183 0 .167-.12.266.307.46.072l.076-.09c.15.009.297.064.434.163l.087-.115a.28.28 0 01.186-.116.241.241 0 01.195.074.6.6 0 00.543 0c0-.06.05-.223.088-.216l.038.15c.05.265.121.397.163.3.042-.096.16-.27.187-.198.03.053.069.09.112.107a.147.147 0 00.131-.01c.099-.088.203-.156.312-.205 0 .036.03.132.072.132h.076c.09 0 .181.012.27.036.122 0 .51-.042.57.06.062.103.244.26.27.157a.332.332 0 01.068-.109.185.185 0 01.09-.054.146.146 0 01.097.011c.03.015.06.04.084.074l.194-.096h.061a1.04 1.04 0 00.262-.247l.107.138.038.042h.099c.042 0-.038-.288-.323-.469l-.255-.09H70.3a.165.165 0 01-.022-.056.218.218 0 01.013-.125.114.114 0 01.032-.042h.053a.431.431 0 01.152 0h.16c.06.061.131.094.203.094a.288.288 0 00.204-.094l.099-.114.045-.054c.126 0 .202.078.172.156-.03.078-.118.235-.145.199h-.027c-.045 0-.102-.06-.136-.036a.157.157 0 00-.04.066.247.247 0 00-.01.09c.046.136.102.264.167.38a.23.23 0 00.051.078c.02.02.043.034.067.04a.109.109 0 00.071-.01.167.167 0 00.062-.055l.05-.048c.06.011.12.003.178-.025a.432.432 0 00.156-.137l.08-.12c.046 0 .084.048.084.072a1.06 1.06 0 000 .216c0 .066.118.193.126.06l.022-.084a.202.202 0 01.037-.072.105.105 0 01.055-.036c.02 0 .04.009.059.023a.179.179 0 01.047.061l.046.144c.041.18.11.175.148 0h.186c.206.021.411.021.617 0h.197a2.24 2.24 0 01.426-.186h.038c.061 0 .156.078.183.048.205-.235.38 0 .582.036h.102l.122-.192c.034-.049-.065-.217-.3-.271l.16-.32c.106-.216.224.14.38.157.08 0 .102-.048.148-.054.148-.012.297-.012.445 0 0 0 .03.072.026.109v.042c-.063.076-.13.143-.201.198-.088.072-.38-.03-.407.048-.027.078 0 .29.16.295h.137a.83.83 0 01.323 0c.228.16.486.177.722.048.083-.01.166.029.232.109l.03.048c.023.034.053.052.084.052.032 0 .061-.018.084-.052.034-.079.171-.235.202-.169.03.066.17.24.201.199.044-.078.081-.165.11-.259 0-.042.115 0 .153-.078.038-.078.262.253.41.409h.198l.198.03c.213 0 .43-.036.487-.03h.045l.095.042c.041.02.085.027.127.02a.238.238 0 00.12-.068c.027-.06.24.036.339.259l-.034.246-.027.205c.114.108.251.14.38.09l.107-.15c.053 0 .114.108.137.222.023.115-.217.482-.56.602h-.33c-.232 0-.224 0-.358.47l-.022.084c-.095.06-.164 0-.16-.085l-.19-.054c.042-.168.057-.343.026-.373l-.06.036h-.042c-.069-.036-.133 0-.145.06-.011.06-.095.241-.167.205l-.034-.042-.076-.084a.236.236 0 00-.079.11.411.411 0 00-.024.16h.11l.202.043a3.803 3.803 0 01-.171.535l.09.066a.369.369 0 00.172-.09c.052-.052.1-.112.145-.18a.305.305 0 00-.019-.093.2.2 0 00-.042-.07.625.625 0 01-.118-.144.166.166 0 01.148 0c.072 0 .263.138.263.198.008.053.027.1.054.133.026.034.06.053.094.054.08 0 .289.054.27.18-.02.127-.103.367-.167.355-.065-.012-.153.078-.054.229l.076.138.088.157c.14.162.209.36.152.439l-.061.06a.196.196 0 01-.14.06c-.163 0-.326-.024-.491-.072h-.046a5.188 5.188 0 00-.122-.8l-.038.048c-.057.078 0 .295-.17.24a1.523 1.523 0 01-.278-.084c-.057-.036-.092-.138-.149-.174a.107.107 0 00-.069-.002.146.146 0 00-.064.044.298.298 0 000 .168l.22.06c.165.116.337.197.514.241l.027.036.057.078a.997.997 0 00.171-.306v-.223c-.08.078-.354.41-.608.74l-.213.078h-.02a1.767 1.767 0 01-.083-.475l-.232-.054c-.034-.036-.023-.15.023-.253l.026-.108a.24.24 0 00-.013-.092.143.143 0 00-.044-.065c-.034 0-.087 0-.133.043 0 .33-.053.601-.076.565a3.87 3.87 0 01-.25-.415l-.27.108-.07.03a.49.49 0 00-.136-.036c-.034 0-.103.078-.084.157l.034.06a.501.501 0 01.217.216c.076.12.137.602.053.602-.083 0-.285-.44-.437-.632l-.152-.048-.281-.09c.098-.193.148-.307.102-.253h-.042c-.076.03-.22.048-.152.157.069.108-.034.294.103.397l.163.114c.187.139.274.247.202.24l-.05.043-.163.12a.617.617 0 00-.437-.12c-.08.036-.324.078-.335 0-.011-.078-.06-.325-.076-.229-.02.117-.048.23-.084.337h-.019l-.194.06a6.7 6.7 0 01-.612-.126c-.122-.036-.593.204-.825.21l-.179-.222c-.042-.06-.202 0-.278 0l-.308.216c-.144-.156-.266-.198-.266-.09 0 .109-.304 0-.38-.054-.076-.054-.304.24-.346.15l-.027-.078-.026-.072c-.042-.162-.077-.168-.077 0 0 .169.084.457.183.421.19-.006.378.06.548.193l-.034.18-.442-.108c-.095 0-.148.18-.293.048l-.117-.108a1.52 1.52 0 00-.145.421c.016.04.039.071.066.091a.11.11 0 00.086.023l.027-.39c.198.102.426.234.51.282.083.048.288.163.353.084.079-.095.151-.201.217-.319h-.061c-.057 0 .03-.156.198-.349l.209-.042c.114 0 .228.042.338-.078.038-.042.16.066.248.072a.871.871 0 00.235-.054c.061 0 .137-.072.175-.048l.141.114c.204.023.405.09.597.199l.023.247s.072 0 .125-.079c.054-.078-.125-.324-.148-.355-.023-.03.053-.072.29.067l.17-.23.023-.03c.078.05.151.117.217.2.042.053.22-.03.255-.03.06.03.12.07.175.12.057.054.281 0 .38.06l.103-.054.053-.03a.433.433 0 00.19-.103c.03-.042.213.12.266.175.053.054.38-.15.38-.103a.365.365 0 00.38 0l.08.06.126.097a.455.455 0 01.088-.223.63.63 0 01.315.072l.133-.102c.145-.108.274.108.445.054a.749.749 0 01.449.103h.05c.155.008.31-.009.463-.049.252-.06.509-.06.761 0 0 .073-.114.247-.255.26-.14.011-.422.8-.346.733l.034-.042c.054-.06.1-.12.149-.186l.06-.09c.084 0 .16 0 .172-.049.011-.048.205 0 .22.036.015.036.145.15.19.03v-.042c-.137-.487-.099-.601.282-.776.099-.054.17-.21.27-.252l.106-.043c.137 0 .255.097.263.169.007.072.057.258.08.229a.086.086 0 01.075-.02c.026.007.05.026.069.056v.03l-.057.15c-.07.125-.113.28-.126.445h.058a.394.394 0 00.167-.198c.03-.079.13-.29.14-.21.012.077.103.276.19.276.088 0 .381-.157.415-.35l-.236-.035-.235-.042c0-.271.053-.457.09-.403a.61.61 0 00.381.168l.114-.036h.057c.061-.102.134-.114.168 0s.05.361-.084.27h-.08a.101.101 0 00-.07 0 .144.144 0 00-.063.049c-.023.03 0 .126 0 .168 0 .043.103.175.145.163l.25-.042c-.022.282.035.433.122.33l.179.187a1.38 1.38 0 01.281-.44c.202.021.401.07.597.145l.122-.168c.061.042.095.096.08.12-.015.024-.046.15.034.139.08-.012.293 0 .3.03.008.03.046.216.065.21.02-.006.046-.078.057-.15.012-.072.206 0 .263.036.096.27.159.566.186.872 0 .163.16.602.266.602l.092.042c-.02.09-.05.157-.069.138-.019-.018-.114 0-.125.103-.012.102-.133.33-.248.319-.114-.012-.327.367-.258.385.068.018.38 0 .38.036.04.086.069.184.084.289a.143.143 0 01-.066.057.094.094 0 01-.075-.003l-.045-.042c0-.073-.05-.103-.1-.073-.049.03-.132.193-.053.283.08.09 0 .415 0 .361a.105.105 0 00-.025-.043.051.051 0 00-.035-.015.051.051 0 00-.036.015.104.104 0 00-.025.043c-.03.108-.274 0-.32.078-.044.045-.097.063-.148.05-.052-.012-.1-.053-.133-.116l-.171.072h-.027c.006.072.022.14.048.2.026.06.06.109.1.143l-.064.163v.042c.068.12 0 .234-.122.247h-.11l-.187-.049c-.026.187-.11.241-.182.12v-.487c-.168.12-.278.26-.24.313.038.054.092.217.073.295-.027.111-.058.22-.092.325-.095.01-.19.01-.285 0h-.677l-.068.12-.08.145a.422.422 0 00-.38 0c-.084.054-.38-.06-.514 0-.233.069-.47.097-.707.084l-.1.168h-.098c-.03 0 0-.3-.163-.24-.054 0-.069.186-.126.228-.09.042-.181.076-.274.103-.087.048-.228.192-.24.174-.09-.144-.144-.036-.231 0l-.168.072a9.174 9.174 0 00-.422-.367c-.076-.06-.209.301-.24.373-.03.073-.266 0-.35.103-.083.102-.402-.193-.494-.247-.09-.054-.498.21-.76.223l-.24-.079-.102-.036a.37.37 0 00-.267.073c-.038.042-.209-.06-.243-.085-.034-.024-.327-.054-.586-.096-.33-.005-.66.068-.977.217 0 .054-.061.294-.076.204s-.091-.33-.137-.337a2.428 2.428 0 00-.544.109l-.201-.181-.088-.084a.917.917 0 01-.54.096l-.091.048-.076.048-.426-.03h-.208a.123.123 0 00-.113-.026.178.178 0 00-.1.086c-.027.085-.137.337-.149.313a17.773 17.773 0 01-.152-.403l-.121.054-.183.09c.1.124.189.27.262.434.042.102-.156.33-.235.264a.518.518 0 00-.453-.102c-.087.084-.354.217-.304.27.05.055.194.163.209.121l-.046.12c-.064.163 0 .602-.09.602-.092 0-.343.24-.343.175 0-.066-.034-.265-.072-.271a.569.569 0 00-.202 0c-.038 0-.042.192-.034.229.007.036-.034.096-.122.054l-.053-.066-.03-.043a.59.59 0 01.044-.162.385.385 0 01.08-.12c.066-.06.221-.277.176-.337a.826.826 0 01-.091-.367c.016-.137.043-.27.08-.397a.227.227 0 01.107-.07.172.172 0 01.117.01c.03.042.144.138.17.12v-.03l.085-.18c-.067-.206-.182-.36-.32-.434l-.099.126c-.026.037-.095 0-.14.043l-.13.048-.293-.15a.405.405 0 00-.224.126c-.068.06-.441-.085-.525 0a.93.93 0 01-.574 0h-.076l-.213-.127a.63.63 0 00-.236.175c-.08.09.057.547 0 .68a1.844 1.844 0 00-.057.541c0 .066-.17 0-.27-.042l-.095-.03h-.106a.47.47 0 01-.13-.16.775.775 0 01-.076-.231c0-.114-.08-.433.027-.481.106-.049.38-.073.327.042l-.027.084c-.03.093-.055.19-.076.289v.072a.23.23 0 00.05.106c.023.026.051.04.08.038l.034-.03.25-.21c-.033-.38-.205-.674-.38-.656l-.155.054-.118.048c-.11.011-.221.011-.331 0h-.05c-.133-.036-.14 0-.095.138l.034.133a.211.211 0 00-.109.097.432.432 0 00-.054.18c0 .108-.042.39-.095.355v-.212c0-.205-.034-.367-.084-.367s-.17.084-.152.186c.02.103-.038.41-.137.464a.673.673 0 01-.418-.15.603.603 0 01-.13-.296c0-.09-.072-.355-.163-.39a.588.588 0 00-.35-.043v.35l-.057-.079zm-.118-6.775c-.106 0-.167-.096-.14-.228h-.13c-.038 0-.087.078-.121.132l-.054.078c-.05.097-.125.139-.17.09-.046-.048-.183-.132-.183-.054 0 .079.08.277.17.277a.614.614 0 01.381.127c.023.072.148.198.217.138.068-.06.133-.566.03-.56zm5.324-.09c-.087 0-.136-.12-.11-.229.027-.108.069-.45.08-.51.011-.061-.224-.17-.21-.067.016.102 0 .36-.041.373-.042.012-.144.09-.13.162a.506.506 0 01-.046.206.263.263 0 01-.113.125l-.106.042-.202.079c.03.174.122.288.205.246.18.037.357.111.525.223.046 0 .198.048.198 0s.053-.205.118-.145c.064.06.258-.09.24-.174a.966.966 0 00-.411-.33h.003zm8.747-4.302c-.144-.174-.266-.379-.266-.463a.543.543 0 00-.097-.221.262.262 0 00-.158-.104l-.11.036a.647.647 0 00-.232.199v.12c0 .012.099.084.125.06.067-.059.131-.127.19-.204 0 0 .027.06.08.108.054.048 1.046.343.947.186L79.3 20.8l-.152-.072a.925.925 0 00-.476 0v.174c.037.177.088.345.152.5l.069.108c.037.045.083.067.13.06.117-.066 0-.114 0-.168v-.12c-.039-.21.037.024-.111-.145h.015zm-65.825 9.206a.396.396 0 01-.034.11.257.257 0 01-.059.08.15.15 0 01-.073.037.127.127 0 01-.077-.01c-.088-.055-.331-.121-.331 0 0 .12.072.348.163.3.092-.048.57-.602.487-.379l-.072.18-.02.049c-.037.036-.03.084 0 .096.086.03.168.072.248.126.088.06.266-.168.297-.114.03.054.125.198.144.18a.57.57 0 000-.312l-.019-.133a1.87 1.87 0 01-.03-.379v-.126c.042-.193-.061-.193-.225 0h-.038l-.129-.102a.404.404 0 00-.154.15.73.73 0 00-.093.247h.015zm44.331-10.379l-.297-.295a.773.773 0 01-.083-.258l-.027-.073a.351.351 0 00-.106-.138h-.092c-.072.174-.178 0-.262.042-.084.042-.3.09-.3.144 0 .307-.194.157-.29.23-.022 0-.034.065-.041.107-.035.21-.118.163-.21.06l-.053-.06a.163.163 0 00-.118-.056.164.164 0 00-.118.056v.018l.023.109c.095.165.21.298.339.39l.102-.03.183-.06c.182-.15.38-.162.41 0l.088.049c.072.042.198-.055.3-.079h.1l.133-.03c-.027-.126-.035-.252 0-.276.034-.024 1.045.325 1.213.343l.125-.049h.072a.72.72 0 000-.42c-.038-.091-.247-.091-.342-.14-.095-.047-.445.23-.654.26l-.057-.337a.227.227 0 00-.06-.079.129.129 0 00-.077-.03c-.118.06 0 .109 0 .163v.072a.875.875 0 01-.133.277c-.057.072.099.397.198.523l.06-.265v-.036c.05-.06.103.006-.041-.132h.015zm-17.554.47c-.114.463-.187.65-.164.415l-.05-.067a.38.38 0 00-.307-.132c-.19 0-.404-.108-.575.12h-.022a2.398 2.398 0 00-.51 0h-.259a.318.318 0 01-.156-.096.164.164 0 00-.125.021.29.29 0 00-.103.117c-.076.133-.38 0-.414.085.1.107.206.201.315.282.023 0 .073 0 .107-.03l.095-.048c.095-.054.186-.06.201 0 .016.06.065.15.1.15l.243-.114a.98.98 0 00.54-.126l.026-.036c.023-.036.057-.078.08-.072.08 0 .187.114.225.078l.205-.193c.213-.282.38-.288.38 0l.069.169a.3.3 0 00.157.07.27.27 0 00.162-.034l.14-.187a.51.51 0 00.316.169c.065 0 .244-.21.339-.133.095.079.297.392.38.355.084-.036-.019-.288.038-.33.057-.043 0-.29-.273-.416l-.26.109a.189.189 0 01-.17 0 .428.428 0 00-.235-.117.374.374 0 00-.244.056c-.118.073-.152.073-.225-.036l-.026-.03zM9.256 30.106c.232.385.297.746.141.8l-.144.078-.267.145a1.797 1.797 0 00-.24-.355c-.03 0-.117 0-.129.084v.12c.077.109.035.145-.095.073-.129-.073-.471-.06-.418.222l.171.09.24.127c.24-.145.494-.163.566-.03l.168-.084a.071.071 0 01.05 0l.208.066.38-.47c.07-.078.324-.084.347-.156l-.02-.042c-.035-.044-.08-.066-.125-.06h-.05c-.06.06-.117 0-.12-.115a2.673 2.673 0 00-.043-.439s-.08.084-.106.199a5.14 5.14 0 01-.787.601 2.4 2.4 0 00.38-.662l.179-.138c.08-.06.057-.108 0-.186-.057-.079 0-.145 0-.217v-.048c0-.054-.042-.09-.107-.09v.03l-.179.457zm46.016-10c.076 0 .114-.072.087-.144-.026-.072-.148-.204-.209-.162-.06.042-.178-.265-.217-.355h-.289c.073.108.084.246.027.306a.433.433 0 01-.38 0l-.126-.036-.11-.036c-.103-.108-.16 0-.122.175h-.251c-.057-.133-.148-.187-.205-.115-.057.073-.232.235-.247.175a.163.163 0 00-.093-.084c-.036-.01-.073 0-.105.03-.08.072-.3.216-.312.174-.011-.042-.068-.144-.095-.12-.027.024-.106 0-.118-.054-.011-.054 0-.06 0 .162l-.255-.247a.467.467 0 00-.38-.03h-.065a1.966 1.966 0 00-.17.386h-.046a.694.694 0 00-.38-.139h.01c-.045-.15-.11-.223-.14-.156-.03.066.133.373.453.511l.281.036h.65a.82.82 0 00.286-.066c.238-.054.478-.076.718-.066h.24c.224-.139.41-.054.41.18l.217-.294h.02a.665.665 0 00.319.168.656.656 0 00.403-.157h.156l.038-.042zm-9.352.71c.084-.222.08-.403 0-.409a1.771 1.771 0 00-.505 0l-.114.072a.472.472 0 00-.305.103l-.148-.078a2.072 2.072 0 00-.418-.133c-.031-.004-.062.009-.088.036-.087.133-.148.066-.255 0a.498.498 0 00-.467 0c-.107.078-.179-.18-.278.03-.038.085-.255 0-.38.036h-.027a.453.453 0 00-.027.163.24.24 0 00.087.14.11.11 0 00.123.004h.083c.095 0 .168.175.259.193.129.04.262.013.38-.078l.084-.073c.153.015.306.047.456.097.103.036.342-.15.35-.073.008.079.156.169.3-.03l.19.03h.145c.15.054.303.085.457.09l.038-.06.06-.06zm3.712-.541c0-.096-.118-.102-.262 0l-.137-.193-.095-.138a1.717 1.717 0 00-.282.259c-.038.048-.255-.15-.27-.169a.344.344 0 01-.076-.12c-.019-.054-.19.054-.247.18a.352.352 0 01-.167.088.292.292 0 01-.175-.021c.023-.037 0-.12-.1-.139-.098-.018-.307.27-.41.367l-.114-.048-.14-.054c-.172-.078-.21-.036-.088.09v.078l-.042.392c.217.066.415.066.438 0 .022-.067.136-.2.201-.151l.05.042a.373.373 0 00.248.104.373.373 0 00.25-.104l.19-.15a1.24 1.24 0 01-.168-.283.91.91 0 01.347.132l.155.097c.03 0 .077.036.08.06.004.024 0 .216.133.21h.11a.351.351 0 01.149-.198h.16c.06-.002.118-.035.165-.095a.505.505 0 00.093-.236h.004zm17.208 5.373c-.045.066-.057.132-.03.144.027.012.08.084.046.114l-.03.03h-.027c-.027.037.034.247.129.464h.186l.339.054c-.133.199-.21.349-.168.33.104-.053.203-.124.297-.21.072-.084.133-.433.099-.475-.034-.042-.16-.157-.183-.235-.023-.078-.114-.355-.197-.39a.795.795 0 00-.464.174h.003zm-54.97 4.766c-.03-.072-.133-.072-.236 0-.102.072-.201.319-.175.192.027-.126-.262-.427-.357-.39-.095.035-.335.216-.335.336.022.11.068.203.129.263s.134.085.206.068l.099.223.114.246c.114-.138.277-.319.361-.403.084-.084.217-.469.19-.535h.004zm38.49-9.801c.24-.06.403-.157.38-.223a.294.294 0 01-.028-.085.359.359 0 01.019-.184.21.21 0 01.043-.068v-.072c.027-.168-.095-.132-.171-.138a.451.451 0 00-.202 0l-.076.048a.27.27 0 01-.12.093.187.187 0 01-.135-.003c-.076-.042-.22-.042-.117.102.102.145.17.674.209.692l.197-.162zm9.009-.361c.205-.18.346-.463.308-.602-.038-.138-.411-.06-.453-.078-.023-.367-.186-.174-.316-.145h-.056c-.073 0-.13.073-.13.205.009.06.025.115.048.164a.39.39 0 00.084.12c.033.032.07.052.108.06a.185.185 0 00.114-.013l.06.066.233.223zm11.956 4.211a.263.263 0 00.006-.148.213.213 0 00-.026-.063.124.124 0 00-.04-.041h-.092c-.08.08-.176.11-.27.084l-.042.102-.023.048c.08.157.153.32.22.488l-.106.15c.03.084.118.096.194.042l.084.115c.028.038.06.067.094.086a.185.185 0 00.108.022l.095-.066a1.504 1.504 0 01-.149-.38l.065-.09.027-.036c-.016-.036-.183-.222-.149-.313h.004zM8.496 22.917c-.065 0-.05.06.034.145.084.084.335.066.357-.15l.183.15c.164.132.3.234.38-.127v-.048c.107-.036.076-.138-.064-.229h-.187c-.099.12-.178.139-.178.049L9 22.652l-.018-.066c-.023-.03-.051-.045-.08-.045-.03 0-.058.016-.08.045l-.02.06-.022.073c-.023.114-.22.198-.289.198h.004zm34.28-2.082a.4.4 0 00-.044-.119.24.24 0 00-.071-.08.143.143 0 00-.086-.026.149.149 0 00-.085.033c-.106.078-.498-.15-.6-.175l-.062.049-.083.066a.588.588 0 00-.053.193.675.675 0 00.011.21h.046a.268.268 0 00.205-.066l.05-.03a.168.168 0 01.071-.059.113.113 0 01.08-.002c.054 0 .255.163.38.235l.115-.114.125-.115zm17.192 11.167c.092.042.096.108 0 .15-.095.043-.334.26-.338.356v.162a.29.29 0 00.02.084.203.203 0 00.041.062.108.108 0 00.054.03.087.087 0 00.056-.007 1.88 1.88 0 00.38-.41c.107-.138-.053-.631-.16-.631h-.38c.106.082.215.15.328.204zM18.76 29.535c-.084-.096-.164-.114-.179-.036v.042l-.046.337.438.301H19a1.19 1.19 0 01.266-.12c.076 0 .205.084.232.048l.102-.15c.08.052.168.063.251.03.023-.036 0-.163-.121-.217a1.5 1.5 0 00-.502.138c-.061 0-.213-.072-.164-.162.05-.09-.236-.108-.32-.21h.016zM72.172 10.24c.148-.186.24-.373.206-.415a2.358 2.358 0 00-.411-.343l-.156.066-.217.09c.103.169.171.331.156.368-.015.036.057.204.194.306h.099l.13-.072zM7.792 30.817c-.064 0-.13-.145-.144-.325l.038-.126c.034-.103.102-.169 0-.235a.733.733 0 00-.278-.072s-.046.156-.042.156c.164.09-.026.259.057.397l.073.109a.549.549 0 00.074.275c.046.074.107.117.173.122h.125a.142.142 0 00.026-.05.206.206 0 000-.124.14.14 0 00-.026-.049h-.05l-.026-.078zM17.615 8.94a.497.497 0 00.019-.367.386.386 0 00-.164-.135.26.26 0 00-.186-.004c-.137.066.263.614.316.506h.015zm-2.312 19.53c0 .066.03 0 .068-.163.038-.162.324-.403.324-.457h-.02c-.041-.03-.121-.06-.132-.042l-.107.198a1.12 1.12 0 00-.487 0c-.114.036-.095.41 0 .373l.084-.036h.076a.107.107 0 01.103.015.221.221 0 01.076.111h.015zm61.779-5.987c-.13.114-.114.307.034.415h.06c.07-.036.107-.192.145-.3l.069-.181c.106.072.213.054.236-.042.022-.097-.423-.012-.544.108zm-7.557.313c-.129.078-.178.204-.102.27.076.067.403-.33.494-.601l.213-.066v-.12h-.023l-.278.078v-.205c-.035-.043-.08-.064-.125-.06l-.125.054c.045.066.068.566-.065.65h.011zm-66.06 9.488c.068.054.072.187 0 .289-.073.102-.16.36-.096.36.065 0 .244-.126.263-.276a2.19 2.19 0 000-.638c-.038-.072-.175-.192-.228-.132-.054.06-.008.343.06.397zm64.676-6.347c.032-.01.061-.04.08-.083a.3.3 0 00.023-.146 1.698 1.698 0 00-.217-.494l-.072-.06c-.038.03-.061.078-.046.103a.225.225 0 010 .104.138.138 0 01-.046.076c-.057.042-.228.289-.156.355.138.09.285.14.434.145zM14.63 30.311c-.16 0-.278.09-.27.216.008.127-.11.47-.099.542h.03a.148.148 0 00.133-.037.446.446 0 00.1-.18c.034-.174.053-.199.083-.156.103.186.16.042.217-.043.057-.084 0-.264-.084-.306l-.11-.036zm9.329-.686c-.061-.127-.153-.06-.202.15h.133l.285-.036c0 .283 0 .265.034 0l.168-.036.262-.054c.012-.154.012-.31 0-.464 0-.054-.06-.066-.08.079-.019.144-.536.487-.6.36zM1.567 32.67c0-.235-.053-.379-.088-.325a5.37 5.37 0 00-.262.463c-.05.235-.05.488 0 .722a.11.11 0 00.094-.005.192.192 0 00.077-.085c-.213-.27-.072-.457.084-.638l.095-.132zm67.529-7.635c-.118 0-.164.186-.103.421l-.099.21s0 .085.03.109c.014.01.03.015.044.015.015 0 .03-.005.044-.015.057-.042.152-.114.148-.15l-.042-.35c.217-.12.092-.24-.022-.24zm-54.99 4.603c.052.084-.027 0-.18-.169l.19-.265s0-.06-.03-.084c-.03-.024-.034 0-.05 0-.14.042-.28.078-.418.139l-.102.042c-.107.084-.11.12 0 .09.203.025.401.109.585.247h.004zm21.143-8.694c-.205.084-.311.265-.235.409l.09.048c.107.06.088-.138.13-.18l.118-.127a.658.658 0 00.346.078c.03 0 .103-.096.076-.138a.601.601 0 00-.266-.193l-.091.037-.168.066zM6.651 31.894c.038 0 .038.072 0 .108v.03a.736.736 0 000 .223c.03.019.062.019.092 0a.206.206 0 00.042-.065.313.313 0 00.022-.085v-.32c.042-.232.063-.473.061-.715h-.065a.698.698 0 00-.201.246c-.02.1-.026.207-.016.312.01.104.035.203.073.29l-.008-.024zm-1.11-1.655c-.065-.114-.11-.144-.099-.066a.616.616 0 00.132.219.33.33 0 00.18.1l-.061.259a.282.282 0 00.08.06c.016.01.033.01.05 0h.049c.08 0 .129-.157.106-.331l-.064-.09c-.057-.079-.18-.066-.27-.108l-.103-.043zm9.64-.319c-.175-.084-.315-.084-.315 0a.45.45 0 00.12.22c.054.05.118.07.18.057.164-.036.403-.42.251-.403l-.125.06-.11.067zm31.222-9.397c-.09-.085-.16 0-.148.126l.053.108.042.09a.154.154 0 00.041.054.084.084 0 00.052.019.084.084 0 00.052-.02.151.151 0 00.041-.052v-.097c0-.174.122-.096.19-.126l.046-.03c.042-.06.054-.133.027-.157-.027-.024-.297.193-.388.109l-.008-.024zM8.477 30.25c.087.06.167.048.175 0a1.171 1.171 0 00-.171-.547l-.122-.114a.17.17 0 00-.137-.049.33.33 0 00-.152.103s.038.15.05.15c.163-.042.121.15.178.235.057.084.217 0 .183.228l-.004-.006zm-4.271 1.805c.11 0 .11-.126 0-.27l-.099-.115a.12.12 0 00-.133 0c-.027.03-.046.145-.023.169.092.126.13.192-.057.21-.023 0-.042.18-.053.277a.167.167 0 00.015.063.09.09 0 00.034.04h.046c.053-.055.164-.392.27-.392v.018zm56.34.03c0-.09-.053-.072-.11 0a.733.733 0 000 .458c.097.067.2.107.304.12.08 0 .092-.325.054-.379h-.095c-.08.09-.149-.132-.152-.217v.018zm-59.995.067c.122-.09.21-.217.198-.277-.011-.06-.076-.163-.102-.096-.027.066-.122-.187-.149-.26-.026-.071-.106-.252-.122-.246a.39.39 0 000 .21c.02.103.027.404-.026.422-.053.018.08.325.201.229v.018zm11.2-2.407c.284.077.575.03.844-.132-.338-.542-.543-.03-.844.114v.018zm59.421 2.353c.194-.073.289-.181.205-.241l-.053-.048c-.026 0-.046-.066-.072-.09l-.137-.12c-.133.12-.247.288-.251.378l.026.06c.038.058.089.09.141.09l.141-.03zm-68.175-.494c.042.096.087.09.099 0 .011-.09-.419-.36-.464-.21v.175c.05.018.323-.078.365.018v.018zm2.806-.03c.057-.066.069-.138.023-.162a.28.28 0 01-.071-.124.442.442 0 01-.016-.165c.019-.09-.19-.072-.21 0a2.2 2.2 0 00-.026.373c.004.048.24.126.3.06v.018zm79.071-4.278c-.145 0-.202.09-.13.163.073.072.381-.193.282-.277l-.076-.096c-.038-.049.198-.127 0-.199-.114-.048-.14.078-.122.199l.046.21zM6.267 32.911c.084-.036.042-.072-.091-.072h-.262c-.011.17-.011.34 0 .51 0 .037.068.151.08.067.06-.21.154-.39.273-.523v.018zm9.888-2.317h.099v-.03c.038-.102.091-.21.083-.313a1.34 1.34 0 00-.106-.403.116.116 0 00-.065-.02.116.116 0 00-.064.02l-.054.097a.74.74 0 00-.023.367c.042.094.09.181.145.258l-.015.024zm-14.208 1.95c.038.162.126.228.19.144.065-.084 0-.463-.03-.602-.03-.138-.187.29-.145.44l-.015.018zm58.322-6.432c.14-.205.202-.421.14-.481-.06-.06-.243.186-.239.343h-.163c-.027 0-.096.138-.084.174.05.15.087 0 .13 0l.216-.036zm12.61-.186c.019.05.045.093.077.121a.146.146 0 00.106.04h.152a.193.193 0 00.027-.058.262.262 0 00-.027-.2h-.236c.046-.15.084-.283.092-.3.007-.019 0-.079-.05-.103h-.026c-.16.072-.198.21-.122.427l.007.072zm-17.953.547c.03 0-.027-.361-.126-.728l-.08-.054a.103.103 0 00-.102 0h-.023c.016.19.06.372.13.53l.083.222s.06.03.091 0l.027.03zM1.483 15.812a.163.163 0 00-.112-.05.163.163 0 00-.112.05c-.084.072-.213.319-.13.415h.206c.156-.096.182-.35.148-.415zM12.337 30.33c0-.115-.072-.055-.175.12l-.084.144c-.045.187 0 .343.118.337.118-.006.13-.493.14-.601zm-5.921-3.881a.371.371 0 00.17-.5l-.186.187-.087.09c-.171 0-.304.109-.3.217v.102c.026 0 .102-.06.174-.192h.035l.194.096zm7.404 4.043c.14.108.274.114.296 0 .023-.114.069-.44 0-.511-.068-.073-.178 0-.201.12l.065.084a.123.123 0 010 .09l-.16.217zm61.227-7.822c.103 0 .194 0 .206-.066v-.12c0-.066-.107-.12-.221-.126-.114-.006-.08.306.027.33l-.012-.017zm-60.58 9.344a.251.251 0 00.048-.095.365.365 0 00.012-.121h-.243a1.287 1.287 0 00-.449-.277v.03c0 .036-.019.114 0 .126.114.073.228.145.342.205.086.056.175.099.267.126l.022.006zm19.721-10.102c-.049.06 0 .09.073.067.072-.024.19.325.247.373.04-.05.07-.12.084-.199l.026-.24a.39.39 0 00-.418.017l-.012-.018zm41.042 4.056c-.122 0-.183.036-.141.066.099.069.202.121.308.156.095 0 .21-.355.259-.427a.651.651 0 00-.153-.217h-.022c-.057.018-.118.44-.24.44l-.011-.018zM18.74 28.32c-.056 0-.064.084-.018.168h.034c.06 0 .13-.066.19-.054h.091c.096.06.202 0 .233-.066l-.023-.036c-.038-.072-.141-.09-.175-.162l-.038-.073v-.216a.178.178 0 00-.033.055.262.262 0 00-.017.071.698.698 0 01-.232.331l-.011-.018zm50.45 0c0-.108-.075-.144-.17-.084a.895.895 0 00-.198.445l.023.036c.022.036.076.084.102.072l.076-.03a.833.833 0 00.18-.415l-.012-.024zm-53.336.199c-.049-.139-.098-.241-.114-.229a.642.642 0 00-.05.259c0 .114.066.439.145.403l.038-.048c.03-.043.02-.139.05-.169.03-.03.099.24.156 0 .057-.24-.076-.126-.149-.174l-.076-.042zm-.152 2.454c-.034.127.035.103.156-.054.122-.156-.194-.722-.156-.601.035.214.037.439.008.655h-.008zm10.706-1.72c.049-.103.03-.21-.042-.241-.072-.03-.213.168-.179.265.034.096.175.09.228-.024h-.007zm-16.053 1.444c.057.168.18.09.27-.18l-.16-.073-.11-.048c-.121 0-.186.042-.136.132l.06.072.076.097zm7.743-.464c.065-.084.03-.174-.08-.198l-.041-.036-.13-.103c-.137.055-.217.193-.175.307.042.115.365.115.434.03h-.008zM6.005 31.316c-.046.073 0 .193.064.265.142.032.285-.02.404-.144.041-.079-.027-.295-.054-.247-.026.048-.118.144-.152.102a.253.253 0 00-.255.024h-.007zm4.202-2.027a.492.492 0 00-.308-.026.623.623 0 00-.289.17c.281.307.281.307.605-.144h-.008zm61.326-19.175c.034-.054-.026-.199-.14-.319h-.1c-.072 0-.167.102-.239.18 0 0 0 .163.023.163h.057c.065 0 .125 0 .137.06.011.06.228-.024.262-.084zM53.66 26.208c.16.036.297-.03.309-.15l-.039-.078-.049-.103a.964.964 0 01-.304 0l-.038.03-.042.03a.212.212 0 00-.028.109c0 .04.01.079.028.108h.038l.125.054zm-37.044 4.104c-.042.15-.046.156 0 0l.152-.06.198-.079c-.11-.204-.297-.006-.35.139zm21.626 5.415c-.213.09-.33 0-.262-.163l.03-.114c.042-.15.107-.133.19-.067.084.067.084.055.107.037.023-.018.099-.175.148-.175.171 0 .149-.265.255-.295.202-.054.099.295.24.337.045 0 .106.066.133.048.11-.078 0-.114-.027-.174-.026-.06.027-.072.05-.084.022-.012.09 0 .09 0 .047.196.086.397.115.601v.043c-.06.054-.224-.103-.38-.355l-.274.066a.5.5 0 00-.316.144l-.099.15z"/>
    <path d="M75.336 32.544c.179.036.236.126.126.198-.11.072-.335.247-.244.217.092-.03.274.09.18.18-.096.09-.507-.144-.552-.15-.046-.006-.21 0-.18.12.031.12.043.361-.041.397h-.042l-.106-.066c-.095.048-.16-.048-.141-.216l.099-.115a.613.613 0 01.215-.214.377.377 0 01.253-.045c.113.023.227-.024.32-.132l.113-.174zM62.14 34.433c-.084-.048 0-.139.148-.21l.152-.049a.52.52 0 00.137.166c.053.039.11.06.168.063.11 0 .407.12.38.258v.121c.137.066.179.114.091.114-.087 0-.3-.048-.308-.108a.205.205 0 00-.08-.112.1.1 0 00-.106-.002 1.61 1.61 0 01-.582-.241zm-27.974-.824c.019-.067-.038-.097-.13-.073-.091.024-.334 0-.334-.066s.057-.379.121-.427c.065-.048.198.247.232.307l.061-.078a.133.133 0 01.047-.051.078.078 0 01.057-.01.1.1 0 01.053.034.19.19 0 01.037.069l.053.126c.056.082.101.18.133.289a.122.122 0 01-.01.035.077.077 0 01-.018.026.043.043 0 01-.023.01.039.039 0 01-.025-.005h-.038a.35.35 0 00-.137 0h-.049c-.053 0-.05-.126-.03-.186zm37.398.734a.077.077 0 00.038.026.057.057 0 00.042-.005.096.096 0 00.036-.036.17.17 0 00.02-.058c.031-.102.172-.385.236-.373l.027.055.06.108c.092.084.119.186.054.222-.118.13-.246.237-.38.32-.137.042-.407-.29-.38-.325a.322.322 0 01.247.066zm-6.652-.951c.027.054 0 .217-.057.367H64.6c-.049-.132-.133-.217-.19-.187-.057.03-.25.06-.258-.048-.008-.108.06-.427.163-.445l.065.042.14.078c.111.016.219.06.32.133l.042.048.03.012zm4.278 1.035c.088.096.176.114.195.048.019-.066.09-.096.129.048h.144c.027.09 0 .133-.06.096h-.065c-.107 0-.217.175-.33 0 0 0-.077.042-.111.085l-.053.06a.447.447 0 01-.195-.169.839.839 0 01-.121-.294l.16-.139h.022c.046 0 .092.096.1.205h.117l.069.06zm-3.064-.77c-.039.048-.11 0-.164-.108-.053-.109-.137-.301-.076-.2.06.103.338-.035.41.073l.118-.126a.284.284 0 00.088-.141.471.471 0 00.015-.196c0-.115 0-.175.103-.127.102.049.068.103.102.163l-.125.361h-.13c-.11.06-.303.259-.341.3zm1.087-14.337c-.076.21-.19.33-.255.276-.064-.054-.133-.27.107-.265h.319c.19-.072.35-.072.354 0 .004.073-.114.325-.278.361l-.057-.078-.19-.295zM49.59 35.341c-.129-.216-.08-.403.107-.403h.224a.476.476 0 01.126-.252c.045-.03.137.072.186.114.05.042.224.114.19.253l-.144-.03c-.153.027-.307.04-.46.036l-.05.06-.179.222zm-.475-1.281c-.05.084-.095.066-.099-.042l.072-.114a.735.735 0 01.457-.271l-.168-.283-.034-.06a.425.425 0 01.167-.212.223.223 0 01.213-.01l-.167.204s-.026.042 0 .054l.167.39a2.074 2.074 0 00-.608.344zm23.704.078c.296 0 .483.09.414.187-.068.096-.095.541-.167.493l-.046-.06a.557.557 0 01-.106-.265c-.03-.33-.183-.21-.316-.156h-.057c-.084.054-.103-.037-.05-.199h.328zm-19.315-1.209c0 .09-.057.09-.122 0s-.224-.337-.194-.367c.03-.03.171-.115.198-.036l.038.06.09.132c.083-.11.171-.208.263-.295h.073c.038 0 .099.048.106.09a.251.251 0 01-.006.092.172.172 0 01-.036.071l-.06.06c-.08.042-.35.103-.35.193zm-6.766 1.931c.13-.06.243 0 .251.12.008.12-.213.307-.22.241-.008-.066-.107-.15-.202-.036l-.118-.169a1.716 1.716 0 00-.201-.21c.03-.06.357.114.49.054zm-.988-2.016c-.115 0-.214.06-.221.163-.008.102-.076.27-.13.162-.053-.108.088-.523.267-.571l.167-.03h.03c.02.032.03.075.03.12s-.01.088-.03.12h-.041l-.073.036zm-4.446 1.264c0-.126.137-.229.266-.229l.11.03h.053c.046.09.069.205.05.253-.02.048-.03.21-.095.247-.038-.06-.042-.157-.08-.21l-.027-.037c-.057 0-.106 0-.102.03v.169c-.02.042-.194-.127-.175-.253zm9.302 1.071c-.046-.054-.05-.114 0-.144.05-.03.17-.157.125-.187-.046-.03-.118-.132 0-.132s.426.072.361.162l-.057.054c-.076.072-.182.103-.24.193l-.041.072c.008.09-.103.036-.148-.018zm4.088-3.255c.163.072.231.205.155.289-.076.084-.06.601-.053.692v.06c0 .048-.05.114-.084.114a.158.158 0 01-.11-.066l.05-.259c-.137-.138-.133-.325 0-.409v-.102l.042-.319zm24.939-9.134c-.053-.077-.026-.138.065-.138s.273.067.24.145c-.035.078.071.27 0 .27-.073 0-.286.169-.3.12-.016-.047.052-.318-.005-.396zm-14.892-3.092c-.14 0-.201-.09-.137-.21.065-.12.3-.337.38-.235.08.102 0 .517-.087.481h-.084l-.072-.036zm4.199-.12c-.202.144-.38.198-.38.114s-.278-.048-.297-.09v-.126l.312-.072c.099 0 .38 0 .357.102v.072h.008zM41.494 35.203c.057.126 0 .114-.13 0l-.14.21-.03.043c0 .036-.031 0-.073 0-.042 0-.122-.217-.095-.247.027-.03.152-.132.164-.096.011.036.083.096.102 0l.035-.054.022-.036c.065 0 .103.036.092.09v.042l.053.048zM3.358 34.21c.038.127.019.21-.038.193a.71.71 0 01-.278-.217c-.05-.09 0-.42.095-.42l.084.053.099.06a.149.149 0 01.11-.055c.04 0 .078.02.11.055-.038.09-.114.157-.152.253l-.03.078zm34.759-.872c.034-.102.076-.054.095.102.019.157 0 .602-.057.644-.057.042-.202-.367-.255-.463-.053-.097-.21-.434-.144-.416.064.019.327.235.36.133zm-9.067.036c.05 0 .073.072.05.168-.023.097-.205 0-.247.049l.034.114c.053.144.03.265-.053.265-.084 0-.206 0-.103-.042.103-.043-.065-.422-.076-.518l.057-.09.08-.133a.536.536 0 00.259.187zm36.022.114a.14.14 0 01-.078-.025.226.226 0 01-.066-.071l-.03-.036-.043-.048c-.045-.048-.064-.127-.038-.18l.03-.037.039-.048.213-.216.068-.049.069-.042c.083 0 .114.078.072.229l-.069.108-.144.217c.125.108.03.198-.023.198zm-24.879-.018c-.152.096-.201.072-.106-.048.095-.12.247-.601.289-.601a.386.386 0 01.182.042c-.084.252-.21.462-.365.607zm17.741-.222s.027.066.027.15c0 .084-.084.319-.187.319-.102 0-.418-.132-.418-.3h.042c.102-.055.273-.151.277.162.036.04.079.059.122.054.03 0 .065-.079.072-.127v-.078c.008-.114.046-.186.065-.18zm14.466-.097c0-.09.076-.108.171-.048.096.06.316.295.263.373-.053.078-.236.24-.24.109v-.422c-.114.157-.194.073-.194-.012zm-8.598-13.76c-.046.23-.107.355-.133.283-.027-.072-.156-.216-.232-.168-.076.048-.22.114-.137 0 .084-.114.03-.361.03-.265 0 .096.248 0 .29 0h.03l.152.15zM42.36 35.462c-.098.162-.132.18-.083.036.05-.145.152-.536.217-.536s.228.048.213.103a.235.235 0 00-.152.069.459.459 0 00-.11.177l-.084.15zm22.07-.969c-.096-.042-.13-.132-.077-.193.054-.06.278.115.331.163.053.048.164.283.065.355l-.076.048h-.03c-.043.018-.111-.33-.214-.373zm-.43.151c-.057.246-.13.39-.156.318-.027-.072-.3-.282-.285-.36.015-.079.24 0 .28 0 .043 0 .05-.271.123-.295h.137c.087.03.083.078 0 .108l-.023.06-.076.169zm-31.793-.109c-.118-.042-.057-.072.137-.066l.08-.09.148-.163a.64.64 0 00.327.205h.095c-.137 0-.677.156-.787.114zm21.813-.902c.02.165.02.334 0 .5h-.052a.794.794 0 01-.198-.284 3.23 3.23 0 01-.21-.601h.023c.027 0 .084-.03.096 0 .067.129.15.237.243.319l.099.066zm-16.728-1.119c.041-.043.022.126-.042.367l-.107.036-.129.048c-.179-.108-.316-.27-.308-.361.008-.09.251.048.312.048h.057a.725.725 0 00.175-.09l.042-.048zm-26.138-.337c0-.078.084-.072.19 0 .145.102.283.23.41.379 0 .054-.026.216-.087.162-.06-.054-.197-.24-.186-.325.011-.084-.323-.132-.327-.216zm46.068 2.605c0 .198 0 .39-.072.421-.072.03-.197.03-.209-.06h.023l.053-.066a.212.212 0 00.087-.105.402.402 0 00.03-.166c0-.102-.212-.283-.23-.319-.02-.036.307.114.318.295zm17.456-.452c.27-.072.41-.047.312.06-.1.11.045.512.022.548-.022.036-.102-.06-.098-.3l-.152-.193-.084-.114zm-27.993-1.636c.125-.066.171 0 .095.15-.076.151-.316.452-.33.271v-.138c0-.133-.062-.325.151-.307l.084.024zm15.299 1.944c.133.066.114.234-.042.385l-.144.036h-.092c-.125-.115-.083-.163.092-.115v-.325s.06-.048.087-.042l.1.06zm6.301.421a.214.214 0 01-.095.099.127.127 0 01-.114-.003c-.064-.042-.19-.18-.136-.21h.152a1.8 1.8 0 00.102-.332c.012-.072.141.35.091.446zm-28.187.03c-.05 0-.118.096-.148.216s-.145.416-.175.38a.412.412 0 010-.302c.046-.108.243-.457.33-.48l.035.047c.103.145.194-.325.24 0 .03.21-.141.103-.225.133l-.057.006zm20.555-.307s.038-.048.084-.066h.118a.117.117 0 00.032-.049.192.192 0 00.013-.069.192.192 0 00-.013-.068.116.116 0 00-.032-.049h-.126c-.068 0-.053-.114.034-.21h.13c.07.063.132.145.186.24.027.06 0 .265-.08.343h-.163a.36.36 0 01-.183-.072zm-.567 0c-.114-.169-.121-.325 0-.355.122-.03.358.066.38.265l-.186.048-.194.042zm8.458-2.798c.04.058.068.134.08.218a.645.645 0 01-.016.251l-.023.18c0 .061.194.127 0 .181-.026 0-.094-.09-.102-.15-.008-.06 0-.265 0-.397 0-.036-.057-.09-.095-.102-.038-.012-.129-.048-.046-.139.04-.048.09-.07.14-.066l.062.024zM66.627 19.74a.168.168 0 01-.068.072.099.099 0 01-.082.004.153.153 0 01-.072-.064.298.298 0 01-.04-.114l-.057-.144c-.053-.115-.137-.084-.21 0a.16.16 0 01-.05-.087.261.261 0 01-.002-.118h.133a.843.843 0 01.414.235l.027.114.007.102zm-20.84 12.72c-.099 0-.152-.079-.125-.133a1.78 1.78 0 00.099-.307l.08.078a.164.164 0 00.17 0c.088-.078.176-.186.229 0l.038.15a3.507 3.507 0 01-.49.212zM57.086 19.8a.09.09 0 01-.099 0h-.023l-.178-.216c-.046.235-.145.379-.221.313-.076-.066-.088-.337-.03-.277.057.06.27-.096.323-.084.078.02.154.052.228.096a.27.27 0 010 .169z"/>
  </g>
  <defs>
    <clipPath id="N9JeTWPFzYa">
      <path fill="#fff" d="M0 0h85.764v35.769H0z"/>
    </clipPath>
  </defs>
</svg>
