<svg xmlns="http://www.w3.org/2000/svg" fill="none" viewBox="0 0 85 26">
  <g clip-path="url(#77803lVTqa)">
    <path d="M24.468 25.278a.884.884 0 00-.285.328c-.053.111-.308.215-.268.143.04-.072.169-.291.192-.34.023-.05-.119-.171-.145-.252l-.037-.036-.093-.09-.152-.304c-.023-.045-.146.103-.179.179V25a.82.82 0 01-.06.314c-.043.121-.052.448-.069.48-.017.031-.076 0-.093-.045-.016-.045-.116-.17-.155-.229-.04-.058.152-.188.175-.233.023-.045.02-.12-.053-.063-.073.059-.291-.112-.331-.094-.04.018 0 .215.026.278v.126c0 .063-.109.094-.231.072h-.12c0 .143-.053.237-.08.22a.48.48 0 00-.267 0l-.053-.13c.092 0 .159-.077.149-.13-.01-.055-.106-.167-.163-.086a.822.822 0 01-.347.264c-.105.01-.21.01-.315 0a.142.142 0 01.103-.044c.056 0 .222-.104.222-.189s.238-.183.281-.192a.523.523 0 00.195-.113v-.022c0-.027-.05-.072-.063-.067-.225.104-.46.162-.698.17h-.163a1.346 1.346 0 01-.221.305c-.04.027-.126-.117-.15-.139a1.361 1.361 0 00-.159-.099c-.046-.022-.152-.112-.125-.143.026-.031.125-.085.162-.063v.032l.056.16a.996.996 0 00.279-.089.368.368 0 00.072-.197c0-.058-.178-.161-.238-.175v-.022c-.053-.328-.212-.144-.242-.032-.053.202-.225.22-.331.332l-.096.094c-.063.126-.126.175-.14.112v-.166a5.213 5.213 0 01-.37-.224l-.017-.076c-.043-.193-.149-.197-.288-.197-.06 0-.129-.085-.175-.067-.047.018-.07.112-.11.17-.053 0-.056.04 0 .08.057.04.146.162.103.211-.043.05-.358-.125-.331-.179l.016-.054c.053-.166-.02-.26-.168-.193-.15.068-.153-.067-.226-.076H18.6c-.155.02-.309.056-.46.108l-.08-.05-.095-.067c-.102.02-.203.049-.302.085a1.094 1.094 0 01-.4-.085h-.282c-.073 0-.301-.027-.368.045a.352.352 0 01-.218.08.352.352 0 01-.219-.08l-.165.058-.116.036a2.75 2.75 0 00-.424-.027c-.19.028-.378.074-.563.14-.133.044-.547-.064-.709-.032l-.159-.103-.12-.072-.46.143c-.11.01-.22.01-.33 0a1.914 1.914 0 01-.385.027c0-.035-.07-.094-.106-.058-.036.036-.165.085-.212.032l-.046-.04-.03-.028a.136.136 0 00-.126.032c-.026.031-.116.09-.142.058-.027-.032-.156.027-.182.05a1.848 1.848 0 01-.308.084l-.126-.053c-.063-.027-.126-.068-.186-.099s-.149-.184-.258-.04a.108.108 0 01-.09-.027c-.119-.148-.175-.193-.298.036l-.082.152c-.06-.18-.13-.296-.156-.251-.027.045-.123.134-.142.085a.524.524 0 00-.17-.184c-.052 0-.185.148-.218.193-.033.045-.142-.031-.159 0-.016.032-.05.05-.04-.04.01-.09-.195.058-.208.067-.136.05-.14-.233-.308-.139l-.09.05a1.934 1.934 0 01-.294 0c-.037 0-.17.03-.255.035-.087.005-.332-.08-.385 0l-.06.04-.032.027a.766.766 0 01-.232-.143c-.066-.058-.401.099-.434.045-.033-.054-.166-.144-.209-.085-.043.058-.189-.059-.215-.032l-.02.027c-.023.032-.046.094-.07.094-.023 0-.201.063-.192-.098v-.036c.09-.05.126-.117.087-.14-.04-.022-.17-.049-.2 0-.029.05-.165.18-.161.055v-.063a.203.203 0 00-.027-.08h-.076c-.076 0-.126-.041-.106-.135l-.133.04h-.023c-.02.031-.106.027-.189 0a2.207 2.207 0 00-.49-.027c-.09 0-.38-.148-.457-.139-.076.01-.275.063-.304-.036-.03-.098-.375-.157-.408-.148l-.162-.269c-.285-.04-.54-.08-.57-.094-.03-.013-.155 0-.255 0s-.523.023-.705.04l-.037-.255c0-.027-.076-.072-.092-.063l-.103.067a.83.83 0 01-.245-.174 1.356 1.356 0 00-.265-.157.788.788 0 00-.245-.081.097.097 0 01-.067-.02.152.152 0 01-.049-.065l-.033-.045a.116.116 0 00-.116 0 .727.727 0 01-.331.09c-.182 0-.093-.072-.083-.17.01-.1-.11-.113.036-.135a.566.566 0 00.196-.076c.07-.04.056-.081 0-.144l-.056-.063.251-.269c.083-.085.18-.421.09-.448h-.139a.325.325 0 01-.282 0c-.073-.045-.053-.448-.026-.592.034-.19.06-.38.079-.574a.438.438 0 00-.166.153l-.086-.148-.043-.077c.028-.1.066-.195.113-.282l-.08-.045H.662c-.099.058-.159.045-.132-.036v-.242a2.348 2.348 0 01-.14-.448.648.648 0 01.07-.24.45.45 0 01.146-.168c.132-.072.132-.485.036-.449l-.06.054-.059.054c-.07.054-.202-.031-.298-.184l.05-.13c.01-.046.022-.09.036-.134.047-.095.103-.184.156-.274.053-.09.126.135.195 0l.02-.04c.083 0 .073-.067-.02-.099v-.04c0-.063.037-.14.076-.197.04-.059.08-.032.113-.054.033-.023.103-.251.023-.278a.17.17 0 01-.098-.057.275.275 0 01-.06-.118l-.02-.05c-.14 0-.126-.08.03-.143.155-.063.572-.332.764-.188l.239-.045c.046 0 .145.108.165.184l.047.188c.116-.054.175-.175.135-.264v-.077a8.88 8.88 0 01.103-.695v-.049a1.24 1.24 0 01.176-.107c.033 0 .119-.157.179-.157.088-.007.175-.025.261-.054a.687.687 0 00.12-.13c.026-.032.152.094.168.116.017.023.123.045.133-.049.01-.094.09-.251.165-.193a.24.24 0 00.138-.005.305.305 0 00.124-.08.114.114 0 01-.005-.072.1.1 0 01.013-.031.072.072 0 01.022-.023h.023c.106.05.225.238.262-.062.059.006.118.02.175.04.112-.01.223-.035.331-.076h.332c.082 0 .248-.193.182-.229-.067-.036-.206-.233-.172-.358.033-.126-.332-.48-.295-.49.036-.008.066-.12-.03-.205v-.256a.384.384 0 01-.252-.103l-.03-.05-.07-.12a1.067 1.067 0 000-.512l-.026-.134v-.045c0-.054.103-.045.202.027a.54.54 0 00.401-.08c0-.023-.02-.113-.083-.149h-.03l-.066.045c-.086.058-.142.054-.126 0v-.206a.285.285 0 01-.175 0c-.05 0 .05-.287.086-.422l.14-.031a.205.205 0 00.072-.027l-.02-.305c.215-.116.331-.246.288-.287a1.013 1.013 0 00-.308 0c-.036 0-.298-.116-.5-.22l-.208.05c-.097 0-.106-.045-.133-.135l-.04-.139a.283.283 0 01-.123.095.216.216 0 01-.142.004 1.837 1.837 0 01-.407-.229l.073-.116a1.5 1.5 0 00-.123-.251c-.02-.027-.092-.063-.109-.027l-.026.027-.037.036a2.455 2.455 0 01-.215.107.548.548 0 01-.331.045c-.037-.036-.11-.206-.073-.278.036-.072.301.045.404.05v-.077c0-.076-.04-.255-.066-.255l-.467-.023c.063-.358.056-.659 0-.668-.057-.009-.183.153-.2.13l-.075-.08a1.5 1.5 0 01-.07-.157c-.026-.072.066-.323.096-.386v-.112a.135.135 0 00-.037-.077.075.075 0 00-.065-.022h-.073a.05.05 0 01-.048 0 .08.08 0 01-.035-.045l.063-.103c.106-.152.096-.233-.027-.175h-.07l-.042.05c-.15 0-.282-.063-.288-.126v-.045l.026-.47a5.023 5.023 0 00-.378-.39l-.036-.1a1.13 1.13 0 00-.073-.447l-.076-.036C.361 6.263.368 6.11.378 5.936v-.063c0-.12-.1-.17-.22-.112l.077-.157c.073-.148-.056-.143-.093-.201-.036-.059-.082.188-.122 0v-.027l.132-.094a.72.72 0 00-.109-.314l.03-.175c0-.045.036-.09.033-.13v-.05c-.027-.053-.02-.085 0-.076a.366.366 0 00.245-.085c.063-.067-.026-.327 0-.35.116.117.219.14.331-.026l.09-.14c.096.1.178.135.188.081a.612.612 0 01.308-.291l.106.242.053.125c.146-.139.242-.264.212-.273-.03-.009-.102-.072-.092-.108h.241a.065.065 0 00.055-.005.1.1 0 00.041-.048c0-.045.136 0 .146-.05.01-.05.08-.116.103-.063a.148.148 0 00.053.048c.02.01.041.014.063.011a.119.119 0 00.06-.026.173.173 0 00.046-.06l.05-.067.03-.04a.45.45 0 01.267.067c.08.04.358-.058.414 0 .057.059.219.148.282 0l.053-.09.05-.09a.457.457 0 01.271.055c.053.036.162-.144.225-.14a.799.799 0 01.269.077c.023 0 .135.058.162 0 .026-.058.149-.256.209-.229a.468.468 0 00.261-.036c.047-.027.186.05.209.027v-.107c.113.04.224.093.331.157v-.234c.092-.04.186-.073.282-.098.22-.003.442.01.662.04l.08.027c.082.027.135.148.139-.054 0 0 .096-.058.099-.054.1.157.248.032.278 0 .09-.134.215.05.315-.08l.036-.045.331.121a.59.59 0 00.232-.166c.086-.09.381.067.398.058v-.242c.159.048.325.03.477-.049l.102.184.05.09.331-.18h.089a.616.616 0 01.17 0h.39c.06 0 .255-.085.275-.058.02.027.096.09.113.054V2.39l.016-.032c.023-.031.05-.036.056 0a.35.35 0 00.063.121l.133-.04a1.99 1.99 0 00.331-.094l.02-.027.133-.17c.102.161.208.25.235.201.026-.049.112-.148.139-.12.026.026.082-.072.086-.26l.192.237.033.04c.095-.022.192-.032.288-.031.056 0 .192.04.196 0 .003-.04.205-.063.235-.023s.086-.03.082-.206l.213.22c.02.022.135-.063.208-.103l.037-.023a2.82 2.82 0 01.33-.143c.15-.058.54.188.574.188a2.69 2.69 0 00.348-.072c.232-.024.466-.024.698 0l.04-.044.1-.099a.943.943 0 00.27.117h.166c.096-.058.195-.105.295-.144.16-.033.32-.049.48-.05h.173c.043-.022.086 0 .092.037.007.035.166 0 .19 0 .022 0 .119-.108.155-.068.06.06.135.085.209.072.119-.064.243-.109.37-.134l.034.058c.072.125.159-.126.238.036l.037.067a.338.338 0 01.29-.072c.037.032.143.099.153.068.01-.032.057-.104.08-.095a.087.087 0 00.063-.004.123.123 0 00.053-.05 2.65 2.65 0 01.49-.08l.192.072a.56.56 0 00.546-.068l.09-.071a.907.907 0 01.331.12c.03.02.062.024.094.014a.145.145 0 00.078-.072c.053-.094.285.068.302.032.016-.036.082-.126.092-.063.01.063.06.13.1.05.04-.081.311.04.427 0l.132.026.18.036a.692.692 0 01.413-.112c0 .031.073.103.09.063a.31.31 0 01.139-.144l.126.14c.17-.023.34-.03.51-.023.109 0 .457-.054.536.031l.096-.152c0-.027.136.045.205.045h.21a6.43 6.43 0 00.711-.108l.12.161.026.032a1.46 1.46 0 01.265-.032c.066 0 .235.045.242 0 .006-.044.228-.022.304.081l.12-.13.04-.045.284.068c.047 0 .225.035.292.035h.06a.43.43 0 00.132 0c.05 0 .09-.053.136-.062h.026a.195.195 0 00.159 0 .435.435 0 01.288.12v-.188c.129.025.255.067.378.126h.265l.288-.161c.03 0 .139.067.182.174l.142-.058c.073-.031.206-.058.232-.022.116.166.156-.103.262-.036l.092.058c.127.007.252.031.375.072l.023-.027.142-.157a.489.489 0 00.332.085c.03-.031.142-.09.172-.04.039.065.08.126.126.184l.179-.099c.173-.046.35-.058.526-.036.161-.012.323-.012.484 0 .082.045.298-.107.374-.054l.205-.313c.2.106.406.186.616.237.066 0 .189-.031.182.058-.006.09.252-.085.331-.116a.457.457 0 01.259 0c.05 0 .179-.036.189 0 .01.036.073.107.096.072a.478.478 0 01.291-.13l.093.062.285.117.066-.054c.086-.076.169-.112.182-.08.062.07.13.132.202.183l.152-.166a.275.275 0 01.146.063.71.71 0 00.464-.058l.06-.067c.04.03.073.079.09.138.018.059.02.124.005.184l.196-.139.149-.103v.072c0-.094.228.05.238.045l.186-.045c.156.014.31.05.46.108.08.027.278-.099.308-.068.03.032.113.121.12.121a.242.242 0 00.079-.067.332.332 0 01.255-.058h.06c.033 0 .096-.067.106-.058l.099.103a.56.56 0 01.417 0l.116.045h.047a.293.293 0 00.168-.059c.034-.036.18-.045.222-.08.16-.002.32.017.477.058h.242a.319.319 0 00.258.022.368.368 0 01.252-.067l.07.04c.076.04.139.17.142-.04a.155.155 0 01.083 0c.17.038.344.051.516.04l.13-.022c.076.043.154.078.235.103a.997.997 0 00.222-.05c.207-.01.415.013.619.068.12.045.45-.18.53-.175.154-.006.306-.04.454-.099.099-.053.33.18.33.175 0-.004.17-.125.233-.031h.063c.066 0 .158-.08.218-.058l.126.045a.351.351 0 01.205-.144l.033.027.057.045c.05.063.119.09.152.054s.113-.077.12-.023c.006.054.195.063.228 0s.169-.098.195-.05a.792.792 0 00.15.185c.092-.224.238-.04.354-.05h.056a.42.42 0 01.218-.044.99.99 0 01.206.053c.063.032.348-.062.467-.022l.132-.036c.073-.022.172.067.242.04l.12-.044c.115.031.297.062.4.076l.096-.023.169-.031.4-.045c.07.028.131.08.18.153.046.076.255-.04.291 0 .036.04.146.094.169.067 0-.067-.066-.184-.056-.188l.109-.063c.016.081.05.153.1.206a.2.2 0 00.145-.054c.03-.031.132-.085.169-.05.036.037.129 0 .136-.143l.172.099c-.027.076.043.121.155.099.113-.023.385.148.408.12v-.192c.083.021.162.06.235.117.026.03.113.094.123.04a.153.153 0 01.024-.055.104.104 0 01.04-.034.078.078 0 01.047-.006c.016.003.031.01.044.023.07.063.365-.04.444-.04a.61.61 0 01.305.161c.016.045.232-.036.261-.08a.145.145 0 01.062-.035.123.123 0 01.067.002.15.15 0 01.061.037c.019.018.034.04.046.067l.152-.05c.162-.048-.1-.165.02-.183h1.646a.5.5 0 00.377-.125l.106.165.066.1a.543.543 0 01.123-.283l.05.071.083.112.314-.103c.132-.024.262-.066.388-.125.06-.045.285.085.36.09a1.39 1.39 0 00.352-.14 1.64 1.64 0 01.311-.116l.08-.054.149-.108c.066.126.122.189.129.135a.22.22 0 01.077-.112.133.133 0 01.111-.023c.155.067.313.115.474.144.086 0 .404-.18.576-.184h.143c.142 0 .278-.027.417-.022h.096a.358.358 0 01.301-.032l.047-.027c.139-.094.179-.053.195.104a.818.818 0 00.394-.216l.209.189h.023c.023.022.043-.027.047-.112.003-.086.271 0 .33.035a.93.93 0 00.352 0 1.16 1.16 0 01.331-.071c.056 0 .262-.072.38-.054.12.018.468 0 .517 0 .05 0 .156.134.17.099.013-.036.072-.09.099 0h.036l.06.026c.076 0 .252-.031.387-.044l.08-.063.106-.09a.53.53 0 00.202.094.453.453 0 00.156-.071.986.986 0 01.33.067c.148 0 .294-.03.434-.09.027 0 .163.193.173.135a.328.328 0 01.078-.132.21.21 0 01.117-.061h.186c.11.06.229.085.347.076.08 0 .332-.112.391-.13.06-.018.219.067.229 0 .01-.067.053-.193.08-.188.105.116.195.25.377.112l.05-.04c.09.025.182.036.274.03.078.012.154.031.229.06h.03l.106-.028a1.07 1.07 0 01.384-.036h.152c.09-.09.189-.12.219-.071s.129.12.172.071c.043-.049.222-.152.268-.09a.617.617 0 00.331.13l.113.023.11.027a.968.968 0 01.294-.094l.073-.04.033-.023c.132-.006.264-.035.39-.085l.16.143.086.077c.159 0 .298-.086.308-.162.01-.076.205-.022.255 0 .05.023.245.045.311.063.067.018.229-.085.242-.08l.106.102c.033.036.288.108.252.054-.037-.054-.033-.103.083-.036l.122-.157c.053-.062.229 0 .348 0h.09a.75.75 0 00.155.144c.023 0 .189 0 .35.027l.113-.166.017-.027c.16.072.272.094.252.045-.02-.05-.047-.18-.033-.197A.868.868 0 0172.1.049c.106 0 .397.103.444.072h.023l.103.063a.622.622 0 01.33.058c.057.04.266-.188.398-.296l.13.058.152.072c.058-.065.12-.123.185-.175a.235.235 0 00.11-.053c.04-.036.215.062.261.094.046.031.222.094.185 0-.036-.094.17 0 .21-.023a.385.385 0 01.244.063c.06.058.278.05.262.022a.726.726 0 01.457-.067l.103.085.192.157c.016-.17.102-.224.188-.116l.18-.072a.755.755 0 01.632.067.271.271 0 00.331.027c.063-.045.232.058.331.121.056.027-.132.099 0 .153.037 0 .103-.068.15-.063.046.004.188.036.208.094l.07.175c.148.054.354.13.453.175.155.054.314.086.474.094.06 0 .238.058.281.04.043-.018.13-.036.12.045-.01.08.208-.036.248-.054a1.98 1.98 0 01.308 0c.12 0 .417.17.447.157.03-.013.14 0 .142.027a.255.255 0 00.1.12.164.164 0 00.132.02c.219.03.433.099.64.2l.046.203c.02.098.235.112.275.309l.016.09.302.148c.022.017.04.044.049.077a.186.186 0 010 .102l.123.063a1.107 1.107 0 00-.08.38v.095l.027.202c.012.149.053.291.12.412h.059c.033 0 .066 0 .066.04 0 .041-.063.086-.126.126l-.056.045v.09c0 .027.04 0 .06 0 .02 0 .02-.027.032-.032h.07c.076 0 .14 0 .132.036a.548.548 0 00.143.27l.056.089.037.058c0 .117-.073.17-.172.121-.1-.05-.348 0-.266.238.083.237.103.923.02.955a.99.99 0 00-.281.143c.074.048.146.102.215.162l.027.08c.086.229.139-.12.221 0l.05.068c.103.049.16.152.123.224-.037.072.07.448.09.623l-.067.166a.512.512 0 00.028.321.353.353 0 00.086.119c.034.03.074.05.115.058h.142c.162.035.228.071.152.08-.076.01-.291.072-.291.135 0 .063.076.246.172.228h.14c.065.003.13.012.195.027h.44c.11 0 .275.381.258.413h-.066c-.13-.023-.199.094-.149.215.05.121.066.193.13.233l.135.094c0 .162.046.26.08.216h.036c.04-.01.08-.001.116.026.01.019.015.04.015.063a.135.135 0 01-.015.063.3.3 0 01-.117.118.209.209 0 01-.145.021.085.085 0 00-.045.029.135.135 0 00-.028.056.155.155 0 00.018.062c.01.018.023.033.039.041l.096.054c.112.05.109.153 0 .224h-.189c-.12-.08-.219-.036-.219.099v.09l-.026.13c-.109.04-.22.068-.331.085-.07 0-.05.287 0 .448.05.162.122.646.053.686-.07.04 0 .3.033.345.033.045.109.202.053.247l-.067.031c-.06.027-.129-.116-.195 0a.933.933 0 01-.235-.094 1.167 1.167 0 00-.47.063 1.43 1.43 0 01-.603-.162 2.706 2.706 0 00-.523-.04c-.073 0-.262-.148-.285-.094a.909.909 0 00-.063.314c0 .072.238.116.291.112l.023.027c.053.058 0 .202.156.184h.023a.154.154 0 00.04.06.098.098 0 00.055.028.09.09 0 00.058-.015.132.132 0 00.046-.05l.017.205v.04c.108.04.219.06.33.059l.017.125v.1c.023.116 0 .178-.046.138a.343.343 0 00-.258-.036.221.221 0 01-.123.039.22.22 0 01-.122-.039c-.073-.063-.249-.25-.275-.206.043.134.142.273.126.395l-.02.139c-.12.161-.186.322-.146.363a.23.23 0 00.133.025.25.25 0 00.129-.057l.043-.076.026-.05c0-.07.023-.125.04-.116l.09.153a.374.374 0 01.254-.108c.033 0 .023.148-.099.247l.08.161.033.067a.191.191 0 01.148.048.32.32 0 01.097.159c.05.143.112.304.09.331a.186.186 0 01-.11.015.21.21 0 01-.103-.05l-.066-.063a.177.177 0 00-.11.09c-.023.044-.046.197 0 .201.047.005.239.072.186.117-.053.045-.189.215-.166.269.024.053.11.192.14.152h.026c.083-.027.212.085.305.3l.04.09c-.04.077-.083.15-.13.22a.135.135 0 00-.01.085.126.126 0 00.015.04.093.093 0 00.025.027h.116c.123 0 .159.05.11.175 0 .036-.05.09-.04.103l.056.063a.176.176 0 01-.065.093.107.107 0 01-.094.015l-.033-.103v-.04c-.176 0-.17.04 0 .134l-.073.184-.036.098a.377.377 0 000 .274c.033.036.099.224.053.296-.047.071-.272.17-.272.237l.02.045.043.09c.036.112.033.17 0 .125a.309.309 0 00-.229-.058.593.593 0 01-.251 0c-.053 0-.206.022-.18.05l.17.174c.043.036.185-.058.198-.058.014 0 .047.045.04.121-.007.076.219 0 .258 0 .04 0 .113.058.04.103-.073.045-.281.117-.298.076a.18.18 0 00-.126-.09c-.023 0-.122.234-.165.23a.257.257 0 00-.123.07.388.388 0 00-.086.14l.04.126a.32.32 0 00.08.15.192.192 0 00.128.06h.024c.03.036.02.121-.02.198-.08.09-.165.174-.252.25-.023.032-.02.158-.046.166-.027.01-.053.086-.063.095-.01.009 0 .071.06.12a.822.822 0 01.138.409l-.05.072c-.142.197-.105.304.09.425l.156.09c-.09.125-.175.258-.252.4-.04.084-.159.187-.05.196l-.016.189v.076c0 .107.03.278.04.368l.056.067.07.072a4.465 4.465 0 01-.1.358l.07.112.172.27-.275.214c.071.195.164.373.275.53l.126.264.036.076-.149-.049a.284.284 0 00-.116.058.874.874 0 01-.225.126.937.937 0 00-.275.09l-.076.04-.09.05a1.415 1.415 0 00-.572.098c-.212.076-.895.13-1.01.17h-.11l-.112.023a3.84 3.84 0 01-.663.08h-.331a1.17 1.17 0 00-.354.292l-.106-.175c0-.023-.196.058-.199.05-.053-.185-.166.134-.242-.037l-.026-.058a.489.489 0 01-.315.13l-.11.108a.638.638 0 00-.357.04c-.053.036-.281-.045-.331-.031a3.033 3.033 0 01-.474.062 3.811 3.811 0 01-.566.086c-.036-.04-.275.085-.384.13l-.086-.027-.146-.045c-.15.031-.331.063-.434.076-.103.014-.291.09-.308.054-.017-.036-.172 0-.255.103-.083.103-.42-.04-.497 0l-.026-.022-.123-.104a.613.613 0 01-.427.108l-.11.04-.109.04a1.146 1.146 0 00-.417-.062h-.226a.452.452 0 01-.387-.045l-.125.08-.093.06a2.795 2.795 0 00-.58.053l-.182-.058-.122-.04a3.372 3.372 0 01-.388.12 1.456 1.456 0 00-.275-.027c-.11.018-.221.018-.331 0-.116 0-.407.072-.417.04-.01-.03-.043-.035-.047.06-.003.093-.235-.081-.281-.081-.046 0-.255 0-.355.026-.099.027-.364-.031-.433 0a1.82 1.82 0 01-.421-.049h-.523c-.1 0-.358.143-.401.148-.043.005-.186-.04-.239-.036-.052.005-.208 0-.33 0l-.498-.05c-.042 0-.145.05-.178 0-.033-.049-.315 0-.404.023a1.739 1.739 0 00-.55.13l-.153-.13-.115-.094c-.213 0-.425.029-.633.085l-.162-.08h-.023a.228.228 0 01-.14.084.198.198 0 01-.149-.04 1.983 1.983 0 00-.692.086 2.652 2.652 0 01-.715-.135c-.027 0-.209.036-.381.067l-.162-.071-.093-.04a.248.248 0 01-.096.136.15.15 0 01-.14.016c-.072-.05-.274-.126-.33-.072-.057.054-.226.17-.265.116a.526.526 0 00-.391-.116l-.11.063a.306.306 0 01-.165.05.306.306 0 01-.166-.05l-.109-.072a.276.276 0 01-.238.067c-.05 0-.222-.072-.272-.085a.502.502 0 00-.275.09c-.056.044-.248 0-.298 0-.11.011-.22.011-.331 0-.063 0-.235-.045-.238-.094-.004-.05-.043-.193-.067-.175-.023.018-.092.022-.109 0-.017-.023-.12-.076-.172-.05l-.03.086c-.023.067-.136.09-.202.143-.195.152-.199.152-.404-.027l-.03-.027a.13.13 0 00-.083-.017.144.144 0 00-.08.04c-.042.04-.221.12-.28.062-.06-.058-.236-.183-.242-.134a.403.403 0 01-.079.137.273.273 0 01-.114.078 4.252 4.252 0 00-.84.036l-.289-.125-.09-.036c-.152.107-.3.152-.33.098-.03-.054-.166.045-.183.063a.784.784 0 01-.288.022 3.554 3.554 0 01-.58-.103.675.675 0 00-.304.126c-.063.045-.378.031-.507.143l-.152-.157-.093-.098a.382.382 0 01-.308 0c-.066-.045-.252.134-.331.148-.08.013-.272-.068-.278-.117a.168.168 0 00-.036-.056.113.113 0 00-.05-.03.094.094 0 00-.054 0 .116.116 0 00-.05.032l-.062.081-.073.09a.275.275 0 00-.222-.027c-.04.022-.162.063-.169 0-.006-.063-.046-.072-.07.072l-.148-.077-.076-.04-.206.063c-.046 0-.222-.081-.278-.063a.581.581 0 01-.331-.054c-.06-.045-.282 0-.378-.054l-.086-.022c-.036 0-.112.063-.119.05-.076-.108-.11 0-.169 0-.06 0-.09-.064-.139-.086-.05-.022-.053.045-.053.072v.022c.033.027.05.058.036.072-.013.013-.072 0-.115 0a.57.57 0 00-.312.036h-.076c-.116 0-.278-.099-.331-.045l-.123.103a.535.535 0 00-.271-.099.79.79 0 00-.275.13c-.047.04-.09-.152-.096-.16a.98.98 0 00-.242 0l-.616.08c-.093 0-.331-.27-.378-.229-.046.04-.112.238-.251.256a4.078 4.078 0 01-.895-.26l-.198.206-.053.058a1.5 1.5 0 01-.311-.103c-.037-.027-.18 0-.242 0-.063 0-.255.063-.288.067a1.554 1.554 0 01-.332-.022 2.994 2.994 0 00-.768.08l-.169-.147s-.414.116-.42.12c-.007.005-.04.063-.063.068l-.103.027c-.096-.063-.169-.153-.16-.202.01-.05-.019-.197-.059-.197-.04 0-.122.04-.092.085v.117c0 .098-.087.157-.19.13h-.162c-.108.034-.22.057-.33.067-.107 0-.418-.067-.48-.036-.064.031-.273-.036-.332 0-.06.036-.258-.027-.291 0h-.034a.819.819 0 01-.46-.04l-.142-.054h-.447c-.063 0-.126-.175-.203-.058l-.043.062-.02.036a.486.486 0 01-.235.13 1.445 1.445 0 01-.483-.134 1.237 1.237 0 01-.199-.023.698.698 0 00-.235 0 1.67 1.67 0 01-.348 0 1.261 1.261 0 01-.367-.12c0-.023-.063.026-.12.156l-.172-.112c-.046-.031-.175.121-.275.135h-.083a.29.29 0 00-.187-.002.368.368 0 00-.167.118l-.142-.134-.083-.081c-.133-.067-.265-.085-.288-.036-.023.05-.143.157-.176.103a.177.177 0 00-.116-.069.158.158 0 00-.122.042l-.06.04a.203.203 0 01-.146 0v-.22c-.172-.062-.33-.057-.33 0a.27.27 0 01-.079.133.161.161 0 01-.12.043l-.073.027c-.06 0-.096.08-.106-.032a.15.15 0 00-.012-.065.102.102 0 00-.037-.046.067.067 0 00-.048-.01.078.078 0 00-.046.027c-.159.153-.33.05-.51.08l-.116.023-.274.045h-.02l-.14-.031c-.192-.04-.294-.094-.235-.121.06-.027-.063-.175-.076-.22-.013-.045-.086-.094-.093 0-.006.094-.07.345-.129.31l-.043-.046-.05-.049a.198.198 0 00-.114-.1.15.15 0 00-.134.029c-.086.058-.331.107-.36.03-.03-.075-.176-.214-.246-.111v.318a1.269 1.269 0 01-.407-.05 2.812 2.812 0 00-.457 0l-.192-.08c-.15-.019-.3 0-.444.054l-.08-.04-.08-.036c-.052-.135-.148-.216-.218-.17-.07.044-.228.179-.222.214v.063a.086.086 0 01-.03.036.056.056 0 01-.04.01.646.646 0 01-.158-.158c-.05-.067-.259.072-.288.076a1.011 1.011 0 01-.239-.049v-.036l-.023-.116h.301c.08 0 .113-.256.037-.27-.076-.013-.302 0-.302.077l-.033.072c-.04.085-.106.22-.168.224-.17 0-.034-.184-.107-.256 0 0-.086.063-.155.17-.07.108-.427.104-.54.113-.113.009-.232-.247-.265-.153s.205.166.222.18a.192.192 0 01.01.08.159.159 0 01-.027.072h-.09a1.432 1.432 0 01-.284-.251l-.023-.381c0-.054-.12-.144-.126-.14-.288.26-.192-.053-.222-.174-.03-.031-.063 0-.07.112-.006.112-.072.256-.139.18-.066-.077-.162.255-.185.318-.023.063-.122.255-.162.26-.04.004-.262 0-.427 0h-.186c-.033 0-.063 0-.063-.032v-.179a.329.329 0 01.074-.134.204.204 0 01.115-.063h.103c.067.06.14.106.218.134h.076c.037 0 .1 0 .11-.045l.043-.112a.374.374 0 01.072-.151.238.238 0 01.12-.082l.023-.036c.05-.09.05-.224.113-.287l.119-.125a.576.576 0 00-.202-.21c-.043 0-.176.062-.176.192s-.086.475-.185.48l-.06.09c-.073.111-.142.125-.252.022l-.109.161zm1.073-1.004a.259.259 0 00-.159-.04s.017.085.063.134c.14.06.29.06.43 0l.127.13s.053 0 .07-.04l.042-.054c.056-.094.033-.18-.046-.197-.08-.018-.444.103-.514.067h-.013zm-2.4.193c-.113.049-.173.148-.127.224.047.076.249-.08.298-.121.123-.04.249-.06.375-.058.086 0 .33-.059.294-.135-.036-.076-.275 0-.33 0a.82.82 0 01-.332-.04l-.096.058-.083.072zm57.775-12.518c.093.04.133 0 .09-.086a25.363 25.363 0 01-.266-.569l-.135.21-.103.158c-.11-.054-.139-.077-.066-.05.073.027.387.296.48.337zM42.446 24.52a.395.395 0 00-.243.068v.022l.033.08a.18.18 0 00-.029.102c0 .037.01.073.03.1.042.032.205-.076.284-.103.08-.027.043-.273-.076-.269zm39.88-12.701c-.059-.122-.092-.126-.069 0 .024.125.292.264.371.273v-.184c.067-.116 0-.125-.172 0l-.053-.027-.076-.062zM22.403 24.34c-.19.063-.285.112-.212.112.117.045.229.113.33.202.057.04.223.103.223.027s-.076-.21-.17-.157h-.02l-.151-.184zm8.137.448c-.04 0-.02.126.046.3l.09.06.109.07a.375.375 0 00.291.117l.017-.044.02-.05c0-.085-.113-.139-.229-.12l-.066-.041-.076-.045a.625.625 0 00-.202-.233v-.014zm26.866-.022c.056-.031.066-.094.026-.143a2.92 2.92 0 01-.185-.225c-.027-.044-.156 0-.13.113.027.112.233.304.289.268v-.013zm-29.532.251c-.017-.13-.027-.143-.02-.031.007.112-.023.408.046.399.07-.01-.01-.229-.026-.354v-.014zM2.497 16.76c.066 0 .106-.035.086-.12-.132 0-.162-.09-.152-.22v-.063c-.02-.085-.076-.063-.13.054-.052.116.127.327.196.35zm-1.146 2.157c0-.05-.053-.103-.11-.121l-.045-.023c-.044-.026-.06-.111-.13-.03-.07.08-.096.102 0 .178.096.077-.063.265.11.252.063 0 .119-.148.169-.234l.006-.022z" fill="#fff"/>
    <path d="M84.662 12.114c.043.054-.086-.04-.282-.201l-.235.058c-.036 0-.106-.058-.132-.108l-.057-.103c-.053-.139 0-.22.103-.179h.288c-.096-.085-.073-.148.05-.139l.086.143.063.108c.152.076.245.152.209.166-.037.013-.133.206-.093.255z" fill="#000"/>
  </g>
  <defs>
    <clipPath id="77803lVTqa">
      <path fill="#fff" d="M0 0h84.764v26H0z"/>
    </clipPath>
  </defs>
</svg>
