<svg xmlns="http://www.w3.org/2000/svg" fill="none" viewBox="0 0 420 224">
  <g clip-path="url(#BjHuRPgRMPa)">
    <path d="M126.99 62.39S132.056 0 149.279 0c5.066 0-4.053 26.883 9.625 46.158 6.078 7.102 17.223 4.058 31.406 4.058 35.997 0 93.78.127 142.344 18.26 29.887 11.16 46.604 35.507 46.604 35.507s47.11 30.941 40.018 39.564c-3.672 4.464-42.044-30.434-42.044-30.434s-6.079 5.073-48.63.508c-56.953-6.113-84.596 14.709-129.173 36.013-42.658 20.386-48.63 21.304-48.63 21.304s24.315 5.58 13.677 15.724c-8.536 8.116-24.872 12.849-52.176 11.16-20.516-1.268-48.377 10.905-58.761 16.738-21.007 11.799-46.097 11.16-51.67 5.58-6.843-6.853 5.573-54.781 29.888-81.665C71.487 94.544 97.61 76.593 126.99 62.39z" fill="#000"/>
    <path d="M9.777 219.962a.855.855 0 01-.793-1.128.86.86 0 01.311-.424c3.5-2.49 13.794-10.033 29.806-22.364 19.756-15.217 41.452-13.076 50.15-14.71 8.105-1.521-.654 9.298-4.053 13.189-3.545 4.057-8.104 7.608-18.236 10.144-9.923 2.486-17.015 16.222-57.185 15.293zm34.897-37.611c-3.546.507-3.546-2.338-2.969-3.282 4.488-7.37 10.06-13.964 24.75-18.529 13.622-4.236-1.012 6.594-6.078 14.202-3.597 5.397-11.403 6.995-15.703 7.609zm157.793-39.108c-1.357-3.312 3.673-4.509 3.293-12.123-.506-10.144 7.092-22.318 19.249-31.956 12.158-9.637 21.276-10.144 33.94-8.623 12.664 1.522 20.769 9.13 16.21 13.696-4.559 4.565-26.767 5.3-33.94 13.695-7.173 8.395-9.508 9.506-13.17 12.174-5.572 4.058-24.315 16.231-25.582 13.137z" fill="#fff"/>
  </g>
  <defs>
    <clipPath id="BjHuRPgRMPa">
      <path fill="#fff" d="M0 0h420v224H0z"/>
    </clipPath>
  </defs>
</svg>
