<svg xmlns="http://www.w3.org/2000/svg" fill="none" viewBox="0 0 90 14">
  <g clip-path="url(#ZbHTcnzMsa)" fill="#000">
    <path d="M66.537 13.047a.343.343 0 01-.052.059s-.131 0-.254-.02l-.14.07-.063.03a1.5 1.5 0 00-.263-.024c-.084 0-.37.089-.398.083v-.034c0-.036-.1-.043-.207-.017-.214.008-.428 0-.637-.024-.131 0-.497.08-.573.077-.076-.004-.274-.055-.334-.06-.06-.006-.231.047-.275.056-.044.01-.147 0-.151.047-.004.048-.239-.028-.31-.026l-.052.017c-.123.043-.14.019-.18-.043l-.027-.046c-.076.057-.183.09-.23.07a1.442 1.442 0 00-.399-.011l-.08.03-.071.028a4.372 4.372 0 01-.227-.024l-.02-.02c-.052-.027-.083-.063-.135-.091a.152.152 0 00-.061.027c-.015.012-.02.025-.019.039 0 .024-.147.066-.262.08l-.096-.043-.024-.01a.503.503 0 00-.155-.022.502.502 0 00-.155.023l-.064.02-.04.012a.186.186 0 01-.037-.004.119.119 0 01-.03-.01.053.053 0 01-.02-.015.023.023 0 01-.004-.018v-.046c0-.015-.032-.028-.084-.026v.011c-.04.025-.056.059-.091.085l-.048.032a.797.797 0 00-.195-.017 1.092 1.092 0 01-.216-.019.754.754 0 01-.182-.058l-.203.074a.284.284 0 01-.131 0l-.084-.08a1.981 1.981 0 00-.267.098c-.031.023-.159.063-.187.03-.028-.031-.163-.1-.23-.063l-.068.009-.115.017-.291.01-.23.031c-.092.014-.423-.062-.455-.035l-.04.015-.04.013c-.055 0-.079 0-.05-.03v-.017c0-.017-.049-.032-.08-.046l-.108-.034a.327.327 0 01-.056.104.623.623 0 01-.154.04.826.826 0 01-.176.005l-.123-.015h-.028c-.024-.02-.036-.035-.024-.035a.244.244 0 00.087-.1c.036-.053.355-.034.399-.042v-.022a1.402 1.402 0 00-.303-.121l-.183.047-.08.02c-.095.014-.095.04 0 .06.096.018-.02.177-.111.2h-.115a2.625 2.625 0 00-.633.024.537.537 0 01-.126-.002.394.394 0 01-.11-.029l-.055-.026c-.028-.053-.071-.072-.103-.041a.545.545 0 01-.279.101c-.091-.005-.398.012-.45.068l-.08-.035v-.01a1.558 1.558 0 01-.122-.09l-.1.033-.028.012a.29.29 0 01-.08-.017.123.123 0 01-.051-.034c0-.023-.06-.085-.084-.047v.06c-.04.042-.091.034-.155.011-.163-.054-.04.053-.115.055h-.048a.902.902 0 01-.27 0l-.08.04a.24.24 0 01-.108.013l-.179-.108c-.111.085-.27.123-.35.083-.08-.04-.43 0-.49-.02-.06-.021-.338.041-.473.035l-.116.036a4.893 4.893 0 00-.286-.047l-.195.019-.14.013c-.02-.05-.087-.072-.15-.045-.064.026-.303 0-.335 0a2.28 2.28 0 00-.259.055l-.107-.015-.123-.018a1.03 1.03 0 01-.295 0 .162.162 0 00-.062-.01.162.162 0 00-.061.01c-.04.021-.22.082-.251.059a.67.67 0 00-.2-.087 1.723 1.723 0 00-.425.036 2.89 2.89 0 01-.497 0c-.064 0-.26.034-.31.019a2.026 2.026 0 00-.247-.047l-.096.045c-.127 0-.259-.011-.295-.011-.035 0-.19.02-.282.026-.092.006-.29 0-.307.062l-.175-.064-.032-.011a1.323 1.323 0 00-.218-.011c-.08 0-.363-.016-.446.01-.136.03-.281.05-.43.057l-.032-.013c-.075-.028-.123-.068-.239-.062h-.099a.467.467 0 01-.16.077h-.149c-.12.017-.295.046-.398.063l-.068-.063c-.068-.064-.187-.067-.303-.022l-.585.043h-.163a4.632 4.632 0 00-.438 0c-.06 0-.206-.053-.214-.024-.008.028-.076.052-.132 0-.056-.053-.438 0-.569 0a5.03 5.03 0 00-.541.052l-.219-.092c-.184.014-.37.02-.557.017-.076.045-.143.074-.283.036l-.063-.017a5.172 5.172 0 01-.422.062h-.243a1.542 1.542 0 01-.334-.041c-.032-.016-.124-.044-.136-.029a.442.442 0 01-.187.064 2.02 2.02 0 01-.398 0v-.1a7.683 7.683 0 00-.398.057l-.107-.036a.386.386 0 00-.199 0c-.092.046-.195.032-.298.04h-.096l-.29.047c-.048.01-.203-.045-.287-.038a6.876 6.876 0 01-.398.023c-.048 0-.155.03-.18.017-.126-.052-.26-.1-.397-.145v.152a.444.444 0 01-.131 0l-.231-.047a6.41 6.41 0 01-.617.051h-.227c-.024-.045-.243-.058-.485-.028h-.223c-.056 0-.048-.057.02-.077h.031c.052 0 .056-.02 0-.03-.055-.012-.175-.016-.175.02 0 .036-.071.151-.159.159-.087.007-.398-.046-.485-.036h-.116a1.323 1.323 0 01-.306-.025l-.151-.04c-.137.027-.27.058-.398.093-.064.019-.172-.08-.184-.08a.695.695 0 00-.135.042l-.02-.047c-.103-.045-.163-.041-.175.038v.019a.24.24 0 01-.148 0 .085.085 0 01-.031-.021c-.04-.034-.27-.013-.398 0a6.722 6.722 0 01-.55.015l-.023.036s-.111.017-.131 0c-.02-.017 0-.094-.14-.066l-.043.013c0 .057-.144.074-.283.038l-.131-.034a2.406 2.406 0 00-.37.022c-.088.044-.172.087-.203-.018l-.156-.023c-.06 0-.234-.023-.254 0a1.07 1.07 0 00-.092.068.723.723 0 01-.187.049c-.08.01-.306-.032-.318-.02a.363.363 0 01-.183 0c-.044-.023-.22-.08-.259-.063-.04.017-.167.05-.199.038-.032-.014-.131-.042-.14-.02 0 .008-.006.015-.017.02a.106.106 0 01-.04.012.146.146 0 01-.045-.003.072.072 0 01-.033-.015h-.175c-.04-.045-.107-.058-.15-.026-.045.032-.176.105-.188.088-.012-.017-.08-.045-.127-.034-.048.012-.195.038-.203.023v-.015c-.028-.05-.128-.05-.14-.02-.04.093-.143.09-.258.05l-.092-.032-.354.064-.084-.05a.17.17 0 00-.059-.033.403.403 0 00-.174-.013.287.287 0 00-.077.022s-.056 0-.072-.014l-.095-.059c-.04.024-.096.064-.131.089h-.16a7.213 7.213 0 00-.302-.02l-.183.03c-.06 0-.283-.069-.354-.046-.072.022-.287.05-.319 0-.032-.051-.314.034-.442.04-.127.005-.453-.044-.457-.02-.004.025-.056.085-.084.065v-.024c0-.014-.1-.03-.203-.033-.103-.004-.318-.06-.266-.085.051-.024.74-.032.88-.047.139-.015.13-.064.043-.047l-.092-.019a1.184 1.184 0 01-.195.072c-.08.022-.195-.11-.23-.115-.036-.006-.076.045-.076.068v.018c-.04.076-.032.06.06.078l.115.022c.078-.01.152-.026.223-.045h.02l.107-.034a1.096 1.096 0 01-.43-.034 1.399 1.399 0 00-.441-.04c-.068.012-.319-.016-.398 0-.08.018-.056.095-.036.114a.37.37 0 00.167.064c.052 0 .127.017.056.036a2.124 2.124 0 00-.287.1c0 .015-.159 0-.183 0a2.015 2.015 0 01-.163-.102 3.95 3.95 0 00-.318-.111c0-.014-.052.047-.04.071h.024l.091.023c.1.019.155.056.128.087v.011c.035.026.051.058-.024.043l-.124-.022a4.628 4.628 0 01-.398-.046c-.169.004-.335.02-.493.05-.048.01-.16.022-.23.037l-.069-.013h-.04l-.043-.026c-.048-.03-.116-.04-.151-.02-.036.021-.168.02-.231 0-.064-.018-.303.02-.398 0l-.08-.031s.032-.036.04-.057v-.06c0-.021-.04 0-.072.03-.031.03-.23.07-.223.081.002.012-.007.023-.023.032a.152.152 0 01-.064.015 4.881 4.881 0 01-.458-.075c-.111-.025-.441.028-.465.024-.024-.004-.076-.022-.064-.034a.642.642 0 01.127-.06c.04-.015-.063-.145-.234-.16l-.068.083-.056.064c.1.086.088.164-.028.175l-.032-.015c-.067-.03-.087-.089-.207-.094v-.014c-.023-.094-.023-.092-.202-.105h-.092c-.12-.023-.219 0-.219.038 0 .037-.04.145-.091.149l-.072-.034c-.068-.04-.068-.08 0-.087.068-.008.052-.113 0-.117-.052-.004-.203.062-.23.049a.483.483 0 00-.136-.047h-.02c-.034.017-.07.034-.107.049-.036.015-.191-.062-.223-.038-.032.025-.148.068-.203.053a1.046 1.046 0 00-.275-.028c-.04 0-.135.054-.147.028-.012-.026-.08-.09-.128-.087h-.027l-.203.057c-.183-.053-.354-.106-.398-.115-.044-.01-.116-.03-.124-.025a.242.242 0 00-.043.08c0 .03-.191 0-.24 0-.047 0-.17 0-.174-.025-.004-.024-.171.011-.223.036-.052.024-.287.041-.319.058l-.035.015c0 .01-.06.023-.064.02l-.195-.103c-.02.087-.116.147-.211.132-.095-.015-.235-.147-.243-.128a.317.317 0 01-.06.072 1.596 1.596 0 01-.198-.104c0-.011.035-.045.043-.068v-.024c-.002-.013-.013-.024-.03-.034a.18.18 0 00-.065-.02v.012c-.124.06-.18.04-.207-.036-.072 0-.132.021-.136.042-.003.02 0 .068.04.072.04.003-.024.075-.083.082-.06.008-.18-.088-.2-.143v-.05c0-.021.076-.054.112-.052h.167c.18.015.323 0 .315-.028-.008-.028-.275-.047-.315-.081a.268.268 0 01-.055-.117c.006-.049.039-.096.095-.138l.052-.028c.064-.036.135-.07.203-.104v.074c0 .041.123.15.175.13.052-.02.195-.092.16-.115l-.025-.013-.032-.015c-.043-.014-.055-.034-.031-.044.024-.01.063-.05.031-.068-.031-.017-.573-.062-.533-.07.04-.007.072-.028 0-.026-.072.002-.147-.098-.175-.096-.028.002-.084.015-.076.026.008.012 0 .033-.06.025h-.047c-.151-.05-.223-.09-.16-.094.064-.004.255-.036.255-.063a.355.355 0 00-.123-.12.638.638 0 00-.146-.036.823.823 0 00-.164-.004.49.49 0 01-.199.017c-.064-.015-.22-.025-.171.017.047.041-.171.189-.26.256h-.238c-.044.051-.083.072-.087.05-.004-.023-.056-.091-.088-.066-.032.024-.16.054-.227.024s-.31-.098-.398-.085c-.087.013-.286.095-.442.068l-.143-.02s0 .022-.032.031c-.031.01-.067.044-.1.044H8.56a.57.57 0 01.1-.119c.015-.033.008-.067-.02-.098a.298.298 0 00-.14-.074l-.087.117c-.02.029-.123.044-.195.053-.072.01-.091-.019-.103-.036-.012-.017-.02-.054-.088-.022-.068.032-.123.034-.16 0-.036-.03-.05-.063-.039-.097a1.1 1.1 0 01.167-.132l.056-.043a.646.646 0 00-.279-.124 2.828 2.828 0 00-.398-.034 1.604 1.604 0 01-.453-.155c-.052-.042-.307-.064-.323-.075a.367.367 0 010-.176l-.095-.07-.032-.024c-.009-.02-.003-.041.017-.06a.197.197 0 01.09-.042l.056-.032c.092-.053.084-.057.151-.028l.032.015.112.041c.051-.054.115-.068.143-.03.028.038.298.047.374.04.076-.008.283-.053.183-.072-.1-.019-.282-.087-.247-.123l-.075-.022-.128-.04c-.087.062-.163.102-.167.089a.273.273 0 00-.131-.05c-.056 0 0-.107.103-.118l.052-.03.052-.034c.048-.06.056-.117 0-.127-.056-.009-.048-.075.048-.128.11-.056.204-.12.278-.188-.032 0-.091-.046-.052-.074h.108a.396.396 0 00.113-.045.153.153 0 00.062-.064l-.08-.04a.555.555 0 01.132-.253l.083-.03c.08-.025.137-.062.164-.105.04-.049.086-.096.139-.142l.036-.024.083-.057a.366.366 0 01-.103-.21l.02-.052.031-.076c-.107 0-.155-.035-.099-.062a1.48 1.48 0 01.378-.096h.235c.078-.04.165-.075.259-.106.083.076.167-.034.262 0 .085.028.181.048.283.059a.07.07 0 01.03-.029.186.186 0 01.055-.018.285.285 0 01.13.007c.075.025.298-.043.318-.045.064.038.163 0 .207.015l.12.042a.765.765 0 01.397 0l.112-.053c.135.018.268.04.398.066l.159-.062h.024c.066.004.133.004.199 0 .109.005.215.019.314.041a.898.898 0 00.263-.023c.052-.018.326 0 .438 0h.107a.416.416 0 01.151.014l.076.035c.11-.027.225-.05.342-.071l.104-.021c.031 0 .047-.025.071-.038l.06-.034c.028.036.08.059.12.051.087-.046.138-.105.143-.168v-.079c.156.003.313-.004.465-.022l-.028.013-.195.092c0-.08-.04-.141-.095-.132-.056.01-.06.096-.056.128.018.05.057.097.116.138.024.011.163-.045.219-.075.055-.03-.267-.174-.518-.215l-.072.035-.08.04a.398.398 0 01-.31.089c-.099-.02-.346-.087-.338-.04l-.02.03v.012c-.067 0-.12 0-.111-.017.008-.017 0-.05-.036-.053-.036-.004-.147-.025-.135-.042h.115c.1-.043.116-.088.036-.1l-.028.012-.111.05c-.126 0-.25-.009-.37-.026-.068-.013-.231.055-.263.06l-.072-.02a.641.641 0 00-.263-.015l-.071-.034h-.163c-.032 0-.06-.017-.06-.04v-.049a.282.282 0 01.108-.141h.254c.187 0 .163-.063-.047-.138h-.315a.523.523 0 01-.199.077l-.024-.01-.087-.05c0-.058-.03-.115-.088-.166h-.06c-.023 0-.047.032-.043.047v.013a.493.493 0 00.19 0l.084.014c.052 0 .112-.03.227-.014l.151.025c.189-.021.36-.068.494-.134l-.092-.053-.024-.013a1.12 1.12 0 00-.342.104l-.19-.042-.315-.105-.14.086a.178.178 0 01.068.086.11.11 0 01-.012.092c-.044.034-.203.1-.294.045l-.04-.04c-.01-.023-.001-.047.024-.068l.032-.024c.035-.096 0-.166-.116-.157-.115.01-.255-.124-.21-.143.043-.019.174-.094.09-.085-.083.01-.887.072-1.01.102s.04.049.207.034l.14-.036.043-.01c.052 0 .087 0 .08.012-.002.012.003.024.014.034.011.01.028.02.05.026.055-.034.099-.073.15-.11l.04-.025a.605.605 0 00-.23-.095c-.084-.015-.247.093-.271.104-.024.011-.1 0-.112-.068l-.155.038-.087.022c.213.015.423.039.628.07a.276.276 0 01.072.023.12.12 0 01.044.034.05.05 0 01.01.04.07.07 0 01-.026.039c-.046.03-.098.06-.155.085-.024-.036-.024-.094-.068-.104l-.12-.03a.21.21 0 01-.06.128 4.314 4.314 0 01-.636-.05l-.23.067-.08.023c.015-.034.003-.07-.036-.1-.032-.015-.155-.044-.163-.015-.012.02-.04.038-.078.05a.347.347 0 01-.13.01c-.099-.017 0-.166-.067-.188a1.305 1.305 0 00-.565.017l-.207.04h-.024c-.067-.044-.14-.073-.159-.063a.518.518 0 00-.084.049l.084.03a.967.967 0 00.263.053h.135c.183.056.16-.011.163-.068v-.013c.02-.012.036 0 .04.03.004.03.183.045.207.064v.015c0 .013-.06.032-.08.028-.103-.02-.195.066-.31 0-.12.042-.23.053-.247.025l-.044-.017h-.02a4.517 4.517 0 00-.206.062c-.052.017-.231.051-.255.023-.024-.028-.096-.108-.112-.102h-.027l-.156.025c-.153.027-.32.034-.481.018 0-.071-.072-.15.071-.213 0 0 0-.041-.031-.05-.032-.01-.092 0-.104 0a1.124 1.124 0 00-.111.101l-.02.02c-.032.018-.072.014-.084 0a.289.289 0 00-.127-.1c-.036-.01-.16 0-.187-.01-.028-.01-.132-.046-.14-.032-.007.013-.067.04-.095.017a.24.24 0 00-.064-.023.37.37 0 00-.155 0 .24.24 0 00-.064.023l-.091.035c-.056-.032-.084-.071-.052-.086.032-.015.084-.068.036-.072-.048-.004-.175-.036-.155-.058.02-.023.024-.102-.036-.106-.06-.004-.123-.057.032-.102l.123-.04a.235.235 0 00.104-.06.06.06 0 00.017-.04.06.06 0 00-.017-.04.332.332 0 00-.147-.015l-.084.018a.158.158 0 01-.052.119H4.66c-.1.024-.398-.044-.398-.095v-.015c.048-.02.14-.054.203-.079.08-.037.151-.078.211-.123 0 0 .056 0 .104.032h.095c.076-.032.104-.071.064-.086-.107-.072-.17-.157-.18-.245v-.215c.172-.065.32-.102.327-.08.008.023.06.06.104.044.043-.017.02-.115.06-.12.04-.003.146-.044.09-.082h-.039c-.072 0-.14.03-.215.036-.076.005-.151.02-.151-.036 0-.057 0-.076.056-.083l.127-.026c.131-.014.227.041.219.124l.195-.023.159-.017c-.068-.073-.06-.137 0-.14.06-.001.279 0 .287.033.008.032.063.06.111.03s.199-.107.207-.081c.008.026.068.089.103.066.117-.049.267-.075.422-.074l.108-.033.115-.036c.143.004.287.004.43 0h.151c.102-.01.208-.01.31 0 .172-.004.344-.012.514-.025.08.011.163.02.247.023.071 0 .258 0 .314.015.056.015.29-.07.398-.096l.02.098v.032l.235-.059c.052-.011.143-.054.175-.028s.27 0 .338-.011c.106 0 .21.008.31.024.04 0 .16-.041.184-.054.024-.014.15.01.183.018.111.002.222-.012.318-.04.107-.027.49.052.605.057.115.006.398-.086.466-.09.067-.004.242 0 .318-.034l.14.057c.055.022.202-.016.31-.016.107 0 .175.021.262.023a1.42 1.42 0 00.2-.024l.15-.025v.036c0-.038.24 0 .33-.013h.08l.327.017c.366.01.768.017.895.013.171-.014.339-.035.502-.062a3.06 3.06 0 01.274-.029l.032.021c.108.062.223 0 .29.015l.124.034a2.38 2.38 0 01.354 0c.169-.017.335-.04.498-.066l.15.045.084.025c.113-.019.233-.024.35-.015.053.011.172-.023.2 0a.355.355 0 00.219.04c.11-.032.23-.056.354-.072.096 0 .19.01.278.028.052.015.335-.038.502-.058.167-.021.64.033.676.015.036-.02.191.028.231.034.04.005.14-.014.155 0 .016.013.072.041.088.024a.226.226 0 01.091-.025.298.298 0 01.104.01c.076.025.342-.042.398-.045l.04.013a.504.504 0 00.199.037.504.504 0 00.199-.037c.12-.042.242.06.322.03a.518.518 0 01.158-.038.665.665 0 01.176.008.342.342 0 00.183 0c.044 0 .156.026.16.02.06-.058.131.025.179 0 .047-.024.067-.014.12 0l.099.037.605-.05c.203-.015.91 0 .998-.013h.31c.193.008.387-.003.57-.032.056-.022.362.017.486.03h.561c.031.036.067.065.083.063a.598.598 0 00.132-.029c.04-.015.17-.056.214-.04.044.018.335-.028.538-.024s.796.038.88.044c.083.005.302-.032.357 0 .056.032.315-.03.398-.034l.43-.021c.092 0 .358.043.426.032.123-.011.25-.011.374 0 .171.004.342.004.514 0l.13.02.104.016c.228-.031.464-.048.7-.05.364 0 .726-.009 1.087-.028l.052.108c.111 0 .19-.015.175-.028-.016-.014 0-.059.068-.057a3.43 3.43 0 00.434-.04l.115.034.068.017c.04.027.103.051.139.051.032-.015.056-.056.071-.054l.327.03c.358-.038.652-.047.66-.02.008.025.084.088.16.069h.063c.136 0 .084-.06.14-.076.055-.015.13 0 .195-.01.063-.012.143-.027.218-.033h.044c.073.014.147.026.223.036.102.003.205-.006.299-.025.043-.01.246.014.31 0 .064-.013.398-.019.573-.045l.167.066a.384.384 0 00.195 0l.136-.055c.14.026.283.047.43.063v-.014c.083-.09.198.029.294-.015l.095-.041c.138.039.287.068.442.087l.131-.05.092-.033a.33.33 0 00.133.06.638.638 0 00.181.015l.032-.024c.068-.059.124.026.18 0 .106-.013.218-.011.322.005.275-.001.549-.013.82-.036.083.044.19.066.278.025.088-.042.135.045.239.02l.083-.016c.184.028.38.034.57.019h.175c.107 0 .278-.014.306.013l.08.07a.708.708 0 01.195-.051c.08-.003.159-.003.238 0h.076c.072 0 .14-.027.215-.036.026.027.06.052.103.073.036.014.12-.047.148-.077h.179c.111 0 .302 0 .426-.015h.235c.13 0 .246.011.254.036a.265.265 0 00.04.08c.023-.01.037-.025.04-.04 0-.025.083-.087.139-.082l.02.013c.111.072.107.074.259 0 .1-.015.205-.023.31-.026.155 0 .561.072.609.057.048-.015.135.017.091.04-.043.022-.123.086-.043.073.117-.029.218-.07.298-.119h.028c.06 0 .12.024.18.026.059.002.106-.024.162-.026a.609.609 0 01.195 0l.191.049c.164-.024.332-.043.502-.055h.055c.125.027.263.037.398.029l.18-.038c.163.043.318.056.342.032.216-.014.436-.014.652 0h.398c.204.003.408-.007.605-.03l.148.028c.123.02.244.043.362.07a.36.36 0 00.131 0c.024-.081.088-.094.203-.034.106-.01.21-.024.31-.042l.12.02c.147.02.262.045.398-.012.036-.015.127 0 .19 0h.049a.427.427 0 00.195-.015c.06-.02.318.015.398.019.175.01.353.01.529 0l.111.062s.032-.013.056-.015l.338-.036c.18.026.355.047.398.049.044.002.27-.011.494-.011l.203-.017h.02c.04.045.083.056.095.028.012-.028.354-.047.561-.064l.163.073c.097-.017.2-.026.303-.026l.103.02c.088.018.16-.086.275-.014.02.011.092 0 .135 0 .044 0 .06-.012.088-.01h.048c.096.005.193-.001.282-.019l.064.05c.087.07.155-.044.262 0 .108.043.052.107.116.143a.369.369 0 00.187 0l.096-.027c.095-.043.155-.08.127-.086-.028-.006 0-.029.103-.042l.104.011c.06 0 .123.027.183.025h.187c.111.068.203.104.203.077 0-.026.091-.124.199-.122.107.002.358.083.37.071v-.01l.028-.018c.054 0 .108.004.159.013.05.01.097.024.135.042a3.3 3.3 0 01.482.064c.036.019.151.02.155 0 .004-.02.167-.028.175-.026a.222.222 0 01.048.118l.171-.062c.084-.027.179-.046.279-.056h.051c.04 0 .075.009.103.022.027.013.043.03.045.05v.031c0 .036 0 .074.1.068.099-.006.05-.053.067-.08v-.014c0-.025.056-.028.083 0 .01.008.025.015.043.02a.222.222 0 00.114 0 .116.116 0 00.042-.02l.04-.03a.122.122 0 01.037-.019.223.223 0 01.05-.01h.029c.033.03.059.06.075.093 0 .034.18.049.143.038-.035-.012 0-.093.175-.159l.144.083.06.032c.071-.02.14-.04.206-.064.056-.019.343.05.37.055h.044c.028 0 .04-.021.028-.029-.012-.007.092-.054.27-.075l.096.03.148.044c.143-.016.246-.014.23 0 .026.075.112.142.24.188l.222-.073.135-.046c.223.04.358.072.295.068l-.064.085-.29-.038s-.036.066.111.059l.084.03.179.068c.052-.066.103-.11.107-.094.004.015.056.054.1.06.044.006.143-.047.155-.06.054-.037.115-.071.183-.102.068-.034.175-.189.187-.159.012.03.076.108.123.106.08.002.159.008.235.019.036.01.12-.012.072-.025a.703.703 0 01-.171-.079v-.011s.04-.02.051-.017l.084.015c.108.02.199.06.199.085 0 .024.04.094.088.085.047-.01.091-.108.107-.134.016-.027.207-.015.227-.012.02.021.03.044.03.066 0 .023-.01.046-.03.066-.056.063-.08.189 0 .125s.334-.189.398-.176c.064.014.17-.049.195-.075.024-.026.227-.034.258 0 .032.034-.23.09-.298.106-.102.02-.198.046-.287.077a.119.119 0 00-.023.089h.107l.056-.036c.051-.042.111-.076.127-.074.02.005.038.012.052.02a.066.066 0 01.028.03.46.46 0 00.111.112c.032.021.12.068.14.06a1.03 1.03 0 00.19-.095h-.227a.925.925 0 01-.119-.115.094.094 0 01.044-.031.238.238 0 01.072-.015h.11c.047-.008.092-.018.135-.03 0 0 .104.023.136 0 .031-.023.131-.024.159 0 .028.025.183.102.27.066l.056-.026.064-.027c.08.032.165.061.255.087l.055.045.056.046.25-.076.029-.019.047-.037c.018-.023.055-.042.102-.053.046-.01.1-.012.15-.004.09.017.246.092.306.102.06.01.199.017.175-.023v-.013c.04-.02.115-.028.163-.047-.024-.028-.024-.057 0-.062.024-.006.1.017.127.045a.62.62 0 00.177.067.984.984 0 00.221.025v-.119c0-.033.191-.049.227-.016.036.032.024.062-.076.07-.028 0-.08.043-.067.054l.04.047a.341.341 0 01.113-.037.55.55 0 01.137-.006c.104 0 .398-.051.398-.04h.036c.044 0 .108.013.135 0l.128-.043c.131.026.258.049.286.053.088.004.176.004.263 0l.083.037.028.012a.176.176 0 00.074-.001.105.105 0 00.03-.012.042.042 0 00.016-.016c0-.026.135-.11.243-.113.132.005.265.005.397 0V6.21c0-.015.044-.015.052 0v.011l.036.028c.036.027.155.02.263-.015l.1.055a.391.391 0 01.202-.047c.04.01.227 0 .303 0 .075 0 .326-.042.398-.051.071-.01.266.028.354 0l.103.053.076.04c.134-.028.276-.045.422-.05l.091-.028.092-.027c.104.026.2.059.282.099l.076-.059c.068-.049.131.025.195.025s.179-.046.207-.034a.833.833 0 00.342.036c.14 0 .299.032.418-.036.062.007.122.017.18.03.193.034.407.03.596-.01h.108c.225.022.446.053.66.093.048 0 .068.053.108.079.04.026.051.03.08.03.027 0 .11-.024.154-.019h.032c.014.02.037.037.067.052a.41.41 0 00.104.035c.123.006.247.002.367-.011l.051.02c.139.045.307.065.474.055.02 0 .063.044.055.05-.047.033-.139.056.032.067.08 0 .072.05 0 .077l-.032.016c-.012.011-.02.024-.02.037 0 .013.008.026.02.038.02.025-.095.06-.135.04-.04-.021-.207.01-.25 0l-.024-.023v-.062a.152.152 0 00-.076-.032h-.02a.63.63 0 00-.135.08.317.317 0 00-.132.19c.028.031.275 0 .343.014v.02l.024.052c.055.05.123.068.15.044.029-.025.064-.133.136-.093.128.043.261.083.398.119.044.023-.084.104-.14.08-.055-.025-.238-.082-.266-.07a.683.683 0 00-.127.116l-.108-.04c-.032-.01-.119-.013-.131 0-.012.014-.032.053.06.072l.067.015c.06.053.06.112 0 .132l-.035.025-.02.017c.011.026.04.05.08.068.106.035.225.061.35.079l.031-.066.052-.104c.147.027.23.057.187.066-.044.01-.123.04-.107.05l.17.088.065.028.051.027a.646.646 0 01.255.019h.072c.08.004.162.004.242 0 .133.006.266.006.398 0 .128-.012.227.037.355.022.067 0 .159.019.222.04l.092.028c.148.003.296.01.442.023.135.013.585.132.744.16l.147.019.1.013c.11.005.22.015.326.03l.064.02.25.078c-.043.085-.1.189-.127.23L84 8.444c.091 0 .14.017.12.064v.032c-.018.03-.011.064.02.092.027.017.095.074.059.085a1.246 1.246 0 00-.219.1l.1.019c.087.015.123.038.083.068l-.075.053a.645.645 0 01.25.284l.152.102.04.025c-.064.07-.076.128-.033.132.044.003.108.036.052.064-.056.028 0 .13-.04.136a.231.231 0 00-.095.05c-.02.02-.03.044-.024.067l.028.047a.277.277 0 01.075.147.315.315 0 01-.159.13c-.051.023-.179.011-.207.036l-.051.049c-.08 0-.18-.013-.223-.015-.044-.002-.247.113-.29.103-.045-.009-.28.038-.367.04l-.08.017c-.063.013-.183-.034-.234-.019a.253.253 0 01-.104.02.253.253 0 01-.103-.02.471.471 0 00-.215 0l-.18.05c.02-.057-.107-.038-.278.039l-.25-.025h-.04a.358.358 0 01-.16.017.95.95 0 00-.215.008.663.663 0 00-.183.054l-.206-.058c-.064-.017-.231.036-.267.017l-.111-.062c-.11.042-.226.081-.347.117l-.087.011a1.51 1.51 0 01-.307 0 1.04 1.04 0 00-.45.013l-.119.038c-.159 0-.306 0-.322-.023v-.013l-.036-.026c-.048-.029-.123-.017-.175.028-.052.045-.398 0-.514 0-.184.022-.365.05-.54.085h-.08a1.529 1.529 0 00-.367.019c-.035 0-.071.022-.103.02h-.064a2.97 2.97 0 01-.25.051l-.068-.009h-.056c-.052-.036-.091-.023-.087.03l-.16-.015c-.095-.01-.218-.024-.302.026h-.056c0-.035 0-.077-.103-.062-.104.015-.052.06-.1.072a1.5 1.5 0 01-.326.047h-.127a1.846 1.846 0 00-.37 0c-.103.017-.21.026-.319.026a1.665 1.665 0 00-.246 0c0 .012-.108.042-.116.029a.121.121 0 00-.06-.029.253.253 0 00-.083-.003c-.06.015-.255.041-.29.026-.037-.015-.184-.062-.22-.049a.828.828 0 00-.15.094c-.04.029-.236.014-.303.027h-.132a3.79 3.79 0 01-.398-.023h-.1a.265.265 0 00-.087.01l-.222.071c-.132-.053-.243-.077-.251-.055-.008.023-.076.078-.132.063h-.091a.529.529 0 00-.211.07h-.147c-.024.016-.036.035-.036.054 0 .02.012.039.036.055h.055c.092.015.088-.028.108-.06.02-.032.091-.015.143-.02.052-.003.243-.045.319-.024.075.02.234.017.35.023.115.005.246 0 .366 0 .123.004.247.004.37 0 .171-.011.23.06.322.105l.104.053c.105 0 .21-.006.31-.02a2.08 2.08 0 01.2-.02c.043 0 .19.051.238.069.048.017.227.052.259.032l.024-.025c.035-.036.031-.036-.088-.038a.236.236 0 01-.056 0c0-.019 0-.053.02-.054.08 0 .2-.046.215.032v.04c0 .046-.04.095-.048.107-.008.011 0 .04.032.036h.028l.112-.014.147-.016c-.029-.023-.037-.05-.025-.075.013-.025.046-.047.092-.061.096-.027.398-.027.398 0v.047c-.023.03 0 .054.028.053a.246.246 0 01.106.041c.025.02.035.042.03.064h.031l.279.055c-.056.117-.171.206-.255.188l-.063-.013a2.77 2.77 0 00-.172-.037.259.259 0 00-.107.013l-.072.026a.766.766 0 00-.266.063v.052a.827.827 0 00.25.05l.048-.018c.044-.013 0-.077.104-.062l.071.011c.072.034.151.036.183 0 .032-.035.203 0 .195.016-.008.015 0 .045.028.045s.155-.015.163-.034c.008-.019.048-.074.08-.072 0 .019 0 .042.032.057l.083.056h.295c.02.026.026.054.017.082a.149.149 0 01-.069.075l-.151-.045-.115-.036c-.128 0-.235.034-.24.07-.003.035 0 .135.06.135s.152-.015.116-.035v-.035c0-.028.08-.04.151-.028.072.013.195.057.111.074v.019c.01.031.042.06.092.08 0 0 .076-.026.115-.024.045.006.083.02.108.038l-.056.043-.278-.028c-.14-.013-.502.055-.538.04h-.032a.398.398 0 00-.115.032v.039c.024 0 0 .027-.024.036a.562.562 0 01-.195.013c-.028-.013-.131-.04-.159-.026a.265.265 0 01-.147 0 .124.124 0 01-.036-.017 2.643 2.643 0 00-.167-.138.228.228 0 00.02.14v.081a.237.237 0 01-.147 0v-.017l-.032-.04c-.032-.058-.104-.045-.16.029l-.071.036-.088.041c-.043.055-.091.089-.107.075a.534.534 0 00-.207-.056l-.068-.019-.068-.017c-.099 0-.183 0-.183.03s-.027.078-.063.066h-.032a1.073 1.073 0 00-.239-.049c-.04 0-.08.072-.123.072h-.084c-.074 0-.148-.006-.219-.017a.237.237 0 00-.053.002.168.168 0 00-.046.013.068.068 0 00-.028.022.028.028 0 00-.004.025v.081c-.036.046-.207.055-.378.021l-.2.094c-.119.057-.218.155-.425.059-.087.043-.199.054-.247.028l-.055-.02h-.215c-.112.015-.22.035-.327.058a6.51 6.51 0 01-.45.02c-.09 0-.31.072-.361.046-.052-.027-.172-.104-.164-.125.008-.02 0-.087-.091-.085h-.199a1.425 1.425 0 00-.219.15c-.048.039-.207.139-.243.122h-.028l-.143-.041a.26.26 0 01.127-.121v-.044c0-.026-.051-.047-.08-.043-.094.034-.185.07-.27.11l-.147-.034-.044-.01c-.04-.015-.111.011-.151.055-.04.043-.211.154-.27.13h-.056l-.1-.015a2.08 2.08 0 00-.247-.072c-.047 0-.043-.094-.067-.11-.024-.014-.1-.018-.116-.037s-.131 0-.147.04c-.016.04-.215.022-.259.017-.043-.006-.207.035-.354.017l-.14-.01h-.13c-.144-.019-.283 0-.31.02-.029.022.05.099.035.127zm-57.475-.905a.077.077 0 00-.028.04.054.054 0 00.008.043.12.12 0 00.044.038c.02.01.044.02.071.026h.096l.143.015c.163 0 .247 0 .191-.036-.056-.036-.458-.18-.525-.126zm-1.449-.545c-.013.056.005.112.052.164h.418c.046-.03.075-.066.082-.103.008-.037-.005-.074-.038-.108h-.032l-.092.011c-.091.032-.187.047-.21.034a.392.392 0 00-.176.002h-.004zM6.61 7.03a.345.345 0 00-.183.09c-.06.055.132.19.1.19v.042c.091.016.179.017.195 0 .016-.017-.04-.077-.064-.103-.024-.027 0-.1-.024-.129-.024-.028.016-.084-.02-.09H6.61zm66.697 4.78c0-.031.047-.044.103-.025.056.018 0-.065-.115-.06h-.116l-.223-.016c-.08.066-.087.113 0 .104.088-.01.263.015.275.037.01.026.028.05.052.074a.26.26 0 00.023-.113zm-2.878.944c-.048.056.032.1.183.098l.092.058a.24.24 0 00.127-.082c0-.025-.175-.078-.23-.085 0-.064-.04-.078-.116-.025l-.056.036zm-57.933-.072c0 .036.024.047.044.023.02-.025.12-.057.18-.034.059.023.266.032.242.02-.024-.01-.036-.046 0-.06.036-.013.052-.053-.104-.028l-.067-.017-.1-.023c-.115 0-.199.078-.195.117v.002zm-5.97-4.817a.106.106 0 00-.034-.01.149.149 0 00-.04.001.098.098 0 00-.033.01c-.008.006-.014.012-.016.018 0 .03.092.127.116.153l.067-.034.128-.066c.086.012.173.021.262.027.006-.006.01-.012.01-.018 0-.007-.004-.013-.01-.018-.071-.027-.15-.05-.222-.074H6.73c-.004-.028-.144.028-.195.01l-.008.001zm65.666 4.812c-.103-.017-.187-.02-.183 0a.252.252 0 01-.04.09c0 .025.04.051.104.023l.107.037c.096.034.128-.041.191-.064.064-.022.056-.054 0-.083-.055-.028-.075-.047-.151-.011l-.028.008zM14.303 8.536c.036-.019 0-.028-.08-.019-.08.01-.294-.075-.397-.073-.104.001-.116.113 0 .118a2.96 2.96 0 00.477-.026zm19.87-2.361c.049.013.084 0 .084-.027 0-.026.024-.094.048-.092.024.002.12 0 .116-.027a.233.233 0 000-.07 6.553 6.553 0 00-.398.035v.077c.023.042.077.078.15.104zm-16.2 7.276c-.052-.027-.144-.011-.207.03v.034c-.007.03.008.059.043.083.036.032.092.045.163.017l.056-.023c.076-.02-.004-.117-.056-.141zm1.69 0c-.11.013-.186.049-.17.077a.39.39 0 00.113.043.63.63 0 00.141.016c.06-.02.028-.157-.083-.142v.006zM5.608 7.574c-.023.045.044.066.152.045l.083-.026c.068-.02.128-.05 0-.089l-.032-.01c.012-.042-.183.035-.203.08zm59.115 5.47c.096-.029.052-.068-.1-.091l-.107-.02c-.103-.022-.143.02-.195.046a.045.045 0 000 .055c.106.021.22.031.335.03l.067-.02zm10.702-.968c.004.013.017.025.036.034.02.01.044.016.071.019a.816.816 0 00.219-.044.348.348 0 00.163-.147 1.597 1.597 0 00-.322.096l-.131.053-.036-.011zm-9.985.828c0-.028-.04-.036-.112-.019a1.2 1.2 0 00-.266.102l.043.03c.036.023 0 .074.108.062h.095a.432.432 0 00.132-.168v-.007zm-28.814.415c-.087-.027-.091-.027 0 0 .092.026.255.119.279.088.012-.029.006-.059-.017-.086a.254.254 0 00-.114-.068l-.024.011-.124.055zm22.92-.328c0-.025-.056-.017-.112.018-.056.036-.075.15 0 .14.093-.012.182-.03.263-.055 0 0 0-.034-.032-.032-.032.002-.111-.043-.12-.064v-.007zm-10.746.237c.187.01.283-.026.215-.075l-.111.013a3.437 3.437 0 00-.315.057v.052c0 .017.056.017.064.014l.147-.06zm27.755-6.476a.194.194 0 00-.044.153l.112-.016c.035 0 .083-.056.103-.01.02.044.056.077.147.044a.56.56 0 00-.155-.128l-.072-.015-.091-.028zM15.553 8.806c-.024.026.04.054.143.062l.06-.017.067-.019a.119.119 0 00.043-.064.085.085 0 00-.015-.066h-.091a.756.756 0 00-.207.104zm10.558 4.658c-.04.038 0 .053.064.032.063-.02.27 0 .302-.02v-.014c0-.03.044-.07-.06-.083h-.055c-.06-.022-.187.045-.251.085zm-12.007-.849c.1.046.104.057 0 .025a1.62 1.62 0 00-.398-.068c-.024 0 0 .068.151.1l.072-.017.175-.04zm10.08.768c-.075-.026-.135-.034-.135-.017a.199.199 0 01-.023.081c-.003.016.007.031.028.043.02.013.05.02.083.023.072.002.107-.104.048-.13zm11.35-.013c.08 0 .065-.042-.03-.09l-.104-.02h-.028c-.116.059.067.11.143.11h.02zM65.1 6.69c.088 0 .136-.027.112-.059a.334.334 0 00-.243-.075c-.088.017.028.134.111.134h.02zM13.495 8.102c0-.01 0-.034.068-.055.067-.02.06-.088 0-.07l-.064.018-.08.017c-.103.017-.139.054-.079.085l.052.026c.02 0 .04.024.06.024h.035c.012-.005.02-.013.021-.022.002-.008-.003-.016-.013-.023zm1.194.634c-.103 0-.14.026-.075.05.063.025.29 0 .378 0 .087 0-.187-.054-.295-.05h-.008zm24.121 4.566c-.107-.055-.223-.023-.258.072l.183.043h.04c.087-.032.147-.068.13-.077l-.095-.038zm29.494-1.279a.064.064 0 00.022-.014.025.025 0 00.008-.017.024.024 0 00-.008-.017.064.064 0 00-.022-.014 2.164 2.164 0 00-.283-.072l-.06-.002a.133.133 0 00-.033.01.059.059 0 00-.022.015v.038l.091.035c.108.033.267.055.307.038zm5.572-.285c.02.017.048.03.081.042a.637.637 0 00.34.004c-.175-.136-.175-.136-.421-.046z"/>
    <path d="M5.798 8.01c.076.024.084.049 0 .056a4.003 4.003 0 00-.421.127l-.036-.098V8.08a.91.91 0 00-.247.01.83.83 0 01-.334-.028L4.788 8s.067-.015.103-.017c.036-.002.044.02.04.025-.004.006-.108.03-.024.056h.024c.087-.028.169-.06.243-.096l.067-.041.088-.055c.166.038.324.084.47.138zm60.791 5.1a.098.098 0 01-.049-.027c-.009-.012-.01-.024-.003-.036a.434.434 0 01.223-.094c.133.004.266.012.398.024.055 0 .19-.062.219-.071.028-.01.047.056-.036.156l-.183.05h-.032a3.189 3.189 0 01-.537-.002zM11.143 8.425c.108.03.195.068.195.083-.002.026-.02.051-.051.073l-.152.059c-.028 0-.167-.02-.223-.03-.055-.012-.19-.023-.179-.108l.167.028c.048 0 .092.025.136.032.043.008.048-.013.056-.022a.03.03 0 000-.04c-.04-.013-.1-.015-.136-.03a.035.035 0 01-.013-.026c0-.01.004-.019.013-.027 0-.013.076-.024.1-.017l.087.025zm62.569 4.328c-.179 0-.342-.036-.362-.085h.183c.074.012.15.02.227.027.072 0 .231-.098.275-.133.044-.033.115.084.143.091.028.008.088.045.04.057-.048.011-.207.058-.27.071l-.088-.013-.148-.015zm-57.861.949a.541.541 0 01-.298.017l-.024.011c-.088.045-.104-.019-.155-.019-.08.003-.16.003-.24 0 0 0-.03-.023-.027-.032v-.013a.15.15 0 01.054-.01.15.15 0 01.053.01c.032.013.184-.027.235-.038.124.077.203.027.29-.019h.084c.012 0 .056.044.044.057l-.016.036zm-5.595-5.121a.108.108 0 01-.04-.02.038.038 0 01-.014-.027c0-.01.005-.018.014-.027a.108.108 0 01.04-.02c.067-.03.174-.11.202-.081.035.07.024.143-.032.21l-.11-.023-.06-.012zm65.84 2.859c-.002-.023.013-.046.042-.064a.29.29 0 01.117-.04c.084 0 .188.093.12.091l-.028-.015c-.052-.026-.076-.02-.12 0-.043.02-.071.032 0 .06l.024.014c-.002.014-.014.027-.036.037a.202.202 0 01-.079.015l-.036-.01c-.047-.016-.111-.035-.028-.074l.024-.014zm-3.199 1.41c0-.03.023-.05.06-.046.055-.019.099-.06.155-.062h.083c.096.015.123.05.064.079-.06.028-.362.056-.362.028zm-2.898.077c.013 0 .026 0 .038.003a.126.126 0 01.032.011c.01.005.016.01.02.016a.024.024 0 01.005.019c0 .03-.024.11-.06.109a1.061 1.061 0 01-.198-.045c-.08-.023 0-.138.06-.123h.051l.052.01zm-5.671-6.79c-.103 0-.071-.038.076-.085l.162.023h.028c0 .032-.063.083-.17.113l-.02-.011-.076-.04z"/>
    <path d="M21.757 1.086c0-.113.032-.188.076-.152l.055.017c.048.017.136.015.175.032l.056.022a.16.16 0 01.044.134l.032.028a.367.367 0 00.187.085l.12.017c0-.041.047-.083.079-.088.032-.006.095-.036.036-.051-.06-.015-.215-.07-.148-.074.068-.004.247-.045.247-.08 0-.033.048-.124.108-.08.06.043.19.177.155.2a.343.343 0 00-.112.113c.012.01.032.02.056.024a.216.216 0 00.076 0l.048-.013V1.2l.115-.034c-.01-.05.012-.1.06-.146.035-.026-.164-.071-.175-.077a.046.046 0 010-.04h.071l.151.059a.803.803 0 01.278.017c.084.022.15.057.184.1l.06.073c.032.027.08.048.139.06h.036c.06 0 .095-.013.083-.02-.011-.008-.031-.068-.055-.115s0-.189.107-.189c.108 0 .454 0 .446.017-.008.017-.084.057-.135.074-.052.017.103.073.143.036.35-.014.702.006 1.035.06h.075c.028-.026 0-.06-.087-.075h-.076a1.516 1.516 0 01-.091-.014l-.399-.054c-.198.073-.183.162.036.188l-.063.11a.46.46 0 00.087.011c.12 0 .2-.081.362-.013.04.017.235-.017.35-.036.028 0 .036-.034.036-.053 0-.019-.047-.019-.08-.02a.457.457 0 00-.099 0l-.23.03a2.905 2.905 0 00-.57-.238c.064-.03.168-.055.207-.089l.036-.034c.028-.045.056-.054.064-.02.029.064.105.122.215.162.14.013.285.013.426 0 .083 0 .334-.051.334-.08 0-.028.048-.101.103-.094l.044.029c.1.061.216.117.346.164l.092-.05.111-.062a2.46 2.46 0 01.339-.041c.041.015.085.03.13.041.053 0 .208 0 .156-.034-.052-.034-.04-.105.155-.115l.032-.092s.024-.017.032-.015h.024l.294.047-.071.062a.328.328 0 01-.167.083c-.136.013-.112.046-.108.078v.017c.022.01.049.017.079.02a.31.31 0 00.088-.005l.044-.015c.032-.012.036-.042.068-.046h.04c.055.012.083.036.063.055a.695.695 0 01-.183.117L27.731.97a.42.42 0 00-.148.02c-.043.018 0 .03 0 .043l.06.062c.171.02.259.049.2.064-.06.015-.172.072-.037.072.136 0 .422-.029.398-.063a.58.58 0 01-.12-.124.193.193 0 01.053.004c.016.004.03.01.04.017.023.018.147.058.19.034a.385.385 0 00.124-.125c0-.024-.183 0-.231-.011l-.028-.017c-.024-.017-.052-.04-.04-.055a.224.224 0 01.055-.018.332.332 0 01.065-.006c.08 0 .155.026.235.032a.66.66 0 00.17-.015V.84a.815.815 0 01.24.011.65.65 0 01.183.13c.055.05.238.17.298.16.06-.009.239-.02.215 0-.024.022.052.095.227.107l.159-.034.135-.029c.158.005.317.001.474-.011.06-.01.195-.055.12-.07-.076-.015-.029-.092.05-.075a3.16 3.16 0 00.522-.055L31.316.91c0-.028.032-.081.068-.083.116 0 .195-.043.131-.062l-.107-.03a.687.687 0 00-.29-.08c-.084 0-.148-.073 0-.049h.222a1.79 1.79 0 01.274 0c.03.058.048.117.056.176.092.109.227.208.398.294.031.017.099.068.08.08-.02.01-.037.056.047.039.084-.017.326-.036.49-.059.163-.022.676.08.843.078.167-.002.334-.155.398-.129h.048l.08.01c.091 0 .135.028.095.053v.01l.068.048h.398c.174-.005.34-.034.481-.083.092-.045 0-.189-.08-.164-.08.024-.338.064-.362.045v-.14h.689c.127 0 .43.06.398.118l-.183-.066-.028-.012c-.127.03-.203.076-.163.104.04.028.1.102.047.106-.051.003-.194.026-.183.041h.164c.135.012.268.029.398.051.047 0 .123-.032.111-.047-.012-.015.064-.064.203-.074.14-.01.88.059.756-.019l.032-.088c0-.017-.12-.044-.191-.06-.04 0-.068.022-.06.033 0 .012.056.023.052.032-.004.01-.024.046-.06.05a.545.545 0 01-.135-.014L36.53.95c-.14 0-.223-.029-.187-.044.036-.015.107-.064.087-.08-.02-.018-.032-.067.024-.069.056.02.096.047.155.057.12.02.227.053.314.096a.484.484 0 01.192.153c.022.032.067.06.129.078a.594.594 0 00.205.02h.076c.1.026.21.023.25 0 .04-.023.188-.085.247-.057.06.029.303.104.37.083.068-.02.227-.088.187-.094-.04-.006-.115-.023-.091-.026a.364.364 0 00.103-.048.214.214 0 00.036-.115c0-.037.064-.145.14-.158h.095c.044 0 .075.019.075.047l-.27.023a.87.87 0 01.175.188.685.685 0 01-.044.189c0 .04.032.111.064.073h.052c.139-.022.35-.058.425-.035l.223.064c.267-.012.49-.044.49-.072a.572.572 0 00-.06-.12h.088c.024 0 .063-.018.06-.023-.005-.006-.192-.047 0-.059h.143a.619.619 0 01-.084.129c-.024.026 0 .1.143.096.144-.004.355.1.375.11l.183-.03c.223.012.442.036.652.073l.155-.044c.128-.036.227.032.251.023.108-.044.263-.055.33-.025l.104.047a2.01 2.01 0 01.51-.022h.382c.115.02.143-.032.055-.117-.087-.085-.103-.33-.199-.332-.095-.002-.306.089-.35.113h-.04c-.143 0-.095-.049-.087-.077V.949c.051-.027.051-.053 0-.057-.052-.004-.2-.03-.12-.045.08-.015.295-.02.342.015l.048.024A.403.403 0 0043.07.87c.04-.018-.192-.041 0-.064l.119-.013a.086.086 0 00.037.048c.021.014.05.026.082.033.048 0 .175-.024.143-.077-.031-.053.335-.038.283.055l.326.018c.044 0-.08.097-.19.1h-.14c-.167 0-.262.032-.219.078.044.045.287.113.215.128-.072.015-.095.126-.095.16s.103.117.222.12V1.38a.215.215 0 01.084-.016.22.22 0 01.084.016l.047.013.044.013a.972.972 0 00.239.013c.138-.026.271-.057.398-.094l.064.077c.04.047.23.044.302-.013.072-.056.171-.043.263 0l.071.028c.103.013.212.013.315 0 .168-.016.343 0 .49.042l.274-.036.302-.038c-.032-.092 0-.158.044-.143.044.015.167.06.123.066-.043.006-.099.038-.04.06.06.023.51-.034.681-.011l.056.017.255.085c.123-.08.238-.077.254 0l.283-.089.103-.032c.15.01.298.025.442.047.028 0 .143-.05.223-.077l.107.034c.048.015.068.072.188.026l.075-.026c-.04-.026-.048-.059-.024-.07.024-.011.12-.036.14-.019v.013c.043.042-.128.127.13.123h.184c0-.066 0-.115.076-.107l.047.015c.202.036.419.05.633.037l.203-.024c.223-.027.422-.028.446 0v.131c.207-.026.067-.092.103-.137v-.019c0-.026.048-.04.108-.03.06.01.175.05.15.064a.04.04 0 00.004.034.086.086 0 00.033.03.21.21 0 00.057.021.33.33 0 00.07.008l.084-.015.227-.04c.184.02.372.029.56.028l-.071-.03s-.028-.026-.02-.028a.739.739 0 01.096-.01h.17c.201.023.408.03.614.023l.147-.015h.048a.055.055 0 00.023-.015c.005-.007.007-.013.004-.02-.002-.006-.008-.012-.018-.017a.105.105 0 00-.033-.01l-.048-.015c-.032-.017.076-.055.239-.085l.051.102c0 .026.148.043.235.06l.076-.026.044-.016a.225.225 0 01.121-.001.108.108 0 01.03.015v.02c.032.034-.072.085.092.104.071 0 .147.032.206.027.088-.013.17-.033.24-.06l.063-.027c.06-.042.12-.06.135-.044.016.017.171.029.315 0 .143-.028.616.021.676.023.06.002.211.019.211.042 0 .022-.064.08-.14.08h-.095c-.06 0-.044.023.036.03.08.008.283.088.31.074a.533.533 0 00.136-.103c.024-.036 0-.13.071-.132.131-.013.265-.018.398-.015l.08.026c.123.038.203.045.306 0H58l.14-.032a.99.99 0 01.135.02l.028.016.087.04c.104-.017.215-.017.319 0 .036.016.183.035.195.014v-.026a.738.738 0 01.17 0c.059-.02.1-.05.12-.083v-.038a.329.329 0 01.107 0 .195.195 0 01.084.03v.03c0 .014.124.025.267.029h.243c.127-.019.179-.013.111.013-.068.027-.155.11-.051.128.103.02.378.048.397.017a.255.255 0 01.088-.14h.072c.02.012.034.025.042.039a.05.05 0 01.005.043c0 .028.24.038.29.03.053-.007.02-.07 0-.077-.019-.008.025-.032.085-.036l.031.01.072.018c.035.014.08.021.125.021.046 0 .09-.007.126-.02.071-.031.66 0 .668-.03v-.039c.01-.01.028-.02.049-.026a.25.25 0 01.07-.01c.064.02.116.046.152.078l.04.019a.341.341 0 00.135.017.136.136 0 00.047-.019c.012-.008.019-.017.02-.027v-.035c-.04-.05-.031-.083 0-.076.032.008.192.051.311.08l.092.035.06.023c.081.02.168.035.258.045h.036c.116-.025.24-.043.366-.053h.14c.116.032.242.054.373.068.06 0 .128-.064.191-.053.064.012.215.06.171.078-.043.017-.123.071 0 .066.186-.03.367-.066.542-.108l.19.027a.223.223 0 00.08-.06.59.59 0 01.132-.108c.037.015.06.035.067.058 0 .03.072.113.116.11a.765.765 0 00.226-.035.35.35 0 00.152-.086c.047-.023.358 0 .493 0 .136 0 .522 0 .522.028s.043.102.091.09l.036-.018a.075.075 0 01.023-.013.183.183 0 01.1-.002c.036.013.183.034.211 0 .028-.034.148-.144.187-.147h.1c.06 0 .071.028.028.047l-.036.015-.036.013c-.044.019-.032.04.028.047h.243a.546.546 0 00-.044.098s.056.025.127.021l.044-.045a.1.1 0 00-.007-.084.204.204 0 00-.077-.075l.104-.019.056-.009a.99.99 0 01.254.106c.032.026.175.08.247.06h.06c.091 0 .183.032.27.028.088-.003.068-.054.128-.07l.047-.013c.12 0 .18.029.132.05-.048.02-.076.045.036.01a2.42 2.42 0 01.553-.022h.044l.103.019c.06.036.131.028.16-.017V1.38a1.483 1.483 0 00-.176-.076c-.087-.032-.227-.134-.067-.173l.035.117a.878.878 0 00.235.016h.096a.458.458 0 00.123-.045.19.19 0 00.072-.066c0-.034.047-.083.083-.026.036.056-.095.26.044.288.14.029.513-.062.49-.08v-.018c0-.011 0-.026.04-.032h.059c.079.027.154.056.227.087l.123-.011h.084c-.104-.089-.088-.142.032-.121h.083c.124.01.235 0 .08-.051 0 0 .028-.026.04-.026h.04a.183.183 0 01.063.024c.016.01.026.023.028.036 0 .025-.04.098-.092.1-.051.002-.167.038-.139.075l.032.032v.021a.235.235 0 00.159.013l.032-.018.087-.05c.12-.047.211-.098.204-.113.006-.022.025-.044.055-.062a.348.348 0 01.116-.04c.119-.02.418.016.33.04-.116.037-.221.08-.314.128 0 .014.04.051.123.053l.032-.011.107-.042c.108-.056.207-.079.22-.049a.496.496 0 00.055.108c.026-.01.045-.025.051-.042 0-.022.088-.073.136-.05l.044.01c.083.023.023.121.215.076l.139-.032c-.108-.038-.171-.092-.144-.122h.052c.124 0 .16-.036.112-.068-.048-.032-.148-.02-.22 0a.259.259 0 01-.09.015c-.029 0-.084 0-.088-.013-.004-.014 0-.048 0-.055.07-.018.143-.033.219-.045.234-.053.425.034.644.034h.044c.056.047.131.064.171.041.04-.023.135-.023.132.057l.246-.097.072-.028c.199.013.37 0 .398-.017.028-.017.1-.053.175 0 .22.07.468.116.728.136l-.035-.025c-.052-.037-.056-.035-.215-.013a1.45 1.45 0 01-.136.02l-.199.025c.048.051.147.07.22.042h.13c.068-.026.056-.134-.035-.234l.175.05a.463.463 0 00.271.009.213.213 0 00.067-.034l.056-.029a1.46 1.46 0 00-.263-.058c-.075 0 .147-.083.23-.057.085.027.208.145.268.145.06 0 .23-.067.234-.043a.505.505 0 00.211.134c.092.032.442 0 .422.032-.02.032 0 .126.068.126.2-.035.394-.077.58-.126.033 0 .132-.017.156 0 0 .05.076.06.163.047.088-.013.048-.047.032-.066l-.032-.036a.646.646 0 00-.147-.042.894.894 0 00-.171-.012c-.116 0-.354-.059-.327-.07.265-.012.532-.012.796 0l.279.107a.19.19 0 00.077-.026c.019-.013.028-.028.027-.043l-.036-.017-.024-.012c-.044 0 0-.04.103-.092.104-.053.398-.172.398-.132 0 .04.064.145.112.145.047 0 .203-.015.21-.036.009-.02.084-.062.14-.037a.541.541 0 01.179.141c.031.025.08.044.14.053a.504.504 0 00.178-.006L80.24.97c-.048-.022-.044-.062-.052-.094s.044-.026.064-.026h.048a.152.152 0 01.062.03c.014.013.02.027.017.041 0 .032.235.072.26.057.023-.015.162-.059.174-.019.012.04.108.142.187.147l.044-.013.088-.025c.067.017.06.016 0 0h-.108a.054.054 0 01-.052-.05.331.331 0 01.115-.095.74.74 0 01.184-.066l.147.012c.168.011.329.039.474.08l.195.055c-.08.064-.088.063 0 0 .087-.062.322-.237.398-.224.075.013.306-.042.342-.05a.876.876 0 01.21.02c.057.011.291.019.351-.023v-.04c0-.049.072-.052.171-.052.1 0 .167.01.16.054-.009.046 0 .078.119.068.036 0 .051-.045.1-.053l.158-.028c.207-.028.379-.034.398-.015a.44.44 0 00.06.17c.036.06.458.117.462.088V.896c0-.019-.14-.04 0-.051.139-.011.151-.02.143-.062v-.05c.146.014.294.019.442.016V.643c.024-.026.056-.047.063-.045.068-.01.13-.024.188-.044.091-.03.226.108.27.121.044.013.167-.019.227 0s.187.11.243.085l.047-.013.172-.055c.075.06.167.068.203.019l.04-.04V.654a.49.49 0 01.198 0c.056.016-.04.102-.032.125.009.023 0 .094-.04.096a.747.747 0 00-.17.026.684.684 0 00.183.017c.087 0 .298-.04.274-.088-.024-.05-.035-.189.024-.189.06 0 .227-.026.235 0 .008.027.06.081.084.062.023-.018.123-.05.163-.026.04.025.187.083.203.057a.412.412 0 00-.14-.18l.028-.056.04-.081c-.151-.012-.143-.025 0-.032.143-.008.53.077.498.1-.032.022-.223.015-.251.04-.028.024-.052.045.12.026.17-.02.54-.155.513-.098a.462.462 0 00-.06.188s.083-.028.115-.071c.032-.044.16-.155.191-.138l.048.011c.046.01.085.025.115.044l.024.015c.002.044-.018.088-.06.128-.047.049-.35.126-.302.134.048.007.12.041.076.064a.05.05 0 00-.021.034c-.001.012.005.023.016.034.012.01.029.02.05.026a.27.27 0 00.07.012c.147.013.378.045.398.092a.23.23 0 010 .238c-.052.034.08.143.056.16l-.036.011h-.091s-.032.057 0 .07l.198.08c-.107.052-.214.069-.238.035a.434.434 0 00-.128-.094.91.91 0 00-.398 0 3.014 3.014 0 01-.545.11c-.067-.012-.318.073-.462.097l-.139-.03-.127-.013-.366.032c-.08 0-.299 0-.307-.025-.008-.024.148-.15.036-.14-.111.012-.374.067-.33.097l.024.026v.017a.99.99 0 01-.16.178l-.242-.081c-.036-.012-.155.01-.239.018h-.06a2.518 2.518 0 01-.398-.049l-.167.025-.163.023c-.151.079-.263.1-.255.045l-.024-.023a.149.149 0 00-.05-.028.3.3 0 00-.073-.015c-.123 0-.111.041-.048.075.048.021 0 .046-.12.053a3.057 3.057 0 01-.397-.041 1.7 1.7 0 00-.267.073l-.131-.01h-.14l-.421.027h-.08c-.032 0-.075.023-.083.019l-.374-.113c-.26.105-.534.17-.613.143-.08-.026-.303.042-.347.027a2.41 2.41 0 00-.66.077l-.339-.081a.95.95 0 00-.437.022l-.06.017a1.072 1.072 0 00-.294.017c0 .014-.096.046-.128.02-.032-.027-.06-.095 0-.108a2.75 2.75 0 00.323-.115.467.467 0 00.175-.14.182.182 0 00-.072-.03.332.332 0 00-.096-.006l-.051.015c-.155.042 0 .127-.116.163-.115.035-.294.035-.282.115a.717.717 0 01-.155.092l-.096.034-.032.011c-.1 0-.159-.015-.131-.026.028-.011 0-.05-.171-.04-.188.01-.373.028-.553.055.047 0 .095.038-.048.04-.143.001-.49-.014-.45-.05a.235.235 0 00.076-.177h-.044c-.068-.011-.334.119-.318.15l.04.086c-.16.009-.321.012-.482.01a3.464 3.464 0 00-.506.097c-.152.02-.314.015-.461-.013 0-.02-.076-.092-.112-.066a1.68 1.68 0 01-.597-.022l-.23-.034h-.036a.122.122 0 00-.061.028c-.013.012-.015.026-.007.04l.036.017.044.02c.083.023.055.046-.06.053-.115.008-.358-.07-.37-.045-.012.024-.076.087-.124.071-.047-.015-.25-.015-.274.051-.024.066.247.204.259.163.012-.042.091-.159.139-.144.061.038.098.083.107.13 0 .048.18.129.215.095.036-.034-.032-.121 0-.145l-.04-.027-.035-.026c-.032-.027.035-.046.15-.04.116.006.443 0 .419-.043v-.038c0-.01.006-.018.019-.025a.12.12 0 01.048-.013h.024c.096.035.205.06.321.074.116.014.237.017.356.01a.576.576 0 01.1 0c.111.018.227.03.346.037.123 0 .203-.089.37-.02.035.014.199-.022.306-.022H78c.147.017.299.021.45.014l.027-.023c.08-.072.207.043.283-.017 0-.013.127-.015.19-.015h.255c.088-.068.207-.087.267-.043.06.043.21.154.151.154-.06 0-.227.025-.23.055-.005.03.06.09.147.05l.08-.012.09-.014c.136 0 .224-.016.192-.043-.032-.026-.02-.102.107-.098l.052-.015.123-.038a.756.756 0 00.267.034c.068 0 .167-.1.23-.138l.049.025.135.068c.183-.011.318 0 .302.013-.016.013.032.074.144.089l.043-.013.1-.03c.091-.055.175-.074.179-.044.004.03.103.11.199.11.096 0 .322-.014.255-.03-.068-.018-.191-.084-.064-.095l.032.011.23.078c.164-.072.367-.116.454-.097.088.02.319.089.243.095-.075.005-.227.032-.21.052.015.021.25.106.25.087 0-.019.08-.085.179-.088.1-.004.398-.027.362-.046-.036-.019 0-.08.076-.094.075-.013.25 0 .21.045-.04.046.275.112.275.08 0-.033.056-.112.128-.099.111.012.226.012.338 0 .06 0 .279 0 .31.038.032.038-.115.174-.028.213l.076.027.16.054c.075-.056.162-.094.19-.085.028.01.104.07.032.08l-.052.017c-.119.04-.163.077.052.094.02.003.037.008.05.015.014.008.023.017.026.026 0 .014-.048.034-.084.038l-.091.013h-.227a.569.569 0 00-.207-.1v.029c0 .075-.187.066-.275.098l-.127.049c.123.043.044.075-.175.07-.22-.006-.506.171-.47.188l.14-.038a2.53 2.53 0 01.616-.07l.128.044.147.047c0-.041 0-.077.048-.083.136.009.266.033.378.072l-.16.066c-.115.047 0 .057.06.073.06.017.072.057 0 .078-.071.02-.063.05-.024.09l.028.03c-.107.055-.151.11-.087.123.063.013-.056.08-.072.09-.016.012-.04.044 0 .05.04.005.104.052 0 .08l-.052.029-.055.03c-.052.044-.14.072-.195.06-.056-.01-.18-.047-.152-.06h.024c.171 0 .366 0 .171-.094 0 0 .044-.028.048-.043V3.74a.137.137 0 00-.068-.032.277.277 0 00-.095-.002l-.044.015-.055.023c-.04.036-.188.04-.323 0-.249-.01-.5-.003-.744.022-.092 0-.33.047-.287.087.044.04.299.098.29.113l-.023.01c-.041.016-.085.03-.131.043-.048.015-.132.042-.14.038l-.19-.072a.698.698 0 01-.212.115.366.366 0 01-.102-.04.146.146 0 01-.057-.058l.128-.032a.685.685 0 01.215-.023c.091.021.175.057.238 0 0-.017-.06-.06-.12-.079l-.07-.024a.933.933 0 00-.35.022l-.053.034-.047.032c-.006.02-.024.04-.053.054a.313.313 0 01-.107.031 4.89 4.89 0 00-.27.017c.032.012.07.02.111.023.06 0 .18.03.116.047-.064.017-.171.098-.06.14.111.041.513.077.482.045-.032-.032 0-.112.091-.12.091-.007.294.088.235.093a.343.343 0 00-.14.068c-.032.028-.046.06-.04.093l.263-.07.048-.011c.104.028.16.052.123.056h-.023c-.132.042-.156.136-.398.117 0 0-.048.036-.036.051a.19.19 0 00.053.019.29.29 0 00.066.005l.14-.016c.15-.025.274-.066.274-.093 0-.026.048-.1.104-.106.055-.005.163.023.055.076-.107.053.148.175.35.134l.195-.03h.028c.092.043-.095.137-.398.21h-.362c-.02 0-.063.033-.06.05l.032.117a3.012 3.012 0 00-.537-.025l-.036-.05-.035-.055c-.14-.021-.255-.013-.255.017s.06.111.14.111c.138.002.275.02.397.05.064.031.14.137.2.154.059.017.19.077.218.066.028-.012.084-.053.024-.057a.83.83 0 01-.354-.14h.306a.533.533 0 00.096 0 2.18 2.18 0 01.465-.03h.048a.033.033 0 01.012.02.027.027 0 01-.007.022.071.071 0 01-.026.017.155.155 0 01-.039.011h-.119c-.096-.024-.171-.026-.171 0 0 .027.055.09.12.094.087.003.174.01.258.021a.86.86 0 01-.175.068c-.088.026-.398.062-.398.09 0 .029-.092.125-.112.102a.22.22 0 01-.047-.075l.023-.017v-.04a.395.395 0 00-.135-.018l-.103.022a.3.3 0 01-.149.01.181.181 0 01-.062-.023c-.016-.01-.025-.021-.028-.034l-.143-.017-.12-.015c0 .041-.044.075-.087.074h-.096a.18.18 0 00-.044.002.115.115 0 00-.036.012.04.04 0 00-.019.02.022.022 0 00.004.02l.035.025.128.08c.12-.05.215-.076.215-.058a.267.267 0 01-.096.068.589.589 0 01-.147.042c-.131.022-.474-.042-.51-.027-.035.015-.15.055-.075 0 .076-.054.147-.173-.04-.213l-.04.013-.135.051c-.147-.04-.263-.049-.259-.02.047.069.104.136.171.201l-.242.027h-.036c-.028.047-.064.066-.076.038-.012-.029-.103-.091-.179-.091-.075 0-.27 0-.247.019a.06.06 0 01.02.013c.005.005.008.01.008.016s-.003.011-.008.016a.06.06 0 01-.02.013h-.031l-.076-.011c-.096-.025-.183-.032-.195-.015-.012.017-.032.062-.04.072a.884.884 0 01-.33.03c-.167-.013-.502.03-.334.071l.139.044a.33.33 0 00.113.019.322.322 0 00.114-.02l.04-.01c.08 0 .13.026.115.05v.038c.004.008.014.016.03.02a.133.133 0 00.05.005c.079-.019.152-.042.218-.07.08-.03.374-.09.398-.066.024.024.088.07.156.05h.02a.8.8 0 00.293.061.892.892 0 00.307-.041h.112a.995.995 0 00.442 0c.047-.014.139 0 .195-.017l.17-.03c.228.022.46.032.693.03h.18c.084 0 .168.007.246.022l.12.029.354-.05.083.021.044.01c.293-.018.59-.018.883 0l.363.015c.398.015.796.032 1.194.04.147 0 .318.026.453-.03h.02l.398.092.155-.021.148-.02c.203.06.397.1.397.086 0-.013.08-.025.112.011.032.036.298.046.314.03.016-.015.084-.01.1.044l.203-.012c.114.003.227.017.33.04h.052c.048.017.064.04.032.051-.032.011-.076.057 0 .07l.063.02c.14.048.144.08 0 .114l-.175.041c-.054.04-.081.088-.076.135.005.048.041.094.104.131.128.064.167.294.227.298.06.004.187.028.127.053v.045c.02.017.029.037.023.056-.006.02-.025.038-.055.052a5.109 5.109 0 01-.417.13c-.084.022-.526.073-.486.104l.044.018c.06.027.126.05.199.068l.215-.07c.027.03.032.063.016.095-.016.031-.054.059-.108.079-.115.05-.473.096-.493.064-.02-.032-.295-.07-.358-.12l-.132.015-.111.01a.435.435 0 00-.147-.04.235.235 0 00-.08.016c-.023.01-.038.022-.044.036h.032l.12.034c.143.03.246.074.23.098a.776.776 0 01-.31.081h-.295c-.215 0-.334.036-.266.081l-.18.023a.372.372 0 01-.103 0l-.04-.017c-.031-.023-.075-.032-.095-.023l-.267.11-.215-.036a3.374 3.374 0 00-.744 0l-.219.017c-.167.081-.33.119-.362.083l-.056-.019c-.024 0-.123.015-.179.026l-.123.03c-.136.036-.255.053-.27.038-.017-.015-.084-.034-.124-.011-.04.023-.18.074-.22.059a2.716 2.716 0 00-.592-.036c-.239.013-.796.052-.756.103l-.104-.013c-.119-.015-.179.106-.266 0 0-.011-.024-.034-.036-.034-.27 0-.53-.037-.796.038l-.247.068a15.8 15.8 0 00-.887 0c-.128 0-.462-.051-.506-.044l-.032.012a2.313 2.313 0 01-.492.088 2.629 2.629 0 01-.526-.015c-.028 0-.068-.026-.076-.024l-.115.028a.972.972 0 01-.339.04c-.067-.012-.207.062-.227.073a2.754 2.754 0 01-.398-.022c-.119-.012-.445.05-.505.032-.06-.02-.318.05-.422.068h-.215l-.183.015c-.178.013-.355.03-.529.053a3.527 3.527 0 01-.49-.057c-.083 0-.246.055-.242.02.004-.033-.203.053-.247.099l-.111-.038a.747.747 0 00-.342-.025l-.204.057c-.095-.053-.175-.066-.175-.028 0 .038-.235-.017-.255 0-.02.017-.107.045-.115.022a.17.17 0 00-.084-.047.397.397 0 00-.127-.013h-.298l-.076.023a.32.32 0 01-.124.05.57.57 0 01-.163.008h-.425c-.108 0-.235 0-.255.066v.02a2.03 2.03 0 01-.362-.037h-.064l-.175-.02c-.052.07-.135.092-.183.05l-.068-.01a.862.862 0 00-.278 0c-.076.016-.096.067-.167.093-.072.027-.128-.01-.184 0l-.091.012-.195.041-.064-.022a1.862 1.862 0 00-.338-.076l-.076.028-.258.095a5.336 5.336 0 01-.888-.083l-.04.1s-.023.01-.04.011c-.214.011-.445-.025-.652.034-.036 0-.151-.019-.223-.034l-.179-.036c-.167.034-.398.072-.47.085-.147-.064-.27 0-.397 0a4.667 4.667 0 00-.43 0 2.052 2.052 0 00-.323.049c-.06.015-.075.064-.131.07-.127.015-.104-.034-.14-.062a.344.344 0 00-.13-.015l-.2.086h-1.413a1.993 1.993 0 01-.546.098c-.043-.015-.215-.056-.262-.041-.048.015-.211.041-.22.013-.007-.028-.115-.132-.218-.147-.104-.015-.275.107-.31.115h-.024l-.299-.04a3.75 3.75 0 01-.764.147l-.171.017c-.123.012-.27-.07-.398.017-.024.02-.155.023-.239.025h-.633a2.688 2.688 0 00-.258-.051l-.068.028-.665.098-.298-.024h-.024a.084.084 0 00-.072.045c-.011.027-.234-.011-.314 0-.112.01-.227.01-.338 0-.092-.015-.398.025-.561-.017l.023-.085v-.015c-.031-.019-.103 0-.159.06a1.73 1.73 0 01-.4.079 2.14 2.14 0 01-.431-.007l-.267.085-.04.013a3.469 3.469 0 01-.326-.054v.067c-.04 0-.211.012-.398.017a11.163 11.163 0 01-.677-.062l-.028.01-.103.034-.263-.017c-.095 0-.087.088-.27.052-.072-.015-.247.021-.283 0-.036-.02-.223.063-.282-.017a.496.496 0 00-.136 0l-.111.04h-.398c-.072 0-.374.034-.482.034a3.466 3.466 0 01-.545-.017h-.187a.91.91 0 00-.303.08l-.087-.018-.088-.017c-.1.025-.175 0-.175-.056V9.51l-.051-.094a1.959 1.959 0 00-.526.107l-.071.027a4.35 4.35 0 01-.422.135l-.156.042a7.583 7.583 0 00-.72-.07l-.203.013h-.04a4.151 4.151 0 01-.302.089l-.032-.013-.223-.093a.602.602 0 01-.214.08c-.086.017-.18.022-.271.015a5.238 5.238 0 00-.7-.093v.123l-.327.022c-.088 0-.287 0-.267-.033.02-.034-.238 0-.302 0s-.151.073-.211.084l-.044.015c-.115.038-.163-.079-.31-.015-.056.027-.235.017-.354.012a4.724 4.724 0 01-.335-.038.304.304 0 00-.1 0l-.095.024a1.78 1.78 0 01-.358.044h-.27c-.208-.03-.422-.06-.478-.064-.056-.004-.171.04-.215.024-.044-.015-.31.036-.521.038a7.906 7.906 0 00-.96.15c-.139.031-.569-.039-.624-.022h-.155a1.969 1.969 0 00-.327.017v.015c0 .01-.007.02-.019.027a.126.126 0 01-.046.018.217.217 0 01-.114-.009l-.25-.089c-.148.076-.26.097-.247.05l-.18.022c-.077.014-.16.021-.242.023-.171 0-.354-.053-.47.04a3.391 3.391 0 01-.175-.021.266.266 0 00-.076 0c-.12.032-.26.044-.398.034-.13 0-.266.013-.398.017-.13.003-.262 0-.397 0h-.036a3.132 3.132 0 00-.458.026l-.187.024s-.056-.037-.096-.052l-.023-.01a.991.991 0 00-.195.036c-.346.02-.684.06-1.007.12l-.43-.082c-.072-.013-.191.01-.287.013-.06.004-.122.004-.183 0l-.33-.028c-.087.064-.21.107-.275.096-.063-.011-.282-.025-.306.01-.024.033-.326 0-.398.022-.072.023-.434-.05-.6-.053l-.144.01h-.072c-.063.037-.127.056-.143.043-.016-.013-.171 0-.303.06l-.15-.034a2.86 2.86 0 00-.61-.036h-.262a2.288 2.288 0 01-.601.06c-.128-.014-.458-.075-.51-.05l-.06.011c-.115.023-.282-.07-.37.023-.087.092-.23-.02-.314.032a1.793 1.793 0 01-.175-.013h-.06a3.06 3.06 0 00-.49.068l-.218-.029a.09.09 0 01-.041.025.209.209 0 01-.125 0 .09.09 0 01-.041-.025h-.052c-.063 0-.143.027-.21.046-.068.018-.076.04-.156.01-.08-.031-.366.02-.482-.06-.108.02-.21.048-.302.082h-.127l-.22.01a3.727 3.727 0 01-.56 0v-.016c-.028-.053-.1-.047-.191-.034-.092.013-.191.074-.398.051l-.124-.015c-.22.032-.431.074-.633.126l-.175-.087c-.1.026-.194.056-.282.09l-.1-.046a.448.448 0 00-.13-.038.643.643 0 00-.152-.004h-.116a1.17 1.17 0 00-.314.038c-.048.019-.199.062-.235.05-.036-.014-.159-.042-.17-.03a.229.229 0 01-.082.015.229.229 0 01-.082-.014c-.064-.02-.275-.066-.279-.043-.004.022-.155.066-.318.041l-.191.043-.171.04c-.08.038-.16.04-.18 0v-.04c0-.026-.047-.034-.07-.015-.1.046-.218.083-.347.108l-.112-.068a.389.389 0 00-.135-.02.762.762 0 00-.183.024h-.028c-.032.024-.06.03-.067.011-.008-.019-.056-.074-.088-.08l-.123.042a8.513 8.513 0 01-.7-.06l-.084.115a.239.239 0 01-.072 0l-.23-.077c-.18.049-.375.084-.578.103-.103 0-.398-.02-.45.017-.051.038-.453-.013-.573 0l-.087.029a.545.545 0 01-.326.015c-.144-.053-.212-.017-.311.013h-.028c-.072 0-.115-.027-.095-.036.02-.01 0-.053-.096-.062l-.064.011c-.107.017-.155.066-.258.096l-.155.048c-.108-.027-.223-.036-.255-.021a.545.545 0 01-.151-.036l-.028-.019a5.076 5.076 0 00-.398 0l-.08.032-.14.055a1.195 1.195 0 00-.45-.013l-.122.017a.224.224 0 01-.048-.008.125.125 0 01-.036-.017c0-.023-.08-.062-.091-.024l-.024.08a6.38 6.38 0 00-.474-.028c-.22.02-.43.059-.62.115l-.12-.054h-.02a1.136 1.136 0 01-.219-.012c-.056-.01-.21.027-.258.017-.048-.01-.207-.026-.215 0a.26.26 0 01-.044.076.11.11 0 01-.031-.013.043.043 0 01-.017-.017.221.221 0 00-.084-.082c-.115.027-.226.059-.338.087a.818.818 0 01-.131.027c-.151 0-.295-.05-.458 0h-.02c-.135-.05-.25-.072-.258-.051-.008.02-.064.083-.1.071a4.485 4.485 0 00-.644.033l-.287-.051a.443.443 0 00-.16.024v.083c-.17.013-.318 0-.33-.019a.68.68 0 00-.196-.049.898.898 0 00-.221.004c-.359.018-.72.018-1.079 0l-.103.02a.724.724 0 01-.271 0 4.335 4.335 0 00-.517 0 .332.332 0 01-.1 0h-.02c0-.022-.036-.02-.08 0-.043.021-.322 0-.397-.046l-.092-.036c-.083.013-.143.047-.127.075h.135c.02.042 0 .07-.032.064a.665.665 0 01-.19-.064l-.049-.013a.56.56 0 00-.17-.027 1.752 1.752 0 01-.578-.065l-.223-.06c0 .075-.075.105-.159.065a1.7 1.7 0 01-.31-.34l-.31-.016h-.124c-.103 0-.111-.04-.02-.093l-.247.023-.187.017a.273.273 0 01-.126-.046c-.029-.023-.04-.05-.029-.075l-.036-.022-.111-.066c-.167-.074-.231-.14-.143-.148.158.006.316.018.47.038.067 0 .222-.11.17-.1a.985.985 0 01-.199.012.216.216 0 01-.036-.136c0-.062.195-.217.164-.22-.032-.005-.136-.039-.076-.056.06-.017.235-.092.235-.118 0-.027.028-.125.064-.115.035.009.119 0 .13-.051.013-.051-.25-.166-.214-.189l.02-.024c.056-.065.032-.144.274-.165.024 0 .064-.04.048-.049l-.087-.05c-.112-.055-.104-.097.028-.09l-.04-.08-.04-.087c0-.1.036-.189.095-.177l.024.013.076.034c.06.04.13.078.207.111.044.019.151-.04.135-.066l-.1-.015a.159.159 0 01-.066-.024c-.015-.011-.023-.025-.02-.038.002-.014.014-.026.033-.036a.198.198 0 01.074-.019c.107-.011.21-.096.354-.017h.071a5.01 5.01 0 011.063-.068c.107 0 .243-.04.314-.024l.084.017c.068.066.127.066.14 0l.055-.015a2.17 2.17 0 01.422-.057h.175a1.94 1.94 0 00.51-.043c.079-.029.318.043.334.043l.219-.034c.28 0 .56-.018.831-.05l.18.014.162.013c.168-.013.367-.032.438-.04.18-.006.36.006.53.035l.163-.05c.087-.024.258.021.398.03l.175.014c.21-.032.398-.081.398-.11 0-.028.195-.046.199-.016.004.03.044.111.068.11.023-.003.06-.033.083-.065.024-.032.044-.119 0-.126-.044-.008-.12-.047-.036-.063.084-.015.263.078.315.095h-.176.538c.056 0 .155.017.159.028 0 .049.084.068.163.047h.04c-.032-.047 0-.08.088-.075.087.005.226-.096.33-.123l-.151-.05-.144-.048c-.087.034-.19.05-.223.036a.829.829 0 00-.187-.043c-.055.032-.1.067-.159.1-.06.032-.063 0-.1 0h-.186c.063-.042.063-.074 0-.07-.064.003-.1-.066-.104-.068a.14.14 0 00-.095.034c-.036.034-.171.096-.243.079a7.166 7.166 0 00-.474-.075l-.111.024c-.075.013-.147.03-.215.05-.088.031-.028.06.04.086 0 0-.04.024-.068.028a.248.248 0 01-.091-.011l-.024-.051c0-.062-.092-.106-.167-.098l-.032.011-.128.05-.533-.04-.091-.038c-.076-.034-.08-.034-.136.03a.313.313 0 01-.123.05.555.555 0 01-.16.007 2.492 2.492 0 01-.178-.034h-.044c-.052-.02-.155 0-.231.026l-.072.03-.119.045a1.914 1.914 0 00-.314-.105l-.036.04-.076.086a6.668 6.668 0 00-.553-.019h-.167a5.655 5.655 0 01-.506-.06l-.238.066-.164.047c-.111-.06-.234-.09-.274-.068-.04.023-.378 0-.49 0-.221.03-.433.073-.628.13l-.048-.096-.02-.045c-.08.013-.158.03-.23.05a.378.378 0 01-.188 0 .302.302 0 01-.102-.063.115.115 0 01-.037-.078c.02-.049-.04-.188-.171-.188h-.1a.456.456 0 00-.111 0c-.207.041-.203.041-.299 0l-.107-.032c-.053-.015-.093-.038-.11-.066-.018-.027-.013-.057.014-.083l.02-.051v-.027a1.33 1.33 0 00-.346-.083l-.104.023-.043.011c-.024.034-.084.055-.14.046-.055-.01-.195-.066-.163-.096l.048-.012.16-.013c.111-.022.234-.027.353-.017.036.013.167.02.2-.015a.404.404 0 00.079-.136.207.207 0 00-.051.01.104.104 0 00-.037.018c-.024.021-.103.072-.123.068-.04-.028-.063-.062-.064-.096 0-.043.052-.143.12-.122.067.02.219-.053.302-.085h.112c.031 0 .08-.027.075-.04a.065.065 0 00-.029-.025.172.172 0 00-.05-.015h-.068c-.08 0-.104-.037-.052-.088l-.032-.013-.19-.076.334-.071c.027 0 .051-.034 0-.065-.052-.03-.29-.124-.287-.188.02-.09.053-.178.1-.264a.09.09 0 01.051 0h.024a.995.995 0 00.263-.07v-.1a4.97 4.97 0 00-.239-.168c-.048-.03-.06-.132.12-.134h.13c.148 0 .291-.03.439-.037.147-.008.29 0 .43 0 .139 0 .362-.046.417-.025l.144.058c.148-.038.302-.07.461-.098l.16.021.127.017c.163 0 .286 0 .266.036-.02.036 0 .107.116.107.115 0 .374-.02.398-.047.012-.024.042-.045.083-.06a.422.422 0 01.144-.023 3.81 3.81 0 00.481-.071h.052c.203.02.413.02.617 0 .213-.008.427-.008.64 0h.096a3.41 3.41 0 01.37-.032h.088c.095 0 .254.035.278.022.108-.05.167 0 .247 0 .08 0 .187-.034.279-.034.091 0 .187.036.278.036h.167c.187-.019.454-.041.593-.05l.143.037c.072.019.235-.017.359-.019.266-.003.532-.013.796-.03h.047c.12-.008.241-.012.363-.011h.317c.16-.004.32-.004.479 0h.051c.148-.01.294-.025.438-.044.135-.02.23.06.358.015.128-.045.144.055.239 0 .04-.02.199 0 .302-.011.104-.011.255 0 .378 0h.323c.105.01.213.01.318 0l.155-.032c.188.028.382.044.578.047l.15-.013c.222-.018.448-.018.67 0l.17.011a2.76 2.76 0 01.685 0l.203-.045c.135-.03.35 0 .53 0l.345-.013c.272-.018.548-.018.82 0 .072.017.303.019.446.037l.084-.035c.107-.046.223-.034.342-.036.12-.002.286 0 .43 0h.497a.96.96 0 01.338 0c.064.02.267-.032.327-.02.06.014.278-.02.342-.018.064.002.485-.015.796-.03l.239.032.17.024c.113-.014.217-.042.303-.079.036-.024.374-.011.522 0h.203c.087-.015.06-.036-.056-.049l-.096-.02-.103-.021c-.107-.032-.123-.05-.036-.036.088.013.358-.045.35-.083l-.032-.034a.364.364 0 00-.139-.038l-.243.08a2.22 2.22 0 00-.752-.11h-.282c-.06-.011-.116 0-.132 0s-.06.053-.075.053a1.783 1.783 0 01-.151-.025c-.06 0-.235.046-.251.085l.024.036c.047.08.127 0 .15 0 .16.059.236.057.311-.032l.044-.05c.195.01.287.03.203.044l-.06.021s0 .042.044.051l.044.015c.064-.011.088-.01.052 0a.647.647 0 01-.191.023c-.06 0-.215.019-.271 0-.056-.02-.302.024-.374.03a2.233 2.233 0 01-.279 0s.032-.04.124-.055l.044-.022c.043-.025.075-.078.04-.093-.037-.015-.22-.066-.28-.055l-.178.036a1.988 1.988 0 00-.247-.08 4.47 4.47 0 00-.398 0l-.131-.06a.564.564 0 00-.203 0c-.088.02-.152.067-.243.074h-.08a11.144 11.144 0 00-.358-.071c-.095-.017-.458.018-.62-.012l-.172.038-.04.01c-.071 0-.139.013-.147.033-.008.021-.103.046-.187 0-.175.038-.279-.096-.482-.022l-.08.028a2.345 2.345 0 01-.449-.05l-.091.035a.671.671 0 01-.398.013 1.997 1.997 0 00-.57 0c0 .019-.051.07-.091.068l-.036-.047c-.056-.083-.131-.125-.175-.094-.044.03-.167.084-.195.062a.344.344 0 00-.117-.034.486.486 0 00-.138.004 2.662 2.662 0 01-.326.064c0-.012-.032-.042-.076-.042h-.063c-.095 0-.19-.003-.283-.011-.127 0-.533.013-.597-.017-.063-.03-.255-.083-.282-.05a.231.231 0 01-.071.033.487.487 0 01-.284-.01l-.202.03h-.064c-.1.02-.192.046-.275.078l-.111-.041-.04-.015h-.103c-.044 0 .04.092.342.147l.263.028h.047a.06.06 0 01.023.017.022.022 0 01.003.02.039.039 0 01-.017.02.108.108 0 01-.033.013h-.055a1.468 1.468 0 01-.16 0h-.167a.753.753 0 00-.213-.03.726.726 0 00-.213.03l-.103.036-.048.017c-.131 0-.21-.025-.179-.05.032-.024.123-.073.151-.062h.028c.048 0 .108.02.143.012a.1.1 0 00.041-.021c.01-.01.013-.019.011-.028a1.001 1.001 0 00-.17-.12.188.188 0 00-.055-.023.328.328 0 00-.143-.01.282.282 0 00-.066.017l-.055.017a.942.942 0 00-.186.007.712.712 0 00-.165.042l-.083.037c-.048 0-.088-.017-.088-.024a.103.103 0 000-.068c0-.02-.123-.06-.13-.019l-.025.027a.104.104 0 01-.039.022.22.22 0 01-.056.012.287.287 0 01-.062-.008.177.177 0 01-.05-.019l-.047-.045c-.044-.057-.112-.055-.156 0l-.195-.011a9.877 9.877 0 00-.644 0h-.203a4.63 4.63 0 01-.45.058h-.04c-.064 0-.163-.024-.19-.015-.212.073-.399 0-.61 0h-.107l-.128.06c-.035.015.068.068.315.085l-.167.1c-.112.068-.235-.043-.398-.049-.084 0-.104.015-.152.017a9.7 9.7 0 01-.47 0s-.031-.023-.027-.034v-.011a1.36 1.36 0 01.21-.064c.096-.023.399 0 .427-.015.028-.016 0-.09-.167-.093h-.14a2.862 2.862 0 01-.338 0 2.104 2.104 0 00-.752-.015.647.647 0 01-.247-.034l-.032-.015a.163.163 0 00-.039-.013.239.239 0 00-.132.013c-.04.023-.179.072-.215.051-.036-.02-.179-.075-.21-.062a.51.51 0 00-.116.08c0 .014-.12 0-.16.025-.04.025-.274-.079-.43-.128h-.206l-.207-.01c-.223 0-.45.012-.505.01h-.048l-.104-.013a.643.643 0 00-.258.015c-.028.019-.251-.011-.355-.081l.036-.077.028-.065a1.057 1.057 0 00-.398-.028l-.111.047h-.02a.287.287 0 01-.09-.025.101.101 0 01-.05-.044c-.023-.036.223-.151.582-.19h.346c.243 0 .235 0 .374-.148L7.1 4.21c.1-.02.17 0 .167.026l.199.017c-.044.053-.06.107-.028.117l.064-.011h.043c.072.01.14 0 .152-.02a.232.232 0 01.175-.063l.036.013.08.026a.202.202 0 00.081-.034c.02-.015.028-.033.026-.05h-.116l-.21-.014a.969.969 0 01.178-.168l-.095-.02a.923.923 0 00-.33.084c0 .01.005.02.016.03a.12.12 0 00.043.021.665.665 0 01.124.046.476.476 0 01-.156 0c-.075 0-.274-.044-.274-.063-.009-.016-.029-.03-.057-.041a.293.293 0 00-.098-.017c-.084 0-.303-.017-.283-.057.02-.04.108-.115.175-.111.068.004.16-.023.056-.07l-.08-.045-.091-.05c-.147-.05-.22-.112-.16-.137l.064-.017a.525.525 0 01.148-.02c.172 0 .343.007.513.022h.048c.02.086.064.17.131.251l.036-.015c.06-.025 0-.09.179-.076.098.007.195.016.29.029.06 0 .096.041.156.053a.358.358 0 00.139-.014c.009-.008.014-.017.014-.026 0-.01-.005-.018-.014-.026l-.227-.02a4.2 4.2 0 00-.541-.075l-.028-.011-.06-.025a.586.586 0 00-.179.097v.071c.084-.024.37-.13.637-.234l.223-.024h.02c.05.046.08.097.087.149l.243.019c.036.011.024.047-.024.079l-.028.034c-.001.01.004.02.014.029a.141.141 0 00.046.02c.036 0 .092 0 .14-.013.02-.104.055-.189.079-.178.095.04.183.084.263.13l.282-.033h.072c.048.006.097.01.147.01.032 0 .103-.024.084-.048l-.032-.019a.688.688 0 01-.231-.068c-.08-.038-.143-.188-.056-.188.088 0 .299.137.458.188l.159.015.294.028c-.103.06-.15.097-.107.082h.044c.08 0 .23-.015.16-.05-.073-.033.035-.092-.104-.124l-.175-.036c-.196-.043-.287-.077-.211-.075l.051-.011.171-.04c.144.03.301.043.458.038.084-.012.338-.023.35 0 .012.022.064.101.084.071a.375.375 0 01.083-.105h-.035l.199-.02c.226.012.513.03.64.04.128.012.621-.064.864-.066l.187.072a.85.85 0 00.29-.011l.323-.068c.151.049.279.062.279.028s.318 0 .397.017c.08.017.319-.075.363-.047l.031.024.024.023c.044.051.08.053.08 0s-.088-.143-.191-.132a2.442 2.442 0 01-.573-.06L14 3.206l.461.034c.1 0 .155-.056.307-.015l.127.034a.431.431 0 00.147-.132.187.187 0 00-.068-.029.337.337 0 00-.09-.007l-.029.123a20.157 20.157 0 01-.533-.089c-.088-.017-.303-.05-.37-.026a1.72 1.72 0 00-.227.1h.064c.06 0-.032.049-.203.109l-.223.013c-.12 0-.239-.011-.354.025-.04.013-.168-.021-.259-.023a2.813 2.813 0 00-.247.017c-.063 0-.143.023-.183.015l-.147-.036a4.72 4.72 0 01-.625-.062l-.024-.077s-.075 0-.131.026c-.056.027.131.1.155.11.024.009-.056.022-.302-.02l-.18.07h-.023a1.367 1.367 0 01-.227-.062c-.044-.017-.231 0-.267 0a1.035 1.035 0 01-.183-.037c-.06-.017-.294 0-.378-.02l-.103.018h-.06a.948.948 0 00-.2.034c-.03.01-.222-.04-.278-.057-.055-.017-.398.047-.398.032a1.188 1.188 0 00-.398 0l-.083-.019-.132-.03c-.012.028-.044.052-.091.07a2.021 2.021 0 01-.33-.023l-.14.032c-.15.034-.286-.034-.465-.017-.16.005-.32-.006-.47-.032h-.05a5.28 5.28 0 00-.485.015c-.264.02-.532.02-.796 0 0-.022.12-.077.267-.08.147-.005.441-.252.362-.229l-.036.011c-.056.02-.104.04-.155.059l-.064.028c-.088 0-.167 0-.18.015-.011.015-.214 0-.23-.011-.016-.011-.151-.047-.199 0v.013c.143.153.104.189-.294.243-.104.017-.18.066-.283.08l-.111.013c-.144 0-.267-.03-.275-.053-.008-.023-.06-.081-.084-.072a.253.253 0 01-.15 0v-.011l.059-.047c.073-.04.118-.088.131-.14h-.06a.432.432 0 00-.175.062c-.027.025-.135.091-.147.066-.012-.024-.107-.086-.199-.086-.091 0-.398.049-.434.11l.247.01.247.014c0 .085-.052.143-.096.126a1.628 1.628 0 00-.398-.053l-.119.013h-.06c-.063.032-.139.036-.175 0-.036-.035-.052-.113.088-.084h.083a.341.341 0 00.14-.016c.023 0 0-.04 0-.052 0-.014-.108-.055-.152-.051l-.262.015c.024-.09-.032-.138-.128-.106l-.187-.056c-.078.054-.178.1-.294.135a6.055 6.055 0 01-.625-.045l-.127.053c-.064-.013-.1-.03-.084-.038.016-.007.048-.047-.036-.041-.083.005-.306 0-.314-.012-.01-.01-.05-.067-.07-.066-.02.002-.048.025-.06.048-.011.022-.214 0-.274-.012a.615.615 0 01-.195-.273c0-.051-.167-.189-.279-.189l-.095-.013c0-.028.052-.05.071-.043.02.005.12 0 .132-.032a.228.228 0 01.101-.068.554.554 0 01.161-.032c.12 0 .339-.115.267-.121-.072-.006-.378 0-.398-.011a.239.239 0 01-.087-.091.234.234 0 01.068-.018.315.315 0 01.079.001l.048.013h.02c0 .023.051.032.107.023.056-.01.135-.06.052-.089-.084-.028 0-.13 0-.113a.07.07 0 00.026.014.136.136 0 00.075 0 .067.067 0 00.026-.014c.032-.034.29 0 .334-.024a.446.446 0 01.156-.015.34.34 0 01.139.037l.179-.024h.028a.118.118 0 00-.05-.063.332.332 0 00-.105-.045l.067-.05.02-.014c-.076-.038 0-.073.127-.077h.112l.195.015c.028-.059.115-.076.19-.038v.155c.176-.04.291-.083.252-.1-.04-.017-.096-.068-.076-.093a.937.937 0 01.096-.101c.099-.003.199-.003.298 0h.708l.072-.038.088-.045c.122.017.252.017.374 0 .087-.017.418.018.537 0 .243-.024.492-.033.74-.029l.108-.053h.1c.03 0 0 .095.17.076.056 0 .072-.059.132-.072.06-.013.195-.017.286-.032.092-.015.239-.058.25-.055.096.046.152.012.244 0l.175-.022c.163.045.362.096.441.115.08.019.22-.094.251-.115.032-.02.279 0 .366-.034.088-.034.422.06.518.077.095.017.521-.066.796-.07l.25.025.108.011c.095.004.191-.004.278-.022.04-.014.22.018.255.026.036.008.342.017.613.03.346.002.69-.021 1.023-.068 0-.017.063-.092.08-.064.015.028.095.104.143.106.19-.005.381-.016.569-.034l.21.056.092.027c.182-.028.375-.038.565-.028l.096-.017.08-.014h.665a.377.377 0 00.118.009.287.287 0 00.105-.027c.028-.027.143-.106.155-.099a5.7 5.7 0 01.16.127l.127-.017.19-.028a1.333 1.333 0 01-.274-.136c-.04-.032.163-.104.247-.083.147.033.312.044.473.032.092-.025.37-.068.319-.085-.052-.017-.203-.051-.22-.038l.053-.037c.063-.051-.024-.19.091-.19.116 0 .358-.075.358-.054 0 .021.036.083.076.085.07.004.14.004.21 0 .04 0 .045-.06.037-.072-.008-.01.036-.03.127-.017l.056.021.032.013a.116.116 0 01-.046.052.297.297 0 01-.086.037c-.067.019-.23.087-.183.106.058.032.092.072.096.115a.384.384 0 01-.084.124.58.58 0 01-.235.02.58.58 0 00-.179-.039l-.083.057c.033.032.08.06.136.084a.863.863 0 00.194.052l.103-.04c.028-.011.1 0 .148-.013l.135-.015.306.047c.085-.004.167-.018.24-.04.067-.019.457.027.544 0 .199-.02.403-.02.601 0l.096.017.227.04c.088-.01.172-.03.247-.055.083-.028-.06-.171 0-.213a.231.231 0 00.063-.17c0-.02.175 0 .279.014h.21a.497.497 0 01.137.05.202.202 0 01.079.072c0 .036.083.136-.028.151-.112.015-.398.023-.343-.013l.028-.027a.408.408 0 00.08-.09V.97a.102.102 0 00-.052-.033.26.26 0 00-.083-.012h-.036l-.263.066c.036.119.215.211.398.206l.163-.017.124-.015a4.99 4.99 0 01.346 0h.052c.139.01.147 0 .1-.046l-.037-.041a.332.332 0 00.115-.03c.03-.016.05-.036.056-.057 0-.034.044-.123.1-.11v.065c0 .064.036.115.087.115.052 0 .18-.027.16-.057-.02-.03.04-.13.143-.147.152 0 .302.016.438.047.035.012.135.063.135.093s.08.111.171.122c.12.016.244.02.366.013v-.109l.032.062zm.123 2.124c.112 0 .176.03.148.072h.135c.04 0 .091-.025.131-.042l.052-.024a.256.256 0 01.18-.029c.047.015.19.042.19.02 0-.023-.08-.09-.179-.09a1.78 1.78 0 01-.398-.04.361.361 0 00-.227-.042c-.071.018-.139.177-.032.177V3.21zm-5.571.028c.091 0 .143.038.115.072-.028.034-.071.141-.083.16-.012.02.235.053.219.021-.016-.032 0-.113.043-.117.044-.004.152-.028.14-.049 0-.024.015-.047.044-.066a.303.303 0 01.119-.04l.115-.007.211-.025c-.032-.054-.127-.09-.215-.077a4.071 4.071 0 01-.549-.07c-.048 0-.203-.015-.203 0s-.06.062-.127.044c-.068-.02-.27.028-.251.054.124.048.27.083.426.1h-.004zM7.155 4.587c.152.054.28.119.28.145a.22.22 0 00.101.07.55.55 0 00.165.032l.115-.012a.993.993 0 00.243-.062v-.037a.382.382 0 00-.131-.02c-.07.02-.136.041-.2.065 0 0-.027-.02-.083-.034-.056-.015-1.094-.106-.991-.059l.111.017.16.023c.164.013.332.013.497 0V4.66a.627.627 0 00-.16-.156l-.07-.034a.348.348 0 00-.135-.017c-.124.019-.001.034-.001.05v.038c.036.066-.04-.009.115.046h-.016zM76.06 1.703a.093.093 0 01.035-.034.224.224 0 01.06-.025.37.37 0 01.156-.009c.092.017.346.04.346 0s-.075-.111-.17-.096c-.096.015-.598.189-.51.119l.075-.057v-.015c.04-.011.036-.026 0-.03a2.704 2.704 0 01-.258-.04c-.092-.019-.279.053-.31.036a.51.51 0 00-.152-.056.071.071 0 00-.022.049.07.07 0 00.022.049l.024.041c.021.039.03.079.028.119v.04c-.044.06.064.06.235 0l.04.009.135.03a.396.396 0 00.266-.13zM29.665 4.954l.31.093a.201.201 0 01.088.081l.028.023a.3.3 0 00.111.043h.096c.075-.055.187 0 .274-.013.088-.013.315-.028.315-.045 0-.097.203-.05.306-.072 0 0 .032-.02.04-.034.036-.064.123-.051.219-.019l.055.019a.419.419 0 00.247 0v-.011l-.008-.034a1.382 1.382 0 00-.354-.123h-.107l-.192.019c-.19.047-.398.05-.43 0l-.09-.015c-.076-.013-.204.017-.311.024h-.247c.032.042.036.08 0 .087-.036.008-1.094-.102-1.27-.107l-.13.015h-.076a.093.093 0 00-.033.066c0 .023.011.045.032.066.04.028.26.028.359.043.1.015.465-.072.684-.081l.064.106a.2.2 0 00.061.024c.024.006.051.01.078.01.124-.02 0-.034 0-.051v-.023a.392.392 0 01.143-.087c.056-.022-.107-.124-.21-.164l-.064.083v.011c-.084.044-.14.021.012.066zm18.37-.147c.12-.145.195-.203.171-.13l.052.021c.095.03.208.044.322.041.2 0 .422.034.601-.037l.024-.01c.178.007.356.007.534 0h.27a.664.664 0 01.163.03c.045.004.09.002.132-.006a.33.33 0 00.107-.037c.08-.041.398 0 .434-.026a3.76 3.76 0 00-.33-.089h-.112l-.1.015c-.099.017-.194.019-.206 0-.012-.019-.072-.047-.108-.047l-.255.036a3.123 3.123 0 00-.565.04l-.027.013a.227.227 0 01-.084.02c-.024-.001-.195-.035-.235-.024l-.215.06c-.223.089-.398.09-.398 0l-.075-.053a.809.809 0 00-.335-.01l-.147.058a1.31 1.31 0 00-.33-.053c-.068 0-.25.066-.354.041-.104-.024-.31-.122-.398-.111-.088.011 0 .09-.04.104-.04.013 0 .09.29.13l.271-.034a.602.602 0 01.175 0 1.184 1.184 0 00.501.019c.124-.021.16-.023.235.011l.032.028zm32.049-3.032c-.247-.121-.315-.234-.151-.251l.15-.025.28-.045c.074.042.158.08.25.113.032 0 .124 0 .136-.028v-.038c-.08-.034-.036-.045.099-.022.135.022.493.018.438-.07l-.18-.028-.25-.038c-.25.045-.517.049-.593 0l-.175.026a.241.241 0 01-.052 0l-.219-.02-.398.147c-.071.024-.338.026-.362.049v.013c.037.014.084.02.132.019h.051c.064-.02.124 0 .128.036a.291.291 0 00.043.137s.084-.026.112-.062c.264-.073.54-.136.824-.189a1.481 1.481 0 00-.398.208l-.188.043c-.083.02-.06.034 0 .059.06.024 0 .045 0 .07v.013c0 .017.044.03.112.028l.21-.145zm-48.17 3.134c-.08 0-.12.023-.092.045a.397.397 0 00.219.051c.063-.013.187.083.227.112h.274c-.075-.034-.083-.078-.028-.097a1.53 1.53 0 01.398 0l.132.012.115.011c.107.034.167 0 .131-.055h.259c.06.044.155.059.215.036.06-.022.243-.073.259-.054a.306.306 0 00.206.016c.084-.022.315-.067.327-.054.012.013.072.045.1.038.027-.008.11 0 .123.017.012.017 0 .018 0-.051l.262.077c.13.017.268.017.398 0h.068a.743.743 0 00.18-.12h.047c.125.026.26.041.398.045h.024c.047.047.115.07.147.049.032-.021-.14-.117-.474-.16l-.294-.012h-.681c-.1.001-.2.008-.298.02-.25.018-.5.025-.752.021h-.251c-.235.044-.43.02-.43-.056l-.227.092a1.661 1.661 0 00-.334-.053 1.727 1.727 0 00-.418.07h-.231zm9.782-.222c-.088.07-.084.126 0 .128.176.007.353.007.529 0l.12-.02c.11 0 .218-.01.318-.033l.155.025c.143.018.29.032.438.041a.274.274 0 00.091-.011c.092-.042.155-.02.267 0 .159.024.33.024.49 0 .11-.025.186.056.29 0 .04-.027.266 0 .398-.012h.087c.02-.015.032-.032.032-.05a.179.179 0 00-.093-.044.368.368 0 00-.13-.002h-.087c-.096 0-.175-.054-.27-.06a1.266 1.266 0 00-.399.024l-.088.023a5.862 5.862 0 01-.477-.03c-.107-.011-.358.047-.366.023-.008-.025-.163-.051-.315.01l-.199-.01h-.15a5.016 5.016 0 00-.478-.029l-.04.02-.123.007zm-3.885.17c0 .03.124.031.275 0l.143.06.1.043a2.47 2.47 0 00.294-.08c.04-.016.267.046.287.052.029.01.054.023.075.038 0 .017.2-.017.259-.057.06-.04.398-.03.358-.02-.04.009 0 .037.104.043.103.005.322-.085.43-.115l.119.015.147.019c.18.022.219 0 .092-.03V4.8l.043-.123c-.226-.02-.433-.02-.457 0a.361.361 0 01-.207.05l-.056-.016a1.047 1.047 0 00-.51.01l-.198.047a.913.913 0 01.175.088 2.628 2.628 0 01-.362-.041l-.163-.03c-.028 0-.08-.012-.084-.02-.004-.007 0-.067-.14-.065h-.115a.308.308 0 01-.155.062h-.167a.53.53 0 00-.175.024.202.202 0 00-.108.07h-.004zM19.807 3.171c.048-.02.06-.041.032-.045-.028-.004-.084-.026-.048-.036h.06c.028-.011-.036-.077-.136-.145h-.195l-.354-.017c.14-.062.22-.11.175-.104a3.2 3.2 0 00-.31.066c-.076.027-.14.136-.104.15.036.012.168.048.192.075a.418.418 0 00.207.12c.168-.003.333-.025.481-.064zM77.334 1.68c.032.022.14.022.247 0 .107-.023.21-.1.183-.06-.028.039.274.133.374.122.1-.012.35-.068.35-.106-.023-.034-.07-.063-.135-.082a.624.624 0 00-.215-.022l-.104-.07-.12-.077c-.118.044-.29.1-.397.127-.108.026-.211.147-.183.168zM37.055 4.75c-.25.019-.422.049-.398.07a.078.078 0 01.03.027c.005.01.006.02.002.03a.06.06 0 01-.023.028.154.154 0 01-.045.022v.02c-.028.054.1.042.18.044.07.005.14.005.21 0l.08-.015a.496.496 0 01.126-.03.632.632 0 01.14.002c.08.013.231.013.124-.032-.108-.046-.18-.211-.219-.217l-.207.05zm-9.424.113c-.219.057-.366.145-.326.189.04.043.43.018.473.024.024.115.195.055.33.045h.06c.076 0 .136-.022.136-.064a.135.135 0 00-.05-.05.326.326 0 00-.09-.038.545.545 0 00-.23-.014l-.064-.022-.239-.07zm-12.516-1.32a.038.038 0 00-.014.023.031.031 0 00.008.023.076.076 0 00.027.02.17.17 0 00.043.013h.095a.782.782 0 01.283-.026l.043-.032.024-.016a2.33 2.33 0 01-.23-.152l.11-.046a.33.33 0 00-.203-.013l-.087-.036a.44.44 0 00-.098-.027.597.597 0 00-.112-.007l-.096.021a.474.474 0 01.151.119l-.067.028-.028.012c.012.01.187.066.15.096zm65.749.484c.068 0 .052-.018-.036-.043-.088-.024-.35-.023-.374.045l-.191-.047c-.171-.041-.314-.073-.378.04v.015c-.112.011-.08.043.068.072h.195c.103-.036.187-.044.187-.016v.039c.023.01.053.014.083.014.03 0 .06-.005.084-.014v-.019l.024-.022c.06-.036.266-.063.338-.063zm-35.873.653c.01.014.025.027.045.037.021.011.047.02.075.025a.431.431 0 00.178-.002c.116-.024.521.048.629.055l.064-.015.087-.02a.124.124 0 00.055-.061.07.07 0 00-.011-.066h-.04a.789.789 0 00-.215.02h-.051a.383.383 0 01-.16.019c-.055 0-.266-.05-.398-.073l-.119.036-.14.045zm-17.98-3.5c-.096-.014-.1-.034 0-.048.099-.013.35-.08.354-.11V.97a.065.065 0 00-.024-.026.157.157 0 00-.044-.019.268.268 0 00-.116-.008 2.595 2.595 0 00-.398.129c-.107.043.056.188.168.188h.398a5.005 5.005 0 00-.339-.054zm43.124.773c.087.03.17.036.187.011v-.013l.047-.106-.457-.094h-.024a5.251 5.251 0 01-.279.04c-.083 0-.219-.029-.246-.017l-.108.047a.865.865 0 00-.263 0c-.023.011 0 .05.128.068.178-.005.354-.02.525-.044.064 0 .227.023.171.051-.056.029.231.025.319.057zm-55.9 6.048c-.159.059-.254.117-.214.13.132.044.275.08.425.108l.164-.02.226-.03c-.103-.052-.179-.103-.163-.112.016-.01-.06-.064-.203-.098h-.103l-.132.022zm67.377-6.45c.068 0 .135.045.151.102l-.04.04c-.035.032-.103.052 0 .073.095.014.193.021.291.023 0 0 .048-.047.044-.05-.171-.026.028-.08-.06-.122l-.076-.036c0-.032-.028-.063-.076-.087a.448.448 0 00-.182-.037h-.171a.077.077 0 00-.028.015c-.006.006-.01.013-.01.02 0 .007.004.013.01.02a.077.077 0 00.028.015h.051l.068.024zM71.332 8.41c-.026.016-.043.035-.046.056-.004.02.005.04.027.059.05.02.108.034.172.042a.88.88 0 00.194.001c.127-.02-.29-.192-.347-.158zm2.42-6.122c0-.02-.032 0-.072.05-.04.052-.338.127-.334.144.044 0 .128.019.14.013l.11-.062c.171.011.344.011.514 0 .116-.011.096-.128 0-.117l-.083.011-.084.01a.336.336 0 01-.114-.008.145.145 0 01-.077-.041zM9.098 4.174c.135-.036.119-.095-.032-.13h-.068c-.072 0-.111.058-.151.092l-.072.057c-.111-.023-.223-.017-.247.013-.023.03.434-.004.57-.042v.01zm7.923-.106c.136-.026.187-.064.108-.087-.08-.022-.422.104-.518.189l-.223.02v.038h.024l.29-.024v.064a.37.37 0 00.132.019l.131-.017c-.075-.02-.099-.177.056-.202zm69.12-2.976c-.072-.017-.076-.058 0-.09.076-.033.167-.114.1-.114-.068 0-.255.04-.275.087a.217.217 0 000 .2c.04.023.183.06.239.041.055-.018-.008-.107-.08-.124h.016zm-67.695 1.99a.233.233 0 00-.049.008.138.138 0 00-.037.017.056.056 0 00-.021.022.03.03 0 000 .024c.05.059.125.112.222.155l.08.023c.044 0 .064-.025.048-.032-.009-.011-.008-.023 0-.033a.088.088 0 01.047-.024c.06-.013.24-.09.164-.111a2.477 2.477 0 00-.454-.05zM74.44 1.703c.167 0 .294-.028.282-.068-.012-.04.116-.147.104-.17h-.032a.446.446 0 00-.14.012.233.233 0 00-.103.058c-.036.053-.056.06-.084.047-.11-.058-.17-.013-.23.014-.06.026 0 .083.087.096l.116.011zm-9.763.215c.064.04.16.019.211-.045h-.139l-.299.011c0-.087 0-.083-.035 0l-.175.01-.275.017a.284.284 0 000 .145c0 .017.064.02.084-.025.02-.045.565-.14.628-.105v-.008zM88.111.964c0 .073.056.119.091.102.098-.046.19-.095.275-.146a.182.182 0 000-.226.363.363 0 00-.096.002.235.235 0 00-.079.026c.223.085.08.146-.088.2l-.103.042zM17.447 3.359c.123 0 .171-.06.108-.134l.107-.066s0-.026-.036-.034a.221.221 0 00-.091 0c-.06.013-.16.036-.156.05l.044.107c-.227.047-.1.084.024.084V3.36zm57.547-1.445c-.056-.026.028 0 .187.053l-.2.083s0 .019.033.028a.232.232 0 00.051 0c.148-.013.295-.024.438-.043l.108-.013c.111-.025.115-.038 0-.029a3.266 3.266 0 01-.617-.071v-.008zM52.839 4.64c.215-.027.326-.083.247-.129l-.092-.015c-.115-.017-.096.044-.14.057l-.123.04a2.113 2.113 0 00-.362-.025c-.032 0-.107.03-.08.043.084.03.18.05.283.06l.092-.01.175-.021zm29.927-3.433c-.04 0-.04-.023 0-.032v-.011a.073.073 0 000-.07.313.313 0 00-.095 0c-.034.011-.059.028-.068.047v.1a.41.41 0 00-.064.224h.068a.74.74 0 00.211-.077.114.114 0 00.024-.092.157.157 0 00-.06-.089h-.016zm1.162.519c.068.037.116.045.108.02a.438.438 0 00-.141-.068.813.813 0 00-.19-.032l.064-.08a.535.535 0 00-.084-.02.232.232 0 00-.051 0h-.052c-.083 0-.135.051-.107.104l.063.029c.06.024.187.022.283.033l.107.014zm-10.088.1c.183.026.33.026.33 0a.258.258 0 00-.126-.07.588.588 0 00-.188-.017c-.171.011-.422.132-.263.126l.131-.019.116-.02zM41.166 4.772c.096.026.167 0 .155-.04l-.055-.034-.044-.028a.148.148 0 00-.043-.017.242.242 0 00-.109 0 .148.148 0 00-.043.017v.03c0 .055-.127.03-.2.04h-.047c-.044.02-.056.041-.028.049.028.007.335-.044.43-.017h-.016zm39.698-3.043c-.092-.018-.175-.015-.183 0 .018.065.081.126.179.172l.127.036a.483.483 0 00.303-.017s-.04-.047-.052-.047c-.171.015-.127-.047-.187-.074-.06-.026-.227 0-.191-.071l.004.001zm4.47-.565c-.112 0-.116.04 0 .085l.103.035a.384.384 0 00.139 0c.028-.01.048-.045.028-.052-.1-.04-.14-.06.055-.066.024 0 .044-.057.056-.087.012-.03-.032-.03-.052-.032h-.047c-.04.01-.144.122-.267.122l-.016-.005zm-58.957 0c0 .028.052.022.112-.01.024-.022.037-.046.037-.071 0-.025-.013-.05-.037-.072a1.916 1.916 0 00-.318-.038c-.084 0-.096.102-.056.119h.127c.072-.025.148.045.151.068l-.015.004zm62.797-.027c-.128.029-.22.068-.203.087.016.019.075.05.103.032.028-.019.127.057.155.08a.546.546 0 00.128.077.048.048 0 00.014-.033.048.048 0 00-.014-.033c0-.032-.028-.127.028-.132.055-.006-.08-.106-.211-.078zm-11.717.755a3.565 3.565 0 00-.887.041c.354.166.58.006.887-.041zM15.27 1.156c-.203.023-.302.057-.215.076l.056.015c.028 0 .048.02.076.028l.143.04c.14-.04.258-.093.262-.121l-.027-.019a.37.37 0 00-.148-.028l-.147.01zm71.345.155c-.044-.03-.092-.029-.104 0-.012.028.438.113.486.066v-.051c-.052-.015-.33.015-.382-.015zm-2.937 0c-.06.02-.072.043 0 .05.03.01.056.024.071.04.016.016.021.034.016.051 0 .028.2.023.219 0a.231.231 0 00.028-.117c-.024-.01-.27-.036-.334-.01v-.014zM.93 2.65c.151 0 .211-.028.136-.05-.076-.023-.398.06-.295.087l.08.032c.04.013-.207.037 0 .06.119.015.15-.025.127-.062L.93 2.651zM83.192.893c-.087.013-.044.023.096.023h.274a.322.322 0 000-.16c0-.012-.072-.048-.083-.021a.691.691 0 01-.287.167v-.01zm-10.347.726h-.104c-.035.032-.095.066-.087.098a.273.273 0 00.111.127.35.35 0 00.135 0l.056-.03c.04-.036.05-.077.028-.116a1.228 1.228 0 00-.155-.07l.016-.009zm14.872-.609a.19.19 0 00-.203-.047c-.068.026 0 .145.036.188.036.044.19-.08.151-.132l.016-.009zM26.664 3.035c-.147.062-.21.13-.147.149.064.018.255-.059.25-.108h.172c.027 0 .1-.043.087-.055-.052-.047-.091 0-.135 0l-.227.014zm-13.197.056a.21.21 0 00-.08-.038.41.41 0 00-.11-.013h-.16a.065.065 0 00-.024.02.028.028 0 00-.004.023.042.042 0 00.015.022c.009.006.02.012.033.016h.247c-.044.047-.088.089-.092.095-.004.005 0 .026.048.032h.028c.167-.021.207-.066.127-.132l-.028-.025zm18.789-.171c-.032 0 .027.113.13.228l.088.017a.38.38 0 00.104 0h.024a.314.314 0 00-.135-.166l-.088-.07a.279.279 0 00-.096 0l-.027-.01zm55.947 3.336c.035.019.143.017.23 0 .088-.017.223-.1.136-.13h-.215c-.163.032-.191.103-.151.13zM76.844 1.703c0 .036.072.019.18-.038l.087-.045c.048-.058 0-.107-.123-.106-.124.002-.136.157-.144.189zm6.193 1.217c-.195.028-.275.098-.18.156l.196-.058.091-.029c.18 0 .323-.034.315-.068V2.89a.485.485 0 00-.183.06h-.036l-.203-.03zm-7.749-1.268c-.147-.034-.286-.036-.31 0-.024.036-.072.136 0 .159.072.022.187 0 .21-.038l-.067-.027v-.028l.167-.066zM11.215 4.104c-.112 0-.207 0-.22.02v.038c0 .021.116.038.232.04.115.002.087-.092-.02-.102l.008.004zm63.397-2.929a.135.135 0 00-.053.03c-.012.012-.017.025-.015.038h.255c.146.04.304.07.47.087v-.05c-.12-.022-.24-.045-.359-.064a2.676 2.676 0 00-.278-.04l-.02-.001zM53.965 4.343c.048-.018 0-.028-.08-.02-.08.007-.199-.102-.258-.117a.186.186 0 00-.088.062l-.028.075c.146.028.308.028.454 0zM11.012 3.067c.127 0 .19 0 .147-.021a3.05 3.05 0 00-.322-.05c-.096 0-.22.112-.27.135a.553.553 0 00.158.068h.024c.072 0 .135-.132.263-.132zm59.115-.736c.06 0 .067-.028 0-.055h-.036c-.064 0-.135.021-.2.017h-.095a.43.43 0 00-.243.021l.024.011c.04.023.148.029.183.051l.04.025v.066a.119.119 0 00.034-.016.047.047 0 00.018-.022.613.613 0 01.275-.098zm-52.795 0c0 .034.08.045.179.026.101-.033.174-.083.207-.14l-.024-.01a.26.26 0 00-.108-.023h-.08c-.093.036-.156.087-.174.143v.004zm55.803-.062c.052.043.104.075.12.071.034-.023.052-.052.051-.08 0-.036-.067-.138-.15-.127l-.04.015c-.032.013 0 .044-.052.053-.052.01-.104-.075-.163 0-.06.075.08.04.155.055l.08.013zm.16-.77c.035-.04-.036-.032-.164.017-.127.05.203.227.163.189a.225.225 0 01.016-.202l-.016-.004zm-11.203.54c-.052.032-.032.066.043.075.076.01.223-.053.187-.08-.035-.03-.159-.024-.215.009l-.015-.004zm16.798-.453c-.06-.053-.187-.028-.283.057l.168.022.115.015c.127 0 .195-.013.143-.041l-.063-.023-.08-.03zm-8.103.145c-.067.027-.032.055.084.063l.044.01.135.033c.143-.017.23-.06.187-.096-.044-.036-.362-.038-.434-.006l-.016-.004zm12.656-.34c.047-.022 0-.06-.068-.082a1.214 1.214 0 00-.422.045c-.044.025.032.093.056.077.024-.015.123-.045.16-.032a.747.747 0 00.29-.003l-.016-.004zm-4.398.636a1.581 1.581 0 00.625-.045c-.27-.09-.27-.09-.609.05l-.016-.005zM14.892 8.04c-.036.015.028.06.147.098h.104a.925.925 0 00.25-.057s0-.05-.023-.05h-.06c-.068 0-.131 0-.143-.021-.012-.021-.24.013-.275.03zm18.705-5.047c-.167-.011-.31 0-.319.047l.036.025.052.032c.106-.005.212-.005.318 0h.088c.017-.01.027-.022.027-.034 0-.013-.01-.025-.027-.034h-.036l-.14-.036zm38.742-1.29c.044-.045.052-.049 0 0l-.163.019-.207.024c.144.07.339.01.37-.043zM49.73.006c.224-.029.347 0 .28.05l-.037.036c-.043.048-.111.042-.199.021a.4.4 0 00-.111-.011c-.056.015-.103.055-.155.055-.18 0-.156.083-.267.092-.207.017-.103-.092-.25-.106-.048 0-.112-.02-.14-.015-.115.025 0 .038.028.057.028.019-.028.02-.048.024s-.1 0-.1 0a1 1 0 01-.119-.188V.006c.064-.017.24.032.398.113l.287-.023c.117-.002.232-.017.334-.045l.1-.045z"/>
    <path d="M10.912 1.01c-.187-.01-.246-.039-.13-.061.114-.023.35-.078.254-.068-.096.01-.287-.029-.187-.057.1-.028.529.045.58.05.053.003.216-.012.184-.04-.032-.029-.044-.114.044-.125h.043l.112.019c.1-.015.167.015.147.068l-.103.036a.86.86 0 01-.226.067 1.23 1.23 0 01-.264.014.917.917 0 00-.334.041l-.12.057zM24.726.419c.084.015 0 .043-.16.066L24.409.5a.547.547 0 00-.143-.052.85.85 0 00-.176-.02c-.115 0-.426-.038-.398-.081V.3c-.143-.019-.187-.036-.095-.036.091 0 .314.015.322.034a.174.174 0 00.084.035.327.327 0 00.111 0c.212.016.418.045.613.086zm29.271.26c0 .019.04.028.135.02.096-.007.35-.009.35.021s-.06.12-.127.134c-.068.015-.207-.075-.239-.096l-.067.025a.168.168 0 01-.05.016.254.254 0 01-.115-.008.103.103 0 01-.038-.022L53.79.73a.526.526 0 01-.14-.09s.04-.03.08-.02h.04c.048.002.096.002.143 0h.052c.068 0 .068.04.032.06zM14.864.447a.198.198 0 00-.086-.007.14.14 0 00-.038.012.058.058 0 00-.023.018c-.032.032-.18.12-.247.117L14.442.57 14.38.536c-.096-.027-.124-.059-.056-.07.124-.04.258-.074.398-.1.143-.013.426.09.398.102a.96.96 0 01-.255-.021zm6.933.298c-.028-.017 0-.068.06-.115h.266a.28.28 0 00.2.058c.059-.01.262-.018.27.015.008.034-.064.134-.171.14L22.354.83l-.147-.025a2.013 2.013 0 01-.335-.041L21.83.749l-.032-.004zM17.344.42c-.092-.03-.183-.035-.203-.015-.02.021-.096.03-.136-.015h-.151c-.024-.026 0-.041.064-.03h.067c.112 0 .227-.054.347 0 0 0 .08-.013.115-.026l.056-.019c.076.01.146.027.204.053a.303.303 0 01.126.092l-.167.045h-.024c-.048 0-.095-.03-.103-.064h-.124l-.071-.02zm3.207.242c.04-.015.116 0 .171.034.056.034.144.094.08.062-.064-.032-.354.011-.43-.022l-.123.04a.197.197 0 00-.093.044c-.02.02-.025.042-.015.063 0 .035 0 .052-.107.04-.107-.014-.072-.035-.107-.054l.13-.113h.136c.115-.019.319-.08.358-.094zM19.41 5.156c.079-.064.198-.103.27-.086.071.016.135.084-.116.083h-.334c-.199.022-.366.022-.37 0-.004-.023.12-.102.29-.114l.06.025.2.092zM37.86.134c.13.068.079.126-.116.126h-.235c-.022.033-.067.06-.127.08-.052 0-.148-.023-.2-.034-.051-.012-.234-.038-.199-.082h.152a9.7 9.7 0 01.485-.01l.048-.02.191-.06zm.493.402c.051-.027.1-.021.103.013l-.076.036a1.695 1.695 0 01-.477.085l.175.088.036.02a.425.425 0 01-.175.067.724.724 0 01-.223.002l.175-.064s.028-.014.02-.017l-.175-.123c.214-.024.42-.06.617-.107zM13.547.513c-.31 0-.506-.03-.434-.06.072-.03.1-.17.18-.155l.043.019c.056.02.095.05.111.083.032.104.192.066.33.049h.06c.088-.017.112.011.052.062h-.083l-.259.002zM33.76.89c0-.026.06-.028.127 0 .068.028.235.106.203.115-.032.01-.179.036-.203.012l-.043-.02-.108-.048a2.789 2.789 0 01-.274.092h-.076c-.04 0-.104-.015-.111-.028-.004-.01-.002-.02.006-.029a.085.085 0 01.037-.022l.064-.019c.095-.006.374-.025.378-.053zm7.08-.605c-.135.019-.255 0-.259-.036-.004-.036.22-.098.227-.077.008.02.111.047.211.01l.123.054c.067.024.137.046.211.066-.016.02-.374-.036-.513-.017zm1.035.632c.119 0 .222-.02.23-.051.008-.032.08-.085.136-.051.056.034-.092.164-.279.179l-.175.011h-.032c-.019-.01-.03-.024-.03-.038 0-.015.011-.028.03-.04h.044l.076-.01zM46.53.52c0 .04-.146.072-.282.072h-.171a.114.114 0 01-.045-.037.048.048 0 01-.006-.042c0-.015.031-.066.099-.077.04.019.044.049.084.066l.027.011h.108V.46c.02-.032.203.02.187.06zM36.792.194c.048.017.052.036 0 .046-.051.009-.179.049-.127.058.052.01.12.041 0 .041s-.446-.022-.398-.05l.06-.017c.08-.023.19-.032.25-.06l.044-.023c.008-.038.124-.021.171.005zm-4.278 1.011c-.17-.022-.242-.064-.163-.09.08-.027.064-.189.056-.217v-.02c0-.014.051-.035.087-.035a.33.33 0 01.115.023l-.051.079c.143.043.139.102 0 .13v.03l-.044.1zM6.415 4.068c.056.025.028.043-.067.043-.096 0-.287-.02-.251-.045.036-.024-.076-.085.02-.085.095 0 .298-.052.314-.037.016.015-.075.1-.016.124zM22 5.037c.147 0 .21.029.143.066-.067.038-.314.108-.398.074-.083-.034 0-.162.092-.149h.087l.076.01zm-4.394.038c.211-.045.398-.062.398-.036 0 .027.29.015.31.029v.011l-.02.028-.322.023c-.107 0-.398 0-.378-.032l.02-.023h-.008zM46.328.177c-.056-.04 0-.036.135 0l.148-.066.031-.013c0-.011.032 0 .076 0s.127.068.1.077c-.028.01-.16.042-.172.03-.012-.01-.087-.03-.107 0l-.036.018-.024.013c-.063 0-.107-.013-.095-.03V.194l-.056-.017zm39.909.311c-.04-.04 0-.066.04-.06.105.013.204.036.29.068.052.028 0 .132-.1.132L86.38.611l-.104-.019a.368.368 0 01-.115.018.368.368 0 01-.115-.018c.04-.028.119-.049.159-.077l.032-.027zM49.862.76c-.036.032-.08.017-.1-.032-.02-.049 0-.189.064-.202.064-.013.207.115.263.145.056.03.219.136.155.13-.064-.005-.346-.071-.382-.04zm9.488 0c-.052 0-.076-.023-.052-.053s.215 0 .258-.013l-.035-.036c-.056-.045-.032-.083.055-.083.088 0 .215 0 .108.013-.108.014.068.132.08.163l-.06.028-.084.041a1.038 1.038 0 00-.27-.06z"/>
    <path d="M21.654.715a.42.42 0 01.082.008.29.29 0 01.069.022l.032.011.044.015c.047.015.067.04.04.057l-.032.011-.04.015-.223.068-.072.015-.071.014c-.088 0-.12-.025-.076-.072l.072-.034.15-.068c-.13-.034-.031-.062.025-.062zM47.665.72c.163-.03.211-.022.112.016-.1.037-.26.188-.303.188a1.24 1.24 0 01-.19-.013.97.97 0 01.381-.19zM29.124.79s-.028-.02-.028-.045c0-.025.087-.102.195-.102.107 0 .438.042.438.094h-.044c-.108.017-.287.048-.29-.05a.368.368 0 00-.128-.017c-.032 0-.068.024-.076.04v.024c-.008.035-.047.058-.067.056zM13.985.822c0 .027-.08.032-.18.013-.099-.018-.33-.092-.274-.116.056-.025.247-.076.25-.034v.132c.12-.057.204-.023.204.005zm9.005 4.312c.049-.072.112-.112.14-.087a.418.418 0 00.243.05c.08-.014.23-.035.143 0-.087.037-.032.114-.032.084s-.258 0-.302 0h-.032l-.16-.047zM45.425.096c.099-.05.135-.056.083-.011-.052.045-.16.168-.227.168S45.047.24 45.058.22a.608.608 0 00.16-.022.309.309 0 00.115-.056l.092-.047zM22.326.4c.1.013.136.041.08.06-.056.019-.29-.034-.346-.05-.056-.018-.171-.09-.068-.112l.08-.015h.031c.044-.006.124.1.223.117zm.45-.047c.06-.078.135-.123.163-.1.028.022.314.088.299.113-.016.024-.251 0-.295 0-.044 0-.052.085-.127.092h-.144c-.087 0-.087-.024 0-.034l.024-.019.08-.052zm33.282.03c.124.013.06.022-.143.022l-.084.027-.155.05a1.406 1.406 0 00-.342-.063h-.1c.144 0 .697-.036.824-.036zM33.219.67a.22.22 0 010-.157h.056c.083.02.154.05.206.087a.883.883 0 01.22.188h-.125a.995.995 0 00-.254-.1L33.22.67zm17.506.35c-.043.014-.023-.04.044-.115l.112-.011.135-.015c.187.034.33.085.322.113-.008.028-.262-.015-.326-.015h-.06a1.844 1.844 0 00-.183.028l-.044.015zm27.353.106c0 .024-.087.023-.199 0a3.804 3.804 0 01-.43-.12c0-.018.028-.069.092-.052.064.017.207.076.195.102-.012.027.342.044.342.07zM29.868.304c0-.063 0-.123.075-.132.076-.01.207 0 .219.018h-.024l-.056.021a.229.229 0 00-.09.033c-.023.015-.034.034-.033.052 0 .032.223.089.242.1.02.011-.321-.03-.333-.092zM11.605.45c-.287.023-.434.016-.33-.018.103-.034-.048-.16-.024-.172.024-.011.107.02.103.095l.16.06.09.036zM40.9.964c-.132.02-.18 0-.1-.047.08-.048.33-.142.346-.085v.037c0 .042.068.102-.159.097L40.9.964zM24.885.355c-.14-.021-.12-.074.044-.121l.151-.011h.096c.131.035.087.05-.096.037v.1s-.063.015-.091.013l-.104-.018zM18.29.223a.282.282 0 01.1-.031.42.42 0 01.12 0c.067.014.199.057.143.066h-.16a.44.44 0 00-.107.104c-.012.02-.147-.11-.095-.14zm29.498-.01c.052 0 .124-.03.156-.068.032-.037.15-.13.183-.119.02.014.03.03.03.048 0 .016-.01.033-.03.047-.048.034-.255.145-.346.152l-.036-.017c-.108-.045-.203.102-.251 0-.032-.066.147-.032.235-.04l.06-.003zm-21.51.104s-.036.015-.087.02h-.124a.093.093 0 00-.034.016c-.009.006-.013.014-.013.021 0 .008.005.015.013.022a.09.09 0 00.034.015h.108c.071 0 .055.036-.036.066h-.136a1.05 1.05 0 01-.195-.075c-.027-.02 0-.083.084-.108h.171c.075 0 .148.008.215.023zm.593-.006c.12.051.127.1 0 .11-.127.009-.374-.021-.378-.083l.195-.015.183-.012zm-8.847.875c-.044-.017-.074-.041-.087-.068-.013-.026-.008-.054.015-.079l.028-.056c0-.02-.207-.04 0-.057.028 0 .1.028.108.047.008.019 0 .083 0 .125 0 .011.063.028.1.032.035.003.135.015.051.043a.45.45 0 01-.151.02l-.064-.007zm2.002 3.833a.225.225 0 01.073-.023.33.33 0 01.086 0c.029.003.055.01.075.02.02.01.034.023.04.037l.064.043c.052.036.14.026.215 0a.102.102 0 01.053.027c.01.012.011.025.003.037h-.14c-.153-.01-.3-.034-.433-.072l-.028-.037-.008-.032zm21.809-3.982c.103 0 .159.025.131.042a.445.445 0 00-.103.096l-.084-.025a.533.533 0 00-.179 0c-.092.027-.183.059-.239 0l-.04-.047c.169-.026.34-.048.514-.066zM30.011 5.005a.294.294 0 01.104 0h.023l.188.068c.047-.073.15-.119.23-.098.08.021.092.106.032.087-.06-.019-.282.03-.338.026a2.478 2.478 0 01-.239-.03c-.009-.008-.014-.017-.014-.026 0-.01.005-.018.014-.027z"/>
  </g>
  <defs>
    <clipPath id="ZbHTcnzMsa">
      <path fill="#fff" d="M0 0h89.751v13.768H0z"/>
    </clipPath>
  </defs>
</svg>
