<svg xmlns="http://www.w3.org/2000/svg" fill="none" viewBox="0 0 90 29">
  <g clip-path="url(#hBtF4AHrGa)" fill="#fff">
    <path d="M5.798 16.872c.076.051.084.103 0 .119a2.82 2.82 0 00-.421.266l-.036-.207v-.027a.442.442 0 00-.247.02.399.399 0 01-.334-.06l.028-.131s.067-.032.103-.036c.036-.004.044.04.04.052-.004.012-.108.063-.024.119h.024c.087-.06.169-.127.243-.203l.067-.087.088-.115c.166.079.324.176.47.29zm60.791 10.742a.115.115 0 01-.052-.131.398.398 0 01.223-.2c.133.01.266.027.398.052.055 0 .19-.13.219-.15.028-.02.047.119-.036.33l-.183.102h-.032a1.528 1.528 0 01-.537-.004zm-55.446-9.868c.108.063.195.143.195.174a.302.302 0 01-.051.155l-.152.123c-.028 0-.167-.04-.223-.063-.055-.024-.19-.048-.179-.227l.167.06c.048 0 .092.052.136.068.043.015.048-.028.056-.048a.115.115 0 000-.084c-.04-.027-.1-.031-.136-.063a.124.124 0 010-.111c0-.028.076-.052.1-.036l.087.052zm62.569 9.117c-.179 0-.342-.076-.362-.179h.183a1.6 1.6 0 00.227.056c.072 0 .231-.207.275-.278.044-.072.115.174.143.19.028.016.088.095.04.12-.048.023-.207.123-.27.15l-.088-.027-.148-.032zM15.851 28.86a.27.27 0 01-.298.037l-.024.024c-.088.095-.104-.04-.155-.04-.08.006-.16.006-.24 0 0 0-.03-.048-.027-.068v-.027a.084.084 0 01.107 0c.032.027.184-.056.235-.08.124.163.203.056.29-.04h.084c.012 0 .056.092.044.12l-.016.075zm-5.595-10.785a.119.119 0 010-.198c.067-.064.174-.23.202-.171a.73.73 0 01-.032.44l-.11-.047-.06-.024zm65.84 6.023a.218.218 0 01.16-.219c.083 0 .186.195.119.191l-.028-.032c-.052-.055-.076-.044-.12 0-.043.044-.071.068 0 .127l.024.028a.12.12 0 01-.115.111l-.036-.023c-.047-.032-.111-.072-.028-.155l.024-.028zm-3.199 2.967c0-.06.023-.103.06-.095.055-.04.099-.127.155-.131h.083c.096.032.124.107.064.167-.06.06-.362.119-.362.06zm-2.898.163a.096.096 0 01.095.103c0 .064-.023.235-.06.23a.647.647 0 01-.198-.094c-.08-.048 0-.29.06-.259h.051l.052.02zm-5.671-14.301c-.103 0-.071-.08.075-.179l.163.048h.028c0 .067-.063.175-.17.238l-.02-.024-.076-.083z"/>
    <path d="M66.537 27.483a.82.82 0 01-.052.123s-.131 0-.254-.04l-.14.147-.063.063a.754.754 0 00-.263-.051c-.084 0-.37.186-.398.175v-.072c0-.075-.1-.091-.207-.036a2.098 2.098 0 01-.637-.051c-.131 0-.497.17-.573.163-.075-.008-.274-.116-.334-.128-.06-.011-.23.1-.275.12-.044.02-.147 0-.15.099-.005.1-.24-.06-.311-.056l-.052.036c-.123.091-.14.04-.18-.091l-.027-.096c-.076.12-.183.187-.23.147a.698.698 0 00-.399-.023l-.08.063-.071.06a2.175 2.175 0 01-.227-.052l-.02-.044c-.052-.055-.083-.13-.135-.19a.142.142 0 00-.08.139c0 .051-.147.139-.262.17l-.096-.09-.024-.02a.27.27 0 00-.31 0l-.064.043-.04.024a.094.094 0 01-.067-.03.092.092 0 01-.024-.07v-.095c0-.032-.032-.06-.084-.055v.023c-.04.052-.056.123-.091.18l-.048.067a.398.398 0 00-.195-.036.546.546 0 01-.398-.163l-.203.155a.148.148 0 01-.131 0l-.084-.167a1.521 1.521 0 00-.267.207c-.031.047-.159.13-.187.063-.027-.067-.163-.21-.23-.135l-.068.02-.115.036-.291.02-.23.067c-.092.028-.423-.13-.454-.075l-.04.031-.04.028c-.056 0-.08 0-.052-.063v-.036c0-.036-.048-.067-.08-.095l-.107-.072c-.01.075-.03.148-.056.219a.398.398 0 01-.33.095l-.123-.032h-.028c-.024-.044-.036-.075-.024-.075a.583.583 0 00.087-.21c.036-.112.355-.072.399-.088v-.048a1.193 1.193 0 00-.303-.254l-.183.1-.08.043c-.095.028-.095.083 0 .123.096.04-.02.373-.111.421h-.115a1.271 1.271 0 00-.633.052.26.26 0 01-.235-.064l-.056-.055c-.028-.112-.071-.151-.103-.088-.032.064-.187.227-.279.215-.091-.012-.398.024-.45.143l-.08-.076v-.02a2.451 2.451 0 01-.122-.19l-.1.071-.028.024a.171.171 0 01-.131-.107c0-.048-.06-.179-.084-.1v.128c-.04.087-.091.071-.155.023-.163-.115-.04.112-.115.116h-.048a.439.439 0 01-.27 0l-.08.083c-.024.024-.096.044-.108.028l-.179-.227c-.111.18-.27.259-.35.175-.08-.083-.43 0-.49-.044-.06-.043-.338.088-.473.076l-.116.075a2.657 2.657 0 00-.286-.099l-.195.04-.14.028c-.02-.108-.087-.151-.15-.096-.064.056-.303 0-.335 0-.09.03-.176.069-.259.116l-.107-.032-.123-.036a.498.498 0 01-.295 0 .092.092 0 00-.123 0c-.04.044-.22.17-.251.123a.62.62 0 00-.199-.183.862.862 0 00-.426.076c-.164.03-.333.03-.497 0-.064 0-.259.071-.31.04a1.14 1.14 0 00-.247-.1l-.096.096c-.127 0-.259-.024-.294-.024-.036 0-.192.044-.283.055-.092.012-.29 0-.306.131l-.176-.134-.032-.024a.64.64 0 00-.218-.024c-.08 0-.363-.032-.446.024a1.467 1.467 0 01-.43.119l-.032-.028c-.075-.06-.123-.143-.239-.131h-.099a.477.477 0 01-.16.163h-.149c-.12.035-.295.095-.398.13l-.068-.13c-.068-.135-.187-.143-.302-.048l-.585.091h-.164a2.224 2.224 0 00-.438 0c-.06 0-.206-.11-.214-.051-.008.06-.076.111-.132 0-.055-.111-.438 0-.569 0a2.487 2.487 0 00-.541.111l-.219-.195a2.92 2.92 0 01-.557.036c-.076.095-.143.155-.283.076l-.063-.036a2.726 2.726 0 01-.422.131h-.243a.798.798 0 01-.334-.087c-.032-.032-.124-.092-.136-.06a.342.342 0 01-.187.135.974.974 0 01-.398 0v-.21a4.024 4.024 0 00-.398.119l-.107-.076a.2.2 0 00-.199 0c-.091.096-.195.068-.298.084h-.096l-.29.099c-.048.02-.203-.095-.287-.08-.132.024-.264.04-.398.048-.048 0-.155.064-.18.036a4.89 4.89 0 00-.397-.306v.322a.215.215 0 01-.131 0l-.231-.1a3.155 3.155 0 01-.617.108h-.227c-.024-.096-.243-.123-.485-.06h-.223c-.056 0-.048-.119.02-.163h.031c.052 0 .056-.04 0-.063-.055-.024-.175-.032-.175.043 0 .076-.071.318-.159.334-.087.016-.398-.095-.485-.075h-.116a.657.657 0 01-.306-.052l-.151-.083c-.137.056-.27.12-.398.194-.064.04-.172-.167-.184-.167a.49.49 0 00-.135.088l-.02-.1c-.103-.095-.163-.087-.175.08v.04a.115.115 0 01-.147-.002.114.114 0 01-.032-.042c-.04-.072-.27-.028-.398 0a3.17 3.17 0 01-.55.032l-.023.075s-.111.036-.131 0c-.02-.036 0-.198-.14-.139l-.043.028c0 .12-.144.155-.283.08l-.131-.072a1.176 1.176 0 00-.37.048c-.088.091-.172.182-.203-.04l-.155-.048c-.06 0-.235-.047-.255 0a1.66 1.66 0 00-.092.143.47.47 0 01-.187.104c-.08.02-.306-.068-.318-.044a.187.187 0 01-.183 0c-.044-.048-.22-.167-.259-.131-.04.035-.167.107-.199.08-.032-.029-.131-.088-.14-.04a.072.072 0 01-.134.027h-.176c-.04-.095-.107-.123-.15-.055-.045.067-.176.222-.188.186-.012-.035-.08-.095-.127-.071-.048.024-.195.08-.203.047v-.031c-.028-.104-.128-.104-.14-.044-.04.199-.143.19-.258.107l-.092-.067-.354.135-.084-.107a.194.194 0 00-.233-.095.195.195 0 00-.077.047s-.056 0-.072-.032l-.095-.123c-.04.052-.096.135-.131.187h-.16a3.482 3.482 0 00-.302-.04l-.183.06c-.06 0-.283-.143-.354-.096-.072.048-.287.108-.319 0-.032-.107-.314.072-.442.084-.127.012-.453-.092-.457-.04-.004.052-.056.179-.084.135v-.052c0-.027-.1-.06-.203-.067-.103-.008-.318-.127-.266-.179.051-.052.74-.067.88-.1.139-.031.13-.134.043-.099l-.091-.04a.948.948 0 01-.195.152c-.08.047-.195-.23-.231-.243-.036-.012-.076.096-.076.143v.04c-.04.159-.032.127.06.163l.115.048a1.12 1.12 0 00.223-.096h.02l.107-.071a.527.527 0 01-.43-.072.705.705 0 00-.441-.083c-.068.024-.319-.036-.398 0-.08.036-.056.198-.036.238.02.04.115.135.167.135.052 0 .127.036.056.076-.103.06-.2.13-.287.21 0 .032-.159 0-.183 0a2.572 2.572 0 01-.163-.214 3.065 3.065 0 00-.318-.235c0-.027-.052.1-.04.151h.024l.091.048c.1.04.155.12.128.183v.024c.035.055.051.123-.024.09l-.124-.047a2.365 2.365 0 01-.398-.095 1.592 1.592 0 00-.493.103c-.048.024-.16.048-.23.08l-.069-.028h-.04l-.043-.056c-.048-.063-.116-.083-.151-.04-.036.044-.168.04-.231 0-.064-.04-.303.04-.398 0l-.08-.067s.032-.076.04-.12v-.126c0-.044-.04 0-.072.063-.031.064-.23.147-.222.171a.095.095 0 01-.088.1 2.65 2.65 0 01-.458-.16c-.111-.051-.441.06-.465.052-.024-.008-.076-.048-.064-.071a.634.634 0 01.127-.128c.04-.031-.063-.305-.234-.337l-.068.175-.056.135c.1.182.088.345-.028.37l-.032-.033c-.067-.063-.087-.186-.206-.198v-.028c-.024-.199-.024-.195-.203-.223h-.092c-.12-.047-.219 0-.219.08s-.04.306-.091.314l-.072-.072c-.068-.083-.068-.167 0-.183.068-.015.052-.238 0-.246-.052-.008-.203.131-.23.104-.029-.028-.108-.104-.136-.1h-.02c-.034.037-.07.07-.107.103-.036.032-.191-.13-.223-.079-.032.052-.148.143-.203.111a.53.53 0 00-.275-.06c-.04 0-.135.116-.147.06-.012-.055-.08-.19-.128-.183h-.027l-.203.12c-.183-.112-.354-.223-.398-.243-.044-.02-.116-.063-.124-.051a.788.788 0 00-.043.166c0 .064-.191 0-.24 0-.047 0-.17 0-.174-.051-.004-.052-.171.024-.223.075-.052.052-.287.088-.319.123l-.035.032c0 .02-.06.048-.064.04l-.195-.214c-.02.182-.116.31-.211.278-.095-.032-.235-.31-.243-.27a.795.795 0 01-.06.15 1.717 1.717 0 01-.198-.218c0-.024.035-.095.043-.143v-.052a.127.127 0 00-.095-.111v.024c-.123.127-.18.083-.207-.076-.072 0-.131.044-.135.088-.004.044 0 .143.04.15.04.009-.024.16-.084.175-.06.016-.18-.186-.2-.301v-.108c0-.043.076-.11.112-.107h.167c.18.032.323 0 .315-.06-.008-.06-.275-.099-.315-.17a.934.934 0 01-.055-.247.602.602 0 01.095-.29l.052-.06c.064-.075.135-.146.203-.218v.155c0 .088.123.318.175.274.052-.043.195-.194.16-.242l-.025-.028-.031-.032c-.044-.027-.056-.071-.032-.091.024-.02.063-.107.031-.143-.031-.036-.573-.131-.533-.147.04-.016.072-.06 0-.056-.071.004-.147-.206-.175-.202-.028.004-.084.032-.076.055.008.024 0 .068-.06.052h-.047c-.151-.103-.223-.19-.16-.198.064-.008.255-.076.255-.132a.738.738 0 00-.123-.254.4.4 0 00-.31-.083.233.233 0 01-.2.035c-.063-.031-.218-.051-.17.036.047.088-.171.398-.259.54h-.239c-.044.108-.083.151-.087.104-.004-.048-.056-.19-.088-.14-.032.052-.16.116-.227.052-.067-.063-.31-.206-.398-.178-.087.027-.286.198-.442.143l-.143-.044s0 .048-.032.067c-.031.02-.067.092-.1.092H8.56a1.42 1.42 0 01.1-.25.333.333 0 00-.16-.362l-.087.246c-.02.06-.123.092-.195.112-.071.02-.091-.04-.103-.076-.012-.036-.02-.115-.088-.048-.068.068-.123.072-.159 0a.294.294 0 01-.04-.202 1.84 1.84 0 01.167-.278l.056-.092a.616.616 0 00-.279-.262 1.397 1.397 0 00-.398-.071 1.218 1.218 0 01-.453-.326c-.052-.088-.307-.135-.323-.159a1.61 1.61 0 010-.37l-.095-.146-.032-.052a.194.194 0 01.108-.215l.055-.067c.092-.111.084-.12.151-.06l.032.032.112.088c.051-.116.115-.144.143-.064.028.08.298.1.374.083.076-.016.283-.11.183-.15-.1-.04-.282-.183-.247-.259l-.075-.047-.128-.084c-.087.131-.163.215-.167.187a.227.227 0 00-.131-.104c-.056 0 0-.226.103-.25l.052-.063.052-.072c.048-.127.056-.246 0-.266-.056-.02-.048-.159.048-.27.11-.12.204-.253.278-.397-.032 0-.091-.096-.051-.155h.107a.338.338 0 00.175-.23l-.08-.084a1.86 1.86 0 01.132-.533l.083-.063a.397.397 0 00.164-.223c.04-.102.086-.201.139-.297l.036-.052.083-.12a1.25 1.25 0 01-.103-.44l.02-.111.032-.16c-.108 0-.156-.075-.1-.13a.942.942 0 01.378-.203h.235c.078-.083.165-.158.259-.223.083.16.167-.071.262 0a.79.79 0 00.283.124.139.139 0 01.215-.084c.075.052.298-.091.318-.095.064.08.163 0 .207.032l.12.087a.398.398 0 01.397 0l.112-.111c.135.039.268.085.398.139l.159-.131h.024c.066.01.133.01.199 0a.93.93 0 01.314.087.45.45 0 00.263-.048c.052-.04.326 0 .438 0h.107a.21.21 0 01.151.028l.076.076a2.97 2.97 0 01.342-.151l.104-.044c.031 0 .047-.052.071-.08l.06-.07c.028.075.08.122.12.106a.555.555 0 00.143-.353v-.167c.156.006.313-.01.465-.048l-.028.028-.194.195c0-.171-.04-.298-.096-.278-.056.02-.06.202-.056.27a.751.751 0 00.116.29c.024.024.163-.096.219-.16.055-.063-.267-.365-.518-.452l-.072.076-.08.083c-.07.143-.21.226-.31.187-.099-.04-.346-.183-.338-.084l-.02.064v.024c-.067 0-.119 0-.111-.036.008-.036 0-.103-.036-.111-.036-.008-.147-.052-.135-.088h.115c.1-.091.116-.187.036-.21l-.028.023-.111.108a1.372 1.372 0 01-.37-.056c-.068-.028-.231.115-.263.127l-.072-.043a.31.31 0 00-.262-.032l-.072-.072h-.163c-.032 0-.06-.035-.06-.083v-.103a.754.754 0 01.108-.298h.254c.187 0 .163-.131-.047-.29h-.315a.442.442 0 01-.199.163l-.024-.02-.087-.108a.73.73 0 00-.088-.35h-.06c-.023 0-.047.068-.043.1v.028a.246.246 0 00.19 0l.084.028c.052 0 .112-.064.227-.028l.151.052c.189-.045.36-.143.494-.283l-.092-.11-.024-.029c-.047 0-.203.08-.342.219l-.19-.087-.315-.223-.14.183a.46.46 0 01.056.373c-.044.072-.203.21-.294.096l-.04-.084a.206.206 0 01.024-.143l.032-.052c.035-.202 0-.35-.116-.33-.115.02-.255-.261-.21-.301.043-.04.174-.199.09-.179-.083.02-.887.151-1.01.215-.123.063.04.103.207.071l.14-.075.043-.02c.052 0 .088 0 .08.024a.139.139 0 00.063.127c.056-.072.1-.155.152-.23l.04-.056a.534.534 0 00-.232-.199c-.083-.032-.246.195-.27.219-.024.023-.1 0-.112-.143l-.155.079-.087.048c.213.031.423.08.628.147a.2.2 0 01.1.286 1.19 1.19 0 01-.155.178c-.024-.075-.024-.198-.068-.218l-.12-.064a.734.734 0 01-.059.27 2.127 2.127 0 01-.637-.107l-.23.143-.08.048a.286.286 0 00-.036-.21c-.032-.032-.155-.092-.163-.032a.175.175 0 01-.207.127c-.1-.036 0-.35-.068-.397a.645.645 0 00-.565.035l-.207.084h-.024c-.067-.092-.139-.151-.159-.131a.632.632 0 00-.083.103l.083.063c.077.06.167.098.263.112h.135c.183.119.16-.024.163-.143v-.028c.02-.024.036 0 .04.063.004.064.183.096.207.135v.032c0 .028-.06.068-.08.06-.103-.044-.195.139-.31 0-.12.087-.23.111-.247.052l-.044-.036h-.02a3.171 3.171 0 00-.206.13c-.052.037-.231.108-.255.049-.024-.06-.096-.227-.112-.215h-.027l-.156.052a.877.877 0 01-.481.04c0-.152-.072-.318.071-.45 0 0 0-.087-.031-.107-.032-.02-.092 0-.104 0-.04.07-.078.141-.111.215l-.02.04c-.032.04-.072.031-.084 0a.485.485 0 00-.127-.211c-.036-.02-.16 0-.187-.02-.028-.02-.131-.095-.14-.067-.007.027-.067.083-.095.035a.187.187 0 00-.283 0l-.091.076c-.056-.068-.084-.151-.052-.183.032-.032.084-.143.036-.151-.048-.008-.175-.075-.155-.123.02-.048.024-.215-.036-.223-.06-.008-.123-.119.032-.214l.123-.084a.29.29 0 00.104-.127.214.214 0 000-.166.16.16 0 00-.148-.032l-.083.036a.559.559 0 01-.052.25H4.66c-.1.051-.398-.092-.398-.199v-.032c.048-.043.14-.115.203-.166.08-.078.152-.165.211-.259 0 0 .056 0 .104.068h.095c.076-.068.104-.151.064-.183a.988.988 0 01-.18-.516v-.453c.172-.135.32-.215.327-.167.008.048.06.127.104.091.043-.036.02-.242.06-.25.04-.008.147-.095.09-.175h-.039c-.072 0-.14.064-.215.076-.075.012-.151.043-.151-.076s0-.159.056-.175l.127-.055c.131-.028.227.087.219.262l.195-.048.159-.035c-.068-.155-.06-.29 0-.294.06-.004.279 0 .287.067.008.068.063.127.111.064.048-.064.199-.227.207-.171.008.056.068.187.103.139a.621.621 0 01.422-.155l.108-.072.115-.075c.143.01.287.01.43 0h.151a.738.738 0 01.31 0c.173-.008.344-.025.514-.052.08.024.163.04.247.048.071 0 .258 0 .314.032.056.032.29-.147.398-.203l.02.207v.067l.235-.123c.052-.024.143-.115.175-.06.032.056.27 0 .338-.023a.96.96 0 01.31.051c.04 0 .16-.087.184-.115.024-.028.15.024.183.04a.602.602 0 00.318-.083c.108-.06.49.107.605.119.116.012.398-.183.466-.191.067-.008.242 0 .318-.072l.14.12c.055.047.202-.032.31-.032.107 0 .175.043.262.047a.7.7 0 00.2-.051l.15-.052v.076c0-.08.24 0 .331-.028h.08l.326.036c.366.024.768.035.895.027.171-.028.339-.072.502-.13.09-.029.181-.049.274-.06l.032.043c.108.132.223 0 .29.032l.124.072c.117-.019.237-.019.354 0 .169-.037.335-.083.498-.14l.151.096.084.052a.73.73 0 01.35-.032c.052.024.17-.048.199 0 .028.048.155.123.219.083a1.51 1.51 0 01.354-.15.73.73 0 01.278.059c.052.032.335-.08.502-.123.167-.044.64.071.676.032.036-.04.191.06.231.071.04.012.14-.028.155 0 .016.028.072.087.088.052a.151.151 0 01.195-.032c.076.052.342-.087.398-.095l.04.027a.29.29 0 00.398 0c.12-.087.242.128.322.064a.322.322 0 01.334-.064.179.179 0 00.183 0c.044 0 .156.056.16.044.06-.123.131.052.179 0 .047-.051.067-.032.12 0l.099.076.605-.104c.203-.031.91 0 .998-.027h.31a1.4 1.4 0 00.57-.068c.056-.048.362.036.486.064h.561c.032.075.067.135.083.13a.354.354 0 00.132-.059c.04-.032.17-.12.215-.083.043.035.334-.06.537-.052s.796.08.88.091c.083.012.302-.067.357 0 .056.068.315-.063.398-.071l.43-.044c.092 0 .358.091.426.068a.989.989 0 01.374 0c.171.009.342.009.514 0l.13.043.104.032c.228-.065.464-.1.7-.103.364 0 .726-.02 1.087-.06l.052.227c.111 0 .191-.032.175-.06-.016-.028 0-.123.068-.119a1.84 1.84 0 00.434-.083l.115.071.068.036c.04.055.103.107.139.107.032-.032.056-.12.072-.115l.326.063c.358-.079.652-.099.66-.043.008.055.084.186.16.147h.063c.136 0 .084-.127.14-.16.055-.031.13 0 .195-.023.063-.024.143-.056.218-.068h.044c.073.03.147.056.223.076a.657.657 0 00.299-.052c.043-.02.246.028.31 0s.398-.04.573-.095l.167.139a.199.199 0 00.195 0l.136-.115c.14.055.283.098.43.13v-.027c.083-.19.198.06.294-.032l.095-.087c.138.082.287.144.442.183l.131-.104.092-.071a.317.317 0 00.314.159l.032-.052c.068-.123.124.056.18 0a.566.566 0 01.322.012c.275-.003.549-.028.82-.075.083.09.19.139.278.051.088-.087.135.095.239.044l.084-.036c.183.06.378.073.569.04h.175c.107 0 .278-.028.306.028l.08.147a.458.458 0 01.195-.108c.08-.005.159-.005.239 0h.075c.072 0 .14-.055.215-.075.026.057.06.109.104.155.035.028.119-.1.147-.163h.179c.111 0 .302 0 .426-.032h.235c.13 0 .246.024.254.076a.904.904 0 00.04.17.143.143 0 00.04-.087c0-.052.083-.183.139-.17l.02.027c.111.151.107.155.259 0 .1-.032.205-.05.31-.056.155 0 .561.151.609.12.048-.032.135.035.092.083-.044.048-.124.183-.044.155a.887.887 0 00.298-.25h.028c.06 0 .12.051.18.055.059.004.107-.051.162-.055a.295.295 0 01.195 0l.191.103a3.3 3.3 0 01.502-.115h.056a.75.75 0 00.398.06l.178-.08c.164.091.319.12.343.067.216-.029.436-.029.653 0h.397a2.16 2.16 0 00.605-.063l.148.06c.123.04.244.09.362.146a.18.18 0 00.131 0c.024-.17.088-.198.203-.071.106-.02.21-.05.31-.087l.12.04c.147.043.262.095.398-.025.036-.031.127 0 .19 0h.049a.208.208 0 00.195-.031c.06-.044.318.031.398.04.175.02.353.02.529 0l.111.13s.032-.027.056-.031l.338-.076c.18.056.355.1.398.103.044.005.27-.023.494-.023l.203-.036h.02c.04.095.083.12.095.06.012-.06.354-.1.561-.136l.163.155a.847.847 0 01.303-.055l.103.043c.088.036.16-.182.275-.031.02.023.092 0 .135 0 .044 0 .06-.024.088-.02h.048a.57.57 0 00.282-.04l.064.103c.087.147.155-.091.262 0 .108.092.052.227.116.302a.191.191 0 00.187 0l.096-.055c.095-.092.155-.171.127-.183-.028-.012 0-.06.103-.088l.104.024c.06 0 .123.056.183.052h.187c.111.143.203.219.203.163 0-.056.091-.262.199-.258.107.004.358.175.37.15v-.023l.028-.036a.399.399 0 01.294.115c.167.021.329.067.482.135.036.04.151.044.155 0 .004-.043.167-.06.175-.055a.82.82 0 01.048.25l.171-.131a.797.797 0 01.279-.12h.051a.16.16 0 01.148.152v.067c0 .076 0 .155.1.143.099-.012.05-.111.067-.17v-.028c0-.052.056-.06.083 0a.115.115 0 00.2 0l.04-.064a.127.127 0 01.087-.06h.028a.77.77 0 01.075.195c0 .072.18.103.143.08-.035-.024 0-.195.176-.334l.143.175.06.067c.071-.04.14-.086.207-.135.055-.04.342.103.37.115h.043c.028 0 .04-.043.028-.06-.012-.015.092-.114.27-.158l.096.063.148.092c.143-.032.246-.028.23 0 .026.158.112.3.24.397l.222-.155.135-.095c.223.083.359.15.295.143l-.064.178-.29-.079s-.036.14.111.123l.084.064.179.143c.052-.14.103-.23.107-.199.004.032.056.115.1.127.044.012.143-.099.155-.127.054-.077.115-.149.183-.214.068-.072.175-.398.187-.334.012.064.076.226.123.222.08.005.159.018.235.04.036.02.12-.024.072-.051a.686.686 0 01-.171-.167v-.024s.04-.04.052-.036l.083.032c.108.044.199.127.199.179 0 .051.04.198.088.178.047-.02.091-.226.107-.282.016-.055.207-.031.227-.024a.333.333 0 010 .279c-.056.13-.08.397 0 .262s.334-.397.398-.37c.064.028.171-.103.195-.159.024-.055.227-.071.258 0 .032.072-.23.191-.298.223a1.303 1.303 0 00-.287.163.473.473 0 00-.023.186h.107l.056-.075c.052-.087.111-.159.127-.155a.148.148 0 01.08.103.99.99 0 00.111.239c.032.043.12.143.14.127.072-.06.136-.127.19-.203h-.227a1.871 1.871 0 01-.119-.242.139.139 0 01.116-.095h.11a.887.887 0 00.135-.064s.104.048.136 0c.032-.048.131-.052.159 0 .028.052.183.214.27.139l.056-.056.064-.055c.08.067.165.128.255.183l.055.095.056.095.25-.159.029-.04.047-.079a.199.199 0 01.251-.12c.092.037.247.196.307.215.06.02.199.036.175-.047v-.028c.04-.044.115-.06.163-.1-.024-.059-.024-.118 0-.13.024-.012.1.035.127.095a.513.513 0 00.398.195v-.25c0-.072.191-.104.227-.037.036.068.024.132-.076.147-.027 0-.08.092-.067.116l.04.099a.266.266 0 01.25-.091c.104 0 .398-.108.398-.084h.036c.044 0 .108.028.135 0l.128-.091c.131.056.258.103.286.111.088.01.176.01.263 0l.084.08.027.023a.087.087 0 00.103-.025.087.087 0 00.017-.034c0-.056.135-.235.243-.239.132.01.265.01.397 0v-.05c0-.032.044-.032.052 0v.024l.036.06c.036.055.155.039.263-.033l.1.116c.07-.076.162-.12.202-.1.04.02.227 0 .303 0 .075 0 .326-.087.398-.107.071-.02.266.06.354 0l.103.111.076.084c.134-.058.276-.093.422-.104l.091-.06.092-.055c.104.054.2.123.282.207l.076-.123c.068-.104.131.051.195.051s.18-.095.207-.071a.399.399 0 00.342.075c.14 0 .299.068.418-.075a.896.896 0 01.18.063.797.797 0 00.596-.02h.108c.225.045.446.11.66.195.048 0 .068.111.108.167.04.056.051.064.08.064.027 0 .11-.052.154-.04h.032a.31.31 0 00.171.183c.123.012.247.004.367-.024l.051.043a.694.694 0 00.474.116c.02 0 .063.091.056.103-.048.071-.14.12.031.143.08 0 .072.103 0 .163l-.031.032a.17.17 0 000 .159c.02.051-.096.127-.136.083-.04-.044-.207.024-.25 0l-.024-.048v-.13a.139.139 0 00-.076-.068h-.02a.896.896 0 00-.267.568c.028.067.275 0 .343.031v.04l.024.111c.055.104.123.143.15.092.029-.052.064-.278.136-.195.128.09.261.174.398.25.044.048-.083.219-.14.167-.055-.051-.238-.17-.266-.147-.05.078-.093.16-.127.247l-.108-.084c-.031-.024-.119-.028-.13 0-.013.028-.033.111.059.151l.067.032c.06.111.06.234 0 .278l-.035.052-.02.035c.011.055.04.105.08.143.107.074.225.13.35.167l.031-.139.052-.218c.147.055.23.119.187.139-.044.02-.123.083-.107.103l.17.187.065.06.051.055a.312.312 0 01.255.04h.072c.08.01.162.01.242 0 .133.013.266.013.398 0 .128-.024.227.08.355.047.067 0 .159.04.222.084l.092.06c.148.005.296.02.442.047.135.028.585.278.744.338l.147.04.1.027c.11.01.22.032.326.064l.064.04.25.166c-.043.18-.1.398-.127.485l.187-.04c.092 0 .14.036.12.135v.068a.274.274 0 00.02.195c.027.035.095.154.059.178a1.246 1.246 0 00-.219.21l.1.04c.087.032.123.08.083.144l-.075.11c.125.18.21.385.25.6l.152.215.04.052c-.064.147-.076.27-.032.278.043.008.107.075.051.135-.056.06 0 .274-.04.286a.258.258 0 00-.119.246l.028.1a.928.928 0 01.075.31.552.552 0 01-.159.274c-.051.047-.179.023-.207.075l-.051.104c-.08 0-.18-.028-.223-.032-.044-.004-.247.238-.29.218-.044-.02-.28.08-.367.084l-.08.035c-.063.028-.183-.071-.234-.04a.147.147 0 01-.207 0 .244.244 0 00-.215 0l-.18.104c.02-.12-.107-.08-.278.083l-.25-.051h-.04a.171.171 0 01-.16.035.46.46 0 00-.398.132l-.206-.124c-.064-.035-.231.076-.267.036l-.111-.131a3.17 3.17 0 01-.347.246l-.087.024a.726.726 0 01-.307 0 .515.515 0 00-.45.028l-.119.08c-.159 0-.306 0-.322-.048v-.028l-.036-.056c-.048-.06-.123-.035-.175.06-.052.095-.398 0-.514 0a3.928 3.928 0 00-.54.179h-.08a.746.746 0 00-.366.04c-.036 0-.072.047-.104.043h-.064c-.08.043-.164.078-.25.107l-.068-.02h-.056c-.051-.075-.091-.047-.087.064l-.16-.032c-.095-.02-.218-.051-.302.056h-.056c0-.076 0-.163-.103-.131-.104.032-.052.127-.1.15a.798.798 0 01-.326.1h-.127a.884.884 0 00-.37 0 1.02 1.02 0 01-.319.056.797.797 0 00-.246 0c0 .024-.108.087-.116.06a.124.124 0 00-.143-.068c-.06.032-.255.087-.29.055-.037-.031-.184-.13-.22-.103-.058.06-.108.127-.15.199-.04.06-.236.027-.303.055h-.132a1.827 1.827 0 01-.398-.047h-.1a.136.136 0 00-.087.02l-.222.15c-.132-.11-.243-.162-.251-.115-.008.048-.076.163-.132.131h-.091a.398.398 0 00-.211.147h-.147a.202.202 0 000 .23h.056c.091.033.087-.059.107-.126.02-.068.091-.032.143-.04.052-.008.243-.095.319-.052.075.044.234.036.35.048.115.012.246 0 .366 0 .123.008.247.008.37 0 .171-.024.23.127.322.222l.104.112c.105 0 .21-.014.31-.044a1.03 1.03 0 01.2-.04c.043 0 .19.108.238.143.048.036.227.111.259.068l.024-.052c.035-.075.031-.075-.088-.08a.117.117 0 01-.056 0c0-.039 0-.11.02-.114.08 0 .2-.096.215.067v.083c0 .1-.04.203-.048.227-.008.024 0 .083.032.075h.028l.112-.027.147-.036a.21.21 0 01.067-.286c.096-.056.398-.056.398 0v.099c-.023.064 0 .115.028.111a.211.211 0 01.136.223h.031l.279.115c-.056.246-.171.433-.255.397l-.063-.028a1.658 1.658 0 00-.172-.079.124.124 0 00-.107.028l-.072.055a.474.474 0 00-.266.131v.112a.478.478 0 00.25.103l.048-.036c.044-.027 0-.163.104-.13l.071.023c.072.072.151.076.183 0 .032-.075.203 0 .195.032-.008.032 0 .095.028.095s.155-.032.163-.071c.008-.04.048-.155.08-.151 0 .04 0 .087.032.119l.083.119h.295a.345.345 0 01-.052.33l-.151-.096-.115-.075c-.128 0-.235.071-.24.147-.003.075 0 .286.06.286s.152-.032.116-.075v-.072c0-.06.08-.087.151-.06.072.028.195.12.111.155v.04c.01.066.042.127.092.17 0 0 .076-.055.115-.05.045.012.083.04.108.079l-.056.091-.278-.06c-.14-.027-.502.116-.538.084h-.032a.267.267 0 00-.115.067v.083c.024 0 0 .055-.024.075-.024.02-.167.056-.195.028-.028-.028-.131-.083-.159-.055a.128.128 0 01-.183-.036c-.044-.08-.16-.29-.167-.29a.968.968 0 00.02.294v.171a.127.127 0 01-.148 0v-.036l-.031-.084c-.032-.123-.104-.095-.16.06l-.071.075-.088.088c-.043.115-.091.186-.107.159a.358.358 0 00-.207-.12l-.068-.04-.067-.035c-.1 0-.183 0-.183.064 0 .063-.028.163-.064.139h-.032a.625.625 0 00-.239-.104c-.04 0-.08.151-.123.151h-.084a.717.717 0 01-.219-.035.115.115 0 00-.098.032.116.116 0 00-.033.099v.169c-.036.096-.207.116-.378.044l-.199.199c-.12.119-.219.326-.426.123-.087.091-.199.115-.247.06l-.055-.044h-.215c-.112.033-.22.074-.327.123a3.22 3.22 0 01-.45.044c-.09 0-.31.15-.361.095-.052-.055-.171-.218-.164-.262.008-.044 0-.183-.091-.179h-.199a2.05 2.05 0 00-.219.314c-.048.083-.207.294-.243.258h-.028l-.143-.087a.529.529 0 01.127-.255v-.091c0-.055-.051-.1-.08-.091-.094.07-.185.147-.27.23l-.147-.071-.044-.02c-.04-.032-.111.024-.151.115-.04.091-.21.326-.27.274h-.056l-.1-.032a1.42 1.42 0 00-.247-.15c-.047 0-.043-.2-.067-.231-.024-.032-.1-.04-.116-.08s-.131 0-.147.084c-.016.083-.215.048-.259.036-.043-.012-.207.075-.354.035l-.14-.02h-.13c-.144-.04-.283 0-.31.044-.029.044.05.207.035.267zM9.062 25.576a.222.222 0 00.095.31h.096l.143.031c.163 0 .247 0 .191-.075-.056-.076-.457-.382-.525-.266zm-1.449-1.149a.682.682 0 00.052.346h.418a.44.44 0 00.044-.445h-.032l-.092.024c-.091.068-.187.1-.21.072-.025-.028-.152-.024-.176.003h-.004zM6.61 14.81c-.04 0-.123.075-.183.19-.06.116.132.398.1.398v.091c.091.032.179.036.195 0 .016-.036-.04-.163-.064-.218-.024-.056 0-.21-.024-.27-.024-.06.016-.18-.02-.191H6.61zm66.697 10.07c0-.067.047-.095.103-.055.056.04 0-.135-.115-.127h-.116l-.223-.032c-.08.139-.087.238 0 .218.088-.02.263.032.275.08.01.053.028.105.052.155a1.08 1.08 0 00.023-.239zm-2.878 1.987c-.048.119.032.21.183.206l.092.123a.333.333 0 00.127-.174c0-.052-.175-.163-.23-.18 0-.134-.04-.162-.116-.05l-.056.075zm-57.933-.151c0 .075.024.1.044.047.02-.051.12-.119.18-.071.059.048.266.067.242.044-.024-.024-.036-.1 0-.128.036-.027.052-.11-.104-.06l-.067-.035-.1-.048c-.115 0-.199.163-.195.247v.004zM6.526 16.57a.073.073 0 00-.074-.02.071.071 0 00-.049.06c0 .063.092.266.116.321l.067-.071.128-.14c.086.027.174.045.262.056a.083.083 0 000-.075c-.071-.056-.15-.104-.222-.155H6.73c-.004-.06-.144.06-.195.02l-.008.004zm65.666 10.134c-.103-.036-.187-.04-.183 0a.9.9 0 01-.04.19c0 .052.04.108.104.048l.107.08c.096.071.128-.088.191-.135.064-.048.056-.116 0-.175-.055-.06-.075-.1-.15-.024l-.029.016zM14.303 17.98c.036-.04 0-.06-.08-.04-.079.02-.294-.159-.397-.155-.104.004-.116.239 0 .25.16.01.322-.01.477-.055zm19.87-4.974c.049.028.084 0 .084-.055 0-.056.024-.199.048-.195.024.004.12 0 .116-.056a1.03 1.03 0 000-.147c-.134.016-.267.04-.398.072v.163a.397.397 0 00.15.218zm-16.2 15.327c-.052-.056-.144-.024-.207.063v.072a.258.258 0 00.043.174c.036.068.092.096.163.036l.056-.047c.076-.044-.004-.247-.055-.298zm1.69 0c-.11.027-.186.103-.17.163a.324.324 0 00.254.123c.06-.04.028-.33-.083-.298v.012zM5.608 15.954c-.023.095.044.139.152.095l.083-.055c.068-.044.128-.104 0-.187l-.032-.02c.012-.091-.183.072-.203.167zm59.115 11.52c.096-.06.052-.143-.1-.19l-.107-.044c-.103-.044-.143.044-.195.1a.183.183 0 000 .115.82.82 0 00.335.063l.067-.044zm10.702-2.037a.135.135 0 00.107.11.47.47 0 00.22-.09.67.67 0 00.162-.31 1.11 1.11 0 00-.322.202l-.131.111-.036-.023zm-9.985 1.744c0-.06-.04-.076-.112-.04a.99.99 0 00-.266.214l.043.064c.036.048 0 .155.108.131h.095c.064-.11.108-.23.132-.354v-.015zm-28.814.873c-.087-.055-.091-.055 0 0 .092.056.255.25.279.187a.321.321 0 00-.131-.325l-.024.023-.124.116zm22.92-.69c0-.052-.056-.037-.112.039s-.075.314 0 .294a.932.932 0 00.263-.115s0-.072-.032-.068c-.032.004-.111-.091-.12-.135v-.016zm-10.746.5c.187.02.283-.056.215-.16l-.111.029a1.86 1.86 0 00-.314.119v.111c0 .036.055.036.063.028l.147-.127zm27.755-13.642a.761.761 0 00-.044.322l.112-.032c.035 0 .083-.12.103-.024.02.095.056.163.147.095a.992.992 0 00-.155-.27l-.072-.032-.091-.06zm-61.001 4.326c-.024.056.04.115.143.131l.06-.036.067-.04a.345.345 0 00.028-.273h-.091a.796.796 0 00-.207.218zM26.11 28.36c-.04.08 0 .112.064.068.063-.044.27 0 .302-.044v-.028c0-.063.044-.147-.06-.174h-.055c-.06-.048-.187.095-.251.178zm-12.007-1.787c.1.095.104.119 0 .051a.896.896 0 00-.398-.143c-.024 0 0 .143.151.21l.072-.035.175-.083zm10.08 1.617c-.075-.056-.135-.072-.135-.036a.788.788 0 01-.023.17.13.13 0 00.111.14c.072.004.107-.219.048-.274zm11.351-.028c.08 0 .064-.088-.032-.19l-.103-.04h-.028c-.116.123.068.23.143.23h.02zM65.1 14.09c.088 0 .136-.056.112-.123-.024-.068-.156-.195-.243-.16-.088.037.028.283.111.283h.02zm-51.605 2.975c0-.02 0-.071.068-.115.068-.044.06-.187 0-.147l-.064.036-.08.036c-.103.035-.139.115-.079.178l.052.056c.02 0 .04.052.06.052h.035a.075.075 0 00.008-.096zm1.194 1.335c-.103 0-.14.056-.075.107.063.052.29 0 .378 0 .087 0-.187-.115-.295-.107h-.008zm24.121 9.62c-.107-.115-.223-.048-.258.15l.183.092h.04c.087-.067.147-.143.13-.163l-.095-.08zm29.494-2.694a.087.087 0 000-.13 1.362 1.362 0 00-.282-.152l-.06-.004a.087.087 0 00-.056.052v.08l.092.075c.107.067.266.115.306.08zm5.572-.6a.302.302 0 00.421.096c-.175-.286-.175-.286-.421-.096z"/>
    <path d="M67.37 23.582c-.017.238-.06.394-.098.316l-.053-.04c-.045-.039-.133-.04-.17-.08l-.053-.05a.611.611 0 01-.024-.285l-.027-.062a.358.358 0 00-.174-.19l-.117-.045c-.006.087-.06.171-.093.18-.032.01-.1.07-.043.105.058.036.204.162.136.165-.068.003-.252.078-.257.15-.005.07-.066.258-.12.162-.052-.095-.164-.385-.125-.43a.737.737 0 00.128-.23.107.107 0 00-.128-.061l-.05.024-.002.044-.12.063a.567.567 0 01-.081.301c-.04.053.152.162.163.175a.195.195 0 01-.005.083l-.072-.005-.142-.133a.399.399 0 01-.444-.278l-.049-.159a.31.31 0 00-.13-.136l-.035-.003c-.06-.004-.098.021-.087.038.011.017.022.145.039.246.017.1-.028.396-.135.389-.107-.008-.452-.032-.442-.067a.43.43 0 01.146-.145c.054-.032-.093-.162-.138-.085a2.55 2.55 0 01-1.023-.2l-.076-.004c-.031.053-.009.126.076.164l.076.006c.03.009.06.02.09.034l.388.142c.21-.14.207-.328-.008-.399l.08-.225a.237.237 0 00-.086-.03c-.119-.008-.21.157-.363.003-.037-.039-.237.019-.355.05-.028-.001-.04.07-.043.11-.003.039.045.042.076.048.032.01.066.012.1.007l.234-.047c.15.205.33.386.533.539-.068.059-.175.103-.22.172l-.04.068c-.035.093-.064.111-.067.04a.584.584 0 00-.19-.356 1.1 1.1 0 00-.425-.03c-.084-.006-.341.084-.345.143-.004.06-.063.211-.117.191l-.04-.062a1.838 1.838 0 00-.321-.369l-.099.097-.12.123c-.11.037-.226.058-.343.063a1.061 1.061 0 00-.125-.096c-.052-.003-.207-.014-.16.06.047.076.024.226-.172.232l-.045.192s-.026.034-.034.03l-.024-.002-.287-.12.08-.126c.045-.064.111-.155.18-.162.137-.019.117-.088.118-.155l.003-.036a.152.152 0 00-.165-.044l-.046.03c-.033.02-.041.084-.074.09l-.04-.003c-.053-.028-.078-.081-.055-.12a.934.934 0 01.2-.232l.1.054c.027.002.103.007.15-.03.046-.036.004-.063.006-.09l-.05-.135c-.169-.056-.252-.121-.19-.149.062-.027.181-.139.046-.148-.135-.01-.425.03-.406.103.044.086.078.177.101.27a.095.095 0 01-.088-.05c-.021-.041-.139-.133-.186-.084a.827.827 0 00-.141.253c-.004.051.182.012.228.04l.026.037c.021.037.046.087.032.118a.168.168 0 01-.123.043c-.08-.006-.151-.066-.23-.084a.33.33 0 00-.173.02l-.006.091a.398.398 0 01-.237-.04.981.981 0 01-.163-.286c-.049-.107-.214-.374-.275-.358-.06.016-.24.027-.214-.015.027-.042-.038-.202-.21-.238l-.164.06-.14.05a2.071 2.071 0 00-.474-.008c-.06.015-.202.101-.129.138.073.037.014.196-.063.155a1.594 1.594 0 00-.528.079l.015.136c-.005.06-.044.168-.08.17-.115-.008-.2.077-.14.121l.103.071a.462.462 0 00.278.187c.083.006.136.165-.007.103l-.103-.007-.12-.009a.853.853 0 01-.273-.019 2.123 2.123 0 01-.03-.372 1.986 1.986 0 00-.354-.646c-.03-.038-.09-.15-.068-.172.021-.022.044-.116-.042-.086-.086.03-.33.052-.497.088-.166.037-.663-.213-.83-.22-.167-.008-.356.301-.416.241l-.048-.003-.078-.025c-.091-.007-.13-.07-.087-.118l.001-.024-.06-.104-.397-.027a.909.909 0 00-.493.14c-.098.09-.027.397.056.351.083-.046.346-.111.367-.07l-.02.293-.687-.047c-.127-.01-.42-.153-.38-.274l.173.152.026.025c.132-.054.214-.144.178-.206-.035-.063-.084-.221-.032-.226.052-.004.199-.042.189-.074l-.163-.011a2.36 2.36 0 01-.39-.135c-.047-.003-.127.059-.117.091.01.033-.073.13-.214.14-.14.011-.868-.183-.757-.012l-.044.184c-.003.036.112.1.181.14.04.003.071-.043.065-.067.001-.024-.052-.051-.047-.071.005-.02.03-.093.067-.099.046 0 .092.014.133.037l-.039.149c.14.01.218.075.18.104-.037.03-.116.127-.099.164.018.037.023.141-.033.141-.053-.043-.089-.105-.147-.13a.823.823 0 01-.468-.558.302.302 0 00-.319-.229l-.075-.005c-.096-.063-.207-.062-.25-.017-.043.044-.2.165-.255.101-.055-.063-.286-.239-.357-.2-.07.04-.24.17-.2.185.039.015.111.056.087.062a.351.351 0 00-.11.092.845.845 0 00-.053.24c-.005.079-.084.3-.162.323l-.06-.005-.035-.002c-.044-.003-.073-.045-.069-.104l.274-.03a1.921 1.921 0 01-.147-.408c.014-.132.038-.264.071-.393.006-.083-.015-.236-.053-.159l-.051-.003c-.143.037-.358.098-.43.045l-.213-.15c-.268.005-.495.057-.5.117.009.086.023.172.043.257l-.088-.006c-.024-.001-.066.032-.063.044.004.012.184.112-.008.123l-.143-.01a1.8 1.8 0 01.102-.264c.028-.054.015-.21-.129-.212-.143-.002-.338-.235-.357-.256l-.187.047a2.734 2.734 0 01-.64-.196l-.161.08c-.133.067-.222-.083-.247-.065-.114.084-.27.097-.333.029l-.097-.106a.978.978 0 01-.511.012l-.183-.013-.198-.014c-.112-.051-.148.058-.073.242.075.185.055.7.15.711.095.011.319-.165.366-.213l.04.003c.142.01.088.11.076.168l-.003.032c-.055.052-.059.107-.008.119.051.011.194.077.113.103-.082.027-.297.024-.34-.055l-.044-.055a.212.212 0 00-.137.026c-.043.037.184.1-.01.135l-.12.02a.214.214 0 00-.108-.18c-.047-.003-.178.04-.154.153.024.113-.339.056-.274-.134l-.323-.063c-.043-.003.094-.196.206-.196l.138.01c.167.011.267-.05.23-.148-.037-.098-.27-.258-.195-.284.073-.027.113-.26.118-.33.005-.072-.086-.253-.205-.266l-.01.159a.123.123 0 01-.168-.012l-.045-.03-.042-.032a.474.474 0 00-.236-.044 2.585 2.585 0 00-.411.17l-.052-.166c-.033-.102-.224-.108-.304.006-.08.114-.177.08-.262-.018l-.067-.064a.622.622 0 00-.314-.022.682.682 0 01-.482-.121l-.28.056-.307.058c.019.197-.023.333-.064.298-.042-.034-.158-.138-.114-.147.045-.009.105-.072.049-.124-.056-.052-.513.036-.68-.023l-.054-.04-.241-.196c-.135.158-.25.146-.255-.018l-.294.167-.108.06a2.421 2.421 0 01-.434-.13c-.028-.001-.15.098-.234.147l-.102-.078c-.045-.035-.057-.156-.183-.069l-.079.05c.036.059.04.127.014.149-.026.022-.125.067-.142.03l.002-.028c-.038-.09.145-.257-.113-.267l-.183-.012c-.01.138-.017.241-.091.22l-.045-.035a1.338 1.338 0 00-.626-.123l-.206.037c-.226.04-.425.03-.445-.03l.002-.024.017-.254c-.21.041-.08.19-.123.282l-.003.04c-.004.055-.053.08-.111.056-.059-.024-.168-.115-.142-.145a.166.166 0 00-.08-.185.168.168 0 00-.07-.021l-.085.026-.232.067a2.474 2.474 0 00-.555-.098l.067.068s.024.058.015.061a.371.371 0 01-.096.013l-.171-.012a1.993 1.993 0 00-.608-.09l-.15.022-.047-.004a.076.076 0 00-.017.109c.008.01.02.019.032.024l.045.035c.03.038-.083.11-.25.162l-.037-.218c.004-.055-.14-.101-.225-.143l-.08.05-.046.029a.108.108 0 01-.148-.038l.003-.044c-.027-.074.083-.173-.077-.224-.071-.005-.142-.078-.202-.07a.661.661 0 00-.247.11l-.068.051c-.065.083-.128.119-.141.082-.013-.037-.166-.071-.314-.022-.147.05-.612-.086-.671-.094-.06-.009-.208-.055-.205-.102.004-.048.076-.166.151-.161l.052.004.043.003c.06.004.047-.045-.03-.066-.08-.022-.27-.202-.3-.176a.873.873 0 00-.15.208c-.029.074-.019.274-.09.273a1.703 1.703 0 01-.4.004l-.075-.061c-.118-.088-.196-.11-.306-.021l-.397-.028-.144.058a.524.524 0 01-.132-.053l-.025-.034-.082-.09a.502.502 0 01-.317-.021c-.034-.039-.178-.088-.193-.046l-.002.032-.002.024a.354.354 0 01-.17-.012.338.338 0 00-.132.166l-.005.08a.16.16 0 01-.186-.078l.004-.063c.002-.028-.12-.06-.262-.078l-.13-.009-.112-.008c-.13.031-.18.016-.11-.035.072-.051.172-.22.071-.266-.1-.047-.37-.125-.394-.063a.768.768 0 01-.108.287l-.072-.005a.216.216 0 01-.035-.174c.004-.06-.233-.096-.286-.084-.052.013-.03.146-.011.163.019.017-.029.066-.089.07l-.03-.023-.069-.044a.2.2 0 00-.25-.018c-.076.059-.659-.045-.67.014l-.003.035-.004.048a.131.131 0 01-.124.067.433.433 0 01-.14-.173L27 20.155a.163.163 0 00-.132-.045.115.115 0 00-.074.09l-.005.076c.032.106.02.177-.011.159-.031-.018-.183-.12-.298-.188l-.087-.082-.056-.052a1.13 1.13 0 00-.251-.113l-.036-.002a1.43 1.43 0 01-.373.085l-.139-.01a1.35 1.35 0 00-.363-.168c-.06-.004-.137.126-.198.098-.062-.029-.206-.142-.16-.175.046-.032.134-.142.01-.139-.19.05-.375.114-.556.189l-.187-.069a.36.36 0 00-.088.121 1.03 1.03 0 01-.147.217.199.199 0 01-.058-.127c.004-.064-.055-.243-.1-.238a.423.423 0 00-.394.227c-.051.044-.358-.025-.493-.034-.135-.01-.52-.036-.516-.096.005-.06-.029-.217-.078-.196l-.038.037a.088.088 0 01-.093.038.089.089 0 01-.032-.015c-.034-.03-.178-.084-.211-.015-.033.07-.168.291-.208.296l-.1-.007c-.059-.004-.067-.064-.02-.1l.038-.03.037-.025c.047-.037.038-.081-.02-.101l-.243-.017c.023-.067.043-.134.058-.203 0 0-.052-.055-.124-.052l-.05.092a.425.425 0 00.06.338l-.106.033-.057.016a.916.916 0 01-.238-.24c-.028-.058-.163-.182-.238-.144l-.06-.004c-.09-.006-.177-.08-.265-.078-.088.002-.076.11-.137.138l-.05.024c-.119-.008-.174-.072-.124-.112.051-.04.082-.09-.034-.026-.181.047-.372.05-.555.009l-.044-.003-.1-.047c-.054-.08-.127-.069-.161.025l-.007.09c.05.062.104.12.164.171.083.074.207.297.042.37l-.019-.248a.435.435 0 00-.231-.053l-.096-.006a.369.369 0 00-.21.22c-.005.072-.06.171-.088.05-.027-.121.134-.54-.001-.61-.135-.069-.521.096-.5.137l-.003.036c-.001.023-.004.055-.044.064l-.06-.004a2.797 2.797 0 01-.213-.198l-.125.015-.083-.006c.09.194.066.304-.05.252l-.083-.006c-.122-.028-.235-.016-.087.102 0 0-.032.053-.044.052l-.04-.003a.15.15 0 01-.082-.133c.004-.051.054-.203.106-.203s.172-.068.15-.15l-.027-.069.003-.043a.123.123 0 00-.157-.04l-.034.038-.095.097c-.126.09-.225.192-.219.224a.265.265 0 01-.186.202c-.122.035-.414-.06-.323-.106a1.71 1.71 0 00.332-.248c.002-.028-.032-.11-.115-.12l-.034.022-.113.08c-.115.111-.218.152-.225.088a1.686 1.686 0 00-.04-.23.155.155 0 00-.058.084c-.003.047-.098.148-.142.097l-.042-.027c-.08-.053-.006-.255-.204-.173l-.143.058c.101.086.157.206.125.267l-.052-.003c-.123-.009-.164.064-.121.135.043.07.144.05.218.015a.143.143 0 01.094-.026c.028.002.083.006.085.034.002.028-.007.1-.008.115-.072.033-.148.06-.225.08-.242.095-.42-.1-.638-.116l-.044-.003c-.048-.103-.121-.144-.164-.1-.043.046-.139.039-.123-.127l-.26.185-.076.054c-.196-.041-.369-.025-.4.008-.03.034-.106.104-.174-.012a1.839 1.839 0 00-.707-.336l.033.054c.046.083.05.08.212.043a.772.772 0 01.138-.034l.202-.038c-.04-.11-.137-.157-.212-.102l-.131-.01c-.072.051-.075.278.001.494l-.167-.115a.224.224 0 00-.341.028l-.06.056a.87.87 0 00.253.14c.076.006-.159.165-.238.104-.08-.061-.185-.32-.245-.324-.06-.004-.24.127-.24.075a.68.68 0 00-.191-.296c-.087-.074-.44-.03-.416-.097.024-.066.018-.265-.05-.27-.204.06-.404.135-.598.225-.031-.002-.133.027-.154-.01.007-.104-.067-.133-.156-.11-.09.02-.055.095-.042.136l.027.077a.437.437 0 00.31.137c.115.008.344.147.315.17a4.38 4.38 0 01-.794-.056l-.262-.245a.147.147 0 00-.114.14l.033.037.023.026c.043.003-.006.083-.117.187s-.422.333-.416.25c.005-.084-.043-.31-.09-.313-.048-.003-.205.017-.216.06-.011.043-.093.125-.145.07a.93.93 0 01-.157-.31.247.247 0 00-.311-.12l.129.155c.044.051.034.134.037.202.004.068-.047.053-.067.051l-.048-.003a.155.155 0 01-.069-.156c.005-.067-.223-.167-.25-.137-.025.03-.17.112-.177.027-.006-.084-.086-.304-.165-.322l-.045.025-.091.046c-.065-.04-.058-.036 0 0l.087.006.02.001c.028.002.048.06.044.11a.58.58 0 01-.321.317l-.145-.034a1.255 1.255 0 01-.461-.203l-.187-.129c.09-.13.097-.125 0 0-.096.125-.356.477-.43.444-.073-.033-.311.066-.348.08a.438.438 0 01-.208-.055c-.054-.028-.287-.06-.352.023l-.006.083c-.007.104-.08.106-.179.1-.099-.007-.165-.032-.15-.127.014-.094.01-.162-.11-.15-.035-.003-.058.091-.107.104l-.163.048c-.21.045-.382.045-.399.004a1.7 1.7 0 00-.034-.36c-.027-.13-.44-.278-.448-.219l-.003.047c-.003.04.133.093-.008.108-.14.014-.154.033-.152.12l-.007.103a1.95 1.95 0 00-.438-.062l-.016.222c-.028.054-.062.095-.07.09a.613.613 0 00-.193.079c-.096.057-.21-.242-.252-.273-.042-.03-.17.028-.227-.015-.056-.044-.17-.243-.23-.196l-.049.025-.179.103c-.066-.132-.156-.154-.2-.054l-.045.08-.002.036a.248.248 0 01-.199-.014c-.053-.035.055-.21.05-.259-.005-.048.014-.198.054-.2.04 0 .181-.026.174-.043-.006-.016-.092-.042-.18-.048-.087-.006-.303.062-.287.167.017.105.009.399-.051.395-.06-.005-.23.04-.234-.017-.004-.056-.048-.174-.075-.136-.026.038-.13.098-.166.044-.036-.054-.175-.187-.194-.133.013.135.051.265.112.386l-.036.117-.051.168c.149.034.14.061-.005.067-.144.006-.517-.2-.482-.244.036-.046.225-.017.256-.066.032-.05.059-.092-.115-.064-.173.028-.562.287-.526.17.043-.127.072-.258.087-.392 0 0-.088.054-.126.143-.038.089-.181.314-.21.276l-.047-.027a.294.294 0 01-.108-.1l-.022-.033a.59.59 0 01.078-.265c.055-.1.368-.241.322-.26-.047-.02-.113-.096-.066-.14a.147.147 0 00-.1-.23c-.145-.038-.37-.122-.384-.222a.967.967 0 01.035-.5c.057-.067-.058-.306-.032-.34l.037-.022.092.007s.04-.117.01-.147l-.187-.18c.115-.104.225-.132.243-.059a.683.683 0 00.114.207.462.462 0 00.397.028 1.73 1.73 0 01.56-.192c.065.028.328-.133.475-.174l.134.073.125.036.37-.042c.08.006.298.021.302.073.005.052-.169.307-.056.291.113-.016.383-.113.344-.18l-.02-.056.002-.036c.051-.126.113-.247.185-.361l.23.187c.034.026.157-.013.241-.023l.06.004c.136.022.267.067.39.13l.17-.04.166-.036c.162-.155.277-.191.26-.077l.021.05a.175.175 0 00.117.099c.123.008.117-.08.059-.155-.045-.047.006-.095.126-.103.135.02.267.06.391.115.099-.033.192-.078.277-.136l.13.029.139.01.424-.027.08.006c.032.002.079-.043.086-.034l.357.264c.273-.204.556-.32.632-.259.076.061.308-.066.35-.031.23.024.461-.017.67-.117l.325.194a.466.466 0 00.44-.017l.062-.032a.527.527 0 00.297-.015c.001-.028.101-.088.13-.03.027.057.045.201-.016.225-.12.062-.233.136-.339.22a.795.795 0 00-.195.28.163.163 0 00.162.087l.053-.028c.161-.076.019-.265.14-.332.12-.068.298-.055.298-.223a.893.893 0 01.168-.183l.1-.065.034-.021c.1.007.157.043.127.064-.03.022-.007.103.165.095.189-.006.376-.032.56-.076-.048-.003-.09-.086.053-.08.143.006.487.062.442.134a.836.836 0 00-.102.367l.044.004c.066.028.351-.227.34-.291l-.027-.186c.16-.007.321-.003.481.014.18-.032.355-.09.519-.17a.737.737 0 01.458.059c-.003.044.062.2.102.146a.825.825 0 01.592.09l.225.087.036.002a.119.119 0 00.078-.138l-.034-.038-.04-.046c-.08-.054-.05-.1.067-.107.116-.008.347.171.363.12.015-.05.088-.177.133-.142.046.036.248.05.281-.087.034-.137-.216-.446-.234-.36-.018.087-.114.327-.16.292a.528.528 0 01-.088-.28c.007-.1-.16-.283-.2-.214-.041.07.014.256-.022.305l.036.059.032.058c.028.057-.042.092-.157.072-.114-.02-.44-.03-.423.063l-.003.047-.002.032a.08.08 0 01-.073.074l-.024-.001a.911.911 0 00-.663-.222.275.275 0 01-.1-.007 1.593 1.593 0 00-.34-.103c-.122-.009-.215.172-.371.018-.034-.034-.202.03-.31.022l-.114-.008a1.348 1.348 0 00-.447-.059l-.031.046c-.09.145-.2-.105-.284.016-.002.028-.13.023-.193.018l-.254-.017c-.098.136-.22.168-.273.072-.053-.095-.187-.34-.128-.335.06.004.23-.036.238-.099.009-.063-.046-.194-.14-.117l-.08.022-.094.021c-.135-.009-.224.02-.197.078.028.058.005.216-.121.199l-.054.028-.128.07a.398.398 0 00-.262-.09c-.067-.004-.18.2-.25.274l-.044-.055-.125-.152c-.184.011-.318-.022-.3-.048.018-.027-.02-.157-.13-.197l-.045.025-.104.056c-.1.11-.185.143-.185.08 0-.064-.087-.238-.183-.244-.095-.007-.323.005-.258.045s.178.188.05.203l-.03-.026-.22-.179c-.173.14-.381.217-.466.171-.085-.046-.305-.208-.228-.215.076-.007.23-.052.218-.096-.013-.045-.235-.24-.238-.2-.003.04-.092.173-.191.174-.1 0-.401.028-.368.07.033.042-.012.17-.09.193-.077.022-.25-.018-.203-.11.046-.093-.258-.253-.263-.186-.004.068-.071.23-.141.198a.817.817 0 00-.337-.024c-.06-.004-.278-.02-.305-.1-.026-.082.14-.357.06-.447l-.072-.06-.151-.126c-.084.113-.177.187-.203.165-.026-.022-.093-.154-.02-.169l.054-.032c.125-.075.174-.151-.038-.202a.107.107 0 01-.07-.092c.003-.028.053-.068.09-.074l.093-.021.226.016c.044.09.11.167.192.224l.004-.06c.011-.158.196-.125.288-.186l.135-.095c-.117-.1-.033-.161.184-.134.218.027.53-.325.497-.364l-.145.07a1.295 1.295 0 01-.626.104l-.12-.1-.14-.11c-.006.088-.012.163-.06.171a.825.825 0 01-.367-.176l.169-.128c.122-.091.008-.119-.049-.159-.057-.04-.063-.123.011-.162.075-.039.071-.103.037-.189l-.023-.065c.115-.107.167-.22.105-.252-.061-.032.067-.162.085-.185.018-.023.046-.088.007-.103-.039-.014-.095-.118.012-.17l.056-.056.06-.06c.058-.087.15-.14.203-.113.054.028.172.111.142.137l-.024-.001c-.17-.012-.365-.026-.184.186 0 0-.048.056-.054.088l-.003.047a.135.135 0 00.157.083l.046-.029.06-.043c.044-.073.191-.07.32.022.248.038.499.04.746.004.092.007.337-.076.299-.162-.038-.086-.283-.227-.273-.258l.025-.018a.975.975 0 01.137-.082c.05-.029.137-.079.145-.07l.18.164c.1-.128.2-.23.227-.227a.313.313 0 01.144.217l-.131.058a.35.35 0 01-.218.033c-.088-.05-.166-.131-.238-.016-.003.035.05.13.107.174l.068.057a.47.47 0 00.353-.023l.056-.068.053-.064a.214.214 0 01.171-.168c.091 0 .182-.006.272-.017a.224.224 0 00-.107-.055c-.06-.004-.175-.076-.109-.107.066-.031.185-.194.08-.289-.105-.095-.5-.198-.473-.129.027.07-.017.234-.11.244-.091.01-.28-.203-.22-.21a.35.35 0 00.202-.325l-.272.128-.05.02c-.098-.066-.15-.121-.114-.127l.024.002c.137-.078.174-.275.414-.218 0 0 .053-.072.043-.105a.147.147 0 00-.115-.06l-.142.027c-.154.04-.283.12-.287.175-.004.055-.063.206-.119.214-.056.008-.16-.059-.045-.162.115-.104-.12-.379-.33-.306l-.198.05-.028-.002c-.085-.097.115-.282.428-.416l.361.025c.02.002.068-.063.067-.099l-.015-.248c.17.063.351.093.533.09l.028.109.028.117c.135.053.252.046.256-.018.005-.063-.043-.238-.123-.243a.893.893 0 01-.39-.135c-.058-.068-.118-.295-.175-.335-.057-.04-.18-.176-.209-.154-.03.022-.091.105-.032.117.143.067.26.178.333.318l-.306-.02a.255.255 0 00-.095-.008 1.067 1.067 0 01-.469.032l-.048-.004a.103.103 0 01.07-.142l.048.003.071.005c.092.058.167.067.17.012.005-.056-.041-.194-.104-.207a1.124 1.124 0 01-.255-.061.717.717 0 01.184-.13c.091-.05.406-.104.41-.163.005-.06.11-.255.126-.207a.67.67 0 01.037.162l-.026.034-.006.084a.211.211 0 00.132.049l.107-.04a.147.147 0 01.231.115l.14.046.117.04c.006-.088.055-.156.098-.149l.096.007a.088.088 0 00.103-.064.087.087 0 000-.045l-.032-.054-.115-.179c-.127.099-.226.148-.223.108a.397.397 0 01.258-.213c.134-.038.466.12.504.09.038-.028.16-.104.076.006s-.173.355.008.45l.042-.024.142-.098c.141.094.255.121.255.062a3.105 3.105 0 00-.14-.436l.245-.039.036.003c.035-.098.073-.135.08-.074.009.06.09.197.166.202.076.005.27.02.25-.022a.084.084 0 01.008-.123l.031.002.074.03c.092.057.178.08.193.044.014-.034.04-.128.05-.147a.45.45 0 01.334-.04c.165.038.504-.03.344-.128l-.133-.101a.18.18 0 00-.226-.016l-.042.021c-.079-.005-.127-.064-.107-.115l.005-.08a.068.068 0 00-.076-.056.975.975 0 00-.228.131c-.084.058-.387.165-.407.111-.02-.053-.077-.152-.147-.117l-.02-.002a.474.474 0 00-.597-.081l-.11-.008a.506.506 0 00-.442-.03c-.05.024-.139-.01-.197.022l-.175.051a3.145 3.145 0 00-.686-.111l-.179-.013a.622.622 0 01-.243-.065l-.115-.067-.36.078-.08-.05-.043-.022a3.588 3.588 0 01-.881-.061l-.36-.057c-.394-.06-.789-.123-1.184-.166-.147-.01-.314-.078-.457.032l-.02-.002-.384-.222-.158.033-.15.034c-.193-.141-.382-.238-.384-.21-.002.027-.083.046-.11-.032-.026-.077-.29-.116-.309-.085-.018.03-.085.018-.093-.098l-.204.01A.86.86 0 01.56 8.41l-.052-.003c-.045-.04-.058-.088-.024-.11.033-.021.083-.113.01-.146l-.06-.048C.3 7.995.3 7.927.448 7.866l.18-.075a.48.48 0 00.012-.56C.523 7.086.517 6.6.458 6.587c-.059-.012-.182-.072-.12-.12l.003-.035.004-.06a.186.186 0 01.048-.223c.14-.092.285-.173.436-.245.086-.041.535-.118.5-.184l-.042-.043a.883.883 0 00-.188-.156l-.225.132a.31.31 0 01.117-.359c.122-.099.486-.169.502-.1.015.069.283.167.34.278l.132-.022.113-.016c.036.046.086.08.141.097a.14.14 0 00.13-.102l-.03-.002-.115-.08c-.139-.073-.235-.172-.216-.222a.51.51 0 01.322-.149l.293.02c.215.015.34-.052.278-.151l.182-.035a.18.18 0 01.103.007l.038.038c.028.05.07.073.092.054l.282-.211.209.09c.24.075.494.093.742.052l.221-.02c.179-.16.347-.227.373-.15l.053.044a.863.863 0 00.183-.043l.127-.055c.14-.066.262-.094.276-.06.013.032.078.076.121.032.043-.045.19-.142.227-.108.184.083.385.123.586.116.24-.01.802-.055.77-.165l.101.035c.117.04.194-.21.266.018-.002.024.019.073.03.074.27.019.523.116.8-.024l.257-.125c.293.038.589.058.885.061.127.01.453.14.498.127l.033-.022a1.263 1.263 0 011.027-.084c.028.002.064.06.072.057l.12-.052a.506.506 0 01.343-.06c.066.03.215-.116.237-.138.134.005.267.03.393.075.118.032.452-.076.51-.032.056.044.324-.085.43-.114l.103.008.111.007.185-.019c.18-.015.359-.04.536-.074.166.028.328.08.48.153.083.006.254-.098.245-.027-.009.071.21-.097.26-.189l.106.087a.362.362 0 00.338.076l.211-.105c.088.117.165.15.17.071.006-.079.232.052.255.018.022-.034.113-.088.118-.04a.203.203 0 00.202.142l.091.006.206.015.08-.043a.278.278 0 01.294-.102l.103.007.321.022c.108.008.235.016.264-.12l.003-.045c.124.013.245.049.356.105l.063.004.172.056c.062-.143.149-.185.19-.094l.066.028a.419.419 0 00.278.02c.078-.03.105-.136.18-.187.076-.05.126.033.183.013l.093-.018.2-.073.06.052c.099.078.209.14.327.182l.08-.055.272-.18c.302.029.597.108.873.236l.054-.207s.025-.018.041-.021c.217-.009.442.082.657-.026.035.002.148.05.217.087l.173.087c.172-.06.408-.122.481-.145.138.145.27.019.397.027.142.024.286.034.43.03.112-.01.223-.037.328-.08.062-.028.085-.13.141-.138.13-.023.098.079.13.14a.18.18 0 00.129.041l.21-.168.93.065.202.014.278.019c.168-.104.36-.162.558-.168.042.034.207.134.256.105.05-.028.217-.072.22-.012.005.06.097.285.198.324.1.039.29-.207.326-.22l.024.001.292.104c.242-.135.508-.222.784-.256l.173-.024c.125-.015.26.166.4-.008.026-.038.158-.036.241-.035l.536.038.095.006c.08.05.164.091.251.125l.072-.054.677-.16.294.072.024.002c.028.002.062-.036.078-.09.016-.055.233.04.314.021a.873.873 0 01.337.024c.09.038.4-.024.557.074l-.036.177-.002.032c.029.042.103.007.168-.116a1.024 1.024 0 01.84-.093l.278-.16.042-.025c.11.036.216.082.318.138l.01-.143c.04.003.212-.009.399-.008.225.046.448.105.666.178l.029-.018.108-.064.26.054c.095.007.1-.18.277-.092.07.036.25-.027.282.02.033.045.232-.116.28.055a.24.24 0 00.135.009l.117-.075.396.027c.072.005.379-.045.486-.038.183-.005.366.02.541.074l.1.007.087.006a.593.593 0 00.313-.146l.085.042.085.042c.103-.045.175.012.166.13l-.005.08.038.202c.193-.017.378-.082.54-.19l.075-.05c.14-.097.287-.183.44-.256l.161-.077c.23.089.467.155.709.197l.204-.014.04.003a2.83 2.83 0 01.315-.165l.03.03.208.21a.493.493 0 01.498-.165c.217.111.447.193.686.243l.006-.1.011-.158.33-.025c.087.007.285.02.26.09-.024.07.239.017.302.021.064.005.162-.144.223-.163l.046-.029c.12-.071.151.178.307.053.06-.051.237-.02.355.001.112.026.221.06.328.102a.147.147 0 00.1.007l.098-.044a.916.916 0 01.364-.067l.27.019c.202.078.412.156.467.168.055.012.176-.071.218-.037.042.035.315-.053.526-.043a4.25 4.25 0 00.978-.25c.144-.054.562.123.62.09l.064.005.091.007c.11.015.22.01.328-.014l.002-.031a.107.107 0 01.184-.063l.238.204c.157-.149.272-.185.253-.086l.182-.035a.773.773 0 01.245-.031c.171.012.346.135.475-.05.058.015.115.034.171.055.024.01.05.011.076.005a.606.606 0 01.402-.043c.13.009.268-.01.4-.008.13 0 .261.018.396.027l.036.003c.154.015.309.007.46-.024l.19-.039s.05.084.088.118l.023.021a.553.553 0 00.2-.061c.347-.018.69-.08 1.021-.184l.417.204c.07.033.192-.006.288-.008a.59.59 0 01.182.013l.326.082c.097-.128.226-.21.288-.183.062.029.278.072.307.002.029-.07.325.022.4-.02.075-.043.426.133.592.153l.144-.01.072.005c.069-.075.135-.11.149-.081.014.028.17.011.31-.106l.147.082c.189.083.395.123.602.117l.262.018a1.16 1.16 0 01.608-.085c.125.04.446.19.5.143l.062-.02c.118-.04.272.166.373-.022.1-.188.227.06.318-.045a.79.79 0 01.173.04l.06.004c.17-.011.338-.048.497-.11l.215.076a.112.112 0 01.206.014l.052.004c.063.004.146-.046.217-.08.07-.036.08-.079.156-.01.075.069.368-.018.472.156.111-.034.217-.084.313-.15l.127.01.22-.005c.188-.016.377-.003.56.04l-.002.03c.02.114.092.107.185.085.093-.021.202-.14.405-.079l.12.04c.224-.051.442-.125.65-.221l.162.194c.104-.046.202-.102.295-.166l.093.102a.306.306 0 00.276.106l.115.008a.59.59 0 00.319-.057c.05-.036.208-.117.241-.087.034.03.153.098.167.072a.128.128 0 01.163.01c.06.049.264.159.271.111.008-.047.165-.128.324-.065l.197-.078.176-.071c.085-.074.165-.072.179.012l-.003.044-.003.04c-.004.055.043.074.07.036.106-.09.228-.158.36-.201l.102.15a.211.211 0 00.132.053.399.399 0 00.186-.039l.028.002c.035-.05.064-.06.069-.02.005.041.045.16.076.173l.129-.078c.234.039.465.097.69.175l.1-.236a.116.116 0 01.071.005l.22.179c.185-.09.385-.151.59-.178.103.007.394.071.451-.005.057-.075.45.06.572.04l.091-.053a.279.279 0 01.328-.01c.135.122.208.051.312-.005l.028.002c.071.005.11.063.09.082-.022.018-.008.11.086.137l.065-.02c.11-.028.165-.127.272-.184l.162-.088c.103.063.217.09.25.061a.339.339 0 01.147.086l.025.042c.13.02.264.029.397.027l.084-.061.147-.106a.586.586 0 00.446.06l.126-.028a.119.119 0 01.08.057c-.004.048.07.137.087.058l.036-.168c.153.042.31.073.468.092.223-.026.439-.093.636-.199l.112.124h.02a.574.574 0 01.216.04c.054.028.215-.041.26-.018.047.023.203.07.215.015a.839.839 0 01.055-.155.095.095 0 01.043.066.454.454 0 00.072.177c.119-.048.234-.108.35-.16a.466.466 0 01.135-.046c.15.01.286.124.456.032l.02.002c.128.112.24.168.25.124.012-.043.076-.17.11-.143.216.025.435.017.648-.023l.279.127a.243.243 0 00.162-.04l.012-.175c.173-.016.318.022.327.063a.43.43 0 00.41.124c.36-.013.721.012 1.076.075l.106-.037a.355.355 0 01.27.02c.17.033.344.045.516.035a.16.16 0 01.1.007l.02.001c-.004.048.032.046.079.006s.322.022.39.127l.086.081c.085-.022.15-.089.138-.15h-.02l-.115-.009c-.014-.088.01-.146.041-.132a.498.498 0 01.181.148l.046.03a.303.303 0 00.167.068.909.909 0 01.566.179l.214.142c.01-.158.09-.217.168-.127.11.235.198.481.26.734l.307.058.123.008c.103.007.106.091.007.196l.25-.03.188-.023a.223.223 0 01.137.264l.033.05.101.147c.156.166.21.309.122.319a2.465 2.465 0 01-.463-.112c-.068-.005-.239.214-.186.198a.478.478 0 01.2-.01.868.868 0 01.016.288c-.009.13-.226.442-.195.452.032.01.13.089.068.12-.062.032-.248.178-.252.234-.004.055-.046.26-.08.237-.034-.022-.12-.008-.139.098-.019.106.226.366.187.411l-.023.05c-.065.131-.053.3-.298.326-.024-.002-.07.079-.055.1l.08.113c.103.122.09.209-.04.184l.027.173.027.185c-.015.21-.063.394-.121.366l-.022-.03-.07-.076a1.473 1.473 0 00-.19-.248c-.042-.043-.157.073-.145.13l.097.038a.127.127 0 01-.037.244c-.11.017-.225.188-.356.011l-.072-.005a2.452 2.452 0 01-1.07.07c-.107-.008-.248.066-.317.029l-.08-.042c-.058-.143-.118-.147-.14-.01l-.057.029a1.128 1.128 0 01-.43.09l-.174-.013a.94.94 0 00-.515.056c-.083.054-.31-.113-.327-.114l-.223.056a3.372 3.372 0 00-.837.049l-.177-.044-.16-.04c-.17.017-.37.043-.443.054a1.268 1.268 0 01-.523-.109l-.17.092c-.091.046-.255-.061-.393-.09l-.172-.04c-.216.052-.41.142-.413.201-.005.06-.202.086-.201.022 0-.063-.028-.237-.052-.234-.024.002-.064.063-.093.129-.028.065-.06.246-.018.265.042.02.112.108.026.133-.085.026-.25-.18-.3-.22l.175.013-.536-.038c-.055-.004-.152-.046-.154-.07.007-.103-.074-.149-.156-.11l-.04-.003c.025.101-.012.17-.098.152-.087-.018-.24.187-.348.235l.144.117.136.11c.092-.066.197-.09.227-.06a.506.506 0 00.18.104c.06-.064.11-.136.174-.2.064-.063.063.005.1.008l.186.013c-.07.082-.075.15-.01.146.064-.003.09.146.093.15.004.004.06.004.1-.065.04-.069.185-.19.254-.15.15.074.303.138.461.192l.115-.044c.077-.022.15-.051.222-.088.092-.061.036-.125-.027-.185 0 0 .043-.049.071-.055a.12.12 0 01.09.03l.016.11c-.009.13.076.227.153.217l.033-.022.134-.094.526.12.086.086c.07.077.075.077.14-.054a.271.271 0 01.29-.1 1.4 1.4 0 01.174.084l.043.004c.049.043.155.01.234-.04l.076-.058.126-.087c.088.094.188.176.298.244l.042-.081.088-.177c.18.042.364.068.549.078l.119.008.048.003c.17.04.335.094.495.162l.248-.122.17-.088c.102.135.22.207.263.162.044-.045.378.026.489.034.225-.046.442-.123.646-.23l.034.206.013.096a1.34 1.34 0 00.238-.09.196.196 0 01.186.012.398.398 0 01.118.307c-.026.102.013.4.144.408l.099.007a.218.218 0 00.111.008c.213-.073.209-.073.298.02l.102.076a.239.239 0 01.074.32l-.028.105-.003.055a.794.794 0 00.333.199l.106-.04.046-.021c.029-.07.091-.11.145-.086.054.024.185.152.149.214l-.05.02-.16.017a.638.638 0 01-.356.01c-.034-.03-.163-.054-.2.019a1.28 1.28 0 00-.1.28.116.116 0 00.092-.054c.027-.042.113-.143.133-.134a.369.369 0 01.05.207c-.007.09-.073.297-.138.249-.064-.048-.226.096-.314.157l-.111-.007c-.032-.003-.083.05-.081.078a.12.12 0 00.073.088l.068.005c.08.006.097.087.038.19l.03.03.18.172-.344.127c-.028-.002-.057.068-.01.135.048.067.272.282.259.416a3.844 3.844 0 01-.138.548.048.048 0 01-.052-.004l-.024-.001a.63.63 0 00-.272.128l-.014.21c.074.137.17.303.213.37.043.066.04.28-.139.272l-.13-.009c-.147-.01-.295.044-.443.05-.148.005-.29-.021-.429-.03-.138-.01-.367.07-.42.022l-.134-.133c-.154.07-.313.13-.475.174l-.156-.055-.125-.044c-.162-.011-.285-.02-.26-.094.025-.074.015-.226-.1-.234-.115-.008-.376.018-.404.072a.23.23 0 01-.238.158 2.031 2.031 0 00-.491.117l-.052-.003a1.54 1.54 0 00-.615-.043 4.271 4.271 0 01-.64-.044l-.094-.007a1.686 1.686 0 01-.374.042l-.088-.006c-.095-.007-.248-.093-.274-.067-.115.1-.167-.012-.246-.018-.08-.005-.192.059-.283.052-.092-.006-.182-.088-.273-.094l-.167-.012c-.19.027-.458.056-.599.066l-.137-.09c-.069-.044-.237.02-.36.016a7.333 7.333 0 00-.799.008l-.047-.004a2.2 2.2 0 01-.363-.001l-.127-.009-.19-.013a4.438 4.438 0 01-.477-.033l-.052-.004a3.887 3.887 0 00-.443.06c-.138.035-.221-.142-.355-.056-.134.087-.135-.124-.238-.016-.043.04-.199-.014-.304.003-.105.016-.254-.018-.377-.027l-.321-.022a.842.842 0 00-.318-.022l-.16.056a2.189 2.189 0 00-.568-.139l-.153.018a1.993 1.993 0 01-.667-.047l-.17-.036a1.326 1.326 0 01-.682-.047l-.209.08c-.14.055-.35-.023-.528-.036l-.347.004c-.274.019-.55 0-.818-.057-.07-.04-.3-.06-.44-.11l-.088.07c-.114.087-.227.055-.347.05-.119-.004-.285-.02-.428-.029l-.497-.035a.478.478 0 01-.337-.023c-.06-.048-.27.049-.328.017-.058-.032-.281.024-.345.016a12.58 12.58 0 00-.798.008l-.234-.084-.167-.063a.748.748 0 00-.313.145c-.04.049-.375-.002-.52-.036l-.135-.01-.068-.004c-.09.025-.064.07.049.107l.092.05.1.05c.103.075.116.112.03.078-.085-.033-.363.07-.36.15l.026.074c.033.044.08.075.133.089l.254-.15c.206.175.465.274.735.282l.234.017.047.003c.058.028.116.008.131.01.016 0 .068-.108.084-.107a1 1 0 01.147.063c.06.004.24-.08.262-.161l-.018-.077c-.036-.17-.127-.01-.151-.01-.15-.135-.226-.136-.314.045l-.051.1c-.193-.033-.282-.08-.196-.105l.062-.04s.006-.087-.036-.11l-.041-.035c-.066.02-.09.014-.052-.003a.334.334 0 01.194-.034c.06.004.217-.025.27.018.053.044.305-.03.377-.037a.995.995 0 01.278.02s-.037.08-.13.106l-.048.044c-.047.049-.087.157-.053.192.034.034.209.154.27.134l.184-.063c.071.07.15.133.234.188.131.021.264.03.397.027l.123.132c.063.03.135.035.202.014.09-.033.16-.128.253-.137l.08.005c.1.055.254.133.346.175.093.043.46-.007.618.067l.176-.067.041-.017c.072.005.141-.018.152-.061.011-.043.11-.088.187.013.18-.067.263.221.477.08l.083-.053c.155.017.305.064.441.138l.097-.069a.347.347 0 01.399 0c.18.07.379.084.568.04.002-.04.061-.144.101-.137l.029.102c.043.178.113.27.16.21.049-.06.18-.167.204-.117a.235.235 0 00.25.081c.107-.05.22-.088.335-.112-.002.024.026.09.07.092l.063.005c.094.006.188.02.28.043.127.009.534.01.593.077.06.068.242.192.274.127a.235.235 0 01.357-.027l.207-.05.064.005c.102-.033.198-.081.285-.143l.105.095.038.034.103.007c.044.003-.026-.197-.32-.333l-.258-.077-.047-.004a.091.091 0 01.034-.145l.055.004a.694.694 0 01.159.011l.167.012a.4.4 0 00.424.03l.109-.069.05-.032c.131.01.207.066.171.115-.035.05-.133.146-.16.12l-.027-.001c-.048-.004-.105-.047-.141-.034a.107.107 0 00-.06.1c.043.092.094.18.154.261a.18.18 0 00.26.054l.058-.032a.455.455 0 00.356-.079l.09-.073c.047.003.084.042.083.058a.445.445 0 00-.01.142c-.003.044.114.136.128.049l.028-.054a.127.127 0 01.1-.065.148.148 0 01.107.064l.041.098c.036.122.104.123.155.01l.193.038c.213.029.428.044.643.045l.203.014c.149-.045.302-.076.457-.092l.04.003c.063.005.159.063.188.045.221-.14.397.028.607.043l.108.007.136-.118c.037-.03-.058-.147-.302-.2l.182-.199c.12-.135.228.108.39.131.083.006.105-.024.153-.025.156.003.313.014.468.032 0 0 .029.05.023.074l-.002.024a1.02 1.02 0 01-.22.12c-.098.04-.396-.028-.426.002-.03.03-.014.19.153.206l.139.01c.113-.007.226 0 .337.023.23.121.497.151.748.084a.347.347 0 01.242.088l.03.034a.12.12 0 00.17.012c.043-.045.189-.138.222-.092.032.046.167.17.201.145a.754.754 0 00.127-.162c.002-.028.12.008.162-.04.044-.05.263.185.41.299l.207.014.205.034c.222.016.45.008.505.015l.048.004.102.035a.311.311 0 00.26-.014c.03-.038.248.041.341.195l-.047.16-.037.133a.53.53 0 00.393.087l.118-.091h.02a.195.195 0 01.129.157c.018.077-.245.302-.608.356l-.345-.024c-.242-.017-.234-.016-.395.287l-.028.054c-.102.033-.17-.012-.163-.067l-.196-.05c.052-.107.076-.221.045-.243l-.065.02-.044-.004c-.07-.029-.139-.01-.153.03-.015.038-.11.15-.184.122l-.034-.03-.076-.062a.183.183 0 00-.12.171l.116.008.208.043c-.055.12-.124.234-.203.34l.092.05a.496.496 0 00.183-.047.866.866 0 00.16-.108.126.126 0 00-.053-.111.532.532 0 01-.116-.104.23.23 0 01.155.01c.075.006.267.111.264.15a.163.163 0 00.147.134c.083.006.299.057.273.139-.025.082-.124.234-.19.221-.068-.012-.163.037-.066.143l.072.1.085.11c.139.117.201.253.138.3l-.066.032a.28.28 0 01-.15.033 2.786 2.786 0 01-.509-.083l-.047-.003a2.08 2.08 0 00-.094-.537l-.038.03c-.064.047-.014.19-.19.146a2.359 2.359 0 01-.286-.08c-.06-.004-.09-.094-.147-.122a.172.172 0 00-.14.019.12.12 0 00-.009.11l.224.056c.167.088.345.154.529.196l.026.026.056.055a.661.661 0 00.193-.19l.01-.15c-.087.046-.388.248-.67.447l-.225.036-.02-.001a.795.795 0 01-.066-.32l-.239-.056c-.034-.026-.017-.1.035-.165l.033-.069a.107.107 0 00-.052-.107.272.272 0 00-.141.018c-.035.217-.083.392-.105.367a2.282 2.282 0 01-.243-.292l-.287.052-.072-.005a.754.754 0 00-.145-.034c-.032-.002-.107.044-.09.097l.028.042c.088.03.164.086.22.159.075.085.116.406.029.4-.088-.006-.278-.31-.43-.428l-.156-.043-.29-.08c.113-.12.166-.191.12-.163l-.044-.003c-.08-.005-.233.016-.166.092.067.077-.05.192.085.269l.17.087c.188.105.274.183.199.174l-.053.02-.177.071a.94.94 0 00-.451-.11c-.085.017-.34.023-.35-.025-.008-.049-.048-.219-.072-.157a.978.978 0 01-.099.217l.036.002-.202.026a10.78 10.78 0 01-.633-.128c-.125-.032-.629.092-.871.079l-.176-.164a.423.423 0 00-.292.004l-.331.12c-.144-.113-.269-.15-.274-.079-.005.072-.318-.022-.394-.063-.078-.041-.33.137-.369.074l-.028-.054-.02-.049c-.037-.11-.072-.116-.08-.005-.008.11.067.307.171.29.199.01.392.067.563.167l-.044.116-.455-.103c-.1-.007-.163.108-.308.01l-.122-.08a.825.825 0 00-.166.267.167.167 0 00.153.087l.046-.256c.202.082.434.182.519.223.085.042.294.128.365.081.087-.056.167-.121.241-.194l-.063-.004c-.06-.004.039-.101.218-.216l.224-.012c.12.008.237.04.357-.027.042-.025.164.055.255.065.083.002.166-.005.249-.018.063.004.146-.038.184-.02l.142.086c.212.03.418.089.614.175l.013.164s.075.005.135-.047c.06-.051-.117-.219-.14-.24-.022-.022.06-.044.3.06l.189-.134.024.002a.908.908 0 01.217.146c.04.039.23.016.266.019.064.02.123.051.177.092.057.04.294.02.374.066l.106-.029.06.004a.523.523 0 00.203-.057c.033-.022.216.099.27.138.053.04.404-.072.401-.04a.577.577 0 00.397.028l.081.045.127.073a.253.253 0 01.101-.14.986.986 0 01.326.07l.144-.058c.156-.06.28.092.462.068.16.002.318.036.464.1l.051.004c.162.016.325.017.487.002a2.62 2.62 0 01.794.055c-.003.048-.13.154-.278.152-.147-.002-.477.497-.395.454l.038-.02c.058-.037.109-.077.163-.113l.068-.055c.087.006.167.012.18-.02.015-.03.215.016.23.04.013.025.143.11.198.014l.002-.027c-.12-.331-.076-.404.33-.491.105-.029.187-.126.293-.147l.113-.02c.143.01.261.082.266.13.005.048.048.175.073.156a.135.135 0 01.15.011l-.001.024-.066.095a.54.54 0 00-.152.284l.06.004a.343.343 0 00.183-.119c.032-.05.149-.18.157-.128.008.052.095.19.186.196.091.006.404-.075.449-.2l-.245-.04-.244-.045c.012-.179.072-.298.114-.26a.85.85 0 00.389.14l.121-.02.06.004c.068-.063.144-.066.174.012s.035.241-.1.172l-.083-.005a.162.162 0 00-.141.021c-.024-.001-.006.084-.008.111-.002.028.1.123.144.118l.264-.014c-.037.19.012.292.111.231l.179.132c.085-.108.192-.198.313-.265.21.024.417.07.617.139l.135-.102c.061.032.095.07.078.085s-.055.096.03.09c.084-.007.305.02.311.045.007.024.038.146.058.143.02-.002.051-.048.067-.095.015-.046.214.015.272.043.086.186.138.385.154.588-.007.108.14.408.25.416l.094.035c-.004.059-.059.099-.078.086-.019-.014-.119-.009-.135.058a.321.321 0 01-.277.192c-.12-.009-.354.218-.284.235.071.017.377.026.396.051.037.06.063.127.074.197a.152.152 0 01-.15.025l-.045-.031-.02-.001c.003-.048-.047-.071-.104-.056-.057.017-.144.118-.065.183.08.066-.019.274-.016.238a.072.072 0 00-.127-.009c-.037.07-.29-.02-.337.029a.227.227 0 01-.29-.069l-.183.04-.028-.002a.301.301 0 00.14.236l-.076.103-.021.026c.07.085-.011.155-.139.154l-.11-.008-.193-.045c-.037.12-.126.15-.196.066l.022-.325c-.18.07-.302.154-.264.192.037.039.085.15.061.2a2.12 2.12 0 01-.11.207c-.1 0-.199-.008-.297-.02l-.707-.05-.077.075-.094.088a.662.662 0 00-.373-.026c-.09.03-.414-.068-.536-.037a3.159 3.159 0 01-.743.008l-.115.104-.099-.007c-.032-.002.014-.198-.16-.17-.055-.004-.08.117-.141.14-.062.024-.197.023-.29.048-.094.026-.247.107-.259.098-.088-.102-.149-.034-.242-.017l-.178.036a9.548 9.548 0 00-.424-.273c-.076-.045-.232.183-.267.224-.035.042-.278-.019-.37.046-.092.066-.412-.156-.505-.198-.093-.042-.53.102-.804.091l-.247-.069-.105-.03a.567.567 0 00-.281.027c-.042.025-.216-.054-.25-.073-.035-.018-.34-.06-.608-.106a3.48 3.48 0 00-1.03.072c-.002.036-.077.19-.089.13-.011-.062-.08-.226-.127-.233a3.887 3.887 0 00-.573.032l-.202-.134-.087-.061c-.186.046-.38.053-.568.02l-.098.029-.081.022-.445-.03-.139-.01-.08-.006a.187.187 0 00-.224.024c-.032.054-.159.212-.17.195a9.32 9.32 0 01-.14-.276l-.13.027-.194.046c.099.089.184.191.254.304.035.07-.178.207-.258.157a.797.797 0 00-.468-.1c-.095.045-.38.117-.33.156.049.04.195.122.213.095l-.057.076c-.071.102-.004.398-.12.39-.114-.009-.368.133-.365.09.003-.044-.023-.177-.063-.184a.945.945 0 00-.21-.015c-.04-.002-.052.124-.046.149.006.024-.04.06-.13.026l-.052-.047-.03-.03a.273.273 0 01.144-.177c.07-.035.243-.167.198-.21a.397.397 0 01-.079-.248 1.18 1.18 0 01.102-.256.28.28 0 01.237-.027c.03.034.144.106.173.096l.092-.113a.563.563 0 00-.31-.309l-.109.076c-.03.022-.1-.006-.149.018l-.137.022-.299-.12a.554.554 0 00-.244.067c-.07.035-.452-.088-.544-.038a1.45 1.45 0 01-.6-.042l-.092-.042-.22-.1a.727.727 0 00-.255.099c-.087.053.035.364-.03.447a.86.86 0 00-.09.353c-.002.043-.174-.013-.275-.047l-.1-.007-.11-.008a.399.399 0 01-.197-.273c.005-.075-.063-.29.05-.315.113-.024.4-.02.34.052l-.032.053a.967.967 0 00-.093.185l-.003.048a.14.14 0 00.128.104l.036.003.272-.12c-.019-.253-.184-.46-.367-.46l-.166.024-.125.023c-.115 0-.23-.009-.345-.024l-.052-.004c-.137-.033-.147-.01-.106.088l.03.09a.219.219 0 00-.183.17c-.005.072-.062.255-.116.224l.002-.024.008-.111c.009-.135-.02-.244-.07-.248-.053-.004-.183.043-.168.108.016.065-.059.27-.164.299a.976.976 0 01-.43-.13c-.034-.026-.126-.14-.122-.203.005-.063-.063-.24-.153-.27a.95.95 0 00-.363-.053l-.016.23-.022-.133zm.187-4.47c-.111-.008-.17-.076-.136-.162l-.135-.009c-.04-.003-.095.045-.137.078l-.056.048c-.056.06-.137.082-.182.047-.046-.035-.185-.1-.188-.053-.004.048.066.192.165.199a.944.944 0 01.392.11c.02.05.145.142.22.108.074-.035.165-.363.057-.37v.003zm5.562.327c-.091-.007-.137-.09-.104-.159.032-.07.092-.292.106-.331.015-.039-.226-.127-.215-.059.011.069-.016.238-.06.243-.045.005-.156.049-.147.093a.23.23 0 01-.178.21l-.116.009-.214.037c.024.117.114.199.203.177.187.037.368.1.538.185.047.003.2.046.202.014.002-.032.069-.127.133-.082.065.044.275-.041.259-.098a1.062 1.062 0 00-.41-.24h.003zm9.329-2.198c-.143-.126-.26-.27-.257-.325a.318.318 0 00-.25-.232l-.118.015a.688.688 0 00-.251.114l-.005.08c-.001.008.099.062.128.048a1.75 1.75 0 00.208-.12s.025.04.078.076 1.076.298.98.192l-.109-.043-.155-.059a1.52 1.52 0 00-.496-.034l-.003.035-.005.08c.029.119.075.233.136.34l.066.076a.166.166 0 00.133.045c.125-.031.004-.071.007-.107l.005-.08c-.026-.14.039.023-.108-.102h.016zm-69.16 1.275a.198.198 0 01-.181.138.198.198 0 01-.08-.013c-.088-.042-.34-.107-.345-.024-.006.084.06.24.157.214.097-.025.623-.355.525-.214l-.084.114-.002.031c-.041.021-.04.053-.004.064.087.025.171.06.252.1.089.047.286-.09.315-.053.03.038.122.14.143.13a.25.25 0 00.014-.206l-.018-.09a.895.895 0 01-.01-.251l.006-.083c.052-.124-.055-.131-.235-.017l-.038-.022-.13-.073c-.129.011-.23.143-.286.255zm46.759-3.611l-.296-.216a.396.396 0 01-.076-.176l-.024-.05a.26.26 0 00-.105-.099l-.096-.006c-.083.11-.186-.013-.276.008-.089.022-.317.038-.32.074-.014.202-.21.089-.316.13 0 0-.035.04-.045.068-.045.132-.13.098-.22.024l-.054-.043a.222.222 0 00-.246-.018l-.001.024.003.072c.09.117.205.213.335.282l.107.008.194-.027c.197-.085.404-.079.428.03l.09.038c.073.033.204-.021.313-.03a.77.77 0 01.107.008l.139.01c-.026-.09-.024-.17.012-.183.037-.013 1.077.29 1.251.314l.133-.022.076.005a.317.317 0 00.02-.278c-.036-.062-.255-.077-.352-.116-.097-.038-.475.119-.694.123l-.048-.226a.175.175 0 00-.134-.081c-.126.031-.005.071-.008.107l-.003.047a.5.5 0 01-.156.173c-.059.043.09.269.187.36l.075-.17.002-.025c.09-.085.142-.033-.002-.139zm-18.348-.966c-.14.296-.224.414-.19.261l-.048-.047a.53.53 0 00-.316-.11c-.198-.013-.416-.1-.605.038l-.025.018a3.383 3.383 0 00-.532-.037l-.198-.014-.072-.005a.375.375 0 01-.158-.074.255.255 0 00-.245.074c-.085.082-.397-.027-.437.026.1.077.206.147.317.209l.111.008.102-.025c.101-.029.197-.026.206.014.01.04.065.104.1.107l.26-.058c.19.021.384.006.57-.044l.029-.026c.025-.018.063-.043.086-.038.024.006.19.09.231.068l.223-.112c.236-.17.41-.162.397.028l.068.116a.424.424 0 00.332.047l.155-.112c.095.07.205.116.322.133.068.005.26-.12.36-.062.1.059.291.279.38.261.09-.017.014-.19.055-.215.042-.025.013-.19-.27-.293l-.276.052a.29.29 0 01-.174-.012.58.58 0 00-.498-.075c-.126.035-.162.037-.232-.04l-.028-.061zM9.284 18.086c.229.27.28.513.114.538l-.154.04-.285.076a1.589 1.589 0 00-.233-.255c-.032-.002-.123-.008-.14.05l-.005.08c.075.077.03.097-.102.04s-.49-.074-.447.116l.174.072.245.097c.257-.078.523-.067.591.041l.179-.043a.115.115 0 01.051.004l.216.058.418-.281c.075-.047.342-.032.369-.078l.002-.028a.191.191 0 00-.128-.049l-.052-.003c-.066.035-.123-.009-.122-.084a1.138 1.138 0 00-.023-.293s-.088.05-.12.123a6.07 6.07 0 01-.85.34 1.62 1.62 0 00.427-.409l.193-.078c.086-.034.065-.067.009-.123-.056-.055.006-.095.01-.146l.002-.028c.002-.036-.04-.067-.107-.067l-.232.29zm48.513-3.242c.08.006.122-.04.098-.089-.025-.05-.146-.145-.211-.122-.066.023-.175-.187-.21-.25l-.274-.019c.07.077.072.169.014.204a.737.737 0 01-.397-.027l-.13-.033-.113-.032c-.102-.079-.167-.012-.14.106l-.214-.015-.043-.003c-.053-.095-.146-.134-.21-.09-.062.043-.252.137-.265.097a.164.164 0 00-.204-.05c-.087.041-.324.12-.334.092-.01-.029-.065-.1-.094-.086-.029.014-.11-.008-.12-.044-.01-.037.002-.04-.008.107l-.25-.181a.749.749 0 00-.398-.028l-.067-.005a1.04 1.04 0 00-.196.242l-.048-.004a1.103 1.103 0 00-.39-.122l-.024-.002c-.04-.102-.105-.155-.14-.113-.035.041.122.255.45.37l.291.044.103.007.576.04a1.32 1.32 0 00.301-.023 4.46 4.46 0 01.753.009l.25.017c.241-.075.432-.01.421.149l.24-.179c.098.066.21.112.326.135a.948.948 0 00.427-.118l.162.011.068.005zm-9.791-.211c.097-.141.102-.26.019-.27a2.926 2.926 0 00-.529-.037l-.122.035a.703.703 0 00-.322.046l-.151-.063a3.162 3.162 0 00-.43-.117.144.144 0 00-.094.017c-.097.081-.158.033-.266-.018a.797.797 0 00-.488-.034c-.115.044-.178-.132-.29-.02-.044.052-.266-.019-.399-.004l-.087-.006a.202.202 0 00-.04.105.18.18 0 00.217.11l.087.006c.095.007.167.127.261.146a.625.625 0 00.4-.024l.091-.042c.16.02.318.052.472.097.106.031.364-.074.369-.022.004.052.155.118.315-.002l.197.037.15.011c.155.046.313.078.473.093l.043-.037.124-.008zm3.9-.087c.004-.064-.119-.076-.274-.02l-.135-.136-.093-.098a1.806 1.806 0 00-.305.146c-.042.032-.26-.114-.278-.127a.369.369 0 01-.07-.085c.002-.036-.201.022-.267.101-.065.08-.4.036-.36.019.041-.017.006-.08-.097-.098-.102-.02-.334.155-.445.211l-.117-.04-.144-.05c-.176-.06-.219-.015-.096.058l-.004.051-.061.255c.223.059.43.073.456.031.027-.041.152-.12.214-.088l.053.035a.53.53 0 00.51.016l.205-.085a.965.965 0 01-.161-.199c.123.02.242.059.355.113l.158.074c.028.002.078.03.08.046.004.016-.01.142.13.148l.115.008a.271.271 0 01.164-.12l.036.003.13.009a.283.283 0 00.297-.179h.003zm17.714 4.788c-.05.04-.066.084-.038.093.027.01.08.062.042.079l-.032-.002-.028-.002c-.029.022.025.165.114.314l.195.014.35.06c-.147.121-.234.215-.19.206.11-.029.218-.068.32-.117.08-.05.159-.276.125-.306-.034-.03-.16-.115-.18-.172-.02-.057-.103-.238-.188-.268a1.1 1.1 0 00-.49.101zm-57.607-.855c-.028-.05-.135-.057-.246-.017-.11.04-.225.195-.191.114.033-.081-.255-.3-.355-.284-.101.017-.36.119-.365.198a.318.318 0 00.334.242l.093.154.108.171c.125-.083.304-.19.415-.238.111-.048.232-.294.208-.34zm40.631-3.66c.253-.021.428-.073.407-.118a.155.155 0 01.052-.224l.003-.043c.035-.11-.093-.094-.172-.104a.74.74 0 00-.21-.014l-.082.026a.303.303 0 01-.27.04c-.078-.032-.229-.043-.128.06.1.102.148.456.186.47l.214-.092zm9.418.417c.227-.103.387-.28.353-.373-.033-.094-.426-.07-.469-.085-.007-.243-.186-.128-.322-.118l-.06-.004c-.075-.005-.138.038-.144.125a.293.293 0 00.235.242.28.28 0 00.119-.002l.06.052.228.163zm12.293 3.643a.12.12 0 00-.052-.17l-.052-.004-.043-.003a.398.398 0 01-.286.036l-.048.064-.026.03c.076.108.145.22.208.337l-.118.088a.167.167 0 00.2.041l.082.082a.29.29 0 00.206.086l.098-.037a.792.792 0 01-.133-.26l.071-.055.03-.022c-.01-.024-.177-.151-.137-.212zm-65.52-5.583c-.067-.005-.054.036.03.094.084.057.346.072.38-.07l.184.113c.164.099.302.176.382-.057l.003-.032c.112-.016.085-.085-.057-.155l-.108-.008-.087-.005c-.108.068-.193.078-.189.018l.003-.036.003-.043a.132.132 0 00-.167-.012l-.003.04-.027.046c-.065.071-.275.112-.346.107zm35.883 1.12a.215.215 0 00-.29-.148c-.118.043-.512-.135-.618-.159l-.066.028-.09.037a.284.284 0 00-.063.263l.04.003c.074.01.149 0 .217-.03l.052.004a.182.182 0 01.162-.028c.055.004.258.125.386.182l.124-.067.146-.085zm17.425 8.603c.093.035.094.079-.007.1-.101.02-.361.146-.37.209l-.007.107a.146.146 0 00.06.1.148.148 0 00.115.023 1.88 1.88 0 00.416-.242c.113-.083-.029-.4-.14-.407l-.397-.028c.107.053.217.1.33.138zM19.236 18.4c-.083-.07-.166-.087-.185-.036l-.002.027-.063.219.442.23.024.002a2.73 2.73 0 01.284-.064c.083.006.214.074.244.053l.114-.092a.42.42 0 00.262.018c.025-.022.007-.107-.117-.151a2.273 2.273 0 00-.53.054c-.064-.004-.224-.063-.164-.119.06-.055-.227-.067-.31-.14zm56.648-8.828c.168-.112.272-.228.234-.258a2.098 2.098 0 00-.41-.256l-.165.032-.23.044c.095.118.163.23.146.25-.017.018.05.138.188.22l.103.006.135-.038zM7.728 18.448c-.067-.005-.128-.105-.136-.225l.046-.08c.04-.065.11-.104.01-.155a1.143 1.143 0 00-.286-.068s-.055.096-.051.1c.167.068-.04.169.042.262l.07.08a.266.266 0 00.24.28l.119.009.051.003a.092.092 0 00.01-.147l-.051-.003-.064-.056zM18.985 4.752a.218.218 0 00.037-.24.423.423 0 00-.36-.117c-.13.035.262.424.323.357zm-3.31 12.696c-.002.04.032.002.08-.102.047-.105.355-.242.354-.278-.044-.003-.124-.049-.137-.038l-.12.123a1.87 1.87 0 00-.512-.035c-.117.016-.114.263-.018.245l.086-.017.084-.015a.167.167 0 01.184.117zm64.775.526c-.14.066-.133.19.013.275l.067.005c.072.005.12-.115.165-.184l.08-.114c.107.056.22.052.247-.01.029-.062-.433-.022-.573.047l.001-.02zm-7.92-.329c-.139.047-.196.122-.12.175.076.053.436-.188.544-.36l.225-.028.006-.08-.024-.001-.293.031.009-.135a.2.2 0 00-.128-.048l-.134.026c.073.05.074.38-.085.42zM3.142 19.1c.069.04.067.128-.013.19-.08.063-.184.227-.116.231.067.005.26-.065.286-.163a.92.92 0 00.03-.42c-.037-.05-.174-.14-.233-.104-.058.036-.007.227.062.267h-.016zm67.823.52a.13.13 0 00.09-.047.127.127 0 00.027-.097.918.918 0 00-.2-.34l-.076-.053c-.043-.003-.067.047-.052.064a.095.095 0 01-.056.115c-.061.024-.251.174-.179.223.139.072.29.117.445.134zm-56.062-.992c-.166-.011-.298.04-.292.124.007.084-.136.3-.128.349l.032.002c.047.01.097.006.14-.014a.277.277 0 00.113-.115c.043-.109.064-.123.09-.094.102.13.169.04.232-.011.063-.052.012-.175-.073-.209l-.114-.032zm9.77.227c-.057-.088-.156-.051-.217.08l.14.01.299-.003c-.013.182-.012.174.035.002l.177-.008.276-.016a1.2 1.2 0 00.021-.305c.003-.036-.06-.048-.087.045-.026.094-.584.254-.642.179l-.002.016zm-23.515.378c.01-.155-.038-.254-.077-.22a3.79 3.79 0 00-.295.286.742.742 0 00-.033.475.176.176 0 00.179-.047c-.21-.194-.058-.31.117-.414l.109-.08zM72 19.106c-.123-.009-.179.115-.126.274l-.117.131s-.004.056.03.074a.112.112 0 00.092.006c.062-.023.164-.064.162-.092l-.028-.229c.233-.083.112-.171-.011-.18l-.002.016zm-57.619-.96c.052.06-.027-.002-.178-.124l.21-.16s.003-.04-.027-.062a.111.111 0 00-.052-.003c-.149.017-.298.03-.443.06l-.11.02c-.114.044-.12.072-.003.06.212.025.417.09.604.193v.016zm22.5-4.188c-.218.04-.337.152-.264.252l.089.038c.112.044.101-.084.147-.109l.129-.075c.114.047.235.073.358.077.031.002.111-.056.085-.085a.698.698 0 00-.273-.147l-.093.018-.177.03zM6.526 19.093c.04.003.037.05-.004.067l-.002.024a.31.31 0 00-.01.146c.03.013.063.015.095.007a.167.167 0 00.074-.094l.015-.21c.055-.15.087-.308.096-.467l-.067-.005a.592.592 0 00-.222.148.452.452 0 00.01.383h.015zm-1.083-1.17c-.062-.085-.109-.104-.104-.052a.446.446 0 00.315.233l-.076.166a.32.32 0 00.08.046.113.113 0 00.052.003l.052.004c.083.006.142-.098.122-.21l-.059-.065c-.056-.055-.183-.06-.277-.09l-.105-.036zm10.079.49c-.179-.069-.326-.079-.33-.023a.298.298 0 00.301.204c.172-.012.44-.248.28-.248l-.133.031-.118.036zm33.025-3.922c-.091-.062-.166-.012-.16.072l.05.075.04.063a.124.124 0 00.194.014l.005-.064c.008-.115.131-.054.204-.07l.048.004c.046-.04.061-.083.035-.101-.027-.018-.34.068-.432.006h.016zM8.5 18.127c.089.046.173.044.183.013a.627.627 0 00-.154-.373l-.121-.084a.246.246 0 00-.141-.042.399.399 0 00-.164.056s.033.102.045.103c.173-.02.12.108.176.167.056.06.226.016.18.164l-.004-.004zm-4.54.879c.11.007.12-.076.012-.179l-.098-.082a.187.187 0 00-.14-.01c-.028.018-.054.092-.035.11.094.09.13.136-.065.134-.024-.002-.052.116-.068.178-.017.063.027.066.047.071l.047.004c.041-.017.161-.248.284-.24l.015.014zm58.813 4.093c.004-.06-.049-.051-.113.012a.325.325 0 00-.02.301.978.978 0 00.311.102c.083.005.11-.208.073-.246l-.06-.004-.067-.005c-.075.046-.14-.105-.14-.153l.016-.007zM.123 18.794c.131-.05.228-.127.215-.168-.013-.04-.068-.112-.098-.074-.03.037-.119-.128-.143-.177-.025-.05-.1-.175-.116-.172a.17.17 0 00-.01.139c-.005.067.01.267-.047.275-.056.008.064.228.2.177zm11.799-.771c.294.07.601.06.89-.026-.328-.373-.578-.052-.89.026zm61.929 5.863c.206-.034.31-.098.225-.144l-.053-.035c-.028-.002-.044-.047-.071-.065l-.137-.093c-.145.073-.272.176-.28.235l.025.042c.037.04.088.065.143.07l.148-.01zm-71.15-5.278c.04.066.088.065.104.007.016-.059-.42-.268-.475-.173l-.006.091-.002.016c.05.036.332-.008.38.059zm2.93.203c.063-.039.078-.086.008-.107a.195.195 0 01-.074-.196c.004-.06-.196-.061-.219-.015a.952.952 0 00-.045.244c.023.021.265.094.332.043l-.002.031zm82.743 2.928c-.15-.01-.215.045-.142.097.072.053.406-.099.306-.161l-.075-.073c-.037-.03.212-.065.01-.127-.118-.04-.155.04-.137.122l.038.142zm-82.32-2.014c.09-.022.047-.045-.092-.054l-.273-.02c-.022.112-.03.225-.024.338-.002.023.065.104.08.049a.855.855 0 01.31-.333v.02zm10.429-.807l.103.007c.04-.065.105-.132.102-.2a.646.646 0 00-.093-.273.173.173 0 00-.135-.01l-.06.06a.338.338 0 00-.044.24c.043.056.091.109.144.157l-.017.019zm-14.926.247c.036.114.125.164.196.113.071-.05.021-.305-.008-.398-.03-.094-.202.157-.17.266l-.018.02zm61.202-.017c.156-.12.23-.26.169-.303-.06-.044-.263.105-.266.208l-.17-.012c-.028-.002-.106.085-.096.11.045.102.091.006.135.009l.228-.012zm13.174.797a.21.21 0 00.183.12l.158.011a.117.117 0 00.035-.087.117.117 0 00-.043-.084l-.246-.018c.05-.096.1-.18.105-.191.005-.012.004-.056-.043-.071l-.027-.002c-.17.032-.217.124-.147.269l.025.053zm-18.769-.944c.032.002-.01-.24-.097-.488l-.085-.042a.184.184 0 00-.103-.007l-.024-.002c.008.127.046.25.11.358l.078.153c.03.014.064.016.095.007l.026.021zM1.84 8.106c-.033-.042-.14-.045-.23-.016-.09.03-.237.195-.154.264l.08.006.135.01c.167-.057.205-.205.17-.264zm10.665 10.356c.006-.076-.068-.045-.184.066l-.094.09c-.056.119-.016.225.108.23.123.005.158-.32.17-.386zm-6-2.986c.2-.046.289-.188.202-.317l-.203.11-.095.052c-.179-.012-.327.05-.324.121l-.004.068c.027.002.11-.033.191-.114l.036.002.198.078zm7.545 3.2c.142.082.28.096.31.022.029-.073.091-.28.023-.333-.068-.052-.186-.013-.216.065l.064.06-.004.06-.177.127zm64.278-.703c.11.008.206.015.221-.028l.006-.08c.003-.043-.11-.087-.225-.099-.115-.012-.1.189.005.216l-.007-.009zm-63.673 1.753a.16.16 0 00.078-.138l-.254-.017a1.624 1.624 0 00-.456-.215l-.002.02-.005.083c.116.056.231.111.348.16.087.043.178.077.272.102l.02.005zm21.06-5.224c-.05.036-.003.06.077.049.08-.01.184.228.241.264a.283.283 0 00.096-.125l.04-.157a.606.606 0 00-.453-.031zm42.663 5.665c-.127-.009-.19-.013-.15.033.1.053.206.095.315.126.095.006.235-.219.29-.263a.501.501 0 00-.15-.153l-.023-.002c-.072-.005-.154.268-.281.26zm-59.08-2.559c-.059-.004-.07.055-.007.115l.035.003c.064.004.139-.034.201-.022l.096.006c.096.047.21.015.245-.026l-.022-.026c-.037-.05-.143-.07-.175-.12l-.037-.054.01-.138a.12.12 0 00-.057.075.489.489 0 01-.288.187zm52.668 3.666c.005-.072-.072-.1-.174-.068a.529.529 0 00-.227.279l.022.025c.022.026.075.061.104.055l.08.006a.484.484 0 00.195-.29v-.007zM16.288 17.53c-.045-.095-.092-.166-.108-.159a.294.294 0 00-.064.167c-.005.075.047.294.133.276l.041-.029c.034-.025.007-.09.06-.107.053-.016.092.166.163.011.07-.154-.074-.089-.147-.125l-.078-.034zm-.271 1.606c-.042.08.031.07.165-.024.134-.095-.17-.49-.135-.408a.954.954 0 01-.045.423l.015.01zm11.255-.355c.056-.064.041-.137-.033-.162-.074-.025-.23.095-.198.157.031.062.155.059.215-.005l.016.01zm-16.824-.216c.051.115.182.073.29-.099l-.164-.06-.113-.039c-.127-.009-.196.014-.149.077l.06.052.076.07zm8.104.258c.071-.051.04-.113-.074-.137l-.042-.027-.13-.076c-.146.025-.24.11-.201.189.038.078.355.104.432.042l.015.009zm-12.675-.166c-.05.045-.008.127.056.18a.628.628 0 00.427-.066c.047-.049-.018-.197-.044-.167s-.13.087-.164.057a.37.37 0 00-.29-.013l.015.01zm4.48-1.03a.797.797 0 00-.63.052c.257.209.257.209.615-.06l.015.008zm64.878-8.18c.038-.029-.019-.129-.133-.216L75 9.224c-.075-.006-.18.055-.258.101 0 0-.008.107.016.109l.06.004c.067.005.13.01.14.054.009.044.24-.012.278-.045zm-19.398 9.307c.165.035.31.021.325-.077l-.032-.054-.047-.071a1.587 1.587 0 01-.318-.023l-.04-.002-.047-.004a.107.107 0 00-.01.143l.036.003.133.085zM17 18.774c-.05.092-.058.1 0 0l.166-.028.21-.037c-.133-.157-.336-.043-.375.065zM49.73.012c.224-.06.347 0 .28.107l-.037.076c-.043.099-.111.087-.199.043a.203.203 0 00-.111-.023c-.056.031-.103.115-.155.115-.18 0-.156.175-.267.194-.207.036-.103-.194-.25-.222-.048 0-.112-.044-.14-.032-.115.052 0 .08.028.12.028.039-.028.043-.048.051s-.1 0-.1 0a3.056 3.056 0 01-.119-.397V.012c.064-.036.24.067.398.238l.287-.047a.721.721 0 00.334-.096l.1-.095zM10.912 2.13c-.187-.025-.246-.084-.13-.132.114-.047.35-.163.254-.143-.096.02-.287-.06-.187-.119.1-.06.529.095.58.103.053.008.216-.024.184-.083-.032-.06-.044-.238.044-.262h.043l.112.04c.1-.032.167.031.147.142l-.103.076a.598.598 0 01-.49.17.482.482 0 00-.334.088l-.12.12zM24.726.882c.084.032 0 .091-.16.139l-.158.032a.434.434 0 00-.319-.151c-.115 0-.426-.08-.398-.171V.632c-.143-.04-.187-.076-.095-.076.091 0 .314.032.322.072a.159.159 0 00.195.075c.212.032.418.092.613.179zm29.271.548c0 .04.04.06.135.044.096-.016.35-.02.35.044 0 .063-.06.25-.127.282-.068.031-.207-.16-.239-.203l-.067.052a.123.123 0 01-.203-.028l-.056-.084a.72.72 0 01-.14-.19s.04-.064.08-.044h.04a.582.582 0 00.143 0h.052c.068 0 .068.083.032.127zM14.864.942a.095.095 0 00-.147.047c-.032.068-.179.254-.247.246l-.028-.031-.063-.076c-.096-.055-.124-.123-.056-.147.124-.085.258-.156.398-.21.143-.028.426.19.398.214a.478.478 0 01-.255-.043zm6.933.628c-.028-.037 0-.144.06-.243h.266c.052.087.14.147.2.123.059-.024.262-.04.27.032.008.071-.064.282-.171.294l-.068-.028-.147-.052a1.037 1.037 0 01-.334-.087l-.044-.032-.032-.008zM17.344.886C17.252.822 17.16.81 17.14.854c-.02.044-.096.064-.136-.032h-.151c-.024-.055 0-.087.064-.063h.067c.112 0 .227-.115.347 0 0 0 .08-.028.115-.056l.056-.04a.474.474 0 01.33.306l-.167.096h-.024c-.048 0-.095-.064-.103-.135h-.124l-.071-.044zm3.207.508c.04-.031.116 0 .172.072.055.071.143.199.08.131-.065-.068-.355.024-.43-.048l-.124.084a.203.203 0 00-.108.226c0 .076 0 .111-.107.084-.107-.028-.072-.072-.107-.112l.13-.238h.136c.116-.04.319-.17.358-.199z"/>
    <path d="M19.41 10.861c.079-.135.198-.218.27-.183.071.036.135.18-.116.175h-.334c-.199.048-.366.048-.37 0-.004-.047.12-.214.29-.238l.06.051.2.195zM37.859.282c.131.143.08.266-.115.266h-.235a.31.31 0 01-.127.167c-.052 0-.148-.048-.2-.071-.051-.024-.234-.08-.199-.171h.152c.161-.017.323-.025.485-.024l.048-.04.191-.127zm.494.846c.051-.055.1-.043.103.028l-.076.076a.932.932 0 01-.477.178l.175.187.036.044a.35.35 0 01-.398.143l.175-.135s.028-.028.02-.036l-.175-.258c.214-.05.42-.127.617-.227zM13.547 1.08c-.31 0-.505-.063-.434-.127.072-.063.1-.357.18-.325l.043.04a.313.313 0 01.111.174c.032.219.192.14.33.103h.06c.088-.035.112.024.052.132h-.083l-.259.004zm20.213.795c0-.056.06-.06.127 0 .068.06.235.223.203.242-.032.02-.179.076-.203.024l-.043-.04-.108-.103a2.08 2.08 0 01-.274.195h-.076c-.04 0-.104-.032-.111-.06a.108.108 0 01.043-.107l.064-.04c.096-.012.374-.051.378-.11zM40.84.6c-.135.04-.255 0-.259-.076-.004-.075.22-.206.227-.163.008.044.111.1.211.024l.123.112c.067.051.137.098.211.139C41.337.679 40.98.56 40.84.6zm1.035 1.33c.12 0 .223-.039.23-.107.009-.067.08-.178.136-.107.056.072-.092.346-.279.378l-.175.023h-.032a.127.127 0 010-.162h.044l.076-.024zm4.655-.834c0 .084-.146.151-.282.151h-.171a.198.198 0 01-.051-.166c0-.032.031-.14.099-.163.04.04.044.103.084.139l.027.024h.108V.969c.02-.067.203.044.187.127zM36.792.41c.048.035.052.075 0 .095-.051.02-.179.103-.127.123.052.02.12.087 0 .087s-.446-.048-.398-.107l.06-.036c.08-.048.19-.067.25-.127l.044-.048c.008-.08.124-.043.171.012zm-4.278 2.128c-.17-.047-.242-.135-.163-.19.08-.056.064-.397.056-.457v-.04c0-.032.051-.075.087-.075s.12.036.115.047l-.051.167c.143.092.139.215 0 .274v.064l-.044.21zM6.415 8.569c.056.052.028.091-.067.091-.096 0-.287-.043-.251-.095.036-.052-.076-.179.02-.179.095 0 .298-.111.314-.08.016.032-.075.211-.016.263zM22 10.61c.147 0 .21.06.143.14-.067.08-.314.226-.398.155-.083-.072 0-.342.092-.314h.087l.076.02zm-4.394.08c.211-.095.398-.13.398-.075 0 .055.29.032.31.06v.023l-.02.06-.322.048c-.107 0-.398 0-.378-.068l.02-.048h-.008zM46.328.373c-.056-.083 0-.075.135 0l.148-.139.031-.027c0-.024.032 0 .076 0s.127.143.1.162c-.028.02-.16.088-.172.064-.012-.024-.087-.064-.107 0l-.036.036-.024.028c-.063 0-.107-.028-.095-.064V.409l-.056-.036zm39.909.656c-.04-.084 0-.14.04-.127a.797.797 0 01.29.143c.052.06 0 .278-.1.278l-.087-.036-.104-.04a.2.2 0 01-.23 0c.04-.06.119-.103.159-.162l.032-.056zm-36.375.572c-.036.067-.08.036-.1-.068-.02-.103 0-.397.064-.425.064-.027.207.243.263.306.056.064.219.286.155.274-.064-.012-.346-.15-.382-.087zm9.488 0c-.052 0-.076-.048-.052-.111.024-.064.215 0 .259-.028l-.036-.076c-.056-.095-.032-.174.056-.174.087 0 .214 0 .107.027-.107.028.068.279.08.342l-.06.06-.084.087a.625.625 0 00-.27-.127zm-37.696-.095a.211.211 0 01.15.063l.033.024.044.032c.047.032.067.083.04.119l-.032.024-.04.032-.223.143-.072.031-.071.028c-.088 0-.12-.051-.076-.15l.072-.072.15-.143c-.13-.072-.031-.131.025-.131zm26.011.012c.163-.064.211-.048.112.031-.1.08-.26.398-.303.398a.606.606 0 01-.19-.028c.087-.167.22-.305.381-.401zm-18.542.147s-.027-.044-.027-.096c0-.051.087-.214.195-.214.107 0 .438.087.438.198h-.044c-.108.036-.287.1-.29-.107a.195.195 0 00-.128-.036c-.032 0-.068.052-.076.084v.051c-.008.076-.048.123-.067.12zm-15.138.067c0 .056-.08.068-.18.028-.099-.04-.33-.195-.274-.246.056-.052.247-.16.25-.072v.278c.12-.119.204-.048.204.012zm9.005 9.081c.049-.15.112-.234.14-.182.028.051.163.139.243.107.08-.032.23-.075.143 0-.087.075-.032.238-.032.175 0-.064-.258 0-.302 0h-.032l-.16-.1zM45.425.203c.1-.108.135-.12.083-.024-.052.095-.159.353-.227.353-.067 0-.234-.027-.222-.067a.319.319 0 00.274-.163l.092-.1zM22.326.842c.1.028.136.088.08.127-.056.04-.29-.071-.346-.107-.056-.036-.172-.187-.068-.234l.08-.032h.031c.044-.012.124.21.223.246zm.45-.099c.06-.163.135-.258.163-.21.028.047.314.186.299.238-.016.051-.251 0-.295 0-.044 0-.052.178-.127.194h-.144c-.087 0-.087-.051 0-.071l.024-.04.08-.111zm33.282.063c.124.028.06.048-.143.048l-.083.056-.156.107a.797.797 0 00-.342-.135h-.1c.144 0 .697-.076.824-.076zm-22.839.604a.95.95 0 010-.33h.056a.545.545 0 01.206.183c.092.122.165.256.22.398h-.125a.839.839 0 00-.254-.211l-.103-.04zm17.506.74c-.043.027-.023-.084.044-.243l.112-.024.135-.032c.187.072.33.179.322.239-.008.06-.262-.032-.326-.032h-.06a.986.986 0 00-.183.06l-.044.031zm27.353.222c0 .051-.087.047-.199 0a2.536 2.536 0 01-.43-.255c0-.035.028-.143.092-.107.064.036.207.159.195.215-.012.055.342.091.342.147zM29.868.64c0-.132 0-.259.075-.279.076-.02.207 0 .219.04h-.024l-.056.044a.182.182 0 00-.123.179c0 .067.223.186.242.21.02.024-.321-.063-.333-.194zM11.605.95c-.287.047-.434.031-.33-.04.103-.072-.048-.338-.024-.362.024-.024.107.04.103.199l.16.127.09.075zM40.9 2.03c-.132.044-.18 0-.1-.1.08-.099.33-.297.346-.178v.08c0 .087.068.214-.159.202L40.9 2.03zM24.885.747c-.14-.044-.12-.155.044-.254l.151-.024h.096c.131.075.087.107-.096.08v.21s-.063.032-.091.028l-.104-.04zM18.29.469a.203.203 0 01.22-.064c.067.028.199.12.143.14h-.16a.905.905 0 00-.107.218c-.012.043-.147-.23-.095-.294zm29.498-.02c.052 0 .124-.064.156-.143.031-.08.15-.274.183-.25a.178.178 0 010 .198c-.048.072-.255.306-.346.322L47.745.54c-.108-.095-.203.215-.251 0-.032-.139.147-.067.235-.083l.06-.008zm-21.51.218s-.036.032-.087.044h-.124a.087.087 0 000 .155h.108c.071 0 .055.076-.036.14h-.136a.874.874 0 01-.195-.16c-.027-.04 0-.175.084-.226h.171a.51.51 0 01.215.047zm.593-.012c.12.108.128.211 0 .23-.127.02-.374-.043-.378-.174l.195-.032.183-.024zm-8.847 1.844a.266.266 0 01-.072-.31l.028-.12c0-.039-.207-.083 0-.118.028 0 .1.06.108.099.008.04 0 .175 0 .262 0 .024.063.06.1.068.035.008.135.031.051.091a.239.239 0 01-.151.044l-.064-.016zm2.002 8.072a.16.16 0 01.275.072l.063.091c.052.075.14.056.215 0a.112.112 0 01.056.135h-.14c-.153-.02-.3-.072-.433-.15l-.028-.08-.008-.068zm21.809-8.386c.103 0 .159.052.131.087a.882.882 0 00-.103.203l-.084-.052a.26.26 0 00-.179 0c-.092.056-.183.123-.239 0l-.04-.099c.169-.055.34-.102.514-.14zm-11.824 8.358a.143.143 0 01.104 0h.024l.187.143c.047-.155.15-.25.23-.206.08.043.092.222.032.182-.06-.04-.282.064-.338.056a1.273 1.273 0 01-.239-.063.118.118 0 010-.112z"/>
  </g>
  <defs>
    <clipPath id="hBtF4AHrGa">
      <path fill="#fff" d="M0 0h89.751v29H0z"/>
    </clipPath>
  </defs>
</svg>
