<svg xmlns="http://www.w3.org/2000/svg" fill="none" viewBox="0 0 86 26">
  <g clip-path="url(#hkJB26sbqa)" fill="#fff">
    <path d="M24.945 25.278a.883.883 0 00-.285.328c-.053.111-.308.215-.268.143.04-.072.168-.291.192-.34.023-.05-.12-.171-.146-.252l-.037-.036-.092-.09-.153-.304c-.023-.045-.145.103-.178.179V25a.82.82 0 01-.06.314c-.043.121-.053.448-.07.48-.016.031-.076 0-.092-.045-.017-.045-.116-.17-.156-.229-.04-.058.152-.188.175-.233.024-.045.02-.12-.052-.063-.073.059-.292-.112-.332-.094-.04.018 0 .215.027.278v.126c0 .063-.11.094-.232.072h-.12c0 .143-.052.237-.079.22a.48.48 0 00-.268 0l-.053-.13c.093 0 .159-.077.149-.13-.01-.055-.106-.167-.162-.086a.822.822 0 01-.348.264c-.105.01-.21.01-.315 0a.142.142 0 01.103-.044c.056 0 .222-.104.222-.189s.238-.183.281-.192a.523.523 0 00.196-.113v-.022c0-.027-.05-.072-.063-.067-.225.104-.46.162-.699.17h-.162a1.346 1.346 0 01-.222.305c-.04.027-.126-.117-.15-.139a1.361 1.361 0 00-.158-.099c-.046-.022-.152-.112-.126-.143.027-.031.126-.085.162-.063v.032l.057.16a.98.98 0 00.278-.089.368.368 0 00.073-.197c0-.058-.18-.161-.239-.175v-.022c-.053-.328-.212-.144-.241-.032-.053.202-.226.22-.332.332l-.096.094c-.063.126-.126.175-.139.112v-.166a5.213 5.213 0 01-.37-.224l-.017-.076c-.043-.193-.15-.197-.288-.197-.06 0-.13-.085-.176-.067-.046.018-.07.112-.11.17-.052 0-.056.04 0 .08.057.04.146.162.103.211-.043.05-.357-.125-.33-.179l.016-.054c.053-.166-.02-.26-.17-.193-.148.068-.152-.067-.224-.076h-.093a2.31 2.31 0 00-.46.108l-.08-.05-.096-.067c-.102.02-.202.049-.301.085a1.094 1.094 0 01-.401-.085h-.282c-.072 0-.301-.027-.367.045a.352.352 0 01-.219.08.352.352 0 01-.218-.08l-.166.058-.116.036a2.75 2.75 0 00-.424-.027c-.19.028-.378.074-.563.14-.132.044-.546-.064-.709-.032l-.159-.103-.119-.072-.46.143c-.11.01-.221.01-.331 0a1.914 1.914 0 01-.385.027c0-.035-.069-.094-.106-.058-.036.036-.165.085-.211.032l-.047-.04-.03-.028a.136.136 0 00-.126.032c-.026.031-.115.09-.142.058-.026-.032-.155.027-.182.05a1.848 1.848 0 01-.308.084l-.126-.053c-.063-.027-.126-.068-.185-.099-.06-.031-.15-.184-.259-.04a.108.108 0 01-.09-.027c-.118-.148-.175-.193-.297.036l-.083.152c-.06-.18-.13-.296-.156-.251-.026.045-.122.134-.142.085a.524.524 0 00-.169-.184c-.053 0-.185.148-.219.193-.033.045-.142-.031-.159 0-.016.032-.05.05-.04-.04.01-.09-.195.058-.208.067-.136.05-.139-.233-.308-.139l-.09.05a1.934 1.934 0 01-.294 0c-.037 0-.169.03-.255.035-.086.005-.331-.08-.384 0l-.06.04-.033.027a.766.766 0 01-.232-.143c-.066-.058-.4.099-.434.045-.033-.054-.165-.144-.208-.085-.043.058-.19-.059-.216-.032l-.02.027c-.023.032-.046.094-.069.094-.023 0-.202.063-.192-.098v-.036c.09-.05.126-.117.086-.14-.04-.022-.169-.049-.199 0-.03.05-.165.18-.162.055v-.063a.203.203 0 00-.027-.08h-.076c-.076 0-.126-.041-.106-.135l-.132.04H6.5c-.02.031-.106.027-.19 0a2.207 2.207 0 00-.49-.027c-.089 0-.38-.148-.456-.139-.076.01-.275.063-.305-.036-.03-.098-.374-.157-.407-.148l-.163-.269c-.284-.04-.54-.08-.57-.094-.03-.013-.155 0-.254 0-.1 0-.524.023-.706.04l-.036-.255c0-.027-.076-.072-.093-.063l-.103.067a.83.83 0 01-.245-.174 1.356 1.356 0 00-.265-.157.788.788 0 00-.245-.081.097.097 0 01-.067-.02.151.151 0 01-.049-.065l-.033-.045a.116.116 0 00-.116 0 .727.727 0 01-.33.09c-.183 0-.094-.072-.084-.17.01-.1-.109-.113.037-.135a.566.566 0 00.195-.076c.07-.04.057-.081 0-.144l-.056-.063.252-.269c.082-.085.178-.421.089-.448h-.139a.325.325 0 01-.282 0c-.072-.045-.053-.448-.026-.592.034-.19.061-.38.08-.574a.438.438 0 00-.166.153l-.086-.148-.043-.077c.028-.1.065-.195.112-.282l-.08-.045h-.04c-.1.058-.16.045-.133-.036v-.242a2.348 2.348 0 01-.139-.448.648.648 0 01.07-.24.45.45 0 01.145-.168c.133-.072.133-.485.037-.449l-.06.054-.06.054c-.069.054-.201-.031-.297-.184l.05-.13c.01-.046.022-.09.036-.134.046-.095.102-.184.155-.274.053-.09.126.135.196 0l.02-.04c.082 0 .072-.067-.02-.099v-.04c0-.063.036-.14.076-.197.04-.059.08-.032.112-.054.034-.023.103-.251.024-.278a.17.17 0 01-.098-.057.275.275 0 01-.061-.118l-.02-.05c-.14 0-.126-.08.03-.143.155-.063.573-.332.765-.188l.238-.045c.047 0 .146.108.166.184l.046.188c.116-.054.176-.175.136-.264v-.077c.024-.234.058-.466.103-.695v-.049a1.24 1.24 0 01.175-.107c.033 0 .12-.157.179-.157a1.09 1.09 0 00.262-.054.687.687 0 00.119-.13c.026-.032.152.094.169.116.016.023.122.045.132-.049.01-.094.09-.251.166-.193.045.012.092.01.137-.005a.305.305 0 00.124-.08.113.113 0 01-.005-.072.1.1 0 01.013-.031.072.072 0 01.022-.023h.023c.106.05.226.238.262-.062.06.006.118.02.176.04.112-.01.223-.035.33-.076h.332c.083 0 .248-.193.182-.229-.066-.036-.205-.233-.172-.358.033-.126-.331-.48-.295-.49.037-.008.066-.12-.03-.205v-.256a.384.384 0 01-.251-.103l-.03-.05-.07-.12a1.067 1.067 0 000-.512l-.026-.134v-.045c0-.054.102-.045.202.027.136.027.276 0 .4-.08 0-.023-.02-.113-.082-.149h-.03l-.066.045c-.086.058-.143.054-.126 0v-.206a.285.285 0 01-.176 0c-.05 0 .05-.287.086-.422l.14-.031A.205.205 0 005 11.536l-.02-.305c.216-.116.332-.246.289-.287a1.013 1.013 0 00-.308 0c-.037 0-.298-.116-.5-.22l-.21.05c-.095 0-.105-.045-.132-.135l-.04-.139a.283.283 0 01-.123.095.216.216 0 01-.141.004 1.837 1.837 0 01-.408-.229l.073-.116a1.5 1.5 0 00-.122-.251c-.02-.027-.093-.063-.11-.027l-.026.027-.037.036a2.455 2.455 0 01-.215.107.548.548 0 01-.331.045c-.036-.036-.11-.206-.073-.278.037-.072.302.045.404.05v-.077c0-.076-.04-.255-.066-.255l-.467-.023c.063-.358.056-.659 0-.668-.056-.009-.182.153-.199.13l-.076-.08a1.5 1.5 0 01-.07-.157c-.026-.072.067-.323.097-.386v-.112a.135.135 0 00-.037-.077.075.075 0 00-.066-.022h-.073a.05.05 0 01-.048 0 .08.08 0 01-.035-.045l.063-.103c.106-.152.096-.233-.026-.175h-.07l-.043.05c-.149 0-.281-.063-.288-.126v-.045l.026-.47a5.026 5.026 0 00-.377-.39l-.037-.1a1.13 1.13 0 00-.072-.447l-.077-.036C.837 6.263.844 6.11.854 5.936v-.063c0-.12-.1-.17-.219-.112l.076-.157c.073-.148-.056-.143-.092-.201-.037-.059-.083.188-.123 0v-.027l.133-.094a.72.72 0 00-.11-.314l.03-.175c0-.045.037-.09.033-.13v-.05c-.026-.053-.02-.085 0-.076a.366.366 0 00.245-.085c.063-.067-.026-.327 0-.35.116.117.219.14.332-.026l.089-.14c.096.1.179.135.189.081a.612.612 0 01.308-.291l.106.242.053.125c.145-.139.242-.264.212-.273-.03-.009-.103-.072-.093-.108h.242a.065.065 0 00.054-.005.1.1 0 00.042-.048c0-.045.136 0 .146-.05.01-.05.079-.116.102-.063a.148.148 0 00.053.048c.02.01.042.014.063.011a.119.119 0 00.06-.026.173.173 0 00.046-.06l.05-.067.03-.04a.45.45 0 01.268.067c.08.04.358-.058.414 0 .056.059.218.148.281 0l.053-.09.05-.09a.457.457 0 01.272.055c.053.036.162-.144.225-.14a.799.799 0 01.268.077c.023 0 .136.058.162 0 .027-.058.15-.256.209-.229a.468.468 0 00.262-.036c.046-.027.185.05.208.027v-.107c.114.04.224.093.331.157v-.234c.093-.04.187-.073.282-.098.221-.003.442.01.662.04l.08.027c.083.027.136.148.139-.054 0 0 .096-.058.1-.054.099.157.248.032.278 0 .089-.134.215.05.314-.08l.037-.045.33.121a.59.59 0 00.233-.166c.086-.09.38.067.397.058v-.242c.16.048.325.03.477-.049l.103.184.05.09.33-.18h.09a.616.616 0 01.169 0h.39c.06 0 .256-.085.275-.058.02.027.096.09.113.054V2.39l.017-.032c.023-.031.05-.036.056 0a.35.35 0 00.063.121l.132-.04a1.99 1.99 0 00.332-.094l.02-.027.132-.17c.102.161.208.25.235.201.027-.049.113-.148.14-.12.026.026.082-.072.085-.26l.192.237.033.04a1.23 1.23 0 01.289-.031c.056 0 .192.04.195 0 .003-.04.205-.063.235-.023s.086-.03.083-.206l.212.22c.02.022.136-.063.208-.103l.037-.023a2.82 2.82 0 01.331-.143c.15-.058.54.188.573.188.117-.016.233-.04.348-.072.232-.024.466-.024.699 0l.04-.044.099-.099a.943.943 0 00.271.117h.166c.096-.058.194-.105.295-.144.159-.033.32-.049.48-.05h.172c.043-.022.086 0 .093.037.006.035.166 0 .189 0 .023 0 .119-.108.155-.068.06.06.135.085.209.072a1.34 1.34 0 01.37-.134l.034.058c.073.125.159-.126.238.036l.037.067a.338.338 0 01.291-.072c.037.032.143.099.153.068.01-.032.056-.104.08-.095a.087.087 0 00.063-.004.123.123 0 00.052-.05c.162-.042.326-.069.49-.08l.192.072a.56.56 0 00.547-.068l.09-.071a.907.907 0 01.33.12c.03.02.063.024.094.014a.145.145 0 00.079-.072c.053-.094.284.068.301.032.017-.036.083-.126.093-.063.01.063.06.13.1.05.039-.081.31.04.426 0l.133.026.179.036a.692.692 0 01.414-.112c0 .031.073.103.09.063a.31.31 0 01.138-.144l.126.14c.17-.023.34-.03.51-.023.11 0 .457-.054.537.031l.096-.152c0-.027.135.045.205.045h.209a6.45 6.45 0 00.712-.108l.119.161.026.032a1.46 1.46 0 01.265-.032c.067 0 .236.045.242 0 .007-.044.229-.022.305.081l.119-.13.04-.045.285.068c.046 0 .225.035.291.035h.06a.43.43 0 00.132 0c.05 0 .09-.053.136-.062h.026a.195.195 0 00.16 0 .435.435 0 01.288.12v-.188c.128.025.255.067.377.126h.265l.288-.161c.03 0 .14.067.182.174l.143-.058c.073-.031.205-.058.232-.022.115.166.155-.103.261-.036l.093.058c.126.007.252.031.374.072l.023-.027.143-.157a.489.489 0 00.33.085c.03-.031.143-.09.173-.04.04.065.081.126.126.184l.179-.099c.173-.046.35-.058.526-.036a3.3 3.3 0 01.484 0c.083.045.298-.107.374-.054l.206-.313c.199.106.405.186.616.237.066 0 .188-.031.182.058-.007.09.251-.085.33-.116a.457.457 0 01.26 0c.049 0 .178-.036.188 0 .01.036.073.107.096.072a.478.478 0 01.291-.13l.093.062.285.117.066-.054c.086-.076.17-.112.182-.08.063.07.13.132.203.183l.152-.166a.275.275 0 01.146.063.71.71 0 00.463-.058l.06-.067c.041.03.073.079.09.138.018.059.02.124.006.184l.195-.139.15-.103v.072c0-.094.228.05.238.045l.185-.045c.156.014.31.05.46.108.08.027.279-.099.309-.068.03.032.112.121.119.121a.242.242 0 00.08-.067.332.332 0 01.254-.058h.06c.033 0 .096-.067.106-.058l.1.103a.56.56 0 01.417 0l.115.045h.047a.294.294 0 00.169-.059c.033-.036.179-.045.222-.08.16-.002.32.017.477.058h.241a.319.319 0 00.259.022.368.368 0 01.251-.067l.07.04c.076.04.139.17.142-.04a.155.155 0 01.083 0c.17.038.344.051.517.04l.129-.022c.076.043.155.078.235.103a.997.997 0 00.222-.05c.208-.01.415.013.62.068.118.045.45-.18.53-.175a1.36 1.36 0 00.453-.099c.1-.053.331.18.331.175 0-.004.169-.125.232-.031h.063c.066 0 .159-.08.218-.058l.126.045a.351.351 0 01.206-.144l.033.027.056.045c.05.063.12.09.152.054.034-.036.113-.077.12-.023.006.054.195.063.228 0s.17-.098.196-.05a.792.792 0 00.149.185c.092-.224.238-.04.354-.05h.056a.42.42 0 01.219-.044c.07.01.138.028.205.053.063.032.348-.062.467-.022l.133-.036c.072-.022.172.067.241.04l.12-.044c.116.031.298.062.4.076l.097-.023.168-.031.401-.045a.4.4 0 01.179.153c.046.076.255-.04.291 0 .037.04.146.094.17.067 0-.067-.067-.184-.057-.188l.11-.063c.015.081.05.153.099.206a.2.2 0 00.145-.054c.03-.031.133-.085.17-.05.036.037.128 0 .135-.143l.172.099c-.026.076.043.121.156.099.112-.023.384.148.407.12v-.192c.083.021.162.06.235.117.027.03.113.094.123.04a.153.153 0 01.024-.055.104.104 0 01.04-.034.078.078 0 01.048-.006.09.09 0 01.044.023c.07.063.364-.04.443-.04a.61.61 0 01.305.161c.017.045.232-.036.262-.08a.145.145 0 01.062-.035.123.123 0 01.067.002.15.15 0 01.06.037.19.19 0 01.046.067l.152-.05c.163-.048-.1-.165.02-.183h1.647a.5.5 0 00.377-.125l.106.165.066.1a.543.543 0 01.123-.283l.05.071.082.112.315-.103c.132-.024.261-.066.387-.125.06-.045.285.085.361.09a1.4 1.4 0 00.351-.14 1.64 1.64 0 01.311-.116l.08-.054.149-.108c.066.126.122.189.13.135a.22.22 0 01.076-.112.133.133 0 01.112-.023c.154.067.313.115.474.144.086 0 .404-.18.576-.184h.142c.143 0 .278-.027.417-.022h.096a.358.358 0 01.302-.032l.046-.027c.14-.094.18-.053.196.104a.818.818 0 00.394-.216l.208.189h.024c.023.022.043-.027.046-.112.003-.086.272 0 .331.035a.93.93 0 00.351 0c.108-.04.22-.064.331-.071.057 0 .262-.072.381-.054.12.018.467 0 .517 0 .05 0 .156.134.169.099.013-.036.073-.09.1 0h.036l.06.026c.075 0 .251-.031.387-.044l.08-.063.105-.09a.53.53 0 00.202.094.453.453 0 00.156-.071.986.986 0 01.331.067 1.1 1.1 0 00.434-.09c.026 0 .162.193.172.135a.328.328 0 01.079-.132.21.21 0 01.117-.061h.185c.11.06.23.085.348.076.08 0 .331-.112.39-.13.06-.018.22.067.23 0 .009-.067.052-.193.079-.188.106.116.195.25.377.112l.05-.04c.09.025.183.036.275.03.077.012.153.031.228.06h.03l.106-.028a1.07 1.07 0 01.384-.036h.152c.09-.09.19-.12.22-.071.029.049.128.12.171.071.043-.049.222-.152.269-.09a.617.617 0 00.33.13l.113.023.11.027a.968.968 0 01.294-.094l.073-.04.033-.023c.133-.006.264-.035.391-.085l.16.143.085.077c.16 0 .298-.086.308-.162.01-.076.206-.022.255 0 .05.023.245.045.312.063.066.018.228-.085.241-.08l.106.102c.034.036.288.108.252.054-.036-.054-.033-.103.083-.036l.122-.157c.053-.062.229 0 .348 0h.09c.047.057.1.105.155.144.023 0 .189 0 .351.027l.113-.166.017-.027c.158.072.271.094.251.045-.02-.05-.046-.18-.033-.197a.868.868 0 01.235-.068c.106 0 .398.103.444.072h.023l.103.063a.622.622 0 01.331.058c.056.04.265-.188.397-.296l.13.058.152.072c.058-.065.12-.123.185-.175a.235.235 0 00.11-.053c.04-.036.215.062.261.094.047.031.222.094.186 0-.037-.094.169 0 .209-.023a.385.385 0 01.245.063c.06.058.278.05.261.022a.726.726 0 01.457-.067l.103.085.192.157c.017-.17.103-.224.189-.116l.179-.072a.755.755 0 01.632.067.271.271 0 00.331.027c.063-.045.232.058.332.121.056.027-.133.099 0 .153.036 0 .102-.068.149-.063.046.004.188.036.208.094l.07.175c.149.054.354.13.454.175.154.054.313.086.473.094.06 0 .239.058.282.04.043-.018.129-.036.119.045-.01.08.209-.036.248-.054a1.98 1.98 0 01.308 0c.12 0 .418.17.447.157.03-.013.14 0 .143.027a.255.255 0 00.099.12.164.164 0 00.133.02c.218.03.433.099.639.2l.046.203c.02.098.235.112.275.309l.017.09.301.148c.023.017.04.044.05.077a.22.22 0 010 .102l.122.063a1.105 1.105 0 00-.08.38v.095l.027.202c.013.149.054.291.12.412h.06c.032 0 .065 0 .065.04 0 .041-.063.086-.126.126l-.056.045v.09c0 .027.04 0 .06 0 .02 0 .02-.027.033-.032h.07c.076 0 .139 0 .132.036a.548.548 0 00.142.27l.057.089.036.058c0 .117-.073.17-.172.121-.1-.05-.348 0-.265.238.083.237.103.923.02.955a.99.99 0 00-.282.143c.074.048.146.102.216.162l.026.08c.086.229.14-.12.222 0l.05.068c.102.049.159.152.122.224-.036.072.07.448.09.623l-.067.166a.512.512 0 00.028.321.353.353 0 00.086.119c.035.03.074.05.115.058h.142c.163.035.229.071.153.08-.077.01-.292.072-.292.135 0 .063.076.246.172.228h.14c.065.003.13.012.195.027h.44c.11 0 .275.381.259.413h-.067c-.129-.023-.198.094-.149.215.05.121.067.193.13.233l.135.094c0 .162.047.26.08.216h.036a.134.134 0 01.116.026c.01.019.015.04.015.063a.135.135 0 01-.015.063.3.3 0 01-.117.118.209.209 0 01-.144.021.085.085 0 00-.046.029.135.135 0 00-.027.056.155.155 0 00.017.062c.01.018.024.033.039.041l.096.054c.113.05.11.153 0 .224h-.189c-.119-.08-.218-.036-.218.099v.09l-.027.13c-.108.04-.22.068-.331.085-.07 0-.05.287 0 .448.05.162.123.646.053.686-.07.04 0 .3.033.345.033.045.11.202.053.247l-.066.031c-.06.027-.13-.116-.196 0a.933.933 0 01-.235-.094 1.167 1.167 0 00-.47.063 1.43 1.43 0 01-.603-.162 2.706 2.706 0 00-.523-.04c-.073 0-.262-.148-.285-.094a.909.909 0 00-.063.314c0 .072.239.116.292.112l.023.027c.053.058 0 .202.156.184h.023a.154.154 0 00.038.06.098.098 0 00.056.028.09.09 0 00.059-.015.132.132 0 00.045-.05l.017.205v.04c.108.04.22.06.331.059l.017.125v.1c.023.116 0 .178-.047.138a.343.343 0 00-.258-.036.221.221 0 01-.123.039.22.22 0 01-.122-.039c-.073-.063-.248-.25-.275-.206.043.134.142.273.126.395l-.02.139c-.12.161-.185.322-.146.363.043.022.089.03.134.025a.25.25 0 00.128-.057l.043-.076.026-.05c0-.07.024-.125.04-.116l.09.153a.374.374 0 01.255-.108c.033 0 .023.148-.1.247l.08.161.033.067a.191.191 0 01.148.048.32.32 0 01.097.159c.05.143.113.304.09.331a.186.186 0 01-.11.015.21.21 0 01-.103-.05l-.066-.063a.177.177 0 00-.109.09c-.023.044-.046.197 0 .201.046.005.238.072.185.117-.053.045-.188.215-.165.269.023.053.11.192.139.152h.026c.083-.027.212.085.305.3l.04.09c-.04.077-.083.15-.13.22a.135.135 0 00-.009.085.125.125 0 00.015.04.093.093 0 00.024.027h.116c.123 0 .16.05.11.175 0 .036-.05.09-.04.103l.056.063a.176.176 0 01-.065.093.107.107 0 01-.094.015l-.033-.103v-.04c-.175 0-.169.04 0 .134l-.073.184-.036.098a.377.377 0 000 .274c.033.036.1.224.053.296-.047.071-.272.17-.272.237l.02.045.043.09c.037.112.033.17 0 .125a.309.309 0 00-.228-.058.593.593 0 01-.252 0c-.053 0-.205.022-.179.05l.17.174c.042.036.184-.058.198-.058.013 0 .046.045.04.121-.007.076.218 0 .258 0 .04 0 .112.058.04.103-.073.045-.282.117-.299.076a.18.18 0 00-.125-.09c-.024 0-.123.234-.166.23a.257.257 0 00-.123.07.388.388 0 00-.086.14l.04.126a.32.32 0 00.08.15.192.192 0 00.129.06h.023c.03.036.02.121-.02.198a2.7 2.7 0 01-.252.25c-.023.032-.02.158-.046.166-.026.01-.053.086-.063.095-.01.009 0 .071.06.12a.822.822 0 01.139.409l-.05.072c-.142.197-.106.304.09.425l.155.09c-.09.125-.174.258-.251.4-.04.084-.16.187-.05.196l-.017.189v.076c0 .107.03.278.04.368l.056.067.07.072a4.465 4.465 0 01-.1.358l.07.112.172.27-.275.214c.072.195.164.373.275.53l.126.264.037.076-.15-.049a.284.284 0 00-.115.058.874.874 0 01-.225.126.937.937 0 00-.275.09l-.077.04-.089.05a1.415 1.415 0 00-.573.098c-.212.076-.894.13-1.01.17h-.11l-.112.023a3.84 3.84 0 01-.662.08h-.332a1.17 1.17 0 00-.354.292l-.106-.175c0-.023-.195.058-.199.05-.053-.185-.165.134-.241-.037l-.027-.058a.489.489 0 01-.314.13l-.11.108a.638.638 0 00-.358.04c-.052.036-.281-.045-.33-.031a3.033 3.033 0 01-.474.062 3.811 3.811 0 01-.567.086c-.036-.04-.275.085-.384.13l-.086-.027-.146-.045c-.149.031-.33.063-.434.076-.102.014-.29.09-.307.054-.017-.036-.173 0-.256.103-.082.103-.42-.04-.496 0l-.027-.022-.122-.104a.613.613 0 01-.428.108l-.109.04-.11.04a1.143 1.143 0 00-.416-.062h-.226a.452.452 0 01-.387-.045l-.126.08-.093.06a2.795 2.795 0 00-.58.053l-.181-.058-.123-.04a3.372 3.372 0 01-.388.12 1.456 1.456 0 00-.274-.027c-.11.018-.222.018-.332 0-.115 0-.407.072-.417.04-.01-.03-.043-.035-.046.06-.004.093-.235-.081-.282-.081-.046 0-.255 0-.354.026-.1.027-.364-.031-.434 0-.141 0-.282-.016-.42-.049h-.524c-.1 0-.358.143-.4.148-.044.005-.186-.04-.24-.036-.052.005-.208 0-.33 0l-.497-.05c-.043 0-.146.05-.179 0-.033-.049-.314 0-.404.023a1.739 1.739 0 00-.55.13l-.152-.13-.116-.094c-.212 0-.424.029-.633.085l-.162-.08h-.023a.228.228 0 01-.139.084.198.198 0 01-.15-.04 1.983 1.983 0 00-.691.086 2.652 2.652 0 01-.716-.135c-.026 0-.208.036-.38.067l-.163-.071-.093-.04a.248.248 0 01-.096.136.15.15 0 01-.139.016c-.073-.05-.275-.126-.33-.072-.057.054-.226.17-.266.116a.526.526 0 00-.39-.116l-.11.063a.306.306 0 01-.166.05.306.306 0 01-.165-.05l-.11-.072a.276.276 0 01-.238.067c-.05 0-.222-.072-.271-.085a.502.502 0 00-.275.09c-.057.044-.249 0-.298 0-.11.011-.221.011-.332 0-.063 0-.235-.045-.238-.094-.003-.05-.043-.193-.066-.175-.023.018-.093.022-.11 0-.016-.023-.119-.076-.172-.05l-.03.086c-.023.067-.135.09-.202.143-.195.152-.198.152-.404-.027l-.03-.027a.13.13 0 00-.083-.017.144.144 0 00-.079.04c-.043.04-.222.12-.281.062-.06-.058-.236-.183-.242-.134a.403.403 0 01-.078.137.273.273 0 01-.114.078 4.252 4.252 0 00-.841.036l-.288-.125-.09-.036c-.152.107-.301.152-.331.098-.03-.054-.166.045-.182.063a.784.784 0 01-.288.022 3.554 3.554 0 01-.58-.103.675.675 0 00-.305.126c-.063.045-.377.031-.506.143l-.153-.157-.093-.098a.382.382 0 01-.308 0c-.066-.045-.251.134-.33.148-.08.013-.272-.068-.279-.117a.168.168 0 00-.035-.056.113.113 0 00-.05-.03.094.094 0 00-.054 0 .116.116 0 00-.05.032l-.063.081-.072.09a.275.275 0 00-.222-.027c-.04.022-.163.063-.17 0-.006-.063-.046-.072-.069.072l-.149-.077-.076-.04-.205.063c-.047 0-.222-.081-.279-.063a.581.581 0 01-.33-.054c-.06-.045-.282 0-.378-.054l-.086-.022c-.037 0-.113.063-.12.05-.076-.108-.109 0-.169 0-.06 0-.089-.064-.139-.086-.05-.022-.053.045-.053.072v.022c.033.027.05.058.037.072-.014.013-.073 0-.116 0a.57.57 0 00-.312.036h-.076c-.116 0-.278-.099-.33-.045l-.123.103a.535.535 0 00-.272-.099.79.79 0 00-.275.13c-.046.04-.09-.152-.096-.16a.98.98 0 00-.242 0l-.616.08c-.092 0-.33-.27-.377-.229-.047.04-.113.238-.252.256a4.078 4.078 0 01-.894-.26l-.199.206-.053.058a1.5 1.5 0 01-.311-.103c-.037-.027-.179 0-.242 0s-.255.063-.288.067a1.554 1.554 0 01-.331-.022 2.994 2.994 0 00-.769.08l-.169-.147s-.413.116-.42.12c-.007.005-.04.063-.063.068l-.103.027c-.096-.063-.169-.153-.159-.202.01-.05-.02-.197-.06-.197-.039 0-.122.04-.092.085v.117c0 .098-.086.157-.189.13h-.162c-.109.034-.22.057-.331.067-.106 0-.418-.067-.48-.036-.063.031-.272-.036-.332 0s-.258-.027-.291 0h-.033a.819.819 0 01-.46-.04l-.143-.054h-.447c-.063 0-.126-.175-.202-.058l-.043.062-.02.036a.486.486 0 01-.235.13 1.445 1.445 0 01-.484-.134 1.237 1.237 0 01-.199-.023.698.698 0 00-.235 0 1.67 1.67 0 01-.347 0 1.261 1.261 0 01-.368-.12c0-.023-.063.026-.12.156l-.171-.112c-.047-.031-.176.121-.275.135h-.083a.29.29 0 00-.188-.002.368.368 0 00-.166.118l-.143-.134-.083-.081c-.132-.067-.265-.085-.288-.036-.023.05-.142.157-.175.103a.177.177 0 00-.116-.069.158.158 0 00-.123.042l-.06.04a.203.203 0 01-.145 0v-.22c-.172-.062-.331-.057-.331 0a.27.27 0 01-.078.133.161.161 0 01-.121.043l-.073.027c-.06 0-.096.08-.106-.032a.15.15 0 00-.012-.065.102.102 0 00-.036-.046.067.067 0 00-.049-.01.078.078 0 00-.045.027c-.16.153-.331.05-.51.08l-.116.023-.275.045h-.02l-.14-.031c-.191-.04-.294-.094-.234-.121.06-.027-.063-.175-.076-.22-.014-.045-.087-.094-.093 0-.007.094-.07.345-.13.31l-.042-.046-.05-.049a.198.198 0 00-.114-.1.15.15 0 00-.134.029c-.087.058-.332.107-.361.03-.03-.075-.176-.214-.245-.111v.318a1.269 1.269 0 01-.408-.05 2.812 2.812 0 00-.457 0l-.192-.08c-.15-.019-.3 0-.444.054l-.08-.04-.079-.036c-.053-.135-.149-.216-.218-.17-.07.044-.229.179-.222.214v.063a.086.086 0 01-.03.036.056.056 0 01-.04.01.646.646 0 01-.159-.158c-.05-.067-.258.072-.288.076a1.011 1.011 0 01-.238-.049v-.036l-.023-.116h.3c.08 0 .113-.256.037-.27-.076-.013-.301 0-.301.077l-.033.072c-.04.085-.106.22-.17.224-.168 0-.032-.184-.105-.256 0 0-.086.063-.156.17-.07.108-.427.104-.54.113-.112.009-.231-.247-.265-.153-.033.094.206.166.222.18.01.024.013.052.01.08a.159.159 0 01-.026.072h-.09a1.432 1.432 0 01-.284-.251l-.024-.381c0-.054-.119-.144-.125-.14-.289.26-.193-.053-.222-.174-.03-.031-.063 0-.07.112-.007.112-.073.256-.14.18-.065-.077-.161.255-.184.318-.024.063-.123.255-.163.26-.04.004-.261 0-.427 0h-.186c-.033 0-.062 0-.062-.032v-.179c.015-.053.04-.1.074-.134a.204.204 0 01.114-.063h.103a.66.66 0 00.219.134h.076c.036 0 .1 0 .11-.045l.042-.112a.374.374 0 01.073-.151.238.238 0 01.12-.082l.022-.036c.05-.09.05-.224.113-.287l.12-.125a.576.576 0 00-.203-.21c-.043 0-.175.062-.175.192s-.086.475-.186.48l-.06.09c-.072.111-.142.125-.251.022l-.11.161zm1.073-1.004a.259.259 0 00-.16-.04s.017.085.064.134c.14.06.29.06.43 0l.126.13s.053 0 .07-.04l.043-.054c.056-.094.033-.18-.047-.197-.08-.018-.444.103-.513.067h-.013zm-2.402.193c-.112.049-.172.148-.125.224.046.076.248-.08.298-.121.122-.04.248-.06.374-.058.086 0 .331-.059.295-.135-.037-.076-.275 0-.331 0a.82.82 0 01-.332-.04l-.096.058-.083.072zm57.776-12.518c.093.04.133 0 .09-.086a25.363 25.363 0 01-.265-.569l-.136.21-.103.158c-.109-.054-.139-.077-.066-.05.073.027.388.296.48.337zM42.922 24.52a.395.395 0 00-.242.068v.022l.033.08a.18.18 0 00-.03.102c0 .037.011.073.03.1.043.032.205-.076.285-.103.08-.027.043-.273-.076-.269zm39.881-12.7c-.06-.122-.092-.126-.07 0 .024.125.292.264.372.273v-.184c.066-.116 0-.125-.172 0l-.054-.027-.076-.062zM22.878 24.34c-.189.063-.285.112-.212.112.117.045.229.113.331.202.056.04.222.103.222.027s-.076-.21-.169-.157h-.02l-.152-.184zm8.137.448c-.04 0-.02.126.047.3l.09.06.108.07a.375.375 0 00.292.117l.016-.044.02-.05c0-.085-.112-.139-.228-.12l-.066-.041-.077-.045a.625.625 0 00-.202-.233v-.014zm26.866-.022c.057-.031.067-.094.027-.143a2.92 2.92 0 01-.186-.225c-.026-.044-.155 0-.129.113.027.112.232.304.288.268v-.013zm-29.532.251c-.016-.13-.026-.143-.02-.031.007.112-.023.408.047.399.07-.01-.01-.229-.027-.354v-.014zM2.974 16.76c.066 0 .105-.035.086-.12-.133 0-.163-.09-.153-.22v-.063c-.02-.085-.076-.063-.129.054-.053.116.126.327.196.35zm-1.146 2.157c0-.05-.053-.103-.11-.121l-.046-.023c-.043-.026-.06-.111-.13-.03-.069.08-.095.102 0 .178.097.077-.062.265.11.252.063 0 .12-.148.169-.234l.007-.022z"/>
    <path d="M85.138 12.114c.043.054-.086-.04-.281-.201l-.235.058c-.037 0-.106-.058-.133-.108l-.056-.103c-.053-.139 0-.22.102-.179h.289c-.096-.085-.073-.148.05-.139l.085.143.063.108c.153.076.245.152.209.166-.036.013-.132.206-.093.255z"/>
  </g>
  <defs>
    <clipPath id="hkJB26sbqa">
      <path fill="#fff" transform="translate(.476)" d="M0 0h84.764v26H0z"/>
    </clipPath>
  </defs>
</svg>
