<svg xmlns="http://www.w3.org/2000/svg" fill="none" viewBox="0 0 96 30">
  <path d="M68.175.634c.129-.087.24-.217.324-.378.06-.13.35-.248.305-.165-.045.082-.192.336-.219.393-.026.057.136.197.166.29l.042.041.105.104.174.352c.026.051.165-.12.203-.207v-.11c0-.126.023-.25.068-.361.05-.14.06-.518.08-.554.018-.036.086 0 .105.052.019.051.132.196.177.263.045.068-.174.218-.2.27-.026.051-.022.14.06.072.083-.067.332.13.377.109.046-.02 0-.249-.03-.321V.339c0-.073.125-.109.264-.083h.136c0-.165.06-.274.09-.253.1.029.205.029.306 0l.06.15c-.106 0-.181.088-.17.15.012.062.12.191.185.098a.937.937 0 01.396-.305c.119-.011.239-.011.358 0a.16.16 0 01-.117.051c-.064 0-.252.12-.252.218s-.272.212-.32.222a.592.592 0 00-.223.13v.026c0 .03.056.082.071.077.257-.12.525-.187.796-.196h.184c.071-.134.156-.253.253-.352.045-.031.143.134.17.16.058.043.119.08.18.114.053.026.174.13.144.166-.03.036-.144.098-.185.072V.748l-.064-.186a1.152 1.152 0 00-.317.103.43.43 0 00-.083.228c0 .067.204.186.272.202v.026c.06.377.241.165.275.036.06-.233.256-.254.377-.383l.11-.109c.07-.145.142-.202.157-.13v.192c.129.073.32.186.423.259l.018.088c.05.222.17.228.328.228.068 0 .147.098.2.077.053-.02.08-.13.125-.196.06 0 .064-.047 0-.094-.064-.046-.166-.186-.117-.243.049-.057.407.145.377.207l-.02.062c-.06.192.023.3.193.223.17-.078.173.078.256.088h.106c.177-.023.352-.065.524-.124l.09.057.11.077c.115-.023.23-.056.343-.098.154.003.308.036.456.098h.32c.083 0 .343.031.418-.052a.397.397 0 01.25-.092.4.4 0 01.248.092l.189-.067.131-.041c.16.023.322.033.483.03.216-.03.43-.084.64-.16.151-.051.623.073.807.037l.181.119.136.082.524-.165c.125-.012.251-.012.377 0 .145-.025.291-.036.437-.031 0 .041.08.108.12.067.042-.041.19-.098.242-.036l.053.046.034.031c.049.014.1.001.143-.036.03-.036.132-.103.162-.067.03.036.177-.031.207-.057.115-.043.233-.076.35-.098l.144.062c.072.03.143.077.211.114.068.036.17.212.294.046a.122.122 0 01.102.031c.136.171.2.223.34-.041l.093-.176c.068.207.147.342.178.29.03-.052.14-.156.162-.099a.6.6 0 00.192.213c.06 0 .211-.171.249-.223.037-.052.162.036.18 0 .02-.036.057-.057.046.047-.011.103.222-.068.237-.078.155-.057.159.27.35.16l.103-.056c.111-.01.223-.01.335 0 .042 0 .192-.037.29-.042.098-.005.377.093.438 0l.068-.046.037-.032a.867.867 0 01.264.166c.075.067.456-.114.494-.052.038.062.188.166.237.099.05-.068.215.067.245.036l.023-.031c.026-.036.053-.109.079-.109.026 0 .23-.072.219.114v.041c-.102.057-.144.135-.098.16.045.027.192.058.226 0 .034-.056.188-.206.184-.061v.072a.237.237 0 00.03.093h.087c.087 0 .144.047.121.156l.15-.047h.027c.023-.036.12-.03.215 0 .185.031.372.042.558.031.102 0 .433.171.52.16.087-.01.313-.072.347.042.034.114.426.181.463.17l.185.311c.324.047.615.094.649.11.033.015.177 0 .29 0 .113 0 .595-.027.803-.048l.041.296c0 .03.087.082.106.072l.117-.078a.95.95 0 01.278.202c.097.074.197.134.302.181.09.048.183.079.279.094a.11.11 0 01.076.022.175.175 0 01.056.076l.038.052a.13.13 0 00.131 0 .82.82 0 01.377-.104c.208 0 .106.083.095.197-.012.114.124.13-.042.155a.635.635 0 00-.222.088c-.08.047-.064.093 0 .166l.064.072-.287.31c-.094.099-.203.487-.101.518h.158a.366.366 0 01.32 0c.083.052.06.518.03.683-.039.219-.069.44-.09.663a.501.501 0 00.188-.176l.098.17.05.089a1.58 1.58 0 01-.129.326l.09.052h.05c.113-.068.18-.052.15.041v.279c.069.163.122.337.159.518a.756.756 0 01-.08.278.519.519 0 01-.165.193c-.15.083-.15.56-.042.518l.068-.062.068-.063c.08-.062.23.037.34.213l-.057.15a1.744 1.744 0 01-.042.155c-.053.109-.117.212-.177.316-.06.103-.143-.156-.222 0l-.023.046c-.094 0-.083.078.023.114v.047c0 .072-.042.16-.087.227-.045.068-.09.037-.128.063-.038.025-.117.29-.026.32.04.007.08.03.111.066a.32.32 0 01.07.136l.022.057c.158 0 .143.093-.034.166-.177.072-.652.383-.87.217l-.272.052c-.053 0-.166-.124-.189-.212l-.052-.218c-.132.063-.2.202-.155.306v.088c-.028.27-.067.538-.117.802v.057c-.064.048-.13.09-.2.124-.037 0-.135.181-.203.181-.1.008-.2.03-.298.063a.783.783 0 00-.135.15c-.03.036-.174-.11-.193-.135-.019-.026-.14-.052-.15.057-.012.109-.102.29-.189.223a.277.277 0 00-.156.005.347.347 0 00-.142.093.132.132 0 01.006.082.118.118 0 01-.015.037.084.084 0 01-.025.026h-.026c-.12-.057-.256-.275-.298.072a.826.826 0 01-.2-.046c-.127.01-.253.04-.376.088h-.377c-.095 0-.283.222-.208.264.076.041.234.269.196.414-.037.145.377.553.336.564-.042.01-.076.14.034.238v.295c.102 0 .201.042.286.119l.034.057.08.14a1.25 1.25 0 000 .59l.03.155v.052c0 .062-.117.051-.23-.031a.603.603 0 00-.457.093c0 .026.023.13.095.17h.034l.075-.051c.098-.067.162-.062.143 0v.238a.319.319 0 01.2 0c.056 0-.057.331-.098.486l-.158.037a.232.232 0 00-.083.03l.022.353c-.245.134-.377.284-.328.331.117.018.234.018.35 0 .042 0 .34.134.57.254l.237-.057c.11 0 .121.051.151.155l.046.16a.32.32 0 01.14-.11.242.242 0 01.161-.003c.161.065.316.153.464.264l-.083.134c.038.103.085.2.14.29.022.031.105.072.124.031l.03-.031.041-.041a2.76 2.76 0 01.245-.125.616.616 0 01.377-.052c.042.042.125.239.083.321-.041.083-.343-.051-.46-.056v.087c0 .088.046.296.076.296l.531.025c-.072.414-.064.761 0 .772.064.01.208-.176.226-.15l.087.093c.03.058.056.118.08.18.03.084-.076.373-.11.446v.129c.005.036.02.067.042.089.022.02.048.03.075.025h.083a.056.056 0 01.054.001c.017.01.032.028.04.05l-.072.12c-.12.176-.11.27.03.202h.08l.049-.057c.17 0 .32.072.328.145v.052l-.03.543c.137.16.28.31.429.45l.041.114c-.006.18.022.359.083.518l.087.041c.219.098.211.274.2.476v.073c0 .14.113.197.249.13l-.087.18c-.083.171.064.166.106.233.041.067.094-.217.139 0v.031l-.15.109a.84.84 0 00.124.362l-.034.202c0 .052-.042.104-.038.15v.057c.03.062.023.098 0 .088a.413.413 0 00-.279.098c-.072.078.03.378 0 .404-.132-.134-.249-.16-.377.031l-.102.16c-.109-.113-.203-.154-.215-.092a.701.701 0 01-.35.336l-.12-.28-.061-.144c-.166.16-.275.305-.241.315.034.01.117.083.105.124h-.275a.074.074 0 00-.062.006.115.115 0 00-.047.057c0 .051-.155 0-.166.057-.011.056-.09.134-.117.072a.168.168 0 00-.06-.055.122.122 0 00-.072-.013.134.134 0 00-.068.03.2.2 0 00-.052.07l-.057.077-.034.046a.507.507 0 01-.305-.077c-.09-.047-.407.067-.471 0-.064-.068-.25-.171-.32 0l-.061.103-.057.104a.514.514 0 01-.309-.062c-.06-.042-.184.165-.256.16a.899.899 0 01-.305-.088c-.027 0-.155-.067-.185 0s-.17.295-.237.264a.526.526 0 00-.298.041c-.053.031-.211-.056-.238-.03v.124a2.157 2.157 0 01-.377-.182v.27a2.11 2.11 0 01-.32.113 5.159 5.159 0 01-.754-.046l-.09-.031c-.095-.031-.155-.171-.159.062 0 0-.109.067-.113.062-.113-.181-.282-.036-.316 0-.102.155-.245-.057-.359.093l-.041.052-.377-.14a.67.67 0 00-.264.192c-.098.103-.433-.078-.452-.068v.28a.702.702 0 00-.543.057l-.117-.212-.056-.104-.377.207h-.102a.687.687 0 01-.192 0h-.445c-.068 0-.29.099-.313.067-.022-.03-.11-.103-.128-.062v.031l-.019.037c-.026.036-.056.041-.064 0a.407.407 0 00-.072-.14l-.15.047a2.238 2.238 0 00-.377.108l-.023.031-.15.197c-.117-.186-.238-.29-.268-.233-.03.057-.128.17-.159.14-.03-.031-.094.083-.098.3l-.218-.274-.038-.047a1.385 1.385 0 01-.328.036c-.064 0-.219-.046-.222 0-.004.047-.234.073-.268.026-.034-.046-.098.036-.094.238l-.241-.253c-.023-.026-.155.072-.238.119l-.041.025c-.124.064-.25.12-.377.166-.17.067-.615-.217-.652-.217a2.975 2.975 0 00-.396.083c-.265.028-.53.028-.795 0l-.046.051-.113.114a1.068 1.068 0 00-.309-.134h-.188a2.14 2.14 0 01-.336.165c-.18.038-.363.057-.546.057h-.196c-.05.026-.098 0-.106-.041-.007-.042-.188 0-.215 0-.026 0-.135.124-.177.077a.267.267 0 00-.237-.082 1.54 1.54 0 01-.423.155l-.037-.067c-.083-.145-.181.145-.272-.042l-.041-.078a.38.38 0 01-.332.083c-.041-.036-.162-.113-.173-.077-.011.036-.064.119-.09.108a.098.098 0 00-.073.006.141.141 0 00-.06.057 2.96 2.96 0 01-.557.093l-.22-.083a.63.63 0 00-.621.078l-.102.082a1.024 1.024 0 01-.377-.14.12.12 0 00-.107-.014.166.166 0 00-.089.082c-.06.108-.324-.078-.343-.036-.019.041-.094.145-.105.072-.012-.072-.068-.15-.113-.057-.046.093-.355-.046-.487 0l-.15-.03-.204-.042a.78.78 0 01-.471.13c0-.037-.083-.12-.102-.073a.355.355 0 01-.158.165l-.143-.16a3.356 3.356 0 01-.58.026c-.125 0-.521.062-.612-.037l-.109.176c0 .032-.154-.051-.233-.051h-.238a6.71 6.71 0 00-.81.124l-.136-.186-.03-.037c-.1.022-.2.034-.302.037-.075 0-.267-.052-.275 0-.007.051-.26.025-.347-.094l-.136.15-.045.052-.324-.077c-.053 0-.256-.042-.332-.042h-.067a.483.483 0 00-.151 0c-.057 0-.102.062-.155.073h-.03a.219.219 0 00-.18 0 .491.491 0 01-.329-.14v.217a1.685 1.685 0 01-.43-.145h-.301l-.328.187c-.034 0-.158-.078-.207-.202l-.162.067c-.083.036-.234.067-.264.026-.132-.191-.177.12-.298.041l-.105-.067a1.62 1.62 0 01-.426-.083l-.027.031-.162.181a.55.55 0 00-.377-.098c-.034.036-.162.104-.196.047a2.12 2.12 0 00-.143-.212l-.204.114a1.516 1.516 0 01-.599.04 3.69 3.69 0 01-.55 0c-.095-.05-.34.125-.426.063l-.234.362a2.968 2.968 0 00-.701-.274c-.075 0-.215.036-.207-.067.007-.104-.287.098-.377.134a.513.513 0 01-.294 0c-.057 0-.204.042-.215 0-.012-.041-.083-.124-.11-.083a.54.54 0 01-.331.15l-.106-.072-.324-.134-.075.062c-.098.088-.192.129-.208.093a1.36 1.36 0 00-.23-.212l-.173.191a.312.312 0 01-.166-.072.799.799 0 00-.528.067l-.067.077a.303.303 0 01-.104-.159.426.426 0 01-.006-.213l-.222.16-.17.12v-.084c0 .11-.26-.056-.271-.051l-.211.052a1.927 1.927 0 01-.524-.125c-.09-.03-.317.114-.35.078-.035-.036-.129-.14-.136-.14a.276.276 0 00-.09.078.374.374 0 01-.291.067h-.068c-.038 0-.11.078-.12.067l-.114-.119a.629.629 0 01-.474 0l-.132-.051H52.4a.33.33 0 00-.192.067c-.038.041-.204.052-.253.093a2.031 2.031 0 01-.543-.067h-.275a.358.358 0 00-.294-.026.415.415 0 01-.286.078l-.08-.047c-.086-.047-.158-.197-.162.046a.173.173 0 01-.094 0 2.077 2.077 0 00-.588-.046l-.147.026a1.365 1.365 0 00-.267-.12c-.086.01-.17.029-.253.058a2.222 2.222 0 01-.705-.078c-.136-.052-.513.207-.603.202a1.54 1.54 0 00-.517.114c-.112.062-.376-.207-.376-.202 0 .005-.193.145-.264.036h-.072c-.075 0-.18.093-.249.067l-.143-.051a.4.4 0 01-.234.165l-.037-.03-.064-.052c-.057-.073-.136-.104-.174-.063-.037.042-.128.088-.135.026-.008-.062-.223-.072-.26 0-.038.073-.193.114-.223.057a.914.914 0 00-.17-.212c-.105.259-.27.047-.403.057h-.064a.472.472 0 01-.249.052 1.18 1.18 0 01-.233-.062c-.072-.037-.396.072-.532.026l-.15.04c-.084.027-.197-.077-.276-.046l-.136.052a4.1 4.1 0 00-.456-.088l-.109.026-.192.036-.456.052a.462.462 0 01-.204-.176c-.053-.088-.29.047-.331 0-.042-.047-.166-.109-.193-.078 0 .078.076.212.064.218l-.124.072a.494.494 0 00-.113-.238.225.225 0 00-.166.062c-.034.036-.15.099-.192.057-.042-.041-.147 0-.155.166l-.196-.114c.03-.088-.049-.14-.177-.114-.128.026-.437-.17-.464-.14v.223a.74.74 0 01-.267-.135c-.03-.036-.128-.108-.14-.046a.178.178 0 01-.028.063.12.12 0 01-.045.039.087.087 0 01-.054.007.1.1 0 01-.05-.026c-.079-.073-.415.046-.505.046a.695.695 0 01-.347-.186c-.019-.052-.264.041-.297.093a.165.165 0 01-.071.04.138.138 0 01-.076-.002.169.169 0 01-.07-.043.248.248 0 01-.051-.078l-.173.057c-.185.057.113.192-.023.212h-1.874a.565.565 0 00-.43.145l-.12-.191-.075-.114a.632.632 0 01-.14.326l-.056-.083-.094-.13-.358.12c-.15.028-.298.076-.442.145-.067.051-.324-.099-.41-.104a1.554 1.554 0 00-.4.16 1.855 1.855 0 01-.354.135l-.09.062-.17.125c-.076-.145-.14-.218-.147-.156a.253.253 0 01-.088.129.15.15 0 01-.127.026 2.392 2.392 0 00-.54-.165c-.097 0-.46.207-.655.212h-.162c-.162 0-.317.031-.475.026h-.11a.402.402 0 01-.343.036l-.052.031c-.159.109-.204.062-.223-.119a.927.927 0 00-.448.249l-.238-.218h-.026c-.026-.026-.049.031-.053.13-.004.098-.309 0-.377-.042a1.045 1.045 0 00-.4 0 1.27 1.27 0 01-.376.083c-.064 0-.298.083-.434.062-.135-.02-.531 0-.588 0-.056 0-.177-.155-.192-.114-.015.042-.083.104-.113 0h-.042l-.067-.03c-.087 0-.287.035-.441.051l-.09.072-.122.104a.6.6 0 00-.23-.109.513.513 0 00-.177.083 1.11 1.11 0 01-.377-.078 1.24 1.24 0 00-.493.104c-.03 0-.185-.223-.196-.155a.38.38 0 01-.09.152.237.237 0 01-.133.07h-.21a.709.709 0 00-.396-.088c-.091 0-.378.13-.445.15-.068.021-.25-.077-.26 0-.012.078-.06.223-.09.218-.122-.135-.223-.29-.43-.13l-.057.047a.95.95 0 00-.313-.036 1.216 1.216 0 01-.26-.068h-.034l-.12.031a1.204 1.204 0 01-.438.042h-.173c-.102.103-.215.14-.249.083-.034-.057-.147-.14-.196-.083-.049.057-.253.176-.305.103a.697.697 0 00-.377-.15l-.128-.026-.125-.03c-.108.055-.22.091-.335.108l-.083.047-.038.026c-.15.006-.3.04-.445.098l-.18-.166-.099-.088c-.18 0-.339.098-.35.186-.012.088-.234.026-.29 0-.057-.025-.28-.051-.355-.072-.075-.02-.26.098-.275.093l-.12-.119c-.038-.041-.329-.124-.287-.062.041.062.038.12-.094.041l-.14.182c-.06.072-.26 0-.396 0h-.101a.888.888 0 00-.177-.166c-.027 0-.215 0-.4-.031l-.128.192-.019.03c-.18-.082-.31-.108-.286-.051.022.057.052.207.037.227a.974.974 0 01-.267.078c-.121 0-.453-.119-.505-.083h-.027l-.117-.072a.7.7 0 01-.377-.067c-.064-.047-.301.217-.452.341l-.147-.067-.173-.083a1.687 1.687 0 01-.212.202.265.265 0 00-.124.062c-.045.041-.245-.072-.298-.109-.052-.036-.252-.108-.21 0 .04.11-.193 0-.238.026a.433.433 0 01-.28-.072c-.067-.067-.316-.057-.297-.026a.815.815 0 01-.52.078l-.117-.099-.219-.181c-.018.197-.116.259-.214.135l-.204.082a.849.849 0 01-.72-.077.305.305 0 00-.377-.031c-.071.051-.264-.068-.377-.14-.064-.031.151-.114 0-.176-.041 0-.117.078-.17.073-.052-.006-.214-.042-.237-.11l-.079-.201a9.354 9.354 0 01-.516-.202 1.913 1.913 0 00-.54-.109c-.067 0-.27-.067-.32-.046-.049.02-.147.041-.136-.052.012-.093-.237.041-.282.062-.117.01-.234.01-.35 0-.136 0-.476-.197-.51-.181-.034.015-.158 0-.162-.031a.293.293 0 00-.113-.14.185.185 0 00-.15-.02 2.391 2.391 0 01-.728-.233l-.053-.233c-.022-.114-.267-.13-.313-.358l-.019-.103-.343-.17a.166.166 0 01-.055-.09.231.231 0 01-.001-.118l-.14-.072a1.26 1.26 0 00.09-.44v-.109l-.03-.233a1.23 1.23 0 00-.135-.476H2.4c-.037 0-.075 0-.075-.047 0-.046.071-.098.143-.145l.064-.051v-.104c0-.03-.045 0-.068 0-.022 0-.022.031-.037.037h-.08c-.086 0-.158 0-.15-.042a.636.636 0 00-.162-.31l-.064-.104-.042-.067c0-.135.083-.197.196-.14.113.057.396 0 .302-.274-.095-.275-.117-1.067-.023-1.103.112-.036.22-.091.32-.165a2.287 2.287 0 01-.245-.187l-.03-.093c-.098-.264-.158.14-.252 0l-.057-.078c-.117-.056-.18-.175-.14-.258.042-.083-.078-.518-.101-.72l.075-.191a.597.597 0 00-.032-.371.406.406 0 00-.097-.137.274.274 0 00-.13-.067H1.55c-.185-.041-.26-.083-.173-.093.086-.01.331-.083.331-.155 0-.073-.086-.285-.196-.264h-.158a1.087 1.087 0 01-.222-.031H.63c-.124 0-.312-.44-.294-.476h.076c.147.026.226-.11.17-.249-.057-.14-.076-.222-.148-.269l-.154-.109c0-.186-.053-.3-.09-.248H.148a.149.149 0 01-.132-.031.158.158 0 01-.017-.073c0-.026.006-.051.017-.072a.344.344 0 01.133-.137.235.235 0 01.165-.024.096.096 0 00.051-.033.157.157 0 00.032-.065.18.18 0 00-.02-.072.12.12 0 00-.044-.047l-.11-.062c-.128-.057-.124-.176 0-.259H.44c.136.093.249.042.249-.114v-.103l.03-.15c.124-.047.25-.08.377-.099.08 0 .057-.33 0-.517s-.14-.746-.06-.792c.079-.047 0-.347-.038-.399-.038-.051-.124-.233-.06-.284l.075-.037c.068-.03.147.135.222 0 .092.023.182.06.268.11.18.013.36-.012.535-.073.235.009.467.072.686.186.198.035.397.05.596.047.083 0 .298.17.324.108.044-.111.069-.235.072-.362 0-.083-.272-.135-.332-.13l-.026-.03c-.06-.068 0-.233-.178-.213h-.026a.177.177 0 00-.044-.07.102.102 0 00-.13-.015.153.153 0 00-.052.06l-.019-.239v-.046a1.03 1.03 0 00-.377-.067l-.019-.146v-.113c-.026-.135 0-.207.053-.16a.385.385 0 00.294.04.249.249 0 01.14-.044c.048 0 .096.015.139.045.083.072.283.29.313.238-.05-.156-.162-.316-.143-.456l.022-.16c.136-.187.211-.373.166-.42a.256.256 0 00-.152-.029.281.281 0 00-.146.066l-.049.088-.03.057c0 .083-.026.145-.045.134l-.102-.176a.423.423 0 01-.29.125c-.038 0-.026-.171.113-.285l-.09-.186-.038-.078a.215.215 0 01-.169-.055.37.37 0 01-.11-.183c-.057-.166-.128-.352-.102-.383a.207.207 0 01.124-.018.238.238 0 01.117.06l.076.072a.202.202 0 00.124-.104c.027-.052.053-.228 0-.233-.053-.005-.271-.083-.21-.134.06-.052.214-.249.188-.31-.027-.063-.125-.223-.159-.177h-.03c-.094.031-.241-.098-.347-.347l-.045-.103c.045-.09.094-.174.147-.254a.169.169 0 00-.006-.143.104.104 0 00-.028-.033h-.132c-.14 0-.18-.057-.124-.202 0-.041.056-.103.045-.119l-.064-.072a.203.203 0 01.074-.107.12.12 0 01.107-.017l.038.119v.046c.2 0 .192-.046 0-.155l.083-.212.041-.114a.44.44 0 000-.316c-.038-.041-.113-.259-.06-.341.052-.083.309-.197.309-.275l-.023-.051-.049-.104c-.041-.13-.038-.197 0-.145.08.058.17.081.26.067a.668.668 0 01.287 0c.06 0 .233-.025.203-.057l-.192-.201c-.049-.042-.211.067-.226.067-.015 0-.053-.052-.045-.14.007-.088-.25 0-.294 0-.046 0-.129-.067-.046-.119.083-.052.32-.134.34-.088a.205.205 0 00.143.104c.026 0 .14-.27.188-.264a.292.292 0 00.14-.083.447.447 0 00.098-.16l-.045-.145a.37.37 0 00-.091-.174.216.216 0 00-.147-.07H3.03c-.034-.041-.023-.14.022-.228.092-.104.187-.2.287-.29.026-.036.022-.18.053-.19.03-.011.06-.1.071-.11.011-.01 0-.082-.068-.14a.958.958 0 01-.158-.47l.057-.083c.162-.228.12-.352-.102-.492l-.177-.103c.103-.145.198-.299.286-.461.045-.098.181-.217.057-.228l.018-.217V4.96c0-.124-.033-.321-.045-.424l-.064-.078-.079-.083c.032-.14.07-.279.113-.414l-.08-.13-.195-.31.313-.248a2.632 2.632 0 00-.313-.611l-.143-.305-.042-.088.17.056a.321.321 0 00.132-.067.988.988 0 01.256-.145c.107-.017.212-.052.313-.103l.087-.047.101-.057c.22.009.44-.03.653-.114.24-.088 1.017-.15 1.15-.196h.124l.128-.026c.25-.054.501-.085.754-.093h.377c.147-.079.284-.193.403-.337l.12.202c0 .026.223-.067.227-.057.06.212.188-.155.275.042l.03.067a.551.551 0 01.358-.15l.124-.125a.716.716 0 00.408-.046c.06-.041.32.052.376.036a3.41 3.41 0 01.54-.072c.213-.05.428-.082.644-.099.042.047.313-.098.437-.15l.098.031.166.052a8.02 8.02 0 01.494-.088c.117-.015.332-.103.35-.062.02.041.197 0 .29-.12.095-.118.48.048.566 0l.03.027.14.119a.69.69 0 01.486-.124l.124-.047.125-.047c.155.055.315.079.475.073h.256a.508.508 0 01.441.052l.143-.093.106-.068c.22.003.441-.018.66-.062l.207.067.14.047c.184-.067.376-.13.44-.14.104.02.208.031.313.031.125-.02.252-.02.377 0 .132 0 .464-.083.475-.046.011.036.049.041.053-.068.003-.108.267.094.32.094.053 0 .29 0 .404-.031.113-.032.414.036.493 0 .16-.001.32.018.479.056h.595c.114 0 .408-.165.457-.17.049-.006.21.046.271.041.06-.005.237 0 .377 0l.565.057c.05 0 .166-.057.204 0 .038.057.358 0 .46-.026.212-.014.422-.065.626-.15l.173.15.132.109c.241 0 .483-.033.72-.099l.184.094h.027a.259.259 0 01.158-.098.223.223 0 01.17.046c.264.015.53-.018.788-.098.274.013.547.065.814.155.03 0 .237-.042.433-.078l.185.083.105.047a.285.285 0 01.11-.159.168.168 0 01.158-.017c.083.057.313.145.377.082.064-.062.256-.196.302-.134.134.107.29.154.444.134l.125-.072a.345.345 0 01.188-.058c.065 0 .13.02.189.058l.124.083a.311.311 0 01.271-.078c.057 0 .253.083.31.098a.565.565 0 00.312-.103c.064-.052.283 0 .34 0 .125-.014.251-.014.377 0 .071 0 .267.052.271.109.004.057.049.222.075.201.027-.02.106-.025.125 0 .019.026.136.088.196.057l.034-.098c.026-.078.154-.103.23-.166.222-.176.226-.176.46.032l.033.03c.03.018.063.025.095.02a.164.164 0 00.09-.045c.05-.047.253-.14.32-.073.068.068.268.212.276.156a.465.465 0 01.089-.158.312.312 0 01.13-.09c.319.017.639.004.957-.042l.328.145.101.041c.174-.124.343-.176.377-.114.034.062.189-.052.208-.072a.88.88 0 01.328-.026c.221.02.441.06.66.119a.763.763 0 00.346-.145c.072-.052.43-.036.577-.166l.173.181.106.114a.429.429 0 01.35 0c.076.052.287-.155.377-.17.09-.016.31.077.317.134.01.025.023.048.04.065a.13.13 0 00.057.035c.02.006.041.006.062 0 .02-.007.04-.02.056-.038l.071-.093.083-.103a.31.31 0 00.253.03c.045-.025.184-.072.192 0 .008.073.053.083.08-.082l.169.088.086.046.234-.072c.053 0 .253.093.317.072a.653.653 0 01.377.062c.068.052.32 0 .43.063l.097.025c.042 0 .129-.072.136-.057.087.125.124 0 .192 0s.102.073.159.099c.056.026.06-.052.06-.083V.344c-.038-.03-.057-.067-.042-.083.016-.015.083 0 .132 0a.64.64 0 00.355-.041h.086c.132 0 .317.114.377.052l.14-.12a.603.603 0 00.309.114.895.895 0 00.313-.15c.053-.046.102.176.11.187.09.01.183.01.274 0l.701-.093c.106 0 .377.31.43.264.053-.047.128-.275.287-.295.345.059.685.159 1.017.3l.226-.238.06-.068c.121.026.24.066.355.12.041.03.204 0 .275 0 .072 0 .29-.073.328-.078.126-.005.252.003.377.026.293.007.586-.024.875-.094l.192.171s.471-.134.478-.14c.008-.005.046-.072.072-.077l.117-.031c.11.072.192.176.18.233-.01.057.024.227.069.227.045 0 .14-.046.105-.098V.298c0-.114.098-.182.215-.15h.185c.124-.04.25-.067.377-.078.12 0 .475.077.546.041.072-.036.31.042.377 0 .068-.041.294.031.332 0h.038a.92.92 0 01.524.047l.162.062h.509c.071 0 .143.202.23.067l.048-.072.023-.042a.552.552 0 01.268-.15c.187.018.373.07.55.156.076.002.151.01.226.025a.785.785 0 00.268 0c.132-.014.264-.014.396 0 .143.024.283.07.418.14 0 .026.072-.03.136-.181l.196.13c.053.036.2-.14.313-.156h.094c.07.025.143.025.214.002a.42.42 0 00.19-.136l.161.155.095.093c.15.078.301.098.327.041.027-.057.162-.18.2-.119a.2.2 0 00.132.08.178.178 0 00.14-.049l.067-.046a.229.229 0 01.166 0V.41c.196.073.377.068.377 0a.313.313 0 01.089-.152.182.182 0 01.137-.05l.083-.03c.068 0 .11-.094.12.036a.175.175 0 00.014.075c.01.023.024.041.042.053a.075.075 0 00.055.012.088.088 0 00.052-.032c.181-.176.377-.057.58-.093l.132-.026.313-.051h.023l.158.036c.219.046.336.109.268.14-.068.03.072.201.087.253.015.052.097.109.105 0 .008-.108.08-.398.147-.357l.05.052.056.057a.22.22 0 00.13.114.168.168 0 00.152-.031c.098-.068.377-.125.411-.037.034.088.2.249.28.13V.142c.155-.007.31.013.463.057.173.014.347.014.52 0l.219.093c.17.022.34.001.505-.062l.09.047.09.041c.06.156.17.249.25.197.078-.052.26-.207.252-.248V.194a.099.099 0 01.034-.041.064.064 0 01.045-.01.739.739 0 01.181.18c.056.078.294-.082.328-.088.091.008.182.027.271.057v.042l.027.134h-.343c-.09 0-.129.295-.042.31.087.016.343 0 .343-.087l.038-.083c.045-.098.12-.254.192-.259.192 0 .038.213.12.295 0 0 .099-.072.178-.196.08-.125.486-.12.614-.13.129-.01.264.285.302.176.038-.108-.234-.191-.253-.207a.206.206 0 01-.01-.092.184.184 0 01.03-.084h.101c.116.078.225.176.324.29l.026.44c0 .062.136.166.144.16.328-.3.218.063.252.202.034.037.072 0 .08-.13.007-.128.082-.294.158-.206.075.088.184-.295.21-.368.027-.072.14-.295.186-.3.045-.005.297 0 .486 0h.211c.038 0 .072 0 .072.036v.207a.374.374 0 01-.085.155.231.231 0 01-.13.073h-.118a.765.765 0 00-.249-.155h-.087c-.041 0-.113 0-.124.052l-.05.13a.433.433 0 01-.082.174.271.271 0 01-.136.094l-.026.042c-.057.103-.057.258-.128.33l-.136.146c.06.106.14.19.23.243.049 0 .2-.072.2-.222 0-.15.098-.55.21-.554l.069-.104c.083-.13.162-.145.286-.026l.125-.186zm-1.222 1.16a.29.29 0 00.181.046s-.019-.098-.071-.155a.6.6 0 00-.49 0l-.144-.15s-.06 0-.079.046l-.049.062c-.064.109-.038.207.053.228.09.02.505-.12.584-.078h.015zm2.733-.223c.128-.057.196-.171.143-.259-.052-.088-.282.093-.339.14-.14.046-.282.068-.426.067-.098 0-.377.067-.335.155.041.088.313 0 .377 0a.92.92 0 01.377.047l.109-.067.094-.083zM3.93 16.02c-.106-.046-.151 0-.102.099.049.098.218.47.301.657l.155-.243.117-.181c.124.062.158.088.075.057-.083-.031-.44-.342-.546-.388zM47.715 1.51a.445.445 0 00.275-.078v-.026l-.038-.093a.21.21 0 00.033-.116.21.21 0 00-.033-.117c-.049-.036-.234.088-.324.12-.09.03-.05.315.087.31zM2.324 16.172c.068.14.105.145.079 0-.026-.145-.332-.306-.422-.316v.212c-.076.135 0 .145.196 0l.06.031.087.073zM70.527 1.716c.215-.073.324-.13.24-.13a1.243 1.243 0 01-.376-.233c-.064-.046-.253-.119-.253-.03 0 .087.087.243.193.18h.022l.174.213zm-9.262-.518c.046 0 .023-.145-.052-.347L61.11.784l-.125-.083a.424.424 0 00-.331-.134l-.02.051-.022.057c0 .099.128.16.26.14l.076.047.086.051c.06.115.139.208.23.27v.015zm-30.577.026c-.064.036-.075.109-.03.166.074.081.144.167.211.258.03.052.177 0 .147-.129-.03-.13-.264-.352-.328-.31v.015zM64.3.934c.019.15.03.166.022.036-.007-.129.027-.47-.053-.46-.079.01.012.264.03.409v.015zm28.88 9.534c-.075 0-.12.041-.098.14.151 0 .185.103.174.253v.073c.022.098.087.072.147-.062.06-.135-.143-.378-.223-.404zm1.305-2.49c0 .057.06.12.124.14l.053.026c.049.031.068.13.147.036.079-.093.11-.119 0-.207s.072-.305-.124-.29c-.072 0-.136.171-.193.27l-.007.025z" fill="#fff"/>
</svg>
