<svg xmlns="http://www.w3.org/2000/svg" fill="none" viewBox="0 0 90 45">
  <g clip-path="url(#IEK9bpWf4a)" fill="red">
    <path d="M65.829 38.922c-.034.359-.087.596-.118.478l-.048-.059c-.04-.052-.124-.06-.157-.117l-.046-.077a1.422 1.422 0 01-.002-.43l-.018-.092a.53.53 0 00-.157-.286l-.108-.065c-.013.138-.07.26-.102.274-.032.015-.102.106-.05.159.053.053.184.24.119.247-.066.006-.248.121-.258.23-.01.107-.083.396-.127.253-.044-.143-.126-.616-.088-.655a1.48 1.48 0 00.14-.35.132.132 0 00-.047-.079.066.066 0 00-.072-.004l-.05.038-.005.06-.116.098c-.01.159-.044.315-.1.456-.045.08.13.242.14.26a.463.463 0 01-.011.126.059.059 0 01-.036.009.059.059 0 01-.033-.015l-.126-.2a.26.26 0 01-.259-.08.596.596 0 01-.146-.332l-.035-.239a.407.407 0 00-.114-.204l-.034-.003c-.057-.005-.095.033-.087.064.009.031.011.213.02.365.008.151-.056.599-.158.59-.103-.01-.432-.041-.42-.095a.59.59 0 01.15-.215c.054-.043-.075-.25-.125-.133a1.645 1.645 0 01-.967-.278l-.072-.007c-.034.088-.017.192.061.248l.072.006a.6.6 0 01.084.05l.362.21c.211-.216.222-.499.022-.602l.093-.342a.255.255 0 00-.08-.044c-.11-.01-.213.24-.349.01-.032-.058-.229.039-.343.082-.027-.002-.045.105-.05.165-.006.06.04.064.07.073.03.014.062.017.094.009l.229-.076c.128.308.287.58.47.806-.07.096-.175.159-.219.263l-.048.105c-.04.147-.069.169-.066.06a1.041 1.041 0 00-.157-.534.729.729 0 00-.405-.038c-.08-.008-.333.131-.341.221-.009.09-.076.32-.127.297l-.034-.094a2.577 2.577 0 00-.28-.552l-.102.147-.125.188a.776.776 0 01-.334.102 1.118 1.118 0 00-.112-.144c-.047-.034-.197-.018-.158.094.039.113.006.339-.182.352l-.058.29s-.005.054-.03.046l-.027-.003c-.027-.002-.144-.098-.267-.17l.087-.197c.048-.098.118-.237.184-.249.133-.03.12-.134.125-.23l.005-.06a.138.138 0 00-.067-.069.094.094 0 00-.084.007l-.046.044c-.037.032-.05.128-.081.137l-.038-.003a.164.164 0 01-.044-.18c.058-.133.128-.253.208-.355l.092.081c.027.003.099.01.146-.047.047-.056.009-.095.013-.137l-.039-.203c-.156-.081-.231-.18-.17-.222.061-.042.183-.206.055-.218-.129-.012-.41.046-.397.156.037.13.062.269.076.412a.077.077 0 01-.047-.024.143.143 0 01-.033-.056c-.017-.062-.123-.199-.172-.125a1.657 1.657 0 00-.154.384c-.007.078.174.017.216.057l.021.062c.018.05.038.125.022.172a.183.183 0 01-.057.052.112.112 0 01-.064.015c-.075-.007-.14-.098-.213-.123a.207.207 0 00-.164.033l-.013.138a.254.254 0 01-.224-.058 1.726 1.726 0 01-.135-.43c-.039-.16-.177-.56-.237-.535-.06.025-.233.044-.204-.02.029-.063-.017-.303-.184-.355l-.162.094-.137.077a1.265 1.265 0 00-.454-.006c-.06.025-.202.156-.134.211.067.055-.001.296-.072.235-.07-.061-.39.09-.512.127l.007.206c-.008.09-.058.26-.093.258-.11-.01-.198.12-.143.185l.093.106c.057.142.147.241.253.278.08.007.119.246-.014.155l-.099-.009-.113-.01a.518.518 0 01-.262-.025 4.994 4.994 0 010-.562 3.553 3.553 0 00-.292-.97c-.025-.057-.074-.225-.052-.26.022-.033.05-.176-.034-.13-.084.047-.317.086-.483.143-.166.057-.62-.312-.78-.321-.16-.01-.363.461-.416.372l-.046-.005-.073-.037c-.087-.008-.12-.102-.075-.176l.004-.036-.05-.156-.38-.035c-.166 0-.332.077-.479.22-.104.136-.055.6.024.529.079-.072.344-.168.358-.112l-.042.444-.655-.062c-.12-.011-.392-.218-.344-.401l.155.22.023.038c.13-.084.216-.221.186-.314-.03-.094-.064-.333-.01-.34.054-.007.19-.067.186-.115l-.155-.015a1.895 1.895 0 01-.363-.203c-.043-.034-.127.09-.116.14.01.05-.084.198-.219.215-.135.018-.82-.264-.725-.008l-.056.28c-.005.053.1.148.167.208.038.004.071-.066.067-.102l.003-.03c.003-.036-.046-.077-.04-.106a.289.289 0 01.025-.088.19.19 0 01.047-.063c.044 0 .087.02.124.054l-.047.225c.132.013.203.11.165.155-.039.044-.122.194-.108.25.014.055.011.212-.039.213-.047-.065-.077-.158-.13-.193a.866.866 0 01-.27-.335 1.515 1.515 0 01-.138-.501.484.484 0 00-.1-.26c-.052-.063-.12-.092-.189-.081l-.072-.007c-.083-.093-.194-.091-.24.007-.048.099-.205.26-.252.158-.048-.101-.257-.356-.329-.29-.07.065-.241.255-.201.276.04.022.1.082.075.092a.476.476 0 00-.112.14 1.975 1.975 0 00-.068.363c-.011.12-.104.456-.18.49l-.056-.005-.035-.003c-.041-.004-.066-.066-.058-.156l.264-.042a3.802 3.802 0 01-.11-.615c.023-.2.056-.4.097-.595.012-.126.003-.356-.039-.24l-.052.026c-.135.06-.346.155-.416.076l-.193-.224c-.257.012-.478.094-.486.184-.009.09.02.304.02.389l-.079-.007c-.027-.003-.07.047-.067.066.002.018.167.166-.018.185l-.136-.012c.033-.137.072-.271.118-.4.03-.082.03-.318-.108-.319-.138 0-.307-.349-.324-.375l-.152.15a1.85 1.85 0 01-.6-.287l-.16.124c-.128.103-.207-.116-.232-.088-.115.122-.266.144-.321.042l-.085-.158a.615.615 0 01-.491.026l-.174-.017-.19-.017c-.103-.077-.145.089-.083.367.062.277-.004 1.057.087 1.071.09.015.318-.254.37-.328l.038.004c.133.013.073.164.057.253l-.008.078c-.057.08-.064.163-.016.18.048.016.176.113.096.154-.08.04-.286.04-.321-.079l-.058-.199s-.102-.01-.133.036c-.031.046.17.15-.02.204l-.117.037a.459.459 0 00-.02-.158.273.273 0 00-.07-.116c-.045-.004-.173.062-.158.233.014.17-.33.09-.253-.2l-.305-.088c-.042-.004.104-.299.211-.3l.133.012c.159.015.26-.085.232-.232-.029-.148-.24-.385-.167-.427.073-.041.129-.393.139-.5.01-.108-.064-.381-.177-.398l-.023.24c-.025.027-.054.04-.083.038-.03-.003-.056-.022-.075-.053l-.038-.052-.041-.046a.296.296 0 00-.224-.063c-.139.07-.275.158-.406.264l-.038-.252c-.024-.153-.207-.158-.291.015-.085.173-.176.123-.25-.023l-.06-.096a.384.384 0 00-.3-.029c-.164.04-.327-.024-.453-.175l-.272.09-.298.092c.002.302-.047.503-.085.451-.037-.052-.14-.206-.097-.22.043-.014.105-.111.055-.188-.05-.078-.49.062-.65-.025l-.048-.06-.218-.292c-.14.241-.25.225-.242-.022l-.295.256-.108.093a1.63 1.63 0 01-.406-.19c-.024-.032-.152.15-.235.226l-.092-.117c-.041-.053-.044-.228-.17-.101l-.08.077a.298.298 0 01.001.23c-.03.033-.123.097-.137.041l.004-.041c-.034-.137.154-.39-.093-.402l-.174-.016c-.02.21-.034.365-.1.335l-.045-.053a.853.853 0 00-.59-.176l-.201.06c-.22.063-.41.052-.424-.04l.003-.036.036-.384c-.208.065-.096.288-.143.428l-.005.06c-.008.084-.058.122-.112.086-.054-.035-.152-.171-.125-.217a.403.403 0 00.006-.107.334.334 0 00-.023-.098.204.204 0 00-.047-.07.118.118 0 00-.063-.033l-.084.04-.228.106a1.706 1.706 0 00-.525-.14l.059.102s.018.087-.009.09a.225.225 0 01-.09-.008l-.166.014a1.23 1.23 0 00-.576-.126l-.145.034-.046-.004a.136.136 0 00-.026.049.184.184 0 00.002.118c.007.017.017.03.028.039l.042.046.023.002c.02.057-.093.173-.257.248l-.019-.328c.008-.084-.127-.15-.205-.213 0 0-.051.056-.08.077l-.046.044a.09.09 0 01-.04.025.064.064 0 01-.04-.002.085.085 0 01-.036-.028.146.146 0 01-.024-.05l.006-.066c-.02-.11.093-.263-.056-.338-.068-.006-.13-.114-.19-.102a.615.615 0 00-.244.17l-.069.079c-.069.126-.132.187-.142.131-.01-.055-.154-.11-.299-.028-.145.083-.58-.12-.637-.132-.056-.011-.195-.079-.189-.145.006-.066.085-.258.157-.25l.05.004.041.004c.063-.025.049-.074-.025-.105-.073-.031-.243-.295-.273-.262a1.526 1.526 0 00-.16.324c-.033.105-.038.407-.107.407a1.048 1.048 0 01-.383.012l-.068-.091c-.106-.13-.18-.162-.291-.027l-.379-.036-.142.09a.383.383 0 01-.119-.078l-.026-.05-.071-.135a.314.314 0 01-.303-.028c-.03-.057-.164-.13-.181-.065l-.023.046-.004.036a.22.22 0 01-.163-.016.54.54 0 00-.134.254l-.011.12a.1.1 0 01-.102-.007.189.189 0 01-.071-.106l.009-.096c.004-.042-.11-.09-.245-.114l-.125-.012-.106-.01c-.127.049-.175.026-.102-.051.072-.078.18-.334.087-.403-.093-.07-.346-.184-.374-.09a1.66 1.66 0 01-.124.436l-.069-.007a.533.533 0 01-.021-.262c.008-.09-.216-.14-.268-.121-.05.02-.02.221-.022.245-.003.024-.029.1-.09.107l-.03-.003-.063-.072c-.03-.047-.07-.075-.113-.079-.043-.004-.088.016-.125.056-.074.09-.629-.059-.645.03l-.005.054-.026.07a.197.197 0 01-.054.08.095.095 0 01-.07.023.581.581 0 01-.12-.259l-.033-.063a.16.16 0 00-.056-.053.111.111 0 00-.068-.013.142.142 0 00-.05.054.248.248 0 00-.027.084l-.011.114c.023.159.006.266-.041.237-.047-.028-.167-.179-.272-.279l-.077-.122-.05-.077a.877.877 0 00-.233-.167l-.03-.003a1.09 1.09 0 01-.368.135l-.132-.013a1.098 1.098 0 00-.332-.248c-.06-.006-.144.191-.201.15-.057-.042-.187-.211-.14-.261.047-.05.138-.217.038-.208a3.585 3.585 0 00-.546.293l-.174-.1a.652.652 0 00-.094.184 2.396 2.396 0 01-.153.33.226.226 0 01-.04-.082.345.345 0 01-.011-.104c.009-.096-.034-.372-.077-.364a.473.473 0 00-.18.17c-.052.068-.341-.032-.47-.044-.129-.012-.496-.046-.487-.142.01-.096-.011-.328-.06-.296l-.04.057a.134.134 0 01-.026.038.078.078 0 01-.032.021.055.055 0 01-.034 0 .068.068 0 01-.03-.022c-.026-.045-.164-.118-.2-.019-.036.1-.183.442-.222.45l-.095-.008c-.056-.006-.06-.097-.012-.153l.038-.038.038-.045c.048-.056.043-.123-.012-.152l-.208-.02c.027-.1.05-.203.07-.307 0 0-.045-.083-.115-.078l-.002.03-.055.14a1.009 1.009 0 00-.019.266.842.842 0 00.051.245l-.104.05-.053-.005a1.153 1.153 0 01-.211-.352c-.022-.093-.143-.273-.217-.22l-.057-.005c-.087-.008-.164-.118-.249-.114-.084.004-.08.168-.142.21l-.049.038c-.113-.01-.162-.106-.11-.167.051-.062.085-.138-.031-.04a.73.73 0 01-.533.023l-.042-.004-.093-.07c-.046-.118-.116-.1-.156.04l-.032.136c.043.093.091.178.144.256.074.11.177.445.013.557v-.369c.004-.036-.144-.092-.217-.08l-.091-.01a.44.44 0 00-.13.135.715.715 0 00-.089.202c-.01.108-.066.26-.087.076-.021-.183.168-.818.043-.914-.125-.096-.506.146-.489.208l.014.055-.003.03c-.003.036-.008.084-.047.099l-.057-.006a3.389 3.389 0 01-.19-.295l-.12.024-.08-.007c.072.29.041.457-.066.38l-.08-.007c-.117-.011-.223-.02-.09.155 0 0-.035.081-.046.08l-.046-.004a.17.17 0 01-.056-.08.312.312 0 01-.017-.12c.007-.078.067-.308.117-.31.05-.001.17-.105.155-.227l-.017-.104-.017-.068a.121.121 0 00-.064-.073c-.028-.01-.057-.004-.083.017l-.036.057-.098.148c-.128.139-.23.292-.227.34a.547.547 0 01-.071.193.3.3 0 01-.122.116c-.12.055-.393-.085-.302-.155a2.16 2.16 0 00.337-.38c.004-.041-.023-.159-.102-.178l-.033.033-.115.122c-.12.17-.22.233-.223.136a3.84 3.84 0 00-.021-.346.285.285 0 00-.061.127c-.007.072-.106.226-.144.15l-.039-.04c-.069-.08.014-.386-.182-.26l-.142.09c.091.13.136.31.1.402l-.238-.022c-.118-.011-.162.1-.123.206.04.107.134.08.205.02.027-.029.06-.043.091-.04.03.002.08.007.08.05 0 .042.005.15-.017.173a1.127 1.127 0 01-.221.124c-.24.147-.392-.145-.604-.165l-.041-.004c-.04-.155-.106-.216-.15-.147-.045.068-.136.06-.109-.192l-.263.284-.077.083c-.185-.06-.352-.033-.383.019-.032.051-.11.159-.167-.016a1.52 1.52 0 00-.652-.496l.026.087c.038.118.046.119.2.055l.136-.054.196-.06c-.03-.166-.12-.235-.196-.151l-.019-.002-.124-.012c-.073.078-.09.42-.036.752l-.152-.177a.212.212 0 00-.074-.078.14.14 0 00-.09-.019.178.178 0 00-.091.045.318.318 0 00-.074.1l-.061.084a.761.761 0 00.232.21c.072.006-.165.25-.236.158-.072-.09-.154-.48-.21-.485-.058-.005-.24.195-.237.117a1.068 1.068 0 00-.162-.438c-.077-.116-.42-.04-.39-.145.028-.107.036-.396-.028-.408-.2.096-.397.213-.59.35-.03-.003-.13.042-.148-.014l.004-.036c.014-.156-.055-.193-.142-.159-.027-.002-.059.14-.046.202l.016.116a.44.44 0 00.128.148c.05.035.103.053.159.054.11.01.32.218.29.25a2.655 2.655 0 01-.758-.07l-.233-.367a.165.165 0 00-.08.078.322.322 0 00-.039.135l.03.057.018.038c.042.004-.011.126-.125.284-.114.159-.43.51-.418.384.012-.126-.018-.467-.063-.471-.046-.004-.198.03-.211.095-.014.065-.098.19-.144.107a1.713 1.713 0 01-.128-.465.293.293 0 00-.116-.18.156.156 0 00-.17.002l.108.234c.04.076.024.202.022.304-.002.103-.046.08-.069.078l-.045-.004a.219.219 0 01-.05-.102.355.355 0 01-.005-.133c.01-.102-.202-.248-.229-.203-.027.046-.173.171-.172.045 0-.127-.057-.459-.134-.484l-.046.038-.09.07c-.06-.06-.053-.048 0 0l.086.008c.027.002.042.088.035.166a1.081 1.081 0 01-.138.29.675.675 0 01-.194.193l-.137-.05a1.168 1.168 0 01-.366-.372l-.17-.191c.096-.197.103-.19 0 0-.101.19-.376.726-.444.677-.068-.049-.304.105-.34.125a.29.29 0 01-.196-.078c-.05-.041-.27-.086-.34.04l-.011.126c-.015.156-.084.161-.179.152-.094-.008-.159-.015-.135-.188.024-.173.042-.243-.09-.226-.038-.003-.066.14-.11.16l-.164.075c-.205.07-.37.074-.383.012a3.98 3.98 0 00-.006-.544c-.016-.195-.397-.413-.413-.323l-.007.072c-.005.06.121.138-.015.161-.136.024-.15.053-.155.185l-.014.156a1.197 1.197 0 00-.416-.087l-.031.335c-.035.081-.071.144-.078.138a.52.52 0 00-.192.127c-.095.081-.183-.368-.22-.414-.038-.046-.166.051-.216-.02-.051-.071-.146-.364-.206-.291l-.05.037-.179.159c-.054-.199-.139-.23-.183-.078l-.054.122-.005.054a.165.165 0 01-.097.023.166.166 0 01-.092-.04c-.049-.054.068-.32.067-.393 0-.073.028-.3.07-.302.043-.002.173-.044.167-.069-.005-.025-.086-.062-.169-.07-.083-.008-.296.099-.288.257.009.158-.021.602-.078.597-.057-.006-.224.063-.224-.021 0-.085-.032-.263-.06-.205-.029.057-.133.15-.164.069-.03-.082-.153-.28-.176-.198 0 .213.025.421.077.612l-.044.177-.062.254c.14.05.13.09-.028.1-.158.01-.48-.293-.444-.362.037-.07.217-.028.25-.103.034-.076.063-.14-.105-.095-.169.045-.557.443-.518.266a4.18 4.18 0 00.113-.594s-.088.082-.131.217c-.043.135-.197.477-.223.42l-.042-.04a.352.352 0 01-.097-.148l-.018-.05c.012-.141.044-.279.095-.402.06-.151.37-.37.327-.398-.043-.028-.097-.142-.053-.205a.334.334 0 00.024-.217.228.228 0 00-.039-.09.118.118 0 00-.063-.044c-.136-.055-.346-.178-.351-.33a2.3 2.3 0 01.07-.754c.06-.104-.03-.462-.005-.514l.037-.033.091.008c.004 0 .043-.177.02-.221l-.165-.27c.118-.158.225-.202.238-.092.019.115.05.222.092.317.056.05.118.079.184.085a.316.316 0 00.195-.05 1.43 1.43 0 01.551-.299c.061.042.325-.205.469-.27l.11.053.116.053.358-.069c.076.007.284.027.285.105 0 .079-.185.466-.076.44.11-.026.376-.176.343-.276l-.015-.086.005-.053c.059-.19.127-.374.204-.55l.207.28c.03.045.151-.022.233-.039l.057.006a.901.901 0 01.364.19l.166-.062.162-.057c.167-.238.279-.288.255-.115l.017.068a.27.27 0 00.04.095c.018.025.04.044.064.053.12-.018.118-.121.068-.235l-.016-.032c-.04-.07.013-.143.13-.157.127.03.25.087.365.168.095-.053.187-.124.272-.21l.125.011.13.043.408-.04.079-.023c.03.002.079-.065.085-.053l.322.393c.278-.312.558-.492.626-.4.068.09.304-.105.337-.053.219.033.445-.032.652-.187l.297.288c.064.05.136.072.21.067a.365.365 0 00.214-.1l.061-.049a.337.337 0 00.286-.027c.004-.042.104-.13.127-.049.023.081.028.305-.032.342-.119.098-.233.21-.341.336-.087.12-.158.267-.208.428a.21.21 0 00.06.102.106.106 0 00.088.027l.054-.043c.16-.119.037-.402.158-.505.12-.104.29-.088.303-.34.05-.105.11-.2.175-.28l.1-.1.034-.033c.095.01.147.063.118.096-.03.033-.015.156.15.141.182-.013.364-.054.543-.124-.045-.005-.08-.129.057-.122.137.007.462.086.414.196a1.92 1.92 0 00-.125.556l.042.004c.06.042.353-.347.347-.444l-.012-.28c.154 0 .307.014.458.043.175-.052.347-.141.51-.266a.465.465 0 01.435.083c-.006.066.045.3.086.22a.535.535 0 01.566.126l.205.128.034.003a.161.161 0 00.067-.083.277.277 0 00.018-.127l-.03-.057-.035-.07c-.073-.073-.04-.149.073-.162.112-.014.32.254.338.177.02-.077.098-.27.14-.217.04.052.233.07.275-.137.043-.208-.174-.67-.198-.538-.023.13-.13.495-.175.442a1.107 1.107 0 01-.063-.423c.014-.15-.133-.423-.173-.318-.04.105-.01.386-.043.461l.03.088.026.087c.023.086-.047.14-.155.112-.108-.028-.423-.01-.41.1l-.007.072-.005.048a.16.16 0 01-.024.08c-.014.02-.033.033-.051.034l-.023-.002a.577.577 0 00-.56-.1.168.168 0 01-.095-.01 1.078 1.078 0 00-.318-.15c-.117-.011-.22.263-.358.032-.03-.05-.196.048-.298.039l-.11-.01a.895.895 0 00-.424-.083l-.033.07c-.097.22-.184-.156-.274.028-.004.042-.125.037-.186.031l-.242-.022c-.104.207-.223.257-.267.114-.044-.144-.15-.51-.098-.505.053.005.223-.058.236-.153.013-.096-.03-.293-.125-.175l-.08.035-.09.033c-.13-.012-.218.034-.195.121.022.087-.011.325-.131.302l-.054.043-.129.11c-.066-.09-.152-.137-.243-.133-.06-.005-.189.303-.26.417l-.039-.082-.108-.228c-.178.02-.303-.028-.285-.063a.413.413 0 00-.02-.185.204.204 0 00-.09-.115l-.045.038-.104.087c-.103.165-.188.218-.183.122.005-.097-.066-.357-.157-.366-.09-.008-.31.014-.251.08.058.066.157.28.033.299l-.027-.039-.197-.266c-.177.219-.382.332-.46.265-.078-.068-.277-.31-.203-.321.074-.012.225-.082.216-.15-.009-.067-.207-.357-.213-.297-.005.06-.1.262-.196.265-.096.003-.387.049-.359.118a.392.392 0 01-.019.166.254.254 0 01-.08.12c-.083.029-.239-.022-.187-.162.051-.14-.229-.378-.238-.276-.01.102-.086.348-.15.3a.501.501 0 00-.322-.03c-.057-.006-.265-.025-.284-.148-.02-.123.161-.54.09-.674l-.065-.085-.135-.194c-.089.173-.183.285-.207.253-.024-.033-.078-.231-.003-.254l.05-.05c.126-.115.179-.231-.02-.304a.1.1 0 01-.045-.053.203.203 0 01-.015-.086c.004-.042.055-.097.09-.112l.091-.034c.12-.019.216.02.216.02a.774.774 0 00.167.336l.009-.09c.022-.24.197-.186.29-.287l.136-.144c-.105-.149-.02-.237.187-.206.207.032.532-.5.503-.557l-.144.107a.892.892 0 01-.607.167l-.109-.15-.126-.162c-.012.132-.023.245-.07.26a.665.665 0 01-.338-.262l.17-.196c.125-.14.018-.18-.03-.238-.048-.06-.052-.186.023-.246.074-.06.075-.156.05-.285l-.031-.082c.122-.164.176-.334.123-.381-.053-.047.073-.247.095-.281.022-.034.047-.135.015-.156-.033-.021-.083-.177.005-.26l.057-.085.062-.09c.062-.134.153-.21.204-.175.05.035.155.172.126.206l-.023-.003c-.163-.015-.348-.032-.19.285 0 0-.05.086-.06.133l-.006.072a.193.193 0 00.055.108.09.09 0 00.09.02l.046-.05.06-.067c.049-.11.19-.108.307.03.234.053.475.052.715-.006.09.008.328-.12.302-.25-.026-.129-.259-.338-.247-.385l.023.002c.044-.048.09-.09.138-.126.049-.038.137-.12.143-.108l.16.245a1.13 1.13 0 01.24-.346.4.4 0 01.082.14c.02.055.033.119.036.185l-.13.09a.24.24 0 01-.212.053c-.08-.074-.15-.195-.227-.021-.024.052.039.197.09.262l.06.084c.11.057.231.043.34-.04l.06-.103.055-.098a.43.43 0 01.066-.166.218.218 0 01.11-.09 1.02 1.02 0 00.263-.029.186.186 0 00-.1-.082c-.056-.005-.16-.112-.095-.16.066-.048.192-.296.102-.438-.09-.14-.47-.291-.448-.187.02.105-.033.354-.123.37-.09.015-.254-.302-.196-.315a.476.476 0 00.155-.2.782.782 0 00.063-.293l-.27.198-.05.032c-.09-.093-.135-.182-.1-.191l.023.002c.137-.114.188-.417.413-.336a.35.35 0 00.05-.158.169.169 0 00-.046-.065.097.097 0 00-.061-.024l-.137.042c-.152.064-.282.19-.29.275-.008.084-.071.313-.129.32-.058.007-.148-.087-.03-.245.117-.158-.085-.57-.294-.456l-.195.078-.026-.002c-.074-.146.132-.43.46-.634l.345.032c.019.002.07-.096.07-.144l.005-.38c.16.09.33.135.504.132l.02.159.017.176c.127.079.239.065.248-.03.008-.097-.024-.36-.1-.367a.631.631 0 01-.364-.197c-.051-.101-.092-.444-.144-.503-.051-.06-.158-.263-.188-.23-.03.034-.092.162-.04.178.133.098.237.265.296.475l-.292-.027a.12.12 0 00-.09-.009.682.682 0 01-.452.055l-.046-.005a.23.23 0 01.038-.185.101.101 0 01.04-.03l.045.003.072.007c.08.086.151.099.159.015.008-.084-.026-.292-.086-.304a.855.855 0 01-.24-.095.876.876 0 01.187-.2c.091-.076.397-.162.406-.252.008-.09.124-.387.136-.314.014.079.022.16.023.244l-.028.058-.012.12c.034.046.077.072.124.072l.105-.063a.123.123 0 01.072-.04.094.094 0 01.072.022.17.17 0 01.052.077.308.308 0 01.017.112l.131.067.11.059c.012-.132.063-.236.104-.226l.152.014a.059.059 0 00.043-.004.1.1 0 00.038-.036.178.178 0 00.025-.058.216.216 0 00.005-.067l-.03-.081-.098-.27c-.129.152-.227.227-.222.167a.726.726 0 01.113-.203.43.43 0 01.15-.122c.132-.06.439.174.477.129.039-.045.164-.154.072.007-.091.16-.191.538-.025.68l.042-.038.147-.15c.125.139.232.18.237.09a6.537 6.537 0 00-.103-.657l.238-.062.034.003c.041-.147.08-.204.084-.113.003.09.071.297.143.303.072.007.26-.005.24-.037a.164.164 0 01-.01-.049.2.2 0 01.02-.1.117.117 0 01.027-.035l.03.002.069.043c.083.086.164.118.18.065.017-.052.05-.194.06-.224.102-.086.218-.11.323-.066.159.057.486-.051.343-.197l-.123-.151c-.027-.042-.063-.067-.103-.071-.039-.004-.079.014-.113.05l-.041.033c-.072-.007-.117-.096-.095-.172l.011-.12a.107.107 0 00-.02-.061c-.013-.015-.029-.021-.045-.017a.788.788 0 00-.232.195c-.085.09-.383.255-.398.174-.016-.08-.067-.23-.137-.175l-.019-.002c-.065-.12-.158-.198-.26-.219-.104-.02-.212.017-.306.105l-.106-.01a.345.345 0 00-.203-.096.344.344 0 00-.217.057c-.05.037-.129-.012-.19.036l-.173.087a1.811 1.811 0 00-.65-.164l-.17-.016a.41.41 0 01-.228-.094l-.105-.1-.351.124-.074-.074-.035-.033a2.19 2.19 0 01-.844-.08l-.34-.08c-.374-.083-.748-.173-1.124-.232-.14-.013-.296-.112-.441.055l-.022.028a3.601 3.601 0 01-.351-.329l-.15.053-.15.052c-.175-.21-.349-.353-.353-.311-.004.042-.083.07-.103-.046-.02-.117-.27-.17-.29-.124-.02.047-.083.029-.082-.147l-.196.018a.598.598 0 01-.303-.155l-.049-.005c-.04-.058-.049-.131-.015-.164s.089-.173.02-.222l-.054-.072c-.119-.156-.112-.264.034-.359l.179-.116c.064-.123.103-.27.113-.422a1.01 1.01 0 00-.06-.425c-.103-.215-.073-.95-.128-.967-.056-.017-.17-.107-.106-.18l.005-.047.009-.096a.426.426 0 01-.005-.18.362.362 0 01.067-.158c.141-.139.287-.264.436-.377.086-.064.522-.186.493-.286l-.033-.063a1.081 1.081 0 00-.173-.234l-.225.203a.726.726 0 01.013-.3.547.547 0 01.126-.243c.125-.152.479-.264.488-.16.01.104.26.248.305.415l.13-.03.11-.032a.293.293 0 00.127.145.118.118 0 00.081-.046.26.26 0 00.052-.11l-.03-.003-.104-.119c-.127-.108-.213-.256-.19-.332.088-.132.202-.213.319-.23l.28.026c.205.02.33-.09.278-.24l.177-.05a.095.095 0 01.098.01l.033.057c.024.075.063.11.084.08l.286-.317.194.127a.996.996 0 00.708.067l.214-.035c.183-.242.349-.341.373-.23l.043.064a.488.488 0 00.179-.068l.142-.131c.139-.102.258-.146.268-.096.011.05.07.115.114.047.045-.069.193-.218.226-.166a.86.86 0 00.553.167c.232-.021.773-.097.75-.262l.095.05c.11.06.202-.319.254.024-.004.037.012.11.024.112.257.024.492.167.768-.05l.259-.192c.278.048.558.075.84.079.122.01.425.202.47.176l.033-.033a.992.992 0 01.495-.236.78.78 0 01.496.094c.026.002.056.09.064.084l.119-.08c.104-.091.222-.125.333-.095.061.042.22-.179.238-.213a.838.838 0 01.372.107c.11.047.439-.122.49-.056.051.065.318-.134.422-.178l.098.009.106.01.179-.032a3.57 3.57 0 00.519-.12c.157.04.309.115.449.223.08.044.25-.151.237-.044-.014.108.209-.15.264-.29l.095.13a.3.3 0 00.146.12.229.229 0 00.172-.011l.21-.162c.075.177.147.226.158.106.011-.12.218.075.242.022.024-.052.116-.134.117-.061.01.064.033.119.066.157a.14.14 0 00.117.054l.087.008.197.018.078-.065a.348.348 0 01.133-.148.178.178 0 01.157-.012l.099.01.306.028c.103.01.224.02.262-.187l.007-.066a.69.69 0 01.333.152l.06.006.16.082c.07-.217.157-.282.19-.146l.061.042a.25.25 0 00.269.025c.073-.047.107-.207.183-.285.076-.077.118.048.174.017l.09-.028.199-.114.053.077c.088.117.19.209.3.27l.08-.083.274-.276c.288.04.565.156.82.342l.067-.308s.026-.033.042-.038c.208-.017.417.118.63-.05.035.004.139.08.207.129l.156.13c.169-.094.38-.195.472-.229l.018.002c.122.217.258.024.38.036.133.034.27.046.408.038a.73.73 0 00.321-.127c.062-.042.091-.197.146-.21.13-.036.088.123.114.21.033.044.076.065.12.06l.216-.258.886.084.193.018.265.025a.897.897 0 01.547-.263c.037.058.188.199.238.155.05-.044.213-.113.212-.022 0 .09.07.43.165.486.094.058.293-.317.33-.337l.026.002.269.146c.242-.208.504-.344.77-.399l.168-.038c.12-.025.236.252.384-.019.028-.057.154-.058.234-.056l.511.048.091.008c.073.073.15.135.231.185l.073-.084.661-.252.277.105.023.002c.026.002.062-.055.081-.137.02-.083.22.056.3.028a.534.534 0 01.321.03c.083.056.386-.042.533.104l-.052.267-.004.048c.025.063.098.01.17-.177a.837.837 0 01.403-.214.63.63 0 01.409.06l.279-.245.041-.039c.103.053.202.121.295.203l.02-.215c.038.003.204-.018.383-.019.213.065.422.151.626.258l.029-.027.108-.099.245.078c.091.008.11-.274.273-.144.064.054.241-.044.27.025.027.07.23-.177.263.08.04.023.085.027.129.012l.118-.116c.125.023.251.035.378.035.08.008.366-.074.469-.065.176-.01.35.024.513.103l.095.009.087.008a.619.619 0 00.308-.23l.078.06.078.063c.102-.07.17.016.15.195l.012.122.017.304a.954.954 0 00.532-.295l.076-.077c.141-.15.289-.28.441-.394l.164-.117c.212.13.433.226.661.285l.197-.024.038.004c.102-.095.207-.18.314-.255l.026.045.185.314a.588.588 0 01.228-.236.314.314 0 01.262-.02c.2.164.414.284.639.356l.014-.15.022-.24.318-.043c.083.008.272.026.243.132-.029.106.227.021.288.027.06.006.166-.22.226-.25l.046-.045c.12-.11.132.267.29.076.062-.079.23-.033.341-.004.105.038.208.088.307.15.029.02.062.023.094.008l.099-.069a.637.637 0 01.353-.106l.258.024c.19.121.387.23.435.247.048.016.175-.11.212-.059.037.052.31-.086.507-.073a3.3 3.3 0 00.957-.388c.142-.09.53.17.592.122l.057.006.087.008c.103.022.21.013.315-.025l.005-.048a.232.232 0 01.026-.084.13.13 0 01.05-.052.069.069 0 01.057-.006.095.095 0 01.048.044l.212.304c.162-.226.275-.282.25-.133l.176-.056a.51.51 0 01.238-.05c.163.015.321.199.459-.084a.867.867 0 01.16.087.098.098 0 00.071.007.405.405 0 01.389-.072c.125.011.258-.019.384-.019s.25.024.378.036l.034.003c.147.017.297.001.444-.049l.185-.061s.042.125.076.176l.022.002a.439.439 0 00.197-.096c.335-.032.67-.13.997-.293l.38.301c.065.049.182.017.277-.016a.359.359 0 01.174.016l.306.12c.102-.196.233-.323.29-.281.057.041.261.103.291.027.03-.076.31.03.386-.042.076-.072.398.194.556.221l.137.013.068.006c.072-.114.138-.168.149-.125.011.044.163.016.306-.164l.133.121c.176.123.37.18.57.168l.25.024a.789.789 0 01.589-.138c.116.06.416.28.47.207l.06-.03c.116-.062.248.246.358-.04.11-.285.214.087.309-.073.056.01.11.03.163.057l.06.006c.163-.02.326-.077.482-.172l.2.11a.176.176 0 01.046-.074.082.082 0 01.062-.023.082.082 0 01.057.034c.016.02.027.049.032.08l.05.005c.06.006.147-.07.213-.125.066-.054.088-.118.152.015s.35-.034.437.228c.109-.053.214-.131.312-.23l.12.01.209.02c.18-.028.361-.01.534.05l-.005.054c.007.164.077.153.168.119.091-.034.207-.216.375-.128l.113.059a2.73 2.73 0 00.64-.345l.14.291a1.84 1.84 0 00.295-.256l.082.153a.312.312 0 00.112.131.193.193 0 00.144.026l.11.01a.413.413 0 00.31-.092c.051-.055.208-.18.238-.134.03.045.139.152.155.105.024-.027.053-.04.081-.038.029.003.055.021.074.052.054.072.242.234.252.163.01-.072.167-.196.315-.103l.195-.121.174-.11c.087-.107.164-.112.17.015l-.005.066-.006.06c-.008.084.035.112.063.06.108-.14.231-.247.362-.316l.086.226a.162.162 0 00.122.078.285.285 0 00.182-.062l.026.002c.038-.08.067-.096.069-.035.002.06.03.244.06.259l.125-.121c.222.055.44.14.649.254l.114-.358a.072.072 0 01.068.007l.196.266c.185-.14.381-.234.58-.278.099.01.373.101.433-.014s.428.083.549.052l.087-.077a.237.237 0 01.16-.094.188.188 0 01.156.07c.12.18.195.072.3-.015l.026.003c.065.036.102.094.08.122-.022.028-.016.168.072.206l.064-.03c.107-.044.167-.196.275-.282l.16-.13c.096.087.203.128.238.082a.305.305 0 01.133.128l.02.062c.125.028.252.04.38.036l.084-.089.15-.167a.373.373 0 00.424.082l.125-.037s.061.042.069.08c.008.036.057.204.08.085l.05-.255c.143.062.29.108.438.138.216-.047.428-.154.626-.316l.097.184a.36.36 0 01.205.056c.05.04.208-.065.25-.03.044.033.19.102.205.018.017-.08.038-.16.064-.235a.12.12 0 01.026.043.17.17 0 01.01.057.905.905 0 00.056.265c.118-.074.233-.16.348-.245a.384.384 0 01.133-.073c.144.014.265.182.435.041l.023.002c.11.162.214.244.228.179.013-.065.085-.258.115-.213.206.028.415.013.623-.044l.258.181c.054.009.11-.014.159-.063l.024-.264c.167-.027.303.028.309.09a.402.402 0 00.174.174.27.27 0 00.214.007c.345-.026.688.006 1.022.096l.105-.057a.226.226 0 01.257.024c.16.048.326.064.492.047a.1.1 0 01.095.008c-.007.072.027.076.08.008.052-.068.302.028.364.185l.077.122.019.002a.238.238 0 00.143-.222l-.11-.01c-.007-.134.02-.222.05-.201.065.05.12.126.162.22l.041.047a.228.228 0 00.155.099c.196-.012.382.08.53.261l.194.212c.022-.24.107-.329.17-.196.09.355.155.725.196 1.106l.29.082.117.01c.099.01.094.137-.027.294l.245-.05.18-.037a.262.262 0 01.106.159.52.52 0 01.005.239l.028.075.086.22c.137.248.178.463.093.48a1.54 1.54 0 01-.432-.162c-.068-.007-.249.327-.196.302a.302.302 0 01.192-.018c.014.142.013.289-.002.435-.019.197-.254.67-.225.686.03.014.118.131.056.18-.062.049-.25.273-.259.356-.007.084-.063.393-.09.36a.071.071 0 00-.047-.001.102.102 0 00-.044.028.18.18 0 00-.035.054.258.258 0 00-.018.07c-.013.137.189.549.148.617l-.007.078c-.068.2-.073.459-.31.497-.023-.002-.072.12-.06.151l.068.17c.09.184.07.315-.049.28l.01.26.012.28c-.03.317-.09.595-.143.554l-.019-.044-.062-.115a1.96 1.96 0 00-.164-.372c-.036-.064-.155.113-.148.198l.09.057a.148.148 0 01.056.082.283.283 0 01-.034.235.119.119 0 01-.075.052c-.106.027-.23.287-.342.023l-.069-.007c-.338.161-.69.203-1.027.121-.106-.01-.246.104-.31.056l-.075-.068c-.044-.215-.101-.22-.132-.012l-.058.043a.803.803 0 01-.418.142l-.166-.016a.622.622 0 00-.498.092c-.084.083-.29-.166-.305-.167l-.218.088a2.121 2.121 0 00-.807.088l-.166-.064-.15-.057c-.164.027-.355.07-.43.087a.808.808 0 01-.493-.155l-.17.14c-.09.07-.24-.082-.37-.125l-.162-.063c-.21.083-.403.222-.41.312-.01.09-.2.132-.195.036.005-.096-.009-.357-.032-.354-.023.004-.066.097-.099.197-.032.1-.076.373-.037.401.04.028.096.16.012.2-.084.041-.227-.268-.272-.327l.03.003-.51-.048c-.053-.005-.142-.074-.143-.11.015-.156-.06-.223-.141-.165l-.038-.003c.016.152-.024.257-.106.232-.081-.026-.244.285-.35.36l.129.175.122.162c.093-.1.196-.138.226-.093a.403.403 0 00.165.154c.063-.097.115-.206.181-.303.067-.096.061.006.095.009l.178.017c-.073.126-.082.228-.02.221.061-.006.075.219.078.225.003.006.056.005.1-.1.045-.104.192-.29.255-.23.138.11.281.204.428.283l.114-.068c.075-.034.148-.08.219-.137.092-.094.044-.189-.013-.279 0 0 .046-.074.077-.083a.071.071 0 01.044.008.12.12 0 01.036.035l.008.164c-.019.198.055.344.129.333l.034-.04.136-.144.5.174.071.128c.066.115.066.115.138-.084a.336.336 0 01.131-.145.172.172 0 01.155-.01c.055.036.109.077.16.124l.042.004c.043.065.147.014.227-.063l.077-.083.127-.14c.077.145.168.268.272.364l.042-.122.097-.27c.17.064.344.1.521.11l.114.01.038.004c.16.057.315.138.462.243l.247-.194.169-.13c.089.196.197.303.242.235.044-.069.378.035.465.043.22-.073.434-.193.637-.357l.017.31-.013.144c.08-.033.16-.08.234-.141a.137.137 0 01.093-.028c.03.003.06.018.085.044.036.06.063.132.078.212.016.08.02.165.013.25-.015.156-.018.603.107.615l.094.008c.034.018.07.021.106.01.21-.113.206-.113.288.027l.09.111c.046.05.078.128.086.218a.546.546 0 01-.04.264l-.015.162-.008.084a.72.72 0 00.305.294l.105-.062.045-.032c.033-.106.096-.167.146-.132.05.035.166.227.126.326l-.048.026-.134.078a.404.404 0 01-.342.023c-.03-.046-.153-.081-.193.03a2.861 2.861 0 00-.116.424.091.091 0 00.05-.024.17.17 0 00.041-.058c.03-.064.12-.219.138-.205.03.094.041.202.032.311-.013.138-.092.451-.15.38-.058-.073-.224.147-.313.242l-.106-.01c-.03-.003-.084.076-.084.119 0 .042.031.117.068.133l.06.006c.076.007.088.129.023.292l.027.039.16.256c-.112.075-.225.14-.34.198-.023-.002-.055.104-.02.204.037.1.24.421.218.624a8.945 8.945 0 01-.173.83.039.039 0 01-.026.008.039.039 0 01-.024-.012l-.022-.003c-.024-.032-.147.06-.27.199l-.026.27c.061.204.14.46.177.56.036.1.018.418-.15.409l-.124-.012c-.147.017-.29.07-.432.08-.142.011-.276-.026-.408-.038-.133-.012-.355.118-.386.042l-.12-.198c-.151.108-.306.2-.464.276l-.149-.086-.127-.03c-.159-.015-.274-.056-.247-.138.027-.082.032-.342-.078-.352-.11-.01-.362.033-.37.116a.414.414 0 01-.1.182.186.186 0 01-.144.061c-.162.03-.323.093-.48.185l-.049-.005a.94.94 0 00-.586-.055 2.297 2.297 0 01-.61-.057l-.09-.008c-.12.043-.242.067-.362.068l-.084-.007c-.088-.039-.231-.137-.258-.097-.117.152-.16-.015-.235-.022-.076-.007-.188.097-.276.089-.087-.009-.166-.137-.254-.14l-.159-.014a7.044 7.044 0 01-.58.109l-.124-.133c-.063-.066-.229.033-.347.028a4.5 4.5 0 00-.766.025l-.045-.005a1.417 1.417 0 01-.348.004l-.121-.011-.182-.017a2.684 2.684 0 01-.455-.043l-.049-.005a2.074 2.074 0 00-.428.093c-.135.054-.202-.212-.337-.08-.134.133-.12-.186-.227-.021-.044.062-.192.012-.291.009l-.666-.063a.514.514 0 00-.303-.028l-.158.088a1.414 1.414 0 00-.535-.202l-.147.029a1.21 1.21 0 01-.636-.06l-.16-.051a.847.847 0 01-.651-.061l-.206.12c-.138.083-.333-.032-.504-.048l-.333.011a1.816 1.816 0 01-.78-.073c-.063-.06-.282-.087-.413-.16l-.09.107a.378.378 0 01-.166.095.274.274 0 01-.17-.012l-.883-.083a.302.302 0 01-.321-.03c-.055-.072-.263.078-.316.03-.053-.047-.272.041-.332.03-.06-.012-.466.004-.766.03l-.218-.129-.155-.093a.712.712 0 00-.311.225c-.042.075-.36.002-.496-.047l-.129-.012-.064-.006c-.088.04-.068.109.038.16l.089.076.088.074c.092.118.103.167.024.117-.08-.05-.35.113-.358.233l.02.11a.236.236 0 00.121.133l.255-.23c.184.26.425.406.683.414l.223.021.046.005c.053.04.107.04.125.011.018-.028.072-.162.087-.16a.72.72 0 01.137.09c.057.006.237-.122.264-.246l-.013-.116c-.021-.256-.12-.012-.143-.014-.135-.2-.207-.2-.305.074l-.057.158c-.182-.053-.264-.121-.18-.162l.063-.06s.013-.132-.026-.166l-.037-.052c-.064.03-.084-.008-.05-.005a.234.234 0 01.189-.054c.057.005.21-.041.257.024.048.065.295-.051.365-.063a.774.774 0 01.265.025s-.042.123-.133.163l-.049.068c-.05.08-.095.239-.065.29.03.051.189.23.249.199l.18-.098c.066.104.136.2.21.285.127.015.255.015.383 0l.108.197a.175.175 0 00.193.019c.088-.053.163-.197.252-.212l.076.007c.092.08.234.197.32.26.085.062.44-.014.587.09l.174-.104.04-.026c.069.006.137-.03.15-.095.014-.065.113-.134.182.017.178-.104.237.33.452.115l.084-.083c.149.023.29.092.417.203l.097-.106a.28.28 0 01.196-.099.241.241 0 01.187.093.599.599 0 00.541.05c.006-.06.07-.216.108-.207l.023.153c.025.269.085.407.135.315.05-.092.184-.255.204-.18.025.055.06.096.102.117a.147.147 0 00.132.002c.106-.078.216-.137.33-.175-.004.036.017.135.059.139l.075.007c.09.008.18.028.266.06.121.012.511.007.562.114.051.108.218.28.254.181a.334.334 0 01.078-.102.185.185 0 01.095-.046.146.146 0 01.095.02c.03.018.056.046.077.082l.202-.078.06.006c.1-.052.196-.126.285-.221l.093.147.034.046.098.01c.042.003-.01-.292-.278-.498l-.245-.114-.046-.004a.167.167 0 01-.016-.058.213.213 0 01.024-.123.113.113 0 01.036-.039l.053.005a.421.421 0 01.151.014l.16.015a.29.29 0 00.193.112.289.289 0 00.211-.074l.11-.104.05-.05c.125.012.193.097.156.172-.038.075-.14.223-.163.184l-.026-.002c-.046-.005-.097-.07-.133-.05a.156.156 0 00-.045.064.246.246 0 00-.019.088c.033.14.077.272.131.393.01.033.025.062.043.084.019.022.04.037.064.044a.109.109 0 00.071-.002.167.167 0 00.067-.049l.054-.043c.059.017.12.014.18-.009a.43.43 0 00.168-.121l.091-.113c.045.005.079.056.077.08-.014.07-.021.143-.02.216-.007.066.099.202.119.071l.03-.081a.2.2 0 01.044-.069.105.105 0 01.057-.03.1.1 0 01.057.028.18.18 0 01.041.065l.032.148c.025.184.094.184.148.014l.186.017c.202.04.407.06.613.058l.197.019a2.24 2.24 0 01.441-.146l.038.003c.06.006.148.093.177.065.227-.214.38.036.576.09l.103.01.139-.18c.038-.045-.044-.222-.274-.298l.188-.303c.127-.205.21.16.365.192.079.007.106-.038.152-.04.149.002.297.016.443.041 0 0 .024.075.017.11l-.004.043a1.3 1.3 0 01-.22.178c-.093.064-.375-.065-.409.01-.034.076-.027.288.132.309l.136.013a.828.828 0 01.322.03c.212.18.468.221.715.115.083-.002.162.044.22.13l.026.05c.02.036.048.058.079.06.03.004.062-.012.088-.044.041-.074.192-.217.216-.149.024.07.148.256.183.217.05-.074.096-.157.133-.247.004-.042.114.01.16-.064.044-.074.237.276.37.446l.197.018.194.049c.212.02.431.004.487.015l.046.005.09.05a.194.194 0 00.125.031.237.237 0 00.126-.056c.032-.057.235.059.313.29l-.057.242-.046.201c.104.119.237.164.37.126l.12-.14c.054.005.104.118.116.234.013.116-.26.46-.612.547l-.33-.03c-.23-.023-.223-.022-.4.433l-.03.082c-.1.05-.162-.015-.15-.099l-.185-.072c.057-.163.089-.336.061-.369l-.064.03-.041-.003c-.065-.043-.133-.013-.15.046-.017.059-.117.23-.186.188l-.03-.045-.068-.091a.236.236 0 00-.088.102.41.41 0 00-.039.158l.11.01.197.061a3.804 3.804 0 01-.22.517l.084.075a.367.367 0 00.179-.074c.057-.047.11-.102.16-.166a.304.304 0 00-.01-.094.199.199 0 00-.035-.074.624.624 0 01-.104-.155.166.166 0 01.148.014c.072.007.248.163.243.223a.288.288 0 00.041.137c.024.036.055.058.089.062.08.008.283.081.252.205-.03.124-.136.356-.2.338-.063-.018-.158.064-.074.223l.063.144.072.164c.125.175.175.38.111.452l-.066.054a.195.195 0 01-.146.047 1.742 1.742 0 01-.481-.118l-.046-.004a5.208 5.208 0 00-.047-.808l-.042.044c-.064.073-.028.294-.193.224a1.527 1.527 0 01-.268-.11c-.054-.041-.078-.146-.132-.188a.108.108 0 00-.069-.008.146.146 0 00-.067.038.3.3 0 00-.016.168l.214.08c.152.13.317.227.489.288l.023.038.05.083a.993.993 0 00.198-.29l.021-.22c-.087.07-.39.373-.675.679l-.219.058-.019-.002a1.772 1.772 0 01-.039-.48l-.226-.076c-.03-.04-.009-.152.046-.25l.037-.105a.241.241 0 00-.005-.093.144.144 0 00-.037-.068.174.174 0 00-.137.03c-.03.329-.109.593-.128.555a3.84 3.84 0 01-.211-.437l-.28.083-.07.024a.495.495 0 00-.133-.05c-.034-.003-.11.069-.098.149l.029.063a.5.5 0 01.195.236c.065.127.08.612-.003.604-.083-.008-.243-.464-.376-.67l-.147-.062-.272-.116c.116-.183.176-.292.126-.242l-.042-.004c-.079.022-.224.027-.166.141.058.114-.061.29.065.405l.152.13c.173.154.25.27.179.258l-.053.037-.174.105a.617.617 0 00-.425-.161c-.082.028-.329.047-.333-.032-.004-.078-.03-.329-.054-.234-.031.114-.07.224-.115.327l-.019-.001-.198.041a6.705 6.705 0 01-.598-.183c-.118-.047-.61.149-.842.133l-.157-.239c-.036-.063-.2-.018-.276-.025l-.327.187c-.13-.17-.247-.223-.257-.115-.01.107-.303-.029-.373-.09-.071-.06-.326.211-.359.118l-.02-.08-.019-.075c-.026-.166-.06-.175-.076-.007-.015.168.041.463.143.436.19.012.37.095.527.243l-.05.177-.43-.15c-.094-.008-.164.166-.296.021l-.107-.119a1.518 1.518 0 00-.183.406.206.206 0 00.057.097.11.11 0 00.084.031l.063-.387c.187.12.402.274.48.33.08.055.273.188.345.116.087-.087.17-.186.246-.297l-.061-.006c-.057-.005.045-.152.23-.329l.211-.022c.114.01.224.063.345-.046.041-.038.153.08.239.095a.9.9 0 00.24-.032c.06.006.143-.06.178-.032l.13.127c.2.042.394.128.576.254v.248s.072.006.132-.066c.06-.073-.095-.336-.115-.368-.02-.032.06-.067.282.093l.191-.212.026-.027a.88.88 0 01.197.218c.037.057.223-.01.257-.007a.753.753 0 01.163.137c.052.059.28.026.373.095l.107-.044.056-.025a.434.434 0 00.199-.084c.034-.04.2.14.249.198.047.06.392-.114.388-.066.115.082.25.095.378.036l.074.067.116.108a.456.456 0 01.108-.214c.107.006.211.04.308.101l.142-.089c.154-.094.262.133.438.096.153 0 .302.048.437.143l.05.005c.153.022.31.02.466-.005.256-.037.511-.013.757.072-.007.071-.137.234-.278.233-.141 0-.495.758-.413.699l.038-.039c.059-.055.11-.11.165-.172l.07-.084c.082.008.158.015.174-.032.016-.047.205.02.216.057.012.037.13.163.187.047l.004-.041c-.091-.498-.043-.609.352-.747.104-.045.19-.194.292-.226l.11-.032c.137.013.245.12.246.192 0 .072.033.263.058.235a.086.086 0 01.078-.011.12.12 0 01.063.06l-.003.03-.07.145a1.09 1.09 0 00-.167.431l.056.006a.394.394 0 00.186-.182c.037-.075.155-.276.16-.197.003.08.076.285.163.294.087.008.393-.12.445-.31l-.231-.057-.231-.064c.025-.27.095-.45.128-.393a.61.61 0 00.363.203l.117-.025.057.005c.07-.096.143-.101.166.016.024.117.016.364-.108.262l-.08-.008a.1.1 0 00-.07-.006.145.145 0 00-.067.042c-.025.028-.011.126-.015.168-.004.041.086.183.129.175l.253-.019c-.049.28-.006.435.09.341l.161.203c.09-.169.2-.309.321-.411.199.039.393.105.581.2l.137-.157c.057.047.086.105.069.127-.018.023-.06.146.02.141.081-.004.292.028.297.058.005.03.025.22.045.216.02-.004.053-.074.07-.145.019-.07.205.02.259.06.07.279.106.58.104.887-.015.162.103.614.21.624l.086.05c-.027.088-.064.151-.081.132-.017-.02-.114-.01-.134.09-.021.1-.164.317-.276.294-.113-.022-.36.335-.294.36.067.024.38.035.376.07.032.09.05.191.056.296a.143.143 0 01-.07.05.094.094 0 01-.075-.009l-.041-.046c.006-.072-.04-.107-.092-.081-.052.025-.15.179-.08.276.072.098-.038.414-.033.36a.105.105 0 00-.021-.045.052.052 0 00-.034-.02.052.052 0 00-.037.013.104.104 0 00-.03.04c-.04.105-.272-.025-.325.048-.047.04-.102.053-.152.036-.05-.016-.093-.062-.121-.128l-.178.056-.026-.002c0 .072.01.141.03.203.02.062.049.114.086.152l-.08.156-.004.041c.057.127-.022.234-.144.235l-.11-.01-.18-.066c-.044.183-.133.23-.194.103l.046-.485c-.178.104-.3.231-.268.289.033.057.07.224.045.3a4.353 4.353 0 01-.121.315 1.47 1.47 0 01-.284-.027l-.674-.063-.08.114-.093.136a.422.422 0 00-.378-.036c-.089.046-.373-.095-.511-.048a2.083 2.083 0 01-.712.018l-.115.158-.098-.009c-.03-.003.028-.3-.14-.255-.053-.005-.086.18-.147.216a1.852 1.852 0 01-.282.076c-.091.04-.245.17-.255.152-.077-.152-.14-.05-.23-.022l-.174.056a9.21 9.21 0 00-.386-.405c-.07-.067-.236.28-.273.35-.037.069-.265-.025-.358.069-.093.094-.384-.23-.47-.292-.085-.063-.515.163-.777.15l-.232-.1-.098-.046a.37.37 0 00-.272.047c-.042.039-.203-.079-.235-.106-.032-.027-.32-.085-.574-.15a2.204 2.204 0 00-.993.124c-.005.053-.088.287-.095.196-.007-.091-.06-.338-.105-.348a2.425 2.425 0 00-.551.057l-.184-.199-.08-.092a.916.916 0 01-.546.046l-.095.039-.08.04-.422-.069-.132-.012-.076-.008a.122.122 0 00-.11-.037.177.177 0 00-.108.078c-.034.08-.167.322-.176.297-.01-.025-.066-.236-.114-.416l-.127.043-.19.073c.089.132.163.286.221.456.032.105-.186.315-.26.241a.518.518 0 00-.44-.144c-.095.076-.372.183-.328.241.044.059.178.18.197.14l-.057.115c-.08.156-.056.6-.147.59-.09-.008-.363.208-.357.142.007-.066-.01-.266-.046-.276a.571.571 0 00-.201-.019c-.038-.003-.06.188-.055.225.004.036-.043.092-.127.042l-.046-.07-.027-.045a.587.587 0 01.06-.158.383.383 0 01.091-.112c.07-.054.246-.255.206-.32a.828.828 0 01-.057-.373c.03-.135.068-.266.117-.388a.227.227 0 01.114-.06c.04-.007.078 0 .115.02.026.046.13.152.159.137l.003-.03.1-.172c-.048-.21-.147-.376-.278-.461l-.11.116c-.03.034-.095-.009-.144.029l-.133.036-.278-.177a.405.405 0 00-.235.105c-.074.053-.432-.126-.523-.05a.93.93 0 01-.572-.053l-.075-.007-.2-.146a.627.627 0 00-.251.152c-.088.082.005.55-.064.676-.06.167-.097.35-.107.534-.006.066-.17-.016-.265-.067l-.092-.039-.106-.01a.47.47 0 01-.114-.17.775.775 0 01-.054-.238c.011-.114-.039-.439.072-.477.11-.038.385-.036.321.072l-.034.082c-.039.09-.073.183-.103.28l-.006.072a.23.23 0 00.04.11.1.1 0 00.075.046l.037-.027.27-.186c0-.38-.143-.69-.318-.688l-.16.039-.123.037c-.11 0-.22-.01-.329-.031l-.05-.005c-.128-.048-.14-.013-.107.13l.022.134a.21.21 0 00-.118.087.433.433 0 00-.07.173c-.01.108-.078.386-.128.345l.004-.042.016-.168c.019-.203 0-.368-.05-.373-.049-.005-.178.068-.168.172.009.103-.076.403-.18.448a.674.674 0 01-.402-.189.604.604 0 01-.102-.305c.009-.09-.039-.36-.126-.405a.587.587 0 00-.344-.075l-.033.348-.05-.084zm.512-6.757c-.106-.01-.158-.111-.119-.24l-.129-.013c-.037-.003-.094.07-.133.12l-.06.074c-.059.09-.138.126-.18.073-.04-.052-.168-.148-.176-.07-.007.077.054.282.145.291.13.009.256.064.367.161.016.074.129.212.203.158.073-.053.185-.55.082-.554zm5.31.408c-.088-.008-.126-.133-.09-.238.037-.105.11-.443.128-.502.017-.058-.208-.188-.202-.085.005.103-.034.36-.077.367-.042.008-.152.077-.144.15a.508.508 0 01-.065.2.263.263 0 01-.124.115l-.11.032-.208.059c.014.176.094.298.181.264.177.053.346.144.502.271.046.004.193.066.197.019.005-.048.072-.2.13-.133.06.066.267-.066.256-.151a.965.965 0 00-.379-.368h.004zm9.108-3.465c-.128-.188-.23-.403-.222-.487a.544.544 0 00-.077-.23.263.263 0 00-.147-.117l-.113.026a.645.645 0 00-.25.176l-.01.12c-.002.012.09.093.119.071.072-.053.142-.115.208-.186 0 0 .021.063.07.115.048.053 1.009.44.925.275l-.101-.064-.145-.086a.924.924 0 00-.473-.045l-.005.054-.011.12c.02.179.055.351.105.511l.058.115c.032.048.076.073.123.072.123-.055.01-.114.016-.168l.01-.12c-.017-.213.037.028-.096-.154l.016.002zm-66.393 3.011a.403.403 0 01-.044.107.256.256 0 01-.066.074.15.15 0 01-.077.03.127.127 0 01-.075-.018c-.082-.062-.319-.15-.33-.03-.011.119.04.353.135.314.095-.04.624-.546.52-.332l-.089.173-.023.046c-.042.033-.038.081-.01.096.082.038.16.087.235.149.082.068.28-.143.306-.086.025.057.107.21.127.193a.572.572 0 00.03-.311l-.007-.134a1.87 1.87 0 01.005-.38l.011-.126c.06-.188-.042-.197-.223-.02l-.038-.005-.12-.113a.404.404 0 00-.167.135.731.731 0 00-.115.237l.015.001zm45.102-6.19l-.268-.32a.775.775 0 01-.06-.266l-.02-.074a.352.352 0 00-.092-.148 40.44 40.44 0 01-.091-.008c-.088.167-.178-.017-.265.017-.088.034-.308.062-.313.116-.029.305-.208.137-.31.2-.022-.002-.04.063-.05.104-.055.207-.133.151-.215.04l-.047-.064a.164.164 0 00-.112-.067.164.164 0 00-.123.045l-.002.018.013.11c.08.173.182.316.3.42l.106-.02.187-.043c.196-.132.394-.126.409.039l.083.056c.068.049.202-.035.306-.05l.098.01.136-.018c-.015-.128-.01-.255.026-.276.036-.02 1.01.422 1.175.455l.13-.036.072.007a.724.724 0 00.039-.42c-.03-.093-.238-.113-.328-.17-.09-.056-.464.187-.675.197l-.026-.34a.229.229 0 00-.053-.085.13.13 0 00-.073-.036c-.123.049-.01.108-.015.161l-.007.072a.873.873 0 01-.158.263c-.063.067.062.405.148.54l.085-.258.004-.036c.055-.055.102.016-.03-.136l.016.002zm-17.522-1.173c-.156.45-.245.63-.2.398l-.044-.07a.38.38 0 00-.294-.16c-.19-.019-.392-.146-.583.065l-.023-.002a2.401 2.401 0 00-.507-.048l-.19-.017-.068-.007a.317.317 0 01-.146-.11.164.164 0 00-.127.01.29.29 0 00-.113.106c-.088.125-.379-.035-.42.045.09.116.186.22.287.311.023.003.072.007.11-.02l.098-.039c.1-.045.191-.042.2.02.01.06.051.155.085.158l.253-.09a.98.98 0 00.55-.076l.03-.034c.026-.033.064-.072.086-.064.08.008.175.131.216.099l.222-.173c.239-.261.406-.252.379.036l.052.174a.3.3 0 00.15.085c.055.011.11.005.165-.02l.158-.172a.507.507 0 00.298.197c.065.007.262-.186.35-.1.087.087.258.418.345.39.087-.029.008-.29.069-.327.06-.036.026-.287-.234-.439l-.268.084a.189.189 0 01-.17-.016.428.428 0 00-.224-.138.373.373 0 00-.248.034c-.124.06-.158.057-.22-.058l-.023-.032zm-31.386 6.77c.195.405.226.77.066.81l-.152.065-.278.118a1.798 1.798 0 00-.206-.375c-.03-.003-.117-.011-.136.071l-.011.12c.065.115.02.147-.102.063-.122-.084-.464-.104-.437.183l.162.105.227.149c.252-.122.507-.116.567.023l.174-.069a.071.071 0 01.05.005l.202.086.422-.432c.075-.072.33-.054.359-.124l-.015-.043c-.031-.047-.074-.073-.12-.072l-.049-.005c-.066.055-.117-.01-.11-.125a2.674 2.674 0 00-.001-.44s-.087.076-.125.187a5.131 5.131 0 01-.84.525c.168-.167.318-.378.441-.623l.19-.121c.086-.053.068-.103.018-.186s.014-.144.02-.216l.005-.047c.005-.054-.034-.094-.098-.1l-.003.03-.22.438zm46.744-5.654c.075.007.12-.061.1-.136-.02-.074-.129-.217-.193-.181-.064.036-.153-.28-.183-.374l-.288-.027c.062.115.06.254-.002.308a.434.434 0 01-.378-.035l-.122-.048-.106-.046c-.093-.118-.16-.015-.138.162l-.208-.02-.042-.003c-.044-.138-.13-.2-.193-.134-.064.067-.253.212-.263.151-.02-.046-.05-.079-.084-.092-.035-.013-.073-.006-.108.02-.086.064-.319.187-.326.144-.008-.043-.055-.15-.084-.128-.029.021-.106-.01-.112-.065-.006-.055.006-.06-.015.161l-.231-.269a.466.466 0 00-.376-.066l-.064-.005a1.957 1.957 0 00-.206.367l-.046-.004a.694.694 0 00-.366-.174l.012.001c-.032-.154-.09-.232-.126-.169-.036.063.098.384.403.552l.277.062.099.01.439.04.11.011a.819.819 0 00.29-.04c.242-.031.483-.03.721.002l.239.022c.236-.116.414-.015.392.218l.243-.273.02.002a.671.671 0 00.302.198c.14.01.282-.03.416-.118l.155.014.042-.038zm-9.377-.168c.104-.213.117-.393.038-.407a1.77 1.77 0 00-.503-.047l-.12.061a.472.472 0 00-.313.073l-.14-.091a2.075 2.075 0 00-.405-.171c-.03-.007-.062.003-.09.027-.1.124-.154.053-.254-.023a.498.498 0 00-.466-.044c-.113.068-.16-.196-.279.004-.045.08-.253-.024-.382 0l-.026-.002a.452.452 0 00-.042.16.24.24 0 00.073.146.11.11 0 00.122.017l.083.007c.095.01.15.19.24.216.124.053.26.038.386-.042l.09-.064c.151.029.3.075.445.138.099.046.355-.117.355-.039 0 .079.14.182.302-.002l.187.048.143.014c.145.067.294.112.447.132l.043-.056.066-.055zm3.746-.192c.009-.096-.108-.113-.261-.024l-.119-.205-.082-.146c-.105.062-.207.14-.304.23-.042.045-.24-.173-.253-.192a.344.344 0 01-.065-.127c-.013-.056-.194.036-.262.157a.353.353 0 01-.175.07.292.292 0 01-.172-.037c.026-.033.01-.12-.086-.147-.097-.027-.332.241-.443.328l-.11-.06-.134-.066c-.163-.094-.205-.056-.096.082l-.007.077-.078.386c.21.086.407.104.435.04.03-.063.155-.184.215-.13l.045.046c.07.075.152.119.239.127a.374.374 0 00.258-.08l.203-.132a1.24 1.24 0 01-.14-.297.905.905 0 01.332.164l.146.11c.03.003.072.043.074.068.002.024-.02.215.113.222l.11.01a.35.35 0 01.166-.184l.034.003.125.012c.06.004.121-.024.173-.079a.505.505 0 00.115-.226h.004zm16.633 6.959c-.051.061-.069.126-.043.14.025.015.071.092.034.119l-.033.027-.026-.003c-.03.034.01.249.085.474l.186.017.332.086c-.151.185-.24.327-.197.313.107-.044.213-.105.314-.182.08-.077.173-.419.143-.464-.03-.045-.144-.17-.16-.25-.015-.08-.08-.364-.16-.408a.795.795 0 00-.479.13h.004zm-55.173-.395c-.024-.075-.126-.084-.235-.022-.11.062-.23.299-.192.175.038-.123-.222-.45-.32-.422-.098.027-.353.184-.364.304.011.11.048.207.103.274.056.066.126.096.199.086l.078.231.09.257c.127-.128.306-.292.398-.368.09-.076.26-.447.239-.515h.004zm39.232-6.16c.244-.038.416-.118.399-.186a.355.355 0 01.016-.27.209.209 0 01.05-.063l.006-.072c.042-.165-.082-.14-.157-.153a.45.45 0 00-.201-.02l-.08.042a.268.268 0 01-.129.081.186.186 0 01-.133-.015c-.072-.05-.216-.063-.127.09.089.154.108.687.144.709l.212-.143zm9.003.482c.221-.16.388-.428.363-.57-.025-.141-.404-.098-.444-.12.012-.368-.169-.191-.3-.173l-.057-.006c-.072-.006-.136.06-.148.192a.6.6 0 00.032.167.41.41 0 00.073.129.23.23 0 00.102.068.178.178 0 00.114-.002l.055.072.21.243zM72.88 31.71a.268.268 0 000-.213.125.125 0 00-.037-.045l-.049-.004-.041-.004c-.088.072-.186.093-.277.058l-.051.098-.028.046a6.4 6.4 0 01.175.506l-.12.14c.022.087.108.107.189.06l.073.122c.023.04.052.072.085.094a.185.185 0 00.105.032l.101-.057a1.495 1.495 0 01-.112-.391l.072-.084.03-.033c-.011-.038-.16-.24-.118-.326h.004zm-62.409-7.414c-.064-.006-.055.056.02.147.076.092.328.098.37-.116l.168.167c.15.147.278.262.39-.09l.005-.048c.11-.026.089-.131-.043-.234l-.098-.01-.087-.007c-.11.11-.191.12-.183.03L11 24.08l-.013-.068c-.02-.03-.046-.05-.075-.052-.029-.003-.058.01-.083.037l-.025.059-.03.07c-.033.111-.238.176-.306.17h.004zm34.323 1.132a.401.401 0 00-.032-.123.239.239 0 00-.064-.086.142.142 0 00-.083-.034.148.148 0 00-.087.025c-.113.068-.482-.196-.582-.23l-.065.042-.09.058a.587.587 0 00-.07.188.678.678 0 00-.009.21l.046.004c.07.016.143 0 .21-.046l.052-.026a.167.167 0 01.077-.052.113.113 0 01.08.006c.054.005.24.186.357.27l.125-.104.135-.102zm16.08 12.726c.087.05.084.117-.014.15-.099.033-.358.226-.37.322l-.008.084-.007.077c0 .03.004.06.012.086.008.026.02.048.035.066a.11.11 0 00.05.035.087.087 0 00.057-.003 1.87 1.87 0 00.417-.372c.119-.127.006-.634-.1-.644l-.379-.035c.097.092.2.17.307.234zm-40.8-6.309c-.073-.103-.151-.129-.174-.052l-.004.042-.076.331.407.34.027.003c.09-.044.183-.075.276-.095.076.007.197.103.226.07l.116-.14c.075.06.161.078.248.053.026-.034.015-.162-.101-.227-.171 0-.343.03-.513.09-.06-.005-.205-.091-.148-.176.058-.086-.224-.13-.298-.24l.015.002zm54.973-14.218c.165-.172.273-.349.243-.394a2.359 2.359 0 00-.377-.38l-.161.052-.224.07c.086.176.14.345.12.38-.018.034.038.208.165.323l.099.01.135-.06zm-66.01 14.47c-.065-.007-.116-.157-.115-.338l.05-.122c.044-.099.118-.158.022-.234a.733.733 0 00-.27-.098s-.06.152-.056.152c.154.105-.05.255.02.401l.062.115a.549.549 0 00.048.28c.039.078.096.127.16.138l.115.01.01.002a.14.14 0 00.031-.047.206.206 0 00.012-.124.142.142 0 00-.021-.05l-.05-.005-.019-.08zM20.85 11.232a.496.496 0 00.053-.364.387.387 0 00-.151-.149.26.26 0 00-.184-.021c-.143.053.204.635.267.533l.015.001zm-4.118 19.23c-.006.065.03.002.084-.156.052-.159.359-.371.364-.425l-.02-.002c-.038-.034-.115-.071-.128-.054l-.124.187a1.12 1.12 0 00-.485-.045c-.117.025-.132.398-.034.371l.086-.028.076.007a.107.107 0 01.101.024c.03.026.053.068.065.119l.015.001zm62.065-.186c-.14.102-.142.295-.005.416l.061.006c.072-.03.124-.182.172-.286l.085-.173c.1.082.207.074.239-.02.031-.094-.42-.051-.552.057zm-7.552-.395c-.136.066-.198.187-.128.26.07.073.432-.292.548-.553l.218-.046.012-.12-.023-.002-.284.052.02-.203c-.033-.047-.075-.072-.12-.072l-.13.042c.04.07.016.57-.125.641l.011.001zM4.59 33.153c.063.06.054.193-.027.288-.081.095-.193.344-.128.35.064.006.254-.103.287-.25.05-.207.07-.424.06-.636-.032-.075-.157-.208-.216-.153-.058.055-.04.341.024.401zm64.983-.273a.146.146 0 00.088-.075.301.301 0 00.036-.143 1.704 1.704 0 00-.17-.512l-.067-.066c-.04.026-.067.072-.054.097a.224.224 0 01-.01.104.137.137 0 01-.053.072c-.06.036-.254.266-.188.338a.84.84 0 00.418.185zm-53.683-.648c-.16-.015-.285.064-.29.19-.003.127-.153.458-.148.53l.03.003a.148.148 0 00.136-.023c.047-.04.087-.1.116-.17.05-.171.071-.193.097-.148.085.195.155.056.22-.022.065-.079.025-.264-.055-.313l-.106-.047zm9.351.19c-.049-.132-.146-.075-.214.13l.132.013.288-.01c-.027.282-.025.264.034.004l.17-.02.266-.03a3.1 3.1 0 00.043-.461c.005-.054-.054-.072-.087.07-.032.142-.579.435-.632.303zm-22.576.937c.022-.233-.018-.382-.057-.331a5.364 5.364 0 00-.304.436 1.751 1.751 0 00-.068.72.11.11 0 00.094.003.191.191 0 00.085-.078c-.187-.29-.03-.462.143-.627l.107-.123zm67.943-1.289c-.118-.01-.18.17-.142.41l-.118.2s-.008.084.02.111a.076.076 0 00.043.02.075.075 0 00.044-.012c.061-.036.162-.1.162-.136l-.01-.35c.228-.1.114-.232 0-.243zm-55.178-.558c.045.09-.026-.002-.162-.184l.214-.246s.005-.06-.023-.087c-.028-.027-.034-.003-.049-.004-.144.028-.287.051-.43.098l-.105.033c-.114.074-.121.11-.009.09.2.043.39.145.56.3h.004zm21.86-6.68c-.212.065-.335.235-.273.386l.087.056c.1.07.1-.13.145-.167l.13-.115c.105.069.22.106.337.11.03.003.11-.086.088-.13a.602.602 0 00-.247-.217l-.094.027-.173.05zM7.8 33.062c.037.003.03.075-.011.108l-.003.03a.737.737 0 00-.02.221c.027.022.06.025.09.009a.206.206 0 00.048-.06.312.312 0 00.03-.084l.03-.317a3.86 3.86 0 00.128-.708l-.065-.006a.697.697 0 00-.223.227 1.07 1.07 0 00-.045.309c0 .105.016.206.045.296l-.005-.025zm-.953-1.751c-.053-.12-.096-.154-.092-.076.024.091.062.17.111.23s.107.1.17.117l-.085.252a.28.28 0 00.074.067.048.048 0 00.05.005l.049.005c.08.007.143-.144.136-.32l-.056-.096c-.05-.083-.171-.082-.258-.133l-.099-.051zm9.628.583c-.166-.1-.306-.113-.314-.03a.45.45 0 00.1.23c.049.055.11.081.173.075.167-.021.44-.382.288-.378l-.13.048-.117.055zm31.96-6.438c-.084-.092-.16-.015-.16.112l.043.113.033.093a.15.15 0 00.036.057.084.084 0 00.05.024.084.084 0 00.054-.014.151.151 0 00.046-.049l.009-.096c.016-.174.13-.084.2-.108l.049-.026c.047-.056.065-.126.041-.153-.024-.026-.313.164-.396.072l-.006-.025zM9.77 31.597c.082.068.162.064.174.016a1.172 1.172 0 00-.12-.56l-.11-.126a.17.17 0 00-.131-.06.329.329 0 00-.161.087s.023.153.035.154c.167-.026.107.162.156.25.049.09.216.021.16.245l-.003-.006zm-4.42 1.398c.11.01.122-.115.026-.27l-.088-.123a.119.119 0 00-.133-.012c-.029.027-.059.14-.038.165.079.135.11.204-.076.205-.023-.002-.059.176-.08.27 0 .023.003.045.01.064a.09.09 0 00.03.043l.046.004c.058-.049.2-.374.305-.364l-.002.018zm56.091 5.297c.009-.09-.046-.077-.11-.01a.734.734 0 00-.042.455c.09.076.188.126.292.148.08.008.12-.315.088-.372l-.03-.003-.065-.006c-.087.082-.135-.146-.13-.23l-.003.018zM1.703 32.749c.13-.078.228-.196.222-.257-.005-.06-.06-.169-.093-.105-.032.063-.104-.197-.123-.272-.02-.074-.083-.261-.099-.257a.39.39 0 00-.02.21c.01.104-.01.404-.065.417-.055.013.05.33.18.246l-.002.018zM13.077 31.4c.276.103.57.084.853-.053-.287-.57-.539-.08-.851.035l-.002.018zm58.942 7.897c.2-.053.305-.152.227-.22l-.048-.053c-.027-.002-.04-.07-.064-.097l-.125-.132c-.144.107-.273.264-.285.354l.02.062c.033.06.08.098.132.103l.143-.017zM4.19 32.433c.032.1.078.098.098.009.02-.089-.383-.399-.443-.253l-.012.138-.004.036c.048.022.33-.048.362.052l-.002.018zm2.796.232c.063-.06.081-.131.038-.16a.28.28 0 01-.06-.13.442.442 0 010-.165c.027-.088-.183-.09-.208-.02-.03.12-.051.244-.061.37-.001.047.226.147.293.087l-.002.018zm79.123 3.133c-.144-.014-.21.07-.144.15.065.078.396-.157.306-.25l-.067-.103c-.034-.051.209-.107.018-.197-.109-.059-.147.064-.14.186l.026.214zm-78.785-1.76c.087-.028.049-.068-.084-.08l-.261-.025a4.021 4.021 0 00-.048.51c-.003.035.054.156.074.073.079-.203.19-.375.32-.496v.018zm10.06-1.382l.098.01.003-.03c.047-.099.11-.202.112-.304a1.34 1.34 0 00-.068-.411.117.117 0 00-.063-.027.116.116 0 00-.066.015l-.062.09a.742.742 0 00-.057.363c.033.1.073.19.12.272l-.017.022zm-14.327.613c.023.165.104.24.176.162.072-.078.043-.462.026-.602-.018-.14-.213.27-.185.423l-.017.017zm58.665-.951c.159-.191.24-.401.184-.467-.055-.065-.26.163-.27.32l-.163-.016c-.026-.002-.107.129-.1.166.036.154.088.008.13.012l.218-.015zm12.572.993a.293.293 0 00.065.128c.03.032.065.049.102.05l.151.015a.194.194 0 00.032-.056.269.269 0 00.013-.141.195.195 0 00-.02-.06l-.236-.023c.06-.145.11-.274.12-.29.009-.018.007-.079-.04-.107l-.027-.003c-.166.057-.216.191-.16.414v.073zm-17.926-1.134c.03.003.007-.361-.057-.736l-.075-.062a.103.103 0 00-.102-.01l-.023-.001c-.002.19.026.376.08.539l.063.23s.057.035.09.008l.024.032zM4.15 16.566a.162.162 0 00-.107-.06.162.162 0 00-.117.04c-.09.063-.241.297-.167.4l.076.007.129.012c.164-.08.214-.33.186-.399zm9.456 15.47c.01-.114-.067-.06-.185.103l-.097.136c-.063.182-.032.342.086.347.118.005.175-.48.196-.586zm-5.534-4.418a.371.371 0 00.216-.48l-.202.167-.096.082c-.17-.016-.313.08-.32.188l-.009.102c.027.002.108-.05.192-.176l.034.003.185.114zm6.996 4.718c.13.121.262.14.295.028.033-.112.109-.431.048-.51-.062-.078-.178-.016-.212.102l.056.09c.004.014.006.03.004.045a.124.124 0 01-.012.044l-.18.201zm61.686-2.064c.102.01.193.019.21-.046l.012-.12c.006-.066-.095-.13-.208-.147-.113-.016-.108.299-.004.332l-.01-.019zm-61.184 3.64a.254.254 0 00.057-.09.372.372 0 00.023-.12l-.242-.023a1.289 1.289 0 00-.42-.317l-.004.03c-.003.036-.03.112-.011.126.106.082.213.165.321.235.08.065.165.115.254.151l.022.008zm20.575-8.214c-.055.055-.009.09.065.073.075-.018.16.34.212.394a.442.442 0 00.102-.19l.048-.237a.39.39 0 00-.418-.021l-.01-.02zm40.484 7.874c-.121-.011-.185.02-.146.053.092.078.19.14.292.185.095.008.241-.334.297-.402a.652.652 0 00-.131-.23l-.023-.002c-.058.013-.158.427-.28.415l-.009-.019zm-56.46-2.938c-.057-.006-.072.078-.035.166l.035.003c.06.005.134-.054.194-.036l.09.008c.09.069.201.02.238-.044l-.02-.038c-.03-.076-.131-.103-.159-.178l-.03-.076c.01-.12.02-.215.02-.215a.177.177 0 00-.039.052.263.263 0 00-.023.069.697.697 0 01-.261.308l-.01-.02zm50.229 4.716c.01-.108-.063-.15-.163-.1a.893.893 0 00-.238.425l.02.038c.019.038.067.091.095.081l.078-.022a.832.832 0 00.217-.397l-.01-.025zm-53.121-4.789c-.037-.142-.076-.248-.093-.238a.646.646 0 00-.073.253c-.01.114.024.444.107.415l.042-.044c.034-.04.032-.136.065-.163.033-.027.076.248.155.014.08-.234-.064-.133-.131-.187l-.072-.05zm-.38 2.43c-.046.123.025.105.16-.039.136-.144-.126-.737-.099-.613.014.217-.004.44-.053.653h-.008zm10.818-.712c.06-.097.05-.207-.019-.244-.069-.036-.228.148-.202.247.025.1.165.107.229-.002l-.008-.001zM11.6 32.216c.041.173.17.107.286-.154l-.152-.087-.106-.059c-.12-.01-.19.025-.148.12l.054.077.066.103zm7.752.263c.072-.078.047-.171-.06-.206l-.04-.04-.118-.113c-.142.04-.234.171-.203.289.031.117.353.148.429.07h-.008zm-12.14-.053c-.053.068-.019.192.039.27.137.045.285.007.415-.106.049-.074 0-.296-.03-.25-.031.045-.131.132-.161.087a.253.253 0 00-.256 0H7.21zm4.371-1.626a.49.49 0 00-.304-.054.622.622 0 00-.303.142c.251.332.251.332.615-.087h-.008zm62.84-13.358c.04-.051-.007-.2-.11-.33l-.098-.01c-.072-.007-.176.086-.255.157 0 0-.015.162.007.164l.057.005c.064.006.125.012.13.073.006.061.23-.003.27-.06zM55.132 31.795c.156.051.298-.002.32-.12l-.03-.082-.04-.106a.966.966 0 01-.303-.029l-.04.027-.045.026a.212.212 0 00-.037.105c-.004.04.002.08.017.11l.038.004.12.065zm-37.264.623c-.055.146-.06.151 0 0l.157-.046.204-.06c-.09-.213-.294-.033-.36.106zm21.028 7.413c-.22.07-.329-.03-.246-.186l.041-.111c.056-.146.118-.122.196-.048.077.074.078.062.102.046.025-.016.115-.165.164-.16.17.016.172-.25.281-.27.206-.035.071.303.208.358.045.004.1.076.128.06.117-.067.01-.114-.01-.176-.022-.062.032-.07.056-.08.024-.009.091.01.091.01.028.2.048.403.058.61l-.004.041c-.066.048-.214-.123-.346-.389l-.279.04a.499.499 0 00-.327.115l-.113.14z"/>
    <path d="M76.124 40.13c.174.053.223.148.106.21-.116.06-.356.214-.262.192.093-.021.264.116.16.197-.102.08-.49-.191-.534-.202-.045-.01-.208-.02-.19.103.02.123.009.364-.078.392l-.041-.004-.1-.076c-.1.04-.155-.063-.12-.229l.109-.104c.07-.09.15-.156.234-.193a.377.377 0 01.256-.021c.11.033.229-.003.33-.102l.13-.163zm-13.314.647c-.08-.056.012-.138.167-.196l.156-.033a.506.506 0 00.12.177c.05.044.104.071.161.079.11.01.394.158.355.293l-.01.102-.001.018c.13.078.167.13.08.122-.087-.008-.295-.076-.297-.136a.205.205 0 00-.068-.12.1.1 0 00-.106-.012 1.61 1.61 0 01-.557-.294zm-27.775-3.436c.025-.064-.03-.1-.123-.084s-.333-.03-.327-.097c.007-.066.092-.372.161-.414.07-.042.174.264.203.327l.068-.072a.134.134 0 01.051-.046.079.079 0 01.058-.005.1.1 0 01.05.039.19.19 0 01.03.072l.041.131c.048.087.083.189.106.3a.122.122 0 01-.014.034.077.077 0 01-.02.024.043.043 0 01-.025.009.038.038 0 01-.023-.008l-.038-.004a.355.355 0 00-.136-.012l-.05-.005c-.053-.005-.037-.13-.012-.189zM72.2 41.568c.01.015.023.025.037.03a.057.057 0 00.042-.001.094.094 0 00.038-.032.17.17 0 00.027-.056c.04-.099.206-.367.269-.35l.021.057.05.114c.084.092.101.197.033.227-.13.117-.267.212-.408.281-.14.03-.378-.325-.348-.359a.324.324 0 01.24.09zM65.667 40c.021.056-.02.216-.091.36l-.137-.013-.117-.01c-.037-.137-.112-.229-.172-.204-.06.024-.256.036-.253-.072.002-.109.1-.42.204-.428l.06.048.133.09a.728.728 0 01.306.162l.037.052.03.015zm4.163 1.43c.078.104.164.13.189.066.025-.064.1-.087.124.06l.045.005.099.009c.018.092-.013.132-.07.09l-.064-.006c-.106-.01-.232.154-.33-.03 0 0-.08.034-.117.073l-.059.055a.448.448 0 01-.178-.186.836.836 0 01-.093-.305l.172-.123.023.002c.045.004.082.105.08.213l.117.011.062.066zm-2.98-1.053c-.042.044-.11-.01-.153-.123s-.108-.312-.057-.205c.05.108.34-.004.402.11l.13-.114a.284.284 0 00.1-.132.47.47 0 00.033-.194c.01-.114.016-.174.114-.116.097.057.058.108.087.171l-.159.348-.128-.012c-.116.05-.327.229-.37.267zm2.416-14.174c-.096.203-.22.312-.28.252-.059-.06-.107-.282.131-.253l.163.015.155.014c.196-.054.355-.039.352.033-.003.073-.144.313-.31.334l-.05-.083-.161-.312zM50.23 40.509c-.108-.228-.042-.41.144-.392l.223.021a.476.476 0 01.149-.24c.048-.025.13.085.175.132.045.046.212.134.166.269l-.142-.044a2.258 2.258 0 01-.461-.007l-.055.056-.199.205zm-.354-1.321c-.057.08-.1.057-.094-.051l.083-.107a.733.733 0 01.479-.227l-.14-.297-.029-.063a.425.425 0 01.186-.195.222.222 0 01.214.009l-.186.188s-.03.04-.005.054l.13.405a2.072 2.072 0 00-.638.284zm23.593 2.294c.295.028.472.135.395.224-.077.09-.145.53-.212.476l-.04-.064a.557.557 0 01-.081-.274c0-.332-.163-.226-.3-.185l-.057-.005c-.088.046-.099-.046-.03-.203l.079.008.246.023zm-19.119-3.01c-.008.09-.064.085-.12-.011-.056-.096-.192-.357-.16-.384.034-.027.182-.097.201-.017l.032.063.079.14c.092-.1.189-.19.288-.268l.072.006c.038.004.094.058.098.1a.27.27 0 01-.014.09.17.17 0 01-.043.068l-.066.054c-.083.035-.358.07-.366.16zm-6.914 1.291c.134-.048.242.023.238.143-.003.12-.24.286-.242.219-.001-.067-.092-.16-.197-.055l-.102-.178a1.71 1.71 0 00-.18-.23c.035-.056.344.148.483.1zm-.797-2.1c-.114-.01-.218.04-.235.142-.017.1-.101.262-.144.15-.043-.114.136-.514.318-.545l.17-.014.03.003a.236.236 0 01.019.122.238.238 0 01-.041.117l-.042-.004-.075.03zm-4.544.843c.012-.126.157-.215.286-.203l.107.04.053.005c.037.095.05.21.026.257-.024.046-.05.206-.118.236-.032-.063-.027-.16-.06-.217l-.023-.038c-.057-.006-.106-.01-.105.02l-.016.168c-.022.04-.18-.144-.15-.268zm9.162 1.936c-.04-.058-.04-.119.013-.144.052-.025.185-.14.142-.174-.042-.034-.105-.143.013-.132.117.011.417.112.344.196l-.062.048c-.082.065-.191.085-.256.17l-.048.068c-.001.09-.106.026-.146-.032zm4.373-2.859c.155.087.21.225.127.302-.083.077-.116.593-.117.684l-.006.06c-.004.048-.06.11-.093.106a.158.158 0 01-.104-.076l.073-.253c-.123-.15-.102-.336.038-.407l.01-.102.071-.314zm25.679-6.762c-.046-.083-.014-.14.077-.132.09.009.266.092.225.166-.042.075.046.277-.026.27-.071-.007-.298.141-.31.092-.01-.05.083-.313.034-.396zM66.77 26.35c-.14-.014-.193-.109-.117-.223.075-.114.33-.307.4-.198.07.11-.048.515-.132.471l-.083-.008-.069-.042zm4.19.272c-.213.125-.396.163-.388.079.007-.084-.273-.074-.288-.118l.004-.036.008-.09.317-.043c.099.01.38.036.347.136l-.007.072h.008zM42.182 39.614c.045.131-.01.114-.128-.012l-.16.196-.034.04c-.004.035-.03-.003-.072-.007-.042-.004-.101-.227-.072-.255.03-.027.164-.117.172-.08.008.037.074.103.102.01l.04-.051.025-.034c.065.006.1.045.083.098l-.004.042.048.053zM4.306 35.06c.026.13 0 .212-.056.188a.71.71 0 01-.256-.241c-.041-.095.039-.42.134-.41l.078.061.093.07a.149.149 0 01.115-.046.15.15 0 01.104.066c-.046.086-.128.145-.175.237l-.037.075zm34.687 2.381c.044-.099.081-.047.086.11.004.158-.056.6-.117.636-.06.037-.167-.384-.21-.484-.045-.101-.169-.451-.106-.427.063.024.304.264.347.165zm-9.029-.811c.049.004.065.078.033.172-.031.094-.204-.02-.25.025l.023.117c.04.148.006.266-.078.258-.083-.008-.204-.019-.098-.051.106-.033-.025-.426-.027-.523l.065-.084.092-.124c.066.1.148.172.24.21zm35.853 3.48a.141.141 0 01-.076-.031.23.23 0 01-.06-.078l-.026-.038-.037-.052c-.041-.052-.053-.132-.021-.183l.033-.034.043-.044.232-.196.072-.041.072-.036c.084.008.107.089.051.235l-.078.101-.164.202c.115.12.012.2-.041.196zm-24.768-2.343c-.16.082-.208.053-.102-.058.106-.11.302-.576.344-.572a.385.385 0 01.178.06c-.107.242-.253.44-.42.57zm17.683 1.437s.02.068.013.152c-.008.084-.113.31-.215.3-.103-.01-.405-.17-.389-.338l.042.004c.107-.045.286-.125.261.187.031.043.072.066.116.066.03.002.072-.072.084-.12l.007-.077c.018-.114.063-.182.081-.174zm14.412 1.256c.009-.09.086-.1.175-.031.09.068.287.323.227.395-.06.073-.257.218-.249.086l.007-.078.032-.341c-.128.145-.2.053-.192-.03zm-7.281-14.504c-.067.224-.14.344-.159.27-.02-.075-.135-.23-.215-.19-.08.04-.23.093-.137-.013.094-.106.064-.356.055-.26-.009.095.246.023.288.026l.03.003.138.164zM43.022 39.953c-.114.152-.15.167-.087.028.063-.14.201-.52.266-.513.064.006.222.07.202.121a.236.236 0 00-.157.055.46.46 0 00-.127.167l-.097.142zm22.062 1.098c-.091-.05-.117-.144-.058-.199.058-.054.266.14.314.193.048.053.136.297.031.36l-.08.04-.03-.002c-.043.014-.08-.34-.177-.392zm-.442.109c-.08.241-.165.378-.185.304-.02-.075-.273-.31-.25-.386.022-.077.238.022.28.026.041.004.074-.265.148-.282l.057.005.08.008c.084.038.075.085-.01.107l-.029.058-.091.16zm-31.644-3.08c-.113-.052-.05-.076.143-.052l.088-.083.162-.148a.64.64 0 00.307.235l.095.009c-.137-.013-.689.092-.795.04zM54.8 39.221c.003.167-.012.335-.046.498l-.027-.003-.026-.002a.795.795 0 01-.17-.3c-.07-.192-.12-.4-.153-.619l.023.002c.026.003.086-.022.094.01.056.134.128.25.213.34l.092.075zm-16.552-2.678c.046-.038.012.128-.075.362l-.11.026-.133.036c-.168-.125-.289-.3-.273-.389.016-.089.246.072.306.078l.057.005a.727.727 0 00.182-.074l.047-.044zm-25.991-2.779c.007-.078.09-.064.19.018.134.116.26.255.373.416-.005.054-.047.213-.102.154-.056-.06-.175-.259-.156-.341.02-.083-.31-.162-.305-.247zm45.624 6.901c-.019.198-.036.39-.111.413-.075.023-.2.011-.202-.08l.023.002.059-.06a.212.212 0 00.096-.097.402.402 0 00.046-.162c.01-.102-.186-.302-.201-.34-.016-.037.295.143.29.324zm17.422 1.183c.275-.047.412-.01.304.089-.108.098-.002.513-.028.547-.026.034-.097-.07-.07-.309l-.134-.206-.072-.121zm-27.719-4.247c.131-.054.17.016.08.159-.09.143-.356.42-.354.239l.013-.138c.012-.132-.03-.33.18-.292l.08.032zm15.051 3.365c.127.079.092.245-.077.38l-.147.022-.091-.008c-.114-.126-.068-.17.101-.105l.03-.324s.066-.042.092-.034l.092.07zm6.235 1.009a.214.214 0 01-.104.09.127.127 0 01-.113-.014c-.06-.048-.172-.197-.117-.222l.152.014c.053-.098.097-.206.133-.32.018-.07.107.36.05.452zM40.803 39.37c-.049-.005-.126.085-.167.201-.042.117-.183.4-.21.361a.411.411 0 01-.013-.152.41.41 0 01.041-.147c.056-.104.285-.433.374-.448l.03.05c.089.154.223-.305.239.023.01.213-.15.089-.236.111h-.057zm20.494 1.616s.042-.045.09-.058l.045.004.072.007a.117.117 0 00.037-.046.195.195 0 00.013-.136.118.118 0 00-.029-.052l-.072-.007-.053-.005c-.068-.006-.042-.118.054-.206l.129.012c.063.07.119.157.163.257.021.062-.025.264-.111.334l-.076-.007-.087-.008a.358.358 0 01-.175-.09zm-.564-.053c-.098-.179-.091-.335.033-.354.124-.018.35.1.354.3l-.19.03-.197.024zm8.68-1.995a.51.51 0 01.059.225.644.644 0 01-.038.248l-.04.178c-.006.06.181.144-.017.18-.026-.003-.086-.1-.088-.16-.002-.06.025-.264.037-.395.004-.036-.048-.096-.085-.111-.036-.016-.124-.06-.032-.142.044-.044.096-.063.146-.053l.058.03zm-.769-12.37a.168.168 0 01-.076.064.099.099 0 01-.082-.003.153.153 0 01-.065-.07.297.297 0 01-.03-.117l-.043-.15c-.042-.118-.128-.096-.208-.02a.162.162 0 01-.042-.09.262.262 0 01.008-.118l.133.013a.846.846 0 01.39.272l.016.116-.001.103zM46.712 37.284c-.098-.01-.144-.093-.113-.144.05-.09.093-.19.128-.296l.072.085a.164.164 0 00.17.016c.094-.07.192-.17.227.022l.024.153a3.492 3.492 0 01-.508.164zm12.426-11.548a.09.09 0 01-.098-.01l-.023-.002-.158-.232c-.067.23-.179.364-.249.291-.07-.073-.055-.344-.004-.278.051.065.278-.071.33-.054a.834.834 0 01.218.117.27.27 0 01-.016.168z"/>
  </g>
  <defs>
    <clipPath id="IEK9bpWf4a">
      <path fill="#fff" transform="rotate(5.364 -5.232 44.564) skewX(.03)" d="M0 0h85.764v35.769H0z"/>
    </clipPath>
  </defs>
</svg>
