<svg xmlns="http://www.w3.org/2000/svg" fill="none" viewBox="0 0 85 30">
  <path d="M19.053 2.78c.013-.078.03-.152.05-.221a.32.32 0 01.269.071l.15-.264.067-.114a.47.47 0 00.277.093c.138-.087.274-.192.406-.314v.129c0 .135.108.164.217.064.225-.028.451.003.673.092.137 0 .524-.306.603-.292.08.014.29.207.358.228a.78.78 0 00.287-.214c.045 0 .157 0 .16-.178.003-.178.252.107.319.107l.05-.064c.132-.164.15-.071.192.157l.03.178c.082-.22.19-.342.245-.27a.453.453 0 00.402.042l.083-.114.077-.1c.08.018.16.046.239.086l.032.064c.054.1.09.242.143.342.025-.015.046-.048.062-.093a.5.5 0 00.025-.157c0-.092.156-.249.274-.306l.102.164.023.043c.05.052.104.08.16.08.054 0 .109-.028.159-.08l.07-.072.041-.042c.058 0 .103.07.096.17v.143c0 .057.038.107.09.1l.019-.043c.041-.092.057-.22.095-.313l.048-.129a.271.271 0 00.208.065c.152-.01.3.093.424.292l.21-.271c.046-.04.096-.04.141 0l.09.3c.099-.101.193-.225.28-.371.036-.086.17-.236.198-.114.029.12.173.377.243.242h.07l.124-.064.304-.036.245-.121c.096-.043.444.235.48.135l.044-.057.038-.05c.06 0 .083 0 .058.115v.064c0 .064.05.12.083.17l.08.115c.012-.135.031-.267.057-.392.104-.15.228-.211.35-.171l.132.057h.025c.029.078.042.142.029.135-.043.11-.076.239-.096.378-.035.2-.373.128-.399.157v.085c.095.19.203.344.32.456l.194-.178.083-.078c.102-.05.102-.15 0-.221-.102-.071.02-.663.121-.756h.122a.836.836 0 00.67-.092.15.15 0 01.128.004c.042.02.082.06.118.117l.06.093c.026.2.077.27.109.156a.878.878 0 01.13-.255.325.325 0 01.163-.122c.096 0 .402-.05.476-.264l.08.135.022.036c.046.108.09.223.13.342l.106-.128h.029c.028 0 .056.017.08.05s.044.08.057.135c0 .086.067.32.09.178v-.228c.041-.157.095-.128.165-.043.17.207.039-.2.122-.2h.05a.28.28 0 01.282.036l.086-.15c.033-.044.073-.061.111-.05l.189.407c.121-.32.287-.463.37-.313.083.15.456 0 .52.078s.354-.157.498-.135l.121-.136h.02c.038 0 .175.114.3.185l.204-.078.146-.05c.023.193.093.271.16.171s.32 0 .354 0c.093-.06.183-.13.272-.214l.114.057.131.065a.317.317 0 01.32 0c.019.028.042.044.065.044s.046-.016.065-.044c.042-.079.233-.307.265-.214.061.136.133.247.21.328a.673.673 0 00.45-.136.817.817 0 01.524 0c.07 0 .275-.128.32-.071a.967.967 0 00.261.178l.1-.171c.133 0 .27.043.318.043.048 0 .204-.079.297-.1.093-.021.32 0 .32-.235l.184.242.035.043c.075.037.15.052.227.043a.84.84 0 00.476-.043c.145-.112.296-.183.45-.214l.035.05c.076.107.13.257.252.235h.105a.836.836 0 01.166-.292h.16L42.58.87l.07.235c.018.054.04.1.067.133a.166.166 0 00.084.064.11.11 0 00.09-.017.257.257 0 00.078-.095l.584-.15h.17c.153.026.306.026.46 0 .066 0 .22.2.229.093.01-.107.08-.2.137 0 .058.2.463 0 .603 0 .192-.03.382-.097.568-.2l.233.35a1.84 1.84 0 01.588-.064c.034-.098.082-.165.137-.19.054-.025.11-.006.16.054l.07.072a1.92 1.92 0 01.443-.243h.259a.564.564 0 01.354.15c.029.057.128.171.14.107.052-.125.12-.21.195-.242a.626.626 0 01.415 0v.377c.112-.042.297-.142.412-.213l.115.135a.144.144 0 00.103.051.144.144 0 00.104-.051c.099-.171.208-.121.32-.15h.105l.3-.178c.054-.036.22.171.319.143.099-.029.357-.086.405-.086.048 0 .16-.114.188-.064.029.05.246.35.418.556l.02-.585a.15.15 0 01.14 0l.242.179c.21-.1.424-.164.639-.193h.24c.025.178.254.221.51.107h.24c.056 0 .047.214-.023.292l-.032.043c-.058 0-.064.064 0 .107s.185.057.185-.078c0-.136.076-.57.166-.6.09-.028.412.172.514.136h.134a.449.449 0 01.319.093l.16.15c.137-.1.273-.217.405-.35.07-.07.182.3.194.3.051-.038.1-.09.144-.157l.07.114c.109.171.173.157.185-.143V.784c.031-.038.068-.052.102-.037.035.014.067.055.09.115.041.129.284.05.415 0 .13-.05.523-.07.58-.057l.026-.135a.098.098 0 01.067-.03c.023 0 .046.01.067.03.048.093.026.356.147.25L57.5.87c0-.214.15-.278.297-.143l.137.128a.766.766 0 00.39-.085c.092-.164.181-.328.216.071l.166.086c.089.037.18.037.268 0 .036-.082.069-.168.1-.257a.504.504 0 01.194-.185c.086 0 .32.12.338.078.063-.057.133-.057.195 0 .045.086.227.3.271.235.045-.064.176-.192.208-.142.032.05.14.157.15.071a.243.243 0 01.026-.078c.011-.02.025-.033.04-.037.015-.005.03 0 .043.012a.146.146 0 01.034.06h.185c.039.171.109.221.157.107s.185-.406.198-.342a.253.253 0 00.059.107c.023.023.05.03.075.021.05-.05.204-.142.217-.085v.057c.029.185.137.185.147.078.044-.356.15-.342.27-.192l.097.121.38-.242.086.192c.04.098.093.16.152.176.059.015.118-.017.167-.09.026-.002.053.018.073.057l.102.22.137-.334h.17c.15.042.293.07.319.07L63.755.5c.064 0 .297.264.374.171.076-.093.319-.192.338-.036.02.157.32-.128.463-.15.143-.02.478.165.488.072.01-.093.057-.32.083-.242v.092c.064.087.139.13.214.121.105 0 .319.229.28.321-.038.093-.778.121-.928.178-.15.057-.137.243-.045.179l.096.07c.062-.112.13-.205.204-.277.086-.086.208.413.243.435.035.021.083-.171.08-.257v-.071c.041-.285.032-.228-.067-.292L65.46.727c-.082.043-.162.1-.24.171h-.019l-.115.128c.154-.072.314-.024.453.136.148.13.308.18.466.142.074-.042.339.065.406 0 .067-.064.06-.356.038-.427-.046-.12-.107-.205-.176-.243-.057 0-.137-.064-.057-.135a2.29 2.29 0 00.3-.378c0-.057.169 0 .191 0a4.9 4.9 0 01.173.385c.048.114.319.37.319.42 0 .05.054-.178.044-.27h-.025L67.122.57c-.105-.071-.166-.214-.137-.328-.038-.107-.057-.228.022-.17l.134.085c.144.04.287.096.428.17a1.09 1.09 0 00.517-.184c.054-.043.172-.086.246-.143l.07.057h.041l.048.1c.018.054.044.09.074.104.03.013.06.002.086-.033.078-.071.165-.071.243 0 .066.064.319-.071.418.036l.086.12s-.035.136-.042.215V.67c0 .078.045 0 .077-.114s.246-.264.236-.307c-.01-.042.02-.17.09-.17.164.061.327.154.484.277a.887.887 0 00.492-.092c.025 0 .083.085.07.128a.99.99 0 01-.137.228c-.042.057.067.549.249.606l.073-.307.058-.249c-.109-.32-.096-.62.025-.663l.035.057c.074.121.093.335.22.357v.05c.023.356.026.349.214.399h.096c.128.085.23 0 .23-.143s.045-.549.099-.563l.073.128c.074.15.074.3 0 .328-.073.029-.057.428 0 .442.058.014.217-.235.243-.185.025.05.118.192.147.178h.022c.035-.068.073-.13.112-.185.038-.057.204.235.236.142s.153-.25.21-.192a.377.377 0 00.294.1c.038 0 .14-.207.153-.107.013.1.083.342.134.327h.032l.21-.213c.195.2.377.399.41.434.031.036.117.114.127.093a4.11 4.11 0 00.048-.3c0-.113.198 0 .246 0 .047 0 .181 0 .188.093.006.093.182-.042.236-.135.054-.093.32-.157.32-.221l.133-.029a.236.236 0 01.07-.07l.205.384c.022-.328.121-.556.223-.499.102.057.246.556.259.485a1.77 1.77 0 01.06-.271c.077.11.147.24.21.385 0 .043-.037.17-.047.264v.085a.389.389 0 00.036.138c.018.037.042.058.066.062l.02-.043c.13-.228.188-.15.216.142.077 0 .14-.078.144-.156.003-.079 0-.25-.041-.271-.042-.022.025-.285.089-.314.064-.028.188.335.207.542v.192c0 .079-.08.2-.121.193h-.172c-.192-.057-.342 0-.336.107.007.107.291.178.32.306.03.14.051.288.06.442a1.722 1.722 0 01-.099.52l-.057.107c-.067.136-.14.264-.214.392 0 0-.019-.128-.016-.285.003-.157-.127-.57-.185-.492-.057.079-.201.35-.166.442l.026.043.035.057c.044.05.057.128.032.164-.026.036-.064.2-.035.264.028.064.606.228.564.256-.041.029-.076.107 0 .1.077-.007.16.37.185.364.026-.007.09-.057.08-.1-.01-.043 0-.121.067-.093h.048c.163.186.236.342.17.357-.068.014-.269.135-.269.235 0 .1.077.32.128.456.097.12.208.174.32.157.062-.082.136-.108.206-.072.07.058.234.093.186-.057-.048-.15.178-.712.27-.976h.253c.045-.192.086-.27.093-.185.006.085.06.342.092.25.032-.066.071-.11.114-.126.042-.017.086-.005.126.032.12.182.26.292.405.321.08-.043.303-.356.469-.256l.15.078s0-.085.035-.121c.035-.036.07-.164.102-.164h.109c-.027.159-.062.31-.106.449a1.16 1.16 0 00.029.398c.03.12.081.21.14.25l.093-.441c.02-.107.13-.164.204-.2.022.002.044.015.063.039a.29.29 0 01.049.097c.022.1.02.206.093.085.073-.121.127-.128.169 0 .041.128.06.264.041.364a4.46 4.46 0 01-.175.498l-.061.164c.073.22.174.383.29.47a.98.98 0 00.444.13c.177.12.34.318.482.584.051.156.32.242.335.285.017.219.017.443 0 .663l.099.263.035.093a.454.454 0 01-.112.385l-.06.121c-.096.2-.086.214-.16.107a.404.404 0 01-.032-.057l-.121-.157c-.051.207-.118.257-.15.114-.032-.142-.32-.178-.392-.15-.074.029-.297.2-.195.271.102.072.3.328.261.464l.08.085.134.15c.093-.228.173-.385.176-.335.035.095.083.161.137.185.06 0 0 .406-.108.45l-.052.113-.057.128c-.048.229-.057.442-.02.478.04.036.055.285-.044.485s-.319.713-.297.748c.023.036.096.171.052.278h-.112a.424.424 0 00-.112.16 1.016 1.016 0 00-.07.254l.083.15a5.18 5.18 0 01-.14.954l-.087.121c-.096.122-.172.3-.175.393-.003.092-.118.413-.144.534l-.038.093-.09.213c.066.24.103.512.109.792l-.02.2-.031.284c.115.036.16.143.105.236a.984.984 0 01-.399.363h-.249a2.307 2.307 0 01-.274.4c-.086-.286-.176.128-.274 0a.714.714 0 00-.297-.222.458.458 0 01-.04.114.188.188 0 01-.058.07.078.078 0 01-.064.012.12.12 0 01-.062-.046c-.083-.093-.319.164-.319.171-.07-.143-.172 0-.217-.057l-.13-.15c-.133.117-.28.117-.412 0l-.118.2h-.02c-.05 0-.242-.128-.424-.25l-.17.236h-.028a.434.434 0 00-.21 0 .715.715 0 01-.32-.157c-.094-.023-.19.01-.278.093a1.936 1.936 0 01-.462 0h-.112c-.054.018-.11.001-.16-.05l-.08-.136a3.142 3.142 0 01-.36.271l-.112.078c-.032 0-.05.093-.073.143l-.064.128c-.029-.135-.086-.22-.124-.192-.044.076-.08.172-.106.282a1.71 1.71 0 00-.047.352v.299a1.068 1.068 0 00-.492.086l.032-.05.207-.35c0 .307.042.535.1.507.057-.029.06-.364.06-.492a2.125 2.125 0 00-.124-.52c-.026-.043-.173.17-.234.285-.06.114.285.656.55.813l.073-.136.086-.15a.651.651 0 01.137-.274c.057-.06.12-.081.182-.06.105.078.364.327.358.15l.019-.108v-.043c.07 0 .121 0 .111.057-.01.057 0 .186.042.2.041.014.153.093.144.157h-.122c-.105.164-.121.335-.038.385l.029-.05.121-.193a.898.898 0 01.39.1c.07.05.242-.207.274-.228h.019l.077.078c.085.09.182.11.274.057l.077.129h.172a.04.04 0 01.024.013.11.11 0 01.02.034.303.303 0 01.016.103v.185c-.016.196-.055.38-.111.534h-.271c-.195 0-.17.243.05.52l.237-.035h.099a.63.63 0 01.207-.292l.026.043.073.12c.005.226.038.443.096.628h.064c.022 0 .05-.121.044-.178v-.05a.164.164 0 00-.2 0l-.09-.05c-.054-.036-.118.114-.24.05l-.159-.093c-.19.07-.368.243-.52.506l.096.2.025.05c.135-.051.26-.187.36-.392l.202.157.319.399.147-.328a1.116 1.116 0 01-.071-.317 1.43 1.43 0 01.013-.353c.045-.129.214-.37.32-.171l.044.15c0 .064 0 .185-.029.256l-.031.093c-.039.363.016.627.12.591.106-.035.272.47.224.542-.048.071-.185.356-.099.32.086-.035.939-.27 1.07-.377.13-.107-.045-.185-.22-.136l-.148.136H78.9c-.055 0-.093 0-.087-.043a.454.454 0 00-.014-.138.18.18 0 00-.05-.09c-.06.128-.105.278-.159.413l-.041.1c.064.167.148.29.242.357.086.057.262-.35.284-.392.023-.043.106 0 .121.263l.163-.15.093-.085a2.496 2.496 0 01-.664-.264c-.026-.004-.05-.024-.072-.057a.394.394 0 01-.049-.13.694.694 0 01.013-.326c.052-.116.108-.224.169-.32.022.135.022.356.067.392l.13.114c.002-.172.024-.34.064-.485.226.006.451.07.67.192l.243-.256.086-.086a.866.866 0 00-.005.2.67.67 0 00.04.178c.032.057.163.164.173.057a.428.428 0 01.092-.2c.04-.042.085-.051.128-.028.105.064 0 .627.067.713.196.134.407.111.597-.064l.22-.15h.025c.07.164.147.27.17.235a.79.79 0 00.083-.185l-.087-.114a.562.562 0 00-.277-.2h-.051c-.03.01-.06.01-.09 0-.194-.214-.169.043-.175.257v.043c-.02.05-.038 0-.042-.115-.003-.114-.191-.17-.217-.242v-.057a.226.226 0 01.038-.077c.015-.018.031-.029.048-.03.109.079.205-.25.32 0 .124-.157.242-.2.261-.092l.042.064h.022l.217-.243c.054-.064.246-.192.268-.078.023.114.106.399.122.385h.028l.163-.093a.546.546 0 01.507-.064c0 .27.077.57-.073.805 0 0 0 .157.035.193a.08.08 0 00.054.024.08.08 0 00.055-.024 6.53 6.53 0 00.115-.385l.022-.071c.035-.072.073-.057.086.035.031.146.077.273.134.371h.201c.032 0 .137.171.147.121.01-.05.067-.15.099-.064.043.074.096.114.15.114.054 0 .107-.04.15-.114l.096-.136c.06.122.086.271.057.328-.029.057-.09.264-.041.278.047.015.185.129.166.214-.02.086-.026.385.038.407.064.02.127.206-.035.377l-.131.15a.605.605 0 00-.127.378.61.61 0 00.018.15.165.165 0 00.073.062c.025.01.052.008.077-.006l.093-.064a1.683 1.683 0 01.051-.449h.035c.105-.092.412.164.424.357v.057l-.213.299c-.082.135-.157.29-.224.463 0 .036-.057.036-.108-.12h-.099c-.08.12-.112.27-.067.327.107.253.174.58.188.926v.813c-.179.242-.319.385-.341.307-.023-.079-.067-.236-.112-.172-.045.065-.02.435-.064.45-.044.014-.153.17-.096.313h.045c.076-.036.15-.081.224-.135.057 0 .159-.072.159.135 0 .207-.02.285-.057.314l-.134.1a.088.088 0 01-.092.001.214.214 0 01-.081-.096.606.606 0 01-.05-.172.9.9 0 01-.007-.204l-.208.086-.166.064c.067.278.061.52-.016.527-.076.007-.293 0-.3-.12-.006-.122-.07-.229-.12-.108-.052.121-.208.4-.218.3-.01-.1-.07-.335-.108-.25-.132.191-.287.288-.444.278l-.115.128-.124.136c-.15-.018-.3-.018-.45 0h-.16a.468.468 0 01-.32-.036c-.133-.05-.513.128-.545.1a.692.692 0 00-.255-.093.6.6 0 01-.338-.057c-.058-.078-.304.264-.422.364l-.019-.37v-.122l-.246.22c-.054.044-.153.208-.185.108-.032-.1-.287 0-.357.05a.713.713 0 01-.32-.1c-.04 0-.165.157-.194.207-.029.05-.156-.043-.191-.072a.46.46 0 00-.335.15c-.112.107-.517-.192-.639-.207a1.733 1.733 0 00-.488.335c-.054 0-.255-.035-.335.129l-.147-.207c-.06-.093-.214.05-.32.05-.105 0-.187-.079-.28-.086a.546.546 0 00-.21.093l-.157.093v-.136c0 .136-.255 0-.348.05h-.086l-.348-.064c-.383-.043-.804-.064-.957-.05a2.24 2.24 0 00-.53.235.984.984 0 01-.287.107l-.035-.078c-.112-.235-.237 0-.32-.057l-.127-.129a.714.714 0 01-.374 0 3.098 3.098 0 00-.526.257l-.157-.178-.089-.093a.477.477 0 01-.37.057c-.051-.043-.179.086-.21 0-.033-.085-.164-.22-.23-.15-.12.12-.246.21-.374.271a.534.534 0 01-.297-.107 1.393 1.393 0 00-.526.221c-.18.086-.677-.128-.715-.057-.039.072-.201-.107-.24-.128-.038-.021-.15.05-.166 0-.016-.05-.076-.157-.092-.093-.029.052-.064.085-.1.095-.037.01-.074-.003-.108-.037-.08-.093-.357.156-.424.17l-.042-.05c-.061-.09-.133-.139-.207-.139-.074 0-.146.049-.207.14-.125.156-.259-.221-.339-.114a.352.352 0 01-.171.143.207.207 0 01-.183-.03.137.137 0 00-.096-.045.138.138 0 00-.096.046c-.047.035-.162-.1-.169-.079-.063.221-.14-.092-.188 0-.048.093-.073.057-.128 0l-.102-.135-.638.185c-.217.057-.957 0-1.053.05h-.32a.907.907 0 00-.596.121.846.846 0 01-.517-.107h-.636c-.032-.135-.074-.235-.09-.235a.34.34 0 00-.137.107c-.045.057-.182.214-.226.15-.045-.064-.355.107-.572.092a9.192 9.192 0 01-.922-.164c-.077-.021-.32.121-.38 0-.06-.12-.319.114-.405.129-.086.014-.354.057-.453.085-.1.029-.377-.17-.447-.128a.543.543 0 01-.396 0c-.07-.05-.399.043-.542 0l-.138-.078-.108-.058c-.243.118-.492.18-.74.186-.23 0-.977.043-1.15.107l-.05-.407v-.035c-.119 0-.202.057-.186.107a.338.338 0 01-.01.153.121.121 0 01-.028.05c-.01.01-.023.014-.035.01a1.248 1.248 0 00-.46.15l-.12-.128-.068-.064a.397.397 0 00-.15-.193c-.032.057-.06.214-.076.207l-.345-.114a.732.732 0 01-.696.078c0-.1-.09-.328-.169-.263h-.067c-.144 0-.086.228-.147.285a.637.637 0 01-.204.043c-.08 0-.153.1-.23.12h-.045l-.236-.135a.441.441 0 00-.319.093c-.045.036-.258-.05-.319 0-.06.05-.412.071-.606.171l-.173-.25a.15.15 0 00-.103-.047.15.15 0 00-.104.047l-.144.2c-.15-.1-.302-.18-.456-.235v.05c-.09.342-.21-.107-.32.057l-.098.157a1.46 1.46 0 00-.466-.328l-.137.185-.1.128a.596.596 0 00-.144-.228c-.055-.05-.115-.07-.174-.057l-.032.093c-.074.22-.131-.1-.189 0l-.019.036a.376.376 0 01-.274-.05 3.277 3.277 0 00-.862.135c-.037-.09-.087-.148-.141-.165-.054-.017-.11.009-.156.072-.115.2-.14-.163-.252-.078l-.083.064a.761.761 0 00-.6-.071h-.188c-.112 0-.297.05-.32-.05l-.08-.264a.475.475 0 01-.21.193h-.329a.657.657 0 00-.223.135c-.03-.107-.067-.2-.112-.278-.038-.05-.124.178-.153.292h-.191c-.115 0-.32.036-.447.065l-.125-.043-.124-.036c-.14 0-.262-.043-.271-.128a2.23 2.23 0 00-.042-.314.44.44 0 00-.041.164c0 .086-.086.32-.147.3l-.022-.05c-.115-.271-.112-.271-.272-.036h-.019a1.1 1.1 0 01-.319.093c-.166.035-.59-.271-.638-.214-.048.057-.147-.064-.1-.15.049-.085.132-.328.045-.278a1.337 1.337 0 00-.319.45h-.028c-.064 0-.125-.093-.189-.1-.064-.008-.115.092-.172.106a.212.212 0 01-.207 0l-.201-.185a2.4 2.4 0 01-.527.207h-.06a.538.538 0 00-.422-.107l-.188.142c-.173-.164-.32-.213-.361-.12-.23.051-.46.051-.69 0h-.401a1.315 1.315 0 00-.639.12l-.156-.107c-.086-.064-.32-.192-.38-.27a.127.127 0 00-.137 0c-.029.306-.096.356-.217.128a1.64 1.64 0 00-.32.157l-.127-.064c-.067-.067-.14-.099-.212-.093-.074.007-.145.05-.21.128-.034.057-.13 0-.197-.035h-.051c-.07-.038-.144-.017-.208.057a.607.607 0 01-.408-.072 1.32 1.32 0 00-.559.043l-.118-.242s-.035.05-.057.057l-.358.135a3.283 3.283 0 00-.408-.185c-.032-.007-.28.043-.517.043l-.214.064h-.115c-.041-.164-.086-.214-.102-.107-.19.145-.39.227-.59.242l-.173-.278H30.3a.59.59 0 01-.319.1l-.111-.078c-.093-.064-.166.328-.29.057-.02-.043-.093 0-.141 0-.048 0-.064.042-.093.035h-.05a.416.416 0 00-.298.072l-.067-.186c-.092-.264-.163.164-.277 0-.115-.164-.051-.406-.122-.541a.143.143 0 00-.097-.044.143.143 0 00-.097.044l-.102.1c-.103.163-.163.306-.138.327.026.022 0 .107-.108.157l-.109-.043a.593.593 0 00-.191-.092h-.198c-.118-.257-.214-.393-.214-.293 0 .1-.096.47-.21.464-.116-.008-.377-.314-.393-.271l-.016.043-.029.064c-.089.078-.186.103-.28.071a1.302 1.302 0 01-.508-.242c-.042-.072-.16-.079-.166 0-.006.078-.176.107-.185.107a2.71 2.71 0 01-.048-.457l-.182.243a.86.86 0 01-.294.213h-.054c-.083 0-.153-.135-.153-.27v-.121c0-.136 0-.279-.102-.257-.102.021-.058.2-.07.306v.05c-.023.093-.061.107-.087 0a.224.224 0 00-.048-.073.084.084 0 00-.057-.026.083.083 0 00-.057.026.224.224 0 00-.048.073l-.045.122c-.024.056-.057.091-.092.1h-.03a2.25 2.25 0 01-.079-.35c-.019-.128-.188-.185-.15-.143.038.043 0 .35-.182.6l-.156-.314-.06-.122a2.082 2.082 0 00-.218.243c-.06.071-.364-.186-.39-.207h-.05c-.026 0-.039.078-.026.107.013.028-.099.207-.287.285l-.099-.114-.156-.164c-.15.064-.259.05-.243 0a1.902 1.902 0 00-.092-.416.94.94 0 00-.16-.297l-.236.278-.144.171c-.236-.15-.376-.263-.319-.256l.067-.321.32.143c.022 0 .038-.25-.119-.221l-.086-.114-.188-.257c-.058.25-.109.413-.115.363a.617.617 0 00-.042-.141.274.274 0 00-.064-.094c-.047 0-.153.178-.162.228a2.128 2.128 0 01-.195.385c-.073.128-.185.713-.195.606-.01-.107-.083-.413-.13-.406a.705.705 0 01-.25-.072c-.038 0-.124.043-.076.093.067.077.127.178.179.3v.05a.124.124 0 01-.025.04.045.045 0 01-.03.017l-.089-.05c-.112-.086-.207-.236-.207-.328 0-.093-.042-.357-.096-.321-.054.036-.093.406-.112.506-.019.1-.217.057-.236.043a.92.92 0 01-.033-.25.92.92 0 01.033-.25c.057-.234.083-.712 0-.47-.083.243-.354.713-.408.663-.055-.05-.182.186-.205.285-.022.1-.242.129-.274 0-.032-.128.242-.335.319-.399a1.78 1.78 0 00.303-.285 1.69 1.69 0 00.023-.342h-.128l-.06.136c-.055.156-.116.285-.138.277a.198.198 0 01-.05-.072.465.465 0 01-.033-.113 2.175 2.175 0 00-.118-.428c-.029-.078-.125-.256-.147-.228-.072.106-.14.228-.2.364h.238c.048.138.092.283.131.435a.393.393 0 01-.053.121.133.133 0 01-.071.057h-.118a.73.73 0 00-.14.114c-.026 0-.112-.086-.148 0-.035.085-.134.093-.166 0-.031-.093-.194-.385-.284-.25l-.06.1-.064.1a3.262 3.262 0 00-.271-.328l-.06-.17-.058-.172-.265.292-.029.072-.051.135a.43.43 0 01-.117.206c-.047.04-.099.045-.148.015-.096-.071-.262-.357-.319-.392-.058-.036-.21-.064-.185.093l-.023.042c-.041.086-.118.107-.169.179.026.106.023.213 0 .242-.022.028-.105-.071-.13-.178-.122-.237-.28-.362-.44-.35v.45c0 .128-.202.185-.237.064-.035-.122-.026-.236.076-.264.032 0 .087-.164.074-.207l-.042-.178a.37.37 0 01-.124.149.152.152 0 01-.14.015c-.109 0-.4.192-.438.15h-.038c-.045 0-.112-.05-.144 0l-.134.163-.3-.2a.777.777 0 00-.274.037l-.093-.143-.028-.043c-.023-.021-.05-.023-.072-.003a.2.2 0 00-.053.11.978.978 0 01-.105.28.345.345 0 01-.15.148 1.353 1.353 0 00-.437 0v.035l-.016.05c-.023.057-.048.057-.058 0v-.042l-.035-.107c-.041-.1-.166-.072-.277.064h-.017l-.105-.2a.39.39 0 01-.097.133.152.152 0 01-.114.038c-.106 0-.213-.011-.319-.035a.742.742 0 00-.415.192c-.066 0-.284-.107-.373 0l-.108-.2-.083-.15a.947.947 0 01-.444.186l-.096.107-.099.1a1.46 1.46 0 01-.296-.364l-.083.214c-.07.186-.138-.092-.205-.092-.067 0-.188.17-.217.128-.109-.14-.237-.187-.36-.136-.147 0-.32-.12-.444.143a.737.737 0 01-.188-.114.502.502 0 00-.479 0l-.112-.043a3.062 3.062 0 01-.699-.35c-.047 0-.07-.199-.108-.298-.023-.06-.055-.1-.09-.114-.054 0-.114.092-.162.07H6.32a.788.788 0 00-.075-.207.303.303 0 00-.107-.12.758.758 0 00-.383.043l-.057-.079c-.155-.174-.33-.245-.502-.206-.019 0-.067-.157-.057-.186.01-.028.147-.213-.035-.256-.083 0-.073-.186 0-.292l.032-.058a.507.507 0 000-.285c-.022-.092.099-.228.143-.15.045.08.217-.042.265.036l.023.086c.019.064 0 .164 0 .235.02.06.05.101.083.121h.019c.053-.087.102-.19.143-.306.051-.136.166-.613.138-.713-.03-.1-.288 0-.361-.057v-.071l-.026-.2c-.057-.185-.127-.256-.16-.164-.031.093-.066.5-.14.35-.073-.15-.392-.364-.44-.45-.048-.085.086-.392.147-.299.06.093.252.306.28.264.033-.13.06-.266.08-.406l.115.142c.045.039.094.039.138 0 .041-.114.035-.2-.061-.27l-.073-.058c-.064-.2-.061-.42 0-.492l.038-.1.022-.057a.607.607 0 00-.086-.263 1.265 1.265 0 00-.37-.3l-.032.25-.054.392c-.157-.1-.243-.214-.195-.25.048-.035.13-.15.112-.185l-.185-.335-.061-.107-.057-.092c-.091.037-.185.01-.269-.079h-.076a.614.614 0 00-.255 0 1.242 1.242 0 00-.431 0c-.138.05-.24-.142-.377-.085-.084.007-.167-.045-.236-.15l-.096-.107a2.032 2.032 0 01-.466-.085c-.143-.05-.619-.5-.782-.606l-.156-.072-.105-.05a1.227 1.227 0 01-.348-.114l-.064-.07-.265-.3c.045-.32.102-.713.13-.863l-.194.065c-.096 0-.147-.065-.127-.243l.016-.114a.906.906 0 00-.023-.356c-.029-.064-.099-.278-.06-.32.081-.108.158-.232.23-.372l-.11-.078c-.089-.057-.127-.143-.082-.257l.076-.2a4.194 4.194 0 01-.264-1.075l-.16-.385-.042-.093c.068-.264.083-.485.036-.499-.048-.014-.115-.135-.058-.242.058-.107 0-.492.045-.513.045-.022.156-.257.124-.442l-.028-.179c-.032-.185-.093-.377-.08-.556.03-.2.09-.374.169-.491.051-.086.188-.043.217-.136l.054-.185c.083 0 .189.05.233.057.045.007.265-.428.32-.392.054.036.296-.143.385-.15l.09-.064c.067-.05.188.128.242.071.033-.048.071-.074.11-.074.04 0 .078.026.11.074.074.062.154.062.227 0l.188-.185c-.019.214.112.143.294-.15l.265.093h.045c.049-.07.109-.093.166-.064.143.034.287-.05.405-.235l.217.22c.067.072.243-.135.278-.064l.12.236c.093-.128.256-.328.365-.442l.092-.043a.464.464 0 01.32 0c.154.111.322.096.472-.043l.127-.15c.115-.036.231-.007.339.086l.022.05.038.1c.048.114.131.064.182-.107.051-.171.425 0 .546 0 .121 0 .476-.314.568-.328h.086c.13.032.26.007.386-.071a.233.233 0 01.109-.079h.067a1.57 1.57 0 01.265-.2h.133c.055.136.097.086.093-.113l.166.057c.053.04.11.053.165.036a.303.303 0 00.155-.136c.017-.015.036-.015.054 0 0 .128 0 .285.111.228.045 0 .055-.228.103-.27a.698.698 0 01.347-.179h.134c.13.047.26.047.39 0a.683.683 0 01.335-.1.45.45 0 00.262 0c.022-.043.114-.157.12-.107.018.052.04.091.068.113.026.022.055.025.083.008.101-.09.21-.123.32-.092.037.057.19.228.229.185.058-.108.112-.23.16-.363.044-.107.245-.05.319-.093h.165c.134.004.268.033.4.086h.108c.03.017.06.017.09 0l.232-.271c.14.2.262.292.268.206.007-.085.077-.292.14-.235h.093c.085-.03.163-.12.224-.256h.156a.422.422 0 00.029-.095.617.617 0 00-.029-.319h-.057c-.1-.05-.096.107-.115.228-.02.121-.1.057-.15.072-.115.042-.259.17-.335.092a.46.46 0 00-.37-.085h-.78c-.181.042-.245-.228-.338-.4l-.108-.199a.694.694 0 00-.32.078.736.736 0 01-.207.072.762.762 0 01-.255-.257c-.048-.064-.24-.2-.274-.121l-.023.093c-.038.135-.032.142.09.142h.06c0 .071 0 .2-.022.207-.083 0-.207.17-.227-.121V9.5l.051-.413c.007-.043 0-.15-.031-.129h-.03l-.117.05-.157.057a.73.73 0 01.022.296.524.524 0 01-.034.133.216.216 0 01-.058.084.338.338 0 01-.412 0v-.064l.016-.114c.023-.114 0-.206-.028-.2-.042-.016-.079-.066-.105-.14a.753.753 0 01-.039-.258H9.44l-.297-.207c.058-.45.179-.777.272-.713l.063.05c.061.043.118.114.182.15.04.009.08-.011.115-.057l.023-.036c.101-.02.198-.101.28-.235v-.2c-.08-.106-.171-.17-.265-.185l-.054.064c-.041.05 0 .292-.108.235l-.074-.042c-.073-.129-.16-.129-.191 0-.032.128-.214 0-.208-.058.007-.057 0-.17-.032-.17-.031 0-.162.056-.169.128-.006.071-.054.278-.083.27 0-.064 0-.156-.032-.206l-.089-.221h-.32c-.031 0-.057-.285.055-.585l.16.164.121.136c.134 0 .249-.128.252-.264.003-.135-.022-.513-.064-.513-.041 0-.16.057-.118.135v.129c0 .107-.083.156-.16.114-.076-.043-.207-.214-.117-.285v-.072c0-.1-.051-.214-.096-.306-.045-.093-.08.1-.121.092-.044-.02-.085-.07-.115-.142 0 0 .038-.107.06-.157l.297.107c.144.05.53-.207.568-.15h.032a.264.264 0 00.121-.12.202.202 0 000-.1v-.05c-.022 0 0-.093.03-.136.028-.043.175-.1.203-.05.03.05.138.157.166.1.032-.037.067-.05.102-.04.035.012.068.048.093.104.054.182.114.356.179.52a3.332 3.332 0 00-.023-.527v-.306c.025-.027.051-.042.079-.042.027 0 .053.014.078.042v.064l.035.156c.035.214.108.164.169-.114l.077-.135.089-.157c.045-.207.099-.335.115-.285.062.118.139.192.22.214l.07.071.067.064c.109.036.195 0 .195-.114s.032-.292.067-.25h.038a.61.61 0 00.25.193c.04 0 .085-.278.13-.278h.086c.079 0 .157.022.233.064a.053.053 0 00.05.002.11.11 0 00.044-.046.3.3 0 00.031-.085.507.507 0 00.012-.106v-.142l.016-.164c.039-.171.217-.207.403-.079l.207-.356c.124-.214.23-.585.45-.221.096-.164.214-.207.265-.107l.057.079.026.035h.198a1.94 1.94 0 00.348-.22c.156-.047.314-.073.472-.08.099 0 .32-.27.383-.17.064.1.179.399.169.47-.01.071.02.328.099.32h.207a5.05 5.05 0 00.237-.562c.047-.15.217-.528.255-.463h.029l.15.156c-.023.18-.07.34-.134.456l-.023.093-.016.071c.02.1.058.179.083.164.1-.125.195-.263.287-.413l.157.128.044.043c.045.05.115-.043.16-.214.045-.17.223-.584.284-.492h.06l.106.057c.083.11.17.2.262.271.05 0 .044.364.067.414.022.05.108.07.124.142.016.071.14 0 .157-.15.016-.15.226-.085.27-.064a.682.682 0 01.374-.064l.147.036h.14c.147.071.297 0 .32-.079.022-.078-.026-.456 0-.541zM79.69 6.2c.067-.207.023-.456-.102-.556l-.099-.036-.153-.057c-.17 0-.259.043-.198.136.06.092.475.72.552.513zm1.529 2.06c.025-.05 0-.328-.054-.62h-.454c-.099.285-.12.641-.047.805h.038l.096-.043c.095-.12.194-.178.223-.128.061.045.128.04.188-.014h.01zm1.06 17.256c.038 0 .124-.136.19-.342.068-.207-.14-.713-.108-.749v-.17c-.095-.058-.191-.058-.207 0-.016.056.045.291.067.391.022.1 0 .378.029.485.028.107-.007.363.019.385h.01zM11.9 7.455c0 .114-.055.164-.112.093-.057-.071-.02.242.121.235h.125l.233.057c.086-.25.092-.427.019-.392-.074.036-.281-.057-.29-.142a2.936 2.936 0 00-.055-.278 2.857 2.857 0 00-.041.427zm3.032-3.563c.054-.214-.032-.378-.192-.371l-.096-.214a.76.76 0 00-.134.314c0 .1.185.292.243.32 0 .243.045.293.124.093l.055-.142zm61.128.27c0-.135-.025-.178-.047-.085a.27.27 0 01-.085.136.083.083 0 01-.104 0c-.064-.086-.28-.129-.258-.086.022.043.041.178 0 .228-.042.05-.058.2.108.107l.074.064.105.086c.052-.012.101-.063.139-.144a.871.871 0 00.069-.305zm6.288 18.204c.057.072.114.043.13-.07.016-.115-.092-.479-.118-.578l-.073.128-.134.25a1.05 1.05 0 00-.28-.1.24.24 0 000 .135c.073.1.156.186.232.278h.022c.02.1.166-.114.22-.043zM13.094 4.184c.109.064.195.078.195 0a2.4 2.4 0 01.042-.342c.022-.093-.045-.186-.112-.086l-.112-.142c-.102-.129-.134.156-.204.242-.07.086-.058.207 0 .314.057.107.076.178.156.042l.035-.028zm61.069 15.68c-.039.065 0 .1.083.065.083-.036.319.285.402.278.083-.007.118-.428.019-.45a.845.845 0 00-.51.08l.006.028zM53.2 28.754c-.048-.05-.09 0-.09.1s-.021.356-.05.356-.121 0-.121.093c.003.088.009.177.019.263a1.69 1.69 0 00.42-.128v-.292a1.598 1.598 0 00-.178-.392zm17.098-27.5c.035.045.077.057.117.036.04-.02.074-.074.097-.15l.019-.128a.9.9 0 00-.008-.167.657.657 0 00-.037-.146.28.28 0 00-.035-.08.102.102 0 00-.046-.042.056.056 0 00-.05.006.132.132 0 00-.044.051L70.25.72c-.106.078-.02.442.035.534h.013zm-1.788 0c.119-.057.198-.192.18-.299-.074-.15-.17-.229-.269-.22-.064.078-.038.598.077.548l.012-.029zm14.831 22.182c.026-.172-.044-.25-.156-.172l-.09.1c-.07.079-.134.185-.022.335h.032c0 .228.201-.028.223-.235l.013-.028zM20.968 2.816c-.102.1-.055.249.105.334l.112.079c.108.078.153-.071.204-.178.05-.107.019-.143 0-.207a.519.519 0 00-.351-.107l-.07.078zM9.676 6.421a.402.402 0 00-.044-.139c-.02-.035-.045-.056-.07-.06a.458.458 0 00-.234.163c-.08.146-.139.339-.172.556h.016l.02.036c.118-.093.232-.218.337-.37l.138-.2.01.014zm10.532-3.129c0 .107.048.135.118.071.104-.093.2-.223.284-.385l-.048-.114c-.035-.085 0-.278-.111-.235l-.103.036a3.033 3.033 0 00-.15.627h.01zM50.61 1.725c.092.1.099.1.019 0s-.268-.45-.294-.328c-.01.118-.002.24.023.346.025.106.065.19.114.238l.026-.05.112-.206zM26.419 3c0 .1.06.064.118-.072.057-.135.08-.563 0-.527a.849.849 0 00-.278.207s0 .128.035.12c.035-.006.118.143.125.272zm11.332-.898c-.2-.036-.303.1-.226.285l.115-.05a1.6 1.6 0 00.319-.214v-.2a.112.112 0 00-.031-.04.045.045 0 00-.036-.01l-.14.229zM8.464 26.522c.04-.178.056-.38.044-.578l-.115.065c-.038 0-.086.213-.108.035-.023-.178-.058-.292-.157-.17.049.188.113.355.189.49l.073.058.074.1zm64.37-7.734c.026-.1-.04-.206-.15-.235l-.063.064-.07.072a.9.9 0 00-.045.236 1.08 1.08 0 00.013.255h.096c.083-.09.158-.217.22-.37v-.022zM61.695 1.183c.044-.142 0-.2-.064-.121-.064.078-.288 0-.32.078v.05c0 .114-.044.264.064.314h.058c.067.114.217-.15.262-.3v-.02zm12.67 3.208c-.103-.171-.109-.214 0-.093.13.143.272.23.418.257.025-.036 0-.257-.157-.378l-.076.064-.185.15zM63.749 1.49c.08.1.143.128.14.064.003-.105.013-.208.029-.307 0-.05-.026-.235-.121-.25-.096-.013-.131.414-.048.514V1.49zm-11.978.05c-.08 0-.063.156.039.342l.105.071h.032c.102-.192-.096-.378-.176-.378V1.54zM20.578 26.807c-.09 0-.143.1-.115.22.03.122.163.35.252.286.09-.064-.047-.506-.137-.506zm54.427-5.339a.414.414 0 01-.07.207c-.054.078-.064.335 0 .264l.07-.057.08-.072a.236.236 0 00.086-.32l-.054-.1c-.023-.036-.045-.093-.064-.093h-.038a.1.1 0 00-.017.034.238.238 0 00-.005.096.2.2 0 00.012.041zm-1.276-2.387c.108 0 .146-.107.08-.2-.068-.093-.32 0-.4 0-.08 0 .217.207.33.2h-.01zM48.285 1.825c.112.2.236.078.275-.278l-.195-.164h-.041c-.096.12-.157.256-.138.292l.1.15zm-31.12 4.832a.122.122 0 00-.022.047.262.262 0 000 .134c.005.02.013.036.023.047.094.114.193.205.296.271h.067c.023-.012.044-.042.058-.085v-.15l-.096-.136c-.102-.114-.274-.22-.316-.128h-.01zm-5.875 1.07c-.057-.13-.13-.217-.21-.248-.081-.03-.164-.004-.237.076.192.513.195.513.457.171h-.01z" fill="red"/>
</svg>
