<svg xmlns="http://www.w3.org/2000/svg" fill="none" viewBox="0 0 90 44">
  <g clip-path="url(#N_WhyUH3ca)" fill="#fff">
    <path d="M65.829 38.237c-.034.36-.087.596-.118.479l-.048-.06c-.04-.051-.124-.06-.157-.117l-.046-.077a1.423 1.423 0 01-.002-.429l-.018-.092a.53.53 0 00-.157-.287l-.108-.064c-.013.137-.07.259-.102.274-.032.015-.102.105-.05.159.053.053.184.24.119.246-.066.006-.248.122-.258.23-.01.108-.083.397-.127.254-.044-.143-.126-.616-.088-.655a1.48 1.48 0 00.14-.35.132.132 0 00-.047-.079.066.066 0 00-.072-.004l-.05.038-.005.06-.116.098c-.01.159-.044.315-.1.455-.045.08.13.242.14.261a.463.463 0 01-.011.126.059.059 0 01-.036.008.06.06 0 01-.033-.014l-.126-.2a.26.26 0 01-.259-.08.597.597 0 01-.146-.332l-.035-.24a.407.407 0 00-.114-.203l-.034-.003c-.057-.006-.095.033-.087.064.009.031.011.212.02.364.008.152-.056.6-.158.59-.103-.01-.432-.04-.42-.094a.59.59 0 01.15-.215c.054-.044-.075-.25-.125-.133a1.645 1.645 0 01-.967-.278l-.072-.007c-.034.087-.017.192.061.248l.072.006c.029.014.057.03.084.05l.362.21c.211-.216.222-.5.022-.603l.093-.341a.252.252 0 00-.08-.044c-.11-.01-.213.24-.349.01-.032-.058-.229.038-.343.082-.027-.003-.045.105-.05.164-.006.06.04.065.07.073.03.015.062.018.094.01l.229-.076c.128.307.287.579.47.806-.07.096-.175.159-.219.263l-.048.105c-.04.147-.069.168-.066.06a1.041 1.041 0 00-.157-.535.73.73 0 00-.405-.038c-.08-.007-.333.132-.341.222-.009.09-.076.32-.127.296l-.034-.094a2.58 2.58 0 00-.28-.552l-.102.148-.125.188a.773.773 0 01-.334.101 1.125 1.125 0 00-.112-.143c-.047-.035-.197-.019-.158.094.039.112.006.339-.182.351l-.058.291s-.005.054-.03.045l-.027-.002c-.027-.003-.144-.098-.267-.17l.087-.197c.048-.099.118-.237.184-.25.133-.029.12-.133.125-.23l.005-.059a.138.138 0 00-.067-.069.094.094 0 00-.084.006l-.046.044c-.037.033-.05.129-.081.138l-.038-.004a.164.164 0 01-.044-.18 1.65 1.65 0 01.208-.354l.092.081c.027.002.099.01.146-.047.047-.056.009-.096.013-.137l-.039-.204c-.156-.08-.231-.178-.17-.221.061-.043.183-.206.055-.218-.129-.012-.41.046-.397.156.037.13.062.269.076.412a.077.077 0 01-.047-.024.143.143 0 01-.033-.056c-.017-.062-.123-.2-.172-.125a1.658 1.658 0 00-.154.384c-.007.078.174.017.216.057l.021.062c.018.05.038.125.022.171a.184.184 0 01-.057.053.112.112 0 01-.064.015c-.075-.008-.14-.098-.213-.123a.207.207 0 00-.164.033l-.013.138a.254.254 0 01-.224-.058 1.728 1.728 0 01-.135-.43c-.039-.16-.177-.56-.237-.535-.06.024-.233.044-.204-.02.029-.063-.017-.303-.184-.355l-.162.093-.137.078a1.265 1.265 0 00-.454-.006c-.06.024-.202.156-.134.21.067.055-.001.297-.072.236-.07-.061-.39.09-.512.127l.007.206c-.008.09-.058.26-.093.257-.11-.01-.198.12-.143.186l.093.106c.057.142.147.24.253.277.08.008.119.247-.014.156l-.099-.01-.113-.01a.52.52 0 01-.262-.024 4.994 4.994 0 010-.563 3.55 3.55 0 00-.292-.97c-.025-.056-.074-.224-.052-.258.022-.035.05-.177-.034-.13-.084.046-.317.085-.483.142-.166.056-.62-.313-.78-.321-.16-.01-.363.46-.416.371l-.046-.004-.073-.037c-.087-.008-.12-.102-.075-.176l.004-.036-.05-.156-.38-.035c-.166 0-.332.076-.479.22-.104.136-.055.6.024.528.079-.07.344-.167.358-.111l-.042.443-.655-.061c-.12-.012-.392-.218-.344-.401l.155.22.023.038c.13-.084.216-.221.186-.315-.03-.093-.064-.332-.01-.34.054-.006.19-.066.186-.114l-.155-.015a1.895 1.895 0 01-.363-.203c-.043-.035-.127.09-.116.14.01.05-.084.197-.219.215-.135.017-.82-.264-.725-.008l-.056.279c-.005.054.1.148.167.21.038.003.071-.067.067-.103l.003-.03c.003-.036-.046-.077-.04-.107a.288.288 0 01.025-.087.189.189 0 01.047-.063c.044 0 .087.019.124.054l-.047.225c.132.012.203.11.165.154-.039.045-.122.195-.108.25.014.056.011.213-.039.214-.047-.065-.077-.158-.13-.194a.865.865 0 01-.27-.334 1.514 1.514 0 01-.138-.501.485.485 0 00-.1-.26c-.052-.063-.12-.092-.189-.082l-.072-.007c-.083-.092-.194-.09-.24.008-.048.098-.205.259-.252.158-.048-.102-.257-.357-.329-.29-.07.065-.241.254-.201.276.04.022.1.082.075.092a.476.476 0 00-.112.14 1.976 1.976 0 00-.068.363c-.011.12-.104.455-.18.49l-.056-.005-.035-.003c-.041-.004-.066-.067-.058-.157l.264-.041a3.802 3.802 0 01-.11-.615c.023-.2.056-.4.097-.595.012-.126.003-.357-.039-.24l-.052.026c-.135.06-.346.155-.416.076l-.193-.224c-.257.012-.478.094-.486.184-.009.09.02.304.02.389l-.079-.008c-.027-.002-.07.048-.067.066.002.019.167.167-.018.186l-.136-.013a4.1 4.1 0 01.118-.4c.03-.081.03-.317-.108-.318-.138 0-.307-.35-.324-.375l-.152.15a1.853 1.853 0 01-.6-.287l-.16.124c-.128.103-.207-.116-.232-.088-.115.122-.266.144-.321.042l-.085-.159a.615.615 0 01-.491.027l-.174-.017-.19-.017c-.103-.077-.145.088-.083.366.062.278-.004 1.057.087 1.072.09.014.318-.254.37-.328l.038.004c.133.012.073.164.057.253l-.008.078c-.057.079-.064.163-.016.18.048.016.176.113.096.153-.08.041-.286.04-.321-.078l-.058-.199s-.102-.01-.133.036c-.031.045.17.149-.02.204l-.117.037a.459.459 0 00-.02-.159.274.274 0 00-.07-.115c-.045-.005-.173.062-.158.233.014.17-.33.09-.253-.2l-.305-.089c-.042-.003.104-.298.211-.3l.133.013c.159.015.26-.085.232-.232-.029-.148-.24-.386-.167-.427.073-.042.129-.393.139-.5.01-.109-.064-.381-.177-.398l-.023.24c-.025.027-.054.04-.083.037-.03-.002-.056-.021-.075-.052l-.038-.052-.041-.046a.296.296 0 00-.224-.064c-.139.07-.275.159-.406.264l-.038-.251c-.024-.153-.207-.158-.291.015-.085.173-.176.122-.25-.024l-.06-.096a.384.384 0 00-.3-.028c-.164.039-.327-.024-.453-.175l-.272.089-.298.093c.002.302-.047.503-.085.451-.037-.052-.14-.207-.097-.22.043-.015.105-.112.055-.189-.05-.077-.49.063-.65-.025l-.048-.059-.218-.292c-.14.24-.25.224-.242-.023l-.295.257-.108.092a1.631 1.631 0 01-.406-.189c-.024-.032-.152.149-.235.226l-.092-.118c-.041-.052-.044-.227-.17-.1l-.08.077a.297.297 0 01.001.23c-.03.033-.123.097-.137.041l.004-.042c-.034-.136.154-.39-.093-.401l-.174-.017c-.02.21-.034.366-.1.335l-.045-.052a.852.852 0 00-.59-.176l-.201.06c-.22.063-.41.052-.424-.04l.003-.036.036-.384c-.208.065-.096.287-.143.428l-.005.06c-.008.084-.058.121-.112.086s-.152-.171-.125-.217a.403.403 0 00.006-.107.333.333 0 00-.023-.098.204.204 0 00-.047-.071.119.119 0 00-.063-.032l-.084.04-.228.106a1.706 1.706 0 00-.525-.14l.059.102s.018.086-.009.09a.225.225 0 01-.09-.009l-.166.015a1.228 1.228 0 00-.576-.127l-.145.035-.046-.004a.137.137 0 00-.026.048.185.185 0 00.002.119c.007.017.017.03.028.039l.042.046.023.002c.02.056-.093.173-.257.248l-.019-.328c.008-.084-.127-.151-.205-.213 0 0-.051.056-.08.077l-.046.044a.09.09 0 01-.04.025.064.064 0 01-.04-.002.084.084 0 01-.036-.029.146.146 0 01-.024-.05l.006-.065c-.02-.11.093-.263-.056-.338-.068-.006-.13-.115-.19-.102a.615.615 0 00-.244.17l-.069.078c-.069.127-.132.187-.142.132-.01-.055-.154-.111-.299-.028s-.58-.121-.637-.132c-.056-.012-.195-.08-.189-.145.006-.066.085-.258.157-.251l.05.005.041.003c.063-.024.049-.074-.025-.105-.073-.03-.243-.294-.273-.261a1.528 1.528 0 00-.16.323c-.033.106-.038.408-.107.407a1.048 1.048 0 01-.383.013l-.068-.091c-.106-.131-.18-.162-.291-.028l-.379-.035-.142.09a.382.382 0 01-.119-.078l-.026-.051-.071-.134a.315.315 0 01-.303-.028c-.03-.057-.164-.13-.181-.066l-.023.047-.004.035a.219.219 0 01-.163-.015.54.54 0 00-.134.254l-.011.12a.1.1 0 01-.102-.007.189.189 0 01-.071-.107l.009-.096c.004-.041-.11-.088-.245-.113l-.125-.012-.106-.01c-.127.049-.175.026-.102-.052.072-.078.18-.333.087-.403-.093-.069-.346-.183-.374-.089a1.66 1.66 0 01-.124.436l-.069-.007a.532.532 0 01-.021-.262c.008-.09-.216-.14-.268-.121-.05.019-.02.221-.022.245-.003.024-.029.1-.09.106l-.03-.002-.063-.073c-.03-.046-.07-.074-.113-.078-.043-.004-.088.016-.125.056-.074.09-.629-.06-.645.03l-.005.054-.026.07a.198.198 0 01-.054.079.095.095 0 01-.07.024.58.58 0 01-.12-.259l-.033-.063a.161.161 0 00-.056-.054.111.111 0 00-.068-.012.143.143 0 00-.05.053.248.248 0 00-.027.084l-.011.114c.023.16.006.267-.041.238-.047-.029-.167-.179-.272-.28l-.077-.121-.05-.078a.878.878 0 00-.233-.166l-.03-.003a1.09 1.09 0 01-.367.134l-.133-.012a1.096 1.096 0 00-.332-.249c-.06-.005-.144.192-.201.15-.057-.041-.187-.21-.14-.26.047-.05.138-.217.038-.208a3.576 3.576 0 00-.546.293l-.174-.101a.65.65 0 00-.094.184 2.374 2.374 0 01-.153.33.227.227 0 01-.04-.081.345.345 0 01-.011-.105c.009-.095-.034-.371-.077-.363a.472.472 0 00-.18.17c-.052.068-.341-.032-.47-.044-.129-.012-.496-.047-.487-.142.01-.096-.011-.328-.06-.296l-.04.057a.132.132 0 01-.026.038.078.078 0 01-.032.02.053.053 0 01-.034 0 .069.069 0 01-.03-.021c-.026-.045-.164-.119-.2-.02-.036.1-.183.443-.222.451l-.095-.009c-.056-.005-.06-.096-.012-.152l.038-.039.038-.044c.048-.056.043-.123-.012-.153l-.208-.02c.027-.1.05-.203.07-.307 0 0-.045-.083-.115-.077l-.002.03-.055.14a1.009 1.009 0 00-.019.265.844.844 0 00.051.245l-.104.051-.053-.005a1.153 1.153 0 01-.211-.352c-.022-.093-.143-.273-.217-.22l-.057-.005c-.087-.008-.164-.118-.249-.114-.084.004-.08.167-.142.21l-.049.038c-.113-.01-.162-.106-.11-.168.051-.061.085-.137-.031-.039a.731.731 0 01-.533.023l-.042-.004-.093-.07c-.046-.119-.116-.101-.156.04l-.032.136c.043.093.091.178.144.256.074.11.177.445.013.557v-.369c.004-.036-.144-.092-.217-.08l-.091-.01a.44.44 0 00-.13.135.716.716 0 00-.089.202c-.01.108-.066.26-.087.076-.021-.183.168-.818.043-.914-.125-.097-.506.145-.489.208l.014.055-.003.03c-.003.036-.008.084-.047.098l-.057-.005a3.39 3.39 0 01-.19-.296l-.12.025-.08-.007c.072.29.041.457-.066.38l-.08-.007c-.117-.011-.223-.021-.09.154 0 0-.035.082-.046.08l-.046-.004a.17.17 0 01-.056-.08.312.312 0 01-.017-.12c.007-.078.067-.308.117-.31.05 0 .17-.104.155-.226l-.017-.105-.017-.068c-.014-.036-.037-.062-.064-.072a.083.083 0 00-.083.016l-.036.057-.098.148c-.128.14-.23.293-.227.341a.546.546 0 01-.071.193.3.3 0 01-.122.116c-.12.055-.393-.085-.302-.156.12-.105.234-.233.337-.379.004-.042-.023-.16-.102-.179l-.033.033-.115.123c-.12.17-.22.233-.223.136a3.843 3.843 0 00-.021-.347.285.285 0 00-.061.128c-.007.072-.106.225-.144.15l-.039-.04c-.069-.08.014-.386-.182-.26l-.142.09c.091.13.136.309.1.402l-.238-.022c-.118-.011-.162.1-.123.206.04.106.134.079.205.019a.116.116 0 01.091-.04c.03.003.08.008.08.05s.005.152-.017.174a1.132 1.132 0 01-.221.124c-.24.147-.392-.146-.604-.165l-.041-.004c-.04-.155-.106-.216-.15-.147-.045.068-.136.06-.109-.192l-.263.284-.077.083c-.185-.06-.352-.033-.383.018-.032.052-.11.16-.167-.015a1.52 1.52 0 00-.652-.497l.026.088c.038.118.046.119.2.055l.136-.054.196-.06c-.03-.166-.12-.235-.196-.152l-.019-.001-.124-.012c-.073.078-.09.42-.036.752l-.152-.177a.211.211 0 00-.074-.078.138.138 0 00-.09-.019.177.177 0 00-.091.045.318.318 0 00-.074.1l-.061.084c.068.09.147.161.232.21.072.006-.165.25-.236.158-.072-.091-.154-.48-.21-.485-.058-.005-.24.195-.237.117a1.07 1.07 0 00-.162-.438c-.077-.116-.42-.04-.39-.146.028-.106.036-.395-.028-.407-.2.096-.397.212-.59.35-.03-.003-.13.042-.148-.014l.004-.037c.014-.155-.055-.192-.142-.158-.027-.002-.059.14-.046.201l.016.117a.441.441 0 00.128.148c.05.035.103.053.159.054.11.01.32.217.29.25a2.651 2.651 0 01-.758-.07l-.233-.367a.166.166 0 00-.08.078.322.322 0 00-.039.135l.03.057.018.038c.042.004-.011.126-.125.284-.114.159-.43.51-.418.384.012-.126-.018-.467-.063-.471-.046-.005-.198.03-.211.095-.014.065-.098.19-.144.107a1.713 1.713 0 01-.128-.465.293.293 0 00-.116-.18.156.156 0 00-.17.002l.108.234c.04.076.024.201.022.304-.002.102-.046.08-.069.078l-.045-.004a.22.22 0 01-.05-.102.355.355 0 01-.005-.133c.01-.102-.202-.249-.229-.203-.027.046-.173.171-.172.044 0-.127-.057-.458-.134-.484l-.046.038-.09.07c-.06-.06-.053-.047 0 0l.086.009c.027.002.042.088.035.166a1.096 1.096 0 01-.138.29.674.674 0 01-.194.192l-.137-.049a1.167 1.167 0 01-.366-.372l-.17-.192c.096-.196.103-.19 0 0-.101.19-.376.727-.444.678-.068-.049-.304.104-.34.125a.29.29 0 01-.196-.079c-.05-.04-.27-.086-.34.04l-.011.127c-.015.155-.084.161-.179.152-.094-.009-.159-.015-.135-.188.024-.173.042-.244-.09-.226-.038-.003-.066.139-.11.159l-.164.075c-.205.072-.37.074-.383.013a3.98 3.98 0 00-.006-.545c-.016-.195-.397-.412-.413-.323l-.007.072c-.005.06.121.139-.015.162-.136.023-.15.052-.155.185l-.014.156a1.193 1.193 0 00-.416-.088l-.031.336c-.035.081-.071.144-.078.138a.52.52 0 00-.192.127c-.095.081-.183-.368-.22-.414-.038-.046-.166.05-.216-.02-.051-.072-.146-.364-.206-.291l-.05.037-.179.159c-.054-.199-.139-.231-.183-.078l-.054.122-.005.054a.165.165 0 01-.097.022.165.165 0 01-.092-.04c-.049-.053.068-.32.067-.393 0-.072.028-.3.07-.301.043-.002.173-.044.167-.07-.005-.024-.086-.062-.169-.07-.083-.007-.296.1-.288.258.009.157-.021.602-.078.596-.057-.005-.224.064-.224-.02 0-.085-.032-.263-.06-.206-.029.058-.133.151-.164.07-.03-.082-.153-.28-.176-.198 0 .213.025.42.077.611l-.044.178-.062.254c.14.049.13.09-.028.1-.158.009-.48-.293-.444-.362.037-.07.217-.028.25-.104.034-.075.063-.139-.105-.094-.169.044-.557.443-.518.265a4.14 4.14 0 00.113-.593s-.088.082-.131.217c-.043.135-.197.477-.223.42l-.042-.04a.353.353 0 01-.097-.148l-.018-.05c.012-.141.044-.279.095-.402.06-.152.37-.37.327-.398-.043-.029-.097-.142-.053-.205a.333.333 0 00.024-.218.228.228 0 00-.039-.089.118.118 0 00-.063-.045c-.136-.055-.346-.177-.351-.329a2.299 2.299 0 01.07-.755c.06-.103-.03-.462-.005-.514l.037-.032.091.008c.004 0 .043-.177.02-.222l-.165-.269c.118-.158.225-.202.238-.092.019.114.05.221.092.317.056.05.118.078.184.085a.317.317 0 00.195-.05 1.43 1.43 0 01.551-.299c.061.042.325-.205.469-.27l.11.053.116.053.358-.07c.076.008.284.027.285.106 0 .079-.185.466-.076.44.11-.026.376-.176.343-.276l-.015-.086.005-.054a5.26 5.26 0 01.204-.549l.207.28c.03.045.151-.023.233-.039l.057.005a.901.901 0 01.364.192l.166-.063.162-.058c.167-.238.279-.288.255-.115l.017.068a.27.27 0 00.04.095c.018.026.04.044.064.054.12-.019.118-.122.068-.235l-.016-.032c-.04-.07.013-.144.13-.157.127.03.25.087.365.167a1.17 1.17 0 00.272-.21l.125.012.13.042.408-.04.079-.023c.03.003.079-.065.085-.052l.322.393c.278-.313.558-.492.626-.4.068.09.304-.105.337-.054a.865.865 0 00.652-.186l.297.288a.3.3 0 00.21.067.364.364 0 00.214-.1l.061-.049a.337.337 0 00.286-.027c.004-.042.104-.13.127-.049.023.08.028.305-.032.341a2.849 2.849 0 00-.341.337 1.47 1.47 0 00-.208.428.21.21 0 00.06.102.105.105 0 00.088.026l.054-.043c.16-.118.037-.401.158-.505.12-.103.29-.087.303-.34.05-.104.11-.198.175-.28l.1-.099.034-.033c.095.009.147.062.118.096-.03.033-.015.155.15.14a1.85 1.85 0 00.543-.123c-.045-.005-.08-.129.057-.122.137.007.462.086.414.196a1.92 1.92 0 00-.125.556l.042.004c.06.042.353-.347.347-.445l-.012-.279a2.27 2.27 0 01.458.043c.175-.052.347-.142.51-.266a.465.465 0 01.435.083c-.006.066.045.3.086.22a.535.535 0 01.566.125l.205.128.034.003a.16.16 0 00.067-.082.278.278 0 00.018-.127l-.03-.057-.035-.07c-.073-.073-.04-.149.073-.162.112-.014.32.253.338.176.02-.076.098-.268.14-.216.04.052.233.07.275-.137.043-.208-.174-.67-.198-.539-.023.131-.13.496-.175.443a1.106 1.106 0 01-.063-.423c.014-.15-.133-.423-.173-.318-.04.105-.01.386-.043.461l.03.087.026.088c.023.086-.047.14-.155.112-.108-.028-.423-.01-.41.1l-.007.072-.005.048a.16.16 0 01-.024.079c-.014.021-.033.034-.051.035l-.023-.002a.576.576 0 00-.56-.101.17.17 0 01-.095-.009 1.075 1.075 0 00-.318-.15c-.117-.012-.22.263-.358.032-.03-.051-.196.048-.298.039l-.11-.01a.895.895 0 00-.424-.083l-.033.07c-.097.22-.184-.157-.274.028-.004.042-.125.037-.186.031l-.242-.023c-.104.208-.223.257-.267.114-.044-.143-.15-.51-.098-.504.053.005.223-.058.236-.154.013-.095-.03-.292-.125-.174l-.08.034-.09.034c-.13-.012-.218.034-.195.12.022.088-.011.326-.131.303l-.054.043-.129.109c-.066-.09-.152-.136-.243-.132-.06-.006-.189.303-.26.417l-.039-.082-.108-.228c-.178.02-.303-.028-.285-.063a.413.413 0 00-.02-.185.205.205 0 00-.09-.115l-.045.038-.104.087c-.103.165-.188.218-.183.122.005-.097-.066-.357-.157-.366-.09-.008-.31.013-.251.08.058.065.157.28.033.299l-.027-.04-.197-.265c-.177.219-.382.332-.46.265-.078-.068-.277-.31-.203-.322.074-.01.225-.081.216-.149-.009-.067-.207-.357-.213-.298-.005.06-.1.263-.196.266-.096.003-.387.048-.359.117a.393.393 0 01-.019.167.254.254 0 01-.08.12c-.083.029-.239-.022-.187-.162.051-.14-.229-.378-.238-.277-.01.102-.086.349-.15.3a.5.5 0 00-.322-.03c-.057-.005-.265-.024-.284-.147-.02-.123.161-.541.09-.675l-.065-.084-.135-.194c-.089.173-.183.285-.207.252-.024-.032-.078-.23-.003-.254l.05-.05c.126-.115.179-.23-.02-.304a.1.1 0 01-.045-.052.203.203 0 01-.015-.086c.004-.042.055-.098.09-.113l.091-.033a.43.43 0 01.216.02.773.773 0 00.167.336l.009-.09c.022-.24.197-.187.29-.287l.136-.144c-.105-.149-.02-.238.187-.206.207.031.532-.5.503-.557l-.144.107a.892.892 0 01-.607.167l-.109-.15-.126-.163c-.012.132-.023.246-.07.26a.666.666 0 01-.338-.262l.17-.195c.125-.14.018-.18-.03-.239s-.052-.186.023-.245c.074-.06.075-.156.05-.286l-.031-.081c.122-.164.176-.334.123-.381-.053-.047.073-.247.095-.281.022-.035.047-.135.015-.156-.033-.021-.083-.177.005-.26l.057-.085.062-.09c.062-.134.153-.21.204-.175.05.035.155.172.126.205l-.023-.002c-.163-.015-.348-.033-.19.284 0 0-.05.086-.06.134l-.006.072a.193.193 0 00.055.108.09.09 0 00.09.02l.046-.05.06-.067c.049-.11.19-.109.307.03.234.053.475.051.715-.006.09.008.328-.12.302-.25-.026-.13-.259-.338-.247-.386l.023.002c.044-.047.09-.09.138-.126.049-.037.137-.12.143-.107l.16.245c.065-.14.146-.258.24-.346a.4.4 0 01.082.14c.02.055.033.118.036.185l-.13.09a.24.24 0 01-.212.053c-.08-.074-.15-.195-.227-.021-.024.052.039.197.09.262l.06.084c.11.057.231.043.34-.04l.06-.104.055-.097a.429.429 0 01.066-.167.217.217 0 01.11-.088 1.08 1.08 0 00.263-.03.186.186 0 00-.1-.082c-.056-.005-.16-.112-.095-.16.066-.048.192-.296.102-.438-.09-.141-.47-.292-.448-.187.02.105-.033.354-.123.37-.09.015-.254-.302-.196-.315a.476.476 0 00.155-.2.783.783 0 00.063-.293l-.27.198-.05.032c-.09-.094-.135-.183-.1-.191l.023.002c.137-.114.188-.418.413-.336a.349.349 0 00.05-.159.169.169 0 00-.046-.064.098.098 0 00-.061-.024l-.137.041c-.152.065-.282.192-.29.275-.008.084-.071.314-.129.32-.058.007-.148-.086-.03-.244.117-.158-.085-.57-.294-.457l-.195.079-.026-.003c-.074-.146.132-.428.46-.633l.345.032c.019.002.07-.096.07-.144l.005-.38c.16.09.33.134.504.131l.02.16.017.176c.127.079.239.065.248-.031.008-.096-.024-.359-.1-.366a.63.63 0 01-.364-.197c-.051-.102-.092-.444-.144-.503-.051-.06-.158-.263-.188-.23-.03.034-.092.161-.04.178.133.098.237.265.296.475l-.292-.027a.12.12 0 00-.09-.009.682.682 0 01-.452.055l-.046-.005a.23.23 0 01.038-.185.101.101 0 01.04-.031l.045.004.072.007c.08.086.151.099.159.015.008-.084-.026-.293-.086-.304a.855.855 0 01-.24-.095.878.878 0 01.187-.2c.091-.076.397-.162.406-.252.008-.09.124-.388.136-.314.014.079.022.16.023.244l-.028.058-.012.12c.034.046.077.071.124.072l.105-.063a.123.123 0 01.072-.04.094.094 0 01.072.021c.022.018.04.045.052.078a.308.308 0 01.017.112l.131.067.11.058c.012-.131.063-.235.104-.226l.152.015a.058.058 0 00.043-.005.101.101 0 00.038-.035.179.179 0 00.025-.058.216.216 0 00.005-.067l-.03-.081-.098-.27c-.129.152-.227.227-.222.167a.724.724 0 01.113-.203.43.43 0 01.15-.123c.132-.06.439.174.477.13.039-.045.164-.154.072.006-.091.161-.191.538-.025.68l.042-.037.147-.15c.125.139.232.179.237.089a6.541 6.541 0 00-.103-.657l.238-.062.034.004c.041-.148.08-.204.084-.114.003.091.071.297.143.304.072.007.26-.006.24-.038a.163.163 0 01-.01-.048.2.2 0 01.02-.101.117.117 0 01.027-.035l.03.003.069.043c.083.086.164.118.18.065.017-.053.05-.195.06-.224.102-.086.218-.11.323-.066.159.057.486-.051.343-.198l-.123-.15c-.027-.043-.063-.068-.103-.071-.039-.004-.079.014-.113.05l-.041.033c-.072-.007-.117-.096-.095-.172l.011-.12a.107.107 0 00-.02-.062.046.046 0 00-.045-.017.79.79 0 00-.232.196c-.085.089-.383.254-.398.174-.016-.08-.067-.23-.137-.176l-.019-.002c-.065-.12-.158-.197-.26-.218-.104-.02-.212.016-.306.105l-.106-.01a.345.345 0 00-.203-.096.345.345 0 00-.217.056c-.05.038-.129-.012-.19.037l-.173.087a1.813 1.813 0 00-.65-.164l-.17-.016a.41.41 0 01-.228-.094l-.105-.1-.351.123-.074-.073-.035-.033a2.19 2.19 0 01-.844-.08l-.34-.08c-.374-.083-.748-.173-1.124-.232-.14-.014-.296-.113-.441.055l-.022.028a3.615 3.615 0 01-.351-.329l-.15.052-.15.053c-.175-.21-.349-.353-.353-.311-.004.042-.083.07-.103-.046-.02-.117-.27-.17-.29-.124-.02.046-.083.028-.082-.147l-.196.018a.596.596 0 01-.303-.155l-.049-.005c-.04-.058-.049-.131-.015-.165.034-.033.089-.172.02-.221l-.054-.072c-.119-.156-.112-.264.034-.36l.179-.115c.064-.123.103-.27.113-.423a1.01 1.01 0 00-.06-.425c-.103-.215-.073-.949-.128-.966-.056-.018-.17-.107-.106-.18l.005-.047.009-.096a.426.426 0 01-.005-.181.362.362 0 01.067-.158c.141-.138.287-.263.436-.376.086-.064.522-.187.493-.286l-.033-.063a1.084 1.084 0 00-.173-.234l-.225.202a.726.726 0 01.013-.3.548.548 0 01.126-.243c.125-.151.479-.263.488-.16.01.104.26.249.305.416l.13-.03.11-.032a.293.293 0 00.127.145.118.118 0 00.081-.046.259.259 0 00.052-.11l-.03-.004-.104-.118c-.127-.109-.213-.256-.19-.332.088-.132.202-.214.319-.23l.28.026c.205.02.33-.09.278-.24l.177-.05a.096.096 0 01.098.01l.033.057c.024.075.063.109.084.08l.286-.317.194.127a.996.996 0 00.708.066l.214-.034c.183-.242.349-.342.373-.23l.043.064a.486.486 0 00.179-.068l.142-.132c.139-.102.258-.145.268-.095.011.049.07.115.114.047.045-.069.193-.218.226-.167a.85.85 0 00.553.167c.232-.02.773-.096.75-.262l.095.051c.11.059.202-.319.254.024-.004.036.012.11.024.111.257.024.492.167.768-.048l.259-.194c.278.05.558.075.84.08.122.01.425.202.47.176l.033-.033a.993.993 0 01.495-.236.78.78 0 01.496.094c.026.002.056.09.064.084l.119-.08c.104-.091.222-.125.333-.095.061.042.22-.179.238-.213a.837.837 0 01.372.107c.11.047.439-.122.49-.057.051.066.318-.133.422-.178l.098.01.106.01.179-.032c.173-.027.347-.067.519-.12.157.04.309.115.449.223.08.044.25-.152.237-.044-.014.107.209-.15.264-.29l.095.13a.3.3 0 00.146.12.228.228 0 00.172-.011l.21-.162c.075.176.147.225.158.105.011-.12.218.075.242.023.024-.052.116-.134.117-.061.01.063.033.119.066.157a.14.14 0 00.117.053l.087.008.197.019.078-.065a.348.348 0 01.133-.148.178.178 0 01.157-.012l.099.009.306.029c.103.01.224.02.262-.187l.007-.066a.69.69 0 01.333.152l.06.006.16.081c.07-.217.157-.281.19-.145l.061.042c.082.06.178.069.269.025.073-.047.107-.207.183-.285.076-.077.118.047.174.016l.09-.027.199-.115.053.078a.97.97 0 00.3.27l.08-.083.274-.277c.288.041.565.157.82.343l.067-.308s.026-.034.042-.038c.208-.017.417.117.63-.05.035.003.139.08.207.128l.156.13c.169-.093.38-.194.472-.228l.018.002c.122.217.258.024.38.036.133.033.27.046.408.038a.73.73 0 00.321-.127c.062-.043.091-.197.146-.21.13-.036.088.123.114.21.033.044.076.065.12.06l.216-.258.886.083.193.018.265.025a.897.897 0 01.547-.263c.037.058.188.2.238.156.05-.044.213-.113.212-.023 0 .09.07.43.165.487.094.057.293-.317.33-.338l.026.003.269.146c.242-.208.504-.344.77-.399l.168-.039c.12-.024.236.252.384-.018.028-.058.154-.058.234-.056l.511.048.091.008c.073.073.15.135.231.185l.073-.084.661-.252.277.105.023.002c.026.002.062-.055.081-.138.02-.083.22.057.3.028a.534.534 0 01.321.03c.083.057.386-.042.533.105l-.052.267-.004.048c.025.063.098.01.17-.178a.837.837 0 01.403-.213.63.63 0 01.409.06l.279-.246.041-.038c.103.053.202.12.295.203l.02-.216c.038.004.204-.017.383-.018.213.065.422.151.626.258l.029-.027.108-.099.245.077c.091.009.11-.273.273-.143.064.054.241-.044.27.025.027.07.23-.178.263.08a.15.15 0 00.129.011l.118-.116a2 2 0 00.378.036c.08.007.366-.074.469-.065.176-.011.35.024.513.103l.095.009.087.008a.619.619 0 00.308-.231l.078.062.078.061c.102-.069.17.016.15.196l.012.122.017.303a.954.954 0 00.532-.294l.076-.078c.141-.148.289-.28.441-.393l.164-.118c.212.13.433.226.661.286l.197-.024.038.004c.102-.095.207-.18.314-.255l.026.045.185.313a.588.588 0 01.228-.235.314.314 0 01.262-.02c.2.164.414.284.639.355l.014-.15.022-.239.318-.043c.083.008.272.026.243.132-.029.106.227.021.288.027.06.006.166-.22.226-.25l.046-.045c.12-.11.132.266.29.076.062-.08.23-.033.341-.005.105.038.208.088.307.15.029.02.062.024.094.01l.099-.07a.637.637 0 01.353-.106l.258.024c.19.12.387.23.435.246.048.017.175-.11.212-.058.037.052.31-.086.507-.073a3.3 3.3 0 00.957-.388c.142-.09.53.17.592.122l.057.005.087.009c.103.021.21.013.315-.025l.005-.048a.232.232 0 01.026-.084.13.13 0 01.05-.053.069.069 0 01.057-.005.095.095 0 01.048.044l.212.304c.162-.226.275-.282.25-.134l.176-.056a.51.51 0 01.238-.05c.163.015.321.2.459-.084a.868.868 0 01.16.088.098.098 0 00.071.007.405.405 0 01.389-.073c.125.012.258-.018.384-.018s.25.023.378.036l.034.003c.147.017.297 0 .444-.05l.185-.06s.042.124.076.176l.022.002a.439.439 0 00.197-.096c.335-.032.67-.131.997-.293l.38.301c.065.048.182.017.277-.016a.359.359 0 01.174.016l.306.12c.102-.196.233-.323.29-.281.057.041.261.103.291.027.03-.076.31.029.386-.042.076-.072.398.194.556.221l.137.013.068.006c.072-.114.138-.168.149-.125.011.044.163.015.306-.164l.133.12a.89.89 0 00.57.17l.25.023a.789.789 0 01.589-.138c.116.059.416.28.47.207l.06-.03c.116-.062.248.246.358-.04.11-.285.214.087.309-.073.056.01.11.03.163.057l.06.006c.163-.02.326-.078.482-.172l.2.109a.176.176 0 01.046-.073.082.082 0 01.062-.023.082.082 0 01.057.034c.016.02.027.049.032.08l.05.005c.06.006.147-.07.213-.125.066-.054.088-.119.152.014s.35-.033.437.229c.109-.054.214-.131.312-.23l.12.01.209.02c.18-.028.361-.01.534.05l-.005.054c.007.164.077.152.168.119.091-.034.207-.216.375-.128l.113.059c.218-.081.433-.197.64-.345l.14.291a1.84 1.84 0 00.295-.256l.082.152c.029.06.068.104.112.132a.193.193 0 00.144.025l.11.01a.413.413 0 00.31-.091c.051-.056.208-.18.238-.135.03.045.139.152.155.105.024-.026.053-.04.081-.037.029.003.055.021.074.052.054.072.242.234.252.163.01-.072.167-.196.315-.104l.195-.12.174-.11c.087-.108.164-.113.17.015l-.005.066-.006.06c-.008.084.035.112.063.06a1.13 1.13 0 01.362-.316l.086.225c.032.049.076.076.122.078a.285.285 0 00.182-.061l.026.002c.038-.08.067-.096.069-.036.002.06.03.245.06.26l.125-.121c.222.055.44.14.649.254l.114-.358a.072.072 0 01.068.006l.196.267c.185-.14.381-.234.58-.278.099.009.373.101.433-.014s.428.082.549.051l.087-.076a.237.237 0 01.16-.094.188.188 0 01.156.07c.12.18.195.072.3-.015l.026.003c.065.036.102.094.08.122-.022.028-.016.168.072.206l.064-.03c.107-.044.167-.196.275-.283l.16-.13c.096.088.203.128.238.083a.305.305 0 01.133.128l.02.062c.125.028.252.04.38.036l.084-.09.15-.167a.373.373 0 00.424.082l.125-.036s.061.042.069.079c.008.037.057.205.08.086l.05-.255c.143.062.29.108.438.138.216-.047.428-.154.626-.316l.097.184a.36.36 0 01.205.056c.05.04.208-.065.25-.031.044.034.19.102.205.02.017-.082.038-.16.064-.237.011.011.02.026.026.043a.18.18 0 01.01.058.904.904 0 00.056.265c.118-.074.233-.16.348-.246a.384.384 0 01.133-.072c.144.014.265.182.435.041l.023.002c.11.162.214.244.228.179.013-.066.085-.258.115-.213.206.028.415.013.623-.044l.258.181c.054.008.11-.014.159-.064l.024-.263c.167-.027.303.028.309.09a.402.402 0 00.174.174.27.27 0 00.214.007c.345-.026.688.006 1.022.096l.105-.057a.226.226 0 01.257.024c.16.048.326.064.492.046a.1.1 0 01.095.01c-.007.071.027.074.08.007.052-.068.302.028.364.185l.077.122.019.002a.238.238 0 00.143-.222l-.11-.01c-.007-.134.02-.222.05-.202.065.051.12.127.162.221l.041.046a.228.228 0 00.155.1c.196-.012.382.08.53.26l.194.212c.022-.24.107-.328.17-.195.09.354.155.725.196 1.106l.29.082.117.01c.099.01.094.136-.027.294l.245-.05.18-.037a.261.261 0 01.106.158c.02.074.022.159.005.24l.028.074.086.22c.137.249.178.464.093.48a1.543 1.543 0 01-.432-.161c-.068-.007-.249.327-.196.302a.302.302 0 01.192-.019c.014.143.013.29-.002.435-.019.198-.254.671-.225.686.03.015.118.132.056.18-.062.05-.25.273-.259.357-.007.084-.063.393-.09.36a.071.071 0 00-.047-.002.104.104 0 00-.044.029.182.182 0 00-.035.054.26.26 0 00-.018.069c-.013.138.189.55.148.618l-.007.078c-.068.199-.073.458-.31.497-.023-.002-.072.12-.06.151l.068.17c.09.183.07.314-.049.28l.01.26.012.279c-.03.318-.09.596-.143.555l-.019-.044-.062-.115a1.938 1.938 0 00-.164-.372c-.036-.064-.155.112-.148.198l.09.056a.148.148 0 01.056.082.284.284 0 01-.034.236.119.119 0 01-.075.052c-.106.026-.23.287-.342.022l-.069-.006c-.338.161-.69.202-1.027.121-.106-.01-.246.104-.31.055l-.075-.067c-.044-.216-.101-.221-.132-.012l-.058.043a.804.804 0 01-.418.142l-.166-.016a.622.622 0 00-.498.092c-.084.083-.29-.166-.305-.167l-.218.088a2.121 2.121 0 00-.807.087l-.166-.064-.15-.056c-.164.027-.355.07-.43.087a.807.807 0 01-.493-.156l-.17.142c-.09.07-.24-.083-.37-.126l-.162-.063c-.21.083-.403.222-.41.311-.01.09-.2.133-.195.037.005-.096-.009-.358-.032-.354-.023.004-.066.097-.099.196-.032.1-.076.374-.037.402.04.028.096.16.012.2-.084.04-.227-.269-.272-.327l.03.003-.51-.049c-.053-.005-.142-.073-.143-.11.015-.155-.06-.223-.141-.164l-.038-.003c.016.152-.024.257-.106.231-.081-.025-.244.286-.35.36l.129.175.122.163c.093-.1.196-.139.226-.093a.403.403 0 00.165.154c.063-.097.115-.207.181-.303.067-.097.061.005.095.009l.178.016c-.073.126-.082.228-.02.222.061-.006.075.218.078.225.003.006.056.005.1-.1.045-.104.192-.29.255-.23.138.11.281.204.428.283l.114-.068c.075-.035.148-.08.219-.137.092-.094.044-.19-.013-.279 0 0 .046-.074.077-.084a.072.072 0 01.044.01.105.105 0 01.036.034l.008.164c-.019.198.055.344.129.333l.034-.04.136-.144.5.174.071.128c.066.114.066.114.138-.084a.336.336 0 01.131-.145.172.172 0 01.155-.01c.055.036.109.077.16.124l.042.004c.043.065.147.014.227-.063l.077-.084.127-.139c.077.145.168.268.272.364l.042-.123.097-.269c.17.064.344.1.521.11l.114.01.038.004c.16.056.315.138.462.243l.247-.195.169-.129c.089.196.197.303.242.234.044-.068.378.036.465.044.22-.073.434-.193.637-.357l.017.31-.013.144a.9.9 0 00.234-.142.137.137 0 01.093-.027c.03.003.06.018.085.044.036.06.063.131.078.211.016.08.02.165.013.25-.015.157-.018.604.107.615l.094.01c.034.017.07.02.106.01.21-.114.206-.115.288.026l.09.111a.37.37 0 01.086.217.546.546 0 01-.04.265l-.015.162-.008.084c.082.138.187.24.305.294l.105-.063.045-.032c.033-.105.096-.166.146-.13.05.034.166.226.126.325l-.048.026-.134.078a.404.404 0 01-.342.022c-.03-.045-.153-.08-.193.03a2.861 2.861 0 00-.116.425.09.09 0 00.05-.025.17.17 0 00.041-.057c.03-.064.12-.219.138-.205.03.094.041.202.032.311-.013.138-.092.45-.15.379-.058-.072-.224.148-.313.242l-.106-.01c-.03-.002-.084.077-.084.12 0 .042.031.117.068.133l.06.005c.076.008.088.13.023.293l.027.038.16.257c-.112.075-.225.14-.34.198-.023-.002-.055.103-.02.204.037.1.24.42.218.624a8.959 8.959 0 01-.173.83.039.039 0 01-.026.007.038.038 0 01-.024-.012l-.022-.002c-.024-.032-.147.059-.27.198l-.026.27c.061.205.14.46.177.56.036.1.018.42-.15.41l-.124-.012c-.147.016-.29.07-.432.08-.142.01-.276-.026-.408-.038-.133-.013-.355.117-.386.042l-.12-.199c-.151.108-.306.2-.464.277l-.149-.086-.127-.03c-.159-.015-.274-.056-.247-.138.027-.082.032-.342-.078-.352-.11-.01-.362.032-.37.116a.415.415 0 01-.1.182.185.185 0 01-.144.061c-.162.03-.323.093-.48.185l-.049-.005a.94.94 0 00-.586-.055c-.206.008-.41-.01-.61-.057l-.09-.009c-.12.044-.242.067-.362.069l-.084-.008c-.088-.038-.231-.136-.258-.097-.117.153-.16-.015-.235-.022-.076-.007-.188.098-.276.09-.087-.009-.166-.137-.254-.14l-.159-.014a7.048 7.048 0 01-.58.109l-.124-.133c-.063-.066-.229.033-.347.028a4.5 4.5 0 00-.766.024l-.045-.004a1.422 1.422 0 01-.348.004l-.121-.012-.182-.017a2.673 2.673 0 01-.455-.042L73.714 25a2.074 2.074 0 00-.428.093c-.135.054-.202-.212-.337-.08-.134.132-.12-.187-.227-.022-.044.063-.192.013-.291.01l-.666-.063a.513.513 0 00-.303-.028l-.158.087a1.416 1.416 0 00-.535-.2l-.147.027a1.21 1.21 0 01-.636-.06l-.16-.05a.847.847 0 01-.651-.062l-.206.12c-.138.084-.333-.031-.504-.047l-.333.01a1.816 1.816 0 01-.78-.072c-.063-.06-.282-.087-.413-.16l-.09.106a.378.378 0 01-.166.095.273.273 0 01-.17-.012l-.883-.082a.303.303 0 01-.321-.03c-.055-.072-.263.078-.316.03-.053-.047-.272.041-.332.03-.06-.012-.466.004-.766.03l-.218-.129-.155-.093a.71.71 0 00-.311.225c-.042.074-.36.002-.496-.047l-.129-.012-.064-.006c-.088.04-.068.108.038.16l.089.075.088.075c.092.118.103.167.024.117-.08-.05-.35.112-.358.232l.02.111a.236.236 0 00.121.132l.255-.23c.184.26.425.406.683.415l.223.021.046.004c.053.042.107.04.125.012.018-.028.072-.162.087-.16a.724.724 0 01.137.09c.057.006.237-.122.264-.247l-.013-.116c-.021-.255-.12-.011-.143-.013-.135-.2-.207-.2-.305.074l-.057.158c-.182-.054-.264-.122-.18-.162l.063-.06s.013-.133-.026-.166l-.037-.052c-.064.03-.084-.008-.05-.005a.235.235 0 01.189-.055c.057.006.21-.04.257.025.048.065.295-.051.365-.063a.772.772 0 01.265.025s-.042.123-.133.163l-.049.068c-.05.08-.095.239-.065.29.03.05.189.229.249.198l.18-.098c.066.105.136.2.21.286.127.015.255.015.383 0l.108.197a.175.175 0 00.193.018c.088-.052.163-.196.252-.212l.076.008a5.3 5.3 0 00.32.26c.085.061.44-.014.587.09l.174-.104.04-.026c.069.006.137-.03.15-.095.014-.065.113-.135.182.017.178-.104.237.33.452.115l.084-.083c.149.023.29.091.417.202l.097-.105a.28.28 0 01.196-.099.242.242 0 01.187.092.6.6 0 00.541.051c.006-.06.07-.217.108-.207l.023.153c.025.268.085.407.135.315.05-.092.184-.255.204-.18.025.055.06.096.102.117a.147.147 0 00.132.001 1.22 1.22 0 01.33-.174c-.004.036.017.134.059.138l.075.007c.09.009.18.03.266.061.121.012.511.006.562.114.051.107.218.28.254.18a.332.332 0 01.078-.101.185.185 0 01.095-.046.146.146 0 01.095.02c.03.018.056.045.077.082l.202-.078.06.005c.1-.05.196-.125.285-.22l.093.147.034.046.098.009c.042.004-.01-.291-.278-.498l-.245-.113-.046-.005a.167.167 0 01-.016-.057.213.213 0 01.024-.123.114.114 0 01.036-.04l.053.006a.423.423 0 01.151.014l.16.015a.289.289 0 00.193.112.288.288 0 00.211-.074l.11-.105.05-.05c.125.013.193.098.156.173-.038.075-.14.222-.163.184l-.026-.003c-.046-.004-.097-.07-.133-.048a.155.155 0 00-.045.062.246.246 0 00-.019.089c.033.14.077.272.131.393.01.033.025.061.043.083a.13.13 0 00.064.045.11.11 0 00.071-.002.167.167 0 00.067-.049l.054-.043c.059.017.12.014.18-.009a.432.432 0 00.168-.122l.091-.112c.045.004.079.056.077.08a1.07 1.07 0 00-.02.215c-.007.066.099.203.119.072l.03-.082a.2.2 0 01.044-.068.105.105 0 01.057-.031c.02.003.04.013.057.029a.179.179 0 01.041.065l.032.148c.025.184.094.184.148.014l.186.017c.202.04.407.06.613.058l.197.018c.145-.065.293-.114.441-.146l.038.004c.06.006.148.092.177.065.227-.215.38.035.576.09l.103.01.139-.18c.038-.045-.044-.222-.274-.298l.188-.303c.127-.205.21.159.365.192.079.007.106-.039.152-.04.149.001.297.015.443.041 0 0 .024.075.017.11l-.004.042c-.07.07-.143.13-.22.18-.093.063-.375-.066-.409.01-.034.075-.027.287.132.308l.136.012a.826.826 0 01.322.03c.212.18.468.222.715.116.083-.002.162.044.22.13l.026.05c.02.036.048.058.079.06.03.004.062-.012.088-.044.041-.075.192-.218.216-.149.024.069.148.256.183.217.05-.074.096-.157.133-.248.004-.042.114.011.16-.063.044-.075.237.276.37.445l.197.019.194.048c.212.02.431.005.487.016l.046.004.09.051a.194.194 0 00.125.03.238.238 0 00.126-.055c.032-.057.235.059.313.29l-.057.242-.046.201c.104.118.237.163.37.125l.12-.14c.054.006.104.12.116.235.013.116-.26.46-.612.547l-.33-.031c-.23-.022-.223-.021-.4.434l-.03.081c-.1.051-.162-.015-.15-.098l-.185-.072c.057-.164.089-.336.061-.369l-.064.03-.041-.004c-.065-.042-.133-.012-.15.047-.017.059-.117.23-.186.188l-.03-.045-.068-.091a.236.236 0 00-.088.102.411.411 0 00-.039.158l.11.01.197.06a3.799 3.799 0 01-.22.518l.084.074a.368.368 0 00.179-.073c.057-.047.11-.103.16-.167a.305.305 0 00-.01-.094.2.2 0 00-.035-.073.623.623 0 01-.104-.155.166.166 0 01.148.014c.072.007.248.162.243.222a.288.288 0 00.041.138c.024.036.055.058.089.062.08.007.283.08.252.205-.03.124-.136.356-.2.337-.063-.018-.158.064-.074.223l.063.145.072.164c.125.175.175.379.111.452l-.066.054a.196.196 0 01-.146.046 1.741 1.741 0 01-.481-.117l-.046-.005a5.208 5.208 0 00-.047-.808l-.042.045c-.064.072-.028.293-.193.223a1.543 1.543 0 01-.268-.11c-.054-.04-.078-.146-.132-.187a.108.108 0 00-.069-.008.146.146 0 00-.067.037.299.299 0 00-.016.168l.214.08c.152.131.317.228.489.288l.023.039.05.083a.995.995 0 00.198-.29l.021-.221c-.087.07-.39.374-.675.68l-.219.058-.019-.002a1.771 1.771 0 01-.039-.481l-.226-.076c-.03-.039-.009-.152.046-.25l.037-.105a.241.241 0 00-.005-.092.143.143 0 00-.037-.069c-.034-.003-.087-.008-.137.03-.03.33-.109.594-.128.556a3.875 3.875 0 01-.211-.437l-.28.083-.07.023a.491.491 0 00-.133-.048c-.034-.004-.11.068-.098.147l.029.064c.08.046.147.128.195.235.065.127.08.612-.003.604-.083-.007-.243-.463-.376-.67l-.147-.062-.272-.116c.116-.182.176-.291.126-.242l-.042-.004c-.079.023-.224.028-.166.142.058.114-.061.29.065.405l.152.129c.173.155.25.271.179.258l-.053.038-.174.104a.617.617 0 00-.425-.16c-.082.028-.329.047-.333-.032-.004-.079-.03-.329-.054-.235-.031.115-.07.225-.115.328l-.019-.002-.198.042a6.734 6.734 0 01-.598-.183c-.118-.047-.61.148-.842.133l-.157-.239c-.036-.064-.2-.019-.276-.026l-.327.187c-.13-.17-.247-.222-.257-.115-.01.108-.303-.028-.373-.089-.071-.061-.326.211-.359.117l-.02-.08-.019-.074c-.026-.166-.06-.175-.076-.008-.015.168.041.464.143.437.19.011.37.095.527.243l-.05.176-.43-.149c-.094-.009-.164.166-.296.02l-.107-.118a1.518 1.518 0 00-.183.406c.012.04.032.074.057.097a.11.11 0 00.084.03L73 32.07c.187.12.402.273.48.33.08.055.273.188.345.116a2.13 2.13 0 00.246-.297l-.061-.006c-.057-.005.045-.153.23-.329l.211-.022c.114.01.224.063.345-.046.041-.039.153.08.239.095a.9.9 0 00.24-.032c.06.005.143-.06.178-.032l.13.127c.2.042.394.127.576.254v.247s.072.007.132-.066c.06-.073-.095-.335-.115-.367-.02-.032.06-.067.282.093l.191-.212.026-.028c.073.056.14.13.197.218.037.058.223-.009.257-.006a.752.752 0 01.163.136c.052.06.28.027.373.096l.107-.044.056-.026a.431.431 0 00.199-.084c.034-.039.2.14.249.199.047.059.392-.114.388-.066.115.082.25.095.378.035l.074.068.116.107a.456.456 0 01.108-.213.63.63 0 01.308.101l.142-.09c.154-.093.262.134.438.096a.75.75 0 01.437.144l.05.005c.153.022.31.02.466-.005a1.61 1.61 0 01.757.071c-.007.072-.137.235-.278.234-.141-.001-.495.757-.413.698l.038-.038c.059-.055.11-.11.165-.172l.07-.084c.082.008.158.015.174-.032.016-.047.205.02.216.056.012.038.13.164.187.048l.004-.042c-.091-.498-.043-.608.352-.746.104-.045.19-.194.292-.227l.11-.032c.137.013.245.12.246.193 0 .072.033.263.058.235a.086.086 0 01.078-.012.12.12 0 01.063.061l-.003.03-.07.145a1.09 1.09 0 00-.167.431l.056.005a.393.393 0 00.186-.181c.037-.076.155-.276.16-.197.003.079.076.285.163.293.087.009.393-.12.445-.308l-.231-.058-.231-.064c.025-.27.095-.45.128-.393a.61.61 0 00.363.203l.117-.025.057.005c.07-.096.143-.101.166.016.024.117.016.364-.108.262l-.08-.008a.1.1 0 00-.07-.007.145.145 0 00-.067.043c-.025.027-.011.125-.015.167-.004.042.086.184.129.176l.253-.019c-.049.28-.006.435.09.34l.161.203c.09-.168.2-.308.321-.41.199.038.393.105.581.199l.137-.156c.057.047.086.104.069.127-.018.022-.06.145.02.14.081-.004.292.028.297.059.005.03.025.22.045.216.02-.005.053-.074.07-.145.019-.07.205.02.259.06.07.278.106.579.104.887-.015.161.103.614.21.624l.086.05c-.027.088-.064.151-.081.131-.017-.02-.114-.01-.134.09-.021.101-.164.318-.276.295-.113-.023-.36.335-.294.36.067.024.38.035.376.07.032.09.05.19.056.296a.143.143 0 01-.07.05.094.094 0 01-.075-.01l-.041-.045c.006-.072-.04-.107-.092-.081-.052.025-.15.179-.08.276.072.097-.038.413-.033.36a.105.105 0 00-.021-.046.05.05 0 00-.034-.019.051.051 0 00-.037.013.104.104 0 00-.03.04c-.04.105-.272-.026-.325.048-.047.04-.102.053-.152.036s-.093-.062-.121-.128l-.178.056-.026-.003c0 .072.01.142.03.204.02.061.049.114.086.152l-.08.155-.004.042c.057.127-.022.234-.144.234l-.11-.01-.18-.065c-.044.183-.133.23-.194.103l.046-.486c-.178.105-.3.232-.268.29.033.057.07.224.045.3a4.369 4.369 0 01-.121.315c-.096 0-.19-.009-.284-.027l-.674-.063-.08.113-.093.136a.423.423 0 00-.378-.035c-.089.046-.373-.096-.511-.048a2.083 2.083 0 01-.712.018l-.115.158-.098-.01c-.03-.002.028-.299-.14-.254-.053-.005-.086.18-.147.216a1.864 1.864 0 01-.282.076c-.091.04-.245.17-.255.151-.077-.152-.14-.049-.23-.021l-.174.056a9.096 9.096 0 00-.386-.405c-.07-.067-.236.28-.273.35-.037.068-.265-.026-.358.068-.093.094-.384-.23-.47-.291-.085-.063-.515.163-.777.15l-.232-.1-.098-.046a.371.371 0 00-.272.047c-.042.039-.203-.08-.235-.106-.032-.028-.32-.085-.574-.151a2.207 2.207 0 00-.993.124c-.005.054-.088.288-.095.197-.007-.091-.06-.338-.105-.348a2.425 2.425 0 00-.551.057l-.184-.199-.08-.092a.917.917 0 01-.546.045l-.095.04-.08.04-.422-.07-.132-.012-.076-.007a.123.123 0 00-.11-.037.177.177 0 00-.108.077c-.034.082-.167.323-.176.298a17.58 17.58 0 01-.114-.416l-.127.043-.19.073c.089.132.163.286.221.456.032.105-.186.314-.26.241a.518.518 0 00-.44-.144c-.095.076-.372.182-.328.241.044.059.178.18.197.14l-.057.115c-.08.156-.056.599-.147.59-.09-.008-.363.208-.357.142.007-.066-.01-.267-.046-.276a.569.569 0 00-.201-.019c-.038-.004-.06.188-.055.224.004.037-.043.093-.127.043l-.046-.07-.027-.046a.587.587 0 01.06-.157.382.382 0 01.091-.112c.07-.054.246-.256.206-.32a.827.827 0 01-.057-.374c.03-.135.068-.265.117-.387a.226.226 0 01.114-.06c.04-.007.078 0 .115.02.026.045.13.152.159.136l.003-.03.1-.172c-.048-.21-.147-.375-.278-.46l-.11.116c-.03.033-.095-.009-.144.029l-.133.035-.278-.177a.404.404 0 00-.235.105c-.074.054-.432-.125-.523-.049a.93.93 0 01-.572-.053l-.075-.008-.2-.145a.628.628 0 00-.251.151c-.088.083.005.55-.064.677a1.89 1.89 0 00-.107.534c-.006.066-.17-.016-.265-.067l-.092-.039-.106-.01a.47.47 0 01-.114-.17.776.776 0 01-.054-.238c.011-.114-.039-.44.072-.477.11-.038.385-.037.321.072l-.034.082c-.039.09-.073.183-.103.28l-.006.072a.23.23 0 00.04.11.1.1 0 00.075.046l.037-.027.27-.186c0-.38-.143-.69-.318-.689l-.16.04-.123.037c-.11 0-.22-.01-.329-.031l-.05-.005c-.128-.048-.14-.013-.107.129l.022.135a.21.21 0 00-.118.087.432.432 0 00-.07.173c-.01.108-.078.386-.128.345l.004-.042.016-.168c.019-.204 0-.369-.05-.373-.049-.005-.178.068-.168.171.009.104-.076.404-.18.449a.673.673 0 01-.402-.19.603.603 0 01-.102-.305c.009-.09-.039-.36-.126-.404a.587.587 0 00-.344-.075l-.033.347-.05-.083zm.512-6.756c-.106-.01-.158-.112-.119-.24l-.129-.013c-.037-.004-.094.07-.133.12l-.06.073c-.059.091-.138.126-.18.074-.04-.052-.168-.149-.176-.07-.007.077.054.282.145.29a.63.63 0 01.367.162c.016.074.129.212.203.158.073-.053.185-.55.082-.554zm5.31.408c-.088-.008-.126-.133-.09-.238.037-.105.11-.443.128-.502.017-.059-.208-.189-.202-.085.005.103-.034.36-.077.367-.042.008-.152.076-.144.15a.506.506 0 01-.065.2.263.263 0 01-.124.114l-.11.032-.208.06c.014.176.094.298.181.264.177.053.346.144.502.27.046.005.193.067.197.02.005-.049.072-.2.13-.133.06.066.267-.066.255-.152a.965.965 0 00-.378-.368h.004zm9.108-3.466c-.128-.187-.23-.402-.222-.486a.543.543 0 00-.077-.23.262.262 0 00-.147-.117l-.113.025a.646.646 0 00-.25.176l-.01.12c-.002.012.09.093.119.072.072-.053.142-.115.208-.186 0 0 .021.062.07.115.048.053 1.009.44.925.274l-.101-.063-.145-.087a.924.924 0 00-.473-.044l-.005.054-.011.12c.02.179.055.35.105.511l.058.114c.032.049.076.074.123.072.123-.054.01-.113.016-.167l.01-.12c-.017-.213.037.027-.096-.154l.016.001zm-66.393 3.012a.402.402 0 01-.044.106.256.256 0 01-.066.075.15.15 0 01-.077.03.127.127 0 01-.075-.018c-.082-.062-.319-.15-.33-.031-.011.12.04.354.135.315.095-.04.624-.546.52-.332l-.089.173-.023.046c-.042.032-.038.081-.01.096.082.037.16.087.235.149.082.068.28-.143.306-.086.025.056.107.21.127.193a.57.57 0 00.03-.312l-.007-.133a1.868 1.868 0 01.005-.38l.011-.126c.06-.188-.042-.198-.223-.021l-.038-.004-.12-.114a.405.405 0 00-.167.136.732.732 0 00-.115.237l.015.001zm45.102-6.19l-.268-.32a.774.774 0 01-.06-.266l-.02-.074a.351.351 0 00-.092-.148l-.091-.009c-.088.167-.178-.016-.265.018-.088.034-.308.061-.313.115-.029.306-.208.138-.31.201-.022-.002-.04.063-.05.104-.055.206-.133.15-.215.04l-.047-.065a.164.164 0 00-.112-.067.164.164 0 00-.123.045l-.002.018.013.11c.08.173.182.317.3.421l.106-.02.187-.043c.196-.133.394-.126.41.039l.082.056c.068.048.202-.036.306-.05l.098.01.136-.018c-.015-.129-.01-.255.026-.276.036-.02 1.01.421 1.175.455l.13-.036.072.006a.726.726 0 00.039-.419c-.03-.093-.238-.113-.328-.17-.09-.056-.464.186-.675.197l-.026-.341a.229.229 0 00-.053-.084.13.13 0 00-.073-.037c-.123.05-.01.108-.015.162l-.007.072a.873.873 0 01-.158.263c-.063.067.062.405.148.54l.085-.258.004-.036c.055-.055.102.015-.03-.136l.016.002zm-17.522-1.173c-.156.45-.245.63-.2.398l-.044-.07a.38.38 0 00-.294-.161c-.19-.018-.392-.146-.583.066l-.023-.002a2.414 2.414 0 00-.507-.048l-.19-.018-.068-.006a.318.318 0 01-.146-.11.164.164 0 00-.127.01.29.29 0 00-.113.106c-.088.125-.379-.036-.42.045.09.116.186.22.287.311.023.002.072.007.11-.02l.098-.039c.1-.045.191-.042.2.019.01.061.051.156.085.159l.253-.091a.988.988 0 00.55-.075l.03-.034c.026-.034.064-.072.086-.064.08.007.175.131.216.099l.222-.173c.239-.262.406-.252.379.036l.052.174a.302.302 0 00.15.085.27.27 0 00.165-.02l.158-.172a.507.507 0 00.298.197c.065.006.262-.187.35-.1.087.087.258.417.345.39.087-.029.008-.29.069-.327.06-.036.026-.287-.234-.439l-.268.084a.189.189 0 01-.17-.016.429.429 0 00-.224-.138.373.373 0 00-.248.033c-.124.061-.158.058-.22-.057l-.023-.032zm-31.386 6.77c.195.405.226.77.066.81l-.152.064-.278.12a1.796 1.796 0 00-.206-.377c-.03-.003-.117-.01-.136.072l-.011.12c.065.115.02.147-.102.063-.122-.084-.464-.104-.437.182l.162.106.227.148c.252-.121.507-.115.567.023l.174-.068a.071.071 0 01.05.005l.202.085.422-.431c.075-.072.33-.054.359-.124l-.015-.044c-.031-.047-.074-.072-.12-.071l-.049-.005c-.066.054-.117-.01-.11-.125a2.674 2.674 0 00-.001-.441s-.087.076-.125.188a5.132 5.132 0 01-.84.525 2.4 2.4 0 00.441-.623l.19-.122c.086-.052.068-.102.018-.185s.014-.144.02-.216l.005-.048c.005-.054-.034-.093-.098-.1l-.003.03-.22.439zm46.744-5.654c.075.007.12-.062.1-.136-.02-.075-.129-.218-.193-.181-.064.036-.153-.28-.183-.374l-.288-.027c.062.114.06.253-.002.308a.434.434 0 01-.378-.036l-.122-.047-.106-.047c-.093-.117-.16-.014-.138.163l-.208-.02-.042-.004c-.044-.137-.13-.2-.193-.133-.064.067-.253.212-.263.15a.165.165 0 00-.084-.091c-.035-.014-.073-.007-.108.02-.086.064-.319.187-.326.144-.008-.043-.055-.15-.084-.129-.029.022-.106-.01-.112-.065-.006-.055.006-.06-.015.162l-.231-.27a.467.467 0 00-.376-.065l-.064-.006a1.958 1.958 0 00-.206.368l-.046-.005a.694.694 0 00-.366-.173l.012.001c-.032-.154-.09-.232-.126-.169-.036.063.098.384.403.552l.277.062.099.01.439.04.11.01a.821.821 0 00.29-.038 2.72 2.72 0 01.721 0l.239.023c.236-.117.414-.015.392.218l.243-.273.02.002a.66.66 0 00.302.197.655.655 0 00.416-.118l.155.015.042-.038zm-9.377-.168c.104-.214.117-.394.038-.407a1.774 1.774 0 00-.503-.047l-.12.06a.472.472 0 00-.313.074l-.14-.092a2.075 2.075 0 00-.405-.17.1.1 0 00-.09.027c-.1.124-.154.052-.254-.024a.498.498 0 00-.466-.043c-.113.068-.16-.197-.279.004-.045.08-.253-.024-.382 0l-.026-.002a.452.452 0 00-.042.159.24.24 0 00.073.147.11.11 0 00.122.016l.083.008c.095.009.15.19.24.216.124.052.26.038.386-.042l.09-.064c.151.028.3.075.445.138.099.046.355-.118.355-.04 0 .08.14.183.302-.001l.187.048.143.013c.145.068.294.112.447.133l.043-.057.066-.054zm3.746-.192c.009-.096-.108-.113-.261-.024l-.119-.205-.082-.147c-.105.062-.207.14-.304.232-.042.044-.24-.174-.253-.193a.344.344 0 01-.065-.127c-.013-.056-.194.036-.262.156a.351.351 0 01-.175.072.292.292 0 01-.172-.038c.026-.034.01-.12-.086-.147-.097-.027-.332.24-.443.327l-.11-.058-.134-.067c-.163-.094-.205-.056-.096.081l-.007.078-.078.386c.21.086.407.104.435.04.03-.063.155-.184.215-.13l.045.046c.07.075.152.119.239.127a.373.373 0 00.258-.08l.203-.132a1.244 1.244 0 01-.14-.297.905.905 0 01.332.164l.146.11c.03.003.072.043.074.067.002.025-.02.216.113.223l.11.01a.35.35 0 01.166-.184l.034.003.125.012c.06.004.121-.024.173-.08a.505.505 0 00.115-.225h.004zm16.633 6.958c-.051.062-.069.127-.043.141.025.015.071.092.034.118l-.033.027-.026-.002c-.03.033.01.249.085.473l.186.018.332.085c-.151.185-.24.328-.197.314a1.39 1.39 0 00.314-.182c.08-.077.173-.419.143-.464-.03-.045-.144-.17-.16-.25-.015-.08-.08-.365-.16-.408a.794.794 0 00-.479.13h.004zm-55.173-.394c-.024-.075-.126-.085-.235-.022-.11.062-.23.298-.192.175.038-.123-.222-.45-.32-.423-.098.027-.353.185-.364.304a.51.51 0 00.103.274c.056.066.126.097.199.087l.078.231.09.256a7.05 7.05 0 01.398-.367c.09-.076.26-.447.239-.516h.004zm39.232-6.16c.244-.038.416-.119.399-.187a.356.356 0 01.016-.27.209.209 0 01.05-.062l.006-.072c.042-.165-.082-.14-.157-.154a.45.45 0 00-.201-.018l-.08.04a.269.269 0 01-.129.082.187.187 0 01-.133-.016c-.072-.049-.216-.062-.127.091.089.154.108.687.144.709l.212-.144zm9.003.482c.221-.16.388-.429.363-.57-.025-.141-.404-.098-.444-.12.012-.368-.169-.191-.3-.174l-.057-.005c-.072-.007-.136.06-.148.192a.6.6 0 00.032.167.39.39 0 00.073.128c.03.034.065.058.102.069.037.012.076.01.114-.002l.055.072.21.243zm11.512 5.311a.266.266 0 000-.212.125.125 0 00-.037-.045l-.049-.005-.041-.004c-.088.073-.186.094-.277.06l-.051.097-.028.046a6.4 6.4 0 01.175.506l-.12.14c.022.086.108.106.189.06l.073.121c.023.04.052.073.085.095a.184.184 0 00.105.032l.101-.057a1.497 1.497 0 01-.112-.391l.072-.084.03-.034c-.011-.037-.16-.238-.118-.325h.004zm-62.409-7.413c-.064-.006-.055.055.02.147.076.092.328.097.37-.116l.168.167c.15.147.278.261.39-.09l.005-.049c.11-.026.089-.13-.043-.233l-.098-.01-.087-.008c-.11.11-.191.121-.183.031L11 23.396l-.013-.068c-.02-.031-.046-.05-.075-.052-.029-.003-.058.01-.083.037l-.025.058-.03.07c-.033.112-.238.177-.306.17l.004.001zm34.323 1.132a.402.402 0 00-.032-.123.238.238 0 00-.064-.086.142.142 0 00-.083-.034.149.149 0 00-.087.025c-.113.068-.482-.197-.582-.23l-.065.042-.09.058a.585.585 0 00-.07.188.678.678 0 00-.009.21l.046.004c.07.015.143 0 .21-.047l.052-.025a.168.168 0 01.077-.052.113.113 0 01.08.006c.054.005.24.186.357.27l.125-.104.135-.102zm16.08 12.726c.087.05.084.117-.014.15-.099.033-.358.226-.37.321l-.008.084-.007.078c0 .03.004.06.012.085a.18.18 0 00.035.066c.015.018.032.03.05.035a.087.087 0 00.057-.002c.148-.095.288-.22.417-.372.119-.128.006-.634-.1-.644l-.379-.035c.097.092.2.17.307.234zm-40.8-6.309c-.073-.103-.151-.129-.174-.052l-.004.042-.076.33.407.341.027.003c.09-.044.183-.076.276-.095.076.007.197.103.226.07l.116-.14a.269.269 0 00.248.053c.026-.034.015-.162-.101-.227a1.512 1.512 0 00-.513.09c-.06-.005-.205-.091-.148-.177.058-.085-.224-.13-.298-.24l.015.002zm54.973-14.218c.165-.172.273-.349.243-.394a2.362 2.362 0 00-.377-.38l-.161.051-.224.07c.086.177.14.345.12.38-.018.034.038.209.165.323l.099.01.135-.06zM9.037 31.412c-.065-.006-.116-.156-.115-.337l.05-.122c.044-.099.118-.158.022-.234a.731.731 0 00-.27-.098s-.06.152-.056.152c.154.105-.05.255.02.4l.062.115a.549.549 0 00.048.282c.039.077.096.126.16.137l.115.01.01.002a.142.142 0 00.031-.047.208.208 0 00.012-.124.142.142 0 00-.021-.051l-.05-.005-.019-.08zM20.85 10.549a.496.496 0 00.053-.364.387.387 0 00-.151-.15.26.26 0 00-.184-.02c-.143.053.204.635.267.532l.015.002zm-4.118 19.229c-.006.066.03.003.084-.156.052-.158.359-.37.364-.425l-.02-.001c-.038-.034-.115-.072-.128-.055l-.124.188a1.118 1.118 0 00-.485-.046c-.117.026-.132.399-.034.372l.086-.028.076.007a.107.107 0 01.101.024c.03.026.053.068.065.118l.015.002zm62.065-.185c-.14.101-.142.294-.005.416l.061.006c.072-.03.124-.182.172-.286l.085-.173c.1.081.207.073.239-.02.031-.094-.42-.052-.552.057zm-7.552-.395c-.136.066-.198.187-.128.26.07.073.432-.292.548-.553l.218-.046.012-.12-.023-.002-.284.052.02-.204c-.033-.046-.075-.071-.12-.071l-.13.042c.04.07.016.57-.125.64l.011.002zM4.59 32.469c.063.06.054.192-.027.288-.081.095-.193.344-.128.35.064.006.254-.103.287-.25.05-.207.07-.424.06-.636-.032-.075-.157-.208-.216-.153-.058.055-.04.34.024.401zm64.983-.274c.033-.007.065-.033.088-.074a.302.302 0 00.036-.144 1.702 1.702 0 00-.17-.511l-.067-.067c-.04.027-.067.072-.054.098a.224.224 0 01-.01.104.137.137 0 01-.053.071c-.06.037-.254.267-.188.34.129.102.27.164.418.183zm-53.683-.647c-.16-.015-.285.064-.29.19-.003.127-.153.457-.148.53l.03.003a.148.148 0 00.136-.023.457.457 0 00.116-.17c.05-.171.071-.194.097-.149.085.195.155.057.22-.021.065-.079.025-.264-.055-.314l-.106-.046zm9.351.19c-.049-.132-.146-.075-.214.13l.132.013.288-.01c-.027.282-.025.264.034.003l.17-.02.266-.03c.026-.151.04-.306.043-.46.005-.054-.054-.072-.087.07-.032.142-.579.435-.632.303zm-22.576.937c.022-.234-.018-.382-.057-.332a5.362 5.362 0 00-.304.437 1.752 1.752 0 00-.068.719.11.11 0 00.094.003.19.19 0 00.085-.077c-.187-.29-.03-.462.143-.627l.107-.123zm67.943-1.289c-.118-.011-.18.17-.142.41l-.118.2s-.008.084.02.11a.075.075 0 00.043.02.076.076 0 00.044-.01c.061-.038.162-.1.162-.137l-.01-.351c.228-.1.114-.231 0-.242zm-55.178-.558c.045.089-.026-.002-.162-.184l.214-.246s.005-.06-.023-.087c-.028-.027-.034-.003-.049-.005-.144.03-.287.052-.43.1l-.105.031c-.114.074-.121.11-.009.09.2.044.39.146.56.3l.004.001zm21.86-6.68c-.212.065-.335.235-.273.386l.087.056c.1.07.1-.13.145-.168l.13-.114a.66.66 0 00.337.11c.03.003.11-.086.088-.13a.602.602 0 00-.247-.217l-.094.027-.173.05zM7.8 32.378c.037.003.03.075-.011.107l-.003.03a.736.736 0 00-.02.222.08.08 0 00.09.008.206.206 0 00.048-.06.314.314 0 00.03-.083l.03-.318c.064-.227.107-.466.128-.707l-.065-.006a.698.698 0 00-.223.227 1.07 1.07 0 00-.045.308c0 .105.016.206.045.296l-.005-.024zm-.953-1.752c-.053-.12-.096-.154-.092-.075.024.091.062.17.111.23s.107.1.17.117l-.085.252a.29.29 0 00.074.067c.015.01.033.012.05.005l.049.004c.08.008.143-.143.136-.32l-.056-.095c-.05-.083-.171-.083-.258-.133l-.099-.052zm9.628.584c-.166-.1-.306-.113-.314-.03a.45.45 0 00.1.23.2.2 0 00.173.074c.167-.02.44-.381.288-.378l-.13.048-.117.056zm31.96-6.438c-.084-.093-.16-.015-.16.112l.043.113.033.093a.15.15 0 00.036.057.084.084 0 00.05.024.084.084 0 00.054-.014.149.149 0 00.046-.05l.009-.095c.016-.174.13-.085.2-.108l.049-.026c.047-.056.065-.127.041-.153-.024-.027-.313.164-.396.071l-.006-.024zM9.77 30.912c.082.069.162.064.174.017a1.172 1.172 0 00-.12-.561l-.11-.125a.17.17 0 00-.131-.06.33.33 0 00-.161.087s.023.153.035.154c.167-.026.107.161.156.25.049.09.216.02.16.245l-.003-.006zm-4.42 1.399c.11.01.122-.116.026-.27l-.088-.123a.119.119 0 00-.133-.012c-.029.027-.059.14-.038.165.079.135.11.204-.076.205-.023-.003-.059.175-.08.27 0 .023.003.045.01.064a.09.09 0 00.03.043l.046.004c.058-.049.2-.374.305-.364l-.002.018zm56.091 5.297c.009-.09-.046-.077-.11-.01a.734.734 0 00-.042.455c.09.075.188.126.292.148.08.007.12-.315.088-.373l-.03-.002-.065-.006c-.087.082-.135-.146-.13-.23l-.003.018zM1.703 32.065c.13-.079.228-.196.222-.257-.005-.061-.06-.169-.093-.106-.032.064-.104-.197-.123-.271-.02-.074-.083-.262-.099-.257a.391.391 0 00-.02.21c.01.103-.01.404-.065.416-.055.014.05.331.18.247l-.002.018zm11.374-1.35c.276.103.57.085.853-.052-.287-.57-.539-.08-.851.035l-.002.018zm58.942 7.898c.2-.054.305-.153.227-.22l-.048-.053c-.027-.003-.04-.07-.064-.097l-.125-.133c-.144.108-.273.265-.285.354l.02.063c.033.06.08.097.132.103l.143-.017zM4.19 31.748c.032.1.078.098.098.01.02-.09-.383-.399-.443-.253l-.012.137-.004.036c.048.023.33-.047.362.052l-.002.018zm2.796.233c.063-.06.081-.132.038-.16a.28.28 0 01-.06-.13.442.442 0 010-.165c.027-.089-.183-.09-.208-.02-.03.12-.051.244-.061.369-.001.048.226.148.293.088l-.002.018zm79.123 3.133c-.144-.014-.21.07-.144.15.065.078.396-.157.306-.25l-.067-.103c-.034-.052.209-.107.018-.198-.109-.058-.147.065-.14.187l.026.214zm-78.785-1.76c.087-.028.049-.068-.084-.08l-.261-.025a4.021 4.021 0 00-.048.51c-.003.035.054.155.074.073.079-.204.19-.375.32-.496v.018zm10.06-1.382l.098.01.003-.03c.047-.099.11-.202.112-.304a1.339 1.339 0 00-.068-.412.116.116 0 00-.063-.026.116.116 0 00-.066.014l-.062.091a.742.742 0 00-.057.363c.033.099.073.19.12.271l-.017.023zm-14.327.613c.023.165.104.24.176.161.072-.078.043-.46.026-.602-.018-.14-.213.27-.185.424l-.017.017zm58.665-.952c.159-.19.24-.4.184-.466-.055-.066-.26.163-.27.32l-.163-.016c-.026-.003-.107.129-.1.166.036.154.088.008.13.012l.218-.016zm12.572.993a.293.293 0 00.065.129c.03.031.065.049.102.05l.151.014a.194.194 0 00.032-.055.269.269 0 00.013-.141.195.195 0 00-.02-.061l-.236-.022c.06-.146.11-.274.12-.291.009-.018.007-.078-.04-.107l-.027-.002c-.166.057-.216.191-.16.414v.072zm-17.926-1.133c.03.003.007-.362-.057-.736l-.075-.062a.103.103 0 00-.102-.01l-.023-.002c-.002.191.026.376.08.54l.063.23s.057.035.09.008l.024.032zM4.15 15.882a.163.163 0 00-.107-.06.162.162 0 00-.117.039c-.09.064-.241.297-.167.401l.076.007.129.012c.164-.081.214-.33.186-.4zm9.456 15.47c.01-.114-.067-.061-.185.103l-.097.136c-.063.181-.032.341.086.346.118.005.175-.479.196-.585zm-5.534-4.418a.371.371 0 00.216-.481l-.202.168-.096.082c-.17-.016-.313.08-.32.187l-.009.102c.027.003.108-.05.192-.175l.034.003.185.114zm6.996 4.718c.13.12.262.14.295.028.033-.112.109-.431.048-.51-.062-.078-.178-.016-.212.101l.056.09a.123.123 0 01-.008.09l-.18.2zm61.686-2.064c.102.01.193.018.21-.047l.012-.12c.006-.065-.095-.13-.208-.146-.113-.016-.108.298-.004.332l-.01-.019zm-61.184 3.64a.254.254 0 00.057-.09.372.372 0 00.023-.12l-.242-.023a1.286 1.286 0 00-.42-.317l-.004.03c-.003.036-.03.112-.011.126.106.082.213.165.321.235a.96.96 0 00.254.15l.022.009zm20.575-8.214c-.055.055-.009.09.065.072.075-.017.16.342.212.395a.442.442 0 00.102-.19l.048-.237a.39.39 0 00-.418-.021l-.01-.02zm40.484 7.874c-.121-.011-.185.019-.146.053.092.078.19.14.292.184.095.01.241-.334.297-.4a.652.652 0 00-.131-.23l-.023-.003c-.058.013-.158.427-.28.415l-.009-.019zM20.17 29.95c-.057-.005-.072.078-.035.166l.035.004c.06.005.134-.054.194-.037l.09.009c.09.069.201.019.238-.044l-.02-.038c-.03-.076-.131-.103-.159-.178l-.03-.076c.01-.12.02-.215.02-.215a.178.178 0 00-.039.051.264.264 0 00-.023.07.698.698 0 01-.261.307l-.01-.019zm50.229 4.717c.01-.108-.063-.151-.163-.1a.893.893 0 00-.238.425l.02.038c.019.038.067.09.095.081l.078-.023a.833.833 0 00.217-.396l-.01-.025zm-53.121-4.789c-.037-.142-.076-.249-.093-.238a.645.645 0 00-.073.253c-.01.114.024.443.107.415l.042-.045c.034-.039.032-.136.065-.163.033-.027.076.25.155.015.08-.234-.064-.133-.131-.188l-.072-.049zm-.38 2.43c-.046.123.025.105.16-.04.136-.144-.126-.736-.099-.613.014.217-.004.44-.053.654h-.008zm10.818-.712c.06-.098.05-.207-.019-.244-.069-.037-.228.148-.202.247.025.1.165.106.229-.003h-.008zM11.6 31.532c.041.173.17.106.286-.155l-.152-.086-.106-.059c-.12-.011-.19.025-.148.12l.054.077.066.103zm7.752.262c.072-.078.047-.17-.06-.205l-.04-.04-.118-.114c-.142.042-.234.172-.203.29.031.117.353.147.429.07h-.008zm-12.14-.052c-.053.068-.019.192.039.27.137.045.285.007.415-.106.049-.074 0-.296-.03-.251-.031.045-.131.133-.161.088a.253.253 0 00-.256 0H7.21zm4.371-1.626a.492.492 0 00-.304-.054.623.623 0 00-.303.142c.251.332.251.332.615-.087h-.008zm62.84-13.358c.04-.051-.007-.2-.11-.331l-.098-.01c-.072-.006-.176.087-.255.158 0 0-.015.162.007.164l.057.005c.064.006.125.012.13.073.006.06.23-.003.27-.06zM55.132 31.11c.156.051.298-.002.32-.12l-.03-.082-.04-.107a.966.966 0 01-.303-.028l-.04.026-.045.026a.212.212 0 00-.037.105c-.004.04.002.08.017.111l.038.003.12.066zm-37.264.622c-.055.146-.06.152 0 0l.157-.045.204-.06c-.09-.213-.294-.033-.36.105zm21.028 7.415c-.22.07-.329-.031-.246-.186l.041-.111c.056-.146.118-.122.196-.049.077.074.078.062.102.046.025-.015.115-.164.164-.16.17.017.172-.25.281-.27.206-.034.071.304.208.359.045.004.1.075.128.06.117-.067.01-.114-.01-.176-.022-.063.032-.07.056-.08.024-.01.091.01.091.01.028.199.048.403.058.609l-.004.042c-.066.048-.214-.123-.346-.39l-.279.041a.5.5 0 00-.327.114l-.113.14z"/>
    <path d="M76.124 39.446c.174.052.223.148.106.21-.116.06-.356.213-.262.192.093-.021.264.115.16.196-.102.081-.49-.19-.534-.2-.045-.011-.208-.02-.19.102.02.123.009.364-.078.392l-.041-.004-.1-.076c-.1.039-.155-.063-.12-.229l.109-.105a.62.62 0 01.234-.192.377.377 0 01.256-.021c.11.033.229-.003.33-.102l.13-.163zm-13.314.647c-.08-.056.012-.138.167-.196l.156-.033a.507.507 0 00.12.177c.05.044.104.07.161.079.11.01.394.157.355.293l-.01.102-.001.017c.13.08.167.131.08.123-.087-.008-.295-.076-.297-.137a.205.205 0 00-.068-.12.1.1 0 00-.106-.011 1.61 1.61 0 01-.557-.294zm-27.775-3.436c.025-.064-.03-.1-.123-.084s-.333-.031-.327-.097c.007-.066.092-.372.161-.414.07-.042.174.264.203.327l.068-.072a.133.133 0 01.051-.046.078.078 0 01.058-.005.1.1 0 01.05.039.19.19 0 01.03.072l.041.13c.048.088.083.19.106.3a.121.121 0 01-.014.035.075.075 0 01-.02.024.044.044 0 01-.025.008.039.039 0 01-.023-.007l-.038-.004a.355.355 0 00-.136-.013l-.05-.004c-.053-.005-.037-.13-.012-.189zM72.2 40.884c.01.015.023.025.037.03a.057.057 0 00.042-.002.094.094 0 00.038-.032.17.17 0 00.027-.055c.04-.099.206-.367.269-.35l.021.057.05.114c.084.092.101.196.033.226-.13.118-.267.213-.408.282-.14.03-.378-.325-.348-.359a.324.324 0 01.24.09zm-6.533-1.568c.021.056-.02.215-.091.36l-.137-.013-.117-.01c-.037-.137-.112-.229-.172-.204-.06.024-.256.036-.253-.072.002-.109.1-.42.204-.428l.06.047.133.091c.109.026.212.08.306.162l.037.052.03.015zm4.163 1.43c.078.104.164.13.189.066.025-.064.1-.087.124.06l.045.005.099.009c.018.092-.013.131-.07.09l-.064-.006c-.106-.01-.232.153-.33-.031 0 0-.08.035-.117.074l-.059.054a.447.447 0 01-.178-.185.836.836 0 01-.093-.305l.172-.123.023.002c.045.004.082.104.08.213l.117.01.062.067zm-2.98-1.053c-.042.044-.11-.01-.153-.123s-.108-.313-.057-.205c.05.107.34-.004.402.11l.13-.115a.284.284 0 00.1-.132.47.47 0 00.033-.194c.01-.113.016-.173.114-.116.097.058.058.109.087.172l-.159.347-.128-.012c-.116.05-.327.23-.37.268zm2.416-14.173c-.096.202-.22.31-.28.25-.059-.06-.107-.281.131-.253l.163.015.155.015c.196-.054.355-.04.352.033-.003.072-.144.313-.31.334l-.05-.084-.161-.31zM50.23 39.824c-.108-.227-.042-.408.144-.391l.223.02a.475.475 0 01.149-.239c.048-.026.13.085.175.131.045.047.212.135.166.27l-.142-.044a2.251 2.251 0 01-.461-.007l-.055.055-.199.205zm-.354-1.32c-.057.08-.1.057-.094-.051l.083-.107a.734.734 0 01.479-.227l-.14-.297-.029-.064a.425.425 0 01.186-.194.222.222 0 01.214.008l-.186.188s-.03.04-.005.054l.13.405c-.217.054-.431.15-.638.285zm23.593 2.294c.295.027.472.135.395.224-.077.09-.145.53-.212.476l-.04-.064a.557.557 0 01-.081-.274c0-.332-.163-.227-.3-.185l-.057-.006c-.088.047-.099-.045-.03-.202l.079.008.246.023zm-19.119-3.01c-.008.09-.064.085-.12-.011-.056-.096-.192-.357-.16-.384.034-.027.182-.098.201-.017l.032.063.079.14c.092-.1.189-.19.288-.269l.072.007c.038.004.094.057.098.1 0 .03-.004.062-.014.09a.171.171 0 01-.043.068l-.066.054c-.083.035-.358.07-.366.159zm-6.914 1.29c.134-.047.242.023.238.144-.003.12-.24.285-.242.219-.001-.067-.092-.16-.197-.055l-.102-.179a1.71 1.71 0 00-.18-.228c.035-.057.344.147.483.1zm-.797-2.098c-.114-.011-.218.04-.235.14-.017.102-.101.263-.144.15-.043-.113.136-.513.318-.544l.17-.014.03.002a.236.236 0 01.019.123.237.237 0 01-.041.117l-.042-.004-.075.03zm-4.544.842c.012-.126.157-.215.286-.203l.107.04.053.005c.037.094.05.21.026.256-.024.047-.05.207-.118.237-.032-.063-.027-.16-.06-.217l-.023-.038c-.057-.006-.106-.01-.105.02l-.016.168c-.022.04-.18-.144-.15-.268zm9.162 1.936c-.04-.059-.04-.119.013-.144.052-.026.185-.14.142-.174-.042-.034-.105-.143.013-.132.117.011.417.112.344.196l-.062.048c-.082.065-.191.085-.256.17l-.048.067c-.001.091-.106.027-.146-.032zm4.373-2.859c.155.087.21.225.127.302-.083.077-.116.593-.117.684l-.006.06c-.004.048-.06.109-.093.106a.158.158 0 01-.104-.076l.073-.253c-.123-.151-.102-.336.038-.408l.01-.102.071-.313zm25.679-6.762c-.046-.083-.014-.14.077-.132.09.009.266.091.225.166-.042.075.046.276-.026.27-.071-.007-.298.14-.31.091-.01-.049.083-.312.034-.395zM66.77 25.665c-.14-.013-.193-.108-.117-.222.075-.114.33-.308.4-.198.07.11-.048.515-.132.47l-.083-.007-.069-.043zm4.19.273c-.213.125-.396.162-.388.078.007-.083-.273-.073-.288-.117l.004-.036.008-.09.317-.043c.099.01.38.036.347.136l-.007.071.008.001zM42.182 38.93c.045.13-.01.114-.128-.012l-.16.196-.034.04c-.004.035-.03-.004-.072-.008-.042-.004-.101-.227-.072-.254.03-.028.164-.118.172-.08.008.036.074.103.102.009l.04-.05.025-.035c.065.007.1.046.083.099l-.004.042.048.053zM4.306 34.376c.026.13 0 .212-.056.188a.71.71 0 01-.256-.241c-.041-.095.039-.42.134-.41l.078.06.093.07a.149.149 0 01.115-.045.15.15 0 01.104.066c-.046.086-.128.145-.175.237l-.037.075zm34.687 2.381c.044-.099.081-.047.086.11.004.158-.056.6-.117.636-.06.037-.167-.384-.21-.485-.045-.1-.169-.45-.106-.427.063.024.304.264.347.166zm-9.029-.812c.049.005.065.079.033.173-.031.093-.204-.02-.25.024l.023.117c.04.15.006.267-.078.26-.083-.009-.204-.02-.098-.052.106-.033-.025-.426-.027-.523l.065-.084.092-.125a.53.53 0 00.24.21zm35.853 3.482a.14.14 0 01-.076-.033.228.228 0 01-.06-.077l-.026-.038-.037-.052c-.041-.053-.053-.132-.021-.184l.033-.033.043-.044.232-.196.072-.041.072-.036c.084.008.107.089.051.235l-.078.1-.164.203c.115.12.012.2-.041.196zm-24.768-2.344c-.16.081-.208.053-.102-.058s.302-.576.344-.572a.386.386 0 01.178.059c-.107.243-.253.44-.42.57zm17.683 1.437s.02.068.013.152c-.008.084-.113.31-.215.3-.103-.01-.405-.17-.389-.339l.042.004c.107-.044.286-.124.261.188.031.043.072.066.116.065.03.003.072-.072.084-.119l.007-.078c.018-.113.063-.181.081-.173zm14.412 1.256c.009-.09.086-.1.175-.032.09.07.287.323.227.396-.06.073-.257.218-.249.086l.007-.078.032-.342c-.128.145-.2.054-.192-.03zm-7.281-14.504c-.067.223-.14.344-.159.27-.02-.075-.135-.231-.215-.19-.08.04-.23.093-.137-.013.094-.106.064-.357.055-.26-.009.095.246.022.288.026l.03.003.138.164zM43.022 39.268c-.114.153-.15.168-.087.028.063-.139.201-.518.266-.513.064.007.222.07.202.122a.236.236 0 00-.157.055.458.458 0 00-.127.166l-.097.142zm22.062 1.099c-.091-.05-.117-.144-.058-.199.058-.055.266.14.314.193.048.053.136.297.031.36l-.08.04-.03-.003c-.043.014-.08-.34-.177-.391zm-.442.11c-.08.24-.165.377-.185.302-.02-.074-.273-.31-.25-.386.022-.076.238.023.28.027.041.004.074-.265.148-.282l.057.005.08.007c.084.038.075.086-.01.108l-.029.058-.091.16zm-31.644-3.08c-.113-.053-.05-.078.143-.054l.088-.082.162-.148a.64.64 0 00.307.234c.072.007.231.022.095.01-.137-.014-.689.092-.795.04zm21.802 1.14c.003.166-.012.335-.046.497l-.027-.002-.026-.002a.796.796 0 01-.17-.3c-.07-.193-.12-.4-.153-.62l.023.003c.026.002.086-.022.094.009a1.1 1.1 0 00.213.34l.092.075zm-16.552-2.678c.046-.038.012.128-.075.361l-.11.026-.133.036c-.168-.124-.289-.299-.273-.388.016-.089.246.072.306.077l.057.006a.728.728 0 00.182-.074l.047-.044zM12.257 33.08c.007-.078.09-.064.19.018.134.116.26.255.373.416-.005.054-.047.213-.102.153-.056-.06-.175-.258-.156-.34.02-.084-.31-.163-.305-.247zm45.624 6.9c-.019.198-.036.39-.111.413-.075.023-.2.012-.202-.08l.023.003.059-.06a.213.213 0 00.096-.097.402.402 0 00.046-.163c.01-.101-.186-.3-.201-.339-.016-.037.295.143.29.324zm17.422 1.183c.275-.046.412-.01.304.09-.108.098-.002.513-.028.547-.026.033-.097-.07-.07-.31l-.134-.205-.072-.122zm-27.719-4.246c.131-.054.17.016.08.159-.09.142-.356.42-.354.238l.013-.138c.012-.131-.03-.329.18-.29l.08.03zm15.051 3.365c.127.078.092.244-.077.38l-.147.022-.091-.008c-.114-.126-.068-.17.101-.106l.03-.323s.066-.042.092-.034l.092.07zm6.235 1.008a.214.214 0 01-.104.09.127.127 0 01-.113-.013c-.06-.048-.172-.198-.117-.223l.152.015c.053-.098.097-.206.133-.32.018-.071.107.36.05.452zm-28.067-2.605c-.049-.004-.126.085-.167.202-.042.117-.183.4-.21.361a.411.411 0 01-.013-.152.41.41 0 01.041-.147c.056-.104.285-.433.374-.449l.03.051c.089.154.223-.305.239.023.01.212-.15.089-.236.11l-.057.001zm20.494 1.616s.042-.044.09-.058l.045.005.072.006a.117.117 0 00.037-.045.195.195 0 00.013-.137.118.118 0 00-.029-.051l-.072-.007-.053-.005c-.068-.006-.042-.119.054-.206l.129.012c.063.07.119.157.163.257.021.062-.025.263-.111.334l-.076-.007-.087-.009a.359.359 0 01-.175-.089zm-.564-.053c-.098-.178-.091-.334.033-.353.124-.019.35.1.354.3l-.19.03-.197.023zm8.68-1.994a.51.51 0 01.059.224.644.644 0 01-.038.249l-.04.177c-.006.06.181.144-.017.18-.026-.002-.086-.099-.088-.16-.002-.06.025-.263.037-.395.004-.036-.048-.095-.085-.11-.036-.016-.124-.06-.032-.142.044-.044.096-.063.146-.053l.058.03zm-.769-12.37a.168.168 0 01-.076.064.099.099 0 01-.082-.004.153.153 0 01-.065-.07.297.297 0 01-.03-.117l-.043-.149c-.042-.119-.128-.096-.208-.02a.162.162 0 01-.042-.09.261.261 0 01.008-.118l.133.012a.846.846 0 01.39.273l.016.116-.001.103zM46.712 36.6c-.098-.01-.144-.093-.113-.144.05-.091.093-.19.128-.296l.072.085a.164.164 0 00.17.016c.094-.07.192-.17.227.021l.024.154a3.517 3.517 0 01-.508.163zm12.426-11.548a.09.09 0 01-.098-.01l-.023-.002-.158-.232c-.067.23-.179.364-.249.29-.07-.072-.055-.343-.004-.278.051.066.278-.07.33-.053a.836.836 0 01.218.117.27.27 0 01-.016.168z"/>
  </g>
  <defs>
    <clipPath id="N_WhyUH3ca">
      <path fill="#fff" transform="rotate(5.364 2.071 44.222) skewX(.03)" d="M0 0h85.764v35.769H0z"/>
    </clipPath>
  </defs>
</svg>
