<svg xmlns="http://www.w3.org/2000/svg" fill="none" viewBox="0 0 433 396">
  <path d="M431.94 392.279c0-7.444-2.006-64.717-.422-74.92-2.247-40.534-.069-81.028-.861-125.647.783-21.522-1.859-43.573 0-62.863-1.911-10.722 1.937-20.706.129-31.417 2.023-10.223.138-20.925.207-31.417-.732-20.765 1.11-41.71.861-62.843-18.99-2.69-43.566 3.457-49.067.12-7.92-2.272-16.631 2.58-24.525.06-24.964-.997-50.117 2.35-73.583.179-11.681-5.321-24.714 1.743-36.8.08-25.472-.11-49.747 1.564-73.583.179-17.217-5.979-11.294 1.634-36.792.09-28.742 3.238-51.296-6.647-73.505.129-9.788-5.82-20.66-1.724-31.265.08-10.115-2.77-21.116.548-31.532.587-.973 8.968 1.971 19.64.396 29.893 2.247 40.534.06 81.028.86 125.647-.783 21.522 1.86 43.573 0 62.863C4.37 233.8.523 243.784 2.33 254.496c-2.015 10.223-.138 20.924-.198 31.416.723 20.746-1.076 83.768-.861 104.882 49.781 1.046 102.326 2.431 148.104 2.929 13.033-5.36 25.48-6.217 37.015.24 12.405-.548 24.878-1.674 36.973.149 12.292.259 24.903-2.063 36.938.06a70.328 70.328 0 0021.52 0c51.296-.409 101.422-1.216 150.179-1.873" fill="#fff"/>
  <path d="M431.94 392.279c0-7.444-2.006-64.717-.422-74.92-2.247-40.534-.069-81.028-.861-125.647.783-21.522-1.859-43.573 0-62.863-1.911-10.722 1.937-20.706.129-31.417 2.023-10.223.138-20.925.207-31.417-.732-20.765 1.11-41.71.861-62.843-18.99-2.69-43.566 3.457-49.067.12-7.92-2.272-16.631 2.58-24.525.06-24.964-.997-50.117 2.35-73.583.179-11.681-5.321-24.714 1.743-36.8.08-25.472-.11-49.747 1.564-73.583.179-17.217-5.979-11.294 1.634-36.792.09-28.742 3.238-51.296-6.647-73.505.129-9.788-5.82-20.66-1.724-31.265.08-10.115-2.77-21.116.548-31.532.587-.973 8.968 1.971 19.64.396 29.893 2.247 40.534.06 81.028.86 125.647-.783 21.522 1.86 43.573 0 62.863C4.37 233.8.523 243.784 2.33 254.496c-2.015 10.223-.138 20.924-.198 31.416.723 20.746-1.076 83.768-.861 104.882 49.781 1.046 102.326 2.431 148.104 2.929 13.033-5.36 25.48-6.217 37.015.24 12.405-.548 24.878-1.674 36.973.149 12.292.259 24.903-2.063 36.938.06a70.328 70.328 0 0021.52 0c51.296-.409 101.422-1.216 150.179-1.873" stroke="#000" stroke-width="2" stroke-miterlimit="10"/>
</svg>
